M48
; DRILL file {KiCad (5.1.10)-1} date 12/28/21 21:38:25
; FORMAT={-:-/ absolute / metric / decimal}
; #@! TF.CreationDate,2021-12-28T21:38:25-08:00
; #@! TF.GenerationSoftware,Kicad,Pcbnew,(5.1.10)-1
; #@! TF.FileFunction,Plated,1,2,PTH
FMAT,2
METRIC
T1C0.600
T2C0.762
T3C0.800
T4C0.900
T5C1.000
T6C1.100
T7C1.200
T8C1.500
T9C1.600
T10C3.124
%
G90
G05
T1
X85.915Y-112.649
X87.915Y-112.649
X92.71Y-112.649
X94.71Y-112.649
T2
X77.343Y-78.613
X90.678Y-78.613
T4
X92.882Y-64.827
X92.882Y-67.367
T5
X87.757Y-67.818
X87.757Y-70.358
X104.584Y-110.082
X104.584Y-112.622
X105.219Y-65.126
X105.219Y-67.666
T6
X76.391Y-98.107
X76.391Y-100.647
X76.391Y-103.187
X85.496Y-86.208
X85.496Y-90.068
X95.656Y-86.208
X95.656Y-90.068
T7
X88.9Y-105.461
X91.4Y-105.461
X93.9Y-105.461
T8
X74.612Y-91.748
X74.612Y-109.547
T9
X72.898Y-78.613
X95.123Y-78.613
T10
X87.0Y-98.461
X95.8Y-98.461
T3
X77.343Y-65.194G85X77.343Y-67.394
G05
X79.543Y-70.894G85X81.743Y-70.894
G05
X83.443Y-65.194G85X83.443Y-67.394
G05
T0
M30
