G04 #@! TF.GenerationSoftware,KiCad,Pcbnew,(5.1.10)-1*
G04 #@! TF.CreationDate,2021-12-28T21:38:16-08:00*
G04 #@! TF.ProjectId,breadboardPower,62726561-6462-46f6-9172-64506f776572,rev?*
G04 #@! TF.SameCoordinates,Original*
G04 #@! TF.FileFunction,Profile,NP*
%FSLAX46Y46*%
G04 Gerber Fmt 4.6, Leading zero omitted, Abs format (unit mm)*
G04 Created by KiCad (PCBNEW (5.1.10)-1) date 2021-12-28 21:38:16*
%MOMM*%
%LPD*%
G01*
G04 APERTURE LIST*
G04 #@! TA.AperFunction,Profile*
%ADD10C,0.100000*%
G04 #@! TD*
G04 APERTURE END LIST*
D10*
X70739000Y-116713000D02*
G75*
G02*
X69596000Y-115570000I0J1143000D01*
G01*
X69596000Y-62611000D02*
G75*
G02*
X70739000Y-61468000I1143000J0D01*
G01*
X107950000Y-61468000D02*
G75*
G02*
X109093000Y-62611000I0J-1143000D01*
G01*
X107950000Y-105537000D02*
G75*
G02*
X109093000Y-106680000I0J-1143000D01*
G01*
X109093000Y-115570000D02*
G75*
G02*
X107950000Y-116713000I-1143000J0D01*
G01*
X109093000Y-69469000D02*
G75*
G02*
X107950000Y-70612000I-1143000J0D01*
G01*
X102743000Y-71755000D02*
G75*
G02*
X103886000Y-70612000I1143000J0D01*
G01*
X103886000Y-105537000D02*
G75*
G02*
X102743000Y-104394000I0J1143000D01*
G01*
X69596000Y-62611000D02*
X69596000Y-67945000D01*
X76073000Y-61468000D02*
X70739000Y-61468000D01*
X102235000Y-116713000D02*
X107950000Y-116713000D01*
X107950000Y-61468000D02*
X102108000Y-61468000D01*
X70739000Y-116713000D02*
X102235000Y-116713000D01*
X69596000Y-67945000D02*
X69596000Y-115570000D01*
X76073000Y-61468000D02*
X102108000Y-61468000D01*
X102743000Y-104394000D02*
X102743000Y-71755000D01*
X107950000Y-105537000D02*
X103886000Y-105537000D01*
X109093000Y-106680000D02*
X109093000Y-115570000D01*
X107950000Y-70612000D02*
X103886000Y-70612000D01*
X109093000Y-62611000D02*
X109093000Y-69469000D01*
M02*
