G04 #@! TF.GenerationSoftware,KiCad,Pcbnew,(5.1.10)-1*
G04 #@! TF.CreationDate,2021-12-28T21:38:16-08:00*
G04 #@! TF.ProjectId,breadboardPower,62726561-6462-46f6-9172-64506f776572,rev?*
G04 #@! TF.SameCoordinates,Original*
G04 #@! TF.FileFunction,Soldermask,Top*
G04 #@! TF.FilePolarity,Negative*
%FSLAX46Y46*%
G04 Gerber Fmt 4.6, Leading zero omitted, Abs format (unit mm)*
G04 Created by KiCad (PCBNEW (5.1.10)-1) date 2021-12-28 21:38:16*
%MOMM*%
%LPD*%
G01*
G04 APERTURE LIST*
%ADD10C,4.800000*%
%ADD11C,1.800000*%
%ADD12O,1.700000X1.700000*%
%ADD13R,1.700000X1.700000*%
%ADD14C,2.000000*%
%ADD15C,1.524000*%
%ADD16C,3.000000*%
%ADD17O,2.000000X1.905000*%
%ADD18R,2.000000X1.905000*%
%ADD19C,1.200000*%
%ADD20O,4.000000X2.000000*%
%ADD21O,2.000000X4.000000*%
%ADD22O,2.200000X2.200000*%
%ADD23R,2.200000X2.200000*%
%ADD24R,1.800000X1.800000*%
G04 APERTURE END LIST*
D10*
X95800000Y-98460800D03*
X87000000Y-98460800D03*
D11*
X93900000Y-105460800D03*
X91400000Y-105460800D03*
X88900000Y-105460800D03*
D12*
X87757000Y-67818000D03*
D13*
X87757000Y-70358000D03*
D14*
X72898000Y-78613000D03*
X95123000Y-78613000D03*
D15*
X77343000Y-78613000D03*
X90678000Y-78613000D03*
D16*
X74612500Y-91747500D03*
X74612500Y-109547500D03*
D17*
X76390500Y-98107499D03*
X76390500Y-100647499D03*
D18*
X76390500Y-103187499D03*
D19*
X87915500Y-112649000D03*
X85915500Y-112649000D03*
X94710000Y-112649000D03*
X92710000Y-112649000D03*
G36*
G01*
X85482000Y-79738401D02*
X85482000Y-77538399D01*
G75*
G02*
X85731999Y-77288400I249999J0D01*
G01*
X86382001Y-77288400D01*
G75*
G02*
X86632000Y-77538399I0J-249999D01*
G01*
X86632000Y-79738401D01*
G75*
G02*
X86382001Y-79988400I-249999J0D01*
G01*
X85731999Y-79988400D01*
G75*
G02*
X85482000Y-79738401I0J249999D01*
G01*
G37*
G36*
G01*
X82532000Y-79738401D02*
X82532000Y-77538399D01*
G75*
G02*
X82781999Y-77288400I249999J0D01*
G01*
X83432001Y-77288400D01*
G75*
G02*
X83682000Y-77538399I0J-249999D01*
G01*
X83682000Y-79738401D01*
G75*
G02*
X83432001Y-79988400I-249999J0D01*
G01*
X82781999Y-79988400D01*
G75*
G02*
X82532000Y-79738401I0J249999D01*
G01*
G37*
G36*
G01*
X79854999Y-102934000D02*
X82705001Y-102934000D01*
G75*
G02*
X82955000Y-103183999I0J-249999D01*
G01*
X82955000Y-103909001D01*
G75*
G02*
X82705001Y-104159000I-249999J0D01*
G01*
X79854999Y-104159000D01*
G75*
G02*
X79605000Y-103909001I0J249999D01*
G01*
X79605000Y-103183999D01*
G75*
G02*
X79854999Y-102934000I249999J0D01*
G01*
G37*
G36*
G01*
X79854999Y-97009000D02*
X82705001Y-97009000D01*
G75*
G02*
X82955000Y-97258999I0J-249999D01*
G01*
X82955000Y-97984001D01*
G75*
G02*
X82705001Y-98234000I-249999J0D01*
G01*
X79854999Y-98234000D01*
G75*
G02*
X79605000Y-97984001I0J249999D01*
G01*
X79605000Y-97258999D01*
G75*
G02*
X79854999Y-97009000I249999J0D01*
G01*
G37*
G36*
G01*
X93781901Y-71617215D02*
X93781901Y-69467209D01*
G75*
G02*
X94031898Y-69217212I249997J0D01*
G01*
X94656904Y-69217212D01*
G75*
G02*
X94906901Y-69467209I0J-249997D01*
G01*
X94906901Y-71617215D01*
G75*
G02*
X94656904Y-71867212I-249997J0D01*
G01*
X94031898Y-71867212D01*
G75*
G02*
X93781901Y-71617215I0J249997D01*
G01*
G37*
G36*
G01*
X90856901Y-71617215D02*
X90856901Y-69467209D01*
G75*
G02*
X91106898Y-69217212I249997J0D01*
G01*
X91731904Y-69217212D01*
G75*
G02*
X91981901Y-69467209I0J-249997D01*
G01*
X91981901Y-71617215D01*
G75*
G02*
X91731904Y-71867212I-249997J0D01*
G01*
X91106898Y-71867212D01*
G75*
G02*
X90856901Y-71617215I0J249997D01*
G01*
G37*
D12*
X105219500Y-67665600D03*
D13*
X105219500Y-65125600D03*
D12*
X104584500Y-110082000D03*
D13*
X104584500Y-112622000D03*
D20*
X80643000Y-70894000D03*
D21*
X83443000Y-66294000D03*
X77343000Y-66294000D03*
D22*
X95656400Y-90068400D03*
D23*
X85496400Y-90068400D03*
D22*
X95656400Y-86207600D03*
D23*
X85496400Y-86207600D03*
D11*
X92881902Y-67367211D03*
D24*
X92881902Y-64827211D03*
M02*
