G04 #@! TF.GenerationSoftware,KiCad,Pcbnew,(5.1.10)-1*
G04 #@! TF.CreationDate,2021-12-28T21:38:16-08:00*
G04 #@! TF.ProjectId,breadboardPower,62726561-6462-46f6-9172-64506f776572,rev?*
G04 #@! TF.SameCoordinates,Original*
G04 #@! TF.FileFunction,Paste,Top*
G04 #@! TF.FilePolarity,Positive*
%FSLAX46Y46*%
G04 Gerber Fmt 4.6, Leading zero omitted, Abs format (unit mm)*
G04 Created by KiCad (PCBNEW (5.1.10)-1) date 2021-12-28 21:38:16*
%MOMM*%
%LPD*%
G01*
G04 APERTURE LIST*
G04 APERTURE END LIST*
G36*
G01*
X85482000Y-79738401D02*
X85482000Y-77538399D01*
G75*
G02*
X85731999Y-77288400I249999J0D01*
G01*
X86382001Y-77288400D01*
G75*
G02*
X86632000Y-77538399I0J-249999D01*
G01*
X86632000Y-79738401D01*
G75*
G02*
X86382001Y-79988400I-249999J0D01*
G01*
X85731999Y-79988400D01*
G75*
G02*
X85482000Y-79738401I0J249999D01*
G01*
G37*
G36*
G01*
X82532000Y-79738401D02*
X82532000Y-77538399D01*
G75*
G02*
X82781999Y-77288400I249999J0D01*
G01*
X83432001Y-77288400D01*
G75*
G02*
X83682000Y-77538399I0J-249999D01*
G01*
X83682000Y-79738401D01*
G75*
G02*
X83432001Y-79988400I-249999J0D01*
G01*
X82781999Y-79988400D01*
G75*
G02*
X82532000Y-79738401I0J249999D01*
G01*
G37*
G36*
G01*
X79854999Y-102934000D02*
X82705001Y-102934000D01*
G75*
G02*
X82955000Y-103183999I0J-249999D01*
G01*
X82955000Y-103909001D01*
G75*
G02*
X82705001Y-104159000I-249999J0D01*
G01*
X79854999Y-104159000D01*
G75*
G02*
X79605000Y-103909001I0J249999D01*
G01*
X79605000Y-103183999D01*
G75*
G02*
X79854999Y-102934000I249999J0D01*
G01*
G37*
G36*
G01*
X79854999Y-97009000D02*
X82705001Y-97009000D01*
G75*
G02*
X82955000Y-97258999I0J-249999D01*
G01*
X82955000Y-97984001D01*
G75*
G02*
X82705001Y-98234000I-249999J0D01*
G01*
X79854999Y-98234000D01*
G75*
G02*
X79605000Y-97984001I0J249999D01*
G01*
X79605000Y-97258999D01*
G75*
G02*
X79854999Y-97009000I249999J0D01*
G01*
G37*
G36*
G01*
X93781901Y-71617215D02*
X93781901Y-69467209D01*
G75*
G02*
X94031898Y-69217212I249997J0D01*
G01*
X94656904Y-69217212D01*
G75*
G02*
X94906901Y-69467209I0J-249997D01*
G01*
X94906901Y-71617215D01*
G75*
G02*
X94656904Y-71867212I-249997J0D01*
G01*
X94031898Y-71867212D01*
G75*
G02*
X93781901Y-71617215I0J249997D01*
G01*
G37*
G36*
G01*
X90856901Y-71617215D02*
X90856901Y-69467209D01*
G75*
G02*
X91106898Y-69217212I249997J0D01*
G01*
X91731904Y-69217212D01*
G75*
G02*
X91981901Y-69467209I0J-249997D01*
G01*
X91981901Y-71617215D01*
G75*
G02*
X91731904Y-71867212I-249997J0D01*
G01*
X91106898Y-71867212D01*
G75*
G02*
X90856901Y-71617215I0J249997D01*
G01*
G37*
M02*
