G04 #@! TF.GenerationSoftware,KiCad,Pcbnew,(5.1.10)-1*
G04 #@! TF.CreationDate,2021-12-28T21:38:16-08:00*
G04 #@! TF.ProjectId,breadboardPower,62726561-6462-46f6-9172-64506f776572,rev?*
G04 #@! TF.SameCoordinates,Original*
G04 #@! TF.FileFunction,Copper,L2,Bot*
G04 #@! TF.FilePolarity,Positive*
%FSLAX46Y46*%
G04 Gerber Fmt 4.6, Leading zero omitted, Abs format (unit mm)*
G04 Created by KiCad (PCBNEW (5.1.10)-1) date 2021-12-28 21:38:16*
%MOMM*%
%LPD*%
G01*
G04 APERTURE LIST*
G04 #@! TA.AperFunction,ComponentPad*
%ADD10C,4.800000*%
G04 #@! TD*
G04 #@! TA.AperFunction,ComponentPad*
%ADD11C,1.800000*%
G04 #@! TD*
G04 #@! TA.AperFunction,ComponentPad*
%ADD12O,1.700000X1.700000*%
G04 #@! TD*
G04 #@! TA.AperFunction,ComponentPad*
%ADD13R,1.700000X1.700000*%
G04 #@! TD*
G04 #@! TA.AperFunction,ComponentPad*
%ADD14C,2.000000*%
G04 #@! TD*
G04 #@! TA.AperFunction,ComponentPad*
%ADD15C,1.524000*%
G04 #@! TD*
G04 #@! TA.AperFunction,ComponentPad*
%ADD16C,3.000000*%
G04 #@! TD*
G04 #@! TA.AperFunction,ComponentPad*
%ADD17O,2.000000X1.905000*%
G04 #@! TD*
G04 #@! TA.AperFunction,ComponentPad*
%ADD18R,2.000000X1.905000*%
G04 #@! TD*
G04 #@! TA.AperFunction,ComponentPad*
%ADD19C,1.200000*%
G04 #@! TD*
G04 #@! TA.AperFunction,ComponentPad*
%ADD20O,4.000000X2.000000*%
G04 #@! TD*
G04 #@! TA.AperFunction,ComponentPad*
%ADD21O,2.000000X4.000000*%
G04 #@! TD*
G04 #@! TA.AperFunction,ComponentPad*
%ADD22O,2.200000X2.200000*%
G04 #@! TD*
G04 #@! TA.AperFunction,ComponentPad*
%ADD23R,2.200000X2.200000*%
G04 #@! TD*
G04 #@! TA.AperFunction,ComponentPad*
%ADD24R,1.800000X1.800000*%
G04 #@! TD*
G04 #@! TA.AperFunction,Conductor*
%ADD25C,0.254000*%
G04 #@! TD*
G04 #@! TA.AperFunction,Conductor*
%ADD26C,0.100000*%
G04 #@! TD*
G04 APERTURE END LIST*
D10*
X95800000Y-98460800D03*
X87000000Y-98460800D03*
D11*
X93900000Y-105460800D03*
X91400000Y-105460800D03*
X88900000Y-105460800D03*
D12*
X87757000Y-67818000D03*
D13*
X87757000Y-70358000D03*
D14*
X72898000Y-78613000D03*
X95123000Y-78613000D03*
D15*
X77343000Y-78613000D03*
X90678000Y-78613000D03*
D16*
X74612500Y-91747500D03*
X74612500Y-109547500D03*
D17*
X76390500Y-98107499D03*
X76390500Y-100647499D03*
D18*
X76390500Y-103187499D03*
D19*
X87915500Y-112649000D03*
X85915500Y-112649000D03*
X94710000Y-112649000D03*
X92710000Y-112649000D03*
D12*
X105219500Y-67665600D03*
D13*
X105219500Y-65125600D03*
D12*
X104584500Y-110082000D03*
D13*
X104584500Y-112622000D03*
D20*
X80643000Y-70894000D03*
D21*
X83443000Y-66294000D03*
X77343000Y-66294000D03*
D22*
X95656400Y-90068400D03*
D23*
X85496400Y-90068400D03*
D22*
X95656400Y-86207600D03*
D23*
X85496400Y-86207600D03*
D11*
X92881902Y-67367211D03*
D24*
X92881902Y-64827211D03*
D25*
X108038324Y-62164945D02*
X108123274Y-62190593D01*
X108201637Y-62232259D01*
X108270408Y-62288348D01*
X108326976Y-62356727D01*
X108369185Y-62434790D01*
X108395428Y-62519566D01*
X108408000Y-62639188D01*
X108408001Y-69435486D01*
X108396055Y-69557324D01*
X108370406Y-69642276D01*
X108328741Y-69720637D01*
X108272654Y-69789406D01*
X108204273Y-69845976D01*
X108126206Y-69888187D01*
X108041435Y-69914428D01*
X107921812Y-69927000D01*
X103852353Y-69927000D01*
X103822950Y-69929896D01*
X103815938Y-69929847D01*
X103806420Y-69930780D01*
X103584568Y-69954097D01*
X103523757Y-69966580D01*
X103462763Y-69978215D01*
X103453613Y-69980978D01*
X103453609Y-69980979D01*
X103453606Y-69980980D01*
X103453607Y-69980980D01*
X103240510Y-70046944D01*
X103183256Y-70071012D01*
X103125712Y-70094261D01*
X103117267Y-70098751D01*
X102921039Y-70204851D01*
X102869567Y-70239570D01*
X102817620Y-70273563D01*
X102810208Y-70279608D01*
X102638326Y-70421801D01*
X102594562Y-70465871D01*
X102550221Y-70509293D01*
X102544125Y-70516662D01*
X102403135Y-70689532D01*
X102368772Y-70741252D01*
X102333700Y-70792474D01*
X102329151Y-70800887D01*
X102224424Y-70997850D01*
X102200764Y-71055255D01*
X102176309Y-71112312D01*
X102173481Y-71121449D01*
X102109005Y-71335002D01*
X102096956Y-71395856D01*
X102084037Y-71456634D01*
X102083037Y-71466146D01*
X102061269Y-71688157D01*
X102061269Y-71688173D01*
X102058001Y-71721353D01*
X102058000Y-104427646D01*
X102060896Y-104457049D01*
X102060847Y-104464062D01*
X102061780Y-104473580D01*
X102085097Y-104695432D01*
X102097582Y-104756256D01*
X102109215Y-104817236D01*
X102111979Y-104826392D01*
X102177944Y-105039490D01*
X102202001Y-105096719D01*
X102225261Y-105154289D01*
X102229751Y-105162734D01*
X102335852Y-105358961D01*
X102370553Y-105410407D01*
X102404563Y-105462380D01*
X102410608Y-105469792D01*
X102552801Y-105641674D01*
X102596854Y-105685421D01*
X102640292Y-105729778D01*
X102647662Y-105735875D01*
X102820531Y-105876865D01*
X102872236Y-105911218D01*
X102923473Y-105946300D01*
X102931886Y-105950849D01*
X103128850Y-106055576D01*
X103186255Y-106079236D01*
X103243312Y-106103691D01*
X103252449Y-106106519D01*
X103466002Y-106170995D01*
X103526863Y-106183046D01*
X103587635Y-106195963D01*
X103597147Y-106196963D01*
X103819157Y-106218731D01*
X103819163Y-106218731D01*
X103852353Y-106222000D01*
X107916497Y-106222000D01*
X108038324Y-106233945D01*
X108123274Y-106259593D01*
X108201637Y-106301259D01*
X108270408Y-106357348D01*
X108326976Y-106425727D01*
X108369185Y-106503790D01*
X108395428Y-106588566D01*
X108408000Y-106708188D01*
X108408001Y-115536486D01*
X108396055Y-115658324D01*
X108370406Y-115743276D01*
X108328741Y-115821637D01*
X108272654Y-115890406D01*
X108204273Y-115946976D01*
X108126206Y-115989187D01*
X108041435Y-116015428D01*
X107921812Y-116028000D01*
X70772504Y-116028000D01*
X70650676Y-116016055D01*
X70565724Y-115990406D01*
X70487363Y-115948741D01*
X70418594Y-115892654D01*
X70362024Y-115824273D01*
X70319813Y-115746206D01*
X70293572Y-115661435D01*
X70281000Y-115541812D01*
X70281000Y-112527363D01*
X84680500Y-112527363D01*
X84680500Y-112770637D01*
X84727960Y-113009236D01*
X84821057Y-113233992D01*
X84956213Y-113436267D01*
X85128233Y-113608287D01*
X85330508Y-113743443D01*
X85555264Y-113836540D01*
X85793863Y-113884000D01*
X86037137Y-113884000D01*
X86275736Y-113836540D01*
X86500492Y-113743443D01*
X86702767Y-113608287D01*
X86812290Y-113498764D01*
X87245341Y-113498764D01*
X87292648Y-113722348D01*
X87514016Y-113823237D01*
X87750813Y-113879000D01*
X87993938Y-113887495D01*
X88234049Y-113848395D01*
X88461918Y-113763202D01*
X88538352Y-113722348D01*
X88585659Y-113498764D01*
X87915500Y-112828605D01*
X87245341Y-113498764D01*
X86812290Y-113498764D01*
X86874787Y-113436267D01*
X86966996Y-113298267D01*
X87065736Y-113319159D01*
X87735895Y-112649000D01*
X88095105Y-112649000D01*
X88765264Y-113319159D01*
X88988848Y-113271852D01*
X89089737Y-113050484D01*
X89145500Y-112813687D01*
X89153995Y-112570562D01*
X89146961Y-112527363D01*
X91475000Y-112527363D01*
X91475000Y-112770637D01*
X91522460Y-113009236D01*
X91615557Y-113233992D01*
X91750713Y-113436267D01*
X91922733Y-113608287D01*
X92125008Y-113743443D01*
X92349764Y-113836540D01*
X92588363Y-113884000D01*
X92831637Y-113884000D01*
X93070236Y-113836540D01*
X93294992Y-113743443D01*
X93497267Y-113608287D01*
X93606790Y-113498764D01*
X94039841Y-113498764D01*
X94087148Y-113722348D01*
X94308516Y-113823237D01*
X94545313Y-113879000D01*
X94788438Y-113887495D01*
X95028549Y-113848395D01*
X95256418Y-113763202D01*
X95332852Y-113722348D01*
X95380159Y-113498764D01*
X95353395Y-113472000D01*
X103096428Y-113472000D01*
X103108688Y-113596482D01*
X103144998Y-113716180D01*
X103203963Y-113826494D01*
X103283315Y-113923185D01*
X103380006Y-114002537D01*
X103490320Y-114061502D01*
X103610018Y-114097812D01*
X103734500Y-114110072D01*
X104298750Y-114107000D01*
X104457500Y-113948250D01*
X104457500Y-112749000D01*
X104711500Y-112749000D01*
X104711500Y-113948250D01*
X104870250Y-114107000D01*
X105434500Y-114110072D01*
X105558982Y-114097812D01*
X105678680Y-114061502D01*
X105788994Y-114002537D01*
X105885685Y-113923185D01*
X105965037Y-113826494D01*
X106024002Y-113716180D01*
X106060312Y-113596482D01*
X106072572Y-113472000D01*
X106069500Y-112907750D01*
X105910750Y-112749000D01*
X104711500Y-112749000D01*
X104457500Y-112749000D01*
X103258250Y-112749000D01*
X103099500Y-112907750D01*
X103096428Y-113472000D01*
X95353395Y-113472000D01*
X94710000Y-112828605D01*
X94039841Y-113498764D01*
X93606790Y-113498764D01*
X93669287Y-113436267D01*
X93761496Y-113298267D01*
X93860236Y-113319159D01*
X94530395Y-112649000D01*
X94889605Y-112649000D01*
X95559764Y-113319159D01*
X95783348Y-113271852D01*
X95884237Y-113050484D01*
X95940000Y-112813687D01*
X95948495Y-112570562D01*
X95909395Y-112330451D01*
X95824202Y-112102582D01*
X95783348Y-112026148D01*
X95559764Y-111978841D01*
X94889605Y-112649000D01*
X94530395Y-112649000D01*
X93860236Y-111978841D01*
X93761496Y-111999733D01*
X93669287Y-111861733D01*
X93606790Y-111799236D01*
X94039841Y-111799236D01*
X94710000Y-112469395D01*
X95380159Y-111799236D01*
X95374397Y-111772000D01*
X103096428Y-111772000D01*
X103099500Y-112336250D01*
X103258250Y-112495000D01*
X104457500Y-112495000D01*
X104457500Y-112475000D01*
X104711500Y-112475000D01*
X104711500Y-112495000D01*
X105910750Y-112495000D01*
X106069500Y-112336250D01*
X106072572Y-111772000D01*
X106060312Y-111647518D01*
X106024002Y-111527820D01*
X105965037Y-111417506D01*
X105885685Y-111320815D01*
X105788994Y-111241463D01*
X105678680Y-111182498D01*
X105606120Y-111160487D01*
X105737975Y-111028632D01*
X105900490Y-110785411D01*
X106012432Y-110515158D01*
X106069500Y-110228260D01*
X106069500Y-109935740D01*
X106012432Y-109648842D01*
X105900490Y-109378589D01*
X105737975Y-109135368D01*
X105531132Y-108928525D01*
X105287911Y-108766010D01*
X105017658Y-108654068D01*
X104730760Y-108597000D01*
X104438240Y-108597000D01*
X104151342Y-108654068D01*
X103881089Y-108766010D01*
X103637868Y-108928525D01*
X103431025Y-109135368D01*
X103268510Y-109378589D01*
X103156568Y-109648842D01*
X103099500Y-109935740D01*
X103099500Y-110228260D01*
X103156568Y-110515158D01*
X103268510Y-110785411D01*
X103431025Y-111028632D01*
X103562880Y-111160487D01*
X103490320Y-111182498D01*
X103380006Y-111241463D01*
X103283315Y-111320815D01*
X103203963Y-111417506D01*
X103144998Y-111527820D01*
X103108688Y-111647518D01*
X103096428Y-111772000D01*
X95374397Y-111772000D01*
X95332852Y-111575652D01*
X95111484Y-111474763D01*
X94874687Y-111419000D01*
X94631562Y-111410505D01*
X94391451Y-111449605D01*
X94163582Y-111534798D01*
X94087148Y-111575652D01*
X94039841Y-111799236D01*
X93606790Y-111799236D01*
X93497267Y-111689713D01*
X93294992Y-111554557D01*
X93070236Y-111461460D01*
X92831637Y-111414000D01*
X92588363Y-111414000D01*
X92349764Y-111461460D01*
X92125008Y-111554557D01*
X91922733Y-111689713D01*
X91750713Y-111861733D01*
X91615557Y-112064008D01*
X91522460Y-112288764D01*
X91475000Y-112527363D01*
X89146961Y-112527363D01*
X89114895Y-112330451D01*
X89029702Y-112102582D01*
X88988848Y-112026148D01*
X88765264Y-111978841D01*
X88095105Y-112649000D01*
X87735895Y-112649000D01*
X87065736Y-111978841D01*
X86966996Y-111999733D01*
X86874787Y-111861733D01*
X86812290Y-111799236D01*
X87245341Y-111799236D01*
X87915500Y-112469395D01*
X88585659Y-111799236D01*
X88538352Y-111575652D01*
X88316984Y-111474763D01*
X88080187Y-111419000D01*
X87837062Y-111410505D01*
X87596951Y-111449605D01*
X87369082Y-111534798D01*
X87292648Y-111575652D01*
X87245341Y-111799236D01*
X86812290Y-111799236D01*
X86702767Y-111689713D01*
X86500492Y-111554557D01*
X86275736Y-111461460D01*
X86037137Y-111414000D01*
X85793863Y-111414000D01*
X85555264Y-111461460D01*
X85330508Y-111554557D01*
X85128233Y-111689713D01*
X84956213Y-111861733D01*
X84821057Y-112064008D01*
X84727960Y-112288764D01*
X84680500Y-112527363D01*
X70281000Y-112527363D01*
X70281000Y-109337221D01*
X72477500Y-109337221D01*
X72477500Y-109757779D01*
X72559547Y-110170256D01*
X72720488Y-110558802D01*
X72954137Y-110908483D01*
X73251517Y-111205863D01*
X73601198Y-111439512D01*
X73989744Y-111600453D01*
X74402221Y-111682500D01*
X74822779Y-111682500D01*
X75235256Y-111600453D01*
X75623802Y-111439512D01*
X75973483Y-111205863D01*
X76270863Y-110908483D01*
X76504512Y-110558802D01*
X76665453Y-110170256D01*
X76747500Y-109757779D01*
X76747500Y-109337221D01*
X76665453Y-108924744D01*
X76504512Y-108536198D01*
X76270863Y-108186517D01*
X75973483Y-107889137D01*
X75623802Y-107655488D01*
X75235256Y-107494547D01*
X74822779Y-107412500D01*
X74402221Y-107412500D01*
X73989744Y-107494547D01*
X73601198Y-107655488D01*
X73251517Y-107889137D01*
X72954137Y-108186517D01*
X72720488Y-108536198D01*
X72559547Y-108924744D01*
X72477500Y-109337221D01*
X70281000Y-109337221D01*
X70281000Y-105309616D01*
X87365000Y-105309616D01*
X87365000Y-105611984D01*
X87423989Y-105908543D01*
X87539701Y-106187895D01*
X87707688Y-106439305D01*
X87921495Y-106653112D01*
X88172905Y-106821099D01*
X88452257Y-106936811D01*
X88748816Y-106995800D01*
X89051184Y-106995800D01*
X89347743Y-106936811D01*
X89627095Y-106821099D01*
X89878505Y-106653112D01*
X90006737Y-106524880D01*
X90515525Y-106524880D01*
X90599208Y-106779061D01*
X90871775Y-106909958D01*
X91164642Y-106985165D01*
X91466553Y-107001791D01*
X91765907Y-106959197D01*
X92051199Y-106859022D01*
X92200792Y-106779061D01*
X92284475Y-106524880D01*
X93015525Y-106524880D01*
X93099208Y-106779061D01*
X93371775Y-106909958D01*
X93664642Y-106985165D01*
X93966553Y-107001791D01*
X94265907Y-106959197D01*
X94551199Y-106859022D01*
X94700792Y-106779061D01*
X94784475Y-106524880D01*
X93900000Y-105640405D01*
X93015525Y-106524880D01*
X92284475Y-106524880D01*
X91400000Y-105640405D01*
X90515525Y-106524880D01*
X90006737Y-106524880D01*
X90092312Y-106439305D01*
X90187738Y-106296490D01*
X90335920Y-106345275D01*
X91220395Y-105460800D01*
X91579605Y-105460800D01*
X92464080Y-106345275D01*
X92650000Y-106284065D01*
X92835920Y-106345275D01*
X93720395Y-105460800D01*
X94079605Y-105460800D01*
X94964080Y-106345275D01*
X95218261Y-106261592D01*
X95349158Y-105989025D01*
X95424365Y-105696158D01*
X95440991Y-105394247D01*
X95398397Y-105094893D01*
X95298222Y-104809601D01*
X95218261Y-104660008D01*
X94964080Y-104576325D01*
X94079605Y-105460800D01*
X93720395Y-105460800D01*
X92835920Y-104576325D01*
X92650000Y-104637535D01*
X92464080Y-104576325D01*
X91579605Y-105460800D01*
X91220395Y-105460800D01*
X90335920Y-104576325D01*
X90187738Y-104625110D01*
X90092312Y-104482295D01*
X90006737Y-104396720D01*
X90515525Y-104396720D01*
X91400000Y-105281195D01*
X92284475Y-104396720D01*
X93015525Y-104396720D01*
X93900000Y-105281195D01*
X94784475Y-104396720D01*
X94700792Y-104142539D01*
X94428225Y-104011642D01*
X94135358Y-103936435D01*
X93833447Y-103919809D01*
X93534093Y-103962403D01*
X93248801Y-104062578D01*
X93099208Y-104142539D01*
X93015525Y-104396720D01*
X92284475Y-104396720D01*
X92200792Y-104142539D01*
X91928225Y-104011642D01*
X91635358Y-103936435D01*
X91333447Y-103919809D01*
X91034093Y-103962403D01*
X90748801Y-104062578D01*
X90599208Y-104142539D01*
X90515525Y-104396720D01*
X90006737Y-104396720D01*
X89878505Y-104268488D01*
X89627095Y-104100501D01*
X89347743Y-103984789D01*
X89051184Y-103925800D01*
X88748816Y-103925800D01*
X88452257Y-103984789D01*
X88172905Y-104100501D01*
X87921495Y-104268488D01*
X87707688Y-104482295D01*
X87539701Y-104733705D01*
X87423989Y-105013057D01*
X87365000Y-105309616D01*
X70281000Y-105309616D01*
X70281000Y-98107499D01*
X74747819Y-98107499D01*
X74778470Y-98418703D01*
X74869245Y-98717948D01*
X75016655Y-98993734D01*
X75215037Y-99235462D01*
X75388109Y-99377499D01*
X75215037Y-99519536D01*
X75016655Y-99761264D01*
X74869245Y-100037050D01*
X74778470Y-100336295D01*
X74747819Y-100647499D01*
X74778470Y-100958703D01*
X74869245Y-101257948D01*
X75016655Y-101533734D01*
X75119946Y-101659594D01*
X75036006Y-101704462D01*
X74939315Y-101783814D01*
X74859963Y-101880505D01*
X74800998Y-101990819D01*
X74764688Y-102110517D01*
X74752428Y-102234999D01*
X74752428Y-104139999D01*
X74764688Y-104264481D01*
X74800998Y-104384179D01*
X74859963Y-104494493D01*
X74939315Y-104591184D01*
X75036006Y-104670536D01*
X75146320Y-104729501D01*
X75266018Y-104765811D01*
X75390500Y-104778071D01*
X77390500Y-104778071D01*
X77514982Y-104765811D01*
X77634680Y-104729501D01*
X77744994Y-104670536D01*
X77841685Y-104591184D01*
X77921037Y-104494493D01*
X77980002Y-104384179D01*
X78016312Y-104264481D01*
X78028572Y-104139999D01*
X78028572Y-102234999D01*
X78016312Y-102110517D01*
X77980002Y-101990819D01*
X77921037Y-101880505D01*
X77841685Y-101783814D01*
X77744994Y-101704462D01*
X77661054Y-101659594D01*
X77764345Y-101533734D01*
X77911755Y-101257948D01*
X78002530Y-100958703D01*
X78033181Y-100647499D01*
X78002530Y-100336295D01*
X77911755Y-100037050D01*
X77764345Y-99761264D01*
X77565963Y-99519536D01*
X77392891Y-99377499D01*
X77565963Y-99235462D01*
X77764345Y-98993734D01*
X77911755Y-98717948D01*
X78002530Y-98418703D01*
X78027825Y-98161879D01*
X83965000Y-98161879D01*
X83965000Y-98759721D01*
X84081633Y-99346077D01*
X84310418Y-99898412D01*
X84642562Y-100395500D01*
X85065300Y-100818238D01*
X85562388Y-101150382D01*
X86114723Y-101379167D01*
X86701079Y-101495800D01*
X87298921Y-101495800D01*
X87885277Y-101379167D01*
X88437612Y-101150382D01*
X88934700Y-100818238D01*
X89357438Y-100395500D01*
X89689582Y-99898412D01*
X89918367Y-99346077D01*
X90035000Y-98759721D01*
X90035000Y-98161879D01*
X92765000Y-98161879D01*
X92765000Y-98759721D01*
X92881633Y-99346077D01*
X93110418Y-99898412D01*
X93442562Y-100395500D01*
X93865300Y-100818238D01*
X94362388Y-101150382D01*
X94914723Y-101379167D01*
X95501079Y-101495800D01*
X96098921Y-101495800D01*
X96685277Y-101379167D01*
X97237612Y-101150382D01*
X97734700Y-100818238D01*
X98157438Y-100395500D01*
X98489582Y-99898412D01*
X98718367Y-99346077D01*
X98835000Y-98759721D01*
X98835000Y-98161879D01*
X98718367Y-97575523D01*
X98489582Y-97023188D01*
X98157438Y-96526100D01*
X97734700Y-96103362D01*
X97237612Y-95771218D01*
X96685277Y-95542433D01*
X96098921Y-95425800D01*
X95501079Y-95425800D01*
X94914723Y-95542433D01*
X94362388Y-95771218D01*
X93865300Y-96103362D01*
X93442562Y-96526100D01*
X93110418Y-97023188D01*
X92881633Y-97575523D01*
X92765000Y-98161879D01*
X90035000Y-98161879D01*
X89918367Y-97575523D01*
X89689582Y-97023188D01*
X89357438Y-96526100D01*
X88934700Y-96103362D01*
X88437612Y-95771218D01*
X87885277Y-95542433D01*
X87298921Y-95425800D01*
X86701079Y-95425800D01*
X86114723Y-95542433D01*
X85562388Y-95771218D01*
X85065300Y-96103362D01*
X84642562Y-96526100D01*
X84310418Y-97023188D01*
X84081633Y-97575523D01*
X83965000Y-98161879D01*
X78027825Y-98161879D01*
X78033181Y-98107499D01*
X78002530Y-97796295D01*
X77911755Y-97497050D01*
X77764345Y-97221264D01*
X77565963Y-96979536D01*
X77324235Y-96781154D01*
X77048449Y-96633744D01*
X76749204Y-96542969D01*
X76515986Y-96519999D01*
X76265014Y-96519999D01*
X76031796Y-96542969D01*
X75732551Y-96633744D01*
X75456765Y-96781154D01*
X75215037Y-96979536D01*
X75016655Y-97221264D01*
X74869245Y-97497050D01*
X74778470Y-97796295D01*
X74747819Y-98107499D01*
X70281000Y-98107499D01*
X70281000Y-91537221D01*
X72477500Y-91537221D01*
X72477500Y-91957779D01*
X72559547Y-92370256D01*
X72720488Y-92758802D01*
X72954137Y-93108483D01*
X73251517Y-93405863D01*
X73601198Y-93639512D01*
X73989744Y-93800453D01*
X74402221Y-93882500D01*
X74822779Y-93882500D01*
X75235256Y-93800453D01*
X75623802Y-93639512D01*
X75973483Y-93405863D01*
X76270863Y-93108483D01*
X76504512Y-92758802D01*
X76665453Y-92370256D01*
X76747500Y-91957779D01*
X76747500Y-91537221D01*
X76665453Y-91124744D01*
X76504512Y-90736198D01*
X76270863Y-90386517D01*
X75973483Y-90089137D01*
X75623802Y-89855488D01*
X75235256Y-89694547D01*
X74822779Y-89612500D01*
X74402221Y-89612500D01*
X73989744Y-89694547D01*
X73601198Y-89855488D01*
X73251517Y-90089137D01*
X72954137Y-90386517D01*
X72720488Y-90736198D01*
X72559547Y-91124744D01*
X72477500Y-91537221D01*
X70281000Y-91537221D01*
X70281000Y-88968400D01*
X83758328Y-88968400D01*
X83758328Y-91168400D01*
X83770588Y-91292882D01*
X83806898Y-91412580D01*
X83865863Y-91522894D01*
X83945215Y-91619585D01*
X84041906Y-91698937D01*
X84152220Y-91757902D01*
X84271918Y-91794212D01*
X84396400Y-91806472D01*
X86596400Y-91806472D01*
X86720882Y-91794212D01*
X86840580Y-91757902D01*
X86950894Y-91698937D01*
X87047585Y-91619585D01*
X87126937Y-91522894D01*
X87185902Y-91412580D01*
X87222212Y-91292882D01*
X87234472Y-91168400D01*
X87234472Y-90464522D01*
X93967225Y-90464522D01*
X94031825Y-90677494D01*
X94181869Y-90982729D01*
X94388578Y-91252827D01*
X94644009Y-91477408D01*
X94938346Y-91647842D01*
X95260277Y-91757579D01*
X95529400Y-91640000D01*
X95529400Y-90195400D01*
X95783400Y-90195400D01*
X95783400Y-91640000D01*
X96052523Y-91757579D01*
X96374454Y-91647842D01*
X96668791Y-91477408D01*
X96924222Y-91252827D01*
X97130931Y-90982729D01*
X97280975Y-90677494D01*
X97345575Y-90464522D01*
X97227525Y-90195400D01*
X95783400Y-90195400D01*
X95529400Y-90195400D01*
X94085275Y-90195400D01*
X93967225Y-90464522D01*
X87234472Y-90464522D01*
X87234472Y-89672278D01*
X93967225Y-89672278D01*
X94085275Y-89941400D01*
X95529400Y-89941400D01*
X95529400Y-88496800D01*
X95783400Y-88496800D01*
X95783400Y-89941400D01*
X97227525Y-89941400D01*
X97345575Y-89672278D01*
X97280975Y-89459306D01*
X97130931Y-89154071D01*
X96924222Y-88883973D01*
X96668791Y-88659392D01*
X96374454Y-88488958D01*
X96052523Y-88379221D01*
X95783400Y-88496800D01*
X95529400Y-88496800D01*
X95260277Y-88379221D01*
X94938346Y-88488958D01*
X94644009Y-88659392D01*
X94388578Y-88883973D01*
X94181869Y-89154071D01*
X94031825Y-89459306D01*
X93967225Y-89672278D01*
X87234472Y-89672278D01*
X87234472Y-88968400D01*
X87222212Y-88843918D01*
X87185902Y-88724220D01*
X87126937Y-88613906D01*
X87047585Y-88517215D01*
X86950894Y-88437863D01*
X86840580Y-88378898D01*
X86720882Y-88342588D01*
X86596400Y-88330328D01*
X84396400Y-88330328D01*
X84271918Y-88342588D01*
X84152220Y-88378898D01*
X84041906Y-88437863D01*
X83945215Y-88517215D01*
X83865863Y-88613906D01*
X83806898Y-88724220D01*
X83770588Y-88843918D01*
X83758328Y-88968400D01*
X70281000Y-88968400D01*
X70281000Y-85107600D01*
X83758328Y-85107600D01*
X83758328Y-87307600D01*
X83770588Y-87432082D01*
X83806898Y-87551780D01*
X83865863Y-87662094D01*
X83945215Y-87758785D01*
X84041906Y-87838137D01*
X84152220Y-87897102D01*
X84271918Y-87933412D01*
X84396400Y-87945672D01*
X86596400Y-87945672D01*
X86720882Y-87933412D01*
X86840580Y-87897102D01*
X86950894Y-87838137D01*
X87047585Y-87758785D01*
X87126937Y-87662094D01*
X87185902Y-87551780D01*
X87222212Y-87432082D01*
X87234472Y-87307600D01*
X87234472Y-86036717D01*
X93921400Y-86036717D01*
X93921400Y-86378483D01*
X93988075Y-86713681D01*
X94118863Y-87029431D01*
X94308737Y-87313598D01*
X94550402Y-87555263D01*
X94834569Y-87745137D01*
X95150319Y-87875925D01*
X95485517Y-87942600D01*
X95827283Y-87942600D01*
X96162481Y-87875925D01*
X96478231Y-87745137D01*
X96762398Y-87555263D01*
X97004063Y-87313598D01*
X97193937Y-87029431D01*
X97324725Y-86713681D01*
X97391400Y-86378483D01*
X97391400Y-86036717D01*
X97324725Y-85701519D01*
X97193937Y-85385769D01*
X97004063Y-85101602D01*
X96762398Y-84859937D01*
X96478231Y-84670063D01*
X96162481Y-84539275D01*
X95827283Y-84472600D01*
X95485517Y-84472600D01*
X95150319Y-84539275D01*
X94834569Y-84670063D01*
X94550402Y-84859937D01*
X94308737Y-85101602D01*
X94118863Y-85385769D01*
X93988075Y-85701519D01*
X93921400Y-86036717D01*
X87234472Y-86036717D01*
X87234472Y-85107600D01*
X87222212Y-84983118D01*
X87185902Y-84863420D01*
X87126937Y-84753106D01*
X87047585Y-84656415D01*
X86950894Y-84577063D01*
X86840580Y-84518098D01*
X86720882Y-84481788D01*
X86596400Y-84469528D01*
X84396400Y-84469528D01*
X84271918Y-84481788D01*
X84152220Y-84518098D01*
X84041906Y-84577063D01*
X83945215Y-84656415D01*
X83865863Y-84753106D01*
X83806898Y-84863420D01*
X83770588Y-84983118D01*
X83758328Y-85107600D01*
X70281000Y-85107600D01*
X70281000Y-78451967D01*
X71263000Y-78451967D01*
X71263000Y-78774033D01*
X71325832Y-79089912D01*
X71449082Y-79387463D01*
X71628013Y-79655252D01*
X71855748Y-79882987D01*
X72123537Y-80061918D01*
X72421088Y-80185168D01*
X72736967Y-80248000D01*
X73059033Y-80248000D01*
X73374912Y-80185168D01*
X73672463Y-80061918D01*
X73940252Y-79882987D01*
X74167987Y-79655252D01*
X74346918Y-79387463D01*
X74470168Y-79089912D01*
X74533000Y-78774033D01*
X74533000Y-78475408D01*
X75946000Y-78475408D01*
X75946000Y-78750592D01*
X75999686Y-79020490D01*
X76104995Y-79274727D01*
X76257880Y-79503535D01*
X76452465Y-79698120D01*
X76681273Y-79851005D01*
X76935510Y-79956314D01*
X77205408Y-80010000D01*
X77480592Y-80010000D01*
X77750490Y-79956314D01*
X78004727Y-79851005D01*
X78233535Y-79698120D01*
X78353090Y-79578565D01*
X89892040Y-79578565D01*
X89959020Y-79818656D01*
X90208048Y-79935756D01*
X90475135Y-80002023D01*
X90750017Y-80014910D01*
X91022133Y-79973922D01*
X91281023Y-79880636D01*
X91396980Y-79818656D01*
X91463960Y-79578565D01*
X90678000Y-78792605D01*
X89892040Y-79578565D01*
X78353090Y-79578565D01*
X78428120Y-79503535D01*
X78581005Y-79274727D01*
X78686314Y-79020490D01*
X78740000Y-78750592D01*
X78740000Y-78685017D01*
X89276090Y-78685017D01*
X89317078Y-78957133D01*
X89410364Y-79216023D01*
X89472344Y-79331980D01*
X89712435Y-79398960D01*
X90498395Y-78613000D01*
X90857605Y-78613000D01*
X91643565Y-79398960D01*
X91883656Y-79331980D01*
X92000756Y-79082952D01*
X92067023Y-78815865D01*
X92079910Y-78540983D01*
X92066502Y-78451967D01*
X93488000Y-78451967D01*
X93488000Y-78774033D01*
X93550832Y-79089912D01*
X93674082Y-79387463D01*
X93853013Y-79655252D01*
X94080748Y-79882987D01*
X94348537Y-80061918D01*
X94646088Y-80185168D01*
X94961967Y-80248000D01*
X95284033Y-80248000D01*
X95599912Y-80185168D01*
X95897463Y-80061918D01*
X96165252Y-79882987D01*
X96392987Y-79655252D01*
X96571918Y-79387463D01*
X96695168Y-79089912D01*
X96758000Y-78774033D01*
X96758000Y-78451967D01*
X96695168Y-78136088D01*
X96571918Y-77838537D01*
X96392987Y-77570748D01*
X96165252Y-77343013D01*
X95897463Y-77164082D01*
X95599912Y-77040832D01*
X95284033Y-76978000D01*
X94961967Y-76978000D01*
X94646088Y-77040832D01*
X94348537Y-77164082D01*
X94080748Y-77343013D01*
X93853013Y-77570748D01*
X93674082Y-77838537D01*
X93550832Y-78136088D01*
X93488000Y-78451967D01*
X92066502Y-78451967D01*
X92038922Y-78268867D01*
X91945636Y-78009977D01*
X91883656Y-77894020D01*
X91643565Y-77827040D01*
X90857605Y-78613000D01*
X90498395Y-78613000D01*
X89712435Y-77827040D01*
X89472344Y-77894020D01*
X89355244Y-78143048D01*
X89288977Y-78410135D01*
X89276090Y-78685017D01*
X78740000Y-78685017D01*
X78740000Y-78475408D01*
X78686314Y-78205510D01*
X78581005Y-77951273D01*
X78428120Y-77722465D01*
X78353090Y-77647435D01*
X89892040Y-77647435D01*
X90678000Y-78433395D01*
X91463960Y-77647435D01*
X91396980Y-77407344D01*
X91147952Y-77290244D01*
X90880865Y-77223977D01*
X90605983Y-77211090D01*
X90333867Y-77252078D01*
X90074977Y-77345364D01*
X89959020Y-77407344D01*
X89892040Y-77647435D01*
X78353090Y-77647435D01*
X78233535Y-77527880D01*
X78004727Y-77374995D01*
X77750490Y-77269686D01*
X77480592Y-77216000D01*
X77205408Y-77216000D01*
X76935510Y-77269686D01*
X76681273Y-77374995D01*
X76452465Y-77527880D01*
X76257880Y-77722465D01*
X76104995Y-77951273D01*
X75999686Y-78205510D01*
X75946000Y-78475408D01*
X74533000Y-78475408D01*
X74533000Y-78451967D01*
X74470168Y-78136088D01*
X74346918Y-77838537D01*
X74167987Y-77570748D01*
X73940252Y-77343013D01*
X73672463Y-77164082D01*
X73374912Y-77040832D01*
X73059033Y-76978000D01*
X72736967Y-76978000D01*
X72421088Y-77040832D01*
X72123537Y-77164082D01*
X71855748Y-77343013D01*
X71628013Y-77570748D01*
X71449082Y-77838537D01*
X71325832Y-78136088D01*
X71263000Y-78451967D01*
X70281000Y-78451967D01*
X70281000Y-71274434D01*
X78052876Y-71274434D01*
X78083856Y-71402355D01*
X78212990Y-71696761D01*
X78397078Y-71960317D01*
X78629046Y-72182895D01*
X78899980Y-72355942D01*
X79199468Y-72472807D01*
X79516000Y-72529000D01*
X80516000Y-72529000D01*
X80516000Y-71021000D01*
X80770000Y-71021000D01*
X80770000Y-72529000D01*
X81770000Y-72529000D01*
X82086532Y-72472807D01*
X82386020Y-72355942D01*
X82656954Y-72182895D01*
X82888922Y-71960317D01*
X83073010Y-71696761D01*
X83202144Y-71402355D01*
X83233124Y-71274434D01*
X83113777Y-71021000D01*
X80770000Y-71021000D01*
X80516000Y-71021000D01*
X78172223Y-71021000D01*
X78052876Y-71274434D01*
X70281000Y-71274434D01*
X70281000Y-70513566D01*
X78052876Y-70513566D01*
X78172223Y-70767000D01*
X80516000Y-70767000D01*
X80516000Y-69259000D01*
X80770000Y-69259000D01*
X80770000Y-70767000D01*
X83113777Y-70767000D01*
X83233124Y-70513566D01*
X83202144Y-70385645D01*
X83073010Y-70091239D01*
X82888922Y-69827683D01*
X82656954Y-69605105D01*
X82504920Y-69508000D01*
X86268928Y-69508000D01*
X86268928Y-71208000D01*
X86281188Y-71332482D01*
X86317498Y-71452180D01*
X86376463Y-71562494D01*
X86455815Y-71659185D01*
X86552506Y-71738537D01*
X86662820Y-71797502D01*
X86782518Y-71833812D01*
X86907000Y-71846072D01*
X88607000Y-71846072D01*
X88731482Y-71833812D01*
X88851180Y-71797502D01*
X88961494Y-71738537D01*
X89058185Y-71659185D01*
X89137537Y-71562494D01*
X89196502Y-71452180D01*
X89232812Y-71332482D01*
X89245072Y-71208000D01*
X89245072Y-69508000D01*
X89232812Y-69383518D01*
X89196502Y-69263820D01*
X89137537Y-69153506D01*
X89058185Y-69056815D01*
X88961494Y-68977463D01*
X88851180Y-68918498D01*
X88778620Y-68896487D01*
X88910475Y-68764632D01*
X89072990Y-68521411D01*
X89184932Y-68251158D01*
X89242000Y-67964260D01*
X89242000Y-67671740D01*
X89184932Y-67384842D01*
X89072990Y-67114589D01*
X88910475Y-66871368D01*
X88703632Y-66664525D01*
X88460411Y-66502010D01*
X88190158Y-66390068D01*
X87903260Y-66333000D01*
X87610740Y-66333000D01*
X87323842Y-66390068D01*
X87053589Y-66502010D01*
X86810368Y-66664525D01*
X86603525Y-66871368D01*
X86441010Y-67114589D01*
X86329068Y-67384842D01*
X86272000Y-67671740D01*
X86272000Y-67964260D01*
X86329068Y-68251158D01*
X86441010Y-68521411D01*
X86603525Y-68764632D01*
X86735380Y-68896487D01*
X86662820Y-68918498D01*
X86552506Y-68977463D01*
X86455815Y-69056815D01*
X86376463Y-69153506D01*
X86317498Y-69263820D01*
X86281188Y-69383518D01*
X86268928Y-69508000D01*
X82504920Y-69508000D01*
X82386020Y-69432058D01*
X82086532Y-69315193D01*
X81770000Y-69259000D01*
X80770000Y-69259000D01*
X80516000Y-69259000D01*
X79516000Y-69259000D01*
X79199468Y-69315193D01*
X78899980Y-69432058D01*
X78629046Y-69605105D01*
X78397078Y-69827683D01*
X78212990Y-70091239D01*
X78083856Y-70385645D01*
X78052876Y-70513566D01*
X70281000Y-70513566D01*
X70281000Y-66421000D01*
X75708000Y-66421000D01*
X75708000Y-67421000D01*
X75764193Y-67737532D01*
X75881058Y-68037020D01*
X76054105Y-68307954D01*
X76276683Y-68539922D01*
X76540239Y-68724010D01*
X76834645Y-68853144D01*
X76962566Y-68884124D01*
X77216000Y-68764777D01*
X77216000Y-66421000D01*
X77470000Y-66421000D01*
X77470000Y-68764777D01*
X77723434Y-68884124D01*
X77851355Y-68853144D01*
X78145761Y-68724010D01*
X78409317Y-68539922D01*
X78631895Y-68307954D01*
X78804942Y-68037020D01*
X78921807Y-67737532D01*
X78978000Y-67421000D01*
X78978000Y-66421000D01*
X77470000Y-66421000D01*
X77216000Y-66421000D01*
X75708000Y-66421000D01*
X70281000Y-66421000D01*
X70281000Y-65167000D01*
X75708000Y-65167000D01*
X75708000Y-66167000D01*
X77216000Y-66167000D01*
X77216000Y-63823223D01*
X77470000Y-63823223D01*
X77470000Y-66167000D01*
X78978000Y-66167000D01*
X78978000Y-65213679D01*
X81808000Y-65213679D01*
X81808001Y-67374322D01*
X81831658Y-67614516D01*
X81925149Y-67922715D01*
X82076970Y-68206752D01*
X82281287Y-68455714D01*
X82530249Y-68660031D01*
X82814286Y-68811852D01*
X83122485Y-68905343D01*
X83443000Y-68936911D01*
X83763516Y-68905343D01*
X84071715Y-68811852D01*
X84355752Y-68660031D01*
X84604714Y-68455714D01*
X84809031Y-68206752D01*
X84960852Y-67922715D01*
X85054343Y-67614516D01*
X85078000Y-67374322D01*
X85078000Y-65727211D01*
X91343830Y-65727211D01*
X91356090Y-65851693D01*
X91392400Y-65971391D01*
X91451365Y-66081705D01*
X91530717Y-66178396D01*
X91627408Y-66257748D01*
X91737722Y-66316713D01*
X91756029Y-66322267D01*
X91689590Y-66388706D01*
X91521603Y-66640116D01*
X91405891Y-66919468D01*
X91346902Y-67216027D01*
X91346902Y-67518395D01*
X91405891Y-67814954D01*
X91521603Y-68094306D01*
X91689590Y-68345716D01*
X91903397Y-68559523D01*
X92154807Y-68727510D01*
X92434159Y-68843222D01*
X92730718Y-68902211D01*
X93033086Y-68902211D01*
X93329645Y-68843222D01*
X93608997Y-68727510D01*
X93860407Y-68559523D01*
X94074214Y-68345716D01*
X94242201Y-68094306D01*
X94271948Y-68022490D01*
X103778024Y-68022490D01*
X103822675Y-68169699D01*
X103947859Y-68432520D01*
X104121912Y-68665869D01*
X104338145Y-68860778D01*
X104588248Y-69009757D01*
X104862609Y-69107081D01*
X105092500Y-68986414D01*
X105092500Y-67792600D01*
X105346500Y-67792600D01*
X105346500Y-68986414D01*
X105576391Y-69107081D01*
X105850752Y-69009757D01*
X106100855Y-68860778D01*
X106317088Y-68665869D01*
X106491141Y-68432520D01*
X106616325Y-68169699D01*
X106660976Y-68022490D01*
X106539655Y-67792600D01*
X105346500Y-67792600D01*
X105092500Y-67792600D01*
X103899345Y-67792600D01*
X103778024Y-68022490D01*
X94271948Y-68022490D01*
X94357913Y-67814954D01*
X94416902Y-67518395D01*
X94416902Y-67216027D01*
X94357913Y-66919468D01*
X94242201Y-66640116D01*
X94074214Y-66388706D01*
X94007775Y-66322267D01*
X94026082Y-66316713D01*
X94136396Y-66257748D01*
X94233087Y-66178396D01*
X94312439Y-66081705D01*
X94371404Y-65971391D01*
X94407714Y-65851693D01*
X94419974Y-65727211D01*
X94416902Y-65112961D01*
X94258152Y-64954211D01*
X93008902Y-64954211D01*
X93008902Y-64974211D01*
X92754902Y-64974211D01*
X92754902Y-64954211D01*
X91505652Y-64954211D01*
X91346902Y-65112961D01*
X91343830Y-65727211D01*
X85078000Y-65727211D01*
X85078000Y-65213678D01*
X85054343Y-64973484D01*
X84960852Y-64665285D01*
X84809031Y-64381248D01*
X84604714Y-64132286D01*
X84355751Y-63927969D01*
X84354333Y-63927211D01*
X91343830Y-63927211D01*
X91346902Y-64541461D01*
X91505652Y-64700211D01*
X92754902Y-64700211D01*
X92754902Y-63450961D01*
X93008902Y-63450961D01*
X93008902Y-64700211D01*
X94258152Y-64700211D01*
X94416902Y-64541461D01*
X94418231Y-64275600D01*
X103731428Y-64275600D01*
X103731428Y-65975600D01*
X103743688Y-66100082D01*
X103779998Y-66219780D01*
X103838963Y-66330094D01*
X103918315Y-66426785D01*
X104015006Y-66506137D01*
X104125320Y-66565102D01*
X104205966Y-66589566D01*
X104121912Y-66665331D01*
X103947859Y-66898680D01*
X103822675Y-67161501D01*
X103778024Y-67308710D01*
X103899345Y-67538600D01*
X105092500Y-67538600D01*
X105092500Y-67518600D01*
X105346500Y-67518600D01*
X105346500Y-67538600D01*
X106539655Y-67538600D01*
X106660976Y-67308710D01*
X106616325Y-67161501D01*
X106491141Y-66898680D01*
X106317088Y-66665331D01*
X106233034Y-66589566D01*
X106313680Y-66565102D01*
X106423994Y-66506137D01*
X106520685Y-66426785D01*
X106600037Y-66330094D01*
X106659002Y-66219780D01*
X106695312Y-66100082D01*
X106707572Y-65975600D01*
X106707572Y-64275600D01*
X106695312Y-64151118D01*
X106659002Y-64031420D01*
X106600037Y-63921106D01*
X106520685Y-63824415D01*
X106423994Y-63745063D01*
X106313680Y-63686098D01*
X106193982Y-63649788D01*
X106069500Y-63637528D01*
X104369500Y-63637528D01*
X104245018Y-63649788D01*
X104125320Y-63686098D01*
X104015006Y-63745063D01*
X103918315Y-63824415D01*
X103838963Y-63921106D01*
X103779998Y-64031420D01*
X103743688Y-64151118D01*
X103731428Y-64275600D01*
X94418231Y-64275600D01*
X94419974Y-63927211D01*
X94407714Y-63802729D01*
X94371404Y-63683031D01*
X94312439Y-63572717D01*
X94233087Y-63476026D01*
X94136396Y-63396674D01*
X94026082Y-63337709D01*
X93906384Y-63301399D01*
X93781902Y-63289139D01*
X93167652Y-63292211D01*
X93008902Y-63450961D01*
X92754902Y-63450961D01*
X92596152Y-63292211D01*
X91981902Y-63289139D01*
X91857420Y-63301399D01*
X91737722Y-63337709D01*
X91627408Y-63396674D01*
X91530717Y-63476026D01*
X91451365Y-63572717D01*
X91392400Y-63683031D01*
X91356090Y-63802729D01*
X91343830Y-63927211D01*
X84354333Y-63927211D01*
X84071714Y-63776148D01*
X83763515Y-63682657D01*
X83443000Y-63651089D01*
X83122484Y-63682657D01*
X82814285Y-63776148D01*
X82530248Y-63927969D01*
X82281286Y-64132286D01*
X82076969Y-64381249D01*
X81925148Y-64665286D01*
X81831657Y-64973485D01*
X81808000Y-65213679D01*
X78978000Y-65213679D01*
X78978000Y-65167000D01*
X78921807Y-64850468D01*
X78804942Y-64550980D01*
X78631895Y-64280046D01*
X78409317Y-64048078D01*
X78145761Y-63863990D01*
X77851355Y-63734856D01*
X77723434Y-63703876D01*
X77470000Y-63823223D01*
X77216000Y-63823223D01*
X76962566Y-63703876D01*
X76834645Y-63734856D01*
X76540239Y-63863990D01*
X76276683Y-64048078D01*
X76054105Y-64280046D01*
X75881058Y-64550980D01*
X75764193Y-64850468D01*
X75708000Y-65167000D01*
X70281000Y-65167000D01*
X70281000Y-62644503D01*
X70292945Y-62522676D01*
X70318593Y-62437726D01*
X70360259Y-62359363D01*
X70416348Y-62290592D01*
X70484727Y-62234024D01*
X70562790Y-62191815D01*
X70647566Y-62165572D01*
X70767188Y-62153000D01*
X107916497Y-62153000D01*
X108038324Y-62164945D01*
G04 #@! TA.AperFunction,Conductor*
D26*
G36*
X108038324Y-62164945D02*
G01*
X108123274Y-62190593D01*
X108201637Y-62232259D01*
X108270408Y-62288348D01*
X108326976Y-62356727D01*
X108369185Y-62434790D01*
X108395428Y-62519566D01*
X108408000Y-62639188D01*
X108408001Y-69435486D01*
X108396055Y-69557324D01*
X108370406Y-69642276D01*
X108328741Y-69720637D01*
X108272654Y-69789406D01*
X108204273Y-69845976D01*
X108126206Y-69888187D01*
X108041435Y-69914428D01*
X107921812Y-69927000D01*
X103852353Y-69927000D01*
X103822950Y-69929896D01*
X103815938Y-69929847D01*
X103806420Y-69930780D01*
X103584568Y-69954097D01*
X103523757Y-69966580D01*
X103462763Y-69978215D01*
X103453613Y-69980978D01*
X103453609Y-69980979D01*
X103453606Y-69980980D01*
X103453607Y-69980980D01*
X103240510Y-70046944D01*
X103183256Y-70071012D01*
X103125712Y-70094261D01*
X103117267Y-70098751D01*
X102921039Y-70204851D01*
X102869567Y-70239570D01*
X102817620Y-70273563D01*
X102810208Y-70279608D01*
X102638326Y-70421801D01*
X102594562Y-70465871D01*
X102550221Y-70509293D01*
X102544125Y-70516662D01*
X102403135Y-70689532D01*
X102368772Y-70741252D01*
X102333700Y-70792474D01*
X102329151Y-70800887D01*
X102224424Y-70997850D01*
X102200764Y-71055255D01*
X102176309Y-71112312D01*
X102173481Y-71121449D01*
X102109005Y-71335002D01*
X102096956Y-71395856D01*
X102084037Y-71456634D01*
X102083037Y-71466146D01*
X102061269Y-71688157D01*
X102061269Y-71688173D01*
X102058001Y-71721353D01*
X102058000Y-104427646D01*
X102060896Y-104457049D01*
X102060847Y-104464062D01*
X102061780Y-104473580D01*
X102085097Y-104695432D01*
X102097582Y-104756256D01*
X102109215Y-104817236D01*
X102111979Y-104826392D01*
X102177944Y-105039490D01*
X102202001Y-105096719D01*
X102225261Y-105154289D01*
X102229751Y-105162734D01*
X102335852Y-105358961D01*
X102370553Y-105410407D01*
X102404563Y-105462380D01*
X102410608Y-105469792D01*
X102552801Y-105641674D01*
X102596854Y-105685421D01*
X102640292Y-105729778D01*
X102647662Y-105735875D01*
X102820531Y-105876865D01*
X102872236Y-105911218D01*
X102923473Y-105946300D01*
X102931886Y-105950849D01*
X103128850Y-106055576D01*
X103186255Y-106079236D01*
X103243312Y-106103691D01*
X103252449Y-106106519D01*
X103466002Y-106170995D01*
X103526863Y-106183046D01*
X103587635Y-106195963D01*
X103597147Y-106196963D01*
X103819157Y-106218731D01*
X103819163Y-106218731D01*
X103852353Y-106222000D01*
X107916497Y-106222000D01*
X108038324Y-106233945D01*
X108123274Y-106259593D01*
X108201637Y-106301259D01*
X108270408Y-106357348D01*
X108326976Y-106425727D01*
X108369185Y-106503790D01*
X108395428Y-106588566D01*
X108408000Y-106708188D01*
X108408001Y-115536486D01*
X108396055Y-115658324D01*
X108370406Y-115743276D01*
X108328741Y-115821637D01*
X108272654Y-115890406D01*
X108204273Y-115946976D01*
X108126206Y-115989187D01*
X108041435Y-116015428D01*
X107921812Y-116028000D01*
X70772504Y-116028000D01*
X70650676Y-116016055D01*
X70565724Y-115990406D01*
X70487363Y-115948741D01*
X70418594Y-115892654D01*
X70362024Y-115824273D01*
X70319813Y-115746206D01*
X70293572Y-115661435D01*
X70281000Y-115541812D01*
X70281000Y-112527363D01*
X84680500Y-112527363D01*
X84680500Y-112770637D01*
X84727960Y-113009236D01*
X84821057Y-113233992D01*
X84956213Y-113436267D01*
X85128233Y-113608287D01*
X85330508Y-113743443D01*
X85555264Y-113836540D01*
X85793863Y-113884000D01*
X86037137Y-113884000D01*
X86275736Y-113836540D01*
X86500492Y-113743443D01*
X86702767Y-113608287D01*
X86812290Y-113498764D01*
X87245341Y-113498764D01*
X87292648Y-113722348D01*
X87514016Y-113823237D01*
X87750813Y-113879000D01*
X87993938Y-113887495D01*
X88234049Y-113848395D01*
X88461918Y-113763202D01*
X88538352Y-113722348D01*
X88585659Y-113498764D01*
X87915500Y-112828605D01*
X87245341Y-113498764D01*
X86812290Y-113498764D01*
X86874787Y-113436267D01*
X86966996Y-113298267D01*
X87065736Y-113319159D01*
X87735895Y-112649000D01*
X88095105Y-112649000D01*
X88765264Y-113319159D01*
X88988848Y-113271852D01*
X89089737Y-113050484D01*
X89145500Y-112813687D01*
X89153995Y-112570562D01*
X89146961Y-112527363D01*
X91475000Y-112527363D01*
X91475000Y-112770637D01*
X91522460Y-113009236D01*
X91615557Y-113233992D01*
X91750713Y-113436267D01*
X91922733Y-113608287D01*
X92125008Y-113743443D01*
X92349764Y-113836540D01*
X92588363Y-113884000D01*
X92831637Y-113884000D01*
X93070236Y-113836540D01*
X93294992Y-113743443D01*
X93497267Y-113608287D01*
X93606790Y-113498764D01*
X94039841Y-113498764D01*
X94087148Y-113722348D01*
X94308516Y-113823237D01*
X94545313Y-113879000D01*
X94788438Y-113887495D01*
X95028549Y-113848395D01*
X95256418Y-113763202D01*
X95332852Y-113722348D01*
X95380159Y-113498764D01*
X95353395Y-113472000D01*
X103096428Y-113472000D01*
X103108688Y-113596482D01*
X103144998Y-113716180D01*
X103203963Y-113826494D01*
X103283315Y-113923185D01*
X103380006Y-114002537D01*
X103490320Y-114061502D01*
X103610018Y-114097812D01*
X103734500Y-114110072D01*
X104298750Y-114107000D01*
X104457500Y-113948250D01*
X104457500Y-112749000D01*
X104711500Y-112749000D01*
X104711500Y-113948250D01*
X104870250Y-114107000D01*
X105434500Y-114110072D01*
X105558982Y-114097812D01*
X105678680Y-114061502D01*
X105788994Y-114002537D01*
X105885685Y-113923185D01*
X105965037Y-113826494D01*
X106024002Y-113716180D01*
X106060312Y-113596482D01*
X106072572Y-113472000D01*
X106069500Y-112907750D01*
X105910750Y-112749000D01*
X104711500Y-112749000D01*
X104457500Y-112749000D01*
X103258250Y-112749000D01*
X103099500Y-112907750D01*
X103096428Y-113472000D01*
X95353395Y-113472000D01*
X94710000Y-112828605D01*
X94039841Y-113498764D01*
X93606790Y-113498764D01*
X93669287Y-113436267D01*
X93761496Y-113298267D01*
X93860236Y-113319159D01*
X94530395Y-112649000D01*
X94889605Y-112649000D01*
X95559764Y-113319159D01*
X95783348Y-113271852D01*
X95884237Y-113050484D01*
X95940000Y-112813687D01*
X95948495Y-112570562D01*
X95909395Y-112330451D01*
X95824202Y-112102582D01*
X95783348Y-112026148D01*
X95559764Y-111978841D01*
X94889605Y-112649000D01*
X94530395Y-112649000D01*
X93860236Y-111978841D01*
X93761496Y-111999733D01*
X93669287Y-111861733D01*
X93606790Y-111799236D01*
X94039841Y-111799236D01*
X94710000Y-112469395D01*
X95380159Y-111799236D01*
X95374397Y-111772000D01*
X103096428Y-111772000D01*
X103099500Y-112336250D01*
X103258250Y-112495000D01*
X104457500Y-112495000D01*
X104457500Y-112475000D01*
X104711500Y-112475000D01*
X104711500Y-112495000D01*
X105910750Y-112495000D01*
X106069500Y-112336250D01*
X106072572Y-111772000D01*
X106060312Y-111647518D01*
X106024002Y-111527820D01*
X105965037Y-111417506D01*
X105885685Y-111320815D01*
X105788994Y-111241463D01*
X105678680Y-111182498D01*
X105606120Y-111160487D01*
X105737975Y-111028632D01*
X105900490Y-110785411D01*
X106012432Y-110515158D01*
X106069500Y-110228260D01*
X106069500Y-109935740D01*
X106012432Y-109648842D01*
X105900490Y-109378589D01*
X105737975Y-109135368D01*
X105531132Y-108928525D01*
X105287911Y-108766010D01*
X105017658Y-108654068D01*
X104730760Y-108597000D01*
X104438240Y-108597000D01*
X104151342Y-108654068D01*
X103881089Y-108766010D01*
X103637868Y-108928525D01*
X103431025Y-109135368D01*
X103268510Y-109378589D01*
X103156568Y-109648842D01*
X103099500Y-109935740D01*
X103099500Y-110228260D01*
X103156568Y-110515158D01*
X103268510Y-110785411D01*
X103431025Y-111028632D01*
X103562880Y-111160487D01*
X103490320Y-111182498D01*
X103380006Y-111241463D01*
X103283315Y-111320815D01*
X103203963Y-111417506D01*
X103144998Y-111527820D01*
X103108688Y-111647518D01*
X103096428Y-111772000D01*
X95374397Y-111772000D01*
X95332852Y-111575652D01*
X95111484Y-111474763D01*
X94874687Y-111419000D01*
X94631562Y-111410505D01*
X94391451Y-111449605D01*
X94163582Y-111534798D01*
X94087148Y-111575652D01*
X94039841Y-111799236D01*
X93606790Y-111799236D01*
X93497267Y-111689713D01*
X93294992Y-111554557D01*
X93070236Y-111461460D01*
X92831637Y-111414000D01*
X92588363Y-111414000D01*
X92349764Y-111461460D01*
X92125008Y-111554557D01*
X91922733Y-111689713D01*
X91750713Y-111861733D01*
X91615557Y-112064008D01*
X91522460Y-112288764D01*
X91475000Y-112527363D01*
X89146961Y-112527363D01*
X89114895Y-112330451D01*
X89029702Y-112102582D01*
X88988848Y-112026148D01*
X88765264Y-111978841D01*
X88095105Y-112649000D01*
X87735895Y-112649000D01*
X87065736Y-111978841D01*
X86966996Y-111999733D01*
X86874787Y-111861733D01*
X86812290Y-111799236D01*
X87245341Y-111799236D01*
X87915500Y-112469395D01*
X88585659Y-111799236D01*
X88538352Y-111575652D01*
X88316984Y-111474763D01*
X88080187Y-111419000D01*
X87837062Y-111410505D01*
X87596951Y-111449605D01*
X87369082Y-111534798D01*
X87292648Y-111575652D01*
X87245341Y-111799236D01*
X86812290Y-111799236D01*
X86702767Y-111689713D01*
X86500492Y-111554557D01*
X86275736Y-111461460D01*
X86037137Y-111414000D01*
X85793863Y-111414000D01*
X85555264Y-111461460D01*
X85330508Y-111554557D01*
X85128233Y-111689713D01*
X84956213Y-111861733D01*
X84821057Y-112064008D01*
X84727960Y-112288764D01*
X84680500Y-112527363D01*
X70281000Y-112527363D01*
X70281000Y-109337221D01*
X72477500Y-109337221D01*
X72477500Y-109757779D01*
X72559547Y-110170256D01*
X72720488Y-110558802D01*
X72954137Y-110908483D01*
X73251517Y-111205863D01*
X73601198Y-111439512D01*
X73989744Y-111600453D01*
X74402221Y-111682500D01*
X74822779Y-111682500D01*
X75235256Y-111600453D01*
X75623802Y-111439512D01*
X75973483Y-111205863D01*
X76270863Y-110908483D01*
X76504512Y-110558802D01*
X76665453Y-110170256D01*
X76747500Y-109757779D01*
X76747500Y-109337221D01*
X76665453Y-108924744D01*
X76504512Y-108536198D01*
X76270863Y-108186517D01*
X75973483Y-107889137D01*
X75623802Y-107655488D01*
X75235256Y-107494547D01*
X74822779Y-107412500D01*
X74402221Y-107412500D01*
X73989744Y-107494547D01*
X73601198Y-107655488D01*
X73251517Y-107889137D01*
X72954137Y-108186517D01*
X72720488Y-108536198D01*
X72559547Y-108924744D01*
X72477500Y-109337221D01*
X70281000Y-109337221D01*
X70281000Y-105309616D01*
X87365000Y-105309616D01*
X87365000Y-105611984D01*
X87423989Y-105908543D01*
X87539701Y-106187895D01*
X87707688Y-106439305D01*
X87921495Y-106653112D01*
X88172905Y-106821099D01*
X88452257Y-106936811D01*
X88748816Y-106995800D01*
X89051184Y-106995800D01*
X89347743Y-106936811D01*
X89627095Y-106821099D01*
X89878505Y-106653112D01*
X90006737Y-106524880D01*
X90515525Y-106524880D01*
X90599208Y-106779061D01*
X90871775Y-106909958D01*
X91164642Y-106985165D01*
X91466553Y-107001791D01*
X91765907Y-106959197D01*
X92051199Y-106859022D01*
X92200792Y-106779061D01*
X92284475Y-106524880D01*
X93015525Y-106524880D01*
X93099208Y-106779061D01*
X93371775Y-106909958D01*
X93664642Y-106985165D01*
X93966553Y-107001791D01*
X94265907Y-106959197D01*
X94551199Y-106859022D01*
X94700792Y-106779061D01*
X94784475Y-106524880D01*
X93900000Y-105640405D01*
X93015525Y-106524880D01*
X92284475Y-106524880D01*
X91400000Y-105640405D01*
X90515525Y-106524880D01*
X90006737Y-106524880D01*
X90092312Y-106439305D01*
X90187738Y-106296490D01*
X90335920Y-106345275D01*
X91220395Y-105460800D01*
X91579605Y-105460800D01*
X92464080Y-106345275D01*
X92650000Y-106284065D01*
X92835920Y-106345275D01*
X93720395Y-105460800D01*
X94079605Y-105460800D01*
X94964080Y-106345275D01*
X95218261Y-106261592D01*
X95349158Y-105989025D01*
X95424365Y-105696158D01*
X95440991Y-105394247D01*
X95398397Y-105094893D01*
X95298222Y-104809601D01*
X95218261Y-104660008D01*
X94964080Y-104576325D01*
X94079605Y-105460800D01*
X93720395Y-105460800D01*
X92835920Y-104576325D01*
X92650000Y-104637535D01*
X92464080Y-104576325D01*
X91579605Y-105460800D01*
X91220395Y-105460800D01*
X90335920Y-104576325D01*
X90187738Y-104625110D01*
X90092312Y-104482295D01*
X90006737Y-104396720D01*
X90515525Y-104396720D01*
X91400000Y-105281195D01*
X92284475Y-104396720D01*
X93015525Y-104396720D01*
X93900000Y-105281195D01*
X94784475Y-104396720D01*
X94700792Y-104142539D01*
X94428225Y-104011642D01*
X94135358Y-103936435D01*
X93833447Y-103919809D01*
X93534093Y-103962403D01*
X93248801Y-104062578D01*
X93099208Y-104142539D01*
X93015525Y-104396720D01*
X92284475Y-104396720D01*
X92200792Y-104142539D01*
X91928225Y-104011642D01*
X91635358Y-103936435D01*
X91333447Y-103919809D01*
X91034093Y-103962403D01*
X90748801Y-104062578D01*
X90599208Y-104142539D01*
X90515525Y-104396720D01*
X90006737Y-104396720D01*
X89878505Y-104268488D01*
X89627095Y-104100501D01*
X89347743Y-103984789D01*
X89051184Y-103925800D01*
X88748816Y-103925800D01*
X88452257Y-103984789D01*
X88172905Y-104100501D01*
X87921495Y-104268488D01*
X87707688Y-104482295D01*
X87539701Y-104733705D01*
X87423989Y-105013057D01*
X87365000Y-105309616D01*
X70281000Y-105309616D01*
X70281000Y-98107499D01*
X74747819Y-98107499D01*
X74778470Y-98418703D01*
X74869245Y-98717948D01*
X75016655Y-98993734D01*
X75215037Y-99235462D01*
X75388109Y-99377499D01*
X75215037Y-99519536D01*
X75016655Y-99761264D01*
X74869245Y-100037050D01*
X74778470Y-100336295D01*
X74747819Y-100647499D01*
X74778470Y-100958703D01*
X74869245Y-101257948D01*
X75016655Y-101533734D01*
X75119946Y-101659594D01*
X75036006Y-101704462D01*
X74939315Y-101783814D01*
X74859963Y-101880505D01*
X74800998Y-101990819D01*
X74764688Y-102110517D01*
X74752428Y-102234999D01*
X74752428Y-104139999D01*
X74764688Y-104264481D01*
X74800998Y-104384179D01*
X74859963Y-104494493D01*
X74939315Y-104591184D01*
X75036006Y-104670536D01*
X75146320Y-104729501D01*
X75266018Y-104765811D01*
X75390500Y-104778071D01*
X77390500Y-104778071D01*
X77514982Y-104765811D01*
X77634680Y-104729501D01*
X77744994Y-104670536D01*
X77841685Y-104591184D01*
X77921037Y-104494493D01*
X77980002Y-104384179D01*
X78016312Y-104264481D01*
X78028572Y-104139999D01*
X78028572Y-102234999D01*
X78016312Y-102110517D01*
X77980002Y-101990819D01*
X77921037Y-101880505D01*
X77841685Y-101783814D01*
X77744994Y-101704462D01*
X77661054Y-101659594D01*
X77764345Y-101533734D01*
X77911755Y-101257948D01*
X78002530Y-100958703D01*
X78033181Y-100647499D01*
X78002530Y-100336295D01*
X77911755Y-100037050D01*
X77764345Y-99761264D01*
X77565963Y-99519536D01*
X77392891Y-99377499D01*
X77565963Y-99235462D01*
X77764345Y-98993734D01*
X77911755Y-98717948D01*
X78002530Y-98418703D01*
X78027825Y-98161879D01*
X83965000Y-98161879D01*
X83965000Y-98759721D01*
X84081633Y-99346077D01*
X84310418Y-99898412D01*
X84642562Y-100395500D01*
X85065300Y-100818238D01*
X85562388Y-101150382D01*
X86114723Y-101379167D01*
X86701079Y-101495800D01*
X87298921Y-101495800D01*
X87885277Y-101379167D01*
X88437612Y-101150382D01*
X88934700Y-100818238D01*
X89357438Y-100395500D01*
X89689582Y-99898412D01*
X89918367Y-99346077D01*
X90035000Y-98759721D01*
X90035000Y-98161879D01*
X92765000Y-98161879D01*
X92765000Y-98759721D01*
X92881633Y-99346077D01*
X93110418Y-99898412D01*
X93442562Y-100395500D01*
X93865300Y-100818238D01*
X94362388Y-101150382D01*
X94914723Y-101379167D01*
X95501079Y-101495800D01*
X96098921Y-101495800D01*
X96685277Y-101379167D01*
X97237612Y-101150382D01*
X97734700Y-100818238D01*
X98157438Y-100395500D01*
X98489582Y-99898412D01*
X98718367Y-99346077D01*
X98835000Y-98759721D01*
X98835000Y-98161879D01*
X98718367Y-97575523D01*
X98489582Y-97023188D01*
X98157438Y-96526100D01*
X97734700Y-96103362D01*
X97237612Y-95771218D01*
X96685277Y-95542433D01*
X96098921Y-95425800D01*
X95501079Y-95425800D01*
X94914723Y-95542433D01*
X94362388Y-95771218D01*
X93865300Y-96103362D01*
X93442562Y-96526100D01*
X93110418Y-97023188D01*
X92881633Y-97575523D01*
X92765000Y-98161879D01*
X90035000Y-98161879D01*
X89918367Y-97575523D01*
X89689582Y-97023188D01*
X89357438Y-96526100D01*
X88934700Y-96103362D01*
X88437612Y-95771218D01*
X87885277Y-95542433D01*
X87298921Y-95425800D01*
X86701079Y-95425800D01*
X86114723Y-95542433D01*
X85562388Y-95771218D01*
X85065300Y-96103362D01*
X84642562Y-96526100D01*
X84310418Y-97023188D01*
X84081633Y-97575523D01*
X83965000Y-98161879D01*
X78027825Y-98161879D01*
X78033181Y-98107499D01*
X78002530Y-97796295D01*
X77911755Y-97497050D01*
X77764345Y-97221264D01*
X77565963Y-96979536D01*
X77324235Y-96781154D01*
X77048449Y-96633744D01*
X76749204Y-96542969D01*
X76515986Y-96519999D01*
X76265014Y-96519999D01*
X76031796Y-96542969D01*
X75732551Y-96633744D01*
X75456765Y-96781154D01*
X75215037Y-96979536D01*
X75016655Y-97221264D01*
X74869245Y-97497050D01*
X74778470Y-97796295D01*
X74747819Y-98107499D01*
X70281000Y-98107499D01*
X70281000Y-91537221D01*
X72477500Y-91537221D01*
X72477500Y-91957779D01*
X72559547Y-92370256D01*
X72720488Y-92758802D01*
X72954137Y-93108483D01*
X73251517Y-93405863D01*
X73601198Y-93639512D01*
X73989744Y-93800453D01*
X74402221Y-93882500D01*
X74822779Y-93882500D01*
X75235256Y-93800453D01*
X75623802Y-93639512D01*
X75973483Y-93405863D01*
X76270863Y-93108483D01*
X76504512Y-92758802D01*
X76665453Y-92370256D01*
X76747500Y-91957779D01*
X76747500Y-91537221D01*
X76665453Y-91124744D01*
X76504512Y-90736198D01*
X76270863Y-90386517D01*
X75973483Y-90089137D01*
X75623802Y-89855488D01*
X75235256Y-89694547D01*
X74822779Y-89612500D01*
X74402221Y-89612500D01*
X73989744Y-89694547D01*
X73601198Y-89855488D01*
X73251517Y-90089137D01*
X72954137Y-90386517D01*
X72720488Y-90736198D01*
X72559547Y-91124744D01*
X72477500Y-91537221D01*
X70281000Y-91537221D01*
X70281000Y-88968400D01*
X83758328Y-88968400D01*
X83758328Y-91168400D01*
X83770588Y-91292882D01*
X83806898Y-91412580D01*
X83865863Y-91522894D01*
X83945215Y-91619585D01*
X84041906Y-91698937D01*
X84152220Y-91757902D01*
X84271918Y-91794212D01*
X84396400Y-91806472D01*
X86596400Y-91806472D01*
X86720882Y-91794212D01*
X86840580Y-91757902D01*
X86950894Y-91698937D01*
X87047585Y-91619585D01*
X87126937Y-91522894D01*
X87185902Y-91412580D01*
X87222212Y-91292882D01*
X87234472Y-91168400D01*
X87234472Y-90464522D01*
X93967225Y-90464522D01*
X94031825Y-90677494D01*
X94181869Y-90982729D01*
X94388578Y-91252827D01*
X94644009Y-91477408D01*
X94938346Y-91647842D01*
X95260277Y-91757579D01*
X95529400Y-91640000D01*
X95529400Y-90195400D01*
X95783400Y-90195400D01*
X95783400Y-91640000D01*
X96052523Y-91757579D01*
X96374454Y-91647842D01*
X96668791Y-91477408D01*
X96924222Y-91252827D01*
X97130931Y-90982729D01*
X97280975Y-90677494D01*
X97345575Y-90464522D01*
X97227525Y-90195400D01*
X95783400Y-90195400D01*
X95529400Y-90195400D01*
X94085275Y-90195400D01*
X93967225Y-90464522D01*
X87234472Y-90464522D01*
X87234472Y-89672278D01*
X93967225Y-89672278D01*
X94085275Y-89941400D01*
X95529400Y-89941400D01*
X95529400Y-88496800D01*
X95783400Y-88496800D01*
X95783400Y-89941400D01*
X97227525Y-89941400D01*
X97345575Y-89672278D01*
X97280975Y-89459306D01*
X97130931Y-89154071D01*
X96924222Y-88883973D01*
X96668791Y-88659392D01*
X96374454Y-88488958D01*
X96052523Y-88379221D01*
X95783400Y-88496800D01*
X95529400Y-88496800D01*
X95260277Y-88379221D01*
X94938346Y-88488958D01*
X94644009Y-88659392D01*
X94388578Y-88883973D01*
X94181869Y-89154071D01*
X94031825Y-89459306D01*
X93967225Y-89672278D01*
X87234472Y-89672278D01*
X87234472Y-88968400D01*
X87222212Y-88843918D01*
X87185902Y-88724220D01*
X87126937Y-88613906D01*
X87047585Y-88517215D01*
X86950894Y-88437863D01*
X86840580Y-88378898D01*
X86720882Y-88342588D01*
X86596400Y-88330328D01*
X84396400Y-88330328D01*
X84271918Y-88342588D01*
X84152220Y-88378898D01*
X84041906Y-88437863D01*
X83945215Y-88517215D01*
X83865863Y-88613906D01*
X83806898Y-88724220D01*
X83770588Y-88843918D01*
X83758328Y-88968400D01*
X70281000Y-88968400D01*
X70281000Y-85107600D01*
X83758328Y-85107600D01*
X83758328Y-87307600D01*
X83770588Y-87432082D01*
X83806898Y-87551780D01*
X83865863Y-87662094D01*
X83945215Y-87758785D01*
X84041906Y-87838137D01*
X84152220Y-87897102D01*
X84271918Y-87933412D01*
X84396400Y-87945672D01*
X86596400Y-87945672D01*
X86720882Y-87933412D01*
X86840580Y-87897102D01*
X86950894Y-87838137D01*
X87047585Y-87758785D01*
X87126937Y-87662094D01*
X87185902Y-87551780D01*
X87222212Y-87432082D01*
X87234472Y-87307600D01*
X87234472Y-86036717D01*
X93921400Y-86036717D01*
X93921400Y-86378483D01*
X93988075Y-86713681D01*
X94118863Y-87029431D01*
X94308737Y-87313598D01*
X94550402Y-87555263D01*
X94834569Y-87745137D01*
X95150319Y-87875925D01*
X95485517Y-87942600D01*
X95827283Y-87942600D01*
X96162481Y-87875925D01*
X96478231Y-87745137D01*
X96762398Y-87555263D01*
X97004063Y-87313598D01*
X97193937Y-87029431D01*
X97324725Y-86713681D01*
X97391400Y-86378483D01*
X97391400Y-86036717D01*
X97324725Y-85701519D01*
X97193937Y-85385769D01*
X97004063Y-85101602D01*
X96762398Y-84859937D01*
X96478231Y-84670063D01*
X96162481Y-84539275D01*
X95827283Y-84472600D01*
X95485517Y-84472600D01*
X95150319Y-84539275D01*
X94834569Y-84670063D01*
X94550402Y-84859937D01*
X94308737Y-85101602D01*
X94118863Y-85385769D01*
X93988075Y-85701519D01*
X93921400Y-86036717D01*
X87234472Y-86036717D01*
X87234472Y-85107600D01*
X87222212Y-84983118D01*
X87185902Y-84863420D01*
X87126937Y-84753106D01*
X87047585Y-84656415D01*
X86950894Y-84577063D01*
X86840580Y-84518098D01*
X86720882Y-84481788D01*
X86596400Y-84469528D01*
X84396400Y-84469528D01*
X84271918Y-84481788D01*
X84152220Y-84518098D01*
X84041906Y-84577063D01*
X83945215Y-84656415D01*
X83865863Y-84753106D01*
X83806898Y-84863420D01*
X83770588Y-84983118D01*
X83758328Y-85107600D01*
X70281000Y-85107600D01*
X70281000Y-78451967D01*
X71263000Y-78451967D01*
X71263000Y-78774033D01*
X71325832Y-79089912D01*
X71449082Y-79387463D01*
X71628013Y-79655252D01*
X71855748Y-79882987D01*
X72123537Y-80061918D01*
X72421088Y-80185168D01*
X72736967Y-80248000D01*
X73059033Y-80248000D01*
X73374912Y-80185168D01*
X73672463Y-80061918D01*
X73940252Y-79882987D01*
X74167987Y-79655252D01*
X74346918Y-79387463D01*
X74470168Y-79089912D01*
X74533000Y-78774033D01*
X74533000Y-78475408D01*
X75946000Y-78475408D01*
X75946000Y-78750592D01*
X75999686Y-79020490D01*
X76104995Y-79274727D01*
X76257880Y-79503535D01*
X76452465Y-79698120D01*
X76681273Y-79851005D01*
X76935510Y-79956314D01*
X77205408Y-80010000D01*
X77480592Y-80010000D01*
X77750490Y-79956314D01*
X78004727Y-79851005D01*
X78233535Y-79698120D01*
X78353090Y-79578565D01*
X89892040Y-79578565D01*
X89959020Y-79818656D01*
X90208048Y-79935756D01*
X90475135Y-80002023D01*
X90750017Y-80014910D01*
X91022133Y-79973922D01*
X91281023Y-79880636D01*
X91396980Y-79818656D01*
X91463960Y-79578565D01*
X90678000Y-78792605D01*
X89892040Y-79578565D01*
X78353090Y-79578565D01*
X78428120Y-79503535D01*
X78581005Y-79274727D01*
X78686314Y-79020490D01*
X78740000Y-78750592D01*
X78740000Y-78685017D01*
X89276090Y-78685017D01*
X89317078Y-78957133D01*
X89410364Y-79216023D01*
X89472344Y-79331980D01*
X89712435Y-79398960D01*
X90498395Y-78613000D01*
X90857605Y-78613000D01*
X91643565Y-79398960D01*
X91883656Y-79331980D01*
X92000756Y-79082952D01*
X92067023Y-78815865D01*
X92079910Y-78540983D01*
X92066502Y-78451967D01*
X93488000Y-78451967D01*
X93488000Y-78774033D01*
X93550832Y-79089912D01*
X93674082Y-79387463D01*
X93853013Y-79655252D01*
X94080748Y-79882987D01*
X94348537Y-80061918D01*
X94646088Y-80185168D01*
X94961967Y-80248000D01*
X95284033Y-80248000D01*
X95599912Y-80185168D01*
X95897463Y-80061918D01*
X96165252Y-79882987D01*
X96392987Y-79655252D01*
X96571918Y-79387463D01*
X96695168Y-79089912D01*
X96758000Y-78774033D01*
X96758000Y-78451967D01*
X96695168Y-78136088D01*
X96571918Y-77838537D01*
X96392987Y-77570748D01*
X96165252Y-77343013D01*
X95897463Y-77164082D01*
X95599912Y-77040832D01*
X95284033Y-76978000D01*
X94961967Y-76978000D01*
X94646088Y-77040832D01*
X94348537Y-77164082D01*
X94080748Y-77343013D01*
X93853013Y-77570748D01*
X93674082Y-77838537D01*
X93550832Y-78136088D01*
X93488000Y-78451967D01*
X92066502Y-78451967D01*
X92038922Y-78268867D01*
X91945636Y-78009977D01*
X91883656Y-77894020D01*
X91643565Y-77827040D01*
X90857605Y-78613000D01*
X90498395Y-78613000D01*
X89712435Y-77827040D01*
X89472344Y-77894020D01*
X89355244Y-78143048D01*
X89288977Y-78410135D01*
X89276090Y-78685017D01*
X78740000Y-78685017D01*
X78740000Y-78475408D01*
X78686314Y-78205510D01*
X78581005Y-77951273D01*
X78428120Y-77722465D01*
X78353090Y-77647435D01*
X89892040Y-77647435D01*
X90678000Y-78433395D01*
X91463960Y-77647435D01*
X91396980Y-77407344D01*
X91147952Y-77290244D01*
X90880865Y-77223977D01*
X90605983Y-77211090D01*
X90333867Y-77252078D01*
X90074977Y-77345364D01*
X89959020Y-77407344D01*
X89892040Y-77647435D01*
X78353090Y-77647435D01*
X78233535Y-77527880D01*
X78004727Y-77374995D01*
X77750490Y-77269686D01*
X77480592Y-77216000D01*
X77205408Y-77216000D01*
X76935510Y-77269686D01*
X76681273Y-77374995D01*
X76452465Y-77527880D01*
X76257880Y-77722465D01*
X76104995Y-77951273D01*
X75999686Y-78205510D01*
X75946000Y-78475408D01*
X74533000Y-78475408D01*
X74533000Y-78451967D01*
X74470168Y-78136088D01*
X74346918Y-77838537D01*
X74167987Y-77570748D01*
X73940252Y-77343013D01*
X73672463Y-77164082D01*
X73374912Y-77040832D01*
X73059033Y-76978000D01*
X72736967Y-76978000D01*
X72421088Y-77040832D01*
X72123537Y-77164082D01*
X71855748Y-77343013D01*
X71628013Y-77570748D01*
X71449082Y-77838537D01*
X71325832Y-78136088D01*
X71263000Y-78451967D01*
X70281000Y-78451967D01*
X70281000Y-71274434D01*
X78052876Y-71274434D01*
X78083856Y-71402355D01*
X78212990Y-71696761D01*
X78397078Y-71960317D01*
X78629046Y-72182895D01*
X78899980Y-72355942D01*
X79199468Y-72472807D01*
X79516000Y-72529000D01*
X80516000Y-72529000D01*
X80516000Y-71021000D01*
X80770000Y-71021000D01*
X80770000Y-72529000D01*
X81770000Y-72529000D01*
X82086532Y-72472807D01*
X82386020Y-72355942D01*
X82656954Y-72182895D01*
X82888922Y-71960317D01*
X83073010Y-71696761D01*
X83202144Y-71402355D01*
X83233124Y-71274434D01*
X83113777Y-71021000D01*
X80770000Y-71021000D01*
X80516000Y-71021000D01*
X78172223Y-71021000D01*
X78052876Y-71274434D01*
X70281000Y-71274434D01*
X70281000Y-70513566D01*
X78052876Y-70513566D01*
X78172223Y-70767000D01*
X80516000Y-70767000D01*
X80516000Y-69259000D01*
X80770000Y-69259000D01*
X80770000Y-70767000D01*
X83113777Y-70767000D01*
X83233124Y-70513566D01*
X83202144Y-70385645D01*
X83073010Y-70091239D01*
X82888922Y-69827683D01*
X82656954Y-69605105D01*
X82504920Y-69508000D01*
X86268928Y-69508000D01*
X86268928Y-71208000D01*
X86281188Y-71332482D01*
X86317498Y-71452180D01*
X86376463Y-71562494D01*
X86455815Y-71659185D01*
X86552506Y-71738537D01*
X86662820Y-71797502D01*
X86782518Y-71833812D01*
X86907000Y-71846072D01*
X88607000Y-71846072D01*
X88731482Y-71833812D01*
X88851180Y-71797502D01*
X88961494Y-71738537D01*
X89058185Y-71659185D01*
X89137537Y-71562494D01*
X89196502Y-71452180D01*
X89232812Y-71332482D01*
X89245072Y-71208000D01*
X89245072Y-69508000D01*
X89232812Y-69383518D01*
X89196502Y-69263820D01*
X89137537Y-69153506D01*
X89058185Y-69056815D01*
X88961494Y-68977463D01*
X88851180Y-68918498D01*
X88778620Y-68896487D01*
X88910475Y-68764632D01*
X89072990Y-68521411D01*
X89184932Y-68251158D01*
X89242000Y-67964260D01*
X89242000Y-67671740D01*
X89184932Y-67384842D01*
X89072990Y-67114589D01*
X88910475Y-66871368D01*
X88703632Y-66664525D01*
X88460411Y-66502010D01*
X88190158Y-66390068D01*
X87903260Y-66333000D01*
X87610740Y-66333000D01*
X87323842Y-66390068D01*
X87053589Y-66502010D01*
X86810368Y-66664525D01*
X86603525Y-66871368D01*
X86441010Y-67114589D01*
X86329068Y-67384842D01*
X86272000Y-67671740D01*
X86272000Y-67964260D01*
X86329068Y-68251158D01*
X86441010Y-68521411D01*
X86603525Y-68764632D01*
X86735380Y-68896487D01*
X86662820Y-68918498D01*
X86552506Y-68977463D01*
X86455815Y-69056815D01*
X86376463Y-69153506D01*
X86317498Y-69263820D01*
X86281188Y-69383518D01*
X86268928Y-69508000D01*
X82504920Y-69508000D01*
X82386020Y-69432058D01*
X82086532Y-69315193D01*
X81770000Y-69259000D01*
X80770000Y-69259000D01*
X80516000Y-69259000D01*
X79516000Y-69259000D01*
X79199468Y-69315193D01*
X78899980Y-69432058D01*
X78629046Y-69605105D01*
X78397078Y-69827683D01*
X78212990Y-70091239D01*
X78083856Y-70385645D01*
X78052876Y-70513566D01*
X70281000Y-70513566D01*
X70281000Y-66421000D01*
X75708000Y-66421000D01*
X75708000Y-67421000D01*
X75764193Y-67737532D01*
X75881058Y-68037020D01*
X76054105Y-68307954D01*
X76276683Y-68539922D01*
X76540239Y-68724010D01*
X76834645Y-68853144D01*
X76962566Y-68884124D01*
X77216000Y-68764777D01*
X77216000Y-66421000D01*
X77470000Y-66421000D01*
X77470000Y-68764777D01*
X77723434Y-68884124D01*
X77851355Y-68853144D01*
X78145761Y-68724010D01*
X78409317Y-68539922D01*
X78631895Y-68307954D01*
X78804942Y-68037020D01*
X78921807Y-67737532D01*
X78978000Y-67421000D01*
X78978000Y-66421000D01*
X77470000Y-66421000D01*
X77216000Y-66421000D01*
X75708000Y-66421000D01*
X70281000Y-66421000D01*
X70281000Y-65167000D01*
X75708000Y-65167000D01*
X75708000Y-66167000D01*
X77216000Y-66167000D01*
X77216000Y-63823223D01*
X77470000Y-63823223D01*
X77470000Y-66167000D01*
X78978000Y-66167000D01*
X78978000Y-65213679D01*
X81808000Y-65213679D01*
X81808001Y-67374322D01*
X81831658Y-67614516D01*
X81925149Y-67922715D01*
X82076970Y-68206752D01*
X82281287Y-68455714D01*
X82530249Y-68660031D01*
X82814286Y-68811852D01*
X83122485Y-68905343D01*
X83443000Y-68936911D01*
X83763516Y-68905343D01*
X84071715Y-68811852D01*
X84355752Y-68660031D01*
X84604714Y-68455714D01*
X84809031Y-68206752D01*
X84960852Y-67922715D01*
X85054343Y-67614516D01*
X85078000Y-67374322D01*
X85078000Y-65727211D01*
X91343830Y-65727211D01*
X91356090Y-65851693D01*
X91392400Y-65971391D01*
X91451365Y-66081705D01*
X91530717Y-66178396D01*
X91627408Y-66257748D01*
X91737722Y-66316713D01*
X91756029Y-66322267D01*
X91689590Y-66388706D01*
X91521603Y-66640116D01*
X91405891Y-66919468D01*
X91346902Y-67216027D01*
X91346902Y-67518395D01*
X91405891Y-67814954D01*
X91521603Y-68094306D01*
X91689590Y-68345716D01*
X91903397Y-68559523D01*
X92154807Y-68727510D01*
X92434159Y-68843222D01*
X92730718Y-68902211D01*
X93033086Y-68902211D01*
X93329645Y-68843222D01*
X93608997Y-68727510D01*
X93860407Y-68559523D01*
X94074214Y-68345716D01*
X94242201Y-68094306D01*
X94271948Y-68022490D01*
X103778024Y-68022490D01*
X103822675Y-68169699D01*
X103947859Y-68432520D01*
X104121912Y-68665869D01*
X104338145Y-68860778D01*
X104588248Y-69009757D01*
X104862609Y-69107081D01*
X105092500Y-68986414D01*
X105092500Y-67792600D01*
X105346500Y-67792600D01*
X105346500Y-68986414D01*
X105576391Y-69107081D01*
X105850752Y-69009757D01*
X106100855Y-68860778D01*
X106317088Y-68665869D01*
X106491141Y-68432520D01*
X106616325Y-68169699D01*
X106660976Y-68022490D01*
X106539655Y-67792600D01*
X105346500Y-67792600D01*
X105092500Y-67792600D01*
X103899345Y-67792600D01*
X103778024Y-68022490D01*
X94271948Y-68022490D01*
X94357913Y-67814954D01*
X94416902Y-67518395D01*
X94416902Y-67216027D01*
X94357913Y-66919468D01*
X94242201Y-66640116D01*
X94074214Y-66388706D01*
X94007775Y-66322267D01*
X94026082Y-66316713D01*
X94136396Y-66257748D01*
X94233087Y-66178396D01*
X94312439Y-66081705D01*
X94371404Y-65971391D01*
X94407714Y-65851693D01*
X94419974Y-65727211D01*
X94416902Y-65112961D01*
X94258152Y-64954211D01*
X93008902Y-64954211D01*
X93008902Y-64974211D01*
X92754902Y-64974211D01*
X92754902Y-64954211D01*
X91505652Y-64954211D01*
X91346902Y-65112961D01*
X91343830Y-65727211D01*
X85078000Y-65727211D01*
X85078000Y-65213678D01*
X85054343Y-64973484D01*
X84960852Y-64665285D01*
X84809031Y-64381248D01*
X84604714Y-64132286D01*
X84355751Y-63927969D01*
X84354333Y-63927211D01*
X91343830Y-63927211D01*
X91346902Y-64541461D01*
X91505652Y-64700211D01*
X92754902Y-64700211D01*
X92754902Y-63450961D01*
X93008902Y-63450961D01*
X93008902Y-64700211D01*
X94258152Y-64700211D01*
X94416902Y-64541461D01*
X94418231Y-64275600D01*
X103731428Y-64275600D01*
X103731428Y-65975600D01*
X103743688Y-66100082D01*
X103779998Y-66219780D01*
X103838963Y-66330094D01*
X103918315Y-66426785D01*
X104015006Y-66506137D01*
X104125320Y-66565102D01*
X104205966Y-66589566D01*
X104121912Y-66665331D01*
X103947859Y-66898680D01*
X103822675Y-67161501D01*
X103778024Y-67308710D01*
X103899345Y-67538600D01*
X105092500Y-67538600D01*
X105092500Y-67518600D01*
X105346500Y-67518600D01*
X105346500Y-67538600D01*
X106539655Y-67538600D01*
X106660976Y-67308710D01*
X106616325Y-67161501D01*
X106491141Y-66898680D01*
X106317088Y-66665331D01*
X106233034Y-66589566D01*
X106313680Y-66565102D01*
X106423994Y-66506137D01*
X106520685Y-66426785D01*
X106600037Y-66330094D01*
X106659002Y-66219780D01*
X106695312Y-66100082D01*
X106707572Y-65975600D01*
X106707572Y-64275600D01*
X106695312Y-64151118D01*
X106659002Y-64031420D01*
X106600037Y-63921106D01*
X106520685Y-63824415D01*
X106423994Y-63745063D01*
X106313680Y-63686098D01*
X106193982Y-63649788D01*
X106069500Y-63637528D01*
X104369500Y-63637528D01*
X104245018Y-63649788D01*
X104125320Y-63686098D01*
X104015006Y-63745063D01*
X103918315Y-63824415D01*
X103838963Y-63921106D01*
X103779998Y-64031420D01*
X103743688Y-64151118D01*
X103731428Y-64275600D01*
X94418231Y-64275600D01*
X94419974Y-63927211D01*
X94407714Y-63802729D01*
X94371404Y-63683031D01*
X94312439Y-63572717D01*
X94233087Y-63476026D01*
X94136396Y-63396674D01*
X94026082Y-63337709D01*
X93906384Y-63301399D01*
X93781902Y-63289139D01*
X93167652Y-63292211D01*
X93008902Y-63450961D01*
X92754902Y-63450961D01*
X92596152Y-63292211D01*
X91981902Y-63289139D01*
X91857420Y-63301399D01*
X91737722Y-63337709D01*
X91627408Y-63396674D01*
X91530717Y-63476026D01*
X91451365Y-63572717D01*
X91392400Y-63683031D01*
X91356090Y-63802729D01*
X91343830Y-63927211D01*
X84354333Y-63927211D01*
X84071714Y-63776148D01*
X83763515Y-63682657D01*
X83443000Y-63651089D01*
X83122484Y-63682657D01*
X82814285Y-63776148D01*
X82530248Y-63927969D01*
X82281286Y-64132286D01*
X82076969Y-64381249D01*
X81925148Y-64665286D01*
X81831657Y-64973485D01*
X81808000Y-65213679D01*
X78978000Y-65213679D01*
X78978000Y-65167000D01*
X78921807Y-64850468D01*
X78804942Y-64550980D01*
X78631895Y-64280046D01*
X78409317Y-64048078D01*
X78145761Y-63863990D01*
X77851355Y-63734856D01*
X77723434Y-63703876D01*
X77470000Y-63823223D01*
X77216000Y-63823223D01*
X76962566Y-63703876D01*
X76834645Y-63734856D01*
X76540239Y-63863990D01*
X76276683Y-64048078D01*
X76054105Y-64280046D01*
X75881058Y-64550980D01*
X75764193Y-64850468D01*
X75708000Y-65167000D01*
X70281000Y-65167000D01*
X70281000Y-62644503D01*
X70292945Y-62522676D01*
X70318593Y-62437726D01*
X70360259Y-62359363D01*
X70416348Y-62290592D01*
X70484727Y-62234024D01*
X70562790Y-62191815D01*
X70647566Y-62165572D01*
X70767188Y-62153000D01*
X107916497Y-62153000D01*
X108038324Y-62164945D01*
G37*
G04 #@! TD.AperFunction*
M02*
