%FSLAX45Y45*%
G04 Gerber Fmt 4.5, Leading zero omitted, Abs format (unit mm)*
G04 Created by KiCad (PCBNEW (5.1.10)-1) date 2021-12-28 21:38:36*
%MOMM*%
%LPD*%
G01*
G04 APERTURE LIST*
%TA.AperFunction,Profile*%
%ADD10C,0.100000*%
%TD*%
%ADD11C,0.200000*%
%ADD12C,0.300000*%
G04 APERTURE END LIST*
D10*
X7073900Y-11671300D02*
G75*
G02*
X6959600Y-11557000I0J114300D01*
G01*
X6959600Y-6261100D02*
G75*
G02*
X7073900Y-6146800I114300J0D01*
G01*
X10795000Y-6146800D02*
G75*
G02*
X10909300Y-6261100I0J-114300D01*
G01*
X10795000Y-10553700D02*
G75*
G02*
X10909300Y-10668000I0J-114300D01*
G01*
X10909300Y-11557000D02*
G75*
G02*
X10795000Y-11671300I-114300J0D01*
G01*
X10909300Y-6946900D02*
G75*
G02*
X10795000Y-7061200I-114300J0D01*
G01*
X10274300Y-7175500D02*
G75*
G02*
X10388600Y-7061200I114300J0D01*
G01*
X10388600Y-10553700D02*
G75*
G02*
X10274300Y-10439400I0J114300D01*
G01*
X6959600Y-6261100D02*
X6959600Y-6794500D01*
X7607300Y-6146800D02*
X7073900Y-6146800D01*
X10223500Y-11671300D02*
X10795000Y-11671300D01*
X10795000Y-6146800D02*
X10210800Y-6146800D01*
X7073900Y-11671300D02*
X10223500Y-11671300D01*
X6959600Y-6794500D02*
X6959600Y-11557000D01*
X7607300Y-6146800D02*
X10210800Y-6146800D01*
X10274300Y-10439400D02*
X10274300Y-7175500D01*
X10795000Y-10553700D02*
X10388600Y-10553700D01*
X10909300Y-10668000D02*
X10909300Y-11557000D01*
X10795000Y-7061200D02*
X10388600Y-7061200D01*
X10909300Y-6261100D02*
X10909300Y-6946900D01*
D11*
X8561550Y-11234900D02*
X8621550Y-11294900D01*
X8621550Y-11234900D02*
X8561550Y-11294900D01*
X8761550Y-11234900D02*
X8821550Y-11294900D01*
X8821550Y-11234900D02*
X8761550Y-11294900D01*
X9241000Y-11234900D02*
X9301000Y-11294900D01*
X9301000Y-11234900D02*
X9241000Y-11294900D01*
X9441000Y-11234900D02*
X9501000Y-11294900D01*
X9501000Y-11234900D02*
X9441000Y-11294900D01*
X7772400Y-7861300D02*
G75*
G03*
X7772400Y-7861300I-38100J0D01*
G01*
X9105900Y-7861300D02*
G75*
G03*
X9105900Y-7861300I-38100J0D01*
G01*
X7734300Y-6589400D02*
X7734300Y-6669400D01*
X7694300Y-6629400D02*
X7774300Y-6629400D01*
X7704300Y-6519400D02*
X7704300Y-6739400D01*
X7764300Y-6519400D02*
X7764300Y-6739400D01*
X7704300Y-6739400D02*
G75*
G03*
X7764300Y-6739400I30000J0D01*
G01*
X7764300Y-6519400D02*
G75*
G03*
X7704300Y-6519400I-30000J0D01*
G01*
X8064300Y-7049400D02*
X8064300Y-7129400D01*
X8024300Y-7089400D02*
X8104300Y-7089400D01*
X7954300Y-7119400D02*
X8174300Y-7119400D01*
X7954300Y-7059400D02*
X8174300Y-7059400D01*
X8174300Y-7119400D02*
G75*
G03*
X8174300Y-7059400I0J30000D01*
G01*
X7954300Y-7059400D02*
G75*
G03*
X7954300Y-7119400I0J-30000D01*
G01*
X8344300Y-6589400D02*
X8344300Y-6669400D01*
X8304300Y-6629400D02*
X8384300Y-6629400D01*
X8314300Y-6519400D02*
X8314300Y-6739400D01*
X8374300Y-6519400D02*
X8374300Y-6739400D01*
X8314300Y-6739400D02*
G75*
G03*
X8374300Y-6739400I30000J0D01*
G01*
X8374300Y-6519400D02*
G75*
G03*
X8314300Y-6519400I-30000J0D01*
G01*
X9320010Y-6514541D02*
X9320010Y-6450901D01*
X9256370Y-6450901D01*
X9256370Y-6514541D01*
X9320010Y-6514541D01*
X9320010Y-6768541D02*
X9320010Y-6704901D01*
X9256370Y-6704901D01*
X9256370Y-6768541D01*
X9320010Y-6768541D01*
X8775700Y-6831800D02*
X8825700Y-6781800D01*
X8775700Y-6731800D01*
X8725700Y-6781800D01*
X8775700Y-6831800D01*
X8775700Y-7085800D02*
X8825700Y-7035800D01*
X8775700Y-6985800D01*
X8725700Y-7035800D01*
X8775700Y-7085800D01*
X10458450Y-11058200D02*
X10508450Y-11008200D01*
X10458450Y-10958200D01*
X10408450Y-11008200D01*
X10458450Y-11058200D01*
X10458450Y-11312200D02*
X10508450Y-11262200D01*
X10458450Y-11212200D01*
X10408450Y-11262200D01*
X10458450Y-11312200D01*
X10521950Y-6562560D02*
X10571950Y-6512560D01*
X10521950Y-6462560D01*
X10471950Y-6512560D01*
X10521950Y-6562560D01*
X10521950Y-6816560D02*
X10571950Y-6766560D01*
X10521950Y-6716560D01*
X10471950Y-6766560D01*
X10521950Y-6816560D01*
X7584050Y-9755750D02*
X7694050Y-9865750D01*
X7694050Y-9755750D02*
X7584050Y-9865750D01*
X7694050Y-9810750D02*
G75*
G03*
X7694050Y-9810750I-55000J0D01*
G01*
X7584050Y-10009750D02*
X7694050Y-10119750D01*
X7694050Y-10009750D02*
X7584050Y-10119750D01*
X7694050Y-10064750D02*
G75*
G03*
X7694050Y-10064750I-55000J0D01*
G01*
X7584050Y-10263750D02*
X7694050Y-10373750D01*
X7694050Y-10263750D02*
X7584050Y-10373750D01*
X7694050Y-10318750D02*
G75*
G03*
X7694050Y-10318750I-55000J0D01*
G01*
X8494640Y-8565760D02*
X8604640Y-8675760D01*
X8604640Y-8565760D02*
X8494640Y-8675760D01*
X8604640Y-8620760D02*
G75*
G03*
X8604640Y-8620760I-55000J0D01*
G01*
X8494640Y-8951840D02*
X8604640Y-9061840D01*
X8604640Y-8951840D02*
X8494640Y-9061840D01*
X8604640Y-9006840D02*
G75*
G03*
X8604640Y-9006840I-55000J0D01*
G01*
X9510640Y-8565760D02*
X9620640Y-8675760D01*
X9620640Y-8565760D02*
X9510640Y-8675760D01*
X9620640Y-8620760D02*
G75*
G03*
X9620640Y-8620760I-55000J0D01*
G01*
X9510640Y-8951840D02*
X9620640Y-9061840D01*
X9620640Y-8951840D02*
X9510640Y-9061840D01*
X9620640Y-9006840D02*
G75*
G03*
X9620640Y-9006840I-55000J0D01*
G01*
X8830000Y-10486080D02*
X8950000Y-10606080D01*
X8950000Y-10486080D02*
X8830000Y-10606080D01*
X8890000Y-10486080D02*
X8890000Y-10606080D01*
X8830000Y-10546080D02*
X8950000Y-10546080D01*
X9080000Y-10486080D02*
X9200000Y-10606080D01*
X9200000Y-10486080D02*
X9080000Y-10606080D01*
X9140000Y-10486080D02*
X9140000Y-10606080D01*
X9080000Y-10546080D02*
X9200000Y-10546080D01*
X9330000Y-10486080D02*
X9450000Y-10606080D01*
X9450000Y-10486080D02*
X9330000Y-10606080D01*
X9390000Y-10486080D02*
X9390000Y-10606080D01*
X9330000Y-10546080D02*
X9450000Y-10546080D01*
X7386250Y-9099750D02*
X7536250Y-9249750D01*
X7536250Y-9099750D02*
X7386250Y-9249750D01*
X7514283Y-9227784D02*
X7514283Y-9121717D01*
X7408216Y-9121717D01*
X7408216Y-9227784D01*
X7514283Y-9227784D01*
X7386250Y-10879750D02*
X7536250Y-11029750D01*
X7536250Y-10879750D02*
X7386250Y-11029750D01*
X7514283Y-11007784D02*
X7514283Y-10901717D01*
X7408216Y-10901717D01*
X7408216Y-11007784D01*
X7514283Y-11007784D01*
X7209800Y-7781300D02*
X7369800Y-7941300D01*
X7369800Y-7781300D02*
X7209800Y-7941300D01*
X7289800Y-7941300D02*
X7369800Y-7861300D01*
X7289800Y-7781300D01*
X7209800Y-7861300D01*
X7289800Y-7941300D01*
X9432300Y-7781300D02*
X9592300Y-7941300D01*
X9592300Y-7781300D02*
X9432300Y-7941300D01*
X9512300Y-7941300D02*
X9592300Y-7861300D01*
X9512300Y-7781300D01*
X9432300Y-7861300D01*
X9512300Y-7941300D01*
X8700000Y-9689880D02*
X8700000Y-10002280D01*
X8543800Y-9846080D02*
X8856200Y-9846080D01*
X8856200Y-9846080D02*
G75*
G03*
X8856200Y-9846080I-156200J0D01*
G01*
X9580000Y-9689880D02*
X9580000Y-10002280D01*
X9423800Y-9846080D02*
X9736200Y-9846080D01*
X9736200Y-9846080D02*
G75*
G03*
X9736200Y-9846080I-156200J0D01*
G01*
D12*
X7241028Y-12142014D02*
X7241028Y-11842014D01*
X7312457Y-11842014D01*
X7355314Y-11856300D01*
X7383886Y-11884871D01*
X7398171Y-11913443D01*
X7412457Y-11970586D01*
X7412457Y-12013443D01*
X7398171Y-12070586D01*
X7383886Y-12099157D01*
X7355314Y-12127729D01*
X7312457Y-12142014D01*
X7241028Y-12142014D01*
X7541028Y-12142014D02*
X7541028Y-11942014D01*
X7541028Y-11999157D02*
X7555314Y-11970586D01*
X7569600Y-11956300D01*
X7598171Y-11942014D01*
X7626743Y-11942014D01*
X7726743Y-12142014D02*
X7726743Y-11942014D01*
X7726743Y-11842014D02*
X7712457Y-11856300D01*
X7726743Y-11870586D01*
X7741028Y-11856300D01*
X7726743Y-11842014D01*
X7726743Y-11870586D01*
X7912457Y-12142014D02*
X7883886Y-12127729D01*
X7869600Y-12099157D01*
X7869600Y-11842014D01*
X8069600Y-12142014D02*
X8041028Y-12127729D01*
X8026743Y-12099157D01*
X8026743Y-11842014D01*
X8412457Y-12142014D02*
X8412457Y-11842014D01*
X8512457Y-12056300D01*
X8612457Y-11842014D01*
X8612457Y-12142014D01*
X8883886Y-12142014D02*
X8883886Y-11984871D01*
X8869600Y-11956300D01*
X8841028Y-11942014D01*
X8783886Y-11942014D01*
X8755314Y-11956300D01*
X8883886Y-12127729D02*
X8855314Y-12142014D01*
X8783886Y-12142014D01*
X8755314Y-12127729D01*
X8741028Y-12099157D01*
X8741028Y-12070586D01*
X8755314Y-12042014D01*
X8783886Y-12027729D01*
X8855314Y-12027729D01*
X8883886Y-12013443D01*
X9026743Y-11942014D02*
X9026743Y-12242014D01*
X9026743Y-11956300D02*
X9055314Y-11942014D01*
X9112457Y-11942014D01*
X9141028Y-11956300D01*
X9155314Y-11970586D01*
X9169600Y-11999157D01*
X9169600Y-12084871D01*
X9155314Y-12113443D01*
X9141028Y-12127729D01*
X9112457Y-12142014D01*
X9055314Y-12142014D01*
X9026743Y-12127729D01*
X9298171Y-12113443D02*
X9312457Y-12127729D01*
X9298171Y-12142014D01*
X9283886Y-12127729D01*
X9298171Y-12113443D01*
X9298171Y-12142014D01*
X9298171Y-11956300D02*
X9312457Y-11970586D01*
X9298171Y-11984871D01*
X9283886Y-11970586D01*
X9298171Y-11956300D01*
X9298171Y-11984871D01*
X6894600Y-12606300D02*
X6954600Y-12666300D01*
X6954600Y-12606300D02*
X6894600Y-12666300D01*
X7298171Y-12472014D02*
X7326743Y-12472014D01*
X7355314Y-12486300D01*
X7369600Y-12500586D01*
X7383886Y-12529157D01*
X7398171Y-12586300D01*
X7398171Y-12657729D01*
X7383886Y-12714871D01*
X7369600Y-12743443D01*
X7355314Y-12757729D01*
X7326743Y-12772014D01*
X7298171Y-12772014D01*
X7269600Y-12757729D01*
X7255314Y-12743443D01*
X7241028Y-12714871D01*
X7226743Y-12657729D01*
X7226743Y-12586300D01*
X7241028Y-12529157D01*
X7255314Y-12500586D01*
X7269600Y-12486300D01*
X7298171Y-12472014D01*
X7526743Y-12743443D02*
X7541028Y-12757729D01*
X7526743Y-12772014D01*
X7512457Y-12757729D01*
X7526743Y-12743443D01*
X7526743Y-12772014D01*
X7798171Y-12472014D02*
X7741028Y-12472014D01*
X7712457Y-12486300D01*
X7698171Y-12500586D01*
X7669600Y-12543443D01*
X7655314Y-12600586D01*
X7655314Y-12714871D01*
X7669600Y-12743443D01*
X7683886Y-12757729D01*
X7712457Y-12772014D01*
X7769600Y-12772014D01*
X7798171Y-12757729D01*
X7812457Y-12743443D01*
X7826743Y-12714871D01*
X7826743Y-12643443D01*
X7812457Y-12614871D01*
X7798171Y-12600586D01*
X7769600Y-12586300D01*
X7712457Y-12586300D01*
X7683886Y-12600586D01*
X7669600Y-12614871D01*
X7655314Y-12643443D01*
X8012457Y-12472014D02*
X8041028Y-12472014D01*
X8069600Y-12486300D01*
X8083886Y-12500586D01*
X8098171Y-12529157D01*
X8112457Y-12586300D01*
X8112457Y-12657729D01*
X8098171Y-12714871D01*
X8083886Y-12743443D01*
X8069600Y-12757729D01*
X8041028Y-12772014D01*
X8012457Y-12772014D01*
X7983886Y-12757729D01*
X7969600Y-12743443D01*
X7955314Y-12714871D01*
X7941028Y-12657729D01*
X7941028Y-12586300D01*
X7955314Y-12529157D01*
X7969600Y-12500586D01*
X7983886Y-12486300D01*
X8012457Y-12472014D01*
X8298171Y-12472014D02*
X8326743Y-12472014D01*
X8355314Y-12486300D01*
X8369600Y-12500586D01*
X8383886Y-12529157D01*
X8398171Y-12586300D01*
X8398171Y-12657729D01*
X8383886Y-12714871D01*
X8369600Y-12743443D01*
X8355314Y-12757729D01*
X8326743Y-12772014D01*
X8298171Y-12772014D01*
X8269600Y-12757729D01*
X8255314Y-12743443D01*
X8241028Y-12714871D01*
X8226743Y-12657729D01*
X8226743Y-12586300D01*
X8241028Y-12529157D01*
X8255314Y-12500586D01*
X8269600Y-12486300D01*
X8298171Y-12472014D01*
X8526743Y-12772014D02*
X8526743Y-12572014D01*
X8526743Y-12600586D02*
X8541028Y-12586300D01*
X8569600Y-12572014D01*
X8612457Y-12572014D01*
X8641028Y-12586300D01*
X8655314Y-12614871D01*
X8655314Y-12772014D01*
X8655314Y-12614871D02*
X8669600Y-12586300D01*
X8698171Y-12572014D01*
X8741028Y-12572014D01*
X8769600Y-12586300D01*
X8783886Y-12614871D01*
X8783886Y-12772014D01*
X8926743Y-12772014D02*
X8926743Y-12572014D01*
X8926743Y-12600586D02*
X8941028Y-12586300D01*
X8969600Y-12572014D01*
X9012457Y-12572014D01*
X9041028Y-12586300D01*
X9055314Y-12614871D01*
X9055314Y-12772014D01*
X9055314Y-12614871D02*
X9069600Y-12586300D01*
X9098171Y-12572014D01*
X9141028Y-12572014D01*
X9169600Y-12586300D01*
X9183886Y-12614871D01*
X9183886Y-12772014D01*
X9769600Y-12457729D02*
X9512457Y-12843443D01*
X10155314Y-12472014D02*
X10183886Y-12472014D01*
X10212457Y-12486300D01*
X10226743Y-12500586D01*
X10241028Y-12529157D01*
X10255314Y-12586300D01*
X10255314Y-12657729D01*
X10241028Y-12714871D01*
X10226743Y-12743443D01*
X10212457Y-12757729D01*
X10183886Y-12772014D01*
X10155314Y-12772014D01*
X10126743Y-12757729D01*
X10112457Y-12743443D01*
X10098171Y-12714871D01*
X10083886Y-12657729D01*
X10083886Y-12586300D01*
X10098171Y-12529157D01*
X10112457Y-12500586D01*
X10126743Y-12486300D01*
X10155314Y-12472014D01*
X10383886Y-12743443D02*
X10398171Y-12757729D01*
X10383886Y-12772014D01*
X10369600Y-12757729D01*
X10383886Y-12743443D01*
X10383886Y-12772014D01*
X10583886Y-12472014D02*
X10612457Y-12472014D01*
X10641028Y-12486300D01*
X10655314Y-12500586D01*
X10669600Y-12529157D01*
X10683886Y-12586300D01*
X10683886Y-12657729D01*
X10669600Y-12714871D01*
X10655314Y-12743443D01*
X10641028Y-12757729D01*
X10612457Y-12772014D01*
X10583886Y-12772014D01*
X10555314Y-12757729D01*
X10541028Y-12743443D01*
X10526743Y-12714871D01*
X10512457Y-12657729D01*
X10512457Y-12586300D01*
X10526743Y-12529157D01*
X10541028Y-12500586D01*
X10555314Y-12486300D01*
X10583886Y-12472014D01*
X10798171Y-12500586D02*
X10812457Y-12486300D01*
X10841028Y-12472014D01*
X10912457Y-12472014D01*
X10941028Y-12486300D01*
X10955314Y-12500586D01*
X10969600Y-12529157D01*
X10969600Y-12557729D01*
X10955314Y-12600586D01*
X10783886Y-12772014D01*
X10969600Y-12772014D01*
X11069600Y-12472014D02*
X11255314Y-12472014D01*
X11155314Y-12586300D01*
X11198171Y-12586300D01*
X11226743Y-12600586D01*
X11241028Y-12614871D01*
X11255314Y-12643443D01*
X11255314Y-12714871D01*
X11241028Y-12743443D01*
X11226743Y-12757729D01*
X11198171Y-12772014D01*
X11112457Y-12772014D01*
X11083886Y-12757729D01*
X11069600Y-12743443D01*
X11512457Y-12472014D02*
X11455314Y-12472014D01*
X11426743Y-12486300D01*
X11412457Y-12500586D01*
X11383886Y-12543443D01*
X11369600Y-12600586D01*
X11369600Y-12714871D01*
X11383886Y-12743443D01*
X11398171Y-12757729D01*
X11426743Y-12772014D01*
X11483886Y-12772014D01*
X11512457Y-12757729D01*
X11526743Y-12743443D01*
X11541028Y-12714871D01*
X11541028Y-12643443D01*
X11526743Y-12614871D01*
X11512457Y-12600586D01*
X11483886Y-12586300D01*
X11426743Y-12586300D01*
X11398171Y-12600586D01*
X11383886Y-12614871D01*
X11369600Y-12643443D01*
X11655314Y-12472014D02*
X11655314Y-12529157D01*
X11769600Y-12472014D02*
X11769600Y-12529157D01*
X12212457Y-12886300D02*
X12198171Y-12872014D01*
X12169600Y-12829157D01*
X12155314Y-12800586D01*
X12141028Y-12757729D01*
X12126743Y-12686300D01*
X12126743Y-12629157D01*
X12141028Y-12557729D01*
X12155314Y-12514871D01*
X12169600Y-12486300D01*
X12198171Y-12443443D01*
X12212457Y-12429157D01*
X12455314Y-12572014D02*
X12455314Y-12772014D01*
X12383886Y-12457729D02*
X12312457Y-12672014D01*
X12498171Y-12672014D01*
X12841028Y-12772014D02*
X12841028Y-12472014D01*
X12969600Y-12772014D02*
X12969600Y-12614871D01*
X12955314Y-12586300D01*
X12926743Y-12572014D01*
X12883886Y-12572014D01*
X12855314Y-12586300D01*
X12841028Y-12600586D01*
X13155314Y-12772014D02*
X13126743Y-12757729D01*
X13112457Y-12743443D01*
X13098171Y-12714871D01*
X13098171Y-12629157D01*
X13112457Y-12600586D01*
X13126743Y-12586300D01*
X13155314Y-12572014D01*
X13198171Y-12572014D01*
X13226743Y-12586300D01*
X13241028Y-12600586D01*
X13255314Y-12629157D01*
X13255314Y-12714871D01*
X13241028Y-12743443D01*
X13226743Y-12757729D01*
X13198171Y-12772014D01*
X13155314Y-12772014D01*
X13426743Y-12772014D02*
X13398171Y-12757729D01*
X13383886Y-12729157D01*
X13383886Y-12472014D01*
X13655314Y-12757729D02*
X13626743Y-12772014D01*
X13569600Y-12772014D01*
X13541028Y-12757729D01*
X13526743Y-12729157D01*
X13526743Y-12614871D01*
X13541028Y-12586300D01*
X13569600Y-12572014D01*
X13626743Y-12572014D01*
X13655314Y-12586300D01*
X13669600Y-12614871D01*
X13669600Y-12643443D01*
X13526743Y-12672014D01*
X13783886Y-12757729D02*
X13812457Y-12772014D01*
X13869600Y-12772014D01*
X13898171Y-12757729D01*
X13912457Y-12729157D01*
X13912457Y-12714871D01*
X13898171Y-12686300D01*
X13869600Y-12672014D01*
X13826743Y-12672014D01*
X13798171Y-12657729D01*
X13783886Y-12629157D01*
X13783886Y-12614871D01*
X13798171Y-12586300D01*
X13826743Y-12572014D01*
X13869600Y-12572014D01*
X13898171Y-12586300D01*
X14012457Y-12886300D02*
X14026743Y-12872014D01*
X14055314Y-12829157D01*
X14069600Y-12800586D01*
X14083886Y-12757729D01*
X14098171Y-12686300D01*
X14098171Y-12629157D01*
X14083886Y-12557729D01*
X14069600Y-12514871D01*
X14055314Y-12486300D01*
X14026743Y-12443443D01*
X14012457Y-12429157D01*
X6954600Y-13032300D02*
G75*
G03*
X6954600Y-13032300I-38100J0D01*
G01*
X7298171Y-12868014D02*
X7326743Y-12868014D01*
X7355314Y-12882300D01*
X7369600Y-12896586D01*
X7383886Y-12925157D01*
X7398171Y-12982300D01*
X7398171Y-13053729D01*
X7383886Y-13110871D01*
X7369600Y-13139443D01*
X7355314Y-13153729D01*
X7326743Y-13168014D01*
X7298171Y-13168014D01*
X7269600Y-13153729D01*
X7255314Y-13139443D01*
X7241028Y-13110871D01*
X7226743Y-13053729D01*
X7226743Y-12982300D01*
X7241028Y-12925157D01*
X7255314Y-12896586D01*
X7269600Y-12882300D01*
X7298171Y-12868014D01*
X7526743Y-13139443D02*
X7541028Y-13153729D01*
X7526743Y-13168014D01*
X7512457Y-13153729D01*
X7526743Y-13139443D01*
X7526743Y-13168014D01*
X7641028Y-12868014D02*
X7841028Y-12868014D01*
X7712457Y-13168014D01*
X8083886Y-12868014D02*
X8026743Y-12868014D01*
X7998171Y-12882300D01*
X7983886Y-12896586D01*
X7955314Y-12939443D01*
X7941028Y-12996586D01*
X7941028Y-13110871D01*
X7955314Y-13139443D01*
X7969600Y-13153729D01*
X7998171Y-13168014D01*
X8055314Y-13168014D01*
X8083886Y-13153729D01*
X8098171Y-13139443D01*
X8112457Y-13110871D01*
X8112457Y-13039443D01*
X8098171Y-13010871D01*
X8083886Y-12996586D01*
X8055314Y-12982300D01*
X7998171Y-12982300D01*
X7969600Y-12996586D01*
X7955314Y-13010871D01*
X7941028Y-13039443D01*
X8226743Y-12896586D02*
X8241028Y-12882300D01*
X8269600Y-12868014D01*
X8341028Y-12868014D01*
X8369600Y-12882300D01*
X8383886Y-12896586D01*
X8398171Y-12925157D01*
X8398171Y-12953729D01*
X8383886Y-12996586D01*
X8212457Y-13168014D01*
X8398171Y-13168014D01*
X8526743Y-13168014D02*
X8526743Y-12968014D01*
X8526743Y-12996586D02*
X8541028Y-12982300D01*
X8569600Y-12968014D01*
X8612457Y-12968014D01*
X8641028Y-12982300D01*
X8655314Y-13010871D01*
X8655314Y-13168014D01*
X8655314Y-13010871D02*
X8669600Y-12982300D01*
X8698171Y-12968014D01*
X8741028Y-12968014D01*
X8769600Y-12982300D01*
X8783886Y-13010871D01*
X8783886Y-13168014D01*
X8926743Y-13168014D02*
X8926743Y-12968014D01*
X8926743Y-12996586D02*
X8941028Y-12982300D01*
X8969600Y-12968014D01*
X9012457Y-12968014D01*
X9041028Y-12982300D01*
X9055314Y-13010871D01*
X9055314Y-13168014D01*
X9055314Y-13010871D02*
X9069600Y-12982300D01*
X9098171Y-12968014D01*
X9141028Y-12968014D01*
X9169600Y-12982300D01*
X9183886Y-13010871D01*
X9183886Y-13168014D01*
X9769600Y-12853729D02*
X9512457Y-13239443D01*
X10155314Y-12868014D02*
X10183886Y-12868014D01*
X10212457Y-12882300D01*
X10226743Y-12896586D01*
X10241028Y-12925157D01*
X10255314Y-12982300D01*
X10255314Y-13053729D01*
X10241028Y-13110871D01*
X10226743Y-13139443D01*
X10212457Y-13153729D01*
X10183886Y-13168014D01*
X10155314Y-13168014D01*
X10126743Y-13153729D01*
X10112457Y-13139443D01*
X10098171Y-13110871D01*
X10083886Y-13053729D01*
X10083886Y-12982300D01*
X10098171Y-12925157D01*
X10112457Y-12896586D01*
X10126743Y-12882300D01*
X10155314Y-12868014D01*
X10383886Y-13139443D02*
X10398171Y-13153729D01*
X10383886Y-13168014D01*
X10369600Y-13153729D01*
X10383886Y-13139443D01*
X10383886Y-13168014D01*
X10583886Y-12868014D02*
X10612457Y-12868014D01*
X10641028Y-12882300D01*
X10655314Y-12896586D01*
X10669600Y-12925157D01*
X10683886Y-12982300D01*
X10683886Y-13053729D01*
X10669600Y-13110871D01*
X10655314Y-13139443D01*
X10641028Y-13153729D01*
X10612457Y-13168014D01*
X10583886Y-13168014D01*
X10555314Y-13153729D01*
X10541028Y-13139443D01*
X10526743Y-13110871D01*
X10512457Y-13053729D01*
X10512457Y-12982300D01*
X10526743Y-12925157D01*
X10541028Y-12896586D01*
X10555314Y-12882300D01*
X10583886Y-12868014D01*
X10783886Y-12868014D02*
X10969600Y-12868014D01*
X10869600Y-12982300D01*
X10912457Y-12982300D01*
X10941028Y-12996586D01*
X10955314Y-13010871D01*
X10969600Y-13039443D01*
X10969600Y-13110871D01*
X10955314Y-13139443D01*
X10941028Y-13153729D01*
X10912457Y-13168014D01*
X10826743Y-13168014D01*
X10798171Y-13153729D01*
X10783886Y-13139443D01*
X11155314Y-12868014D02*
X11183886Y-12868014D01*
X11212457Y-12882300D01*
X11226743Y-12896586D01*
X11241028Y-12925157D01*
X11255314Y-12982300D01*
X11255314Y-13053729D01*
X11241028Y-13110871D01*
X11226743Y-13139443D01*
X11212457Y-13153729D01*
X11183886Y-13168014D01*
X11155314Y-13168014D01*
X11126743Y-13153729D01*
X11112457Y-13139443D01*
X11098171Y-13110871D01*
X11083886Y-13053729D01*
X11083886Y-12982300D01*
X11098171Y-12925157D01*
X11112457Y-12896586D01*
X11126743Y-12882300D01*
X11155314Y-12868014D01*
X11441028Y-12868014D02*
X11469600Y-12868014D01*
X11498171Y-12882300D01*
X11512457Y-12896586D01*
X11526743Y-12925157D01*
X11541028Y-12982300D01*
X11541028Y-13053729D01*
X11526743Y-13110871D01*
X11512457Y-13139443D01*
X11498171Y-13153729D01*
X11469600Y-13168014D01*
X11441028Y-13168014D01*
X11412457Y-13153729D01*
X11398171Y-13139443D01*
X11383886Y-13110871D01*
X11369600Y-13053729D01*
X11369600Y-12982300D01*
X11383886Y-12925157D01*
X11398171Y-12896586D01*
X11412457Y-12882300D01*
X11441028Y-12868014D01*
X11655314Y-12868014D02*
X11655314Y-12925157D01*
X11769600Y-12868014D02*
X11769600Y-12925157D01*
X12212457Y-13282300D02*
X12198171Y-13268014D01*
X12169600Y-13225157D01*
X12155314Y-13196586D01*
X12141028Y-13153729D01*
X12126743Y-13082300D01*
X12126743Y-13025157D01*
X12141028Y-12953729D01*
X12155314Y-12910871D01*
X12169600Y-12882300D01*
X12198171Y-12839443D01*
X12212457Y-12825157D01*
X12312457Y-12896586D02*
X12326743Y-12882300D01*
X12355314Y-12868014D01*
X12426743Y-12868014D01*
X12455314Y-12882300D01*
X12469600Y-12896586D01*
X12483886Y-12925157D01*
X12483886Y-12953729D01*
X12469600Y-12996586D01*
X12298171Y-13168014D01*
X12483886Y-13168014D01*
X12841028Y-13168014D02*
X12841028Y-12868014D01*
X12969600Y-13168014D02*
X12969600Y-13010871D01*
X12955314Y-12982300D01*
X12926743Y-12968014D01*
X12883886Y-12968014D01*
X12855314Y-12982300D01*
X12841028Y-12996586D01*
X13155314Y-13168014D02*
X13126743Y-13153729D01*
X13112457Y-13139443D01*
X13098171Y-13110871D01*
X13098171Y-13025157D01*
X13112457Y-12996586D01*
X13126743Y-12982300D01*
X13155314Y-12968014D01*
X13198171Y-12968014D01*
X13226743Y-12982300D01*
X13241028Y-12996586D01*
X13255314Y-13025157D01*
X13255314Y-13110871D01*
X13241028Y-13139443D01*
X13226743Y-13153729D01*
X13198171Y-13168014D01*
X13155314Y-13168014D01*
X13426743Y-13168014D02*
X13398171Y-13153729D01*
X13383886Y-13125157D01*
X13383886Y-12868014D01*
X13655314Y-13153729D02*
X13626743Y-13168014D01*
X13569600Y-13168014D01*
X13541028Y-13153729D01*
X13526743Y-13125157D01*
X13526743Y-13010871D01*
X13541028Y-12982300D01*
X13569600Y-12968014D01*
X13626743Y-12968014D01*
X13655314Y-12982300D01*
X13669600Y-13010871D01*
X13669600Y-13039443D01*
X13526743Y-13068014D01*
X13783886Y-13153729D02*
X13812457Y-13168014D01*
X13869600Y-13168014D01*
X13898171Y-13153729D01*
X13912457Y-13125157D01*
X13912457Y-13110871D01*
X13898171Y-13082300D01*
X13869600Y-13068014D01*
X13826743Y-13068014D01*
X13798171Y-13053729D01*
X13783886Y-13025157D01*
X13783886Y-13010871D01*
X13798171Y-12982300D01*
X13826743Y-12968014D01*
X13869600Y-12968014D01*
X13898171Y-12982300D01*
X14012457Y-13282300D02*
X14026743Y-13268014D01*
X14055314Y-13225157D01*
X14069600Y-13196586D01*
X14083886Y-13153729D01*
X14098171Y-13082300D01*
X14098171Y-13025157D01*
X14083886Y-12953729D01*
X14069600Y-12910871D01*
X14055314Y-12882300D01*
X14026743Y-12839443D01*
X14012457Y-12825157D01*
X6914600Y-13388300D02*
X6914600Y-13468300D01*
X6874600Y-13428300D02*
X6954600Y-13428300D01*
X7298171Y-13264014D02*
X7326743Y-13264014D01*
X7355314Y-13278300D01*
X7369600Y-13292586D01*
X7383886Y-13321157D01*
X7398171Y-13378300D01*
X7398171Y-13449729D01*
X7383886Y-13506871D01*
X7369600Y-13535443D01*
X7355314Y-13549729D01*
X7326743Y-13564014D01*
X7298171Y-13564014D01*
X7269600Y-13549729D01*
X7255314Y-13535443D01*
X7241028Y-13506871D01*
X7226743Y-13449729D01*
X7226743Y-13378300D01*
X7241028Y-13321157D01*
X7255314Y-13292586D01*
X7269600Y-13278300D01*
X7298171Y-13264014D01*
X7526743Y-13535443D02*
X7541028Y-13549729D01*
X7526743Y-13564014D01*
X7512457Y-13549729D01*
X7526743Y-13535443D01*
X7526743Y-13564014D01*
X7712457Y-13392586D02*
X7683886Y-13378300D01*
X7669600Y-13364014D01*
X7655314Y-13335443D01*
X7655314Y-13321157D01*
X7669600Y-13292586D01*
X7683886Y-13278300D01*
X7712457Y-13264014D01*
X7769600Y-13264014D01*
X7798171Y-13278300D01*
X7812457Y-13292586D01*
X7826743Y-13321157D01*
X7826743Y-13335443D01*
X7812457Y-13364014D01*
X7798171Y-13378300D01*
X7769600Y-13392586D01*
X7712457Y-13392586D01*
X7683886Y-13406871D01*
X7669600Y-13421157D01*
X7655314Y-13449729D01*
X7655314Y-13506871D01*
X7669600Y-13535443D01*
X7683886Y-13549729D01*
X7712457Y-13564014D01*
X7769600Y-13564014D01*
X7798171Y-13549729D01*
X7812457Y-13535443D01*
X7826743Y-13506871D01*
X7826743Y-13449729D01*
X7812457Y-13421157D01*
X7798171Y-13406871D01*
X7769600Y-13392586D01*
X8012457Y-13264014D02*
X8041028Y-13264014D01*
X8069600Y-13278300D01*
X8083886Y-13292586D01*
X8098171Y-13321157D01*
X8112457Y-13378300D01*
X8112457Y-13449729D01*
X8098171Y-13506871D01*
X8083886Y-13535443D01*
X8069600Y-13549729D01*
X8041028Y-13564014D01*
X8012457Y-13564014D01*
X7983886Y-13549729D01*
X7969600Y-13535443D01*
X7955314Y-13506871D01*
X7941028Y-13449729D01*
X7941028Y-13378300D01*
X7955314Y-13321157D01*
X7969600Y-13292586D01*
X7983886Y-13278300D01*
X8012457Y-13264014D01*
X8298171Y-13264014D02*
X8326743Y-13264014D01*
X8355314Y-13278300D01*
X8369600Y-13292586D01*
X8383886Y-13321157D01*
X8398171Y-13378300D01*
X8398171Y-13449729D01*
X8383886Y-13506871D01*
X8369600Y-13535443D01*
X8355314Y-13549729D01*
X8326743Y-13564014D01*
X8298171Y-13564014D01*
X8269600Y-13549729D01*
X8255314Y-13535443D01*
X8241028Y-13506871D01*
X8226743Y-13449729D01*
X8226743Y-13378300D01*
X8241028Y-13321157D01*
X8255314Y-13292586D01*
X8269600Y-13278300D01*
X8298171Y-13264014D01*
X8526743Y-13564014D02*
X8526743Y-13364014D01*
X8526743Y-13392586D02*
X8541028Y-13378300D01*
X8569600Y-13364014D01*
X8612457Y-13364014D01*
X8641028Y-13378300D01*
X8655314Y-13406871D01*
X8655314Y-13564014D01*
X8655314Y-13406871D02*
X8669600Y-13378300D01*
X8698171Y-13364014D01*
X8741028Y-13364014D01*
X8769600Y-13378300D01*
X8783886Y-13406871D01*
X8783886Y-13564014D01*
X8926743Y-13564014D02*
X8926743Y-13364014D01*
X8926743Y-13392586D02*
X8941028Y-13378300D01*
X8969600Y-13364014D01*
X9012457Y-13364014D01*
X9041028Y-13378300D01*
X9055314Y-13406871D01*
X9055314Y-13564014D01*
X9055314Y-13406871D02*
X9069600Y-13378300D01*
X9098171Y-13364014D01*
X9141028Y-13364014D01*
X9169600Y-13378300D01*
X9183886Y-13406871D01*
X9183886Y-13564014D01*
X9769600Y-13249729D02*
X9512457Y-13635443D01*
X10155314Y-13264014D02*
X10183886Y-13264014D01*
X10212457Y-13278300D01*
X10226743Y-13292586D01*
X10241028Y-13321157D01*
X10255314Y-13378300D01*
X10255314Y-13449729D01*
X10241028Y-13506871D01*
X10226743Y-13535443D01*
X10212457Y-13549729D01*
X10183886Y-13564014D01*
X10155314Y-13564014D01*
X10126743Y-13549729D01*
X10112457Y-13535443D01*
X10098171Y-13506871D01*
X10083886Y-13449729D01*
X10083886Y-13378300D01*
X10098171Y-13321157D01*
X10112457Y-13292586D01*
X10126743Y-13278300D01*
X10155314Y-13264014D01*
X10383886Y-13535443D02*
X10398171Y-13549729D01*
X10383886Y-13564014D01*
X10369600Y-13549729D01*
X10383886Y-13535443D01*
X10383886Y-13564014D01*
X10583886Y-13264014D02*
X10612457Y-13264014D01*
X10641028Y-13278300D01*
X10655314Y-13292586D01*
X10669600Y-13321157D01*
X10683886Y-13378300D01*
X10683886Y-13449729D01*
X10669600Y-13506871D01*
X10655314Y-13535443D01*
X10641028Y-13549729D01*
X10612457Y-13564014D01*
X10583886Y-13564014D01*
X10555314Y-13549729D01*
X10541028Y-13535443D01*
X10526743Y-13506871D01*
X10512457Y-13449729D01*
X10512457Y-13378300D01*
X10526743Y-13321157D01*
X10541028Y-13292586D01*
X10555314Y-13278300D01*
X10583886Y-13264014D01*
X10783886Y-13264014D02*
X10969600Y-13264014D01*
X10869600Y-13378300D01*
X10912457Y-13378300D01*
X10941028Y-13392586D01*
X10955314Y-13406871D01*
X10969600Y-13435443D01*
X10969600Y-13506871D01*
X10955314Y-13535443D01*
X10941028Y-13549729D01*
X10912457Y-13564014D01*
X10826743Y-13564014D01*
X10798171Y-13549729D01*
X10783886Y-13535443D01*
X11255314Y-13564014D02*
X11083886Y-13564014D01*
X11169600Y-13564014D02*
X11169600Y-13264014D01*
X11141028Y-13306871D01*
X11112457Y-13335443D01*
X11083886Y-13349729D01*
X11526743Y-13264014D02*
X11383886Y-13264014D01*
X11369600Y-13406871D01*
X11383886Y-13392586D01*
X11412457Y-13378300D01*
X11483886Y-13378300D01*
X11512457Y-13392586D01*
X11526743Y-13406871D01*
X11541028Y-13435443D01*
X11541028Y-13506871D01*
X11526743Y-13535443D01*
X11512457Y-13549729D01*
X11483886Y-13564014D01*
X11412457Y-13564014D01*
X11383886Y-13549729D01*
X11369600Y-13535443D01*
X11655314Y-13264014D02*
X11655314Y-13321157D01*
X11769600Y-13264014D02*
X11769600Y-13321157D01*
X12212457Y-13678300D02*
X12198171Y-13664014D01*
X12169600Y-13621157D01*
X12155314Y-13592586D01*
X12141028Y-13549729D01*
X12126743Y-13478300D01*
X12126743Y-13421157D01*
X12141028Y-13349729D01*
X12155314Y-13306871D01*
X12169600Y-13278300D01*
X12198171Y-13235443D01*
X12212457Y-13221157D01*
X12383886Y-13264014D02*
X12412457Y-13264014D01*
X12441028Y-13278300D01*
X12455314Y-13292586D01*
X12469600Y-13321157D01*
X12483886Y-13378300D01*
X12483886Y-13449729D01*
X12469600Y-13506871D01*
X12455314Y-13535443D01*
X12441028Y-13549729D01*
X12412457Y-13564014D01*
X12383886Y-13564014D01*
X12355314Y-13549729D01*
X12341028Y-13535443D01*
X12326743Y-13506871D01*
X12312457Y-13449729D01*
X12312457Y-13378300D01*
X12326743Y-13321157D01*
X12341028Y-13292586D01*
X12355314Y-13278300D01*
X12383886Y-13264014D01*
X12841028Y-13564014D02*
X12841028Y-13264014D01*
X12969600Y-13564014D02*
X12969600Y-13406871D01*
X12955314Y-13378300D01*
X12926743Y-13364014D01*
X12883886Y-13364014D01*
X12855314Y-13378300D01*
X12841028Y-13392586D01*
X13155314Y-13564014D02*
X13126743Y-13549729D01*
X13112457Y-13535443D01*
X13098171Y-13506871D01*
X13098171Y-13421157D01*
X13112457Y-13392586D01*
X13126743Y-13378300D01*
X13155314Y-13364014D01*
X13198171Y-13364014D01*
X13226743Y-13378300D01*
X13241028Y-13392586D01*
X13255314Y-13421157D01*
X13255314Y-13506871D01*
X13241028Y-13535443D01*
X13226743Y-13549729D01*
X13198171Y-13564014D01*
X13155314Y-13564014D01*
X13426743Y-13564014D02*
X13398171Y-13549729D01*
X13383886Y-13521157D01*
X13383886Y-13264014D01*
X13655314Y-13549729D02*
X13626743Y-13564014D01*
X13569600Y-13564014D01*
X13541028Y-13549729D01*
X13526743Y-13521157D01*
X13526743Y-13406871D01*
X13541028Y-13378300D01*
X13569600Y-13364014D01*
X13626743Y-13364014D01*
X13655314Y-13378300D01*
X13669600Y-13406871D01*
X13669600Y-13435443D01*
X13526743Y-13464014D01*
X13783886Y-13549729D02*
X13812457Y-13564014D01*
X13869600Y-13564014D01*
X13898171Y-13549729D01*
X13912457Y-13521157D01*
X13912457Y-13506871D01*
X13898171Y-13478300D01*
X13869600Y-13464014D01*
X13826743Y-13464014D01*
X13798171Y-13449729D01*
X13783886Y-13421157D01*
X13783886Y-13406871D01*
X13798171Y-13378300D01*
X13826743Y-13364014D01*
X13869600Y-13364014D01*
X13898171Y-13378300D01*
X14269600Y-13449729D02*
X14498171Y-13449729D01*
X14383886Y-13564014D02*
X14383886Y-13335443D01*
X14841028Y-13264014D02*
X15026743Y-13264014D01*
X14926743Y-13378300D01*
X14969600Y-13378300D01*
X14998171Y-13392586D01*
X15012457Y-13406871D01*
X15026743Y-13435443D01*
X15026743Y-13506871D01*
X15012457Y-13535443D01*
X14998171Y-13549729D01*
X14969600Y-13564014D01*
X14883886Y-13564014D01*
X14855314Y-13549729D01*
X14841028Y-13535443D01*
X15369600Y-13549729D02*
X15398171Y-13564014D01*
X15455314Y-13564014D01*
X15483886Y-13549729D01*
X15498171Y-13521157D01*
X15498171Y-13506871D01*
X15483886Y-13478300D01*
X15455314Y-13464014D01*
X15412457Y-13464014D01*
X15383886Y-13449729D01*
X15369600Y-13421157D01*
X15369600Y-13406871D01*
X15383886Y-13378300D01*
X15412457Y-13364014D01*
X15455314Y-13364014D01*
X15483886Y-13378300D01*
X15669600Y-13564014D02*
X15641028Y-13549729D01*
X15626743Y-13521157D01*
X15626743Y-13264014D01*
X15826743Y-13564014D02*
X15798171Y-13549729D01*
X15783886Y-13535443D01*
X15769600Y-13506871D01*
X15769600Y-13421157D01*
X15783886Y-13392586D01*
X15798171Y-13378300D01*
X15826743Y-13364014D01*
X15869600Y-13364014D01*
X15898171Y-13378300D01*
X15912457Y-13392586D01*
X15926743Y-13421157D01*
X15926743Y-13506871D01*
X15912457Y-13535443D01*
X15898171Y-13549729D01*
X15869600Y-13564014D01*
X15826743Y-13564014D01*
X16012457Y-13364014D02*
X16126743Y-13364014D01*
X16055314Y-13264014D02*
X16055314Y-13521157D01*
X16069600Y-13549729D01*
X16098171Y-13564014D01*
X16126743Y-13564014D01*
X16212457Y-13549729D02*
X16241028Y-13564014D01*
X16298171Y-13564014D01*
X16326743Y-13549729D01*
X16341028Y-13521157D01*
X16341028Y-13506871D01*
X16326743Y-13478300D01*
X16298171Y-13464014D01*
X16255314Y-13464014D01*
X16226743Y-13449729D01*
X16212457Y-13421157D01*
X16212457Y-13406871D01*
X16226743Y-13378300D01*
X16255314Y-13364014D01*
X16298171Y-13364014D01*
X16326743Y-13378300D01*
X16441028Y-13678300D02*
X16455314Y-13664014D01*
X16483886Y-13621157D01*
X16498171Y-13592586D01*
X16512457Y-13549729D01*
X16526743Y-13478300D01*
X16526743Y-13421157D01*
X16512457Y-13349729D01*
X16498171Y-13306871D01*
X16483886Y-13278300D01*
X16455314Y-13235443D01*
X16441028Y-13221157D01*
X6941420Y-13856120D02*
X6941420Y-13792480D01*
X6877780Y-13792480D01*
X6877780Y-13856120D01*
X6941420Y-13856120D01*
X7298171Y-13660014D02*
X7326743Y-13660014D01*
X7355314Y-13674300D01*
X7369600Y-13688586D01*
X7383886Y-13717157D01*
X7398171Y-13774300D01*
X7398171Y-13845729D01*
X7383886Y-13902871D01*
X7369600Y-13931443D01*
X7355314Y-13945729D01*
X7326743Y-13960014D01*
X7298171Y-13960014D01*
X7269600Y-13945729D01*
X7255314Y-13931443D01*
X7241028Y-13902871D01*
X7226743Y-13845729D01*
X7226743Y-13774300D01*
X7241028Y-13717157D01*
X7255314Y-13688586D01*
X7269600Y-13674300D01*
X7298171Y-13660014D01*
X7526743Y-13931443D02*
X7541028Y-13945729D01*
X7526743Y-13960014D01*
X7512457Y-13945729D01*
X7526743Y-13931443D01*
X7526743Y-13960014D01*
X7683886Y-13960014D02*
X7741028Y-13960014D01*
X7769600Y-13945729D01*
X7783886Y-13931443D01*
X7812457Y-13888586D01*
X7826743Y-13831443D01*
X7826743Y-13717157D01*
X7812457Y-13688586D01*
X7798171Y-13674300D01*
X7769600Y-13660014D01*
X7712457Y-13660014D01*
X7683886Y-13674300D01*
X7669600Y-13688586D01*
X7655314Y-13717157D01*
X7655314Y-13788586D01*
X7669600Y-13817157D01*
X7683886Y-13831443D01*
X7712457Y-13845729D01*
X7769600Y-13845729D01*
X7798171Y-13831443D01*
X7812457Y-13817157D01*
X7826743Y-13788586D01*
X8012457Y-13660014D02*
X8041028Y-13660014D01*
X8069600Y-13674300D01*
X8083886Y-13688586D01*
X8098171Y-13717157D01*
X8112457Y-13774300D01*
X8112457Y-13845729D01*
X8098171Y-13902871D01*
X8083886Y-13931443D01*
X8069600Y-13945729D01*
X8041028Y-13960014D01*
X8012457Y-13960014D01*
X7983886Y-13945729D01*
X7969600Y-13931443D01*
X7955314Y-13902871D01*
X7941028Y-13845729D01*
X7941028Y-13774300D01*
X7955314Y-13717157D01*
X7969600Y-13688586D01*
X7983886Y-13674300D01*
X8012457Y-13660014D01*
X8298171Y-13660014D02*
X8326743Y-13660014D01*
X8355314Y-13674300D01*
X8369600Y-13688586D01*
X8383886Y-13717157D01*
X8398171Y-13774300D01*
X8398171Y-13845729D01*
X8383886Y-13902871D01*
X8369600Y-13931443D01*
X8355314Y-13945729D01*
X8326743Y-13960014D01*
X8298171Y-13960014D01*
X8269600Y-13945729D01*
X8255314Y-13931443D01*
X8241028Y-13902871D01*
X8226743Y-13845729D01*
X8226743Y-13774300D01*
X8241028Y-13717157D01*
X8255314Y-13688586D01*
X8269600Y-13674300D01*
X8298171Y-13660014D01*
X8526743Y-13960014D02*
X8526743Y-13760014D01*
X8526743Y-13788586D02*
X8541028Y-13774300D01*
X8569600Y-13760014D01*
X8612457Y-13760014D01*
X8641028Y-13774300D01*
X8655314Y-13802871D01*
X8655314Y-13960014D01*
X8655314Y-13802871D02*
X8669600Y-13774300D01*
X8698171Y-13760014D01*
X8741028Y-13760014D01*
X8769600Y-13774300D01*
X8783886Y-13802871D01*
X8783886Y-13960014D01*
X8926743Y-13960014D02*
X8926743Y-13760014D01*
X8926743Y-13788586D02*
X8941028Y-13774300D01*
X8969600Y-13760014D01*
X9012457Y-13760014D01*
X9041028Y-13774300D01*
X9055314Y-13802871D01*
X9055314Y-13960014D01*
X9055314Y-13802871D02*
X9069600Y-13774300D01*
X9098171Y-13760014D01*
X9141028Y-13760014D01*
X9169600Y-13774300D01*
X9183886Y-13802871D01*
X9183886Y-13960014D01*
X9769600Y-13645729D02*
X9512457Y-14031443D01*
X10155314Y-13660014D02*
X10183886Y-13660014D01*
X10212457Y-13674300D01*
X10226743Y-13688586D01*
X10241028Y-13717157D01*
X10255314Y-13774300D01*
X10255314Y-13845729D01*
X10241028Y-13902871D01*
X10226743Y-13931443D01*
X10212457Y-13945729D01*
X10183886Y-13960014D01*
X10155314Y-13960014D01*
X10126743Y-13945729D01*
X10112457Y-13931443D01*
X10098171Y-13902871D01*
X10083886Y-13845729D01*
X10083886Y-13774300D01*
X10098171Y-13717157D01*
X10112457Y-13688586D01*
X10126743Y-13674300D01*
X10155314Y-13660014D01*
X10383886Y-13931443D02*
X10398171Y-13945729D01*
X10383886Y-13960014D01*
X10369600Y-13945729D01*
X10383886Y-13931443D01*
X10383886Y-13960014D01*
X10583886Y-13660014D02*
X10612457Y-13660014D01*
X10641028Y-13674300D01*
X10655314Y-13688586D01*
X10669600Y-13717157D01*
X10683886Y-13774300D01*
X10683886Y-13845729D01*
X10669600Y-13902871D01*
X10655314Y-13931443D01*
X10641028Y-13945729D01*
X10612457Y-13960014D01*
X10583886Y-13960014D01*
X10555314Y-13945729D01*
X10541028Y-13931443D01*
X10526743Y-13902871D01*
X10512457Y-13845729D01*
X10512457Y-13774300D01*
X10526743Y-13717157D01*
X10541028Y-13688586D01*
X10555314Y-13674300D01*
X10583886Y-13660014D01*
X10783886Y-13660014D02*
X10969600Y-13660014D01*
X10869600Y-13774300D01*
X10912457Y-13774300D01*
X10941028Y-13788586D01*
X10955314Y-13802871D01*
X10969600Y-13831443D01*
X10969600Y-13902871D01*
X10955314Y-13931443D01*
X10941028Y-13945729D01*
X10912457Y-13960014D01*
X10826743Y-13960014D01*
X10798171Y-13945729D01*
X10783886Y-13931443D01*
X11241028Y-13660014D02*
X11098171Y-13660014D01*
X11083886Y-13802871D01*
X11098171Y-13788586D01*
X11126743Y-13774300D01*
X11198171Y-13774300D01*
X11226743Y-13788586D01*
X11241028Y-13802871D01*
X11255314Y-13831443D01*
X11255314Y-13902871D01*
X11241028Y-13931443D01*
X11226743Y-13945729D01*
X11198171Y-13960014D01*
X11126743Y-13960014D01*
X11098171Y-13945729D01*
X11083886Y-13931443D01*
X11512457Y-13760014D02*
X11512457Y-13960014D01*
X11441028Y-13645729D02*
X11369600Y-13860014D01*
X11555314Y-13860014D01*
X11655314Y-13660014D02*
X11655314Y-13717157D01*
X11769600Y-13660014D02*
X11769600Y-13717157D01*
X12212457Y-14074300D02*
X12198171Y-14060014D01*
X12169600Y-14017157D01*
X12155314Y-13988586D01*
X12141028Y-13945729D01*
X12126743Y-13874300D01*
X12126743Y-13817157D01*
X12141028Y-13745729D01*
X12155314Y-13702871D01*
X12169600Y-13674300D01*
X12198171Y-13631443D01*
X12212457Y-13617157D01*
X12312457Y-13688586D02*
X12326743Y-13674300D01*
X12355314Y-13660014D01*
X12426743Y-13660014D01*
X12455314Y-13674300D01*
X12469600Y-13688586D01*
X12483886Y-13717157D01*
X12483886Y-13745729D01*
X12469600Y-13788586D01*
X12298171Y-13960014D01*
X12483886Y-13960014D01*
X12841028Y-13960014D02*
X12841028Y-13660014D01*
X12969600Y-13960014D02*
X12969600Y-13802871D01*
X12955314Y-13774300D01*
X12926743Y-13760014D01*
X12883886Y-13760014D01*
X12855314Y-13774300D01*
X12841028Y-13788586D01*
X13155314Y-13960014D02*
X13126743Y-13945729D01*
X13112457Y-13931443D01*
X13098171Y-13902871D01*
X13098171Y-13817157D01*
X13112457Y-13788586D01*
X13126743Y-13774300D01*
X13155314Y-13760014D01*
X13198171Y-13760014D01*
X13226743Y-13774300D01*
X13241028Y-13788586D01*
X13255314Y-13817157D01*
X13255314Y-13902871D01*
X13241028Y-13931443D01*
X13226743Y-13945729D01*
X13198171Y-13960014D01*
X13155314Y-13960014D01*
X13426743Y-13960014D02*
X13398171Y-13945729D01*
X13383886Y-13917157D01*
X13383886Y-13660014D01*
X13655314Y-13945729D02*
X13626743Y-13960014D01*
X13569600Y-13960014D01*
X13541028Y-13945729D01*
X13526743Y-13917157D01*
X13526743Y-13802871D01*
X13541028Y-13774300D01*
X13569600Y-13760014D01*
X13626743Y-13760014D01*
X13655314Y-13774300D01*
X13669600Y-13802871D01*
X13669600Y-13831443D01*
X13526743Y-13860014D01*
X13783886Y-13945729D02*
X13812457Y-13960014D01*
X13869600Y-13960014D01*
X13898171Y-13945729D01*
X13912457Y-13917157D01*
X13912457Y-13902871D01*
X13898171Y-13874300D01*
X13869600Y-13860014D01*
X13826743Y-13860014D01*
X13798171Y-13845729D01*
X13783886Y-13817157D01*
X13783886Y-13802871D01*
X13798171Y-13774300D01*
X13826743Y-13760014D01*
X13869600Y-13760014D01*
X13898171Y-13774300D01*
X14012457Y-14074300D02*
X14026743Y-14060014D01*
X14055314Y-14017157D01*
X14069600Y-13988586D01*
X14083886Y-13945729D01*
X14098171Y-13874300D01*
X14098171Y-13817157D01*
X14083886Y-13745729D01*
X14069600Y-13702871D01*
X14055314Y-13674300D01*
X14026743Y-13631443D01*
X14012457Y-13617157D01*
X6904600Y-14270300D02*
X6954600Y-14220300D01*
X6904600Y-14170300D01*
X6854600Y-14220300D01*
X6904600Y-14270300D01*
X7398171Y-14356014D02*
X7226743Y-14356014D01*
X7312457Y-14356014D02*
X7312457Y-14056014D01*
X7283886Y-14098871D01*
X7255314Y-14127443D01*
X7226743Y-14141729D01*
X7526743Y-14327443D02*
X7541028Y-14341729D01*
X7526743Y-14356014D01*
X7512457Y-14341729D01*
X7526743Y-14327443D01*
X7526743Y-14356014D01*
X7726743Y-14056014D02*
X7755314Y-14056014D01*
X7783886Y-14070300D01*
X7798171Y-14084586D01*
X7812457Y-14113157D01*
X7826743Y-14170300D01*
X7826743Y-14241729D01*
X7812457Y-14298871D01*
X7798171Y-14327443D01*
X7783886Y-14341729D01*
X7755314Y-14356014D01*
X7726743Y-14356014D01*
X7698171Y-14341729D01*
X7683886Y-14327443D01*
X7669600Y-14298871D01*
X7655314Y-14241729D01*
X7655314Y-14170300D01*
X7669600Y-14113157D01*
X7683886Y-14084586D01*
X7698171Y-14070300D01*
X7726743Y-14056014D01*
X8012457Y-14056014D02*
X8041028Y-14056014D01*
X8069600Y-14070300D01*
X8083886Y-14084586D01*
X8098171Y-14113157D01*
X8112457Y-14170300D01*
X8112457Y-14241729D01*
X8098171Y-14298871D01*
X8083886Y-14327443D01*
X8069600Y-14341729D01*
X8041028Y-14356014D01*
X8012457Y-14356014D01*
X7983886Y-14341729D01*
X7969600Y-14327443D01*
X7955314Y-14298871D01*
X7941028Y-14241729D01*
X7941028Y-14170300D01*
X7955314Y-14113157D01*
X7969600Y-14084586D01*
X7983886Y-14070300D01*
X8012457Y-14056014D01*
X8298171Y-14056014D02*
X8326743Y-14056014D01*
X8355314Y-14070300D01*
X8369600Y-14084586D01*
X8383886Y-14113157D01*
X8398171Y-14170300D01*
X8398171Y-14241729D01*
X8383886Y-14298871D01*
X8369600Y-14327443D01*
X8355314Y-14341729D01*
X8326743Y-14356014D01*
X8298171Y-14356014D01*
X8269600Y-14341729D01*
X8255314Y-14327443D01*
X8241028Y-14298871D01*
X8226743Y-14241729D01*
X8226743Y-14170300D01*
X8241028Y-14113157D01*
X8255314Y-14084586D01*
X8269600Y-14070300D01*
X8298171Y-14056014D01*
X8526743Y-14356014D02*
X8526743Y-14156014D01*
X8526743Y-14184586D02*
X8541028Y-14170300D01*
X8569600Y-14156014D01*
X8612457Y-14156014D01*
X8641028Y-14170300D01*
X8655314Y-14198871D01*
X8655314Y-14356014D01*
X8655314Y-14198871D02*
X8669600Y-14170300D01*
X8698171Y-14156014D01*
X8741028Y-14156014D01*
X8769600Y-14170300D01*
X8783886Y-14198871D01*
X8783886Y-14356014D01*
X8926743Y-14356014D02*
X8926743Y-14156014D01*
X8926743Y-14184586D02*
X8941028Y-14170300D01*
X8969600Y-14156014D01*
X9012457Y-14156014D01*
X9041028Y-14170300D01*
X9055314Y-14198871D01*
X9055314Y-14356014D01*
X9055314Y-14198871D02*
X9069600Y-14170300D01*
X9098171Y-14156014D01*
X9141028Y-14156014D01*
X9169600Y-14170300D01*
X9183886Y-14198871D01*
X9183886Y-14356014D01*
X9769600Y-14041729D02*
X9512457Y-14427443D01*
X10155314Y-14056014D02*
X10183886Y-14056014D01*
X10212457Y-14070300D01*
X10226743Y-14084586D01*
X10241028Y-14113157D01*
X10255314Y-14170300D01*
X10255314Y-14241729D01*
X10241028Y-14298871D01*
X10226743Y-14327443D01*
X10212457Y-14341729D01*
X10183886Y-14356014D01*
X10155314Y-14356014D01*
X10126743Y-14341729D01*
X10112457Y-14327443D01*
X10098171Y-14298871D01*
X10083886Y-14241729D01*
X10083886Y-14170300D01*
X10098171Y-14113157D01*
X10112457Y-14084586D01*
X10126743Y-14070300D01*
X10155314Y-14056014D01*
X10383886Y-14327443D02*
X10398171Y-14341729D01*
X10383886Y-14356014D01*
X10369600Y-14341729D01*
X10383886Y-14327443D01*
X10383886Y-14356014D01*
X10583886Y-14056014D02*
X10612457Y-14056014D01*
X10641028Y-14070300D01*
X10655314Y-14084586D01*
X10669600Y-14113157D01*
X10683886Y-14170300D01*
X10683886Y-14241729D01*
X10669600Y-14298871D01*
X10655314Y-14327443D01*
X10641028Y-14341729D01*
X10612457Y-14356014D01*
X10583886Y-14356014D01*
X10555314Y-14341729D01*
X10541028Y-14327443D01*
X10526743Y-14298871D01*
X10512457Y-14241729D01*
X10512457Y-14170300D01*
X10526743Y-14113157D01*
X10541028Y-14084586D01*
X10555314Y-14070300D01*
X10583886Y-14056014D01*
X10783886Y-14056014D02*
X10969600Y-14056014D01*
X10869600Y-14170300D01*
X10912457Y-14170300D01*
X10941028Y-14184586D01*
X10955314Y-14198871D01*
X10969600Y-14227443D01*
X10969600Y-14298871D01*
X10955314Y-14327443D01*
X10941028Y-14341729D01*
X10912457Y-14356014D01*
X10826743Y-14356014D01*
X10798171Y-14341729D01*
X10783886Y-14327443D01*
X11112457Y-14356014D02*
X11169600Y-14356014D01*
X11198171Y-14341729D01*
X11212457Y-14327443D01*
X11241028Y-14284586D01*
X11255314Y-14227443D01*
X11255314Y-14113157D01*
X11241028Y-14084586D01*
X11226743Y-14070300D01*
X11198171Y-14056014D01*
X11141028Y-14056014D01*
X11112457Y-14070300D01*
X11098171Y-14084586D01*
X11083886Y-14113157D01*
X11083886Y-14184586D01*
X11098171Y-14213157D01*
X11112457Y-14227443D01*
X11141028Y-14241729D01*
X11198171Y-14241729D01*
X11226743Y-14227443D01*
X11241028Y-14213157D01*
X11255314Y-14184586D01*
X11512457Y-14156014D02*
X11512457Y-14356014D01*
X11441028Y-14041729D02*
X11369600Y-14256014D01*
X11555314Y-14256014D01*
X11655314Y-14056014D02*
X11655314Y-14113157D01*
X11769600Y-14056014D02*
X11769600Y-14113157D01*
X12212457Y-14470300D02*
X12198171Y-14456014D01*
X12169600Y-14413157D01*
X12155314Y-14384586D01*
X12141028Y-14341729D01*
X12126743Y-14270300D01*
X12126743Y-14213157D01*
X12141028Y-14141729D01*
X12155314Y-14098871D01*
X12169600Y-14070300D01*
X12198171Y-14027443D01*
X12212457Y-14013157D01*
X12455314Y-14056014D02*
X12398171Y-14056014D01*
X12369600Y-14070300D01*
X12355314Y-14084586D01*
X12326743Y-14127443D01*
X12312457Y-14184586D01*
X12312457Y-14298871D01*
X12326743Y-14327443D01*
X12341028Y-14341729D01*
X12369600Y-14356014D01*
X12426743Y-14356014D01*
X12455314Y-14341729D01*
X12469600Y-14327443D01*
X12483886Y-14298871D01*
X12483886Y-14227443D01*
X12469600Y-14198871D01*
X12455314Y-14184586D01*
X12426743Y-14170300D01*
X12369600Y-14170300D01*
X12341028Y-14184586D01*
X12326743Y-14198871D01*
X12312457Y-14227443D01*
X12841028Y-14356014D02*
X12841028Y-14056014D01*
X12969600Y-14356014D02*
X12969600Y-14198871D01*
X12955314Y-14170300D01*
X12926743Y-14156014D01*
X12883886Y-14156014D01*
X12855314Y-14170300D01*
X12841028Y-14184586D01*
X13155314Y-14356014D02*
X13126743Y-14341729D01*
X13112457Y-14327443D01*
X13098171Y-14298871D01*
X13098171Y-14213157D01*
X13112457Y-14184586D01*
X13126743Y-14170300D01*
X13155314Y-14156014D01*
X13198171Y-14156014D01*
X13226743Y-14170300D01*
X13241028Y-14184586D01*
X13255314Y-14213157D01*
X13255314Y-14298871D01*
X13241028Y-14327443D01*
X13226743Y-14341729D01*
X13198171Y-14356014D01*
X13155314Y-14356014D01*
X13426743Y-14356014D02*
X13398171Y-14341729D01*
X13383886Y-14313157D01*
X13383886Y-14056014D01*
X13655314Y-14341729D02*
X13626743Y-14356014D01*
X13569600Y-14356014D01*
X13541028Y-14341729D01*
X13526743Y-14313157D01*
X13526743Y-14198871D01*
X13541028Y-14170300D01*
X13569600Y-14156014D01*
X13626743Y-14156014D01*
X13655314Y-14170300D01*
X13669600Y-14198871D01*
X13669600Y-14227443D01*
X13526743Y-14256014D01*
X13783886Y-14341729D02*
X13812457Y-14356014D01*
X13869600Y-14356014D01*
X13898171Y-14341729D01*
X13912457Y-14313157D01*
X13912457Y-14298871D01*
X13898171Y-14270300D01*
X13869600Y-14256014D01*
X13826743Y-14256014D01*
X13798171Y-14241729D01*
X13783886Y-14213157D01*
X13783886Y-14198871D01*
X13798171Y-14170300D01*
X13826743Y-14156014D01*
X13869600Y-14156014D01*
X13898171Y-14170300D01*
X14012457Y-14470300D02*
X14026743Y-14456014D01*
X14055314Y-14413157D01*
X14069600Y-14384586D01*
X14083886Y-14341729D01*
X14098171Y-14270300D01*
X14098171Y-14213157D01*
X14083886Y-14141729D01*
X14069600Y-14098871D01*
X14055314Y-14070300D01*
X14026743Y-14027443D01*
X14012457Y-14013157D01*
X6844600Y-14561300D02*
X6954600Y-14671300D01*
X6954600Y-14561300D02*
X6844600Y-14671300D01*
X6954600Y-14616300D02*
G75*
G03*
X6954600Y-14616300I-55000J0D01*
G01*
X7398171Y-14752014D02*
X7226743Y-14752014D01*
X7312457Y-14752014D02*
X7312457Y-14452014D01*
X7283886Y-14494871D01*
X7255314Y-14523443D01*
X7226743Y-14537729D01*
X7526743Y-14723443D02*
X7541028Y-14737729D01*
X7526743Y-14752014D01*
X7512457Y-14737729D01*
X7526743Y-14723443D01*
X7526743Y-14752014D01*
X7826743Y-14752014D02*
X7655314Y-14752014D01*
X7741028Y-14752014D02*
X7741028Y-14452014D01*
X7712457Y-14494871D01*
X7683886Y-14523443D01*
X7655314Y-14537729D01*
X8012457Y-14452014D02*
X8041028Y-14452014D01*
X8069600Y-14466300D01*
X8083886Y-14480586D01*
X8098171Y-14509157D01*
X8112457Y-14566300D01*
X8112457Y-14637729D01*
X8098171Y-14694871D01*
X8083886Y-14723443D01*
X8069600Y-14737729D01*
X8041028Y-14752014D01*
X8012457Y-14752014D01*
X7983886Y-14737729D01*
X7969600Y-14723443D01*
X7955314Y-14694871D01*
X7941028Y-14637729D01*
X7941028Y-14566300D01*
X7955314Y-14509157D01*
X7969600Y-14480586D01*
X7983886Y-14466300D01*
X8012457Y-14452014D01*
X8298171Y-14452014D02*
X8326743Y-14452014D01*
X8355314Y-14466300D01*
X8369600Y-14480586D01*
X8383886Y-14509157D01*
X8398171Y-14566300D01*
X8398171Y-14637729D01*
X8383886Y-14694871D01*
X8369600Y-14723443D01*
X8355314Y-14737729D01*
X8326743Y-14752014D01*
X8298171Y-14752014D01*
X8269600Y-14737729D01*
X8255314Y-14723443D01*
X8241028Y-14694871D01*
X8226743Y-14637729D01*
X8226743Y-14566300D01*
X8241028Y-14509157D01*
X8255314Y-14480586D01*
X8269600Y-14466300D01*
X8298171Y-14452014D01*
X8526743Y-14752014D02*
X8526743Y-14552014D01*
X8526743Y-14580586D02*
X8541028Y-14566300D01*
X8569600Y-14552014D01*
X8612457Y-14552014D01*
X8641028Y-14566300D01*
X8655314Y-14594871D01*
X8655314Y-14752014D01*
X8655314Y-14594871D02*
X8669600Y-14566300D01*
X8698171Y-14552014D01*
X8741028Y-14552014D01*
X8769600Y-14566300D01*
X8783886Y-14594871D01*
X8783886Y-14752014D01*
X8926743Y-14752014D02*
X8926743Y-14552014D01*
X8926743Y-14580586D02*
X8941028Y-14566300D01*
X8969600Y-14552014D01*
X9012457Y-14552014D01*
X9041028Y-14566300D01*
X9055314Y-14594871D01*
X9055314Y-14752014D01*
X9055314Y-14594871D02*
X9069600Y-14566300D01*
X9098171Y-14552014D01*
X9141028Y-14552014D01*
X9169600Y-14566300D01*
X9183886Y-14594871D01*
X9183886Y-14752014D01*
X9769600Y-14437729D02*
X9512457Y-14823443D01*
X10155314Y-14452014D02*
X10183886Y-14452014D01*
X10212457Y-14466300D01*
X10226743Y-14480586D01*
X10241028Y-14509157D01*
X10255314Y-14566300D01*
X10255314Y-14637729D01*
X10241028Y-14694871D01*
X10226743Y-14723443D01*
X10212457Y-14737729D01*
X10183886Y-14752014D01*
X10155314Y-14752014D01*
X10126743Y-14737729D01*
X10112457Y-14723443D01*
X10098171Y-14694871D01*
X10083886Y-14637729D01*
X10083886Y-14566300D01*
X10098171Y-14509157D01*
X10112457Y-14480586D01*
X10126743Y-14466300D01*
X10155314Y-14452014D01*
X10383886Y-14723443D02*
X10398171Y-14737729D01*
X10383886Y-14752014D01*
X10369600Y-14737729D01*
X10383886Y-14723443D01*
X10383886Y-14752014D01*
X10583886Y-14452014D02*
X10612457Y-14452014D01*
X10641028Y-14466300D01*
X10655314Y-14480586D01*
X10669600Y-14509157D01*
X10683886Y-14566300D01*
X10683886Y-14637729D01*
X10669600Y-14694871D01*
X10655314Y-14723443D01*
X10641028Y-14737729D01*
X10612457Y-14752014D01*
X10583886Y-14752014D01*
X10555314Y-14737729D01*
X10541028Y-14723443D01*
X10526743Y-14694871D01*
X10512457Y-14637729D01*
X10512457Y-14566300D01*
X10526743Y-14509157D01*
X10541028Y-14480586D01*
X10555314Y-14466300D01*
X10583886Y-14452014D01*
X10941028Y-14552014D02*
X10941028Y-14752014D01*
X10869600Y-14437729D02*
X10798171Y-14652014D01*
X10983886Y-14652014D01*
X11069600Y-14452014D02*
X11255314Y-14452014D01*
X11155314Y-14566300D01*
X11198171Y-14566300D01*
X11226743Y-14580586D01*
X11241028Y-14594871D01*
X11255314Y-14623443D01*
X11255314Y-14694871D01*
X11241028Y-14723443D01*
X11226743Y-14737729D01*
X11198171Y-14752014D01*
X11112457Y-14752014D01*
X11083886Y-14737729D01*
X11069600Y-14723443D01*
X11355314Y-14452014D02*
X11541028Y-14452014D01*
X11441028Y-14566300D01*
X11483886Y-14566300D01*
X11512457Y-14580586D01*
X11526743Y-14594871D01*
X11541028Y-14623443D01*
X11541028Y-14694871D01*
X11526743Y-14723443D01*
X11512457Y-14737729D01*
X11483886Y-14752014D01*
X11398171Y-14752014D01*
X11369600Y-14737729D01*
X11355314Y-14723443D01*
X11655314Y-14452014D02*
X11655314Y-14509157D01*
X11769600Y-14452014D02*
X11769600Y-14509157D01*
X12212457Y-14866300D02*
X12198171Y-14852014D01*
X12169600Y-14809157D01*
X12155314Y-14780586D01*
X12141028Y-14737729D01*
X12126743Y-14666300D01*
X12126743Y-14609157D01*
X12141028Y-14537729D01*
X12155314Y-14494871D01*
X12169600Y-14466300D01*
X12198171Y-14423443D01*
X12212457Y-14409157D01*
X12298171Y-14452014D02*
X12498171Y-14452014D01*
X12369600Y-14752014D01*
X12841028Y-14752014D02*
X12841028Y-14452014D01*
X12969600Y-14752014D02*
X12969600Y-14594871D01*
X12955314Y-14566300D01*
X12926743Y-14552014D01*
X12883886Y-14552014D01*
X12855314Y-14566300D01*
X12841028Y-14580586D01*
X13155314Y-14752014D02*
X13126743Y-14737729D01*
X13112457Y-14723443D01*
X13098171Y-14694871D01*
X13098171Y-14609157D01*
X13112457Y-14580586D01*
X13126743Y-14566300D01*
X13155314Y-14552014D01*
X13198171Y-14552014D01*
X13226743Y-14566300D01*
X13241028Y-14580586D01*
X13255314Y-14609157D01*
X13255314Y-14694871D01*
X13241028Y-14723443D01*
X13226743Y-14737729D01*
X13198171Y-14752014D01*
X13155314Y-14752014D01*
X13426743Y-14752014D02*
X13398171Y-14737729D01*
X13383886Y-14709157D01*
X13383886Y-14452014D01*
X13655314Y-14737729D02*
X13626743Y-14752014D01*
X13569600Y-14752014D01*
X13541028Y-14737729D01*
X13526743Y-14709157D01*
X13526743Y-14594871D01*
X13541028Y-14566300D01*
X13569600Y-14552014D01*
X13626743Y-14552014D01*
X13655314Y-14566300D01*
X13669600Y-14594871D01*
X13669600Y-14623443D01*
X13526743Y-14652014D01*
X13783886Y-14737729D02*
X13812457Y-14752014D01*
X13869600Y-14752014D01*
X13898171Y-14737729D01*
X13912457Y-14709157D01*
X13912457Y-14694871D01*
X13898171Y-14666300D01*
X13869600Y-14652014D01*
X13826743Y-14652014D01*
X13798171Y-14637729D01*
X13783886Y-14609157D01*
X13783886Y-14594871D01*
X13798171Y-14566300D01*
X13826743Y-14552014D01*
X13869600Y-14552014D01*
X13898171Y-14566300D01*
X14012457Y-14866300D02*
X14026743Y-14852014D01*
X14055314Y-14809157D01*
X14069600Y-14780586D01*
X14083886Y-14737729D01*
X14098171Y-14666300D01*
X14098171Y-14609157D01*
X14083886Y-14537729D01*
X14069600Y-14494871D01*
X14055314Y-14466300D01*
X14026743Y-14423443D01*
X14012457Y-14409157D01*
X6834600Y-14952300D02*
X6954600Y-15072300D01*
X6954600Y-14952300D02*
X6834600Y-15072300D01*
X6894600Y-14952300D02*
X6894600Y-15072300D01*
X6834600Y-15012300D02*
X6954600Y-15012300D01*
X7398171Y-15148014D02*
X7226743Y-15148014D01*
X7312457Y-15148014D02*
X7312457Y-14848014D01*
X7283886Y-14890871D01*
X7255314Y-14919443D01*
X7226743Y-14933729D01*
X7526743Y-15119443D02*
X7541028Y-15133729D01*
X7526743Y-15148014D01*
X7512457Y-15133729D01*
X7526743Y-15119443D01*
X7526743Y-15148014D01*
X7655314Y-14876586D02*
X7669600Y-14862300D01*
X7698171Y-14848014D01*
X7769600Y-14848014D01*
X7798171Y-14862300D01*
X7812457Y-14876586D01*
X7826743Y-14905157D01*
X7826743Y-14933729D01*
X7812457Y-14976586D01*
X7641028Y-15148014D01*
X7826743Y-15148014D01*
X8012457Y-14848014D02*
X8041028Y-14848014D01*
X8069600Y-14862300D01*
X8083886Y-14876586D01*
X8098171Y-14905157D01*
X8112457Y-14962300D01*
X8112457Y-15033729D01*
X8098171Y-15090871D01*
X8083886Y-15119443D01*
X8069600Y-15133729D01*
X8041028Y-15148014D01*
X8012457Y-15148014D01*
X7983886Y-15133729D01*
X7969600Y-15119443D01*
X7955314Y-15090871D01*
X7941028Y-15033729D01*
X7941028Y-14962300D01*
X7955314Y-14905157D01*
X7969600Y-14876586D01*
X7983886Y-14862300D01*
X8012457Y-14848014D01*
X8298171Y-14848014D02*
X8326743Y-14848014D01*
X8355314Y-14862300D01*
X8369600Y-14876586D01*
X8383886Y-14905157D01*
X8398171Y-14962300D01*
X8398171Y-15033729D01*
X8383886Y-15090871D01*
X8369600Y-15119443D01*
X8355314Y-15133729D01*
X8326743Y-15148014D01*
X8298171Y-15148014D01*
X8269600Y-15133729D01*
X8255314Y-15119443D01*
X8241028Y-15090871D01*
X8226743Y-15033729D01*
X8226743Y-14962300D01*
X8241028Y-14905157D01*
X8255314Y-14876586D01*
X8269600Y-14862300D01*
X8298171Y-14848014D01*
X8526743Y-15148014D02*
X8526743Y-14948014D01*
X8526743Y-14976586D02*
X8541028Y-14962300D01*
X8569600Y-14948014D01*
X8612457Y-14948014D01*
X8641028Y-14962300D01*
X8655314Y-14990871D01*
X8655314Y-15148014D01*
X8655314Y-14990871D02*
X8669600Y-14962300D01*
X8698171Y-14948014D01*
X8741028Y-14948014D01*
X8769600Y-14962300D01*
X8783886Y-14990871D01*
X8783886Y-15148014D01*
X8926743Y-15148014D02*
X8926743Y-14948014D01*
X8926743Y-14976586D02*
X8941028Y-14962300D01*
X8969600Y-14948014D01*
X9012457Y-14948014D01*
X9041028Y-14962300D01*
X9055314Y-14990871D01*
X9055314Y-15148014D01*
X9055314Y-14990871D02*
X9069600Y-14962300D01*
X9098171Y-14948014D01*
X9141028Y-14948014D01*
X9169600Y-14962300D01*
X9183886Y-14990871D01*
X9183886Y-15148014D01*
X9769600Y-14833729D02*
X9512457Y-15219443D01*
X10155314Y-14848014D02*
X10183886Y-14848014D01*
X10212457Y-14862300D01*
X10226743Y-14876586D01*
X10241028Y-14905157D01*
X10255314Y-14962300D01*
X10255314Y-15033729D01*
X10241028Y-15090871D01*
X10226743Y-15119443D01*
X10212457Y-15133729D01*
X10183886Y-15148014D01*
X10155314Y-15148014D01*
X10126743Y-15133729D01*
X10112457Y-15119443D01*
X10098171Y-15090871D01*
X10083886Y-15033729D01*
X10083886Y-14962300D01*
X10098171Y-14905157D01*
X10112457Y-14876586D01*
X10126743Y-14862300D01*
X10155314Y-14848014D01*
X10383886Y-15119443D02*
X10398171Y-15133729D01*
X10383886Y-15148014D01*
X10369600Y-15133729D01*
X10383886Y-15119443D01*
X10383886Y-15148014D01*
X10583886Y-14848014D02*
X10612457Y-14848014D01*
X10641028Y-14862300D01*
X10655314Y-14876586D01*
X10669600Y-14905157D01*
X10683886Y-14962300D01*
X10683886Y-15033729D01*
X10669600Y-15090871D01*
X10655314Y-15119443D01*
X10641028Y-15133729D01*
X10612457Y-15148014D01*
X10583886Y-15148014D01*
X10555314Y-15133729D01*
X10541028Y-15119443D01*
X10526743Y-15090871D01*
X10512457Y-15033729D01*
X10512457Y-14962300D01*
X10526743Y-14905157D01*
X10541028Y-14876586D01*
X10555314Y-14862300D01*
X10583886Y-14848014D01*
X10941028Y-14948014D02*
X10941028Y-15148014D01*
X10869600Y-14833729D02*
X10798171Y-15048014D01*
X10983886Y-15048014D01*
X11069600Y-14848014D02*
X11269600Y-14848014D01*
X11141028Y-15148014D01*
X11369600Y-14876586D02*
X11383886Y-14862300D01*
X11412457Y-14848014D01*
X11483886Y-14848014D01*
X11512457Y-14862300D01*
X11526743Y-14876586D01*
X11541028Y-14905157D01*
X11541028Y-14933729D01*
X11526743Y-14976586D01*
X11355314Y-15148014D01*
X11541028Y-15148014D01*
X11655314Y-14848014D02*
X11655314Y-14905157D01*
X11769600Y-14848014D02*
X11769600Y-14905157D01*
X12212457Y-15262300D02*
X12198171Y-15248014D01*
X12169600Y-15205157D01*
X12155314Y-15176586D01*
X12141028Y-15133729D01*
X12126743Y-15062300D01*
X12126743Y-15005157D01*
X12141028Y-14933729D01*
X12155314Y-14890871D01*
X12169600Y-14862300D01*
X12198171Y-14819443D01*
X12212457Y-14805157D01*
X12298171Y-14848014D02*
X12483886Y-14848014D01*
X12383886Y-14962300D01*
X12426743Y-14962300D01*
X12455314Y-14976586D01*
X12469600Y-14990871D01*
X12483886Y-15019443D01*
X12483886Y-15090871D01*
X12469600Y-15119443D01*
X12455314Y-15133729D01*
X12426743Y-15148014D01*
X12341028Y-15148014D01*
X12312457Y-15133729D01*
X12298171Y-15119443D01*
X12841028Y-15148014D02*
X12841028Y-14848014D01*
X12969600Y-15148014D02*
X12969600Y-14990871D01*
X12955314Y-14962300D01*
X12926743Y-14948014D01*
X12883886Y-14948014D01*
X12855314Y-14962300D01*
X12841028Y-14976586D01*
X13155314Y-15148014D02*
X13126743Y-15133729D01*
X13112457Y-15119443D01*
X13098171Y-15090871D01*
X13098171Y-15005157D01*
X13112457Y-14976586D01*
X13126743Y-14962300D01*
X13155314Y-14948014D01*
X13198171Y-14948014D01*
X13226743Y-14962300D01*
X13241028Y-14976586D01*
X13255314Y-15005157D01*
X13255314Y-15090871D01*
X13241028Y-15119443D01*
X13226743Y-15133729D01*
X13198171Y-15148014D01*
X13155314Y-15148014D01*
X13426743Y-15148014D02*
X13398171Y-15133729D01*
X13383886Y-15105157D01*
X13383886Y-14848014D01*
X13655314Y-15133729D02*
X13626743Y-15148014D01*
X13569600Y-15148014D01*
X13541028Y-15133729D01*
X13526743Y-15105157D01*
X13526743Y-14990871D01*
X13541028Y-14962300D01*
X13569600Y-14948014D01*
X13626743Y-14948014D01*
X13655314Y-14962300D01*
X13669600Y-14990871D01*
X13669600Y-15019443D01*
X13526743Y-15048014D01*
X13783886Y-15133729D02*
X13812457Y-15148014D01*
X13869600Y-15148014D01*
X13898171Y-15133729D01*
X13912457Y-15105157D01*
X13912457Y-15090871D01*
X13898171Y-15062300D01*
X13869600Y-15048014D01*
X13826743Y-15048014D01*
X13798171Y-15033729D01*
X13783886Y-15005157D01*
X13783886Y-14990871D01*
X13798171Y-14962300D01*
X13826743Y-14948014D01*
X13869600Y-14948014D01*
X13898171Y-14962300D01*
X14012457Y-15262300D02*
X14026743Y-15248014D01*
X14055314Y-15205157D01*
X14069600Y-15176586D01*
X14083886Y-15133729D01*
X14098171Y-15062300D01*
X14098171Y-15005157D01*
X14083886Y-14933729D01*
X14069600Y-14890871D01*
X14055314Y-14862300D01*
X14026743Y-14819443D01*
X14012457Y-14805157D01*
X6804600Y-15333300D02*
X6954600Y-15483300D01*
X6954600Y-15333300D02*
X6804600Y-15483300D01*
X6932633Y-15461334D02*
X6932633Y-15355267D01*
X6826566Y-15355267D01*
X6826566Y-15461334D01*
X6932633Y-15461334D01*
X7398171Y-15544014D02*
X7226743Y-15544014D01*
X7312457Y-15544014D02*
X7312457Y-15244014D01*
X7283886Y-15286871D01*
X7255314Y-15315443D01*
X7226743Y-15329729D01*
X7526743Y-15515443D02*
X7541028Y-15529729D01*
X7526743Y-15544014D01*
X7512457Y-15529729D01*
X7526743Y-15515443D01*
X7526743Y-15544014D01*
X7812457Y-15244014D02*
X7669600Y-15244014D01*
X7655314Y-15386871D01*
X7669600Y-15372586D01*
X7698171Y-15358300D01*
X7769600Y-15358300D01*
X7798171Y-15372586D01*
X7812457Y-15386871D01*
X7826743Y-15415443D01*
X7826743Y-15486871D01*
X7812457Y-15515443D01*
X7798171Y-15529729D01*
X7769600Y-15544014D01*
X7698171Y-15544014D01*
X7669600Y-15529729D01*
X7655314Y-15515443D01*
X8012457Y-15244014D02*
X8041028Y-15244014D01*
X8069600Y-15258300D01*
X8083886Y-15272586D01*
X8098171Y-15301157D01*
X8112457Y-15358300D01*
X8112457Y-15429729D01*
X8098171Y-15486871D01*
X8083886Y-15515443D01*
X8069600Y-15529729D01*
X8041028Y-15544014D01*
X8012457Y-15544014D01*
X7983886Y-15529729D01*
X7969600Y-15515443D01*
X7955314Y-15486871D01*
X7941028Y-15429729D01*
X7941028Y-15358300D01*
X7955314Y-15301157D01*
X7969600Y-15272586D01*
X7983886Y-15258300D01*
X8012457Y-15244014D01*
X8298171Y-15244014D02*
X8326743Y-15244014D01*
X8355314Y-15258300D01*
X8369600Y-15272586D01*
X8383886Y-15301157D01*
X8398171Y-15358300D01*
X8398171Y-15429729D01*
X8383886Y-15486871D01*
X8369600Y-15515443D01*
X8355314Y-15529729D01*
X8326743Y-15544014D01*
X8298171Y-15544014D01*
X8269600Y-15529729D01*
X8255314Y-15515443D01*
X8241028Y-15486871D01*
X8226743Y-15429729D01*
X8226743Y-15358300D01*
X8241028Y-15301157D01*
X8255314Y-15272586D01*
X8269600Y-15258300D01*
X8298171Y-15244014D01*
X8526743Y-15544014D02*
X8526743Y-15344014D01*
X8526743Y-15372586D02*
X8541028Y-15358300D01*
X8569600Y-15344014D01*
X8612457Y-15344014D01*
X8641028Y-15358300D01*
X8655314Y-15386871D01*
X8655314Y-15544014D01*
X8655314Y-15386871D02*
X8669600Y-15358300D01*
X8698171Y-15344014D01*
X8741028Y-15344014D01*
X8769600Y-15358300D01*
X8783886Y-15386871D01*
X8783886Y-15544014D01*
X8926743Y-15544014D02*
X8926743Y-15344014D01*
X8926743Y-15372586D02*
X8941028Y-15358300D01*
X8969600Y-15344014D01*
X9012457Y-15344014D01*
X9041028Y-15358300D01*
X9055314Y-15386871D01*
X9055314Y-15544014D01*
X9055314Y-15386871D02*
X9069600Y-15358300D01*
X9098171Y-15344014D01*
X9141028Y-15344014D01*
X9169600Y-15358300D01*
X9183886Y-15386871D01*
X9183886Y-15544014D01*
X9769600Y-15229729D02*
X9512457Y-15615443D01*
X10155314Y-15244014D02*
X10183886Y-15244014D01*
X10212457Y-15258300D01*
X10226743Y-15272586D01*
X10241028Y-15301157D01*
X10255314Y-15358300D01*
X10255314Y-15429729D01*
X10241028Y-15486871D01*
X10226743Y-15515443D01*
X10212457Y-15529729D01*
X10183886Y-15544014D01*
X10155314Y-15544014D01*
X10126743Y-15529729D01*
X10112457Y-15515443D01*
X10098171Y-15486871D01*
X10083886Y-15429729D01*
X10083886Y-15358300D01*
X10098171Y-15301157D01*
X10112457Y-15272586D01*
X10126743Y-15258300D01*
X10155314Y-15244014D01*
X10383886Y-15515443D02*
X10398171Y-15529729D01*
X10383886Y-15544014D01*
X10369600Y-15529729D01*
X10383886Y-15515443D01*
X10383886Y-15544014D01*
X10583886Y-15244014D02*
X10612457Y-15244014D01*
X10641028Y-15258300D01*
X10655314Y-15272586D01*
X10669600Y-15301157D01*
X10683886Y-15358300D01*
X10683886Y-15429729D01*
X10669600Y-15486871D01*
X10655314Y-15515443D01*
X10641028Y-15529729D01*
X10612457Y-15544014D01*
X10583886Y-15544014D01*
X10555314Y-15529729D01*
X10541028Y-15515443D01*
X10526743Y-15486871D01*
X10512457Y-15429729D01*
X10512457Y-15358300D01*
X10526743Y-15301157D01*
X10541028Y-15272586D01*
X10555314Y-15258300D01*
X10583886Y-15244014D01*
X10955314Y-15244014D02*
X10812457Y-15244014D01*
X10798171Y-15386871D01*
X10812457Y-15372586D01*
X10841028Y-15358300D01*
X10912457Y-15358300D01*
X10941028Y-15372586D01*
X10955314Y-15386871D01*
X10969600Y-15415443D01*
X10969600Y-15486871D01*
X10955314Y-15515443D01*
X10941028Y-15529729D01*
X10912457Y-15544014D01*
X10841028Y-15544014D01*
X10812457Y-15529729D01*
X10798171Y-15515443D01*
X11112457Y-15544014D02*
X11169600Y-15544014D01*
X11198171Y-15529729D01*
X11212457Y-15515443D01*
X11241028Y-15472586D01*
X11255314Y-15415443D01*
X11255314Y-15301157D01*
X11241028Y-15272586D01*
X11226743Y-15258300D01*
X11198171Y-15244014D01*
X11141028Y-15244014D01*
X11112457Y-15258300D01*
X11098171Y-15272586D01*
X11083886Y-15301157D01*
X11083886Y-15372586D01*
X11098171Y-15401157D01*
X11112457Y-15415443D01*
X11141028Y-15429729D01*
X11198171Y-15429729D01*
X11226743Y-15415443D01*
X11241028Y-15401157D01*
X11255314Y-15372586D01*
X11541028Y-15544014D02*
X11369600Y-15544014D01*
X11455314Y-15544014D02*
X11455314Y-15244014D01*
X11426743Y-15286871D01*
X11398171Y-15315443D01*
X11369600Y-15329729D01*
X11655314Y-15244014D02*
X11655314Y-15301157D01*
X11769600Y-15244014D02*
X11769600Y-15301157D01*
X12212457Y-15658300D02*
X12198171Y-15644014D01*
X12169600Y-15601157D01*
X12155314Y-15572586D01*
X12141028Y-15529729D01*
X12126743Y-15458300D01*
X12126743Y-15401157D01*
X12141028Y-15329729D01*
X12155314Y-15286871D01*
X12169600Y-15258300D01*
X12198171Y-15215443D01*
X12212457Y-15201157D01*
X12312457Y-15272586D02*
X12326743Y-15258300D01*
X12355314Y-15244014D01*
X12426743Y-15244014D01*
X12455314Y-15258300D01*
X12469600Y-15272586D01*
X12483886Y-15301157D01*
X12483886Y-15329729D01*
X12469600Y-15372586D01*
X12298171Y-15544014D01*
X12483886Y-15544014D01*
X12841028Y-15544014D02*
X12841028Y-15244014D01*
X12969600Y-15544014D02*
X12969600Y-15386871D01*
X12955314Y-15358300D01*
X12926743Y-15344014D01*
X12883886Y-15344014D01*
X12855314Y-15358300D01*
X12841028Y-15372586D01*
X13155314Y-15544014D02*
X13126743Y-15529729D01*
X13112457Y-15515443D01*
X13098171Y-15486871D01*
X13098171Y-15401157D01*
X13112457Y-15372586D01*
X13126743Y-15358300D01*
X13155314Y-15344014D01*
X13198171Y-15344014D01*
X13226743Y-15358300D01*
X13241028Y-15372586D01*
X13255314Y-15401157D01*
X13255314Y-15486871D01*
X13241028Y-15515443D01*
X13226743Y-15529729D01*
X13198171Y-15544014D01*
X13155314Y-15544014D01*
X13426743Y-15544014D02*
X13398171Y-15529729D01*
X13383886Y-15501157D01*
X13383886Y-15244014D01*
X13655314Y-15529729D02*
X13626743Y-15544014D01*
X13569600Y-15544014D01*
X13541028Y-15529729D01*
X13526743Y-15501157D01*
X13526743Y-15386871D01*
X13541028Y-15358300D01*
X13569600Y-15344014D01*
X13626743Y-15344014D01*
X13655314Y-15358300D01*
X13669600Y-15386871D01*
X13669600Y-15415443D01*
X13526743Y-15444014D01*
X13783886Y-15529729D02*
X13812457Y-15544014D01*
X13869600Y-15544014D01*
X13898171Y-15529729D01*
X13912457Y-15501157D01*
X13912457Y-15486871D01*
X13898171Y-15458300D01*
X13869600Y-15444014D01*
X13826743Y-15444014D01*
X13798171Y-15429729D01*
X13783886Y-15401157D01*
X13783886Y-15386871D01*
X13798171Y-15358300D01*
X13826743Y-15344014D01*
X13869600Y-15344014D01*
X13898171Y-15358300D01*
X14012457Y-15658300D02*
X14026743Y-15644014D01*
X14055314Y-15601157D01*
X14069600Y-15572586D01*
X14083886Y-15529729D01*
X14098171Y-15458300D01*
X14098171Y-15401157D01*
X14083886Y-15329729D01*
X14069600Y-15286871D01*
X14055314Y-15258300D01*
X14026743Y-15215443D01*
X14012457Y-15201157D01*
X6794600Y-15724300D02*
X6954600Y-15884300D01*
X6954600Y-15724300D02*
X6794600Y-15884300D01*
X6874600Y-15884300D02*
X6954600Y-15804300D01*
X6874600Y-15724300D01*
X6794600Y-15804300D01*
X6874600Y-15884300D01*
X7398171Y-15940014D02*
X7226743Y-15940014D01*
X7312457Y-15940014D02*
X7312457Y-15640014D01*
X7283886Y-15682871D01*
X7255314Y-15711443D01*
X7226743Y-15725729D01*
X7526743Y-15911443D02*
X7541028Y-15925729D01*
X7526743Y-15940014D01*
X7512457Y-15925729D01*
X7526743Y-15911443D01*
X7526743Y-15940014D01*
X7798171Y-15640014D02*
X7741028Y-15640014D01*
X7712457Y-15654300D01*
X7698171Y-15668586D01*
X7669600Y-15711443D01*
X7655314Y-15768586D01*
X7655314Y-15882871D01*
X7669600Y-15911443D01*
X7683886Y-15925729D01*
X7712457Y-15940014D01*
X7769600Y-15940014D01*
X7798171Y-15925729D01*
X7812457Y-15911443D01*
X7826743Y-15882871D01*
X7826743Y-15811443D01*
X7812457Y-15782871D01*
X7798171Y-15768586D01*
X7769600Y-15754300D01*
X7712457Y-15754300D01*
X7683886Y-15768586D01*
X7669600Y-15782871D01*
X7655314Y-15811443D01*
X8012457Y-15640014D02*
X8041028Y-15640014D01*
X8069600Y-15654300D01*
X8083886Y-15668586D01*
X8098171Y-15697157D01*
X8112457Y-15754300D01*
X8112457Y-15825729D01*
X8098171Y-15882871D01*
X8083886Y-15911443D01*
X8069600Y-15925729D01*
X8041028Y-15940014D01*
X8012457Y-15940014D01*
X7983886Y-15925729D01*
X7969600Y-15911443D01*
X7955314Y-15882871D01*
X7941028Y-15825729D01*
X7941028Y-15754300D01*
X7955314Y-15697157D01*
X7969600Y-15668586D01*
X7983886Y-15654300D01*
X8012457Y-15640014D01*
X8298171Y-15640014D02*
X8326743Y-15640014D01*
X8355314Y-15654300D01*
X8369600Y-15668586D01*
X8383886Y-15697157D01*
X8398171Y-15754300D01*
X8398171Y-15825729D01*
X8383886Y-15882871D01*
X8369600Y-15911443D01*
X8355314Y-15925729D01*
X8326743Y-15940014D01*
X8298171Y-15940014D01*
X8269600Y-15925729D01*
X8255314Y-15911443D01*
X8241028Y-15882871D01*
X8226743Y-15825729D01*
X8226743Y-15754300D01*
X8241028Y-15697157D01*
X8255314Y-15668586D01*
X8269600Y-15654300D01*
X8298171Y-15640014D01*
X8526743Y-15940014D02*
X8526743Y-15740014D01*
X8526743Y-15768586D02*
X8541028Y-15754300D01*
X8569600Y-15740014D01*
X8612457Y-15740014D01*
X8641028Y-15754300D01*
X8655314Y-15782871D01*
X8655314Y-15940014D01*
X8655314Y-15782871D02*
X8669600Y-15754300D01*
X8698171Y-15740014D01*
X8741028Y-15740014D01*
X8769600Y-15754300D01*
X8783886Y-15782871D01*
X8783886Y-15940014D01*
X8926743Y-15940014D02*
X8926743Y-15740014D01*
X8926743Y-15768586D02*
X8941028Y-15754300D01*
X8969600Y-15740014D01*
X9012457Y-15740014D01*
X9041028Y-15754300D01*
X9055314Y-15782871D01*
X9055314Y-15940014D01*
X9055314Y-15782871D02*
X9069600Y-15754300D01*
X9098171Y-15740014D01*
X9141028Y-15740014D01*
X9169600Y-15754300D01*
X9183886Y-15782871D01*
X9183886Y-15940014D01*
X9769600Y-15625729D02*
X9512457Y-16011443D01*
X10155314Y-15640014D02*
X10183886Y-15640014D01*
X10212457Y-15654300D01*
X10226743Y-15668586D01*
X10241028Y-15697157D01*
X10255314Y-15754300D01*
X10255314Y-15825729D01*
X10241028Y-15882871D01*
X10226743Y-15911443D01*
X10212457Y-15925729D01*
X10183886Y-15940014D01*
X10155314Y-15940014D01*
X10126743Y-15925729D01*
X10112457Y-15911443D01*
X10098171Y-15882871D01*
X10083886Y-15825729D01*
X10083886Y-15754300D01*
X10098171Y-15697157D01*
X10112457Y-15668586D01*
X10126743Y-15654300D01*
X10155314Y-15640014D01*
X10383886Y-15911443D02*
X10398171Y-15925729D01*
X10383886Y-15940014D01*
X10369600Y-15925729D01*
X10383886Y-15911443D01*
X10383886Y-15940014D01*
X10583886Y-15640014D02*
X10612457Y-15640014D01*
X10641028Y-15654300D01*
X10655314Y-15668586D01*
X10669600Y-15697157D01*
X10683886Y-15754300D01*
X10683886Y-15825729D01*
X10669600Y-15882871D01*
X10655314Y-15911443D01*
X10641028Y-15925729D01*
X10612457Y-15940014D01*
X10583886Y-15940014D01*
X10555314Y-15925729D01*
X10541028Y-15911443D01*
X10526743Y-15882871D01*
X10512457Y-15825729D01*
X10512457Y-15754300D01*
X10526743Y-15697157D01*
X10541028Y-15668586D01*
X10555314Y-15654300D01*
X10583886Y-15640014D01*
X10941028Y-15640014D02*
X10883886Y-15640014D01*
X10855314Y-15654300D01*
X10841028Y-15668586D01*
X10812457Y-15711443D01*
X10798171Y-15768586D01*
X10798171Y-15882871D01*
X10812457Y-15911443D01*
X10826743Y-15925729D01*
X10855314Y-15940014D01*
X10912457Y-15940014D01*
X10941028Y-15925729D01*
X10955314Y-15911443D01*
X10969600Y-15882871D01*
X10969600Y-15811443D01*
X10955314Y-15782871D01*
X10941028Y-15768586D01*
X10912457Y-15754300D01*
X10855314Y-15754300D01*
X10826743Y-15768586D01*
X10812457Y-15782871D01*
X10798171Y-15811443D01*
X11069600Y-15640014D02*
X11255314Y-15640014D01*
X11155314Y-15754300D01*
X11198171Y-15754300D01*
X11226743Y-15768586D01*
X11241028Y-15782871D01*
X11255314Y-15811443D01*
X11255314Y-15882871D01*
X11241028Y-15911443D01*
X11226743Y-15925729D01*
X11198171Y-15940014D01*
X11112457Y-15940014D01*
X11083886Y-15925729D01*
X11069600Y-15911443D01*
X11441028Y-15640014D02*
X11469600Y-15640014D01*
X11498171Y-15654300D01*
X11512457Y-15668586D01*
X11526743Y-15697157D01*
X11541028Y-15754300D01*
X11541028Y-15825729D01*
X11526743Y-15882871D01*
X11512457Y-15911443D01*
X11498171Y-15925729D01*
X11469600Y-15940014D01*
X11441028Y-15940014D01*
X11412457Y-15925729D01*
X11398171Y-15911443D01*
X11383886Y-15882871D01*
X11369600Y-15825729D01*
X11369600Y-15754300D01*
X11383886Y-15697157D01*
X11398171Y-15668586D01*
X11412457Y-15654300D01*
X11441028Y-15640014D01*
X11655314Y-15640014D02*
X11655314Y-15697157D01*
X11769600Y-15640014D02*
X11769600Y-15697157D01*
X12212457Y-16054300D02*
X12198171Y-16040014D01*
X12169600Y-15997157D01*
X12155314Y-15968586D01*
X12141028Y-15925729D01*
X12126743Y-15854300D01*
X12126743Y-15797157D01*
X12141028Y-15725729D01*
X12155314Y-15682871D01*
X12169600Y-15654300D01*
X12198171Y-15611443D01*
X12212457Y-15597157D01*
X12312457Y-15668586D02*
X12326743Y-15654300D01*
X12355314Y-15640014D01*
X12426743Y-15640014D01*
X12455314Y-15654300D01*
X12469600Y-15668586D01*
X12483886Y-15697157D01*
X12483886Y-15725729D01*
X12469600Y-15768586D01*
X12298171Y-15940014D01*
X12483886Y-15940014D01*
X12841028Y-15940014D02*
X12841028Y-15640014D01*
X12969600Y-15940014D02*
X12969600Y-15782871D01*
X12955314Y-15754300D01*
X12926743Y-15740014D01*
X12883886Y-15740014D01*
X12855314Y-15754300D01*
X12841028Y-15768586D01*
X13155314Y-15940014D02*
X13126743Y-15925729D01*
X13112457Y-15911443D01*
X13098171Y-15882871D01*
X13098171Y-15797157D01*
X13112457Y-15768586D01*
X13126743Y-15754300D01*
X13155314Y-15740014D01*
X13198171Y-15740014D01*
X13226743Y-15754300D01*
X13241028Y-15768586D01*
X13255314Y-15797157D01*
X13255314Y-15882871D01*
X13241028Y-15911443D01*
X13226743Y-15925729D01*
X13198171Y-15940014D01*
X13155314Y-15940014D01*
X13426743Y-15940014D02*
X13398171Y-15925729D01*
X13383886Y-15897157D01*
X13383886Y-15640014D01*
X13655314Y-15925729D02*
X13626743Y-15940014D01*
X13569600Y-15940014D01*
X13541028Y-15925729D01*
X13526743Y-15897157D01*
X13526743Y-15782871D01*
X13541028Y-15754300D01*
X13569600Y-15740014D01*
X13626743Y-15740014D01*
X13655314Y-15754300D01*
X13669600Y-15782871D01*
X13669600Y-15811443D01*
X13526743Y-15840014D01*
X13783886Y-15925729D02*
X13812457Y-15940014D01*
X13869600Y-15940014D01*
X13898171Y-15925729D01*
X13912457Y-15897157D01*
X13912457Y-15882871D01*
X13898171Y-15854300D01*
X13869600Y-15840014D01*
X13826743Y-15840014D01*
X13798171Y-15825729D01*
X13783886Y-15797157D01*
X13783886Y-15782871D01*
X13798171Y-15754300D01*
X13826743Y-15740014D01*
X13869600Y-15740014D01*
X13898171Y-15754300D01*
X14012457Y-16054300D02*
X14026743Y-16040014D01*
X14055314Y-15997157D01*
X14069600Y-15968586D01*
X14083886Y-15925729D01*
X14098171Y-15854300D01*
X14098171Y-15797157D01*
X14083886Y-15725729D01*
X14069600Y-15682871D01*
X14055314Y-15654300D01*
X14026743Y-15611443D01*
X14012457Y-15597157D01*
X6798400Y-16044100D02*
X6798400Y-16356500D01*
X6642200Y-16200300D02*
X6954600Y-16200300D01*
X6954600Y-16200300D02*
G75*
G03*
X6954600Y-16200300I-156200J0D01*
G01*
X7212457Y-16036014D02*
X7398171Y-16036014D01*
X7298171Y-16150300D01*
X7341028Y-16150300D01*
X7369600Y-16164586D01*
X7383886Y-16178871D01*
X7398171Y-16207443D01*
X7398171Y-16278871D01*
X7383886Y-16307443D01*
X7369600Y-16321729D01*
X7341028Y-16336014D01*
X7255314Y-16336014D01*
X7226743Y-16321729D01*
X7212457Y-16307443D01*
X7526743Y-16307443D02*
X7541028Y-16321729D01*
X7526743Y-16336014D01*
X7512457Y-16321729D01*
X7526743Y-16307443D01*
X7526743Y-16336014D01*
X7826743Y-16336014D02*
X7655314Y-16336014D01*
X7741028Y-16336014D02*
X7741028Y-16036014D01*
X7712457Y-16078871D01*
X7683886Y-16107443D01*
X7655314Y-16121729D01*
X7941028Y-16064586D02*
X7955314Y-16050300D01*
X7983886Y-16036014D01*
X8055314Y-16036014D01*
X8083886Y-16050300D01*
X8098171Y-16064586D01*
X8112457Y-16093157D01*
X8112457Y-16121729D01*
X8098171Y-16164586D01*
X7926743Y-16336014D01*
X8112457Y-16336014D01*
X8369600Y-16136014D02*
X8369600Y-16336014D01*
X8298171Y-16021729D02*
X8226743Y-16236014D01*
X8412457Y-16236014D01*
X8526743Y-16336014D02*
X8526743Y-16136014D01*
X8526743Y-16164586D02*
X8541028Y-16150300D01*
X8569600Y-16136014D01*
X8612457Y-16136014D01*
X8641028Y-16150300D01*
X8655314Y-16178871D01*
X8655314Y-16336014D01*
X8655314Y-16178871D02*
X8669600Y-16150300D01*
X8698171Y-16136014D01*
X8741028Y-16136014D01*
X8769600Y-16150300D01*
X8783886Y-16178871D01*
X8783886Y-16336014D01*
X8926743Y-16336014D02*
X8926743Y-16136014D01*
X8926743Y-16164586D02*
X8941028Y-16150300D01*
X8969600Y-16136014D01*
X9012457Y-16136014D01*
X9041028Y-16150300D01*
X9055314Y-16178871D01*
X9055314Y-16336014D01*
X9055314Y-16178871D02*
X9069600Y-16150300D01*
X9098171Y-16136014D01*
X9141028Y-16136014D01*
X9169600Y-16150300D01*
X9183886Y-16178871D01*
X9183886Y-16336014D01*
X9769600Y-16021729D02*
X9512457Y-16407443D01*
X10155314Y-16036014D02*
X10183886Y-16036014D01*
X10212457Y-16050300D01*
X10226743Y-16064586D01*
X10241028Y-16093157D01*
X10255314Y-16150300D01*
X10255314Y-16221729D01*
X10241028Y-16278871D01*
X10226743Y-16307443D01*
X10212457Y-16321729D01*
X10183886Y-16336014D01*
X10155314Y-16336014D01*
X10126743Y-16321729D01*
X10112457Y-16307443D01*
X10098171Y-16278871D01*
X10083886Y-16221729D01*
X10083886Y-16150300D01*
X10098171Y-16093157D01*
X10112457Y-16064586D01*
X10126743Y-16050300D01*
X10155314Y-16036014D01*
X10383886Y-16307443D02*
X10398171Y-16321729D01*
X10383886Y-16336014D01*
X10369600Y-16321729D01*
X10383886Y-16307443D01*
X10383886Y-16336014D01*
X10683886Y-16336014D02*
X10512457Y-16336014D01*
X10598171Y-16336014D02*
X10598171Y-16036014D01*
X10569600Y-16078871D01*
X10541028Y-16107443D01*
X10512457Y-16121729D01*
X10798171Y-16064586D02*
X10812457Y-16050300D01*
X10841028Y-16036014D01*
X10912457Y-16036014D01*
X10941028Y-16050300D01*
X10955314Y-16064586D01*
X10969600Y-16093157D01*
X10969600Y-16121729D01*
X10955314Y-16164586D01*
X10783886Y-16336014D01*
X10969600Y-16336014D01*
X11069600Y-16036014D02*
X11255314Y-16036014D01*
X11155314Y-16150300D01*
X11198171Y-16150300D01*
X11226743Y-16164586D01*
X11241028Y-16178871D01*
X11255314Y-16207443D01*
X11255314Y-16278871D01*
X11241028Y-16307443D01*
X11226743Y-16321729D01*
X11198171Y-16336014D01*
X11112457Y-16336014D01*
X11083886Y-16321729D01*
X11069600Y-16307443D01*
X11441028Y-16036014D02*
X11469600Y-16036014D01*
X11498171Y-16050300D01*
X11512457Y-16064586D01*
X11526743Y-16093157D01*
X11541028Y-16150300D01*
X11541028Y-16221729D01*
X11526743Y-16278871D01*
X11512457Y-16307443D01*
X11498171Y-16321729D01*
X11469600Y-16336014D01*
X11441028Y-16336014D01*
X11412457Y-16321729D01*
X11398171Y-16307443D01*
X11383886Y-16278871D01*
X11369600Y-16221729D01*
X11369600Y-16150300D01*
X11383886Y-16093157D01*
X11398171Y-16064586D01*
X11412457Y-16050300D01*
X11441028Y-16036014D01*
X11655314Y-16036014D02*
X11655314Y-16093157D01*
X11769600Y-16036014D02*
X11769600Y-16093157D01*
X12212457Y-16450300D02*
X12198171Y-16436014D01*
X12169600Y-16393157D01*
X12155314Y-16364586D01*
X12141028Y-16321729D01*
X12126743Y-16250300D01*
X12126743Y-16193157D01*
X12141028Y-16121729D01*
X12155314Y-16078871D01*
X12169600Y-16050300D01*
X12198171Y-16007443D01*
X12212457Y-15993157D01*
X12312457Y-16064586D02*
X12326743Y-16050300D01*
X12355314Y-16036014D01*
X12426743Y-16036014D01*
X12455314Y-16050300D01*
X12469600Y-16064586D01*
X12483886Y-16093157D01*
X12483886Y-16121729D01*
X12469600Y-16164586D01*
X12298171Y-16336014D01*
X12483886Y-16336014D01*
X12841028Y-16336014D02*
X12841028Y-16036014D01*
X12969600Y-16336014D02*
X12969600Y-16178871D01*
X12955314Y-16150300D01*
X12926743Y-16136014D01*
X12883886Y-16136014D01*
X12855314Y-16150300D01*
X12841028Y-16164586D01*
X13155314Y-16336014D02*
X13126743Y-16321729D01*
X13112457Y-16307443D01*
X13098171Y-16278871D01*
X13098171Y-16193157D01*
X13112457Y-16164586D01*
X13126743Y-16150300D01*
X13155314Y-16136014D01*
X13198171Y-16136014D01*
X13226743Y-16150300D01*
X13241028Y-16164586D01*
X13255314Y-16193157D01*
X13255314Y-16278871D01*
X13241028Y-16307443D01*
X13226743Y-16321729D01*
X13198171Y-16336014D01*
X13155314Y-16336014D01*
X13426743Y-16336014D02*
X13398171Y-16321729D01*
X13383886Y-16293157D01*
X13383886Y-16036014D01*
X13655314Y-16321729D02*
X13626743Y-16336014D01*
X13569600Y-16336014D01*
X13541028Y-16321729D01*
X13526743Y-16293157D01*
X13526743Y-16178871D01*
X13541028Y-16150300D01*
X13569600Y-16136014D01*
X13626743Y-16136014D01*
X13655314Y-16150300D01*
X13669600Y-16178871D01*
X13669600Y-16207443D01*
X13526743Y-16236014D01*
X13783886Y-16321729D02*
X13812457Y-16336014D01*
X13869600Y-16336014D01*
X13898171Y-16321729D01*
X13912457Y-16293157D01*
X13912457Y-16278871D01*
X13898171Y-16250300D01*
X13869600Y-16236014D01*
X13826743Y-16236014D01*
X13798171Y-16221729D01*
X13783886Y-16193157D01*
X13783886Y-16178871D01*
X13798171Y-16150300D01*
X13826743Y-16136014D01*
X13869600Y-16136014D01*
X13898171Y-16150300D01*
X14012457Y-16450300D02*
X14026743Y-16436014D01*
X14055314Y-16393157D01*
X14069600Y-16364586D01*
X14083886Y-16321729D01*
X14098171Y-16250300D01*
X14098171Y-16193157D01*
X14083886Y-16121729D01*
X14069600Y-16078871D01*
X14055314Y-16050300D01*
X14026743Y-16007443D01*
X14012457Y-15993157D01*
M02*
