G04 #@! TF.GenerationSoftware,KiCad,Pcbnew,(5.1.10)-1*
G04 #@! TF.CreationDate,2021-12-28T21:38:16-08:00*
G04 #@! TF.ProjectId,breadboardPower,62726561-6462-46f6-9172-64506f776572,rev?*
G04 #@! TF.SameCoordinates,Original*
G04 #@! TF.FileFunction,Legend,Bot*
G04 #@! TF.FilePolarity,Positive*
%FSLAX46Y46*%
G04 Gerber Fmt 4.6, Leading zero omitted, Abs format (unit mm)*
G04 Created by KiCad (PCBNEW (5.1.10)-1) date 2021-12-28 21:38:16*
%MOMM*%
%LPD*%
G01*
G04 APERTURE LIST*
%ADD10C,0.150000*%
%ADD11C,4.800000*%
%ADD12C,1.800000*%
%ADD13O,1.700000X1.700000*%
%ADD14R,1.700000X1.700000*%
%ADD15C,2.000000*%
%ADD16C,1.524000*%
%ADD17C,3.000000*%
%ADD18O,2.000000X1.905000*%
%ADD19R,2.000000X1.905000*%
%ADD20C,1.200000*%
%ADD21O,4.000000X2.000000*%
%ADD22O,2.000000X4.000000*%
%ADD23O,2.200000X2.200000*%
%ADD24R,2.200000X2.200000*%
%ADD25R,1.800000X1.800000*%
G04 APERTURE END LIST*
D10*
X107060476Y-115641380D02*
X107393809Y-115165190D01*
X107631904Y-115641380D02*
X107631904Y-114641380D01*
X107250952Y-114641380D01*
X107155714Y-114689000D01*
X107108095Y-114736619D01*
X107060476Y-114831857D01*
X107060476Y-114974714D01*
X107108095Y-115069952D01*
X107155714Y-115117571D01*
X107250952Y-115165190D01*
X107631904Y-115165190D01*
X106250952Y-115593761D02*
X106346190Y-115641380D01*
X106536666Y-115641380D01*
X106631904Y-115593761D01*
X106679523Y-115498523D01*
X106679523Y-115117571D01*
X106631904Y-115022333D01*
X106536666Y-114974714D01*
X106346190Y-114974714D01*
X106250952Y-115022333D01*
X106203333Y-115117571D01*
X106203333Y-115212809D01*
X106679523Y-115308047D01*
X105870000Y-114974714D02*
X105631904Y-115641380D01*
X105393809Y-114974714D01*
X104298571Y-115355666D02*
X103822380Y-115355666D01*
X104393809Y-115641380D02*
X104060476Y-114641380D01*
X103727142Y-115641380D01*
X103393809Y-115546142D02*
X103346190Y-115593761D01*
X103393809Y-115641380D01*
X103441428Y-115593761D01*
X103393809Y-115546142D01*
X103393809Y-115641380D01*
X103393809Y-115022333D02*
X103346190Y-115069952D01*
X103393809Y-115117571D01*
X103441428Y-115069952D01*
X103393809Y-115022333D01*
X103393809Y-115117571D01*
X101822380Y-115117571D02*
X101679523Y-115165190D01*
X101631904Y-115212809D01*
X101584285Y-115308047D01*
X101584285Y-115450904D01*
X101631904Y-115546142D01*
X101679523Y-115593761D01*
X101774761Y-115641380D01*
X102155714Y-115641380D01*
X102155714Y-114641380D01*
X101822380Y-114641380D01*
X101727142Y-114689000D01*
X101679523Y-114736619D01*
X101631904Y-114831857D01*
X101631904Y-114927095D01*
X101679523Y-115022333D01*
X101727142Y-115069952D01*
X101822380Y-115117571D01*
X102155714Y-115117571D01*
X101012857Y-115641380D02*
X101108095Y-115593761D01*
X101155714Y-115546142D01*
X101203333Y-115450904D01*
X101203333Y-115165190D01*
X101155714Y-115069952D01*
X101108095Y-115022333D01*
X101012857Y-114974714D01*
X100870000Y-114974714D01*
X100774761Y-115022333D01*
X100727142Y-115069952D01*
X100679523Y-115165190D01*
X100679523Y-115450904D01*
X100727142Y-115546142D01*
X100774761Y-115593761D01*
X100870000Y-115641380D01*
X101012857Y-115641380D01*
X100108095Y-115641380D02*
X100203333Y-115593761D01*
X100250952Y-115546142D01*
X100298571Y-115450904D01*
X100298571Y-115165190D01*
X100250952Y-115069952D01*
X100203333Y-115022333D01*
X100108095Y-114974714D01*
X99965238Y-114974714D01*
X99870000Y-115022333D01*
X99822380Y-115069952D01*
X99774761Y-115165190D01*
X99774761Y-115450904D01*
X99822380Y-115546142D01*
X99870000Y-115593761D01*
X99965238Y-115641380D01*
X100108095Y-115641380D01*
X99346190Y-114974714D02*
X99346190Y-115641380D01*
X99346190Y-115069952D02*
X99298571Y-115022333D01*
X99203333Y-114974714D01*
X99060476Y-114974714D01*
X98965238Y-115022333D01*
X98917619Y-115117571D01*
X98917619Y-115641380D01*
X98536666Y-114974714D02*
X98012857Y-114974714D01*
X98536666Y-115641380D01*
X98012857Y-115641380D01*
%LPC*%
D11*
X95800000Y-98460800D03*
X87000000Y-98460800D03*
D12*
X93900000Y-105460800D03*
X91400000Y-105460800D03*
X88900000Y-105460800D03*
D13*
X87757000Y-67818000D03*
D14*
X87757000Y-70358000D03*
D15*
X72898000Y-78613000D03*
X95123000Y-78613000D03*
D16*
X77343000Y-78613000D03*
X90678000Y-78613000D03*
D17*
X74612500Y-91747500D03*
X74612500Y-109547500D03*
D18*
X76390500Y-98107499D03*
X76390500Y-100647499D03*
D19*
X76390500Y-103187499D03*
D20*
X87915500Y-112649000D03*
X85915500Y-112649000D03*
X94710000Y-112649000D03*
X92710000Y-112649000D03*
D13*
X105219500Y-67665600D03*
D14*
X105219500Y-65125600D03*
D13*
X104584500Y-110082000D03*
D14*
X104584500Y-112622000D03*
D21*
X80643000Y-70894000D03*
D22*
X83443000Y-66294000D03*
X77343000Y-66294000D03*
D23*
X95656400Y-90068400D03*
D24*
X85496400Y-90068400D03*
D23*
X95656400Y-86207600D03*
D24*
X85496400Y-86207600D03*
D12*
X92881902Y-67367211D03*
D25*
X92881902Y-64827211D03*
M02*
