G04*
G04 #@! TF.GenerationSoftware,Altium Limited,Altium Designer,22.10.1 (41)*
G04*
G04 Layer_Physical_Order=1*
G04 Layer_Color=255*
%FSLAX25Y25*%
%MOIN*%
G70*
G04*
G04 #@! TF.SameCoordinates,DCEE1EC3-E607-4C09-92B5-72201EF966A2*
G04*
G04*
G04 #@! TF.FilePolarity,Positive*
G04*
G01*
G75*
%ADD13C,0.00591*%
%ADD15C,0.01000*%
G04:AMPARAMS|DCode=30|XSize=17.72mil|YSize=64.96mil|CornerRadius=1.95mil|HoleSize=0mil|Usage=FLASHONLY|Rotation=0.000|XOffset=0mil|YOffset=0mil|HoleType=Round|Shape=RoundedRectangle|*
%AMROUNDEDRECTD30*
21,1,0.01772,0.06106,0,0,0.0*
21,1,0.01382,0.06496,0,0,0.0*
1,1,0.00390,0.00691,-0.03053*
1,1,0.00390,-0.00691,-0.03053*
1,1,0.00390,-0.00691,0.03053*
1,1,0.00390,0.00691,0.03053*
%
%ADD30ROUNDEDRECTD30*%
%ADD31R,0.05512X0.05118*%
%ADD32R,0.05118X0.05512*%
%ADD33R,0.05315X0.04528*%
%ADD34R,0.04724X0.04724*%
%ADD35R,0.01968X0.00984*%
%ADD36R,0.03150X0.01968*%
%ADD37R,0.01968X0.03150*%
%ADD38R,0.01968X0.01673*%
%ADD39C,0.05000*%
%ADD40C,0.05079*%
%ADD41O,0.08858X0.06299*%
%ADD42C,0.02800*%
%ADD43C,0.05000*%
%ADD44C,0.12500*%
G36*
X268271Y248635D02*
X270000Y247919D01*
X271556Y246879D01*
X272879Y245556D01*
X273919Y244000D01*
X274635Y242271D01*
X275000Y240436D01*
Y239500D01*
Y10000D01*
Y9015D01*
X274616Y7083D01*
X273862Y5263D01*
X272767Y3625D01*
X271375Y2232D01*
X269737Y1138D01*
X267917Y384D01*
X265985Y0D01*
X9015D01*
X7083Y384D01*
X5263Y1138D01*
X3625Y2232D01*
X2232Y3625D01*
X1138Y5263D01*
X384Y7083D01*
X0Y9015D01*
Y10000D01*
Y239000D01*
Y239985D01*
X384Y241917D01*
X1138Y243737D01*
X2232Y245375D01*
X3625Y246767D01*
X5263Y247862D01*
X7083Y248616D01*
X9015Y249000D01*
X266436D01*
X268271Y248635D01*
D02*
G37*
%LPC*%
G36*
X43000Y246818D02*
Y240083D01*
X49736D01*
X49645Y241004D01*
X49231Y242371D01*
X48557Y243630D01*
X47651Y244734D01*
X46547Y245640D01*
X45288Y246313D01*
X43921Y246728D01*
X43000Y246818D01*
D02*
G37*
G36*
X42000D02*
X41079Y246728D01*
X39712Y246313D01*
X38453Y245640D01*
X37349Y244734D01*
X36443Y243630D01*
X35770Y242371D01*
X35355Y241004D01*
X35264Y240083D01*
X42000D01*
Y246818D01*
D02*
G37*
G36*
X233000Y241818D02*
Y235083D01*
X239736D01*
X239645Y236004D01*
X239230Y237371D01*
X238557Y238630D01*
X237651Y239734D01*
X236547Y240640D01*
X235288Y241313D01*
X233921Y241728D01*
X233000Y241818D01*
D02*
G37*
G36*
X232000D02*
X231079Y241728D01*
X229712Y241313D01*
X228453Y240640D01*
X227349Y239734D01*
X226443Y238630D01*
X225769Y237371D01*
X225355Y236004D01*
X225264Y235083D01*
X232000D01*
Y241818D01*
D02*
G37*
G36*
X49736Y239083D02*
X43000D01*
Y232347D01*
X43921Y232438D01*
X45288Y232852D01*
X46547Y233525D01*
X47651Y234431D01*
X48557Y235535D01*
X49231Y236795D01*
X49645Y238161D01*
X49736Y239083D01*
D02*
G37*
G36*
X42000D02*
X35264D01*
X35355Y238161D01*
X35770Y236795D01*
X36443Y235535D01*
X37349Y234431D01*
X38453Y233525D01*
X39712Y232852D01*
X41079Y232438D01*
X42000Y232347D01*
Y239083D01*
D02*
G37*
G36*
X267000Y230848D02*
Y229000D01*
X268848D01*
X268761Y229436D01*
X268230Y230230D01*
X267436Y230761D01*
X267000Y230848D01*
D02*
G37*
G36*
X266000D02*
X265564Y230761D01*
X264770Y230230D01*
X264239Y229436D01*
X264152Y229000D01*
X266000D01*
Y230848D01*
D02*
G37*
G36*
X252000D02*
Y229000D01*
X253848D01*
X253761Y229436D01*
X253230Y230230D01*
X252436Y230761D01*
X252000Y230848D01*
D02*
G37*
G36*
X251000D02*
X250564Y230761D01*
X249770Y230230D01*
X249239Y229436D01*
X249152Y229000D01*
X251000D01*
Y230848D01*
D02*
G37*
G36*
X222000D02*
Y229000D01*
X223848D01*
X223761Y229436D01*
X223230Y230230D01*
X222436Y230761D01*
X222000Y230848D01*
D02*
G37*
G36*
X221000D02*
X220564Y230761D01*
X219770Y230230D01*
X219239Y229436D01*
X219152Y229000D01*
X221000D01*
Y230848D01*
D02*
G37*
G36*
X207000D02*
Y229000D01*
X208848D01*
X208761Y229436D01*
X208230Y230230D01*
X207436Y230761D01*
X207000Y230848D01*
D02*
G37*
G36*
X87000D02*
Y229000D01*
X88848D01*
X88761Y229436D01*
X88230Y230230D01*
X87436Y230761D01*
X87000Y230848D01*
D02*
G37*
G36*
X86000D02*
X85564Y230761D01*
X84770Y230230D01*
X84239Y229436D01*
X84152Y229000D01*
X86000D01*
Y230848D01*
D02*
G37*
G36*
X72000D02*
Y229000D01*
X73848D01*
X73761Y229436D01*
X73230Y230230D01*
X72436Y230761D01*
X72000Y230848D01*
D02*
G37*
G36*
X71000D02*
X70564Y230761D01*
X69770Y230230D01*
X69239Y229436D01*
X69152Y229000D01*
X71000D01*
Y230848D01*
D02*
G37*
G36*
X57000D02*
Y229000D01*
X58848D01*
X58761Y229436D01*
X58230Y230230D01*
X57436Y230761D01*
X57000Y230848D01*
D02*
G37*
G36*
X56000D02*
X55564Y230761D01*
X54770Y230230D01*
X54239Y229436D01*
X54152Y229000D01*
X56000D01*
Y230848D01*
D02*
G37*
G36*
X42000D02*
Y229000D01*
X43848D01*
X43761Y229436D01*
X43230Y230230D01*
X42436Y230761D01*
X42000Y230848D01*
D02*
G37*
G36*
X41000D02*
X40564Y230761D01*
X39770Y230230D01*
X39239Y229436D01*
X39152Y229000D01*
X41000D01*
Y230848D01*
D02*
G37*
G36*
X27000D02*
Y229000D01*
X28848D01*
X28761Y229436D01*
X28230Y230230D01*
X27436Y230761D01*
X27000Y230848D01*
D02*
G37*
G36*
X26000D02*
X25564Y230761D01*
X24770Y230230D01*
X24239Y229436D01*
X24152Y229000D01*
X26000D01*
Y230848D01*
D02*
G37*
G36*
X12000D02*
Y229000D01*
X13848D01*
X13761Y229436D01*
X13230Y230230D01*
X12436Y230761D01*
X12000Y230848D01*
D02*
G37*
G36*
X11000D02*
X10564Y230761D01*
X9770Y230230D01*
X9239Y229436D01*
X9152Y229000D01*
X11000D01*
Y230848D01*
D02*
G37*
G36*
X239736Y234083D02*
X233000D01*
Y227347D01*
X233921Y227438D01*
X235288Y227852D01*
X236547Y228525D01*
X237651Y229431D01*
X238557Y230535D01*
X239230Y231795D01*
X239645Y233161D01*
X239736Y234083D01*
D02*
G37*
G36*
X232000D02*
X225264D01*
X225355Y233161D01*
X225769Y231795D01*
X226443Y230535D01*
X227349Y229431D01*
X228453Y228525D01*
X229712Y227852D01*
X231079Y227438D01*
X232000Y227347D01*
Y234083D01*
D02*
G37*
G36*
X268848Y228000D02*
X267000D01*
Y226152D01*
X267436Y226239D01*
X268230Y226770D01*
X268761Y227564D01*
X268848Y228000D01*
D02*
G37*
G36*
X266000D02*
X264152D01*
X264239Y227564D01*
X264770Y226770D01*
X265564Y226239D01*
X266000Y226152D01*
Y228000D01*
D02*
G37*
G36*
X253848D02*
X252000D01*
Y226152D01*
X252436Y226239D01*
X253230Y226770D01*
X253761Y227564D01*
X253848Y228000D01*
D02*
G37*
G36*
X251000D02*
X249152D01*
X249239Y227564D01*
X249770Y226770D01*
X250564Y226239D01*
X251000Y226152D01*
Y228000D01*
D02*
G37*
G36*
X223848D02*
X222000D01*
Y226152D01*
X222436Y226239D01*
X223230Y226770D01*
X223761Y227564D01*
X223848Y228000D01*
D02*
G37*
G36*
X221000D02*
X219152D01*
X219239Y227564D01*
X219770Y226770D01*
X220564Y226239D01*
X221000Y226152D01*
Y228000D01*
D02*
G37*
G36*
X88848D02*
X87000D01*
Y226152D01*
X87436Y226239D01*
X88230Y226770D01*
X88761Y227564D01*
X88848Y228000D01*
D02*
G37*
G36*
X86000D02*
X84152D01*
X84239Y227564D01*
X84770Y226770D01*
X85564Y226239D01*
X86000Y226152D01*
Y228000D01*
D02*
G37*
G36*
X73848D02*
X72000D01*
Y226152D01*
X72436Y226239D01*
X73230Y226770D01*
X73761Y227564D01*
X73848Y228000D01*
D02*
G37*
G36*
X71000D02*
X69152D01*
X69239Y227564D01*
X69770Y226770D01*
X70564Y226239D01*
X71000Y226152D01*
Y228000D01*
D02*
G37*
G36*
X58848D02*
X57000D01*
Y226152D01*
X57436Y226239D01*
X58230Y226770D01*
X58761Y227564D01*
X58848Y228000D01*
D02*
G37*
G36*
X56000D02*
X54152D01*
X54239Y227564D01*
X54770Y226770D01*
X55564Y226239D01*
X56000Y226152D01*
Y228000D01*
D02*
G37*
G36*
X43848D02*
X42000D01*
Y226152D01*
X42436Y226239D01*
X43230Y226770D01*
X43761Y227564D01*
X43848Y228000D01*
D02*
G37*
G36*
X41000D02*
X39152D01*
X39239Y227564D01*
X39770Y226770D01*
X40564Y226239D01*
X41000Y226152D01*
Y228000D01*
D02*
G37*
G36*
X28848D02*
X27000D01*
Y226152D01*
X27436Y226239D01*
X28230Y226770D01*
X28761Y227564D01*
X28848Y228000D01*
D02*
G37*
G36*
X26000D02*
X24152D01*
X24239Y227564D01*
X24770Y226770D01*
X25564Y226239D01*
X26000Y226152D01*
Y228000D01*
D02*
G37*
G36*
X13848D02*
X12000D01*
Y226152D01*
X12436Y226239D01*
X13230Y226770D01*
X13761Y227564D01*
X13848Y228000D01*
D02*
G37*
G36*
X11000D02*
X9152D01*
X9239Y227564D01*
X9770Y226770D01*
X10564Y226239D01*
X11000Y226152D01*
Y228000D01*
D02*
G37*
G36*
X259500Y215848D02*
Y214000D01*
X261348D01*
X261261Y214436D01*
X260730Y215230D01*
X259936Y215761D01*
X259500Y215848D01*
D02*
G37*
G36*
X258500D02*
X258064Y215761D01*
X257270Y215230D01*
X256739Y214436D01*
X256652Y214000D01*
X258500D01*
Y215848D01*
D02*
G37*
G36*
X184500D02*
Y214000D01*
X186348D01*
X186261Y214436D01*
X185730Y215230D01*
X184936Y215761D01*
X184500Y215848D01*
D02*
G37*
G36*
X183500D02*
X183064Y215761D01*
X182270Y215230D01*
X181739Y214436D01*
X181652Y214000D01*
X183500D01*
Y215848D01*
D02*
G37*
G36*
X64500D02*
Y214000D01*
X66348D01*
X66261Y214436D01*
X65730Y215230D01*
X64936Y215761D01*
X64500Y215848D01*
D02*
G37*
G36*
X63500D02*
X63064Y215761D01*
X62270Y215230D01*
X61739Y214436D01*
X61652Y214000D01*
X63500D01*
Y215848D01*
D02*
G37*
G36*
X49500D02*
Y214000D01*
X51348D01*
X51261Y214436D01*
X50730Y215230D01*
X49936Y215761D01*
X49500Y215848D01*
D02*
G37*
G36*
X48500D02*
X48064Y215761D01*
X47270Y215230D01*
X46739Y214436D01*
X46652Y214000D01*
X48500D01*
Y215848D01*
D02*
G37*
G36*
X34500D02*
Y214000D01*
X36348D01*
X36261Y214436D01*
X35730Y215230D01*
X34936Y215761D01*
X34500Y215848D01*
D02*
G37*
G36*
X33500D02*
X33064Y215761D01*
X32270Y215230D01*
X31739Y214436D01*
X31652Y214000D01*
X33500D01*
Y215848D01*
D02*
G37*
G36*
X19500D02*
Y214000D01*
X21348D01*
X21261Y214436D01*
X20730Y215230D01*
X19936Y215761D01*
X19500Y215848D01*
D02*
G37*
G36*
X18500D02*
X18064Y215761D01*
X17270Y215230D01*
X16739Y214436D01*
X16652Y214000D01*
X18500D01*
Y215848D01*
D02*
G37*
G36*
X4500D02*
Y214000D01*
X6348D01*
X6261Y214436D01*
X5730Y215230D01*
X4936Y215761D01*
X4500Y215848D01*
D02*
G37*
G36*
X3500D02*
X3064Y215761D01*
X2270Y215230D01*
X1739Y214436D01*
X1652Y214000D01*
X3500D01*
Y215848D01*
D02*
G37*
G36*
X193043Y216043D02*
X192852D01*
X192386Y215950D01*
X191991Y215686D01*
X191727Y215291D01*
X191634Y214825D01*
Y212272D01*
X193043D01*
Y216043D01*
D02*
G37*
G36*
X261348Y213000D02*
X259500D01*
Y211152D01*
X259936Y211239D01*
X260730Y211770D01*
X261261Y212564D01*
X261348Y213000D01*
D02*
G37*
G36*
X258500D02*
X256652D01*
X256739Y212564D01*
X257270Y211770D01*
X258064Y211239D01*
X258500Y211152D01*
Y213000D01*
D02*
G37*
G36*
X186348D02*
X184500D01*
Y211152D01*
X184936Y211239D01*
X185730Y211770D01*
X186261Y212564D01*
X186348Y213000D01*
D02*
G37*
G36*
X183500D02*
X181652D01*
X181739Y212564D01*
X182270Y211770D01*
X183064Y211239D01*
X183500Y211152D01*
Y213000D01*
D02*
G37*
G36*
X66348D02*
X64500D01*
Y211152D01*
X64936Y211239D01*
X65730Y211770D01*
X66261Y212564D01*
X66348Y213000D01*
D02*
G37*
G36*
X63500D02*
X61652D01*
X61739Y212564D01*
X62270Y211770D01*
X63064Y211239D01*
X63500Y211152D01*
Y213000D01*
D02*
G37*
G36*
X51348D02*
X49500D01*
Y211152D01*
X49936Y211239D01*
X50730Y211770D01*
X51261Y212564D01*
X51348Y213000D01*
D02*
G37*
G36*
X48500D02*
X46652D01*
X46739Y212564D01*
X47270Y211770D01*
X48064Y211239D01*
X48500Y211152D01*
Y213000D01*
D02*
G37*
G36*
X36348D02*
X34500D01*
Y211152D01*
X34936Y211239D01*
X35730Y211770D01*
X36261Y212564D01*
X36348Y213000D01*
D02*
G37*
G36*
X33500D02*
X31652D01*
X31739Y212564D01*
X32270Y211770D01*
X33064Y211239D01*
X33500Y211152D01*
Y213000D01*
D02*
G37*
G36*
X21348D02*
X19500D01*
Y211152D01*
X19936Y211239D01*
X20730Y211770D01*
X21261Y212564D01*
X21348Y213000D01*
D02*
G37*
G36*
X18500D02*
X16652D01*
X16739Y212564D01*
X17270Y211770D01*
X18064Y211239D01*
X18500Y211152D01*
Y213000D01*
D02*
G37*
G36*
X6348D02*
X4500D01*
Y211152D01*
X4936Y211239D01*
X5730Y211770D01*
X6261Y212564D01*
X6348Y213000D01*
D02*
G37*
G36*
X3500D02*
X1652D01*
X1739Y212564D01*
X2270Y211770D01*
X3064Y211239D01*
X3500Y211152D01*
Y213000D01*
D02*
G37*
G36*
X193043Y211272D02*
X191634D01*
Y208718D01*
X191727Y208252D01*
X191991Y207857D01*
X192386Y207593D01*
X192852Y207500D01*
X193043D01*
Y211272D01*
D02*
G37*
G36*
X224256Y207209D02*
X221000D01*
Y204150D01*
X224256D01*
Y207209D01*
D02*
G37*
G36*
X211478Y203541D02*
X211088Y203464D01*
X210757Y203243D01*
X210536Y202912D01*
X210459Y202522D01*
X210536Y202132D01*
X210757Y201801D01*
X210779Y201779D01*
X211110Y201558D01*
X211500Y201480D01*
X211890Y201558D01*
X212221Y201779D01*
X212442Y202110D01*
X212520Y202500D01*
X212442Y202890D01*
X212221Y203221D01*
X212199Y203243D01*
X211869Y203464D01*
X211478Y203541D01*
D02*
G37*
G36*
X233780Y204768D02*
X233000D01*
Y201083D01*
X237899D01*
X237822Y201666D01*
X237404Y202675D01*
X236739Y203542D01*
X235872Y204207D01*
X234863Y204626D01*
X233780Y204768D01*
D02*
G37*
G36*
X267000Y200848D02*
Y199000D01*
X268848D01*
X268761Y199436D01*
X268230Y200230D01*
X267436Y200761D01*
X267000Y200848D01*
D02*
G37*
G36*
X266000D02*
X265564Y200761D01*
X264770Y200230D01*
X264239Y199436D01*
X264152Y199000D01*
X266000D01*
Y200848D01*
D02*
G37*
G36*
X252000D02*
Y199000D01*
X253848D01*
X253761Y199436D01*
X253230Y200230D01*
X252436Y200761D01*
X252000Y200848D01*
D02*
G37*
G36*
X251000D02*
X250564Y200761D01*
X249770Y200230D01*
X249239Y199436D01*
X249152Y199000D01*
X251000D01*
Y200848D01*
D02*
G37*
G36*
X207000D02*
Y199000D01*
X208848D01*
X208761Y199436D01*
X208230Y200230D01*
X207436Y200761D01*
X207000Y200848D01*
D02*
G37*
G36*
X206000D02*
X205564Y200761D01*
X204770Y200230D01*
X204239Y199436D01*
X204152Y199000D01*
X206000D01*
Y200848D01*
D02*
G37*
G36*
X192000D02*
Y199000D01*
X193848D01*
X193761Y199436D01*
X193230Y200230D01*
X192436Y200761D01*
X192000Y200848D01*
D02*
G37*
G36*
X191000D02*
X190564Y200761D01*
X189770Y200230D01*
X189239Y199436D01*
X189152Y199000D01*
X191000D01*
Y200848D01*
D02*
G37*
G36*
X57000D02*
Y199000D01*
X58848D01*
X58761Y199436D01*
X58230Y200230D01*
X57436Y200761D01*
X57000Y200848D01*
D02*
G37*
G36*
X56000D02*
X55564Y200761D01*
X54770Y200230D01*
X54239Y199436D01*
X54152Y199000D01*
X56000D01*
Y200848D01*
D02*
G37*
G36*
X42000D02*
Y199000D01*
X43848D01*
X43761Y199436D01*
X43230Y200230D01*
X42436Y200761D01*
X42000Y200848D01*
D02*
G37*
G36*
X41000D02*
X40564Y200761D01*
X39770Y200230D01*
X39239Y199436D01*
X39152Y199000D01*
X41000D01*
Y200848D01*
D02*
G37*
G36*
X27000D02*
Y199000D01*
X28848D01*
X28761Y199436D01*
X28230Y200230D01*
X27436Y200761D01*
X27000Y200848D01*
D02*
G37*
G36*
X26000D02*
X25564Y200761D01*
X24770Y200230D01*
X24239Y199436D01*
X24152Y199000D01*
X26000D01*
Y200848D01*
D02*
G37*
G36*
X12000D02*
Y199000D01*
X13848D01*
X13761Y199436D01*
X13230Y200230D01*
X12436Y200761D01*
X12000Y200848D01*
D02*
G37*
G36*
X11000D02*
X10564Y200761D01*
X9770Y200230D01*
X9239Y199436D01*
X9152Y199000D01*
X11000D01*
Y200848D01*
D02*
G37*
G36*
X237899Y200083D02*
X233000D01*
Y196397D01*
X233780D01*
X234863Y196540D01*
X235872Y196958D01*
X236739Y197623D01*
X237404Y198490D01*
X237822Y199499D01*
X237899Y200083D01*
D02*
G37*
G36*
X268848Y198000D02*
X267000D01*
Y196152D01*
X267436Y196239D01*
X268230Y196770D01*
X268761Y197564D01*
X268848Y198000D01*
D02*
G37*
G36*
X266000D02*
X264152D01*
X264239Y197564D01*
X264770Y196770D01*
X265564Y196239D01*
X266000Y196152D01*
Y198000D01*
D02*
G37*
G36*
X253848D02*
X252000D01*
Y196152D01*
X252436Y196239D01*
X253230Y196770D01*
X253761Y197564D01*
X253848Y198000D01*
D02*
G37*
G36*
X251000D02*
X249152D01*
X249239Y197564D01*
X249770Y196770D01*
X250564Y196239D01*
X251000Y196152D01*
Y198000D01*
D02*
G37*
G36*
X208848D02*
X207000D01*
Y196152D01*
X207436Y196239D01*
X208230Y196770D01*
X208761Y197564D01*
X208848Y198000D01*
D02*
G37*
G36*
X206000D02*
X204152D01*
X204239Y197564D01*
X204770Y196770D01*
X205564Y196239D01*
X206000Y196152D01*
Y198000D01*
D02*
G37*
G36*
X193848D02*
X192000D01*
Y196152D01*
X192436Y196239D01*
X193230Y196770D01*
X193761Y197564D01*
X193848Y198000D01*
D02*
G37*
G36*
X191000D02*
X189152D01*
X189239Y197564D01*
X189770Y196770D01*
X190564Y196239D01*
X191000Y196152D01*
Y198000D01*
D02*
G37*
G36*
X58848D02*
X57000D01*
Y196152D01*
X57436Y196239D01*
X58230Y196770D01*
X58761Y197564D01*
X58848Y198000D01*
D02*
G37*
G36*
X56000D02*
X54152D01*
X54239Y197564D01*
X54770Y196770D01*
X55564Y196239D01*
X56000Y196152D01*
Y198000D01*
D02*
G37*
G36*
X43848D02*
X42000D01*
Y196152D01*
X42436Y196239D01*
X43230Y196770D01*
X43761Y197564D01*
X43848Y198000D01*
D02*
G37*
G36*
X41000D02*
X39152D01*
X39239Y197564D01*
X39770Y196770D01*
X40564Y196239D01*
X41000Y196152D01*
Y198000D01*
D02*
G37*
G36*
X28848D02*
X27000D01*
Y196152D01*
X27436Y196239D01*
X28230Y196770D01*
X28761Y197564D01*
X28848Y198000D01*
D02*
G37*
G36*
X26000D02*
X24152D01*
X24239Y197564D01*
X24770Y196770D01*
X25564Y196239D01*
X26000Y196152D01*
Y198000D01*
D02*
G37*
G36*
X13848D02*
X12000D01*
Y196152D01*
X12436Y196239D01*
X13230Y196770D01*
X13761Y197564D01*
X13848Y198000D01*
D02*
G37*
G36*
X11000D02*
X9152D01*
X9239Y197564D01*
X9770Y196770D01*
X10564Y196239D01*
X11000Y196152D01*
Y198000D01*
D02*
G37*
G36*
X233780Y194768D02*
X233000D01*
Y191083D01*
X237899D01*
X237822Y191666D01*
X237404Y192675D01*
X236739Y193542D01*
X235872Y194207D01*
X234863Y194625D01*
X233780Y194768D01*
D02*
G37*
G36*
X232000D02*
X231221D01*
X230137Y194625D01*
X229128Y194207D01*
X228261Y193542D01*
X227596Y192675D01*
X227178Y191666D01*
X227101Y191083D01*
X232000D01*
Y194768D01*
D02*
G37*
G36*
X224256Y193209D02*
X221000D01*
Y190150D01*
X224256D01*
Y193209D01*
D02*
G37*
G36*
X33362Y190130D02*
X30500D01*
Y187268D01*
X33362D01*
Y190130D01*
D02*
G37*
G36*
X29500D02*
X26638D01*
Y187268D01*
X29500D01*
Y190130D01*
D02*
G37*
G36*
X237899Y190083D02*
X233000D01*
Y186397D01*
X233780D01*
X234863Y186540D01*
X235872Y186958D01*
X236739Y187623D01*
X237404Y188490D01*
X237822Y189499D01*
X237899Y190083D01*
D02*
G37*
G36*
X232000D02*
X227101D01*
X227178Y189499D01*
X227596Y188490D01*
X228261Y187623D01*
X229128Y186958D01*
X230137Y186540D01*
X231221Y186397D01*
X232000D01*
Y190083D01*
D02*
G37*
G36*
X52000Y188768D02*
X51221D01*
X50137Y188626D01*
X49128Y188207D01*
X48261Y187542D01*
X47596Y186675D01*
X47479Y186394D01*
X46979D01*
X46968Y186423D01*
X46382Y187186D01*
X45620Y187771D01*
X44732Y188138D01*
X43780Y188264D01*
X41221D01*
X40268Y188138D01*
X39380Y187771D01*
X38618Y187186D01*
X38032Y186423D01*
X37665Y185535D01*
X37539Y184583D01*
X37665Y183630D01*
X38032Y182742D01*
X38618Y181980D01*
X39380Y181395D01*
X40268Y181027D01*
X41221Y180902D01*
X43780D01*
X44732Y181027D01*
X45620Y181395D01*
X46382Y181980D01*
X46968Y182742D01*
X46979Y182771D01*
X47479D01*
X47596Y182490D01*
X48261Y181623D01*
X49128Y180958D01*
X50137Y180540D01*
X51221Y180397D01*
X52000D01*
Y184583D01*
Y188768D01*
D02*
G37*
G36*
X198500Y233520D02*
X99000D01*
X98610Y233442D01*
X98279Y233221D01*
X63129Y198071D01*
X62908Y197741D01*
X62831Y197350D01*
Y128209D01*
X60744D01*
Y125602D01*
X57307D01*
X56967Y126423D01*
X56382Y127186D01*
X55620Y127771D01*
X54732Y128138D01*
X53780Y128264D01*
X51221D01*
X50268Y128138D01*
X49380Y127771D01*
X48618Y127186D01*
X48033Y126423D01*
X48021Y126394D01*
X47521D01*
X47404Y126675D01*
X46739Y127542D01*
X45872Y128207D01*
X44863Y128626D01*
X43780Y128768D01*
X43000D01*
Y124583D01*
Y120397D01*
X43780D01*
X44863Y120540D01*
X45872Y120958D01*
X46739Y121623D01*
X47404Y122490D01*
X47521Y122771D01*
X48021D01*
X48033Y122742D01*
X48618Y121980D01*
X49380Y121395D01*
X50268Y121027D01*
X51221Y120902D01*
X53780D01*
X54732Y121027D01*
X55620Y121395D01*
X56382Y121980D01*
X56967Y122742D01*
X57307Y123563D01*
X60744D01*
Y122409D01*
X60244D01*
Y119350D01*
X64000D01*
X67756D01*
Y122409D01*
X67256D01*
Y126964D01*
X74773Y134480D01*
X134518D01*
X134925Y134256D01*
X134925Y133980D01*
Y131287D01*
X139075D01*
X139075Y134256D01*
X139482Y134480D01*
X140817D01*
X141224Y134256D01*
Y131287D01*
X145374D01*
Y131752D01*
X180306D01*
X205319Y106739D01*
Y101189D01*
X205059Y101039D01*
X204799Y101189D01*
Y105220D01*
X204721Y105611D01*
X204501Y105941D01*
X197221Y113221D01*
X196890Y113442D01*
X196500Y113520D01*
X155422D01*
X149721Y119221D01*
X149390Y119442D01*
X149000Y119520D01*
X145374D01*
Y119827D01*
X141224D01*
Y116859D01*
X145374D01*
Y117480D01*
X148578D01*
X154279Y111779D01*
X154610Y111558D01*
X155000Y111480D01*
X196078D01*
X202760Y104798D01*
Y101189D01*
X202500Y101039D01*
X202240Y101189D01*
Y101779D01*
X202162Y102170D01*
X201941Y102500D01*
X195721Y108721D01*
X195390Y108942D01*
X195000Y109020D01*
X155000D01*
X154610Y108942D01*
X154279Y108721D01*
X150578Y105020D01*
X145374D01*
Y105399D01*
X141224D01*
Y102430D01*
X145374D01*
Y102980D01*
X151000D01*
X151390Y103058D01*
X151721Y103279D01*
X155422Y106980D01*
X194578D01*
X200201Y101357D01*
Y100649D01*
X200177Y100627D01*
X199739Y100436D01*
X199624Y100479D01*
X199352Y100533D01*
X199234D01*
X199218Y100615D01*
X198996Y100945D01*
X195721Y104221D01*
X195390Y104442D01*
X195000Y104520D01*
X165500D01*
X165110Y104442D01*
X164779Y104221D01*
X151064Y90505D01*
X145374D01*
Y90970D01*
X141224D01*
Y88002D01*
X145374D01*
Y88466D01*
X151486D01*
X151876Y88544D01*
X152207Y88765D01*
X165922Y102480D01*
X194578D01*
X196063Y100995D01*
X195871Y100533D01*
X195411D01*
X195223Y100496D01*
X195096Y100686D01*
X194701Y100950D01*
X194234Y101043D01*
X194043D01*
Y96772D01*
Y92500D01*
X194234D01*
X194701Y92593D01*
X195096Y92857D01*
X195223Y93047D01*
X195411Y93010D01*
X196793D01*
X197064Y93064D01*
X197382Y93184D01*
X197699Y93064D01*
X197970Y93010D01*
X199352D01*
X199624Y93064D01*
X199941Y93184D01*
X200258Y93064D01*
X200530Y93010D01*
X201911D01*
X202183Y93064D01*
X202500Y93184D01*
X202818Y93064D01*
X203089Y93010D01*
X204470D01*
X204742Y93064D01*
X205059Y93184D01*
X205377Y93064D01*
X205648Y93010D01*
X207030D01*
X207301Y93064D01*
X207520Y93147D01*
X207929Y92888D01*
Y90304D01*
X207487Y90121D01*
X206860Y89640D01*
X206380Y89013D01*
X206077Y88283D01*
X205974Y87500D01*
X206077Y86717D01*
X206380Y85987D01*
X206860Y85360D01*
X207487Y84879D01*
X208217Y84577D01*
X209000Y84474D01*
X209783Y84577D01*
X210513Y84879D01*
X211140Y85360D01*
X211620Y85987D01*
X211923Y86717D01*
X212026Y87500D01*
X211923Y88283D01*
X211620Y89013D01*
X211140Y89640D01*
X210513Y90121D01*
X209968Y90346D01*
Y92830D01*
X210460Y93077D01*
X210495Y93064D01*
X210766Y93010D01*
X212148D01*
X212419Y93064D01*
X212649Y93217D01*
X212802Y93447D01*
X212856Y93718D01*
Y99825D01*
X212802Y100096D01*
X212649Y100326D01*
X212520Y100412D01*
Y113000D01*
X212442Y113390D01*
X212221Y113721D01*
X189861Y136081D01*
X189781Y136161D01*
X190100Y136549D01*
X190173Y136500D01*
X190564Y136239D01*
X191000Y136152D01*
Y138000D01*
X189152D01*
X189239Y137564D01*
X189709Y136861D01*
X189770Y136770D01*
X189468Y136390D01*
X189390Y136442D01*
X189000Y136520D01*
X178665D01*
X178397Y137020D01*
X178761Y137564D01*
X178848Y138000D01*
X174152D01*
X174239Y137564D01*
X174603Y137020D01*
X174336Y136520D01*
X163664D01*
X163397Y137020D01*
X163761Y137564D01*
X163848Y138000D01*
X159152D01*
X159239Y137564D01*
X159603Y137020D01*
X159335Y136520D01*
X149047D01*
X148839Y137020D01*
X152076Y140256D01*
X152244D01*
X152343Y140276D01*
X154213D01*
Y144425D01*
X151244D01*
Y142205D01*
X150933Y141997D01*
X147456Y138520D01*
X137115D01*
X136924Y138981D01*
X137051Y139109D01*
X137114Y139204D01*
X138186Y140276D01*
X139713D01*
Y144425D01*
X136744D01*
Y141718D01*
X135609Y140582D01*
X135546Y140487D01*
X135078Y140020D01*
X129150D01*
X128756Y140276D01*
Y142983D01*
X136244Y150471D01*
X136744Y150264D01*
Y146575D01*
X139713D01*
Y150724D01*
X137204D01*
X136997Y151224D01*
X141753Y155980D01*
X177867D01*
X178257Y156058D01*
X178588Y156279D01*
X201556Y179247D01*
X201948Y179272D01*
X202374Y178886D01*
Y177816D01*
X179078Y154520D01*
X152331D01*
X151941Y154442D01*
X151610Y154221D01*
X141814Y144425D01*
X140287D01*
Y140276D01*
X143256D01*
Y142983D01*
X150744Y150471D01*
X151244Y150264D01*
Y146575D01*
X154213D01*
Y150724D01*
X151704D01*
X151497Y151224D01*
X152753Y152480D01*
X179500D01*
X179890Y152558D01*
X180221Y152779D01*
X204115Y176673D01*
X204336Y177004D01*
X204413Y177394D01*
Y179359D01*
X204876Y179556D01*
X205295Y179374D01*
X205319Y179351D01*
Y171261D01*
X177428Y143370D01*
X157756D01*
Y144425D01*
X154787D01*
Y140276D01*
X157756D01*
Y141331D01*
X160866D01*
X160916Y140831D01*
X160564Y140761D01*
X159770Y140230D01*
X159239Y139436D01*
X159152Y139000D01*
X163848D01*
X163761Y139436D01*
X163230Y140230D01*
X162436Y140761D01*
X162084Y140831D01*
X162134Y141331D01*
X175866D01*
X175916Y140831D01*
X175564Y140761D01*
X174770Y140230D01*
X174239Y139436D01*
X174152Y139000D01*
X178848D01*
X178761Y139436D01*
X178230Y140230D01*
X177436Y140761D01*
X177084Y140831D01*
X177134Y141331D01*
X177850D01*
X178241Y141408D01*
X178571Y141629D01*
X207060Y170118D01*
X207281Y170448D01*
X207358Y170839D01*
Y178811D01*
X207618Y178961D01*
X207878Y178811D01*
Y164602D01*
X207956Y164212D01*
X208177Y163881D01*
X214181Y157877D01*
Y80123D01*
X208177Y74119D01*
X207956Y73788D01*
X207878Y73398D01*
Y72106D01*
X207854Y72083D01*
X207416Y71892D01*
X207301Y71936D01*
X207030Y71990D01*
X205648D01*
X205377Y71936D01*
X205059Y71816D01*
X204742Y71936D01*
X204470Y71990D01*
X203089D01*
X202818Y71936D01*
X202500Y71816D01*
X202183Y71936D01*
X201911Y71990D01*
X200530D01*
X200258Y71936D01*
X199941Y71816D01*
X199624Y71936D01*
X199352Y71990D01*
X197970D01*
X197699Y71936D01*
X197584Y71892D01*
X197146Y72083D01*
X197122Y72106D01*
Y74398D01*
X197044Y74788D01*
X196823Y75119D01*
X192221Y79721D01*
X191890Y79942D01*
X191500Y80020D01*
X185325D01*
X185120Y80513D01*
X184640Y81140D01*
X184013Y81621D01*
X183283Y81923D01*
X182500Y82026D01*
X181717Y81923D01*
X180987Y81621D01*
X180360Y81140D01*
X179879Y80513D01*
X179577Y79783D01*
X179474Y79000D01*
X179577Y78217D01*
X179879Y77487D01*
X180360Y76860D01*
X180987Y76380D01*
X181717Y76077D01*
X182500Y75974D01*
X183283Y76077D01*
X184013Y76380D01*
X184640Y76860D01*
X185120Y77487D01*
X185325Y77980D01*
X191078D01*
X195083Y73975D01*
Y72106D01*
X195059Y72083D01*
X194621Y71892D01*
X194505Y71936D01*
X194234Y71990D01*
X192852D01*
X192581Y71936D01*
X192351Y71782D01*
X192198Y71553D01*
X192144Y71281D01*
Y65175D01*
X192198Y64904D01*
X192351Y64674D01*
X192581Y64521D01*
X192852Y64467D01*
X194234D01*
X194505Y64521D01*
X194823Y64641D01*
X195140Y64521D01*
X195411Y64467D01*
X196793D01*
X197064Y64521D01*
X197180Y64564D01*
X197617Y64373D01*
X197642Y64351D01*
Y63584D01*
X193578Y59520D01*
X162922D01*
X146833Y75609D01*
X146978Y76148D01*
X147436Y76239D01*
X148230Y76770D01*
X148761Y77564D01*
X148848Y78000D01*
X144152D01*
X144239Y77564D01*
X144588Y77042D01*
X144321Y76542D01*
X141224D01*
Y73573D01*
X145374D01*
Y73573D01*
X145874Y73684D01*
X153301Y66258D01*
X153155Y65779D01*
X153064Y65761D01*
X152270Y65230D01*
X151739Y64436D01*
X151652Y64000D01*
X154000D01*
Y63500D01*
X154500D01*
Y61152D01*
X154936Y61239D01*
X155730Y61770D01*
X156261Y62564D01*
X156279Y62655D01*
X156757Y62801D01*
X161779Y57779D01*
X162110Y57558D01*
X162500Y57480D01*
X194000D01*
X194390Y57558D01*
X194721Y57779D01*
X199382Y62440D01*
X199603Y62771D01*
X199681Y63161D01*
Y63811D01*
X199941Y63961D01*
X200201Y63811D01*
Y60143D01*
X193078Y53020D01*
X158826D01*
X150625Y61221D01*
X150294Y61442D01*
X149904Y61520D01*
X145874D01*
Y61984D01*
X141724D01*
Y59016D01*
X145874D01*
Y59480D01*
X149482D01*
X157683Y51279D01*
X158014Y51058D01*
X158404Y50980D01*
X193500D01*
X193890Y51058D01*
X194221Y51279D01*
X201941Y59000D01*
X202162Y59330D01*
X202240Y59720D01*
Y63811D01*
X202500Y63961D01*
X202760Y63811D01*
Y55702D01*
X194349Y47291D01*
X145724D01*
Y47756D01*
X141575D01*
Y44787D01*
X145724D01*
Y45252D01*
X194772D01*
X195162Y45330D01*
X195493Y45551D01*
X204501Y54559D01*
X204721Y54889D01*
X204799Y55279D01*
Y63811D01*
X205059Y63961D01*
X205319Y63811D01*
Y51761D01*
X186883Y33325D01*
X186431Y33580D01*
X186261Y34436D01*
X185730Y35230D01*
X184936Y35761D01*
X184500Y35848D01*
Y33500D01*
X184000D01*
Y33000D01*
X181652D01*
X181739Y32564D01*
X182270Y31770D01*
X183064Y31239D01*
X183920Y31069D01*
X184175Y30617D01*
X181578Y28020D01*
X176630D01*
X176508Y28505D01*
X176547Y28525D01*
X177651Y29431D01*
X178557Y30535D01*
X179230Y31795D01*
X179645Y33161D01*
X179736Y34083D01*
X165264D01*
X165355Y33161D01*
X165770Y31795D01*
X166443Y30535D01*
X167349Y29431D01*
X168453Y28525D01*
X168491Y28505D01*
X168370Y28020D01*
X149084D01*
X145374Y31729D01*
Y33256D01*
X141224D01*
Y30287D01*
X143551D01*
X143600Y30213D01*
X143333Y29713D01*
X141224D01*
Y26744D01*
X145374D01*
Y28192D01*
X145836Y28384D01*
X147941Y26279D01*
X148271Y26058D01*
X148661Y25980D01*
X182000D01*
X182390Y26058D01*
X182721Y26279D01*
X207060Y50618D01*
X207281Y50948D01*
X207358Y51339D01*
Y63811D01*
X207618Y63961D01*
X207878Y63811D01*
Y37320D01*
X193078Y22520D01*
X74922D01*
X53370Y44072D01*
Y100244D01*
X55091D01*
Y99744D01*
X58150D01*
Y103500D01*
Y107256D01*
X55091D01*
Y106756D01*
X53520D01*
Y110902D01*
X53780D01*
X54732Y111027D01*
X55620Y111395D01*
X56382Y111980D01*
X56967Y112742D01*
X57335Y113630D01*
X57461Y114583D01*
X57335Y115535D01*
X56967Y116423D01*
X56382Y117186D01*
X55620Y117771D01*
X54732Y118138D01*
X53780Y118264D01*
X51221D01*
X50268Y118138D01*
X49380Y117771D01*
X48618Y117186D01*
X48033Y116423D01*
X47771Y115791D01*
X47229D01*
X46968Y116423D01*
X46382Y117186D01*
X45620Y117771D01*
X44732Y118138D01*
X43780Y118264D01*
X41221D01*
X40268Y118138D01*
X39380Y117771D01*
X38618Y117186D01*
X38032Y116423D01*
X37665Y115535D01*
X37539Y114583D01*
X37665Y113630D01*
X38032Y112742D01*
X38618Y111980D01*
X39380Y111395D01*
X40141Y111080D01*
X40235Y110706D01*
X40217Y110529D01*
X39770Y110230D01*
X39239Y109436D01*
X39152Y109000D01*
X43848D01*
X43761Y109436D01*
X43230Y110230D01*
X42974Y110402D01*
X43126Y110902D01*
X43780D01*
X44732Y111027D01*
X45620Y111395D01*
X46382Y111980D01*
X46968Y112742D01*
X47229Y113374D01*
X47771D01*
X48033Y112742D01*
X48618Y111980D01*
X49380Y111395D01*
X50268Y111027D01*
X51221Y110902D01*
X51480D01*
Y106756D01*
X49291D01*
Y100244D01*
X51331D01*
Y43650D01*
X51408Y43259D01*
X51629Y42929D01*
X73779Y20779D01*
X74110Y20558D01*
X74500Y20480D01*
X84336D01*
X84603Y19980D01*
X84239Y19436D01*
X84152Y19000D01*
X88848D01*
X88761Y19436D01*
X88397Y19980D01*
X88665Y20480D01*
X99335D01*
X99603Y19980D01*
X99239Y19436D01*
X99152Y19000D01*
X103848D01*
X103761Y19436D01*
X103397Y19980D01*
X103665Y20480D01*
X114336D01*
X114603Y19980D01*
X114239Y19436D01*
X114152Y19000D01*
X118848D01*
X118761Y19436D01*
X118397Y19980D01*
X118665Y20480D01*
X129335D01*
X129603Y19980D01*
X129239Y19436D01*
X129152Y19000D01*
X133848D01*
X133761Y19436D01*
X133397Y19980D01*
X133665Y20480D01*
X144335D01*
X144603Y19980D01*
X144239Y19436D01*
X144152Y19000D01*
X148848D01*
X148761Y19436D01*
X148397Y19980D01*
X148664Y20480D01*
X159335D01*
X159603Y19980D01*
X159239Y19436D01*
X159152Y19000D01*
X163848D01*
X163761Y19436D01*
X163397Y19980D01*
X163664Y20480D01*
X174336D01*
X174603Y19980D01*
X174239Y19436D01*
X174152Y19000D01*
X178848D01*
X178761Y19436D01*
X178397Y19980D01*
X178665Y20480D01*
X189336D01*
X189603Y19980D01*
X189239Y19436D01*
X189152Y19000D01*
X193848D01*
X193761Y19436D01*
X193397Y19980D01*
X193435Y20162D01*
X193644Y20509D01*
X193890Y20558D01*
X194221Y20779D01*
X209619Y36177D01*
X209840Y36507D01*
X209917Y36898D01*
Y64351D01*
X209942Y64373D01*
X210380Y64564D01*
X210495Y64521D01*
X210766Y64467D01*
X211235D01*
X211618Y64000D01*
X216348D01*
X216261Y64436D01*
X216196Y64533D01*
X216432Y64974D01*
X217642D01*
Y64744D01*
X217675D01*
Y21954D01*
X208747Y13026D01*
X127756D01*
Y15799D01*
X120244D01*
Y13026D01*
X30753D01*
X23026Y20753D01*
Y43698D01*
X23066Y44000D01*
X22961Y44793D01*
X22655Y45533D01*
X22168Y46168D01*
X21926Y46353D01*
X13526Y54753D01*
Y136747D01*
X18403Y141624D01*
X26244D01*
Y138850D01*
X30000D01*
X33756D01*
Y141557D01*
X39169D01*
X39380Y141395D01*
X40268Y141027D01*
X41221Y140902D01*
X43780D01*
X44732Y141027D01*
X45620Y141395D01*
X46382Y141980D01*
X46968Y142742D01*
X46979Y142771D01*
X47479D01*
X47596Y142490D01*
X48261Y141623D01*
X49128Y140958D01*
X50137Y140540D01*
X51221Y140397D01*
X52000D01*
Y144583D01*
Y148768D01*
X51221D01*
X50137Y148626D01*
X49128Y148207D01*
X48261Y147542D01*
X47596Y146675D01*
X47479Y146394D01*
X46979D01*
X46968Y146423D01*
X46382Y147186D01*
X45620Y147771D01*
X44732Y148138D01*
X43780Y148264D01*
X41221D01*
X40268Y148138D01*
X39380Y147771D01*
X39169Y147609D01*
X33256D01*
Y147709D01*
X26744D01*
Y147676D01*
X17150D01*
X16366Y147572D01*
X15637Y147270D01*
X15010Y146789D01*
X15010Y146789D01*
X8360Y140140D01*
X7880Y139513D01*
X7577Y138783D01*
X7474Y138000D01*
Y53500D01*
X7577Y52717D01*
X7880Y51987D01*
X8360Y51360D01*
X16974Y42747D01*
Y19500D01*
X17077Y18717D01*
X17379Y17987D01*
X17860Y17360D01*
X27360Y7860D01*
X27987Y7379D01*
X28717Y7077D01*
X29500Y6974D01*
X120744D01*
Y6941D01*
X127256D01*
Y6974D01*
X210000D01*
X210783Y7077D01*
X211513Y7379D01*
X212140Y7860D01*
X222840Y18561D01*
X223321Y19188D01*
X223624Y19918D01*
X223727Y20701D01*
Y64244D01*
X226500D01*
Y68000D01*
Y71756D01*
X223727D01*
Y180291D01*
X223756D01*
Y186091D01*
X224256D01*
Y189150D01*
X216744D01*
Y186317D01*
X213071D01*
X212855Y186289D01*
X212802Y186553D01*
X212649Y186783D01*
X212419Y186936D01*
X212148Y186990D01*
X210766D01*
X210495Y186936D01*
X210177Y186816D01*
X209860Y186936D01*
X209589Y186990D01*
X208207D01*
X207936Y186936D01*
X207618Y186816D01*
X207301Y186936D01*
X207030Y186990D01*
X205648D01*
X205377Y186936D01*
X205059Y186816D01*
X204742Y186936D01*
X204470Y186990D01*
X203089D01*
X202818Y186936D01*
X202500Y186816D01*
X202183Y186936D01*
X201911Y186990D01*
X200530D01*
X200258Y186936D01*
X199941Y186816D01*
X199624Y186936D01*
X199352Y186990D01*
X197970D01*
X197797Y186955D01*
X197672Y187023D01*
X197572Y187357D01*
X197629Y187687D01*
X199422Y189480D01*
X213650D01*
X214040Y189558D01*
X214371Y189779D01*
X216282Y191691D01*
X216744Y191499D01*
Y190150D01*
X220000D01*
Y193209D01*
X218454D01*
X218262Y193671D01*
X218883Y194291D01*
X223756D01*
Y198302D01*
X223965D01*
X224355Y198380D01*
X224686Y198601D01*
X226547Y200461D01*
X227075Y200282D01*
X227178Y199499D01*
X227596Y198490D01*
X228261Y197623D01*
X229128Y196958D01*
X230137Y196540D01*
X231221Y196397D01*
X232000D01*
Y200583D01*
Y204768D01*
X231221D01*
X230137Y204626D01*
X229128Y204207D01*
X228520Y203741D01*
X228020Y203987D01*
Y205940D01*
X229447Y207367D01*
X230268Y207027D01*
X231221Y206902D01*
X233780D01*
X234732Y207027D01*
X235620Y207395D01*
X236383Y207980D01*
X236967Y208742D01*
X237335Y209630D01*
X237461Y210583D01*
X237335Y211535D01*
X236967Y212423D01*
X236383Y213186D01*
X235620Y213771D01*
X234732Y214138D01*
X233780Y214264D01*
X231221D01*
X230268Y214138D01*
X229380Y213771D01*
X228618Y213186D01*
X228032Y212423D01*
X227665Y211535D01*
X227539Y210583D01*
X227665Y209630D01*
X228005Y208809D01*
X226279Y207083D01*
X226058Y206752D01*
X225980Y206362D01*
Y202779D01*
X224718Y201516D01*
X224256Y201708D01*
Y203150D01*
X216744D01*
Y200091D01*
X217244D01*
Y195536D01*
X213227Y191520D01*
X199000D01*
X198610Y191442D01*
X198279Y191221D01*
X195279Y188221D01*
X195058Y187890D01*
X194980Y187500D01*
Y187220D01*
X194511Y186940D01*
X194480Y186941D01*
X194234Y186990D01*
X192852D01*
X192581Y186936D01*
X192351Y186783D01*
X192198Y186553D01*
X192144Y186282D01*
Y184520D01*
X185325D01*
X185120Y185013D01*
X184640Y185640D01*
X184013Y186120D01*
X183283Y186423D01*
X182500Y186526D01*
X181717Y186423D01*
X180987Y186120D01*
X180675Y186259D01*
X180520Y186392D01*
Y219078D01*
X181008Y219566D01*
X193992D01*
X197189Y216369D01*
X197170Y215838D01*
X196793Y215533D01*
X195411D01*
X195223Y215496D01*
X195096Y215686D01*
X194701Y215950D01*
X194234Y216043D01*
X194043D01*
Y211772D01*
Y207500D01*
X194234D01*
X194701Y207593D01*
X195096Y207857D01*
X195223Y208048D01*
X195411Y208010D01*
X196793D01*
X197064Y208064D01*
X197382Y208184D01*
X197699Y208064D01*
X197970Y208010D01*
X199352D01*
X199624Y208064D01*
X199941Y208184D01*
X200258Y208064D01*
X200530Y208010D01*
X201911D01*
X202183Y208064D01*
X202500Y208184D01*
X202818Y208064D01*
X203089Y208010D01*
X204470D01*
X204742Y208064D01*
X205059Y208184D01*
X205377Y208064D01*
X205648Y208010D01*
X207030D01*
X207301Y208064D01*
X207618Y208184D01*
X207936Y208064D01*
X208207Y208010D01*
X208416D01*
X208562Y207791D01*
X208848Y207505D01*
X208850Y207503D01*
X209550Y206803D01*
X209881Y206582D01*
X210271Y206504D01*
X216727D01*
X216744Y206490D01*
Y204150D01*
X220000D01*
Y207209D01*
X218508D01*
X218316Y207671D01*
X228622Y217976D01*
X229380Y217395D01*
X230268Y217027D01*
X231221Y216902D01*
X233780D01*
X234732Y217027D01*
X235620Y217395D01*
X236210Y217848D01*
X245980Y208078D01*
Y185664D01*
X245480Y185397D01*
X244936Y185761D01*
X244500Y185848D01*
Y183500D01*
Y181152D01*
X244936Y181239D01*
X245480Y181603D01*
X245980Y181335D01*
Y155665D01*
X245480Y155397D01*
X244936Y155761D01*
X244500Y155848D01*
Y153500D01*
Y151152D01*
X244936Y151239D01*
X245480Y151603D01*
X245980Y151336D01*
Y125664D01*
X245480Y125397D01*
X244936Y125761D01*
X244500Y125848D01*
Y123500D01*
Y121152D01*
X244936Y121239D01*
X245480Y121603D01*
X245980Y121335D01*
Y100756D01*
X244409D01*
Y101256D01*
X241350D01*
Y97500D01*
Y93744D01*
X244409D01*
Y94244D01*
X245980D01*
Y90825D01*
X245487Y90620D01*
X244860Y90140D01*
X244379Y89513D01*
X244077Y88783D01*
X243974Y88000D01*
X244077Y87217D01*
X244379Y86487D01*
X244860Y85860D01*
X245487Y85379D01*
X246217Y85077D01*
X247000Y84974D01*
X247783Y85077D01*
X248513Y85379D01*
X249140Y85860D01*
X249621Y86487D01*
X249923Y87217D01*
X250026Y88000D01*
X249923Y88783D01*
X249621Y89513D01*
X249140Y90140D01*
X248513Y90620D01*
X248020Y90825D01*
Y94244D01*
X250209D01*
Y100756D01*
X248020D01*
Y208500D01*
X247942Y208890D01*
X247721Y209221D01*
X237328Y219614D01*
X237335Y219630D01*
X237461Y220583D01*
X237335Y221535D01*
X236967Y222423D01*
X236383Y223186D01*
X235620Y223771D01*
X234732Y224138D01*
X233780Y224264D01*
X231221D01*
X230268Y224138D01*
X229380Y223771D01*
X228618Y223186D01*
X228032Y222423D01*
X227665Y221535D01*
X227539Y220583D01*
X227633Y219871D01*
X216305Y208543D01*
X213000D01*
X212856Y208718D01*
Y214825D01*
X212802Y215096D01*
X212649Y215326D01*
X212476Y215441D01*
Y219543D01*
X212399Y219934D01*
X212178Y220264D01*
X206833Y225609D01*
X206997Y226152D01*
X207436Y226239D01*
X208230Y226770D01*
X208761Y227564D01*
X208848Y228000D01*
X206500D01*
Y228500D01*
X206000D01*
Y230848D01*
X205564Y230761D01*
X204770Y230230D01*
X204239Y229436D01*
X204152Y228997D01*
X203609Y228833D01*
X199221Y233221D01*
X198890Y233442D01*
X198500Y233520D01*
D02*
G37*
G36*
X53780Y188768D02*
X53000D01*
Y185083D01*
X57899D01*
X57822Y185666D01*
X57404Y186675D01*
X56739Y187542D01*
X55872Y188207D01*
X54863Y188626D01*
X53780Y188768D01*
D02*
G37*
G36*
X259500Y185848D02*
Y184000D01*
X261348D01*
X261261Y184436D01*
X260730Y185230D01*
X259936Y185761D01*
X259500Y185848D01*
D02*
G37*
G36*
X258500D02*
X258064Y185761D01*
X257270Y185230D01*
X256739Y184436D01*
X256652Y184000D01*
X258500D01*
Y185848D01*
D02*
G37*
G36*
X243500D02*
X243064Y185761D01*
X242270Y185230D01*
X241739Y184436D01*
X241652Y184000D01*
X243500D01*
Y185848D01*
D02*
G37*
G36*
X19500D02*
Y184000D01*
X21348D01*
X21261Y184436D01*
X20730Y185230D01*
X19936Y185761D01*
X19500Y185848D01*
D02*
G37*
G36*
X18500D02*
X18064Y185761D01*
X17270Y185230D01*
X16739Y184436D01*
X16652Y184000D01*
X18500D01*
Y185848D01*
D02*
G37*
G36*
X4500D02*
Y184000D01*
X6348D01*
X6261Y184436D01*
X5730Y185230D01*
X4936Y185761D01*
X4500Y185848D01*
D02*
G37*
G36*
X3500D02*
X3064Y185761D01*
X2270Y185230D01*
X1739Y184436D01*
X1652Y184000D01*
X3500D01*
Y185848D01*
D02*
G37*
G36*
X33362Y186268D02*
X30500D01*
Y183405D01*
X33362D01*
Y186268D01*
D02*
G37*
G36*
X29500D02*
X26638D01*
Y183405D01*
X29500D01*
Y186268D01*
D02*
G37*
G36*
X261348Y183000D02*
X259500D01*
Y181152D01*
X259936Y181239D01*
X260730Y181770D01*
X261261Y182564D01*
X261348Y183000D01*
D02*
G37*
G36*
X258500D02*
X256652D01*
X256739Y182564D01*
X257270Y181770D01*
X258064Y181239D01*
X258500Y181152D01*
Y183000D01*
D02*
G37*
G36*
X243500D02*
X241652D01*
X241739Y182564D01*
X242270Y181770D01*
X243064Y181239D01*
X243500Y181152D01*
Y183000D01*
D02*
G37*
G36*
X21348D02*
X19500D01*
Y181152D01*
X19936Y181239D01*
X20730Y181770D01*
X21261Y182564D01*
X21348Y183000D01*
D02*
G37*
G36*
X18500D02*
X16652D01*
X16739Y182564D01*
X17270Y181770D01*
X18064Y181239D01*
X18500Y181152D01*
Y183000D01*
D02*
G37*
G36*
X6348D02*
X4500D01*
Y181152D01*
X4936Y181239D01*
X5730Y181770D01*
X6261Y182564D01*
X6348Y183000D01*
D02*
G37*
G36*
X3500D02*
X1652D01*
X1739Y182564D01*
X2270Y181770D01*
X3064Y181239D01*
X3500Y181152D01*
Y183000D01*
D02*
G37*
G36*
X233780Y184768D02*
X233000D01*
Y181083D01*
X237899D01*
X237822Y181666D01*
X237404Y182675D01*
X236739Y183542D01*
X235872Y184207D01*
X234863Y184625D01*
X233780Y184768D01*
D02*
G37*
G36*
X232000D02*
X231221D01*
X230137Y184625D01*
X229128Y184207D01*
X228261Y183542D01*
X227596Y182675D01*
X227178Y181666D01*
X227101Y181083D01*
X232000D01*
Y184768D01*
D02*
G37*
G36*
X57899Y184083D02*
X53000D01*
Y180397D01*
X53780D01*
X54863Y180540D01*
X55872Y180958D01*
X56739Y181623D01*
X57404Y182490D01*
X57822Y183499D01*
X57899Y184083D01*
D02*
G37*
G36*
X237899Y180083D02*
X233000D01*
Y176397D01*
X233780D01*
X234863Y176540D01*
X235872Y176958D01*
X236739Y177623D01*
X237404Y178490D01*
X237822Y179499D01*
X237899Y180083D01*
D02*
G37*
G36*
X232000D02*
X227101D01*
X227178Y179499D01*
X227596Y178490D01*
X228261Y177623D01*
X229128Y176958D01*
X230137Y176540D01*
X231221Y176397D01*
X232000D01*
Y180083D01*
D02*
G37*
G36*
X52000Y178768D02*
X51221D01*
X50137Y178626D01*
X49128Y178207D01*
X48261Y177542D01*
X47596Y176675D01*
X47479Y176394D01*
X46979D01*
X46968Y176423D01*
X46382Y177186D01*
X45620Y177771D01*
X44732Y178138D01*
X43780Y178264D01*
X41221D01*
X40268Y178138D01*
X39380Y177771D01*
X38618Y177186D01*
X38032Y176423D01*
X37665Y175535D01*
X37539Y174583D01*
X37665Y173630D01*
X38032Y172742D01*
X38618Y171980D01*
X39380Y171395D01*
X40268Y171027D01*
X41221Y170902D01*
X43780D01*
X44732Y171027D01*
X45620Y171395D01*
X46382Y171980D01*
X46968Y172742D01*
X46979Y172771D01*
X47479D01*
X47596Y172490D01*
X48261Y171623D01*
X49128Y170958D01*
X50137Y170540D01*
X51221Y170397D01*
X52000D01*
Y174583D01*
Y178768D01*
D02*
G37*
G36*
X53780D02*
X53000D01*
Y175083D01*
X57899D01*
X57822Y175666D01*
X57404Y176675D01*
X56739Y177542D01*
X55872Y178207D01*
X54863Y178626D01*
X53780Y178768D01*
D02*
G37*
G36*
X233780Y174768D02*
X233000D01*
Y171083D01*
X237899D01*
X237822Y171666D01*
X237404Y172675D01*
X236739Y173542D01*
X235872Y174207D01*
X234863Y174626D01*
X233780Y174768D01*
D02*
G37*
G36*
X232000D02*
X231221D01*
X230137Y174626D01*
X229128Y174207D01*
X228261Y173542D01*
X227596Y172675D01*
X227178Y171666D01*
X227101Y171083D01*
X232000D01*
Y174768D01*
D02*
G37*
G36*
X57899Y174083D02*
X53000D01*
Y170397D01*
X53780D01*
X54863Y170540D01*
X55872Y170958D01*
X56739Y171623D01*
X57404Y172490D01*
X57822Y173499D01*
X57899Y174083D01*
D02*
G37*
G36*
X267000Y170848D02*
Y169000D01*
X268848D01*
X268761Y169436D01*
X268230Y170230D01*
X267436Y170761D01*
X267000Y170848D01*
D02*
G37*
G36*
X266000D02*
X265564Y170761D01*
X264770Y170230D01*
X264239Y169436D01*
X264152Y169000D01*
X266000D01*
Y170848D01*
D02*
G37*
G36*
X252000D02*
Y169000D01*
X253848D01*
X253761Y169436D01*
X253230Y170230D01*
X252436Y170761D01*
X252000Y170848D01*
D02*
G37*
G36*
X251000D02*
X250564Y170761D01*
X249770Y170230D01*
X249239Y169436D01*
X249152Y169000D01*
X251000D01*
Y170848D01*
D02*
G37*
G36*
X12000D02*
Y169000D01*
X13848D01*
X13761Y169436D01*
X13230Y170230D01*
X12436Y170761D01*
X12000Y170848D01*
D02*
G37*
G36*
X11000D02*
X10564Y170761D01*
X9770Y170230D01*
X9239Y169436D01*
X9152Y169000D01*
X11000D01*
Y170848D01*
D02*
G37*
G36*
X32862Y181362D02*
X27138D01*
Y175638D01*
X28980D01*
Y173209D01*
X26842D01*
Y167681D01*
X33158D01*
Y173209D01*
X31020D01*
Y175638D01*
X32862D01*
Y181362D01*
D02*
G37*
G36*
X237899Y170083D02*
X233000D01*
Y166397D01*
X233780D01*
X234863Y166540D01*
X235872Y166958D01*
X236739Y167623D01*
X237404Y168490D01*
X237822Y169499D01*
X237899Y170083D01*
D02*
G37*
G36*
X232000D02*
X227101D01*
X227178Y169499D01*
X227596Y168490D01*
X228261Y167623D01*
X229128Y166958D01*
X230137Y166540D01*
X231221Y166397D01*
X232000D01*
Y170083D01*
D02*
G37*
G36*
X52000Y168768D02*
X51221D01*
X50137Y168625D01*
X49128Y168207D01*
X48261Y167542D01*
X47596Y166675D01*
X47479Y166394D01*
X46979D01*
X46968Y166423D01*
X46382Y167186D01*
X45620Y167771D01*
X44732Y168138D01*
X43780Y168264D01*
X41221D01*
X40268Y168138D01*
X39380Y167771D01*
X38618Y167186D01*
X38032Y166423D01*
X37665Y165535D01*
X37539Y164583D01*
X37665Y163630D01*
X38032Y162742D01*
X38618Y161980D01*
X39380Y161395D01*
X40268Y161027D01*
X41221Y160902D01*
X43780D01*
X44732Y161027D01*
X45620Y161395D01*
X46382Y161980D01*
X46968Y162742D01*
X46979Y162771D01*
X47479D01*
X47596Y162490D01*
X48261Y161623D01*
X49128Y160958D01*
X50137Y160540D01*
X51221Y160397D01*
X52000D01*
Y164583D01*
Y168768D01*
D02*
G37*
G36*
X268848Y168000D02*
X267000D01*
Y166152D01*
X267436Y166239D01*
X268230Y166770D01*
X268761Y167564D01*
X268848Y168000D01*
D02*
G37*
G36*
X266000D02*
X264152D01*
X264239Y167564D01*
X264770Y166770D01*
X265564Y166239D01*
X266000Y166152D01*
Y168000D01*
D02*
G37*
G36*
X253848D02*
X252000D01*
Y166152D01*
X252436Y166239D01*
X253230Y166770D01*
X253761Y167564D01*
X253848Y168000D01*
D02*
G37*
G36*
X251000D02*
X249152D01*
X249239Y167564D01*
X249770Y166770D01*
X250564Y166239D01*
X251000Y166152D01*
Y168000D01*
D02*
G37*
G36*
X13848D02*
X12000D01*
Y166152D01*
X12436Y166239D01*
X13230Y166770D01*
X13761Y167564D01*
X13848Y168000D01*
D02*
G37*
G36*
X11000D02*
X9152D01*
X9239Y167564D01*
X9770Y166770D01*
X10564Y166239D01*
X11000Y166152D01*
Y168000D01*
D02*
G37*
G36*
X53780Y168768D02*
X53000D01*
Y165083D01*
X57899D01*
X57822Y165666D01*
X57404Y166675D01*
X56739Y167542D01*
X55872Y168207D01*
X54863Y168625D01*
X53780Y168768D01*
D02*
G37*
G36*
X233780Y164768D02*
X233000D01*
Y161083D01*
X237899D01*
X237822Y161666D01*
X237404Y162675D01*
X236739Y163542D01*
X235872Y164207D01*
X234863Y164626D01*
X233780Y164768D01*
D02*
G37*
G36*
X232000D02*
X231221D01*
X230137Y164626D01*
X229128Y164207D01*
X228261Y163542D01*
X227596Y162675D01*
X227178Y161666D01*
X227101Y161083D01*
X232000D01*
Y164768D01*
D02*
G37*
G36*
X57899Y164083D02*
X53000D01*
Y160397D01*
X53780D01*
X54863Y160540D01*
X55872Y160958D01*
X56739Y161623D01*
X57404Y162490D01*
X57822Y163499D01*
X57899Y164083D01*
D02*
G37*
G36*
X237899Y160083D02*
X233000D01*
Y156397D01*
X233780D01*
X234863Y156540D01*
X235872Y156958D01*
X236739Y157623D01*
X237404Y158490D01*
X237822Y159499D01*
X237899Y160083D01*
D02*
G37*
G36*
X232000D02*
X227101D01*
X227178Y159499D01*
X227596Y158490D01*
X228261Y157623D01*
X229128Y156958D01*
X230137Y156540D01*
X231221Y156397D01*
X232000D01*
Y160083D01*
D02*
G37*
G36*
X53780Y158768D02*
X53000D01*
Y155083D01*
X57899D01*
X57822Y155666D01*
X57404Y156675D01*
X56739Y157542D01*
X55872Y158207D01*
X54863Y158625D01*
X53780Y158768D01*
D02*
G37*
G36*
X259500Y155848D02*
Y154000D01*
X261348D01*
X261261Y154436D01*
X260730Y155230D01*
X259936Y155761D01*
X259500Y155848D01*
D02*
G37*
G36*
X258500D02*
X258064Y155761D01*
X257270Y155230D01*
X256739Y154436D01*
X256652Y154000D01*
X258500D01*
Y155848D01*
D02*
G37*
G36*
X243500D02*
X243064Y155761D01*
X242270Y155230D01*
X241739Y154436D01*
X241652Y154000D01*
X243500D01*
Y155848D01*
D02*
G37*
G36*
X199500D02*
Y154000D01*
X201348D01*
X201261Y154436D01*
X200730Y155230D01*
X199936Y155761D01*
X199500Y155848D01*
D02*
G37*
G36*
X198500D02*
X198064Y155761D01*
X197270Y155230D01*
X196739Y154436D01*
X196652Y154000D01*
X198500D01*
Y155848D01*
D02*
G37*
G36*
X19500D02*
Y154000D01*
X21348D01*
X21261Y154436D01*
X20730Y155230D01*
X19936Y155761D01*
X19500Y155848D01*
D02*
G37*
G36*
X18500D02*
X18064Y155761D01*
X17270Y155230D01*
X16739Y154436D01*
X16652Y154000D01*
X18500D01*
Y155848D01*
D02*
G37*
G36*
X4500D02*
Y154000D01*
X6348D01*
X6261Y154436D01*
X5730Y155230D01*
X4936Y155761D01*
X4500Y155848D01*
D02*
G37*
G36*
X3500D02*
X3064Y155761D01*
X2270Y155230D01*
X1739Y154436D01*
X1652Y154000D01*
X3500D01*
Y155848D01*
D02*
G37*
G36*
X261348Y153000D02*
X259500D01*
Y151152D01*
X259936Y151239D01*
X260730Y151770D01*
X261261Y152564D01*
X261348Y153000D01*
D02*
G37*
G36*
X258500D02*
X256652D01*
X256739Y152564D01*
X257270Y151770D01*
X258064Y151239D01*
X258500Y151152D01*
Y153000D01*
D02*
G37*
G36*
X243500D02*
X241652D01*
X241739Y152564D01*
X242270Y151770D01*
X243064Y151239D01*
X243500Y151152D01*
Y153000D01*
D02*
G37*
G36*
X201348D02*
X199500D01*
Y151152D01*
X199936Y151239D01*
X200730Y151770D01*
X201261Y152564D01*
X201348Y153000D01*
D02*
G37*
G36*
X198500D02*
X196652D01*
X196739Y152564D01*
X197270Y151770D01*
X198064Y151239D01*
X198500Y151152D01*
Y153000D01*
D02*
G37*
G36*
X21348D02*
X19500D01*
Y151152D01*
X19936Y151239D01*
X20730Y151770D01*
X21261Y152564D01*
X21348Y153000D01*
D02*
G37*
G36*
X18500D02*
X16652D01*
X16739Y152564D01*
X17270Y151770D01*
X18064Y151239D01*
X18500Y151152D01*
Y153000D01*
D02*
G37*
G36*
X6348D02*
X4500D01*
Y151152D01*
X4936Y151239D01*
X5730Y151770D01*
X6261Y152564D01*
X6348Y153000D01*
D02*
G37*
G36*
X3500D02*
X1652D01*
X1739Y152564D01*
X2270Y151770D01*
X3064Y151239D01*
X3500Y151152D01*
Y153000D01*
D02*
G37*
G36*
X233780Y154768D02*
X233000D01*
Y151083D01*
X237899D01*
X237822Y151666D01*
X237404Y152675D01*
X236739Y153542D01*
X235872Y154207D01*
X234863Y154625D01*
X233780Y154768D01*
D02*
G37*
G36*
X232000D02*
X231221D01*
X230137Y154625D01*
X229128Y154207D01*
X228261Y153542D01*
X227596Y152675D01*
X227178Y151666D01*
X227101Y151083D01*
X232000D01*
Y154768D01*
D02*
G37*
G36*
X57899Y154083D02*
X53000D01*
Y150397D01*
X53780D01*
X54863Y150540D01*
X55872Y150958D01*
X56739Y151623D01*
X57404Y152490D01*
X57822Y153499D01*
X57899Y154083D01*
D02*
G37*
G36*
X30000Y166581D02*
X29217Y166478D01*
X28833Y166319D01*
X26842D01*
Y160791D01*
X26974D01*
Y157512D01*
X27077Y156728D01*
X27380Y155999D01*
X27860Y155372D01*
X30789Y152443D01*
X30789Y152443D01*
X31416Y151962D01*
X32146Y151660D01*
X32929Y151557D01*
X32929Y151557D01*
X39169D01*
X39380Y151395D01*
X40268Y151027D01*
X41221Y150902D01*
X43780D01*
X44732Y151027D01*
X45620Y151395D01*
X46382Y151980D01*
X46968Y152742D01*
X46979Y152771D01*
X47479D01*
X47596Y152490D01*
X48261Y151623D01*
X49128Y150958D01*
X50137Y150540D01*
X51221Y150397D01*
X52000D01*
Y154583D01*
Y158768D01*
X51221D01*
X50137Y158625D01*
X49128Y158207D01*
X48261Y157542D01*
X47596Y156675D01*
X47479Y156394D01*
X46979D01*
X46968Y156423D01*
X46382Y157186D01*
X45620Y157771D01*
X44732Y158138D01*
X43780Y158264D01*
X41221D01*
X40268Y158138D01*
X39380Y157771D01*
X39169Y157609D01*
X34182D01*
X33026Y158765D01*
Y160791D01*
X33158D01*
Y166319D01*
X31167D01*
X30783Y166478D01*
X30000Y166581D01*
D02*
G37*
G36*
X157756Y150724D02*
X154787D01*
Y146575D01*
X157756D01*
Y150724D01*
D02*
G37*
G36*
X143256D02*
X140287D01*
Y146575D01*
X143256D01*
Y150724D01*
D02*
G37*
G36*
X237899Y150083D02*
X233000D01*
Y146397D01*
X233780D01*
X234863Y146540D01*
X235872Y146958D01*
X236739Y147623D01*
X237404Y148490D01*
X237822Y149499D01*
X237899Y150083D01*
D02*
G37*
G36*
X232000D02*
X227101D01*
X227178Y149499D01*
X227596Y148490D01*
X228261Y147623D01*
X229128Y146958D01*
X230137Y146540D01*
X231221Y146397D01*
X232000D01*
Y150083D01*
D02*
G37*
G36*
X53780Y148768D02*
X53000D01*
Y145083D01*
X57899D01*
X57822Y145666D01*
X57404Y146675D01*
X56739Y147542D01*
X55872Y148207D01*
X54863Y148626D01*
X53780Y148768D01*
D02*
G37*
G36*
X57899Y144083D02*
X53000D01*
Y140397D01*
X53780D01*
X54863Y140540D01*
X55872Y140958D01*
X56739Y141623D01*
X57404Y142490D01*
X57822Y143499D01*
X57899Y144083D01*
D02*
G37*
G36*
X267000Y140848D02*
Y139000D01*
X268848D01*
X268761Y139436D01*
X268230Y140230D01*
X267436Y140761D01*
X267000Y140848D01*
D02*
G37*
G36*
X266000D02*
X265564Y140761D01*
X264770Y140230D01*
X264239Y139436D01*
X264152Y139000D01*
X266000D01*
Y140848D01*
D02*
G37*
G36*
X252000D02*
Y139000D01*
X253848D01*
X253761Y139436D01*
X253230Y140230D01*
X252436Y140761D01*
X252000Y140848D01*
D02*
G37*
G36*
X251000D02*
X250564Y140761D01*
X249770Y140230D01*
X249239Y139436D01*
X249152Y139000D01*
X251000D01*
Y140848D01*
D02*
G37*
G36*
X237000D02*
Y139000D01*
X238848D01*
X238761Y139436D01*
X238230Y140230D01*
X237436Y140761D01*
X237000Y140848D01*
D02*
G37*
G36*
X236000D02*
X235564Y140761D01*
X234770Y140230D01*
X234239Y139436D01*
X234152Y139000D01*
X236000D01*
Y140848D01*
D02*
G37*
G36*
X207000D02*
Y139000D01*
X208848D01*
X208761Y139436D01*
X208230Y140230D01*
X207436Y140761D01*
X207000Y140848D01*
D02*
G37*
G36*
X206000D02*
X205564Y140761D01*
X204770Y140230D01*
X204239Y139436D01*
X204152Y139000D01*
X206000D01*
Y140848D01*
D02*
G37*
G36*
X192000D02*
Y139000D01*
X193848D01*
X193761Y139436D01*
X193230Y140230D01*
X192436Y140761D01*
X192000Y140848D01*
D02*
G37*
G36*
X191000D02*
X190564Y140761D01*
X189770Y140230D01*
X189239Y139436D01*
X189152Y139000D01*
X191000D01*
Y140848D01*
D02*
G37*
G36*
X52000Y138768D02*
X51221D01*
X50137Y138626D01*
X49128Y138207D01*
X48261Y137542D01*
X47808Y136952D01*
X47192D01*
X46739Y137542D01*
X45872Y138207D01*
X44863Y138626D01*
X43780Y138768D01*
X43000D01*
Y134583D01*
Y130397D01*
X43780D01*
X44863Y130540D01*
X45872Y130958D01*
X46739Y131623D01*
X47192Y132213D01*
X47808D01*
X48261Y131623D01*
X49128Y130958D01*
X50137Y130540D01*
X51221Y130397D01*
X52000D01*
Y134583D01*
Y138768D01*
D02*
G37*
G36*
X268848Y138000D02*
X267000D01*
Y136152D01*
X267436Y136239D01*
X268230Y136770D01*
X268761Y137564D01*
X268848Y138000D01*
D02*
G37*
G36*
X266000D02*
X264152D01*
X264239Y137564D01*
X264770Y136770D01*
X265564Y136239D01*
X266000Y136152D01*
Y138000D01*
D02*
G37*
G36*
X253848D02*
X252000D01*
Y136152D01*
X252436Y136239D01*
X253230Y136770D01*
X253761Y137564D01*
X253848Y138000D01*
D02*
G37*
G36*
X251000D02*
X249152D01*
X249239Y137564D01*
X249770Y136770D01*
X250564Y136239D01*
X251000Y136152D01*
Y138000D01*
D02*
G37*
G36*
X238848D02*
X237000D01*
Y136152D01*
X237436Y136239D01*
X238230Y136770D01*
X238761Y137564D01*
X238848Y138000D01*
D02*
G37*
G36*
X236000D02*
X234152D01*
X234239Y137564D01*
X234770Y136770D01*
X235564Y136239D01*
X236000Y136152D01*
Y138000D01*
D02*
G37*
G36*
X208848D02*
X207000D01*
Y136152D01*
X207436Y136239D01*
X208230Y136770D01*
X208761Y137564D01*
X208848Y138000D01*
D02*
G37*
G36*
X206000D02*
X204152D01*
X204239Y137564D01*
X204770Y136770D01*
X205564Y136239D01*
X206000Y136152D01*
Y138000D01*
D02*
G37*
G36*
X193848D02*
X192000D01*
Y136152D01*
X192436Y136239D01*
X193230Y136770D01*
X193761Y137564D01*
X193848Y138000D01*
D02*
G37*
G36*
X53780Y138768D02*
X53000D01*
Y135083D01*
X57899D01*
X57822Y135666D01*
X57404Y136675D01*
X56739Y137542D01*
X55872Y138207D01*
X54863Y138626D01*
X53780Y138768D01*
D02*
G37*
G36*
X42000D02*
X41221D01*
X40137Y138626D01*
X39128Y138207D01*
X38261Y137542D01*
X37596Y136675D01*
X37178Y135666D01*
X37101Y135083D01*
X42000D01*
Y138768D01*
D02*
G37*
G36*
X33756Y137850D02*
X30500D01*
Y134791D01*
X33756D01*
Y137850D01*
D02*
G37*
G36*
X29500D02*
X26244D01*
Y134791D01*
X29500D01*
Y137850D01*
D02*
G37*
G36*
X57899Y134083D02*
X53000D01*
Y130397D01*
X53780D01*
X54863Y130540D01*
X55872Y130958D01*
X56739Y131623D01*
X57404Y132490D01*
X57822Y133499D01*
X57899Y134083D01*
D02*
G37*
G36*
X42000D02*
X37101D01*
X37178Y133499D01*
X37596Y132490D01*
X38261Y131623D01*
X39128Y130958D01*
X40137Y130540D01*
X41221Y130397D01*
X42000D01*
Y134083D01*
D02*
G37*
G36*
X145374Y130713D02*
X141224D01*
Y127744D01*
X145374D01*
Y130713D01*
D02*
G37*
G36*
X139075D02*
X134925D01*
Y130164D01*
X96645D01*
X96255Y130087D01*
X95924Y129866D01*
X84264Y118206D01*
X84043Y117875D01*
X83965Y117485D01*
Y81071D01*
X83469D01*
Y76429D01*
Y72492D01*
Y68555D01*
Y63929D01*
X83933D01*
Y41547D01*
X84011Y41157D01*
X84232Y40826D01*
X97551Y27507D01*
X97882Y27286D01*
X98272Y27209D01*
X134925D01*
Y26744D01*
X139075D01*
Y29713D01*
X134925D01*
Y29248D01*
X98694D01*
X85972Y41970D01*
Y63929D01*
X86437D01*
Y64921D01*
X86899Y65113D01*
X110076Y41936D01*
X110406Y41715D01*
X110797Y41637D01*
X135276D01*
Y41244D01*
X139425D01*
Y44213D01*
X135276D01*
Y43676D01*
X111219D01*
X86868Y68028D01*
X87075Y68528D01*
X91030D01*
X103279Y56279D01*
X103610Y56058D01*
X104000Y55980D01*
X135425D01*
Y55472D01*
X139575D01*
Y58441D01*
X135425D01*
Y58020D01*
X104422D01*
X92446Y69996D01*
X92653Y70496D01*
X105949D01*
X105954Y70495D01*
X134925D01*
Y70030D01*
X139075D01*
Y72998D01*
X134925D01*
Y72535D01*
X105957D01*
X105953Y72535D01*
X99184D01*
X98977Y73035D01*
X110865Y84923D01*
X134925D01*
Y84458D01*
X139075D01*
Y87427D01*
X134925D01*
Y86962D01*
X110443D01*
X110053Y86885D01*
X109722Y86664D01*
X97562Y74504D01*
X94653D01*
X94446Y75004D01*
X118793Y99352D01*
X134925D01*
Y98887D01*
X139075D01*
Y101856D01*
X134925D01*
Y101391D01*
X118371D01*
X117981Y101313D01*
X117650Y101092D01*
X93030Y76472D01*
X88121D01*
X87914Y76972D01*
X94221Y83279D01*
X94442Y83610D01*
X94520Y84000D01*
Y90578D01*
X114161Y110219D01*
X114549Y109900D01*
X114239Y109436D01*
X114152Y109000D01*
X116000D01*
Y110848D01*
X115564Y110761D01*
X115100Y110451D01*
X114781Y110839D01*
X117722Y113780D01*
X134925D01*
Y113315D01*
X139075D01*
Y116284D01*
X134925D01*
Y115819D01*
X117300D01*
X116910Y115742D01*
X116579Y115521D01*
X92779Y91721D01*
X92558Y91390D01*
X92480Y91000D01*
Y84422D01*
X86937Y78879D01*
X86437Y79086D01*
Y81071D01*
X86005D01*
Y117063D01*
X97067Y128125D01*
X134925D01*
Y127744D01*
X139075D01*
Y130713D01*
D02*
G37*
G36*
X42000Y128768D02*
X41221D01*
X40137Y128626D01*
X39128Y128207D01*
X38261Y127542D01*
X37596Y126675D01*
X37178Y125666D01*
X37101Y125083D01*
X42000D01*
Y128768D01*
D02*
G37*
G36*
X259500Y125848D02*
Y124000D01*
X261348D01*
X261261Y124436D01*
X260730Y125230D01*
X259936Y125761D01*
X259500Y125848D01*
D02*
G37*
G36*
X258500D02*
X258064Y125761D01*
X257270Y125230D01*
X256739Y124436D01*
X256652Y124000D01*
X258500D01*
Y125848D01*
D02*
G37*
G36*
X243500D02*
X243064Y125761D01*
X242270Y125230D01*
X241739Y124436D01*
X241652Y124000D01*
X243500D01*
Y125848D01*
D02*
G37*
G36*
X229500D02*
Y124000D01*
X231348D01*
X231261Y124436D01*
X230730Y125230D01*
X229936Y125761D01*
X229500Y125848D01*
D02*
G37*
G36*
X228500D02*
X228064Y125761D01*
X227270Y125230D01*
X226739Y124436D01*
X226652Y124000D01*
X228500D01*
Y125848D01*
D02*
G37*
G36*
X169500D02*
Y124000D01*
X171348D01*
X171261Y124436D01*
X170730Y125230D01*
X169936Y125761D01*
X169500Y125848D01*
D02*
G37*
G36*
X168500D02*
X168064Y125761D01*
X167270Y125230D01*
X166739Y124436D01*
X166652Y124000D01*
X168500D01*
Y125848D01*
D02*
G37*
G36*
X154500D02*
Y124000D01*
X156348D01*
X156261Y124436D01*
X155730Y125230D01*
X154936Y125761D01*
X154500Y125848D01*
D02*
G37*
G36*
X153500D02*
X153064Y125761D01*
X152270Y125230D01*
X151739Y124436D01*
X151652Y124000D01*
X153500D01*
Y125848D01*
D02*
G37*
G36*
X139500D02*
Y124000D01*
X141348D01*
X141261Y124436D01*
X140730Y125230D01*
X139936Y125761D01*
X139500Y125848D01*
D02*
G37*
G36*
X138500D02*
X138064Y125761D01*
X137270Y125230D01*
X136739Y124436D01*
X136652Y124000D01*
X138500D01*
Y125848D01*
D02*
G37*
G36*
X124500D02*
Y124000D01*
X126348D01*
X126261Y124436D01*
X125730Y125230D01*
X124936Y125761D01*
X124500Y125848D01*
D02*
G37*
G36*
X123500D02*
X123064Y125761D01*
X122270Y125230D01*
X121739Y124436D01*
X121652Y124000D01*
X123500D01*
Y125848D01*
D02*
G37*
G36*
X109500D02*
Y124000D01*
X111348D01*
X111261Y124436D01*
X110730Y125230D01*
X109936Y125761D01*
X109500Y125848D01*
D02*
G37*
G36*
X108500D02*
X108064Y125761D01*
X107270Y125230D01*
X106739Y124436D01*
X106652Y124000D01*
X108500D01*
Y125848D01*
D02*
G37*
G36*
X79500D02*
Y124000D01*
X81348D01*
X81261Y124436D01*
X80730Y125230D01*
X79936Y125761D01*
X79500Y125848D01*
D02*
G37*
G36*
X78500D02*
X78064Y125761D01*
X77270Y125230D01*
X76739Y124436D01*
X76652Y124000D01*
X78500D01*
Y125848D01*
D02*
G37*
G36*
X34500D02*
Y124000D01*
X36348D01*
X36261Y124436D01*
X35730Y125230D01*
X34936Y125761D01*
X34500Y125848D01*
D02*
G37*
G36*
X33500D02*
X33064Y125761D01*
X32270Y125230D01*
X31739Y124436D01*
X31652Y124000D01*
X33500D01*
Y125848D01*
D02*
G37*
G36*
X19500D02*
Y124000D01*
X21348D01*
X21261Y124436D01*
X20730Y125230D01*
X19936Y125761D01*
X19500Y125848D01*
D02*
G37*
G36*
X18500D02*
X18064Y125761D01*
X17270Y125230D01*
X16739Y124436D01*
X16652Y124000D01*
X18500D01*
Y125848D01*
D02*
G37*
G36*
X4500D02*
Y124000D01*
X6348D01*
X6261Y124436D01*
X5730Y125230D01*
X4936Y125761D01*
X4500Y125848D01*
D02*
G37*
G36*
X3500D02*
X3064Y125761D01*
X2270Y125230D01*
X1739Y124436D01*
X1652Y124000D01*
X3500D01*
Y125848D01*
D02*
G37*
G36*
X261348Y123000D02*
X259500D01*
Y121152D01*
X259936Y121239D01*
X260730Y121770D01*
X261261Y122564D01*
X261348Y123000D01*
D02*
G37*
G36*
X258500D02*
X256652D01*
X256739Y122564D01*
X257270Y121770D01*
X258064Y121239D01*
X258500Y121152D01*
Y123000D01*
D02*
G37*
G36*
X243500D02*
X241652D01*
X241739Y122564D01*
X242270Y121770D01*
X243064Y121239D01*
X243500Y121152D01*
Y123000D01*
D02*
G37*
G36*
X231348D02*
X229500D01*
Y121152D01*
X229936Y121239D01*
X230730Y121770D01*
X231261Y122564D01*
X231348Y123000D01*
D02*
G37*
G36*
X228500D02*
X226652D01*
X226739Y122564D01*
X227270Y121770D01*
X228064Y121239D01*
X228500Y121152D01*
Y123000D01*
D02*
G37*
G36*
X171348D02*
X169500D01*
Y121152D01*
X169936Y121239D01*
X170730Y121770D01*
X171261Y122564D01*
X171348Y123000D01*
D02*
G37*
G36*
X168500D02*
X166652D01*
X166739Y122564D01*
X167270Y121770D01*
X168064Y121239D01*
X168500Y121152D01*
Y123000D01*
D02*
G37*
G36*
X156348D02*
X154500D01*
Y121152D01*
X154936Y121239D01*
X155730Y121770D01*
X156261Y122564D01*
X156348Y123000D01*
D02*
G37*
G36*
X153500D02*
X151652D01*
X151739Y122564D01*
X152270Y121770D01*
X153064Y121239D01*
X153500Y121152D01*
Y123000D01*
D02*
G37*
G36*
X141348D02*
X139500D01*
Y121152D01*
X139936Y121239D01*
X140730Y121770D01*
X141261Y122564D01*
X141348Y123000D01*
D02*
G37*
G36*
X138500D02*
X136652D01*
X136739Y122564D01*
X137270Y121770D01*
X138064Y121239D01*
X138500Y121152D01*
Y123000D01*
D02*
G37*
G36*
X126348D02*
X124500D01*
Y121152D01*
X124936Y121239D01*
X125730Y121770D01*
X126261Y122564D01*
X126348Y123000D01*
D02*
G37*
G36*
X123500D02*
X121652D01*
X121739Y122564D01*
X122270Y121770D01*
X123064Y121239D01*
X123500Y121152D01*
Y123000D01*
D02*
G37*
G36*
X111348D02*
X109500D01*
Y121152D01*
X109936Y121239D01*
X110730Y121770D01*
X111261Y122564D01*
X111348Y123000D01*
D02*
G37*
G36*
X108500D02*
X106652D01*
X106739Y122564D01*
X107270Y121770D01*
X108064Y121239D01*
X108500Y121152D01*
Y123000D01*
D02*
G37*
G36*
X81348D02*
X79500D01*
Y121152D01*
X79936Y121239D01*
X80730Y121770D01*
X81261Y122564D01*
X81348Y123000D01*
D02*
G37*
G36*
X78500D02*
X76652D01*
X76739Y122564D01*
X77270Y121770D01*
X78064Y121239D01*
X78500Y121152D01*
Y123000D01*
D02*
G37*
G36*
X36348D02*
X34500D01*
Y121152D01*
X34936Y121239D01*
X35730Y121770D01*
X36261Y122564D01*
X36348Y123000D01*
D02*
G37*
G36*
X33500D02*
X31652D01*
X31739Y122564D01*
X32270Y121770D01*
X33064Y121239D01*
X33500Y121152D01*
Y123000D01*
D02*
G37*
G36*
X21348D02*
X19500D01*
Y121152D01*
X19936Y121239D01*
X20730Y121770D01*
X21261Y122564D01*
X21348Y123000D01*
D02*
G37*
G36*
X18500D02*
X16652D01*
X16739Y122564D01*
X17270Y121770D01*
X18064Y121239D01*
X18500Y121152D01*
Y123000D01*
D02*
G37*
G36*
X6348D02*
X4500D01*
Y121152D01*
X4936Y121239D01*
X5730Y121770D01*
X6261Y122564D01*
X6348Y123000D01*
D02*
G37*
G36*
X3500D02*
X1652D01*
X1739Y122564D01*
X2270Y121770D01*
X3064Y121239D01*
X3500Y121152D01*
Y123000D01*
D02*
G37*
G36*
X42000Y124083D02*
X37101D01*
X37178Y123499D01*
X37596Y122490D01*
X38261Y121623D01*
X39128Y120958D01*
X40137Y120540D01*
X41221Y120397D01*
X42000D01*
Y124083D01*
D02*
G37*
G36*
X139075Y119827D02*
X134925D01*
Y116859D01*
X139075D01*
Y119827D01*
D02*
G37*
G36*
X91350Y118348D02*
Y116500D01*
X93198D01*
X93111Y116936D01*
X92580Y117730D01*
X91786Y118261D01*
X91350Y118348D01*
D02*
G37*
G36*
X90350D02*
X89914Y118261D01*
X89120Y117730D01*
X88589Y116936D01*
X88502Y116500D01*
X90350D01*
Y118348D01*
D02*
G37*
G36*
X67756Y118350D02*
X64500D01*
Y115291D01*
X67756D01*
Y118350D01*
D02*
G37*
G36*
X63500D02*
X60244D01*
Y115291D01*
X63500D01*
Y118350D01*
D02*
G37*
G36*
X93198Y115500D02*
X91350D01*
Y113652D01*
X91786Y113739D01*
X92580Y114270D01*
X93111Y115064D01*
X93198Y115500D01*
D02*
G37*
G36*
X90350D02*
X88502D01*
X88589Y115064D01*
X89120Y114270D01*
X89914Y113739D01*
X90350Y113652D01*
Y115500D01*
D02*
G37*
G36*
X145374Y116284D02*
X141224D01*
Y113315D01*
X145374D01*
Y116284D01*
D02*
G37*
G36*
X267000Y110848D02*
Y109000D01*
X268848D01*
X268761Y109436D01*
X268230Y110230D01*
X267436Y110761D01*
X267000Y110848D01*
D02*
G37*
G36*
X266000D02*
X265564Y110761D01*
X264770Y110230D01*
X264239Y109436D01*
X264152Y109000D01*
X266000D01*
Y110848D01*
D02*
G37*
G36*
X252000D02*
Y109000D01*
X253848D01*
X253761Y109436D01*
X253230Y110230D01*
X252436Y110761D01*
X252000Y110848D01*
D02*
G37*
G36*
X251000D02*
X250564Y110761D01*
X249770Y110230D01*
X249239Y109436D01*
X249152Y109000D01*
X251000D01*
Y110848D01*
D02*
G37*
G36*
X237000D02*
Y109000D01*
X238848D01*
X238761Y109436D01*
X238230Y110230D01*
X237436Y110761D01*
X237000Y110848D01*
D02*
G37*
G36*
X236000D02*
X235564Y110761D01*
X234770Y110230D01*
X234239Y109436D01*
X234152Y109000D01*
X236000D01*
Y110848D01*
D02*
G37*
G36*
X147000D02*
Y109000D01*
X148848D01*
X148761Y109436D01*
X148230Y110230D01*
X147436Y110761D01*
X147000Y110848D01*
D02*
G37*
G36*
X146000D02*
X145564Y110761D01*
X144770Y110230D01*
X144239Y109436D01*
X144152Y109000D01*
X146000D01*
Y110848D01*
D02*
G37*
G36*
X132000D02*
Y109000D01*
X133848D01*
X133761Y109436D01*
X133230Y110230D01*
X132436Y110761D01*
X132000Y110848D01*
D02*
G37*
G36*
X131000D02*
X130564Y110761D01*
X129770Y110230D01*
X129239Y109436D01*
X129152Y109000D01*
X131000D01*
Y110848D01*
D02*
G37*
G36*
X117000D02*
Y109000D01*
X118848D01*
X118761Y109436D01*
X118230Y110230D01*
X117436Y110761D01*
X117000Y110848D01*
D02*
G37*
G36*
X102000D02*
Y109000D01*
X103848D01*
X103761Y109436D01*
X103230Y110230D01*
X102436Y110761D01*
X102000Y110848D01*
D02*
G37*
G36*
X101000D02*
X100564Y110761D01*
X99770Y110230D01*
X99239Y109436D01*
X99152Y109000D01*
X101000D01*
Y110848D01*
D02*
G37*
G36*
X72000D02*
Y109000D01*
X73848D01*
X73761Y109436D01*
X73230Y110230D01*
X72436Y110761D01*
X72000Y110848D01*
D02*
G37*
G36*
X71000D02*
X70564Y110761D01*
X69770Y110230D01*
X69239Y109436D01*
X69152Y109000D01*
X71000D01*
Y110848D01*
D02*
G37*
G36*
X27000D02*
Y109000D01*
X28848D01*
X28761Y109436D01*
X28230Y110230D01*
X27436Y110761D01*
X27000Y110848D01*
D02*
G37*
G36*
X26000D02*
X25564Y110761D01*
X24770Y110230D01*
X24239Y109436D01*
X24152Y109000D01*
X26000D01*
Y110848D01*
D02*
G37*
G36*
X268848Y108000D02*
X267000D01*
Y106152D01*
X267436Y106239D01*
X268230Y106770D01*
X268761Y107564D01*
X268848Y108000D01*
D02*
G37*
G36*
X266000D02*
X264152D01*
X264239Y107564D01*
X264770Y106770D01*
X265564Y106239D01*
X266000Y106152D01*
Y108000D01*
D02*
G37*
G36*
X253848D02*
X252000D01*
Y106152D01*
X252436Y106239D01*
X253230Y106770D01*
X253761Y107564D01*
X253848Y108000D01*
D02*
G37*
G36*
X251000D02*
X249152D01*
X249239Y107564D01*
X249770Y106770D01*
X250564Y106239D01*
X251000Y106152D01*
Y108000D01*
D02*
G37*
G36*
X238848D02*
X237000D01*
Y106152D01*
X237436Y106239D01*
X238230Y106770D01*
X238761Y107564D01*
X238848Y108000D01*
D02*
G37*
G36*
X236000D02*
X234152D01*
X234239Y107564D01*
X234770Y106770D01*
X235564Y106239D01*
X236000Y106152D01*
Y108000D01*
D02*
G37*
G36*
X148848D02*
X147000D01*
Y106152D01*
X147436Y106239D01*
X148230Y106770D01*
X148761Y107564D01*
X148848Y108000D01*
D02*
G37*
G36*
X146000D02*
X144152D01*
X144239Y107564D01*
X144770Y106770D01*
X145564Y106239D01*
X146000Y106152D01*
Y108000D01*
D02*
G37*
G36*
X133848D02*
X132000D01*
Y106152D01*
X132436Y106239D01*
X133230Y106770D01*
X133761Y107564D01*
X133848Y108000D01*
D02*
G37*
G36*
X131000D02*
X129152D01*
X129239Y107564D01*
X129770Y106770D01*
X130564Y106239D01*
X131000Y106152D01*
Y108000D01*
D02*
G37*
G36*
X118848D02*
X117000D01*
Y106152D01*
X117436Y106239D01*
X118230Y106770D01*
X118761Y107564D01*
X118848Y108000D01*
D02*
G37*
G36*
X116000D02*
X114152D01*
X114239Y107564D01*
X114770Y106770D01*
X115564Y106239D01*
X116000Y106152D01*
Y108000D01*
D02*
G37*
G36*
X103848D02*
X102000D01*
Y106152D01*
X102436Y106239D01*
X103230Y106770D01*
X103761Y107564D01*
X103848Y108000D01*
D02*
G37*
G36*
X101000D02*
X99152D01*
X99239Y107564D01*
X99770Y106770D01*
X100564Y106239D01*
X101000Y106152D01*
Y108000D01*
D02*
G37*
G36*
X73848D02*
X72000D01*
Y106152D01*
X72436Y106239D01*
X73230Y106770D01*
X73761Y107564D01*
X73848Y108000D01*
D02*
G37*
G36*
X71000D02*
X69152D01*
X69239Y107564D01*
X69770Y106770D01*
X70564Y106239D01*
X71000Y106152D01*
Y108000D01*
D02*
G37*
G36*
X43848D02*
X42000D01*
Y106152D01*
X42436Y106239D01*
X43230Y106770D01*
X43761Y107564D01*
X43848Y108000D01*
D02*
G37*
G36*
X41000D02*
X39152D01*
X39239Y107564D01*
X39770Y106770D01*
X40564Y106239D01*
X41000Y106152D01*
Y108000D01*
D02*
G37*
G36*
X28848D02*
X27000D01*
Y106152D01*
X27436Y106239D01*
X28230Y106770D01*
X28761Y107564D01*
X28848Y108000D01*
D02*
G37*
G36*
X26000D02*
X24152D01*
X24239Y107564D01*
X24770Y106770D01*
X25564Y106239D01*
X26000Y106152D01*
Y108000D01*
D02*
G37*
G36*
X62209Y107256D02*
X59150D01*
Y104000D01*
X62209D01*
Y107256D01*
D02*
G37*
G36*
X139075Y105399D02*
X134925D01*
Y102430D01*
X139075D01*
Y105399D01*
D02*
G37*
G36*
X62209Y103000D02*
X59150D01*
Y99744D01*
X62209D01*
Y103000D01*
D02*
G37*
G36*
X145374Y101856D02*
X141224D01*
Y98887D01*
X145374D01*
Y101856D01*
D02*
G37*
G36*
X240350Y101256D02*
X237291D01*
Y98000D01*
X240350D01*
Y101256D01*
D02*
G37*
G36*
X193043Y101043D02*
X192852D01*
X192386Y100950D01*
X191991Y100686D01*
X191727Y100291D01*
X191634Y99825D01*
Y97272D01*
X193043D01*
Y101043D01*
D02*
G37*
G36*
X43780Y98768D02*
X43000D01*
Y95083D01*
X47899D01*
X47822Y95666D01*
X47404Y96675D01*
X46739Y97542D01*
X45872Y98207D01*
X44863Y98625D01*
X43780Y98768D01*
D02*
G37*
G36*
X42000D02*
X41221D01*
X40137Y98625D01*
X39128Y98207D01*
X38261Y97542D01*
X37596Y96675D01*
X37178Y95666D01*
X37101Y95083D01*
X42000D01*
Y98768D01*
D02*
G37*
G36*
X259500Y95848D02*
Y94000D01*
X261348D01*
X261261Y94436D01*
X260730Y95230D01*
X259936Y95761D01*
X259500Y95848D01*
D02*
G37*
G36*
X258500D02*
X258064Y95761D01*
X257270Y95230D01*
X256739Y94436D01*
X256652Y94000D01*
X258500D01*
Y95848D01*
D02*
G37*
G36*
X229500D02*
Y94000D01*
X231348D01*
X231261Y94436D01*
X230730Y95230D01*
X229936Y95761D01*
X229500Y95848D01*
D02*
G37*
G36*
X228500D02*
X228064Y95761D01*
X227270Y95230D01*
X226739Y94436D01*
X226652Y94000D01*
X228500D01*
Y95848D01*
D02*
G37*
G36*
X169500D02*
Y94000D01*
X171348D01*
X171261Y94436D01*
X170730Y95230D01*
X169936Y95761D01*
X169500Y95848D01*
D02*
G37*
G36*
X168500D02*
X168064Y95761D01*
X167270Y95230D01*
X166739Y94436D01*
X166652Y94000D01*
X168500D01*
Y95848D01*
D02*
G37*
G36*
X139500D02*
Y94000D01*
X141348D01*
X141261Y94436D01*
X140730Y95230D01*
X139936Y95761D01*
X139500Y95848D01*
D02*
G37*
G36*
X138500D02*
X138064Y95761D01*
X137270Y95230D01*
X136739Y94436D01*
X136652Y94000D01*
X138500D01*
Y95848D01*
D02*
G37*
G36*
X125100D02*
Y94000D01*
X126948D01*
X126861Y94436D01*
X126330Y95230D01*
X125536Y95761D01*
X125100Y95848D01*
D02*
G37*
G36*
X124100D02*
X123664Y95761D01*
X122870Y95230D01*
X122339Y94436D01*
X122252Y94000D01*
X124100D01*
Y95848D01*
D02*
G37*
G36*
X79500D02*
Y94000D01*
X81348D01*
X81261Y94436D01*
X80730Y95230D01*
X79936Y95761D01*
X79500Y95848D01*
D02*
G37*
G36*
X78500D02*
X78064Y95761D01*
X77270Y95230D01*
X76739Y94436D01*
X76652Y94000D01*
X78500D01*
Y95848D01*
D02*
G37*
G36*
X64500D02*
Y94000D01*
X66348D01*
X66261Y94436D01*
X65730Y95230D01*
X64936Y95761D01*
X64500Y95848D01*
D02*
G37*
G36*
X63500D02*
X63064Y95761D01*
X62270Y95230D01*
X61739Y94436D01*
X61652Y94000D01*
X63500D01*
Y95848D01*
D02*
G37*
G36*
X34500D02*
Y94000D01*
X36348D01*
X36261Y94436D01*
X35730Y95230D01*
X34936Y95761D01*
X34500Y95848D01*
D02*
G37*
G36*
X33500D02*
X33064Y95761D01*
X32270Y95230D01*
X31739Y94436D01*
X31652Y94000D01*
X33500D01*
Y95848D01*
D02*
G37*
G36*
X19500D02*
Y94000D01*
X21348D01*
X21261Y94436D01*
X20730Y95230D01*
X19936Y95761D01*
X19500Y95848D01*
D02*
G37*
G36*
X18500D02*
X18064Y95761D01*
X17270Y95230D01*
X16739Y94436D01*
X16652Y94000D01*
X18500D01*
Y95848D01*
D02*
G37*
G36*
X4500D02*
Y94000D01*
X6348D01*
X6261Y94436D01*
X5730Y95230D01*
X4936Y95761D01*
X4500Y95848D01*
D02*
G37*
G36*
X3500D02*
X3064Y95761D01*
X2270Y95230D01*
X1739Y94436D01*
X1652Y94000D01*
X3500D01*
Y95848D01*
D02*
G37*
G36*
X240350Y97000D02*
X237291D01*
Y93744D01*
X240350D01*
Y97000D01*
D02*
G37*
G36*
X193043Y96272D02*
X191634D01*
Y93718D01*
X191727Y93252D01*
X191991Y92857D01*
X192386Y92593D01*
X192852Y92500D01*
X193043D01*
Y96272D01*
D02*
G37*
G36*
X261348Y93000D02*
X259500D01*
Y91152D01*
X259936Y91239D01*
X260730Y91770D01*
X261261Y92564D01*
X261348Y93000D01*
D02*
G37*
G36*
X258500D02*
X256652D01*
X256739Y92564D01*
X257270Y91770D01*
X258064Y91239D01*
X258500Y91152D01*
Y93000D01*
D02*
G37*
G36*
X231348D02*
X229500D01*
Y91152D01*
X229936Y91239D01*
X230730Y91770D01*
X231261Y92564D01*
X231348Y93000D01*
D02*
G37*
G36*
X228500D02*
X226652D01*
X226739Y92564D01*
X227270Y91770D01*
X228064Y91239D01*
X228500Y91152D01*
Y93000D01*
D02*
G37*
G36*
X171348D02*
X169500D01*
Y91152D01*
X169936Y91239D01*
X170730Y91770D01*
X171261Y92564D01*
X171348Y93000D01*
D02*
G37*
G36*
X168500D02*
X166652D01*
X166739Y92564D01*
X167270Y91770D01*
X168064Y91239D01*
X168500Y91152D01*
Y93000D01*
D02*
G37*
G36*
X126948D02*
X125100D01*
Y91152D01*
X125536Y91239D01*
X126330Y91770D01*
X126861Y92564D01*
X126948Y93000D01*
D02*
G37*
G36*
X124100D02*
X122252D01*
X122339Y92564D01*
X122870Y91770D01*
X123664Y91239D01*
X124100Y91152D01*
Y93000D01*
D02*
G37*
G36*
X81348D02*
X79500D01*
Y91152D01*
X79936Y91239D01*
X80730Y91770D01*
X81261Y92564D01*
X81348Y93000D01*
D02*
G37*
G36*
X78500D02*
X76652D01*
X76739Y92564D01*
X77270Y91770D01*
X78064Y91239D01*
X78500Y91152D01*
Y93000D01*
D02*
G37*
G36*
X66348D02*
X64500D01*
Y91152D01*
X64936Y91239D01*
X65730Y91770D01*
X66261Y92564D01*
X66348Y93000D01*
D02*
G37*
G36*
X63500D02*
X61652D01*
X61739Y92564D01*
X62270Y91770D01*
X63064Y91239D01*
X63500Y91152D01*
Y93000D01*
D02*
G37*
G36*
X36348D02*
X34500D01*
Y91152D01*
X34936Y91239D01*
X35730Y91770D01*
X36261Y92564D01*
X36348Y93000D01*
D02*
G37*
G36*
X33500D02*
X31652D01*
X31739Y92564D01*
X32270Y91770D01*
X33064Y91239D01*
X33500Y91152D01*
Y93000D01*
D02*
G37*
G36*
X21348D02*
X19500D01*
Y91152D01*
X19936Y91239D01*
X20730Y91770D01*
X21261Y92564D01*
X21348Y93000D01*
D02*
G37*
G36*
X18500D02*
X16652D01*
X16739Y92564D01*
X17270Y91770D01*
X18064Y91239D01*
X18500Y91152D01*
Y93000D01*
D02*
G37*
G36*
X6348D02*
X4500D01*
Y91152D01*
X4936Y91239D01*
X5730Y91770D01*
X6261Y92564D01*
X6348Y93000D01*
D02*
G37*
G36*
X3500D02*
X1652D01*
X1739Y92564D01*
X2270Y91770D01*
X3064Y91239D01*
X3500Y91152D01*
Y93000D01*
D02*
G37*
G36*
X47899Y94083D02*
X43000D01*
Y90397D01*
X43780D01*
X44863Y90540D01*
X45872Y90958D01*
X46739Y91623D01*
X47404Y92490D01*
X47822Y93499D01*
X47899Y94083D01*
D02*
G37*
G36*
X42000D02*
X37101D01*
X37178Y93499D01*
X37596Y92490D01*
X38261Y91623D01*
X39128Y90958D01*
X40137Y90540D01*
X41221Y90397D01*
X42000D01*
Y94083D01*
D02*
G37*
G36*
X141348Y93000D02*
X136652D01*
X136739Y92564D01*
X137270Y91770D01*
X137718Y91470D01*
X137566Y90970D01*
X134925D01*
Y88002D01*
X139075D01*
Y90567D01*
X139075Y90970D01*
X139499Y91152D01*
X139936Y91239D01*
X140730Y91770D01*
X141261Y92564D01*
X141348Y93000D01*
D02*
G37*
G36*
X43780Y88768D02*
X43000D01*
Y85083D01*
X47899D01*
X47822Y85666D01*
X47404Y86675D01*
X46739Y87542D01*
X45872Y88207D01*
X44863Y88626D01*
X43780Y88768D01*
D02*
G37*
G36*
X42000D02*
X41221D01*
X40137Y88626D01*
X39128Y88207D01*
X38261Y87542D01*
X37596Y86675D01*
X37178Y85666D01*
X37101Y85083D01*
X42000D01*
Y88768D01*
D02*
G37*
G36*
X145374Y87427D02*
X141224D01*
Y84458D01*
X145374D01*
Y87427D01*
D02*
G37*
G36*
X47899Y84083D02*
X43000D01*
Y80397D01*
X43780D01*
X44863Y80540D01*
X45872Y80958D01*
X46739Y81623D01*
X47404Y82490D01*
X47822Y83499D01*
X47899Y84083D01*
D02*
G37*
G36*
X42000D02*
X37101D01*
X37178Y83499D01*
X37596Y82490D01*
X38261Y81623D01*
X39128Y80958D01*
X40137Y80540D01*
X41221Y80397D01*
X42000D01*
Y84083D01*
D02*
G37*
G36*
X81032Y81571D02*
X79547D01*
Y80234D01*
X81032D01*
Y81571D01*
D02*
G37*
G36*
X78547D02*
X77063D01*
Y80234D01*
X78547D01*
Y81571D01*
D02*
G37*
G36*
X267000Y80848D02*
Y79000D01*
X268848D01*
X268761Y79436D01*
X268230Y80230D01*
X267436Y80761D01*
X267000Y80848D01*
D02*
G37*
G36*
X266000D02*
X265564Y80761D01*
X264770Y80230D01*
X264239Y79436D01*
X264152Y79000D01*
X266000D01*
Y80848D01*
D02*
G37*
G36*
X252000D02*
Y79000D01*
X253848D01*
X253761Y79436D01*
X253230Y80230D01*
X252436Y80761D01*
X252000Y80848D01*
D02*
G37*
G36*
X251000D02*
X250564Y80761D01*
X249770Y80230D01*
X249239Y79436D01*
X249152Y79000D01*
X251000D01*
Y80848D01*
D02*
G37*
G36*
X237000D02*
Y79000D01*
X238848D01*
X238761Y79436D01*
X238230Y80230D01*
X237436Y80761D01*
X237000Y80848D01*
D02*
G37*
G36*
X236000D02*
X235564Y80761D01*
X234770Y80230D01*
X234239Y79436D01*
X234152Y79000D01*
X236000D01*
Y80848D01*
D02*
G37*
G36*
X207000D02*
Y79000D01*
X208848D01*
X208761Y79436D01*
X208230Y80230D01*
X207436Y80761D01*
X207000Y80848D01*
D02*
G37*
G36*
X206000D02*
X205564Y80761D01*
X204770Y80230D01*
X204239Y79436D01*
X204152Y79000D01*
X206000D01*
Y80848D01*
D02*
G37*
G36*
X177000D02*
Y79000D01*
X178848D01*
X178761Y79436D01*
X178230Y80230D01*
X177436Y80761D01*
X177000Y80848D01*
D02*
G37*
G36*
X176000D02*
X175564Y80761D01*
X174770Y80230D01*
X174239Y79436D01*
X174152Y79000D01*
X176000D01*
Y80848D01*
D02*
G37*
G36*
X162000D02*
Y79000D01*
X163848D01*
X163761Y79436D01*
X163230Y80230D01*
X162436Y80761D01*
X162000Y80848D01*
D02*
G37*
G36*
X161000D02*
X160564Y80761D01*
X159770Y80230D01*
X159239Y79436D01*
X159152Y79000D01*
X161000D01*
Y80848D01*
D02*
G37*
G36*
X147000D02*
Y79000D01*
X148848D01*
X148761Y79436D01*
X148230Y80230D01*
X147436Y80761D01*
X147000Y80848D01*
D02*
G37*
G36*
X146000D02*
X145564Y80761D01*
X144770Y80230D01*
X144239Y79436D01*
X144152Y79000D01*
X146000D01*
Y80848D01*
D02*
G37*
G36*
X132000D02*
Y79000D01*
X133848D01*
X133761Y79436D01*
X133230Y80230D01*
X132436Y80761D01*
X132000Y80848D01*
D02*
G37*
G36*
X131000D02*
X130564Y80761D01*
X129770Y80230D01*
X129239Y79436D01*
X129152Y79000D01*
X131000D01*
Y80848D01*
D02*
G37*
G36*
X117000D02*
Y79000D01*
X118848D01*
X118761Y79436D01*
X118230Y80230D01*
X117436Y80761D01*
X117000Y80848D01*
D02*
G37*
G36*
X116000D02*
X115564Y80761D01*
X114770Y80230D01*
X114239Y79436D01*
X114152Y79000D01*
X116000D01*
Y80848D01*
D02*
G37*
G36*
X72000D02*
Y79000D01*
X73848D01*
X73761Y79436D01*
X73230Y80230D01*
X72436Y80761D01*
X72000Y80848D01*
D02*
G37*
G36*
X71000D02*
X70564Y80761D01*
X69770Y80230D01*
X69239Y79436D01*
X69152Y79000D01*
X71000D01*
Y80848D01*
D02*
G37*
G36*
X57000D02*
Y79000D01*
X58848D01*
X58761Y79436D01*
X58230Y80230D01*
X57436Y80761D01*
X57000Y80848D01*
D02*
G37*
G36*
X56000D02*
X55564Y80761D01*
X54770Y80230D01*
X54239Y79436D01*
X54152Y79000D01*
X56000D01*
Y80848D01*
D02*
G37*
G36*
X27000D02*
Y79000D01*
X28848D01*
X28761Y79436D01*
X28230Y80230D01*
X27436Y80761D01*
X27000Y80848D01*
D02*
G37*
G36*
X26000D02*
X25564Y80761D01*
X24770Y80230D01*
X24239Y79436D01*
X24152Y79000D01*
X26000D01*
Y80848D01*
D02*
G37*
G36*
X81032Y79234D02*
X77063D01*
Y77921D01*
X81032D01*
Y79234D01*
D02*
G37*
G36*
X268848Y78000D02*
X267000D01*
Y76152D01*
X267436Y76239D01*
X268230Y76770D01*
X268761Y77564D01*
X268848Y78000D01*
D02*
G37*
G36*
X266000D02*
X264152D01*
X264239Y77564D01*
X264770Y76770D01*
X265564Y76239D01*
X266000Y76152D01*
Y78000D01*
D02*
G37*
G36*
X253848D02*
X252000D01*
Y76152D01*
X252436Y76239D01*
X253230Y76770D01*
X253761Y77564D01*
X253848Y78000D01*
D02*
G37*
G36*
X251000D02*
X249152D01*
X249239Y77564D01*
X249770Y76770D01*
X250564Y76239D01*
X251000Y76152D01*
Y78000D01*
D02*
G37*
G36*
X238848D02*
X237000D01*
Y76152D01*
X237436Y76239D01*
X238230Y76770D01*
X238761Y77564D01*
X238848Y78000D01*
D02*
G37*
G36*
X236000D02*
X234152D01*
X234239Y77564D01*
X234770Y76770D01*
X235564Y76239D01*
X236000Y76152D01*
Y78000D01*
D02*
G37*
G36*
X208848D02*
X207000D01*
Y76152D01*
X207436Y76239D01*
X208230Y76770D01*
X208761Y77564D01*
X208848Y78000D01*
D02*
G37*
G36*
X206000D02*
X204152D01*
X204239Y77564D01*
X204770Y76770D01*
X205564Y76239D01*
X206000Y76152D01*
Y78000D01*
D02*
G37*
G36*
X178848D02*
X177000D01*
Y76152D01*
X177436Y76239D01*
X178230Y76770D01*
X178761Y77564D01*
X178848Y78000D01*
D02*
G37*
G36*
X176000D02*
X174152D01*
X174239Y77564D01*
X174770Y76770D01*
X175564Y76239D01*
X176000Y76152D01*
Y78000D01*
D02*
G37*
G36*
X163848D02*
X162000D01*
Y76152D01*
X162436Y76239D01*
X163230Y76770D01*
X163761Y77564D01*
X163848Y78000D01*
D02*
G37*
G36*
X161000D02*
X159152D01*
X159239Y77564D01*
X159770Y76770D01*
X160564Y76239D01*
X161000Y76152D01*
Y78000D01*
D02*
G37*
G36*
X133848D02*
X132000D01*
Y76152D01*
X132436Y76239D01*
X133230Y76770D01*
X133761Y77564D01*
X133848Y78000D01*
D02*
G37*
G36*
X131000D02*
X129152D01*
X129239Y77564D01*
X129770Y76770D01*
X130564Y76239D01*
X131000Y76152D01*
Y78000D01*
D02*
G37*
G36*
X118848D02*
X117000D01*
Y76152D01*
X117436Y76239D01*
X118230Y76770D01*
X118761Y77564D01*
X118848Y78000D01*
D02*
G37*
G36*
X116000D02*
X114152D01*
X114239Y77564D01*
X114770Y76770D01*
X115564Y76239D01*
X116000Y76152D01*
Y78000D01*
D02*
G37*
G36*
X73848D02*
X72000D01*
Y76152D01*
X72436Y76239D01*
X73230Y76770D01*
X73761Y77564D01*
X73848Y78000D01*
D02*
G37*
G36*
X71000D02*
X69152D01*
X69239Y77564D01*
X69770Y76770D01*
X70564Y76239D01*
X71000Y76152D01*
Y78000D01*
D02*
G37*
G36*
X58848D02*
X57000D01*
Y76152D01*
X57436Y76239D01*
X58230Y76770D01*
X58761Y77564D01*
X58848Y78000D01*
D02*
G37*
G36*
X56000D02*
X54152D01*
X54239Y77564D01*
X54770Y76770D01*
X55564Y76239D01*
X56000Y76152D01*
Y78000D01*
D02*
G37*
G36*
X28848D02*
X27000D01*
Y76152D01*
X27436Y76239D01*
X28230Y76770D01*
X28761Y77564D01*
X28848Y78000D01*
D02*
G37*
G36*
X26000D02*
X24152D01*
X24239Y77564D01*
X24770Y76770D01*
X25564Y76239D01*
X26000Y76152D01*
Y78000D01*
D02*
G37*
G36*
X81032Y76921D02*
X77063D01*
Y75953D01*
X81032D01*
Y76921D01*
D02*
G37*
G36*
X43780Y78768D02*
X43000D01*
Y75083D01*
X47899D01*
X47822Y75666D01*
X47404Y76675D01*
X46739Y77542D01*
X45872Y78207D01*
X44863Y78626D01*
X43780Y78768D01*
D02*
G37*
G36*
X42000D02*
X41221D01*
X40137Y78626D01*
X39128Y78207D01*
X38261Y77542D01*
X37596Y76675D01*
X37178Y75666D01*
X37101Y75083D01*
X42000D01*
Y78768D01*
D02*
G37*
G36*
X81032Y74953D02*
X77063D01*
Y73984D01*
X81032D01*
Y74953D01*
D02*
G37*
G36*
X139075Y76542D02*
X134925D01*
Y73573D01*
X139075D01*
Y76542D01*
D02*
G37*
G36*
X81032Y72984D02*
X77063D01*
Y72016D01*
X81032D01*
Y72984D01*
D02*
G37*
G36*
X47899Y74083D02*
X43000D01*
Y70397D01*
X43780D01*
X44863Y70540D01*
X45872Y70958D01*
X46739Y71623D01*
X47404Y72490D01*
X47822Y73499D01*
X47899Y74083D01*
D02*
G37*
G36*
X42000D02*
X37101D01*
X37178Y73499D01*
X37596Y72490D01*
X38261Y71623D01*
X39128Y70958D01*
X40137Y70540D01*
X41221Y70397D01*
X42000D01*
Y74083D01*
D02*
G37*
G36*
X81032Y71016D02*
X77063D01*
Y70047D01*
X81032D01*
Y71016D01*
D02*
G37*
G36*
X145374Y72998D02*
X141224D01*
Y70030D01*
X145374D01*
Y72998D01*
D02*
G37*
G36*
X230559Y71756D02*
X227500D01*
Y68500D01*
X230559D01*
Y71756D01*
D02*
G37*
G36*
X81032Y69047D02*
X77063D01*
Y68079D01*
X81032D01*
Y69047D01*
D02*
G37*
G36*
Y67079D02*
X77063D01*
Y65766D01*
X81032D01*
Y66087D01*
Y67079D01*
D02*
G37*
G36*
X43780Y68768D02*
X43000D01*
Y65083D01*
X47899D01*
X47822Y65666D01*
X47404Y66675D01*
X46739Y67542D01*
X45872Y68207D01*
X44863Y68625D01*
X43780Y68768D01*
D02*
G37*
G36*
X42000D02*
X41221D01*
X40137Y68625D01*
X39128Y68207D01*
X38261Y67542D01*
X37596Y66675D01*
X37178Y65666D01*
X37101Y65083D01*
X42000D01*
Y68768D01*
D02*
G37*
G36*
X20500Y67504D02*
Y64500D01*
X23504D01*
X23448Y64924D01*
X23092Y65785D01*
X22524Y66524D01*
X21785Y67092D01*
X20924Y67448D01*
X20500Y67504D01*
D02*
G37*
G36*
X19500D02*
X19076Y67448D01*
X18215Y67092D01*
X17476Y66524D01*
X16908Y65785D01*
X16552Y64924D01*
X16496Y64500D01*
X19500D01*
Y67504D01*
D02*
G37*
G36*
X230559Y67500D02*
X227500D01*
Y64244D01*
X230559D01*
Y67500D01*
D02*
G37*
G36*
X259500Y65848D02*
Y64000D01*
X261348D01*
X261261Y64436D01*
X260730Y65230D01*
X259936Y65761D01*
X259500Y65848D01*
D02*
G37*
G36*
X258500D02*
X258064Y65761D01*
X257270Y65230D01*
X256739Y64436D01*
X256652Y64000D01*
X258500D01*
Y65848D01*
D02*
G37*
G36*
X244500D02*
Y64000D01*
X246348D01*
X246261Y64436D01*
X245730Y65230D01*
X244936Y65761D01*
X244500Y65848D01*
D02*
G37*
G36*
X243500D02*
X243064Y65761D01*
X242270Y65230D01*
X241739Y64436D01*
X241652Y64000D01*
X243500D01*
Y65848D01*
D02*
G37*
G36*
X184500D02*
Y64000D01*
X186348D01*
X186261Y64436D01*
X185730Y65230D01*
X184936Y65761D01*
X184500Y65848D01*
D02*
G37*
G36*
X183500D02*
X183064Y65761D01*
X182270Y65230D01*
X181739Y64436D01*
X181652Y64000D01*
X183500D01*
Y65848D01*
D02*
G37*
G36*
X169500D02*
Y64000D01*
X171348D01*
X171261Y64436D01*
X170730Y65230D01*
X169936Y65761D01*
X169500Y65848D01*
D02*
G37*
G36*
X168500D02*
X168064Y65761D01*
X167270Y65230D01*
X166739Y64436D01*
X166652Y64000D01*
X168500D01*
Y65848D01*
D02*
G37*
G36*
X139500D02*
Y64000D01*
X141348D01*
X141261Y64436D01*
X140730Y65230D01*
X139936Y65761D01*
X139500Y65848D01*
D02*
G37*
G36*
X138500D02*
X138064Y65761D01*
X137270Y65230D01*
X136739Y64436D01*
X136652Y64000D01*
X138500D01*
Y65848D01*
D02*
G37*
G36*
X124500D02*
Y64000D01*
X126348D01*
X126261Y64436D01*
X125730Y65230D01*
X124936Y65761D01*
X124500Y65848D01*
D02*
G37*
G36*
X123500D02*
X123064Y65761D01*
X122270Y65230D01*
X121739Y64436D01*
X121652Y64000D01*
X123500D01*
Y65848D01*
D02*
G37*
G36*
X109500D02*
Y64000D01*
X111348D01*
X111261Y64436D01*
X110730Y65230D01*
X109936Y65761D01*
X109500Y65848D01*
D02*
G37*
G36*
X108500D02*
X108064Y65761D01*
X107270Y65230D01*
X106739Y64436D01*
X106652Y64000D01*
X108500D01*
Y65848D01*
D02*
G37*
G36*
X64500D02*
Y64000D01*
X66348D01*
X66261Y64436D01*
X65730Y65230D01*
X64936Y65761D01*
X64500Y65848D01*
D02*
G37*
G36*
X63500D02*
X63064Y65761D01*
X62270Y65230D01*
X61739Y64436D01*
X61652Y64000D01*
X63500D01*
Y65848D01*
D02*
G37*
G36*
X34500D02*
Y64000D01*
X36348D01*
X36261Y64436D01*
X35730Y65230D01*
X34936Y65761D01*
X34500Y65848D01*
D02*
G37*
G36*
X33500D02*
X33064Y65761D01*
X32270Y65230D01*
X31739Y64436D01*
X31652Y64000D01*
X33500D01*
Y65848D01*
D02*
G37*
G36*
X4500D02*
Y64000D01*
X6348D01*
X6261Y64436D01*
X5730Y65230D01*
X4936Y65761D01*
X4500Y65848D01*
D02*
G37*
G36*
X3500D02*
X3064Y65761D01*
X2270Y65230D01*
X1739Y64436D01*
X1652Y64000D01*
X3500D01*
Y65848D01*
D02*
G37*
G36*
X81032Y64766D02*
X79547D01*
Y63429D01*
X81032D01*
Y64766D01*
D02*
G37*
G36*
X78547D02*
X77063D01*
Y63429D01*
X78547D01*
Y64766D01*
D02*
G37*
G36*
X261348Y63000D02*
X259500D01*
Y61152D01*
X259936Y61239D01*
X260730Y61770D01*
X261261Y62564D01*
X261348Y63000D01*
D02*
G37*
G36*
X258500D02*
X256652D01*
X256739Y62564D01*
X257270Y61770D01*
X258064Y61239D01*
X258500Y61152D01*
Y63000D01*
D02*
G37*
G36*
X246348D02*
X244500D01*
Y61152D01*
X244936Y61239D01*
X245730Y61770D01*
X246261Y62564D01*
X246348Y63000D01*
D02*
G37*
G36*
X243500D02*
X241652D01*
X241739Y62564D01*
X242270Y61770D01*
X243064Y61239D01*
X243500Y61152D01*
Y63000D01*
D02*
G37*
G36*
X216348D02*
X214500D01*
Y61152D01*
X214936Y61239D01*
X215730Y61770D01*
X216261Y62564D01*
X216348Y63000D01*
D02*
G37*
G36*
X213500D02*
X211652D01*
X211739Y62564D01*
X212270Y61770D01*
X213064Y61239D01*
X213500Y61152D01*
Y63000D01*
D02*
G37*
G36*
X186348D02*
X184500D01*
Y61152D01*
X184936Y61239D01*
X185730Y61770D01*
X186261Y62564D01*
X186348Y63000D01*
D02*
G37*
G36*
X183500D02*
X181652D01*
X181739Y62564D01*
X182270Y61770D01*
X183064Y61239D01*
X183500Y61152D01*
Y63000D01*
D02*
G37*
G36*
X171348D02*
X169500D01*
Y61152D01*
X169936Y61239D01*
X170730Y61770D01*
X171261Y62564D01*
X171348Y63000D01*
D02*
G37*
G36*
X168500D02*
X166652D01*
X166739Y62564D01*
X167270Y61770D01*
X168064Y61239D01*
X168500Y61152D01*
Y63000D01*
D02*
G37*
G36*
X153500D02*
X151652D01*
X151739Y62564D01*
X152270Y61770D01*
X153064Y61239D01*
X153500Y61152D01*
Y63000D01*
D02*
G37*
G36*
X126348D02*
X124500D01*
Y61152D01*
X124936Y61239D01*
X125730Y61770D01*
X126261Y62564D01*
X126348Y63000D01*
D02*
G37*
G36*
X123500D02*
X121652D01*
X121739Y62564D01*
X122270Y61770D01*
X123064Y61239D01*
X123500Y61152D01*
Y63000D01*
D02*
G37*
G36*
X111348D02*
X109500D01*
Y61152D01*
X109936Y61239D01*
X110730Y61770D01*
X111261Y62564D01*
X111348Y63000D01*
D02*
G37*
G36*
X108500D02*
X106652D01*
X106739Y62564D01*
X107270Y61770D01*
X108064Y61239D01*
X108500Y61152D01*
Y63000D01*
D02*
G37*
G36*
X66348D02*
X64500D01*
Y61152D01*
X64936Y61239D01*
X65730Y61770D01*
X66261Y62564D01*
X66348Y63000D01*
D02*
G37*
G36*
X63500D02*
X61652D01*
X61739Y62564D01*
X62270Y61770D01*
X63064Y61239D01*
X63500Y61152D01*
Y63000D01*
D02*
G37*
G36*
X36348D02*
X34500D01*
Y61152D01*
X34936Y61239D01*
X35730Y61770D01*
X36261Y62564D01*
X36348Y63000D01*
D02*
G37*
G36*
X33500D02*
X31652D01*
X31739Y62564D01*
X32270Y61770D01*
X33064Y61239D01*
X33500Y61152D01*
Y63000D01*
D02*
G37*
G36*
X6348D02*
X4500D01*
Y61152D01*
X4936Y61239D01*
X5730Y61770D01*
X6261Y62564D01*
X6348Y63000D01*
D02*
G37*
G36*
X3500D02*
X1652D01*
X1739Y62564D01*
X2270Y61770D01*
X3064Y61239D01*
X3500Y61152D01*
Y63000D01*
D02*
G37*
G36*
X23504Y63500D02*
X20500D01*
Y60496D01*
X20924Y60552D01*
X21785Y60908D01*
X22524Y61476D01*
X23092Y62215D01*
X23448Y63076D01*
X23504Y63500D01*
D02*
G37*
G36*
X19500D02*
X16496D01*
X16552Y63076D01*
X16908Y62215D01*
X17476Y61476D01*
X18215Y60908D01*
X19076Y60552D01*
X19500Y60496D01*
Y63500D01*
D02*
G37*
G36*
X47899Y64083D02*
X43000D01*
Y60397D01*
X43780D01*
X44863Y60540D01*
X45872Y60958D01*
X46739Y61623D01*
X47404Y62490D01*
X47822Y63499D01*
X47899Y64083D01*
D02*
G37*
G36*
X42000D02*
X37101D01*
X37178Y63499D01*
X37596Y62490D01*
X38261Y61623D01*
X39128Y60958D01*
X40137Y60540D01*
X41221Y60397D01*
X42000D01*
Y64083D01*
D02*
G37*
G36*
X141348Y63000D02*
X136652D01*
X136739Y62564D01*
X136832Y62425D01*
X136596Y61984D01*
X135425D01*
Y59016D01*
X139575D01*
Y61167D01*
X139936Y61239D01*
X140730Y61770D01*
X141261Y62564D01*
X141348Y63000D01*
D02*
G37*
G36*
X145874Y58441D02*
X141724D01*
Y55472D01*
X145874D01*
Y58441D01*
D02*
G37*
G36*
X43780Y58264D02*
X41221D01*
X40268Y58138D01*
X39380Y57771D01*
X39126Y57575D01*
X30571D01*
X29788Y57472D01*
X29058Y57170D01*
X28431Y56689D01*
X28165Y56423D01*
X27832Y56168D01*
X27345Y55533D01*
X27039Y54793D01*
X26934Y54000D01*
X27039Y53207D01*
X27345Y52467D01*
X27832Y51832D01*
X28467Y51345D01*
X29207Y51039D01*
X30000Y50934D01*
X30793Y51039D01*
X31533Y51345D01*
X31765Y51524D01*
X39212D01*
X39380Y51395D01*
X40268Y51027D01*
X41221Y50902D01*
X43780D01*
X44732Y51027D01*
X45620Y51395D01*
X46382Y51980D01*
X46968Y52742D01*
X47335Y53630D01*
X47461Y54583D01*
X47335Y55535D01*
X46968Y56423D01*
X46382Y57186D01*
X45620Y57771D01*
X44732Y58138D01*
X43780Y58264D01*
D02*
G37*
G36*
X267000Y50848D02*
Y49000D01*
X268848D01*
X268761Y49436D01*
X268230Y50230D01*
X267436Y50761D01*
X267000Y50848D01*
D02*
G37*
G36*
X266000D02*
X265564Y50761D01*
X264770Y50230D01*
X264239Y49436D01*
X264152Y49000D01*
X266000D01*
Y50848D01*
D02*
G37*
G36*
X252000D02*
Y49000D01*
X253848D01*
X253761Y49436D01*
X253230Y50230D01*
X252436Y50761D01*
X252000Y50848D01*
D02*
G37*
G36*
X251000D02*
X250564Y50761D01*
X249770Y50230D01*
X249239Y49436D01*
X249152Y49000D01*
X251000D01*
Y50848D01*
D02*
G37*
G36*
X237000D02*
Y49000D01*
X238848D01*
X238761Y49436D01*
X238230Y50230D01*
X237436Y50761D01*
X237000Y50848D01*
D02*
G37*
G36*
X236000D02*
X235564Y50761D01*
X234770Y50230D01*
X234239Y49436D01*
X234152Y49000D01*
X236000D01*
Y50848D01*
D02*
G37*
G36*
X132000D02*
Y49000D01*
X133848D01*
X133761Y49436D01*
X133230Y50230D01*
X132436Y50761D01*
X132000Y50848D01*
D02*
G37*
G36*
X131000D02*
X130564Y50761D01*
X129770Y50230D01*
X129239Y49436D01*
X129152Y49000D01*
X131000D01*
Y50848D01*
D02*
G37*
G36*
X117000D02*
Y49000D01*
X118848D01*
X118761Y49436D01*
X118230Y50230D01*
X117436Y50761D01*
X117000Y50848D01*
D02*
G37*
G36*
X116000D02*
X115564Y50761D01*
X114770Y50230D01*
X114239Y49436D01*
X114152Y49000D01*
X116000D01*
Y50848D01*
D02*
G37*
G36*
X72000D02*
Y49000D01*
X73848D01*
X73761Y49436D01*
X73230Y50230D01*
X72436Y50761D01*
X72000Y50848D01*
D02*
G37*
G36*
X71000D02*
X70564Y50761D01*
X69770Y50230D01*
X69239Y49436D01*
X69152Y49000D01*
X71000D01*
Y50848D01*
D02*
G37*
G36*
X57000D02*
Y49000D01*
X58848D01*
X58761Y49436D01*
X58230Y50230D01*
X57436Y50761D01*
X57000Y50848D01*
D02*
G37*
G36*
X56000D02*
X55564Y50761D01*
X54770Y50230D01*
X54239Y49436D01*
X54152Y49000D01*
X56000D01*
Y50848D01*
D02*
G37*
G36*
X27000D02*
Y49000D01*
X28848D01*
X28761Y49436D01*
X28230Y50230D01*
X27436Y50761D01*
X27000Y50848D01*
D02*
G37*
G36*
X26000D02*
X25564Y50761D01*
X24770Y50230D01*
X24239Y49436D01*
X24152Y49000D01*
X26000D01*
Y50848D01*
D02*
G37*
G36*
X268848Y48000D02*
X267000D01*
Y46152D01*
X267436Y46239D01*
X268230Y46770D01*
X268761Y47564D01*
X268848Y48000D01*
D02*
G37*
G36*
X266000D02*
X264152D01*
X264239Y47564D01*
X264770Y46770D01*
X265564Y46239D01*
X266000Y46152D01*
Y48000D01*
D02*
G37*
G36*
X253848D02*
X252000D01*
Y46152D01*
X252436Y46239D01*
X253230Y46770D01*
X253761Y47564D01*
X253848Y48000D01*
D02*
G37*
G36*
X251000D02*
X249152D01*
X249239Y47564D01*
X249770Y46770D01*
X250564Y46239D01*
X251000Y46152D01*
Y48000D01*
D02*
G37*
G36*
X238848D02*
X237000D01*
Y46152D01*
X237436Y46239D01*
X238230Y46770D01*
X238761Y47564D01*
X238848Y48000D01*
D02*
G37*
G36*
X236000D02*
X234152D01*
X234239Y47564D01*
X234770Y46770D01*
X235564Y46239D01*
X236000Y46152D01*
Y48000D01*
D02*
G37*
G36*
X133848D02*
X132000D01*
Y46152D01*
X132436Y46239D01*
X133230Y46770D01*
X133761Y47564D01*
X133848Y48000D01*
D02*
G37*
G36*
X131000D02*
X129152D01*
X129239Y47564D01*
X129770Y46770D01*
X130564Y46239D01*
X131000Y46152D01*
Y48000D01*
D02*
G37*
G36*
X118848D02*
X117000D01*
Y46152D01*
X117436Y46239D01*
X118230Y46770D01*
X118761Y47564D01*
X118848Y48000D01*
D02*
G37*
G36*
X116000D02*
X114152D01*
X114239Y47564D01*
X114770Y46770D01*
X115564Y46239D01*
X116000Y46152D01*
Y48000D01*
D02*
G37*
G36*
X73848D02*
X72000D01*
Y46152D01*
X72436Y46239D01*
X73230Y46770D01*
X73761Y47564D01*
X73848Y48000D01*
D02*
G37*
G36*
X71000D02*
X69152D01*
X69239Y47564D01*
X69770Y46770D01*
X70564Y46239D01*
X71000Y46152D01*
Y48000D01*
D02*
G37*
G36*
X58848D02*
X57000D01*
Y46152D01*
X57436Y46239D01*
X58230Y46770D01*
X58761Y47564D01*
X58848Y48000D01*
D02*
G37*
G36*
X56000D02*
X54152D01*
X54239Y47564D01*
X54770Y46770D01*
X55564Y46239D01*
X56000Y46152D01*
Y48000D01*
D02*
G37*
G36*
X28848D02*
X27000D01*
Y46152D01*
X27436Y46239D01*
X28230Y46770D01*
X28761Y47564D01*
X28848Y48000D01*
D02*
G37*
G36*
X26000D02*
X24152D01*
X24239Y47564D01*
X24770Y46770D01*
X25564Y46239D01*
X26000Y46152D01*
Y48000D01*
D02*
G37*
G36*
X43780Y48768D02*
X43000D01*
Y45083D01*
X47899D01*
X47822Y45666D01*
X47404Y46675D01*
X46739Y47542D01*
X45872Y48207D01*
X44863Y48625D01*
X43780Y48768D01*
D02*
G37*
G36*
X42000D02*
X41221D01*
X40137Y48625D01*
X39128Y48207D01*
X38261Y47542D01*
X37596Y46675D01*
X37178Y45666D01*
X37101Y45083D01*
X42000D01*
Y48768D01*
D02*
G37*
G36*
X139425Y47756D02*
X135276D01*
Y44787D01*
X139425D01*
Y47756D01*
D02*
G37*
G36*
X145724Y44213D02*
X141575D01*
Y41244D01*
X145724D01*
Y44213D01*
D02*
G37*
G36*
X47899Y44083D02*
X43000D01*
Y40397D01*
X43780D01*
X44863Y40540D01*
X45872Y40958D01*
X46739Y41623D01*
X47404Y42490D01*
X47822Y43499D01*
X47899Y44083D01*
D02*
G37*
G36*
X42000D02*
X37101D01*
X37178Y43499D01*
X37596Y42490D01*
X38261Y41623D01*
X39128Y40958D01*
X40137Y40540D01*
X41221Y40397D01*
X42000D01*
Y44083D01*
D02*
G37*
G36*
X173000Y41818D02*
Y35083D01*
X179736D01*
X179645Y36004D01*
X179230Y37371D01*
X178557Y38630D01*
X177651Y39734D01*
X176547Y40640D01*
X175288Y41313D01*
X173921Y41728D01*
X173000Y41818D01*
D02*
G37*
G36*
X172000D02*
X171079Y41728D01*
X169712Y41313D01*
X168453Y40640D01*
X167349Y39734D01*
X166443Y38630D01*
X165770Y37371D01*
X165355Y36004D01*
X165264Y35083D01*
X172000D01*
Y41818D01*
D02*
G37*
G36*
X43780Y38768D02*
X43000D01*
Y35083D01*
X47899D01*
X47822Y35666D01*
X47404Y36675D01*
X46739Y37542D01*
X45872Y38207D01*
X44863Y38625D01*
X43780Y38768D01*
D02*
G37*
G36*
X42000D02*
X41221D01*
X40137Y38625D01*
X39128Y38207D01*
X38261Y37542D01*
X37596Y36675D01*
X37178Y35666D01*
X37101Y35083D01*
X42000D01*
Y38768D01*
D02*
G37*
G36*
X259500Y35848D02*
Y34000D01*
X261348D01*
X261261Y34436D01*
X260730Y35230D01*
X259936Y35761D01*
X259500Y35848D01*
D02*
G37*
G36*
X258500D02*
X258064Y35761D01*
X257270Y35230D01*
X256739Y34436D01*
X256652Y34000D01*
X258500D01*
Y35848D01*
D02*
G37*
G36*
X244500D02*
Y34000D01*
X246348D01*
X246261Y34436D01*
X245730Y35230D01*
X244936Y35761D01*
X244500Y35848D01*
D02*
G37*
G36*
X243500D02*
X243064Y35761D01*
X242270Y35230D01*
X241739Y34436D01*
X241652Y34000D01*
X243500D01*
Y35848D01*
D02*
G37*
G36*
X229500D02*
Y34000D01*
X231348D01*
X231261Y34436D01*
X230730Y35230D01*
X229936Y35761D01*
X229500Y35848D01*
D02*
G37*
G36*
X228500D02*
X228064Y35761D01*
X227270Y35230D01*
X226739Y34436D01*
X226652Y34000D01*
X228500D01*
Y35848D01*
D02*
G37*
G36*
X214500D02*
Y34000D01*
X216348D01*
X216261Y34436D01*
X215730Y35230D01*
X214936Y35761D01*
X214500Y35848D01*
D02*
G37*
G36*
X213500D02*
X213064Y35761D01*
X212270Y35230D01*
X211739Y34436D01*
X211652Y34000D01*
X213500D01*
Y35848D01*
D02*
G37*
G36*
X199500D02*
Y34000D01*
X201348D01*
X201261Y34436D01*
X200730Y35230D01*
X199936Y35761D01*
X199500Y35848D01*
D02*
G37*
G36*
X198500D02*
X198064Y35761D01*
X197270Y35230D01*
X196739Y34436D01*
X196652Y34000D01*
X198500D01*
Y35848D01*
D02*
G37*
G36*
X183500D02*
X183064Y35761D01*
X182270Y35230D01*
X181739Y34436D01*
X181652Y34000D01*
X183500D01*
Y35848D01*
D02*
G37*
G36*
X154500D02*
Y34000D01*
X156348D01*
X156261Y34436D01*
X155730Y35230D01*
X154936Y35761D01*
X154500Y35848D01*
D02*
G37*
G36*
X153500D02*
X153064Y35761D01*
X152270Y35230D01*
X151739Y34436D01*
X151652Y34000D01*
X153500D01*
Y35848D01*
D02*
G37*
G36*
X124500D02*
Y34000D01*
X126348D01*
X126261Y34436D01*
X125730Y35230D01*
X124936Y35761D01*
X124500Y35848D01*
D02*
G37*
G36*
X123500D02*
X123064Y35761D01*
X122270Y35230D01*
X121739Y34436D01*
X121652Y34000D01*
X123500D01*
Y35848D01*
D02*
G37*
G36*
X109500D02*
Y34000D01*
X111348D01*
X111261Y34436D01*
X110730Y35230D01*
X109936Y35761D01*
X109500Y35848D01*
D02*
G37*
G36*
X108500D02*
X108064Y35761D01*
X107270Y35230D01*
X106739Y34436D01*
X106652Y34000D01*
X108500D01*
Y35848D01*
D02*
G37*
G36*
X79500D02*
Y34000D01*
X81348D01*
X81261Y34436D01*
X80730Y35230D01*
X79936Y35761D01*
X79500Y35848D01*
D02*
G37*
G36*
X78500D02*
X78064Y35761D01*
X77270Y35230D01*
X76739Y34436D01*
X76652Y34000D01*
X78500D01*
Y35848D01*
D02*
G37*
G36*
X34500D02*
Y34000D01*
X36348D01*
X36261Y34436D01*
X35730Y35230D01*
X34936Y35761D01*
X34500Y35848D01*
D02*
G37*
G36*
X33500D02*
X33064Y35761D01*
X32270Y35230D01*
X31739Y34436D01*
X31652Y34000D01*
X33500D01*
Y35848D01*
D02*
G37*
G36*
X4500D02*
Y34000D01*
X6348D01*
X6261Y34436D01*
X5730Y35230D01*
X4936Y35761D01*
X4500Y35848D01*
D02*
G37*
G36*
X3500D02*
X3064Y35761D01*
X2270Y35230D01*
X1739Y34436D01*
X1652Y34000D01*
X3500D01*
Y35848D01*
D02*
G37*
G36*
X261348Y33000D02*
X259500D01*
Y31152D01*
X259936Y31239D01*
X260730Y31770D01*
X261261Y32564D01*
X261348Y33000D01*
D02*
G37*
G36*
X258500D02*
X256652D01*
X256739Y32564D01*
X257270Y31770D01*
X258064Y31239D01*
X258500Y31152D01*
Y33000D01*
D02*
G37*
G36*
X246348D02*
X244500D01*
Y31152D01*
X244936Y31239D01*
X245730Y31770D01*
X246261Y32564D01*
X246348Y33000D01*
D02*
G37*
G36*
X243500D02*
X241652D01*
X241739Y32564D01*
X242270Y31770D01*
X243064Y31239D01*
X243500Y31152D01*
Y33000D01*
D02*
G37*
G36*
X231348D02*
X229500D01*
Y31152D01*
X229936Y31239D01*
X230730Y31770D01*
X231261Y32564D01*
X231348Y33000D01*
D02*
G37*
G36*
X228500D02*
X226652D01*
X226739Y32564D01*
X227270Y31770D01*
X228064Y31239D01*
X228500Y31152D01*
Y33000D01*
D02*
G37*
G36*
X216348D02*
X214500D01*
Y31152D01*
X214936Y31239D01*
X215730Y31770D01*
X216261Y32564D01*
X216348Y33000D01*
D02*
G37*
G36*
X213500D02*
X211652D01*
X211739Y32564D01*
X212270Y31770D01*
X213064Y31239D01*
X213500Y31152D01*
Y33000D01*
D02*
G37*
G36*
X201348D02*
X199500D01*
Y31152D01*
X199936Y31239D01*
X200730Y31770D01*
X201261Y32564D01*
X201348Y33000D01*
D02*
G37*
G36*
X198500D02*
X196652D01*
X196739Y32564D01*
X197270Y31770D01*
X198064Y31239D01*
X198500Y31152D01*
Y33000D01*
D02*
G37*
G36*
X156348D02*
X154500D01*
Y31152D01*
X154936Y31239D01*
X155730Y31770D01*
X156261Y32564D01*
X156348Y33000D01*
D02*
G37*
G36*
X153500D02*
X151652D01*
X151739Y32564D01*
X152270Y31770D01*
X153064Y31239D01*
X153500Y31152D01*
Y33000D01*
D02*
G37*
G36*
X126348D02*
X124500D01*
Y31152D01*
X124936Y31239D01*
X125730Y31770D01*
X126261Y32564D01*
X126348Y33000D01*
D02*
G37*
G36*
X123500D02*
X121652D01*
X121739Y32564D01*
X122270Y31770D01*
X123064Y31239D01*
X123500Y31152D01*
Y33000D01*
D02*
G37*
G36*
X111348D02*
X109500D01*
Y31152D01*
X109936Y31239D01*
X110730Y31770D01*
X111261Y32564D01*
X111348Y33000D01*
D02*
G37*
G36*
X108500D02*
X106652D01*
X106739Y32564D01*
X107270Y31770D01*
X108064Y31239D01*
X108500Y31152D01*
Y33000D01*
D02*
G37*
G36*
X81348D02*
X79500D01*
Y31152D01*
X79936Y31239D01*
X80730Y31770D01*
X81261Y32564D01*
X81348Y33000D01*
D02*
G37*
G36*
X78500D02*
X76652D01*
X76739Y32564D01*
X77270Y31770D01*
X78064Y31239D01*
X78500Y31152D01*
Y33000D01*
D02*
G37*
G36*
X36348D02*
X34500D01*
Y31152D01*
X34936Y31239D01*
X35730Y31770D01*
X36261Y32564D01*
X36348Y33000D01*
D02*
G37*
G36*
X33500D02*
X31652D01*
X31739Y32564D01*
X32270Y31770D01*
X33064Y31239D01*
X33500Y31152D01*
Y33000D01*
D02*
G37*
G36*
X6348D02*
X4500D01*
Y31152D01*
X4936Y31239D01*
X5730Y31770D01*
X6261Y32564D01*
X6348Y33000D01*
D02*
G37*
G36*
X3500D02*
X1652D01*
X1739Y32564D01*
X2270Y31770D01*
X3064Y31239D01*
X3500Y31152D01*
Y33000D01*
D02*
G37*
G36*
X47899Y34083D02*
X43000D01*
Y30397D01*
X43780D01*
X44863Y30540D01*
X45872Y30958D01*
X46739Y31623D01*
X47404Y32490D01*
X47822Y33499D01*
X47899Y34083D01*
D02*
G37*
G36*
X42000D02*
X37101D01*
X37178Y33499D01*
X37596Y32490D01*
X38261Y31623D01*
X39128Y30958D01*
X40137Y30540D01*
X41221Y30397D01*
X42000D01*
Y34083D01*
D02*
G37*
G36*
X139075Y33256D02*
X134925D01*
Y30287D01*
X139075D01*
Y33256D01*
D02*
G37*
G36*
X91350Y28348D02*
Y26500D01*
X93198D01*
X93111Y26936D01*
X92580Y27730D01*
X91786Y28261D01*
X91350Y28348D01*
D02*
G37*
G36*
X90350D02*
X89914Y28261D01*
X89120Y27730D01*
X88589Y26936D01*
X88502Y26500D01*
X90350D01*
Y28348D01*
D02*
G37*
G36*
X43780Y28768D02*
X43000D01*
Y25083D01*
X47899D01*
X47822Y25666D01*
X47404Y26675D01*
X46739Y27542D01*
X45872Y28207D01*
X44863Y28626D01*
X43780Y28768D01*
D02*
G37*
G36*
X42000D02*
X41221D01*
X40137Y28626D01*
X39128Y28207D01*
X38261Y27542D01*
X37596Y26675D01*
X37178Y25666D01*
X37101Y25083D01*
X42000D01*
Y28768D01*
D02*
G37*
G36*
X93198Y25500D02*
X91350D01*
Y23652D01*
X91786Y23739D01*
X92580Y24270D01*
X93111Y25064D01*
X93198Y25500D01*
D02*
G37*
G36*
X90350D02*
X88502D01*
X88589Y25064D01*
X89120Y24270D01*
X89914Y23739D01*
X90350Y23652D01*
Y25500D01*
D02*
G37*
G36*
X267000Y20848D02*
Y19000D01*
X268848D01*
X268761Y19436D01*
X268230Y20230D01*
X267436Y20761D01*
X267000Y20848D01*
D02*
G37*
G36*
X266000D02*
X265564Y20761D01*
X264770Y20230D01*
X264239Y19436D01*
X264152Y19000D01*
X266000D01*
Y20848D01*
D02*
G37*
G36*
X252000D02*
Y19000D01*
X253848D01*
X253761Y19436D01*
X253230Y20230D01*
X252436Y20761D01*
X252000Y20848D01*
D02*
G37*
G36*
X251000D02*
X250564Y20761D01*
X249770Y20230D01*
X249239Y19436D01*
X249152Y19000D01*
X251000D01*
Y20848D01*
D02*
G37*
G36*
X237000D02*
Y19000D01*
X238848D01*
X238761Y19436D01*
X238230Y20230D01*
X237436Y20761D01*
X237000Y20848D01*
D02*
G37*
G36*
X236000D02*
X235564Y20761D01*
X234770Y20230D01*
X234239Y19436D01*
X234152Y19000D01*
X236000D01*
Y20848D01*
D02*
G37*
G36*
X207000D02*
Y19000D01*
X208848D01*
X208761Y19436D01*
X208230Y20230D01*
X207436Y20761D01*
X207000Y20848D01*
D02*
G37*
G36*
X206000D02*
X205564Y20761D01*
X204770Y20230D01*
X204239Y19436D01*
X204152Y19000D01*
X206000D01*
Y20848D01*
D02*
G37*
G36*
X72000D02*
Y19000D01*
X73848D01*
X73761Y19436D01*
X73230Y20230D01*
X72436Y20761D01*
X72000Y20848D01*
D02*
G37*
G36*
X71000D02*
X70564Y20761D01*
X69770Y20230D01*
X69239Y19436D01*
X69152Y19000D01*
X71000D01*
Y20848D01*
D02*
G37*
G36*
X57000D02*
Y19000D01*
X58848D01*
X58761Y19436D01*
X58230Y20230D01*
X57436Y20761D01*
X57000Y20848D01*
D02*
G37*
G36*
X56000D02*
X55564Y20761D01*
X54770Y20230D01*
X54239Y19436D01*
X54152Y19000D01*
X56000D01*
Y20848D01*
D02*
G37*
G36*
X47899Y24083D02*
X42500D01*
X37101D01*
X37178Y23499D01*
X37596Y22490D01*
X38261Y21623D01*
X39128Y20958D01*
X39641Y20745D01*
X39728Y20398D01*
X39728Y20168D01*
X39239Y19436D01*
X39152Y19000D01*
X43848D01*
X43761Y19436D01*
X43453Y19897D01*
X43720Y20397D01*
X43780D01*
X44863Y20540D01*
X45872Y20958D01*
X46739Y21623D01*
X47404Y22490D01*
X47822Y23499D01*
X47899Y24083D01*
D02*
G37*
G36*
X12000Y20848D02*
Y19000D01*
X13848D01*
X13761Y19436D01*
X13230Y20230D01*
X12436Y20761D01*
X12000Y20848D01*
D02*
G37*
G36*
X11000D02*
X10564Y20761D01*
X9770Y20230D01*
X9239Y19436D01*
X9152Y19000D01*
X11000D01*
Y20848D01*
D02*
G37*
G36*
X127756Y19858D02*
X124500D01*
Y16799D01*
X127756D01*
Y19858D01*
D02*
G37*
G36*
X123500D02*
X120244D01*
Y16799D01*
X123500D01*
Y19858D01*
D02*
G37*
G36*
X268848Y18000D02*
X267000D01*
Y16152D01*
X267436Y16239D01*
X268230Y16770D01*
X268761Y17564D01*
X268848Y18000D01*
D02*
G37*
G36*
X266000D02*
X264152D01*
X264239Y17564D01*
X264770Y16770D01*
X265564Y16239D01*
X266000Y16152D01*
Y18000D01*
D02*
G37*
G36*
X253848D02*
X252000D01*
Y16152D01*
X252436Y16239D01*
X253230Y16770D01*
X253761Y17564D01*
X253848Y18000D01*
D02*
G37*
G36*
X251000D02*
X249152D01*
X249239Y17564D01*
X249770Y16770D01*
X250564Y16239D01*
X251000Y16152D01*
Y18000D01*
D02*
G37*
G36*
X238848D02*
X237000D01*
Y16152D01*
X237436Y16239D01*
X238230Y16770D01*
X238761Y17564D01*
X238848Y18000D01*
D02*
G37*
G36*
X236000D02*
X234152D01*
X234239Y17564D01*
X234770Y16770D01*
X235564Y16239D01*
X236000Y16152D01*
Y18000D01*
D02*
G37*
G36*
X208848D02*
X207000D01*
Y16152D01*
X207436Y16239D01*
X208230Y16770D01*
X208761Y17564D01*
X208848Y18000D01*
D02*
G37*
G36*
X206000D02*
X204152D01*
X204239Y17564D01*
X204770Y16770D01*
X205564Y16239D01*
X206000Y16152D01*
Y18000D01*
D02*
G37*
G36*
X193848D02*
X192000D01*
Y16152D01*
X192436Y16239D01*
X193230Y16770D01*
X193761Y17564D01*
X193848Y18000D01*
D02*
G37*
G36*
X191000D02*
X189152D01*
X189239Y17564D01*
X189770Y16770D01*
X190564Y16239D01*
X191000Y16152D01*
Y18000D01*
D02*
G37*
G36*
X178848D02*
X177000D01*
Y16152D01*
X177436Y16239D01*
X178230Y16770D01*
X178761Y17564D01*
X178848Y18000D01*
D02*
G37*
G36*
X176000D02*
X174152D01*
X174239Y17564D01*
X174770Y16770D01*
X175564Y16239D01*
X176000Y16152D01*
Y18000D01*
D02*
G37*
G36*
X163848D02*
X162000D01*
Y16152D01*
X162436Y16239D01*
X163230Y16770D01*
X163761Y17564D01*
X163848Y18000D01*
D02*
G37*
G36*
X161000D02*
X159152D01*
X159239Y17564D01*
X159770Y16770D01*
X160564Y16239D01*
X161000Y16152D01*
Y18000D01*
D02*
G37*
G36*
X148848D02*
X147000D01*
Y16152D01*
X147436Y16239D01*
X148230Y16770D01*
X148761Y17564D01*
X148848Y18000D01*
D02*
G37*
G36*
X146000D02*
X144152D01*
X144239Y17564D01*
X144770Y16770D01*
X145564Y16239D01*
X146000Y16152D01*
Y18000D01*
D02*
G37*
G36*
X133848D02*
X132000D01*
Y16152D01*
X132436Y16239D01*
X133230Y16770D01*
X133761Y17564D01*
X133848Y18000D01*
D02*
G37*
G36*
X131000D02*
X129152D01*
X129239Y17564D01*
X129770Y16770D01*
X130564Y16239D01*
X131000Y16152D01*
Y18000D01*
D02*
G37*
G36*
X118848D02*
X117000D01*
Y16152D01*
X117436Y16239D01*
X118230Y16770D01*
X118761Y17564D01*
X118848Y18000D01*
D02*
G37*
G36*
X116000D02*
X114152D01*
X114239Y17564D01*
X114770Y16770D01*
X115564Y16239D01*
X116000Y16152D01*
Y18000D01*
D02*
G37*
G36*
X103848D02*
X102000D01*
Y16152D01*
X102436Y16239D01*
X103230Y16770D01*
X103761Y17564D01*
X103848Y18000D01*
D02*
G37*
G36*
X101000D02*
X99152D01*
X99239Y17564D01*
X99770Y16770D01*
X100564Y16239D01*
X101000Y16152D01*
Y18000D01*
D02*
G37*
G36*
X88848D02*
X87000D01*
Y16152D01*
X87436Y16239D01*
X88230Y16770D01*
X88761Y17564D01*
X88848Y18000D01*
D02*
G37*
G36*
X86000D02*
X84152D01*
X84239Y17564D01*
X84770Y16770D01*
X85564Y16239D01*
X86000Y16152D01*
Y18000D01*
D02*
G37*
G36*
X73848D02*
X72000D01*
Y16152D01*
X72436Y16239D01*
X73230Y16770D01*
X73761Y17564D01*
X73848Y18000D01*
D02*
G37*
G36*
X71000D02*
X69152D01*
X69239Y17564D01*
X69770Y16770D01*
X70564Y16239D01*
X71000Y16152D01*
Y18000D01*
D02*
G37*
G36*
X58848D02*
X57000D01*
Y16152D01*
X57436Y16239D01*
X58230Y16770D01*
X58761Y17564D01*
X58848Y18000D01*
D02*
G37*
G36*
X56000D02*
X54152D01*
X54239Y17564D01*
X54770Y16770D01*
X55564Y16239D01*
X56000Y16152D01*
Y18000D01*
D02*
G37*
G36*
X43848D02*
X42000D01*
Y16152D01*
X42436Y16239D01*
X43230Y16770D01*
X43761Y17564D01*
X43848Y18000D01*
D02*
G37*
G36*
X41000D02*
X39152D01*
X39239Y17564D01*
X39770Y16770D01*
X40564Y16239D01*
X41000Y16152D01*
Y18000D01*
D02*
G37*
G36*
X13848D02*
X12000D01*
Y16152D01*
X12436Y16239D01*
X13230Y16770D01*
X13761Y17564D01*
X13848Y18000D01*
D02*
G37*
G36*
X11000D02*
X9152D01*
X9239Y17564D01*
X9770Y16770D01*
X10564Y16239D01*
X11000Y16152D01*
Y18000D01*
D02*
G37*
G36*
X259500Y5848D02*
Y4000D01*
X261348D01*
X261261Y4436D01*
X260730Y5230D01*
X259936Y5761D01*
X259500Y5848D01*
D02*
G37*
G36*
X258500D02*
X258064Y5761D01*
X257270Y5230D01*
X256739Y4436D01*
X256652Y4000D01*
X258500D01*
Y5848D01*
D02*
G37*
G36*
X244500D02*
Y4000D01*
X246348D01*
X246261Y4436D01*
X245730Y5230D01*
X244936Y5761D01*
X244500Y5848D01*
D02*
G37*
G36*
X243500D02*
X243064Y5761D01*
X242270Y5230D01*
X241739Y4436D01*
X241652Y4000D01*
X243500D01*
Y5848D01*
D02*
G37*
G36*
X229500D02*
Y4000D01*
X231348D01*
X231261Y4436D01*
X230730Y5230D01*
X229936Y5761D01*
X229500Y5848D01*
D02*
G37*
G36*
X228500D02*
X228064Y5761D01*
X227270Y5230D01*
X226739Y4436D01*
X226652Y4000D01*
X228500D01*
Y5848D01*
D02*
G37*
G36*
X214500D02*
Y4000D01*
X216348D01*
X216261Y4436D01*
X215730Y5230D01*
X214936Y5761D01*
X214500Y5848D01*
D02*
G37*
G36*
X213500D02*
X213064Y5761D01*
X212270Y5230D01*
X211739Y4436D01*
X211652Y4000D01*
X213500D01*
Y5848D01*
D02*
G37*
G36*
X199500D02*
Y4000D01*
X201348D01*
X201261Y4436D01*
X200730Y5230D01*
X199936Y5761D01*
X199500Y5848D01*
D02*
G37*
G36*
X198500D02*
X198064Y5761D01*
X197270Y5230D01*
X196739Y4436D01*
X196652Y4000D01*
X198500D01*
Y5848D01*
D02*
G37*
G36*
X184500D02*
Y4000D01*
X186348D01*
X186261Y4436D01*
X185730Y5230D01*
X184936Y5761D01*
X184500Y5848D01*
D02*
G37*
G36*
X183500D02*
X183064Y5761D01*
X182270Y5230D01*
X181739Y4436D01*
X181652Y4000D01*
X183500D01*
Y5848D01*
D02*
G37*
G36*
X169500D02*
Y4000D01*
X171348D01*
X171261Y4436D01*
X170730Y5230D01*
X169936Y5761D01*
X169500Y5848D01*
D02*
G37*
G36*
X168500D02*
X168064Y5761D01*
X167270Y5230D01*
X166739Y4436D01*
X166652Y4000D01*
X168500D01*
Y5848D01*
D02*
G37*
G36*
X154500D02*
Y4000D01*
X156348D01*
X156261Y4436D01*
X155730Y5230D01*
X154936Y5761D01*
X154500Y5848D01*
D02*
G37*
G36*
X153500D02*
X153064Y5761D01*
X152270Y5230D01*
X151739Y4436D01*
X151652Y4000D01*
X153500D01*
Y5848D01*
D02*
G37*
G36*
X139500D02*
Y4000D01*
X141348D01*
X141261Y4436D01*
X140730Y5230D01*
X139936Y5761D01*
X139500Y5848D01*
D02*
G37*
G36*
X138500D02*
X138064Y5761D01*
X137270Y5230D01*
X136739Y4436D01*
X136652Y4000D01*
X138500D01*
Y5848D01*
D02*
G37*
G36*
X124500D02*
Y4000D01*
X126348D01*
X126261Y4436D01*
X125730Y5230D01*
X124936Y5761D01*
X124500Y5848D01*
D02*
G37*
G36*
X123500D02*
X123064Y5761D01*
X122270Y5230D01*
X121739Y4436D01*
X121652Y4000D01*
X123500D01*
Y5848D01*
D02*
G37*
G36*
X109500D02*
Y4000D01*
X111348D01*
X111261Y4436D01*
X110730Y5230D01*
X109936Y5761D01*
X109500Y5848D01*
D02*
G37*
G36*
X108500D02*
X108064Y5761D01*
X107270Y5230D01*
X106739Y4436D01*
X106652Y4000D01*
X108500D01*
Y5848D01*
D02*
G37*
G36*
X94500D02*
Y4000D01*
X96348D01*
X96261Y4436D01*
X95730Y5230D01*
X94936Y5761D01*
X94500Y5848D01*
D02*
G37*
G36*
X93500D02*
X93064Y5761D01*
X92270Y5230D01*
X91739Y4436D01*
X91652Y4000D01*
X93500D01*
Y5848D01*
D02*
G37*
G36*
X79500D02*
Y4000D01*
X81348D01*
X81261Y4436D01*
X80730Y5230D01*
X79936Y5761D01*
X79500Y5848D01*
D02*
G37*
G36*
X78500D02*
X78064Y5761D01*
X77270Y5230D01*
X76739Y4436D01*
X76652Y4000D01*
X78500D01*
Y5848D01*
D02*
G37*
G36*
X64500D02*
Y4000D01*
X66348D01*
X66261Y4436D01*
X65730Y5230D01*
X64936Y5761D01*
X64500Y5848D01*
D02*
G37*
G36*
X63500D02*
X63064Y5761D01*
X62270Y5230D01*
X61739Y4436D01*
X61652Y4000D01*
X63500D01*
Y5848D01*
D02*
G37*
G36*
X49500D02*
Y4000D01*
X51348D01*
X51261Y4436D01*
X50730Y5230D01*
X49936Y5761D01*
X49500Y5848D01*
D02*
G37*
G36*
X48500D02*
X48064Y5761D01*
X47270Y5230D01*
X46739Y4436D01*
X46652Y4000D01*
X48500D01*
Y5848D01*
D02*
G37*
G36*
X34500D02*
Y4000D01*
X36348D01*
X36261Y4436D01*
X35730Y5230D01*
X34936Y5761D01*
X34500Y5848D01*
D02*
G37*
G36*
X33500D02*
X33064Y5761D01*
X32270Y5230D01*
X31739Y4436D01*
X31652Y4000D01*
X33500D01*
Y5848D01*
D02*
G37*
G36*
X19500D02*
Y4000D01*
X21348D01*
X21261Y4436D01*
X20730Y5230D01*
X19936Y5761D01*
X19500Y5848D01*
D02*
G37*
G36*
X18500D02*
X18064Y5761D01*
X17270Y5230D01*
X16739Y4436D01*
X16652Y4000D01*
X18500D01*
Y5848D01*
D02*
G37*
G36*
X261348Y3000D02*
X259500D01*
Y1152D01*
X259936Y1239D01*
X260730Y1770D01*
X261261Y2564D01*
X261348Y3000D01*
D02*
G37*
G36*
X258500D02*
X256652D01*
X256739Y2564D01*
X257270Y1770D01*
X258064Y1239D01*
X258500Y1152D01*
Y3000D01*
D02*
G37*
G36*
X246348D02*
X244500D01*
Y1152D01*
X244936Y1239D01*
X245730Y1770D01*
X246261Y2564D01*
X246348Y3000D01*
D02*
G37*
G36*
X243500D02*
X241652D01*
X241739Y2564D01*
X242270Y1770D01*
X243064Y1239D01*
X243500Y1152D01*
Y3000D01*
D02*
G37*
G36*
X231348D02*
X229500D01*
Y1152D01*
X229936Y1239D01*
X230730Y1770D01*
X231261Y2564D01*
X231348Y3000D01*
D02*
G37*
G36*
X228500D02*
X226652D01*
X226739Y2564D01*
X227270Y1770D01*
X228064Y1239D01*
X228500Y1152D01*
Y3000D01*
D02*
G37*
G36*
X216348D02*
X214500D01*
Y1152D01*
X214936Y1239D01*
X215730Y1770D01*
X216261Y2564D01*
X216348Y3000D01*
D02*
G37*
G36*
X213500D02*
X211652D01*
X211739Y2564D01*
X212270Y1770D01*
X213064Y1239D01*
X213500Y1152D01*
Y3000D01*
D02*
G37*
G36*
X201348D02*
X199500D01*
Y1152D01*
X199936Y1239D01*
X200730Y1770D01*
X201261Y2564D01*
X201348Y3000D01*
D02*
G37*
G36*
X198500D02*
X196652D01*
X196739Y2564D01*
X197270Y1770D01*
X198064Y1239D01*
X198500Y1152D01*
Y3000D01*
D02*
G37*
G36*
X186348D02*
X184500D01*
Y1152D01*
X184936Y1239D01*
X185730Y1770D01*
X186261Y2564D01*
X186348Y3000D01*
D02*
G37*
G36*
X183500D02*
X181652D01*
X181739Y2564D01*
X182270Y1770D01*
X183064Y1239D01*
X183500Y1152D01*
Y3000D01*
D02*
G37*
G36*
X171348D02*
X169500D01*
Y1152D01*
X169936Y1239D01*
X170730Y1770D01*
X171261Y2564D01*
X171348Y3000D01*
D02*
G37*
G36*
X168500D02*
X166652D01*
X166739Y2564D01*
X167270Y1770D01*
X168064Y1239D01*
X168500Y1152D01*
Y3000D01*
D02*
G37*
G36*
X156348D02*
X154500D01*
Y1152D01*
X154936Y1239D01*
X155730Y1770D01*
X156261Y2564D01*
X156348Y3000D01*
D02*
G37*
G36*
X153500D02*
X151652D01*
X151739Y2564D01*
X152270Y1770D01*
X153064Y1239D01*
X153500Y1152D01*
Y3000D01*
D02*
G37*
G36*
X141348D02*
X139500D01*
Y1152D01*
X139936Y1239D01*
X140730Y1770D01*
X141261Y2564D01*
X141348Y3000D01*
D02*
G37*
G36*
X138500D02*
X136652D01*
X136739Y2564D01*
X137270Y1770D01*
X138064Y1239D01*
X138500Y1152D01*
Y3000D01*
D02*
G37*
G36*
X126348D02*
X124500D01*
Y1152D01*
X124936Y1239D01*
X125730Y1770D01*
X126261Y2564D01*
X126348Y3000D01*
D02*
G37*
G36*
X123500D02*
X121652D01*
X121739Y2564D01*
X122270Y1770D01*
X123064Y1239D01*
X123500Y1152D01*
Y3000D01*
D02*
G37*
G36*
X111348D02*
X109500D01*
Y1152D01*
X109936Y1239D01*
X110730Y1770D01*
X111261Y2564D01*
X111348Y3000D01*
D02*
G37*
G36*
X108500D02*
X106652D01*
X106739Y2564D01*
X107270Y1770D01*
X108064Y1239D01*
X108500Y1152D01*
Y3000D01*
D02*
G37*
G36*
X96348D02*
X94500D01*
Y1152D01*
X94936Y1239D01*
X95730Y1770D01*
X96261Y2564D01*
X96348Y3000D01*
D02*
G37*
G36*
X93500D02*
X91652D01*
X91739Y2564D01*
X92270Y1770D01*
X93064Y1239D01*
X93500Y1152D01*
Y3000D01*
D02*
G37*
G36*
X81348D02*
X79500D01*
Y1152D01*
X79936Y1239D01*
X80730Y1770D01*
X81261Y2564D01*
X81348Y3000D01*
D02*
G37*
G36*
X78500D02*
X76652D01*
X76739Y2564D01*
X77270Y1770D01*
X78064Y1239D01*
X78500Y1152D01*
Y3000D01*
D02*
G37*
G36*
X66348D02*
X64500D01*
Y1152D01*
X64936Y1239D01*
X65730Y1770D01*
X66261Y2564D01*
X66348Y3000D01*
D02*
G37*
G36*
X63500D02*
X61652D01*
X61739Y2564D01*
X62270Y1770D01*
X63064Y1239D01*
X63500Y1152D01*
Y3000D01*
D02*
G37*
G36*
X51348D02*
X49500D01*
Y1152D01*
X49936Y1239D01*
X50730Y1770D01*
X51261Y2564D01*
X51348Y3000D01*
D02*
G37*
G36*
X48500D02*
X46652D01*
X46739Y2564D01*
X47270Y1770D01*
X48064Y1239D01*
X48500Y1152D01*
Y3000D01*
D02*
G37*
G36*
X36348D02*
X34500D01*
Y1152D01*
X34936Y1239D01*
X35730Y1770D01*
X36261Y2564D01*
X36348Y3000D01*
D02*
G37*
G36*
X33500D02*
X31652D01*
X31739Y2564D01*
X32270Y1770D01*
X33064Y1239D01*
X33500Y1152D01*
Y3000D01*
D02*
G37*
G36*
X21348D02*
X19500D01*
Y1152D01*
X19936Y1239D01*
X20730Y1770D01*
X21261Y2564D01*
X21348Y3000D01*
D02*
G37*
G36*
X18500D02*
X16652D01*
X16739Y2564D01*
X17270Y1770D01*
X18064Y1239D01*
X18500Y1152D01*
Y3000D01*
D02*
G37*
%LPD*%
G36*
X210437Y219121D02*
Y215649D01*
X210413Y215627D01*
X209975Y215436D01*
X209860Y215479D01*
X209589Y215533D01*
X208207D01*
X207936Y215479D01*
X207820Y215436D01*
X207382Y215627D01*
X207358Y215649D01*
Y220661D01*
X207281Y221052D01*
X207060Y221382D01*
X198221Y230221D01*
X197890Y230442D01*
X197500Y230520D01*
X177000D01*
X176610Y230442D01*
X176279Y230221D01*
X162849Y216791D01*
X144724D01*
Y217256D01*
X140575D01*
Y214287D01*
X144724D01*
Y214752D01*
X163272D01*
X163662Y214830D01*
X163993Y215051D01*
X177422Y228480D01*
X197078D01*
X205319Y220239D01*
Y216189D01*
X205059Y216039D01*
X204799Y216189D01*
Y219220D01*
X204721Y219611D01*
X204501Y219941D01*
X197221Y227221D01*
X196890Y227442D01*
X196500Y227520D01*
X178000D01*
X177610Y227442D01*
X177279Y227221D01*
X171279Y221221D01*
X171058Y220890D01*
X170980Y220500D01*
Y215665D01*
X170480Y215397D01*
X169936Y215761D01*
X169500Y215848D01*
Y213500D01*
Y211152D01*
X169936Y211239D01*
X170480Y211603D01*
X170980Y211335D01*
Y206922D01*
X166849Y202791D01*
X144724D01*
Y203256D01*
X140575D01*
Y200287D01*
X143708D01*
X143992Y199787D01*
X143947Y199713D01*
X140575D01*
Y196744D01*
X144724D01*
X145134Y196526D01*
X145564Y196239D01*
X146000Y196152D01*
Y198500D01*
X146500D01*
Y199000D01*
X148848D01*
X148761Y199436D01*
X148230Y200230D01*
X148166Y200274D01*
X148311Y200752D01*
X159689D01*
X159835Y200274D01*
X159770Y200230D01*
X159239Y199436D01*
X159152Y199000D01*
X163848D01*
X163761Y199436D01*
X163230Y200230D01*
X163165Y200274D01*
X163311Y200752D01*
X167272D01*
X167662Y200830D01*
X167993Y201051D01*
X172721Y205779D01*
X172942Y206110D01*
X173020Y206500D01*
Y220078D01*
X178422Y225480D01*
X196078D01*
X202760Y218798D01*
Y216189D01*
X202500Y216039D01*
X202240Y216189D01*
Y217779D01*
X202162Y218170D01*
X201941Y218500D01*
X196221Y224221D01*
X195890Y224442D01*
X195500Y224520D01*
X179500D01*
X179110Y224442D01*
X178779Y224221D01*
X174279Y219721D01*
X174058Y219390D01*
X173980Y219000D01*
Y197422D01*
X166078Y189520D01*
X144874D01*
Y189984D01*
X140724D01*
Y187016D01*
X144874D01*
Y187480D01*
X166500D01*
X166890Y187558D01*
X167221Y187779D01*
X175721Y196279D01*
X175942Y196610D01*
X176020Y197000D01*
Y218578D01*
X179922Y222480D01*
X195078D01*
X200201Y217357D01*
Y215649D01*
X200177Y215627D01*
X199758Y215444D01*
X199295Y215641D01*
Y216724D01*
X199218Y217115D01*
X198996Y217445D01*
X195135Y221307D01*
X194804Y221528D01*
X194414Y221605D01*
X180586D01*
X180196Y221528D01*
X179865Y221307D01*
X178779Y220221D01*
X178558Y219890D01*
X178480Y219500D01*
Y186751D01*
X168793Y177063D01*
X144874D01*
Y177527D01*
X140724D01*
Y174559D01*
X144874D01*
Y175024D01*
X169215D01*
X169605Y175101D01*
X169936Y175322D01*
X179080Y184466D01*
X179540Y184292D01*
X179573Y184253D01*
X179474Y183500D01*
X179577Y182717D01*
X179879Y181987D01*
X180360Y181360D01*
X180987Y180879D01*
X181717Y180577D01*
X182500Y180474D01*
X183283Y180577D01*
X184013Y180879D01*
X184640Y181360D01*
X185120Y181987D01*
X185325Y182480D01*
X192144D01*
Y180175D01*
X192175Y180020D01*
X191972Y179653D01*
X191853Y179520D01*
X191500D01*
X191110Y179442D01*
X190779Y179221D01*
X179307Y167749D01*
X178847Y167996D01*
X178848Y168000D01*
X177000D01*
Y166152D01*
X177004Y166153D01*
X177251Y165692D01*
X175849Y164291D01*
X145224D01*
Y164756D01*
X141075D01*
Y161787D01*
X145224D01*
Y162252D01*
X176272D01*
X176662Y162330D01*
X176993Y162551D01*
X191922Y177480D01*
X196198D01*
X196405Y176980D01*
X177445Y158020D01*
X145631D01*
X145224Y158244D01*
X145224Y158520D01*
Y161213D01*
X141075D01*
Y158408D01*
X140993Y158124D01*
X140809Y157854D01*
X140610Y157721D01*
X127314Y144425D01*
X125787D01*
Y140703D01*
X125500Y140537D01*
X125213Y140703D01*
Y144425D01*
X123343D01*
X123244Y144445D01*
X123076D01*
X88024Y179496D01*
X88232Y179996D01*
X90562D01*
X111551Y159007D01*
X111881Y158786D01*
X112272Y158709D01*
X134776D01*
Y158244D01*
X138925D01*
Y161213D01*
X134776D01*
Y160748D01*
X112694D01*
X91977Y181465D01*
X92184Y181965D01*
X94593D01*
X104779Y171779D01*
X105110Y171558D01*
X105500Y171480D01*
X134425D01*
Y171016D01*
X138575D01*
Y173984D01*
X134425D01*
Y173520D01*
X105922D01*
X96007Y183435D01*
X96214Y183935D01*
X134425D01*
Y183473D01*
X138575D01*
Y186441D01*
X134425D01*
Y185974D01*
X87123D01*
X86916Y186474D01*
X97651Y197209D01*
X134276D01*
Y196744D01*
X138425D01*
Y199713D01*
X134276D01*
Y199248D01*
X97228D01*
X96838Y199170D01*
X96507Y198949D01*
X86399Y188841D01*
X85937Y189032D01*
Y190571D01*
X85472D01*
Y194530D01*
X102151Y211209D01*
X134276D01*
Y210744D01*
X138425D01*
Y213713D01*
X134276D01*
Y213248D01*
X101728D01*
X101338Y213170D01*
X101007Y212949D01*
X83732Y195674D01*
X83511Y195343D01*
X83433Y194953D01*
Y190571D01*
X82968D01*
Y185929D01*
Y181992D01*
Y178055D01*
Y173429D01*
X83433D01*
Y147547D01*
X83511Y147157D01*
X83732Y146826D01*
X93538Y137020D01*
X93331Y136520D01*
X88665D01*
X88397Y137020D01*
X88761Y137564D01*
X88848Y138000D01*
X84152D01*
X84239Y137564D01*
X84603Y137020D01*
X84336Y136520D01*
X74350D01*
X73960Y136442D01*
X73629Y136221D01*
X65617Y128209D01*
X64870D01*
Y196928D01*
X99422Y231480D01*
X198078D01*
X210437Y219121D01*
D02*
G37*
G36*
X213071Y180265D02*
X217675D01*
Y71256D01*
X217642D01*
Y71026D01*
X213000D01*
X212856Y71152D01*
Y71281D01*
X212802Y71553D01*
X212649Y71782D01*
X212419Y71936D01*
X212148Y71990D01*
X210766D01*
X210495Y71936D01*
X210380Y71892D01*
X209942Y72083D01*
X209917Y72106D01*
Y72975D01*
X215922Y78980D01*
X216143Y79311D01*
X216220Y79701D01*
Y158299D01*
X216143Y158689D01*
X215922Y159020D01*
X209917Y165025D01*
Y179351D01*
X209942Y179374D01*
X210380Y179564D01*
X210495Y179521D01*
X210766Y179467D01*
X212148D01*
X212419Y179521D01*
X212649Y179674D01*
X212802Y179904D01*
X212856Y180175D01*
X212974Y180278D01*
X213071Y180265D01*
D02*
G37*
G36*
X108366Y156271D02*
X108221Y155792D01*
X108064Y155761D01*
X107270Y155230D01*
X106739Y154436D01*
X106652Y154000D01*
X109000D01*
Y153500D01*
X109500D01*
Y151152D01*
X109936Y151239D01*
X110730Y151770D01*
X111261Y152564D01*
X111292Y152721D01*
X111771Y152866D01*
X121933Y142704D01*
X122244Y142496D01*
Y140276D01*
X121850Y140020D01*
X110422D01*
X100020Y150422D01*
Y163454D01*
X99942Y163844D01*
X99721Y164174D01*
X86775Y177121D01*
X86939Y177664D01*
X86968Y177669D01*
X108366Y156271D01*
D02*
G37*
G36*
X97980Y163031D02*
Y150000D01*
X98058Y149610D01*
X98279Y149279D01*
X108577Y138981D01*
X108385Y138520D01*
X94922D01*
X85472Y147970D01*
Y173429D01*
X85937D01*
Y174421D01*
X86399Y174613D01*
X97980Y163031D01*
D02*
G37*
G36*
X210480Y112578D02*
Y100652D01*
X210072Y100399D01*
X209860Y100479D01*
X209589Y100533D01*
X208207D01*
X207936Y100479D01*
X207820Y100436D01*
X207382Y100627D01*
X207358Y100649D01*
Y107161D01*
X207281Y107552D01*
X207060Y107882D01*
X181449Y133493D01*
X181119Y133714D01*
X180728Y133791D01*
X145768D01*
X145673Y133894D01*
X145752Y134464D01*
X145781Y134480D01*
X188578D01*
X210480Y112578D01*
D02*
G37*
%LPC*%
G36*
X162000Y230848D02*
Y229000D01*
X163848D01*
X163761Y229436D01*
X163230Y230230D01*
X162436Y230761D01*
X162000Y230848D01*
D02*
G37*
G36*
X161000D02*
X160564Y230761D01*
X159770Y230230D01*
X159239Y229436D01*
X159152Y229000D01*
X161000D01*
Y230848D01*
D02*
G37*
G36*
X147000D02*
Y229000D01*
X148848D01*
X148761Y229436D01*
X148230Y230230D01*
X147436Y230761D01*
X147000Y230848D01*
D02*
G37*
G36*
X146000D02*
X145564Y230761D01*
X144770Y230230D01*
X144239Y229436D01*
X144152Y229000D01*
X146000D01*
Y230848D01*
D02*
G37*
G36*
X132000D02*
Y229000D01*
X133848D01*
X133761Y229436D01*
X133230Y230230D01*
X132436Y230761D01*
X132000Y230848D01*
D02*
G37*
G36*
X131000D02*
X130564Y230761D01*
X129770Y230230D01*
X129239Y229436D01*
X129152Y229000D01*
X131000D01*
Y230848D01*
D02*
G37*
G36*
X117000D02*
Y229000D01*
X118848D01*
X118761Y229436D01*
X118230Y230230D01*
X117436Y230761D01*
X117000Y230848D01*
D02*
G37*
G36*
X116000D02*
X115564Y230761D01*
X114770Y230230D01*
X114239Y229436D01*
X114152Y229000D01*
X116000D01*
Y230848D01*
D02*
G37*
G36*
X102000D02*
Y229000D01*
X103848D01*
X103761Y229436D01*
X103230Y230230D01*
X102436Y230761D01*
X102000Y230848D01*
D02*
G37*
G36*
X101000D02*
X100564Y230761D01*
X99770Y230230D01*
X99239Y229436D01*
X99152Y229000D01*
X101000D01*
Y230848D01*
D02*
G37*
G36*
X163848Y228000D02*
X162000D01*
Y226152D01*
X162436Y226239D01*
X163230Y226770D01*
X163761Y227564D01*
X163848Y228000D01*
D02*
G37*
G36*
X161000D02*
X159152D01*
X159239Y227564D01*
X159770Y226770D01*
X160564Y226239D01*
X161000Y226152D01*
Y228000D01*
D02*
G37*
G36*
X148848D02*
X147000D01*
Y226152D01*
X147436Y226239D01*
X148230Y226770D01*
X148761Y227564D01*
X148848Y228000D01*
D02*
G37*
G36*
X146000D02*
X144152D01*
X144239Y227564D01*
X144770Y226770D01*
X145564Y226239D01*
X146000Y226152D01*
Y228000D01*
D02*
G37*
G36*
X133848D02*
X132000D01*
Y226152D01*
X132436Y226239D01*
X133230Y226770D01*
X133761Y227564D01*
X133848Y228000D01*
D02*
G37*
G36*
X131000D02*
X129152D01*
X129239Y227564D01*
X129770Y226770D01*
X130564Y226239D01*
X131000Y226152D01*
Y228000D01*
D02*
G37*
G36*
X118848D02*
X117000D01*
Y226152D01*
X117436Y226239D01*
X118230Y226770D01*
X118761Y227564D01*
X118848Y228000D01*
D02*
G37*
G36*
X116000D02*
X114152D01*
X114239Y227564D01*
X114770Y226770D01*
X115564Y226239D01*
X116000Y226152D01*
Y228000D01*
D02*
G37*
G36*
X103848D02*
X102000D01*
Y226152D01*
X102436Y226239D01*
X103230Y226770D01*
X103761Y227564D01*
X103848Y228000D01*
D02*
G37*
G36*
X101000D02*
X99152D01*
X99239Y227564D01*
X99770Y226770D01*
X100564Y226239D01*
X101000Y226152D01*
Y228000D01*
D02*
G37*
G36*
X138425Y217256D02*
X134276D01*
Y214287D01*
X138425D01*
Y217256D01*
D02*
G37*
G36*
X168500Y215848D02*
X168064Y215761D01*
X167270Y215230D01*
X166739Y214436D01*
X166652Y214000D01*
X168500D01*
Y215848D01*
D02*
G37*
G36*
X94500D02*
Y214000D01*
X96348D01*
X96261Y214436D01*
X95730Y215230D01*
X94936Y215761D01*
X94500Y215848D01*
D02*
G37*
G36*
X93500D02*
X93064Y215761D01*
X92270Y215230D01*
X91739Y214436D01*
X91652Y214000D01*
X93500D01*
Y215848D01*
D02*
G37*
G36*
X168500Y213000D02*
X166652D01*
X166739Y212564D01*
X167270Y211770D01*
X168064Y211239D01*
X168500Y211152D01*
Y213000D01*
D02*
G37*
G36*
X96348D02*
X94500D01*
Y211152D01*
X94936Y211239D01*
X95730Y211770D01*
X96261Y212564D01*
X96348Y213000D01*
D02*
G37*
G36*
X93500D02*
X91652D01*
X91739Y212564D01*
X92270Y211770D01*
X93064Y211239D01*
X93500Y211152D01*
Y213000D01*
D02*
G37*
G36*
X144724Y213713D02*
X140575D01*
Y210744D01*
X144724D01*
Y213713D01*
D02*
G37*
G36*
X138425Y203256D02*
X134276D01*
Y200287D01*
X138425D01*
Y203256D01*
D02*
G37*
G36*
X72000Y200848D02*
Y199000D01*
X73848D01*
X73761Y199436D01*
X73230Y200230D01*
X72436Y200761D01*
X72000Y200848D01*
D02*
G37*
G36*
X71000D02*
X70564Y200761D01*
X69770Y200230D01*
X69239Y199436D01*
X69152Y199000D01*
X71000D01*
Y200848D01*
D02*
G37*
G36*
X163848Y198000D02*
X162000D01*
Y196152D01*
X162436Y196239D01*
X163230Y196770D01*
X163761Y197564D01*
X163848Y198000D01*
D02*
G37*
G36*
X161000D02*
X159152D01*
X159239Y197564D01*
X159770Y196770D01*
X160564Y196239D01*
X161000Y196152D01*
Y198000D01*
D02*
G37*
G36*
X148848D02*
X147000D01*
Y196152D01*
X147436Y196239D01*
X148230Y196770D01*
X148761Y197564D01*
X148848Y198000D01*
D02*
G37*
G36*
X73848D02*
X72000D01*
Y196152D01*
X72436Y196239D01*
X73230Y196770D01*
X73761Y197564D01*
X73848Y198000D01*
D02*
G37*
G36*
X71000D02*
X69152D01*
X69239Y197564D01*
X69770Y196770D01*
X70564Y196239D01*
X71000Y196152D01*
Y198000D01*
D02*
G37*
G36*
X80532Y191071D02*
X79047D01*
Y189734D01*
X80532D01*
Y191071D01*
D02*
G37*
G36*
X78047D02*
X76563D01*
Y189734D01*
X78047D01*
Y191071D01*
D02*
G37*
G36*
X80532Y188734D02*
X76563D01*
Y187421D01*
X80532D01*
Y188734D01*
D02*
G37*
G36*
X138575Y189984D02*
X134425D01*
Y187016D01*
X138575D01*
Y189984D01*
D02*
G37*
G36*
X80532Y186421D02*
X76563D01*
Y185453D01*
X80532D01*
Y186421D01*
D02*
G37*
G36*
X169500Y185848D02*
Y184000D01*
X171348D01*
X171261Y184436D01*
X170730Y185230D01*
X169936Y185761D01*
X169500Y185848D01*
D02*
G37*
G36*
X168500D02*
X168064Y185761D01*
X167270Y185230D01*
X166739Y184436D01*
X166652Y184000D01*
X168500D01*
Y185848D01*
D02*
G37*
G36*
X154500D02*
Y184000D01*
X156348D01*
X156261Y184436D01*
X155730Y185230D01*
X154936Y185761D01*
X154500Y185848D01*
D02*
G37*
G36*
X153500D02*
X153064Y185761D01*
X152270Y185230D01*
X151739Y184436D01*
X151652Y184000D01*
X153500D01*
Y185848D01*
D02*
G37*
G36*
X80532Y184453D02*
X76563D01*
Y183484D01*
X80532D01*
Y184453D01*
D02*
G37*
G36*
X144874Y186441D02*
X140724D01*
Y183473D01*
X144874D01*
Y186441D01*
D02*
G37*
G36*
X80532Y182484D02*
X76563D01*
Y181516D01*
X80532D01*
Y182484D01*
D02*
G37*
G36*
X171348Y183000D02*
X169500D01*
Y181152D01*
X169936Y181239D01*
X170730Y181770D01*
X171261Y182564D01*
X171348Y183000D01*
D02*
G37*
G36*
X168500D02*
X166652D01*
X166739Y182564D01*
X167270Y181770D01*
X168064Y181239D01*
X168500Y181152D01*
Y183000D01*
D02*
G37*
G36*
X156348D02*
X154500D01*
Y181152D01*
X154936Y181239D01*
X155730Y181770D01*
X156261Y182564D01*
X156348Y183000D01*
D02*
G37*
G36*
X153500D02*
X151652D01*
X151739Y182564D01*
X152270Y181770D01*
X153064Y181239D01*
X153500Y181152D01*
Y183000D01*
D02*
G37*
G36*
X80532Y180516D02*
X76563D01*
Y179547D01*
X80532D01*
Y180516D01*
D02*
G37*
G36*
Y178547D02*
X76563D01*
Y177579D01*
X80532D01*
Y178547D01*
D02*
G37*
G36*
Y176579D02*
X76563D01*
Y175266D01*
X80532D01*
Y175587D01*
Y176579D01*
D02*
G37*
G36*
X138575Y177527D02*
X134425D01*
Y174559D01*
X138575D01*
Y177527D01*
D02*
G37*
G36*
X80532Y174266D02*
X79047D01*
Y172929D01*
X80532D01*
Y174266D01*
D02*
G37*
G36*
X78047D02*
X76563D01*
Y172929D01*
X78047D01*
Y174266D01*
D02*
G37*
G36*
X144874Y173984D02*
X140724D01*
Y171016D01*
X144874D01*
Y173984D01*
D02*
G37*
G36*
X177000Y170848D02*
Y169000D01*
X178848D01*
X178761Y169436D01*
X178230Y170230D01*
X177436Y170761D01*
X177000Y170848D01*
D02*
G37*
G36*
X176000D02*
X175564Y170761D01*
X174770Y170230D01*
X174239Y169436D01*
X174152Y169000D01*
X176000D01*
Y170848D01*
D02*
G37*
G36*
X162000D02*
Y169000D01*
X163848D01*
X163761Y169436D01*
X163230Y170230D01*
X162436Y170761D01*
X162000Y170848D01*
D02*
G37*
G36*
X161000D02*
X160564Y170761D01*
X159770Y170230D01*
X159239Y169436D01*
X159152Y169000D01*
X161000D01*
Y170848D01*
D02*
G37*
G36*
X147000D02*
Y169000D01*
X148848D01*
X148761Y169436D01*
X148230Y170230D01*
X147436Y170761D01*
X147000Y170848D01*
D02*
G37*
G36*
X146000D02*
X145564Y170761D01*
X144770Y170230D01*
X144239Y169436D01*
X144152Y169000D01*
X146000D01*
Y170848D01*
D02*
G37*
G36*
X132000D02*
Y169000D01*
X133848D01*
X133761Y169436D01*
X133230Y170230D01*
X132436Y170761D01*
X132000Y170848D01*
D02*
G37*
G36*
X131000D02*
X130564Y170761D01*
X129770Y170230D01*
X129239Y169436D01*
X129152Y169000D01*
X131000D01*
Y170848D01*
D02*
G37*
G36*
X117000D02*
Y169000D01*
X118848D01*
X118761Y169436D01*
X118230Y170230D01*
X117436Y170761D01*
X117000Y170848D01*
D02*
G37*
G36*
X116000D02*
X115564Y170761D01*
X114770Y170230D01*
X114239Y169436D01*
X114152Y169000D01*
X116000D01*
Y170848D01*
D02*
G37*
G36*
X72000D02*
Y169000D01*
X73848D01*
X73761Y169436D01*
X73230Y170230D01*
X72436Y170761D01*
X72000Y170848D01*
D02*
G37*
G36*
X71000D02*
X70564Y170761D01*
X69770Y170230D01*
X69239Y169436D01*
X69152Y169000D01*
X71000D01*
Y170848D01*
D02*
G37*
G36*
X176000Y168000D02*
X174152D01*
X174239Y167564D01*
X174770Y166770D01*
X175564Y166239D01*
X176000Y166152D01*
Y168000D01*
D02*
G37*
G36*
X163848D02*
X162000D01*
Y166152D01*
X162436Y166239D01*
X163230Y166770D01*
X163761Y167564D01*
X163848Y168000D01*
D02*
G37*
G36*
X161000D02*
X159152D01*
X159239Y167564D01*
X159770Y166770D01*
X160564Y166239D01*
X161000Y166152D01*
Y168000D01*
D02*
G37*
G36*
X148848D02*
X147000D01*
Y166152D01*
X147436Y166239D01*
X148230Y166770D01*
X148761Y167564D01*
X148848Y168000D01*
D02*
G37*
G36*
X146000D02*
X144152D01*
X144239Y167564D01*
X144770Y166770D01*
X145564Y166239D01*
X146000Y166152D01*
Y168000D01*
D02*
G37*
G36*
X133848D02*
X132000D01*
Y166152D01*
X132436Y166239D01*
X133230Y166770D01*
X133761Y167564D01*
X133848Y168000D01*
D02*
G37*
G36*
X131000D02*
X129152D01*
X129239Y167564D01*
X129770Y166770D01*
X130564Y166239D01*
X131000Y166152D01*
Y168000D01*
D02*
G37*
G36*
X118848D02*
X117000D01*
Y166152D01*
X117436Y166239D01*
X118230Y166770D01*
X118761Y167564D01*
X118848Y168000D01*
D02*
G37*
G36*
X116000D02*
X114152D01*
X114239Y167564D01*
X114770Y166770D01*
X115564Y166239D01*
X116000Y166152D01*
Y168000D01*
D02*
G37*
G36*
X73848D02*
X72000D01*
Y166152D01*
X72436Y166239D01*
X73230Y166770D01*
X73761Y167564D01*
X73848Y168000D01*
D02*
G37*
G36*
X71000D02*
X69152D01*
X69239Y167564D01*
X69770Y166770D01*
X70564Y166239D01*
X71000Y166152D01*
Y168000D01*
D02*
G37*
G36*
X138925Y164756D02*
X134776D01*
Y161787D01*
X138925D01*
Y164756D01*
D02*
G37*
G36*
X124500Y155848D02*
Y154000D01*
X126348D01*
X126261Y154436D01*
X125730Y155230D01*
X124936Y155761D01*
X124500Y155848D01*
D02*
G37*
G36*
X123500D02*
X123064Y155761D01*
X122270Y155230D01*
X121739Y154436D01*
X121652Y154000D01*
X123500D01*
Y155848D01*
D02*
G37*
G36*
X79500D02*
Y154000D01*
X81348D01*
X81261Y154436D01*
X80730Y155230D01*
X79936Y155761D01*
X79500Y155848D01*
D02*
G37*
G36*
X78500D02*
X78064Y155761D01*
X77270Y155230D01*
X76739Y154436D01*
X76652Y154000D01*
X78500D01*
Y155848D01*
D02*
G37*
G36*
X81348Y153000D02*
X79500D01*
Y151152D01*
X79936Y151239D01*
X80730Y151770D01*
X81261Y152564D01*
X81348Y153000D01*
D02*
G37*
G36*
X78500D02*
X76652D01*
X76739Y152564D01*
X77270Y151770D01*
X78064Y151239D01*
X78500Y151152D01*
Y153000D01*
D02*
G37*
G36*
X128756Y150724D02*
X125787D01*
Y146575D01*
X128756D01*
Y150724D01*
D02*
G37*
G36*
X126348Y153000D02*
X121652D01*
X121739Y152564D01*
X122270Y151770D01*
X123064Y151239D01*
X123138Y151224D01*
X123089Y150724D01*
X122244D01*
Y146575D01*
X125213D01*
Y150724D01*
X124911D01*
X124862Y151224D01*
X124936Y151239D01*
X125730Y151770D01*
X126261Y152564D01*
X126348Y153000D01*
D02*
G37*
G36*
X87000Y140848D02*
Y139000D01*
X88848D01*
X88761Y139436D01*
X88230Y140230D01*
X87436Y140761D01*
X87000Y140848D01*
D02*
G37*
G36*
X86000D02*
X85564Y140761D01*
X84770Y140230D01*
X84239Y139436D01*
X84152Y139000D01*
X86000D01*
Y140848D01*
D02*
G37*
G36*
X72000D02*
Y139000D01*
X73848D01*
X73761Y139436D01*
X73230Y140230D01*
X72436Y140761D01*
X72000Y140848D01*
D02*
G37*
G36*
X71000D02*
X70564Y140761D01*
X69770Y140230D01*
X69239Y139436D01*
X69152Y139000D01*
X71000D01*
Y140848D01*
D02*
G37*
G36*
X73848Y138000D02*
X72000D01*
Y136152D01*
X72436Y136239D01*
X73230Y136770D01*
X73761Y137564D01*
X73848Y138000D01*
D02*
G37*
G36*
X71000D02*
X69152D01*
X69239Y137564D01*
X69770Y136770D01*
X70564Y136239D01*
X71000Y136152D01*
Y138000D01*
D02*
G37*
G36*
X108500Y153000D02*
X106652D01*
X106739Y152564D01*
X107270Y151770D01*
X108064Y151239D01*
X108500Y151152D01*
Y153000D01*
D02*
G37*
G36*
X94500Y155848D02*
Y154000D01*
X96348D01*
X96261Y154436D01*
X95730Y155230D01*
X94936Y155761D01*
X94500Y155848D01*
D02*
G37*
G36*
X93500D02*
X93064Y155761D01*
X92270Y155230D01*
X91739Y154436D01*
X91652Y154000D01*
X93500D01*
Y155848D01*
D02*
G37*
G36*
X96348Y153000D02*
X94500D01*
Y151152D01*
X94936Y151239D01*
X95730Y151770D01*
X96261Y152564D01*
X96348Y153000D01*
D02*
G37*
G36*
X93500D02*
X91652D01*
X91739Y152564D01*
X92270Y151770D01*
X93064Y151239D01*
X93500Y151152D01*
Y153000D01*
D02*
G37*
%LPD*%
D13*
X204936Y204500D02*
X201656D01*
X201000Y203844D01*
Y202532D01*
X201656Y201876D01*
X204936D01*
X201000Y197940D02*
Y200564D01*
X203624Y197940D01*
X204280D01*
X204936Y198596D01*
Y199908D01*
X204280Y200564D01*
X204936Y89500D02*
X201656D01*
X201000Y88844D01*
Y87532D01*
X201656Y86876D01*
X204936D01*
X201000Y85564D02*
Y84252D01*
Y84908D01*
X204936D01*
X204280Y85564D01*
D15*
X179500Y219500D02*
X180586Y220586D01*
X179500Y186328D02*
Y219500D01*
X169215Y176043D02*
X179500Y186328D01*
X127272Y142941D02*
X141331Y157000D01*
X177867D02*
X200835Y179968D01*
X141331Y157000D02*
X177867D01*
X176272Y163272D02*
X191500Y178500D01*
X196808D02*
X198276Y179968D01*
X191500Y178500D02*
X196808D01*
X143150Y163272D02*
X176272D01*
X198276Y179968D02*
Y182843D01*
X198661Y183228D01*
X200835Y182843D02*
X201220Y183228D01*
X200835Y179968D02*
Y182843D01*
X203394Y177394D02*
Y182843D01*
X179500Y153500D02*
X203394Y177394D01*
X152331Y153500D02*
X179500D01*
X206339Y170839D02*
Y183228D01*
X156272Y142350D02*
X177850D01*
X206339Y170839D01*
X203394Y182843D02*
X203780Y183228D01*
X165500Y103500D02*
X195000D01*
X151486Y89486D02*
X165500Y103500D01*
X195000D02*
X198276Y100224D01*
X84453Y182984D02*
X95016D01*
X105500Y172500D02*
X136500D01*
X95016Y182984D02*
X105500Y172500D01*
X84453Y181016D02*
X90984D01*
X112272Y159728D02*
X136850D01*
X90984Y181016D02*
X112272Y159728D01*
X85383Y177071D02*
X99000Y163454D01*
X84937Y177071D02*
X85383D01*
X99000Y150000D02*
Y163454D01*
X84453Y179047D02*
X87032D01*
X122653Y143425D01*
X123244D02*
X123728Y142941D01*
Y142350D02*
Y142941D01*
X122653Y143425D02*
X123244D01*
X99000Y150000D02*
X110000Y139000D01*
X135500D01*
X85921Y186921D02*
X97228Y198228D01*
X84453Y186921D02*
X85921D01*
X97228Y198228D02*
X136350D01*
X84453Y189234D02*
Y194953D01*
X101728Y212228D02*
X136350D01*
X84453Y194953D02*
X101728Y212228D01*
X84453Y147547D02*
X94500Y137500D01*
X84453Y147547D02*
Y174766D01*
X94500Y137500D02*
X147878D01*
X97984Y73484D02*
X110443Y85943D01*
X84953Y73484D02*
X97984D01*
X110443Y85943D02*
X137000D01*
X84953Y75453D02*
X93453D01*
X118371Y100371D02*
X137000D01*
X93453Y75453D02*
X118371Y100371D01*
X117300Y114800D02*
X137000D01*
X93500Y91000D02*
X117300Y114800D01*
X93500Y84000D02*
Y91000D01*
X86929Y77429D02*
X93500Y84000D01*
X85437Y77429D02*
X86929D01*
X104000Y57000D02*
X136915D01*
X84953Y69547D02*
X91453D01*
X104000Y57000D01*
X85883Y67571D02*
X110797Y42657D01*
X85437Y67571D02*
X85883D01*
X110797Y42657D02*
X137000D01*
X98272Y28228D02*
X137000D01*
X84953Y41547D02*
Y65266D01*
Y41547D02*
X98272Y28228D01*
X84985Y79767D02*
Y117485D01*
X96645Y129145D02*
X136916D01*
X84985Y117485D02*
X96645Y129145D01*
X63850Y124500D02*
Y125150D01*
X74350Y135500D02*
X189000D01*
X64000Y125150D02*
X64197D01*
X66256Y127209D02*
Y127406D01*
X74350Y135500D01*
X63850Y125150D02*
Y197350D01*
X64197Y125150D02*
X66256Y127209D01*
X211457Y211772D02*
X211478Y211750D01*
X84953Y79734D02*
X84985Y79767D01*
X136916Y129145D02*
X137000Y129228D01*
X180728Y132772D02*
X206339Y107161D01*
X143299Y132772D02*
X180728D01*
X206339Y96772D02*
Y107161D01*
X196500Y112500D02*
X203780Y105220D01*
Y96772D02*
Y105220D01*
X155000Y112500D02*
X196500D01*
X149000Y118500D02*
X155000Y112500D01*
X143456Y118500D02*
X149000D01*
X195000Y108000D02*
X201220Y101779D01*
X155000Y108000D02*
X195000D01*
X201220Y96772D02*
Y101779D01*
X151000Y104000D02*
X155000Y108000D01*
X198276Y97158D02*
X198661Y96772D01*
X198276Y97158D02*
Y100224D01*
X148661Y27000D02*
X182000D01*
X206339Y51339D01*
Y68228D01*
X193500Y21500D02*
X208898Y36898D01*
X52350Y43650D02*
X74500Y21500D01*
X193500D01*
X158404Y52000D02*
X193500D01*
X201220Y59720D02*
Y68228D01*
X193500Y52000D02*
X201220Y59720D01*
X149904Y60500D02*
X158404Y52000D01*
X194000Y58500D02*
X198661Y63161D01*
Y68228D01*
X162500Y58500D02*
X194000D01*
X145943Y75057D02*
X162500Y58500D01*
X189000Y135500D02*
X211500Y113000D01*
Y96815D02*
Y113000D01*
X247000Y97500D02*
Y208500D01*
X210271Y207524D02*
X216727D01*
X229786Y220583D01*
X208898Y211772D02*
X209283Y211386D01*
Y208512D02*
X209571Y208224D01*
Y208224D02*
X210271Y207524D01*
X209571Y208224D02*
Y208224D01*
X209283Y208512D02*
Y211386D01*
X229786Y220583D02*
X234917D01*
X211478Y202522D02*
X211500Y202500D01*
X247000Y88000D02*
Y97500D01*
X234917Y220583D02*
X247000Y208500D01*
X208949Y87551D02*
Y96720D01*
X208898Y96772D02*
X208949Y96720D01*
Y87551D02*
X209000Y87500D01*
X211457Y96772D02*
X211500Y96815D01*
X215201Y79701D02*
Y158299D01*
X208898Y73398D02*
X215201Y79701D01*
X147878Y137500D02*
X151654Y141276D01*
X199000Y190500D02*
X213650D01*
X218650Y195500D01*
X196000Y187500D02*
X199000Y190500D01*
X218650Y195500D02*
X220500Y197350D01*
X222471Y199322D01*
X196000Y183331D02*
Y187500D01*
X182500Y79000D02*
X191500D01*
X182500Y183500D02*
X193272D01*
X193543Y183228D01*
X142799Y176043D02*
X169215D01*
X191500Y79000D02*
X196102Y74398D01*
Y68228D02*
Y74398D01*
X99000Y232500D02*
X198500D01*
X63850Y197350D02*
X99000Y232500D01*
X198500D02*
X211457Y219543D01*
Y211772D02*
Y219543D01*
X177000Y229500D02*
X197500D01*
X206339Y220661D01*
Y211772D02*
Y220661D01*
X52500Y124583D02*
X63768D01*
X63850Y124500D01*
X196000Y183331D02*
X196102Y183228D01*
X223965Y199322D02*
X227000Y202357D01*
X222471Y199322D02*
X223965D01*
X227000Y206362D02*
X231221Y210583D01*
X227000Y202357D02*
Y206362D01*
X231221Y210583D02*
X232500D01*
X208898Y164602D02*
Y183228D01*
Y164602D02*
X215201Y158299D01*
X208898Y68228D02*
Y73398D01*
Y36898D02*
Y68228D01*
X52350Y43650D02*
Y103500D01*
X52500Y103650D02*
Y114583D01*
X52350Y103500D02*
X52500Y103650D01*
X143890Y31772D02*
X148661Y27000D01*
X30000Y54000D02*
X30291Y54291D01*
X30000Y170445D02*
Y178500D01*
X143299Y31772D02*
X143890D01*
X163272Y215772D02*
X177000Y229500D01*
X142650Y215772D02*
X163272D01*
X178000Y226500D02*
X196500D01*
X172000Y220500D02*
X178000Y226500D01*
X196500D02*
X203780Y219220D01*
Y211772D02*
Y219220D01*
X172000Y206500D02*
Y220500D01*
X167272Y201772D02*
X172000Y206500D01*
X142650Y201772D02*
X167272D01*
X201220Y211772D02*
Y217779D01*
X179500Y223500D02*
X195500D01*
X201220Y217779D01*
X166500Y188500D02*
X175000Y197000D01*
X142799Y188500D02*
X166500D01*
X175000Y197000D02*
Y219000D01*
X179500Y223500D01*
X198276Y212158D02*
Y216724D01*
X194414Y220586D02*
X198276Y216724D01*
X180586Y220586D02*
X194414D01*
X198276Y212158D02*
X198661Y211772D01*
X141772Y142941D02*
X152331Y153500D01*
X141772Y142350D02*
Y142941D01*
X127272Y142350D02*
Y142941D01*
X152728Y141760D02*
Y142350D01*
X152244Y141276D02*
X152728Y141760D01*
X151654Y141276D02*
X152244D01*
X135500Y139000D02*
X136330Y139830D01*
Y139861D02*
X138228Y141760D01*
X136330Y139830D02*
Y139861D01*
X138228Y141760D02*
Y142350D01*
X136498Y184955D02*
X136500Y184957D01*
X84455Y184955D02*
X136498D01*
X84453Y184953D02*
X84455Y184955D01*
X143299Y75057D02*
X145943D01*
X143799Y60500D02*
X149904D01*
X105953Y71516D02*
X105954Y71515D01*
X84953Y71516D02*
X105953D01*
X143650Y46272D02*
X194772D01*
X203780Y55279D01*
Y68228D01*
X143299Y118343D02*
X143456Y118500D01*
X143385Y104000D02*
X151000D01*
X143299Y103914D02*
X143385Y104000D01*
X143299Y89486D02*
X151486D01*
X105954Y71515D02*
X136999D01*
X84953Y71516D02*
X84954Y71515D01*
X136999D02*
X137000Y71514D01*
X0Y9000D02*
X62Y8055D01*
X247Y7125D01*
X551Y6228D01*
X970Y5379D01*
X1497Y4591D01*
X2121Y3879D01*
X3000Y3000D02*
X3745Y2325D01*
X4552Y1726D01*
X5414Y1209D01*
X6323Y780D01*
X7269Y441D01*
X8244Y197D01*
X9239Y49D01*
X10243Y0D01*
X264757D02*
X265761Y49D01*
X266756Y197D01*
X267731Y441D01*
X268677Y780D01*
X269586Y1209D01*
X270448Y1726D01*
X271255Y2325D01*
X272000Y3000D01*
X272675Y3745D01*
X273274Y4552D01*
X273791Y5414D01*
X274220Y6323D01*
X274559Y7269D01*
X274803Y8244D01*
X274951Y9239D01*
X275000Y10243D01*
X270768Y247232D02*
X270048Y247847D01*
X269240Y248342D01*
X268365Y248705D01*
X267444Y248926D01*
X266500Y249000D01*
X275000Y240172D02*
X274916Y241240D01*
X274666Y242282D01*
X274256Y243272D01*
X273696Y244185D01*
X273000Y245000D01*
X11000Y249000D02*
X9948Y248954D01*
X8904Y248817D01*
X7876Y248589D01*
X6871Y248272D01*
X5899Y247869D01*
X4964Y247383D01*
X4076Y246817D01*
X3241Y246176D01*
X2465Y245464D01*
X2121Y245121D02*
X1497Y244409D01*
X970Y243621D01*
X551Y242772D01*
X247Y241875D01*
X62Y240945D01*
X0Y240000D01*
X2121Y3879D02*
X3000Y3000D01*
X10243Y0D02*
X264757D01*
X275000Y10243D02*
Y237500D01*
X262000Y249000D02*
X266500D01*
X270768Y247232D02*
X273000Y245000D01*
X275000Y237500D02*
Y240172D01*
X11000Y249000D02*
X262000D01*
X2121Y245121D02*
X2465Y245464D01*
X0Y9000D02*
Y240000D01*
X279500Y241997D02*
X281499D01*
X280500D01*
Y235999D01*
X279500D01*
X281499D01*
X286498Y234000D02*
X287497D01*
X288497Y235000D01*
Y239998D01*
X285498D01*
X284498Y238998D01*
Y236999D01*
X285498Y235999D01*
X288497D01*
X290496D02*
Y239998D01*
X293495D01*
X294495Y238998D01*
Y235999D01*
X297494D02*
X299494D01*
X300493Y236999D01*
Y238998D01*
X299494Y239998D01*
X297494D01*
X296495Y238998D01*
Y236999D01*
X297494Y235999D01*
X302493Y239998D02*
Y235999D01*
Y237999D01*
X303492Y238998D01*
X304492Y239998D01*
X305492D01*
X311490Y235999D02*
X309490D01*
X308491Y236999D01*
Y238998D01*
X309490Y239998D01*
X311490D01*
X312489Y238998D01*
Y237999D01*
X308491D01*
X320487Y235999D02*
Y241997D01*
X323486D01*
X324485Y240998D01*
Y238998D01*
X323486Y237999D01*
X320487D01*
X322486D02*
X324485Y235999D01*
X326485Y239998D02*
Y236999D01*
X327484Y235999D01*
X330484D01*
Y239998D01*
X332483Y235999D02*
X334482D01*
X333483D01*
Y241997D01*
X332483D01*
X340480Y235999D02*
X338481D01*
X337481Y236999D01*
Y238998D01*
X338481Y239998D01*
X340480D01*
X341480Y238998D01*
Y237999D01*
X337481D01*
X353476Y241997D02*
X349477D01*
Y235999D01*
X353476D01*
X349477Y238998D02*
X351477D01*
X355475Y239998D02*
Y235999D01*
Y237999D01*
X356475Y238998D01*
X357475Y239998D01*
X358474D01*
X361473D02*
Y235999D01*
Y237999D01*
X362473Y238998D01*
X363473Y239998D01*
X364473D01*
X368471Y235999D02*
X370471D01*
X371470Y236999D01*
Y238998D01*
X370471Y239998D01*
X368471D01*
X367472Y238998D01*
Y236999D01*
X368471Y235999D01*
X373470Y239998D02*
Y235999D01*
Y237999D01*
X374469Y238998D01*
X375469Y239998D01*
X376469D01*
X386465Y235999D02*
X388465D01*
X389464Y236999D01*
Y238998D01*
X388465Y239998D01*
X386465D01*
X385466Y238998D01*
Y236999D01*
X386465Y235999D01*
X391464D02*
Y239998D01*
X394463D01*
X395462Y238998D01*
Y235999D01*
X407459Y241997D02*
X405459D01*
X406459D01*
Y236999D01*
X405459Y235999D01*
X404460D01*
X403460Y236999D01*
X409458Y235999D02*
X411457D01*
X410458D01*
Y241997D01*
X409458Y240998D01*
X421454Y239998D02*
X423453D01*
X424453Y238998D01*
Y235999D01*
X421454D01*
X420454Y236999D01*
X421454Y237999D01*
X424453D01*
X426452Y235999D02*
Y239998D01*
X429452D01*
X430451Y238998D01*
Y235999D01*
X436449Y241997D02*
Y235999D01*
X433450D01*
X432450Y236999D01*
Y238998D01*
X433450Y239998D01*
X436449D01*
X448445Y241997D02*
X446446D01*
X447446D01*
Y236999D01*
X446446Y235999D01*
X445446D01*
X444447Y236999D01*
X454443Y235999D02*
X450445D01*
X454443Y239998D01*
Y240998D01*
X453444Y241997D01*
X451444D01*
X450445Y240998D01*
D30*
X211457Y211772D02*
D03*
X208898D02*
D03*
X206339D02*
D03*
X203780D02*
D03*
X201220D02*
D03*
X198661D02*
D03*
X196102D02*
D03*
X193543D02*
D03*
X211457Y183228D02*
D03*
X208898D02*
D03*
X206339D02*
D03*
X203780D02*
D03*
X201220D02*
D03*
X198661D02*
D03*
X196102D02*
D03*
X193543D02*
D03*
Y68228D02*
D03*
X196102D02*
D03*
X198661D02*
D03*
X201220D02*
D03*
X203780D02*
D03*
X206339D02*
D03*
X208898D02*
D03*
X211457D02*
D03*
X193543Y96772D02*
D03*
X196102D02*
D03*
X198661D02*
D03*
X201220D02*
D03*
X203780D02*
D03*
X206339D02*
D03*
X208898D02*
D03*
X211457D02*
D03*
D31*
X64000Y118850D02*
D03*
Y125150D02*
D03*
X124000Y16299D02*
D03*
Y10000D02*
D03*
X220500Y189650D02*
D03*
Y183350D02*
D03*
Y203650D02*
D03*
Y197350D02*
D03*
X30000Y138350D02*
D03*
Y144650D02*
D03*
D32*
X240850Y97500D02*
D03*
X247150D02*
D03*
X58650Y103500D02*
D03*
X52350D02*
D03*
X227000Y68000D02*
D03*
X220701D02*
D03*
D33*
X30000Y170445D02*
D03*
Y163555D02*
D03*
D34*
Y178500D02*
D03*
Y186768D02*
D03*
D35*
X84953Y67579D02*
D03*
Y77421D02*
D03*
Y69547D02*
D03*
Y75453D02*
D03*
Y73484D02*
D03*
Y71516D02*
D03*
X79047Y67579D02*
D03*
Y71516D02*
D03*
Y73484D02*
D03*
Y75453D02*
D03*
Y69547D02*
D03*
Y77421D02*
D03*
X84453Y186921D02*
D03*
Y179047D02*
D03*
Y184953D02*
D03*
Y182984D02*
D03*
Y181016D02*
D03*
Y177079D02*
D03*
X78547D02*
D03*
Y181016D02*
D03*
Y182984D02*
D03*
Y184953D02*
D03*
Y179047D02*
D03*
Y186921D02*
D03*
D36*
X137350Y42728D02*
D03*
X136850Y163272D02*
D03*
X143150D02*
D03*
Y159728D02*
D03*
X136850D02*
D03*
X136500Y188500D02*
D03*
X142799D02*
D03*
Y184957D02*
D03*
X136500D02*
D03*
X137000Y103914D02*
D03*
X143299D02*
D03*
Y100371D02*
D03*
X137000D02*
D03*
Y89486D02*
D03*
X143299D02*
D03*
Y85943D02*
D03*
X137000D02*
D03*
X137350Y46272D02*
D03*
X143650D02*
D03*
Y42728D02*
D03*
X137000Y75057D02*
D03*
X143299D02*
D03*
Y71514D02*
D03*
X137000D02*
D03*
Y118343D02*
D03*
X143299D02*
D03*
Y114800D02*
D03*
X137000D02*
D03*
X136500Y176043D02*
D03*
X142799D02*
D03*
Y172500D02*
D03*
X136500D02*
D03*
X137500Y60500D02*
D03*
X143799D02*
D03*
Y56957D02*
D03*
X137500D02*
D03*
X137000Y132772D02*
D03*
X143299D02*
D03*
Y129228D02*
D03*
X137000D02*
D03*
X136350Y215772D02*
D03*
X142650D02*
D03*
Y212228D02*
D03*
X136350D02*
D03*
X137000Y31772D02*
D03*
X143299D02*
D03*
Y28228D02*
D03*
X137000D02*
D03*
X136350Y201772D02*
D03*
X142650D02*
D03*
Y198228D02*
D03*
X136350D02*
D03*
D37*
X127272Y148650D02*
D03*
Y142350D02*
D03*
X123728D02*
D03*
Y148650D02*
D03*
X156272D02*
D03*
Y142350D02*
D03*
X152728D02*
D03*
Y148650D02*
D03*
X141772D02*
D03*
Y142350D02*
D03*
X138228D02*
D03*
Y148650D02*
D03*
D38*
X84953Y79734D02*
D03*
Y65266D02*
D03*
X79047D02*
D03*
Y79734D02*
D03*
X84453Y189234D02*
D03*
Y174766D02*
D03*
X78547D02*
D03*
Y189234D02*
D03*
D39*
X220500Y183000D02*
X220642D01*
X220701Y182941D01*
Y68000D02*
Y182941D01*
X213071Y183291D02*
X220441D01*
X220500Y183350D01*
X213000Y68000D02*
X220701D01*
X210000Y10000D02*
X220701Y20701D01*
Y68000D01*
X124000Y10000D02*
X210000D01*
X30021Y54000D02*
X30571Y54549D01*
X30000Y54000D02*
X30021D01*
X42467Y54549D02*
X42500Y54583D01*
X30571Y54549D02*
X42467D01*
X30000Y157512D02*
Y163555D01*
Y157512D02*
X32929Y154583D01*
X42500D01*
X29500Y10000D02*
X124000D01*
X20000Y19500D02*
Y44000D01*
Y19500D02*
X29500Y10000D01*
X10500Y53500D02*
X20000Y44000D01*
X10500Y53500D02*
Y138000D01*
X17150Y144650D02*
X30000D01*
X10500Y138000D02*
X17150Y144650D01*
X30000D02*
X30197D01*
X30264Y144583D02*
X42500D01*
X30197Y144650D02*
X30264Y144583D01*
D40*
X30000Y54000D02*
D03*
X20000Y64000D02*
D03*
Y44000D02*
D03*
D41*
X42500Y94583D02*
D03*
Y34583D02*
D03*
Y54583D02*
D03*
Y64583D02*
D03*
Y84583D02*
D03*
Y74583D02*
D03*
Y44583D02*
D03*
Y24583D02*
D03*
X52500Y124583D02*
D03*
Y144583D02*
D03*
Y154583D02*
D03*
Y184583D02*
D03*
Y174583D02*
D03*
Y164583D02*
D03*
Y134583D02*
D03*
Y114583D02*
D03*
X42500Y124583D02*
D03*
Y144583D02*
D03*
Y154583D02*
D03*
Y184583D02*
D03*
Y174583D02*
D03*
Y164583D02*
D03*
Y134583D02*
D03*
Y114583D02*
D03*
X232500Y210583D02*
D03*
Y190583D02*
D03*
Y180583D02*
D03*
Y150583D02*
D03*
Y160583D02*
D03*
Y170583D02*
D03*
Y200583D02*
D03*
Y220583D02*
D03*
D42*
X266500Y228500D02*
D03*
X259000Y213500D02*
D03*
X266500Y198500D02*
D03*
X259000Y183500D02*
D03*
X266500Y168500D02*
D03*
X259000Y153500D02*
D03*
X266500Y138500D02*
D03*
X259000Y123500D02*
D03*
X266500Y108500D02*
D03*
X259000Y93500D02*
D03*
X266500Y78500D02*
D03*
X259000Y63500D02*
D03*
X266500Y48500D02*
D03*
X259000Y33500D02*
D03*
X266500Y18500D02*
D03*
X259000Y3500D02*
D03*
X251500Y228500D02*
D03*
Y198500D02*
D03*
X244000Y183500D02*
D03*
X251500Y168500D02*
D03*
X244000Y153500D02*
D03*
X251500Y138500D02*
D03*
X244000Y123500D02*
D03*
X251500Y108500D02*
D03*
Y78500D02*
D03*
X244000Y63500D02*
D03*
X251500Y48500D02*
D03*
X244000Y33500D02*
D03*
X251500Y18500D02*
D03*
X244000Y3500D02*
D03*
X236500Y138500D02*
D03*
X229000Y123500D02*
D03*
X236500Y108500D02*
D03*
X229000Y93500D02*
D03*
X236500Y78500D02*
D03*
Y48500D02*
D03*
X229000Y33500D02*
D03*
X236500Y18500D02*
D03*
X229000Y3500D02*
D03*
X221500Y228500D02*
D03*
X214000Y63500D02*
D03*
Y33500D02*
D03*
Y3500D02*
D03*
X206500Y228500D02*
D03*
Y198500D02*
D03*
X199000Y153500D02*
D03*
X206500Y138500D02*
D03*
Y78500D02*
D03*
X199000Y33500D02*
D03*
X206500Y18500D02*
D03*
X199000Y3500D02*
D03*
X184000Y213500D02*
D03*
X191500Y198500D02*
D03*
Y138500D02*
D03*
X184000Y63500D02*
D03*
Y33500D02*
D03*
X191500Y18500D02*
D03*
X184000Y3500D02*
D03*
X169000Y213500D02*
D03*
Y183500D02*
D03*
X176500Y168500D02*
D03*
Y138500D02*
D03*
X169000Y123500D02*
D03*
Y93500D02*
D03*
X176500Y78500D02*
D03*
X169000Y63500D02*
D03*
X176500Y18500D02*
D03*
X169000Y3500D02*
D03*
X161500Y228500D02*
D03*
Y198500D02*
D03*
X154000Y183500D02*
D03*
X161500Y168500D02*
D03*
Y138500D02*
D03*
X154000Y123500D02*
D03*
X161500Y78500D02*
D03*
X154000Y63500D02*
D03*
Y33500D02*
D03*
X161500Y18500D02*
D03*
X154000Y3500D02*
D03*
X146500Y228500D02*
D03*
Y198500D02*
D03*
Y168500D02*
D03*
X139000Y123500D02*
D03*
X146500Y108500D02*
D03*
X139000Y93500D02*
D03*
X146500Y78500D02*
D03*
X139000Y63500D02*
D03*
X146500Y18500D02*
D03*
X139000Y3500D02*
D03*
X131500Y228500D02*
D03*
Y168500D02*
D03*
X124000Y153500D02*
D03*
Y123500D02*
D03*
X131500Y108500D02*
D03*
Y78500D02*
D03*
X124000Y63500D02*
D03*
X131500Y48500D02*
D03*
X124000Y33500D02*
D03*
X131500Y18500D02*
D03*
X124000Y3500D02*
D03*
X116500Y228500D02*
D03*
Y168500D02*
D03*
X109000Y153500D02*
D03*
Y123500D02*
D03*
X116500Y108500D02*
D03*
Y78500D02*
D03*
X109000Y63500D02*
D03*
X116500Y48500D02*
D03*
X109000Y33500D02*
D03*
X116500Y18500D02*
D03*
X109000Y3500D02*
D03*
X101500Y228500D02*
D03*
X94000Y213500D02*
D03*
Y153500D02*
D03*
X101500Y108500D02*
D03*
Y18500D02*
D03*
X94000Y3500D02*
D03*
X86500Y228500D02*
D03*
X79000Y153500D02*
D03*
X86500Y138500D02*
D03*
X79000Y123500D02*
D03*
Y93500D02*
D03*
Y33500D02*
D03*
X86500Y18500D02*
D03*
X79000Y3500D02*
D03*
X71500Y228500D02*
D03*
X64000Y213500D02*
D03*
X71500Y198500D02*
D03*
Y168500D02*
D03*
Y138500D02*
D03*
Y108500D02*
D03*
X64000Y93500D02*
D03*
X71500Y78500D02*
D03*
X64000Y63500D02*
D03*
X71500Y48500D02*
D03*
Y18500D02*
D03*
X64000Y3500D02*
D03*
X56500Y228500D02*
D03*
X49000Y213500D02*
D03*
X56500Y198500D02*
D03*
Y78500D02*
D03*
Y48500D02*
D03*
Y18500D02*
D03*
X49000Y3500D02*
D03*
X41500Y228500D02*
D03*
X34000Y213500D02*
D03*
X41500Y198500D02*
D03*
X34000Y123500D02*
D03*
X41500Y108500D02*
D03*
X34000Y93500D02*
D03*
Y63500D02*
D03*
Y33500D02*
D03*
X41500Y18500D02*
D03*
X34000Y3500D02*
D03*
X26500Y228500D02*
D03*
X19000Y213500D02*
D03*
X26500Y198500D02*
D03*
X19000Y183500D02*
D03*
Y153500D02*
D03*
Y123500D02*
D03*
X26500Y108500D02*
D03*
X19000Y93500D02*
D03*
X26500Y78500D02*
D03*
Y48500D02*
D03*
X19000Y3500D02*
D03*
X11500Y228500D02*
D03*
X4000Y213500D02*
D03*
X11500Y198500D02*
D03*
X4000Y183500D02*
D03*
X11500Y168500D02*
D03*
X4000Y153500D02*
D03*
Y123500D02*
D03*
Y93500D02*
D03*
Y63500D02*
D03*
Y33500D02*
D03*
X11500Y18500D02*
D03*
X124600Y93500D02*
D03*
X90850Y116000D02*
D03*
Y26000D02*
D03*
D43*
X247000Y88000D02*
D03*
X209000Y87500D02*
D03*
X182500Y79000D02*
D03*
Y183500D02*
D03*
D44*
X172500Y34583D02*
D03*
X42500Y239583D02*
D03*
X232500Y234583D02*
D03*
M02*
