M48
;Layer_Color=9474304
;FILE_FORMAT=2:4
INCH,TZ
;TYPE=PLATED
T1F00S00C0.0272
T2F00S00C0.0280
T3F00S00C0.0374
T4F00S00C0.1000
%
T01
X2000Y4400
X3000Y5400
X2000Y6400
T02
X19900Y350
X21400
X22900
X24400
X25900
X26650Y1850
X25150
X23650
X24400Y3350
X25900
X26650Y4850
X25150
X23650
X24400Y6350
X25900
X26650Y7850
X25150
X24700Y8800
X25900Y9350
X26650Y10850
X25150
X23650
X24400Y12350
X25900
X22900
Y9350
X23650Y7850
X20650
X20900Y8750
X21400Y6350
Y3350
X22900
X19900
X20650Y1850
X19150
X17650
X16150
X14650
X13150
X11650
X10150
X8650
X9085Y2600
X7900Y3350
X7150Y4850
X5650
X6400Y6350
X7150Y7850
X5650
X6400Y9350
X7900
X7150Y10850
X7900Y12350
X9085Y11600
X10150Y10850
X11650
X13150
X14650
X15400Y12350
X16900
Y9350
X17650Y7850
X18250Y7900
X18400Y6350
X16900
X15400
X13900
X12400
X10900
X11650Y7850
X13150
X14650
X16150
X13900Y9350
X12460
X12400Y12350
X13900
X10900
X3400
X4150Y10850
X3400Y9350
Y6350
Y3350
X4150Y1850
X5650
X7150
X7900Y350
X9400
X10900
X12400
X13900
X15400
X16900
X18400
Y3350
X15400
X12400
X10900
X11650Y4850
X13150
X6400Y350
X4900
X3400
X1900
X1150Y1850
X400Y3350
Y6350
Y9350
X1900
X2650Y10850
X1900Y12350
X400
X2650Y7850
Y4850
X1900Y15350
X400
X1150Y16850
X1900Y18350
X400
X1150Y19850
X2650
X1900Y21350
X400
X1150Y22850
X2650
X4150
X5650
X7150
X8650
X10150
X11650
X13150
X14650
X16150
X16900Y21350
X18400
X18250Y18350
X16900
X15400
X16150Y19850
X14650
Y16850
X16150
X17650
Y13850
X16150
X12400Y15350
X10900
X9400
X7900
X8650Y13850
X7150
Y16850
Y19850
X5650
X4150
X4900Y21350
X6400
X9400
X3400
X11650Y16850
X13150
X19900Y15350
X20650Y13850
X19150
X23650
X25150
X26650
X25900Y15350
X24400
X25150Y16850
X26650
X25900Y18350
X24400
X25150Y19850
X26650
X25900Y21350
X26650Y22850
X25150
X22150
X20650
Y19850
X19150
T03
X4250Y2458
Y3458
Y4458
Y5458
Y6458
Y7458
Y8458
Y9458
Y11458
X5250
Y12458
Y13458
X4250
Y12458
Y14458
X5250
Y15458
Y16458
Y17458
Y18458
X4250
Y17458
Y16458
Y15458
X23250Y15058
Y16058
Y17058
Y18058
Y19058
Y20058
Y21058
Y22058
T04
X17250Y3458
X4250Y23958
X23250Y23458
M30
