G04*
G04 #@! TF.GenerationSoftware,Altium Limited,Altium Designer,22.10.1 (41)*
G04*
G04 Layer_Color=16711935*
%FSLAX25Y25*%
%MOIN*%
G70*
G04*
G04 #@! TF.SameCoordinates,DCEE1EC3-E607-4C09-92B5-72201EF966A2*
G04*
G04*
G04 #@! TF.FilePolarity,Negative*
G04*
G01*
G75*
%ADD13C,0.00591*%
%ADD15C,0.01000*%
%ADD25C,0.05879*%
%ADD26O,0.09658X0.07099*%
%ADD27C,0.03600*%
%ADD28C,0.05800*%
%ADD29C,0.13300*%
D13*
X204936Y204500D02*
X201656D01*
X201000Y203844D01*
Y202532D01*
X201656Y201876D01*
X204936D01*
X201000Y197940D02*
Y200564D01*
X203624Y197940D01*
X204280D01*
X204936Y198596D01*
Y199908D01*
X204280Y200564D01*
X204936Y89500D02*
X201656D01*
X201000Y88844D01*
Y87532D01*
X201656Y86876D01*
X204936D01*
X201000Y85564D02*
Y84252D01*
Y84908D01*
X204936D01*
X204280Y85564D01*
D15*
X0Y9000D02*
X62Y8055D01*
X247Y7125D01*
X551Y6228D01*
X970Y5379D01*
X1497Y4591D01*
X2121Y3879D01*
X3000Y3000D02*
X3745Y2325D01*
X4552Y1726D01*
X5414Y1209D01*
X6323Y780D01*
X7269Y441D01*
X8244Y197D01*
X9239Y49D01*
X10243Y0D01*
X264757D02*
X265761Y49D01*
X266756Y197D01*
X267731Y441D01*
X268677Y780D01*
X269586Y1209D01*
X270448Y1726D01*
X271255Y2325D01*
X272000Y3000D01*
X272675Y3745D01*
X273274Y4552D01*
X273791Y5414D01*
X274220Y6323D01*
X274559Y7269D01*
X274803Y8244D01*
X274951Y9239D01*
X275000Y10243D01*
X270768Y247232D02*
X270048Y247847D01*
X269240Y248342D01*
X268365Y248705D01*
X267444Y248926D01*
X266500Y249000D01*
X275000Y240172D02*
X274916Y241240D01*
X274666Y242282D01*
X274256Y243272D01*
X273696Y244185D01*
X273000Y245000D01*
X11000Y249000D02*
X9948Y248954D01*
X8904Y248817D01*
X7876Y248589D01*
X6871Y248272D01*
X5899Y247869D01*
X4964Y247383D01*
X4076Y246817D01*
X3241Y246176D01*
X2465Y245464D01*
X2121Y245121D02*
X1497Y244409D01*
X970Y243621D01*
X551Y242772D01*
X247Y241875D01*
X62Y240945D01*
X0Y240000D01*
X2121Y3879D02*
X3000Y3000D01*
X10243Y0D02*
X264757D01*
X275000Y10243D02*
Y237500D01*
X262000Y249000D02*
X266500D01*
X270768Y247232D02*
X273000Y245000D01*
X275000Y237500D02*
Y240172D01*
X11000Y249000D02*
X262000D01*
X2121Y245121D02*
X2465Y245464D01*
X0Y9000D02*
Y240000D01*
X279500Y241997D02*
X281499D01*
X280500D01*
Y235999D01*
X279500D01*
X281499D01*
X286498Y234000D02*
X287497D01*
X288497Y235000D01*
Y239998D01*
X285498D01*
X284498Y238998D01*
Y236999D01*
X285498Y235999D01*
X288497D01*
X290496D02*
Y239998D01*
X293495D01*
X294495Y238998D01*
Y235999D01*
X297494D02*
X299494D01*
X300493Y236999D01*
Y238998D01*
X299494Y239998D01*
X297494D01*
X296495Y238998D01*
Y236999D01*
X297494Y235999D01*
X302493Y239998D02*
Y235999D01*
Y237999D01*
X303492Y238998D01*
X304492Y239998D01*
X305492D01*
X311490Y235999D02*
X309490D01*
X308491Y236999D01*
Y238998D01*
X309490Y239998D01*
X311490D01*
X312489Y238998D01*
Y237999D01*
X308491D01*
X320487Y235999D02*
Y241997D01*
X323486D01*
X324485Y240998D01*
Y238998D01*
X323486Y237999D01*
X320487D01*
X322486D02*
X324485Y235999D01*
X326485Y239998D02*
Y236999D01*
X327484Y235999D01*
X330484D01*
Y239998D01*
X332483Y235999D02*
X334482D01*
X333483D01*
Y241997D01*
X332483D01*
X340480Y235999D02*
X338481D01*
X337481Y236999D01*
Y238998D01*
X338481Y239998D01*
X340480D01*
X341480Y238998D01*
Y237999D01*
X337481D01*
X353476Y241997D02*
X349477D01*
Y235999D01*
X353476D01*
X349477Y238998D02*
X351477D01*
X355475Y239998D02*
Y235999D01*
Y237999D01*
X356475Y238998D01*
X357475Y239998D01*
X358474D01*
X361473D02*
Y235999D01*
Y237999D01*
X362473Y238998D01*
X363473Y239998D01*
X364473D01*
X368471Y235999D02*
X370471D01*
X371470Y236999D01*
Y238998D01*
X370471Y239998D01*
X368471D01*
X367472Y238998D01*
Y236999D01*
X368471Y235999D01*
X373470Y239998D02*
Y235999D01*
Y237999D01*
X374469Y238998D01*
X375469Y239998D01*
X376469D01*
X386465Y235999D02*
X388465D01*
X389464Y236999D01*
Y238998D01*
X388465Y239998D01*
X386465D01*
X385466Y238998D01*
Y236999D01*
X386465Y235999D01*
X391464D02*
Y239998D01*
X394463D01*
X395462Y238998D01*
Y235999D01*
X407459Y241997D02*
X405459D01*
X406459D01*
Y236999D01*
X405459Y235999D01*
X404460D01*
X403460Y236999D01*
X409458Y235999D02*
X411457D01*
X410458D01*
Y241997D01*
X409458Y240998D01*
X421454Y239998D02*
X423453D01*
X424453Y238998D01*
Y235999D01*
X421454D01*
X420454Y236999D01*
X421454Y237999D01*
X424453D01*
X426452Y235999D02*
Y239998D01*
X429452D01*
X430451Y238998D01*
Y235999D01*
X436449Y241997D02*
Y235999D01*
X433450D01*
X432450Y236999D01*
Y238998D01*
X433450Y239998D01*
X436449D01*
X448445Y241997D02*
X446446D01*
X447446D01*
Y236999D01*
X446446Y235999D01*
X445446D01*
X444447Y236999D01*
X454443Y235999D02*
X450445D01*
X454443Y239998D01*
Y240998D01*
X453444Y241997D01*
X451444D01*
X450445Y240998D01*
D25*
X30000Y54000D02*
D03*
X20000Y64000D02*
D03*
Y44000D02*
D03*
D26*
X42500Y94583D02*
D03*
Y34583D02*
D03*
Y54583D02*
D03*
Y64583D02*
D03*
Y84583D02*
D03*
Y74583D02*
D03*
Y44583D02*
D03*
Y24583D02*
D03*
X52500Y124583D02*
D03*
Y144583D02*
D03*
Y154583D02*
D03*
Y184583D02*
D03*
Y174583D02*
D03*
Y164583D02*
D03*
Y134583D02*
D03*
Y114583D02*
D03*
X42500Y124583D02*
D03*
Y144583D02*
D03*
Y154583D02*
D03*
Y184583D02*
D03*
Y174583D02*
D03*
Y164583D02*
D03*
Y134583D02*
D03*
Y114583D02*
D03*
X232500Y210583D02*
D03*
Y190583D02*
D03*
Y180583D02*
D03*
Y150583D02*
D03*
Y160583D02*
D03*
Y170583D02*
D03*
Y200583D02*
D03*
Y220583D02*
D03*
D27*
X266500Y228500D02*
D03*
X259000Y213500D02*
D03*
X266500Y198500D02*
D03*
X259000Y183500D02*
D03*
X266500Y168500D02*
D03*
X259000Y153500D02*
D03*
X266500Y138500D02*
D03*
X259000Y123500D02*
D03*
X266500Y108500D02*
D03*
X259000Y93500D02*
D03*
X266500Y78500D02*
D03*
X259000Y63500D02*
D03*
X266500Y48500D02*
D03*
X259000Y33500D02*
D03*
X266500Y18500D02*
D03*
X259000Y3500D02*
D03*
X251500Y228500D02*
D03*
Y198500D02*
D03*
X244000Y183500D02*
D03*
X251500Y168500D02*
D03*
X244000Y153500D02*
D03*
X251500Y138500D02*
D03*
X244000Y123500D02*
D03*
X251500Y108500D02*
D03*
Y78500D02*
D03*
X244000Y63500D02*
D03*
X251500Y48500D02*
D03*
X244000Y33500D02*
D03*
X251500Y18500D02*
D03*
X244000Y3500D02*
D03*
X236500Y138500D02*
D03*
X229000Y123500D02*
D03*
X236500Y108500D02*
D03*
X229000Y93500D02*
D03*
X236500Y78500D02*
D03*
Y48500D02*
D03*
X229000Y33500D02*
D03*
X236500Y18500D02*
D03*
X229000Y3500D02*
D03*
X221500Y228500D02*
D03*
X214000Y63500D02*
D03*
Y33500D02*
D03*
Y3500D02*
D03*
X206500Y228500D02*
D03*
Y198500D02*
D03*
X199000Y153500D02*
D03*
X206500Y138500D02*
D03*
Y78500D02*
D03*
X199000Y33500D02*
D03*
X206500Y18500D02*
D03*
X199000Y3500D02*
D03*
X184000Y213500D02*
D03*
X191500Y198500D02*
D03*
Y138500D02*
D03*
X184000Y63500D02*
D03*
Y33500D02*
D03*
X191500Y18500D02*
D03*
X184000Y3500D02*
D03*
X169000Y213500D02*
D03*
Y183500D02*
D03*
X176500Y168500D02*
D03*
Y138500D02*
D03*
X169000Y123500D02*
D03*
Y93500D02*
D03*
X176500Y78500D02*
D03*
X169000Y63500D02*
D03*
X176500Y18500D02*
D03*
X169000Y3500D02*
D03*
X161500Y228500D02*
D03*
Y198500D02*
D03*
X154000Y183500D02*
D03*
X161500Y168500D02*
D03*
Y138500D02*
D03*
X154000Y123500D02*
D03*
X161500Y78500D02*
D03*
X154000Y63500D02*
D03*
Y33500D02*
D03*
X161500Y18500D02*
D03*
X154000Y3500D02*
D03*
X146500Y228500D02*
D03*
Y198500D02*
D03*
Y168500D02*
D03*
X139000Y123500D02*
D03*
X146500Y108500D02*
D03*
X139000Y93500D02*
D03*
X146500Y78500D02*
D03*
X139000Y63500D02*
D03*
X146500Y18500D02*
D03*
X139000Y3500D02*
D03*
X131500Y228500D02*
D03*
Y168500D02*
D03*
X124000Y153500D02*
D03*
Y123500D02*
D03*
X131500Y108500D02*
D03*
Y78500D02*
D03*
X124000Y63500D02*
D03*
X131500Y48500D02*
D03*
X124000Y33500D02*
D03*
X131500Y18500D02*
D03*
X124000Y3500D02*
D03*
X116500Y228500D02*
D03*
Y168500D02*
D03*
X109000Y153500D02*
D03*
Y123500D02*
D03*
X116500Y108500D02*
D03*
Y78500D02*
D03*
X109000Y63500D02*
D03*
X116500Y48500D02*
D03*
X109000Y33500D02*
D03*
X116500Y18500D02*
D03*
X109000Y3500D02*
D03*
X101500Y228500D02*
D03*
X94000Y213500D02*
D03*
Y153500D02*
D03*
X101500Y108500D02*
D03*
Y18500D02*
D03*
X94000Y3500D02*
D03*
X86500Y228500D02*
D03*
X79000Y153500D02*
D03*
X86500Y138500D02*
D03*
X79000Y123500D02*
D03*
Y93500D02*
D03*
Y33500D02*
D03*
X86500Y18500D02*
D03*
X79000Y3500D02*
D03*
X71500Y228500D02*
D03*
X64000Y213500D02*
D03*
X71500Y198500D02*
D03*
Y168500D02*
D03*
Y138500D02*
D03*
Y108500D02*
D03*
X64000Y93500D02*
D03*
X71500Y78500D02*
D03*
X64000Y63500D02*
D03*
X71500Y48500D02*
D03*
Y18500D02*
D03*
X64000Y3500D02*
D03*
X56500Y228500D02*
D03*
X49000Y213500D02*
D03*
X56500Y198500D02*
D03*
Y78500D02*
D03*
Y48500D02*
D03*
Y18500D02*
D03*
X49000Y3500D02*
D03*
X41500Y228500D02*
D03*
X34000Y213500D02*
D03*
X41500Y198500D02*
D03*
X34000Y123500D02*
D03*
X41500Y108500D02*
D03*
X34000Y93500D02*
D03*
Y63500D02*
D03*
Y33500D02*
D03*
X41500Y18500D02*
D03*
X34000Y3500D02*
D03*
X26500Y228500D02*
D03*
X19000Y213500D02*
D03*
X26500Y198500D02*
D03*
X19000Y183500D02*
D03*
Y153500D02*
D03*
Y123500D02*
D03*
X26500Y108500D02*
D03*
X19000Y93500D02*
D03*
X26500Y78500D02*
D03*
Y48500D02*
D03*
X19000Y3500D02*
D03*
X11500Y228500D02*
D03*
X4000Y213500D02*
D03*
X11500Y198500D02*
D03*
X4000Y183500D02*
D03*
X11500Y168500D02*
D03*
X4000Y153500D02*
D03*
Y123500D02*
D03*
Y93500D02*
D03*
Y63500D02*
D03*
Y33500D02*
D03*
X11500Y18500D02*
D03*
X124600Y93500D02*
D03*
X90850Y116000D02*
D03*
Y26000D02*
D03*
D28*
X247000Y88000D02*
D03*
X209000Y87500D02*
D03*
X182500Y79000D02*
D03*
Y183500D02*
D03*
D29*
X172500Y34583D02*
D03*
X42500Y239583D02*
D03*
X232500Y234583D02*
D03*
M02*
