G04*
G04 #@! TF.GenerationSoftware,Altium Limited,Altium Designer,22.10.1 (41)*
G04*
G04 Layer_Physical_Order=2*
G04 Layer_Color=16711680*
%FSLAX25Y25*%
%MOIN*%
G70*
G04*
G04 #@! TF.SameCoordinates,DCEE1EC3-E607-4C09-92B5-72201EF966A2*
G04*
G04*
G04 #@! TF.FilePolarity,Positive*
G04*
G01*
G75*
%ADD13C,0.00591*%
%ADD15C,0.01000*%
%ADD40C,0.05079*%
%ADD41O,0.08858X0.06299*%
%ADD42C,0.02800*%
%ADD43C,0.05000*%
%ADD44C,0.12500*%
G36*
X268271Y248635D02*
X270000Y247919D01*
X271556Y246879D01*
X272879Y245556D01*
X273919Y244000D01*
X274635Y242271D01*
X275000Y240436D01*
Y239500D01*
Y10000D01*
Y9015D01*
X274616Y7083D01*
X273862Y5263D01*
X272767Y3625D01*
X271375Y2232D01*
X269737Y1138D01*
X267917Y384D01*
X265985Y0D01*
X9015D01*
X7083Y384D01*
X5263Y1138D01*
X3625Y2232D01*
X2232Y3625D01*
X1138Y5263D01*
X384Y7083D01*
X0Y9015D01*
Y10000D01*
Y239000D01*
Y239985D01*
X384Y241917D01*
X1138Y243737D01*
X2232Y245375D01*
X3625Y246767D01*
X5263Y247862D01*
X7083Y248616D01*
X9015Y249000D01*
X266436D01*
X268271Y248635D01*
D02*
G37*
%LPC*%
G36*
X43000Y246818D02*
Y240083D01*
X49736D01*
X49645Y241004D01*
X49231Y242371D01*
X48557Y243630D01*
X47651Y244734D01*
X46547Y245640D01*
X45288Y246313D01*
X43921Y246728D01*
X43000Y246818D01*
D02*
G37*
G36*
X42000D02*
X41079Y246728D01*
X39712Y246313D01*
X38453Y245640D01*
X37349Y244734D01*
X36443Y243630D01*
X35770Y242371D01*
X35355Y241004D01*
X35264Y240083D01*
X42000D01*
Y246818D01*
D02*
G37*
G36*
X233000Y241818D02*
Y235083D01*
X239736D01*
X239645Y236004D01*
X239230Y237371D01*
X238557Y238630D01*
X237651Y239734D01*
X236547Y240640D01*
X235288Y241313D01*
X233921Y241728D01*
X233000Y241818D01*
D02*
G37*
G36*
X232000D02*
X231079Y241728D01*
X229712Y241313D01*
X228453Y240640D01*
X227349Y239734D01*
X226443Y238630D01*
X225769Y237371D01*
X225355Y236004D01*
X225264Y235083D01*
X232000D01*
Y241818D01*
D02*
G37*
G36*
X49736Y239083D02*
X43000D01*
Y232347D01*
X43921Y232438D01*
X45288Y232852D01*
X46547Y233525D01*
X47651Y234431D01*
X48557Y235535D01*
X49231Y236795D01*
X49645Y238161D01*
X49736Y239083D01*
D02*
G37*
G36*
X42000D02*
X35264D01*
X35355Y238161D01*
X35770Y236795D01*
X36443Y235535D01*
X37349Y234431D01*
X38453Y233525D01*
X39712Y232852D01*
X41079Y232438D01*
X42000Y232347D01*
Y239083D01*
D02*
G37*
G36*
X267000Y230848D02*
Y229000D01*
X268848D01*
X268761Y229436D01*
X268230Y230230D01*
X267436Y230761D01*
X267000Y230848D01*
D02*
G37*
G36*
X266000D02*
X265564Y230761D01*
X264770Y230230D01*
X264239Y229436D01*
X264152Y229000D01*
X266000D01*
Y230848D01*
D02*
G37*
G36*
X252000D02*
Y229000D01*
X253848D01*
X253761Y229436D01*
X253230Y230230D01*
X252436Y230761D01*
X252000Y230848D01*
D02*
G37*
G36*
X251000D02*
X250564Y230761D01*
X249770Y230230D01*
X249239Y229436D01*
X249152Y229000D01*
X251000D01*
Y230848D01*
D02*
G37*
G36*
X222000D02*
Y229000D01*
X223848D01*
X223761Y229436D01*
X223230Y230230D01*
X222436Y230761D01*
X222000Y230848D01*
D02*
G37*
G36*
X221000D02*
X220564Y230761D01*
X219770Y230230D01*
X219239Y229436D01*
X219152Y229000D01*
X221000D01*
Y230848D01*
D02*
G37*
G36*
X207000D02*
Y229000D01*
X208848D01*
X208761Y229436D01*
X208230Y230230D01*
X207436Y230761D01*
X207000Y230848D01*
D02*
G37*
G36*
X206000D02*
X205564Y230761D01*
X204770Y230230D01*
X204239Y229436D01*
X204152Y229000D01*
X206000D01*
Y230848D01*
D02*
G37*
G36*
X162000D02*
Y229000D01*
X163848D01*
X163761Y229436D01*
X163230Y230230D01*
X162436Y230761D01*
X162000Y230848D01*
D02*
G37*
G36*
X161000D02*
X160564Y230761D01*
X159770Y230230D01*
X159239Y229436D01*
X159152Y229000D01*
X161000D01*
Y230848D01*
D02*
G37*
G36*
X147000D02*
Y229000D01*
X148848D01*
X148761Y229436D01*
X148230Y230230D01*
X147436Y230761D01*
X147000Y230848D01*
D02*
G37*
G36*
X146000D02*
X145564Y230761D01*
X144770Y230230D01*
X144239Y229436D01*
X144152Y229000D01*
X146000D01*
Y230848D01*
D02*
G37*
G36*
X132000D02*
Y229000D01*
X133848D01*
X133761Y229436D01*
X133230Y230230D01*
X132436Y230761D01*
X132000Y230848D01*
D02*
G37*
G36*
X131000D02*
X130564Y230761D01*
X129770Y230230D01*
X129239Y229436D01*
X129152Y229000D01*
X131000D01*
Y230848D01*
D02*
G37*
G36*
X117000D02*
Y229000D01*
X118848D01*
X118761Y229436D01*
X118230Y230230D01*
X117436Y230761D01*
X117000Y230848D01*
D02*
G37*
G36*
X116000D02*
X115564Y230761D01*
X114770Y230230D01*
X114239Y229436D01*
X114152Y229000D01*
X116000D01*
Y230848D01*
D02*
G37*
G36*
X102000D02*
Y229000D01*
X103848D01*
X103761Y229436D01*
X103230Y230230D01*
X102436Y230761D01*
X102000Y230848D01*
D02*
G37*
G36*
X101000D02*
X100564Y230761D01*
X99770Y230230D01*
X99239Y229436D01*
X99152Y229000D01*
X101000D01*
Y230848D01*
D02*
G37*
G36*
X87000D02*
Y229000D01*
X88848D01*
X88761Y229436D01*
X88230Y230230D01*
X87436Y230761D01*
X87000Y230848D01*
D02*
G37*
G36*
X86000D02*
X85564Y230761D01*
X84770Y230230D01*
X84239Y229436D01*
X84152Y229000D01*
X86000D01*
Y230848D01*
D02*
G37*
G36*
X72000D02*
Y229000D01*
X73848D01*
X73761Y229436D01*
X73230Y230230D01*
X72436Y230761D01*
X72000Y230848D01*
D02*
G37*
G36*
X71000D02*
X70564Y230761D01*
X69770Y230230D01*
X69239Y229436D01*
X69152Y229000D01*
X71000D01*
Y230848D01*
D02*
G37*
G36*
X57000D02*
Y229000D01*
X58848D01*
X58761Y229436D01*
X58230Y230230D01*
X57436Y230761D01*
X57000Y230848D01*
D02*
G37*
G36*
X56000D02*
X55564Y230761D01*
X54770Y230230D01*
X54239Y229436D01*
X54152Y229000D01*
X56000D01*
Y230848D01*
D02*
G37*
G36*
X42000D02*
Y229000D01*
X43848D01*
X43761Y229436D01*
X43230Y230230D01*
X42436Y230761D01*
X42000Y230848D01*
D02*
G37*
G36*
X41000D02*
X40564Y230761D01*
X39770Y230230D01*
X39239Y229436D01*
X39152Y229000D01*
X41000D01*
Y230848D01*
D02*
G37*
G36*
X27000D02*
Y229000D01*
X28848D01*
X28761Y229436D01*
X28230Y230230D01*
X27436Y230761D01*
X27000Y230848D01*
D02*
G37*
G36*
X26000D02*
X25564Y230761D01*
X24770Y230230D01*
X24239Y229436D01*
X24152Y229000D01*
X26000D01*
Y230848D01*
D02*
G37*
G36*
X12000D02*
Y229000D01*
X13848D01*
X13761Y229436D01*
X13230Y230230D01*
X12436Y230761D01*
X12000Y230848D01*
D02*
G37*
G36*
X11000D02*
X10564Y230761D01*
X9770Y230230D01*
X9239Y229436D01*
X9152Y229000D01*
X11000D01*
Y230848D01*
D02*
G37*
G36*
X239736Y234083D02*
X233000D01*
Y227347D01*
X233921Y227438D01*
X235288Y227852D01*
X236547Y228525D01*
X237651Y229431D01*
X238557Y230535D01*
X239230Y231795D01*
X239645Y233161D01*
X239736Y234083D01*
D02*
G37*
G36*
X232000D02*
X225264D01*
X225355Y233161D01*
X225769Y231795D01*
X226443Y230535D01*
X227349Y229431D01*
X228453Y228525D01*
X229712Y227852D01*
X231079Y227438D01*
X232000Y227347D01*
Y234083D01*
D02*
G37*
G36*
X268848Y228000D02*
X267000D01*
Y226152D01*
X267436Y226239D01*
X268230Y226770D01*
X268761Y227564D01*
X268848Y228000D01*
D02*
G37*
G36*
X266000D02*
X264152D01*
X264239Y227564D01*
X264770Y226770D01*
X265564Y226239D01*
X266000Y226152D01*
Y228000D01*
D02*
G37*
G36*
X253848D02*
X252000D01*
Y226152D01*
X252436Y226239D01*
X253230Y226770D01*
X253761Y227564D01*
X253848Y228000D01*
D02*
G37*
G36*
X251000D02*
X249152D01*
X249239Y227564D01*
X249770Y226770D01*
X250564Y226239D01*
X251000Y226152D01*
Y228000D01*
D02*
G37*
G36*
X223848D02*
X222000D01*
Y226152D01*
X222436Y226239D01*
X223230Y226770D01*
X223761Y227564D01*
X223848Y228000D01*
D02*
G37*
G36*
X221000D02*
X219152D01*
X219239Y227564D01*
X219770Y226770D01*
X220564Y226239D01*
X221000Y226152D01*
Y228000D01*
D02*
G37*
G36*
X208848D02*
X207000D01*
Y226152D01*
X207436Y226239D01*
X208230Y226770D01*
X208761Y227564D01*
X208848Y228000D01*
D02*
G37*
G36*
X206000D02*
X204152D01*
X204239Y227564D01*
X204770Y226770D01*
X205564Y226239D01*
X206000Y226152D01*
Y228000D01*
D02*
G37*
G36*
X163848D02*
X162000D01*
Y226152D01*
X162436Y226239D01*
X163230Y226770D01*
X163761Y227564D01*
X163848Y228000D01*
D02*
G37*
G36*
X161000D02*
X159152D01*
X159239Y227564D01*
X159770Y226770D01*
X160564Y226239D01*
X161000Y226152D01*
Y228000D01*
D02*
G37*
G36*
X148848D02*
X147000D01*
Y226152D01*
X147436Y226239D01*
X148230Y226770D01*
X148761Y227564D01*
X148848Y228000D01*
D02*
G37*
G36*
X146000D02*
X144152D01*
X144239Y227564D01*
X144770Y226770D01*
X145564Y226239D01*
X146000Y226152D01*
Y228000D01*
D02*
G37*
G36*
X133848D02*
X132000D01*
Y226152D01*
X132436Y226239D01*
X133230Y226770D01*
X133761Y227564D01*
X133848Y228000D01*
D02*
G37*
G36*
X131000D02*
X129152D01*
X129239Y227564D01*
X129770Y226770D01*
X130564Y226239D01*
X131000Y226152D01*
Y228000D01*
D02*
G37*
G36*
X118848D02*
X117000D01*
Y226152D01*
X117436Y226239D01*
X118230Y226770D01*
X118761Y227564D01*
X118848Y228000D01*
D02*
G37*
G36*
X116000D02*
X114152D01*
X114239Y227564D01*
X114770Y226770D01*
X115564Y226239D01*
X116000Y226152D01*
Y228000D01*
D02*
G37*
G36*
X103848D02*
X102000D01*
Y226152D01*
X102436Y226239D01*
X103230Y226770D01*
X103761Y227564D01*
X103848Y228000D01*
D02*
G37*
G36*
X101000D02*
X99152D01*
X99239Y227564D01*
X99770Y226770D01*
X100564Y226239D01*
X101000Y226152D01*
Y228000D01*
D02*
G37*
G36*
X88848D02*
X87000D01*
Y226152D01*
X87436Y226239D01*
X88230Y226770D01*
X88761Y227564D01*
X88848Y228000D01*
D02*
G37*
G36*
X86000D02*
X84152D01*
X84239Y227564D01*
X84770Y226770D01*
X85564Y226239D01*
X86000Y226152D01*
Y228000D01*
D02*
G37*
G36*
X73848D02*
X72000D01*
Y226152D01*
X72436Y226239D01*
X73230Y226770D01*
X73761Y227564D01*
X73848Y228000D01*
D02*
G37*
G36*
X71000D02*
X69152D01*
X69239Y227564D01*
X69770Y226770D01*
X70564Y226239D01*
X71000Y226152D01*
Y228000D01*
D02*
G37*
G36*
X58848D02*
X57000D01*
Y226152D01*
X57436Y226239D01*
X58230Y226770D01*
X58761Y227564D01*
X58848Y228000D01*
D02*
G37*
G36*
X56000D02*
X54152D01*
X54239Y227564D01*
X54770Y226770D01*
X55564Y226239D01*
X56000Y226152D01*
Y228000D01*
D02*
G37*
G36*
X43848D02*
X42000D01*
Y226152D01*
X42436Y226239D01*
X43230Y226770D01*
X43761Y227564D01*
X43848Y228000D01*
D02*
G37*
G36*
X41000D02*
X39152D01*
X39239Y227564D01*
X39770Y226770D01*
X40564Y226239D01*
X41000Y226152D01*
Y228000D01*
D02*
G37*
G36*
X28848D02*
X27000D01*
Y226152D01*
X27436Y226239D01*
X28230Y226770D01*
X28761Y227564D01*
X28848Y228000D01*
D02*
G37*
G36*
X26000D02*
X24152D01*
X24239Y227564D01*
X24770Y226770D01*
X25564Y226239D01*
X26000Y226152D01*
Y228000D01*
D02*
G37*
G36*
X13848D02*
X12000D01*
Y226152D01*
X12436Y226239D01*
X13230Y226770D01*
X13761Y227564D01*
X13848Y228000D01*
D02*
G37*
G36*
X11000D02*
X9152D01*
X9239Y227564D01*
X9770Y226770D01*
X10564Y226239D01*
X11000Y226152D01*
Y228000D01*
D02*
G37*
G36*
X233780Y224264D02*
X231221D01*
X230268Y224138D01*
X229380Y223771D01*
X228618Y223186D01*
X228032Y222423D01*
X227665Y221535D01*
X227539Y220583D01*
X227665Y219630D01*
X228032Y218742D01*
X228618Y217980D01*
X229380Y217395D01*
X230268Y217027D01*
X231221Y216902D01*
X233780D01*
X234732Y217027D01*
X235620Y217395D01*
X236383Y217980D01*
X236967Y218742D01*
X237335Y219630D01*
X237461Y220583D01*
X237335Y221535D01*
X236967Y222423D01*
X236383Y223186D01*
X235620Y223771D01*
X234732Y224138D01*
X233780Y224264D01*
D02*
G37*
G36*
X259500Y215848D02*
Y214000D01*
X261348D01*
X261261Y214436D01*
X260730Y215230D01*
X259936Y215761D01*
X259500Y215848D01*
D02*
G37*
G36*
X258500D02*
X258064Y215761D01*
X257270Y215230D01*
X256739Y214436D01*
X256652Y214000D01*
X258500D01*
Y215848D01*
D02*
G37*
G36*
X184500D02*
Y214000D01*
X186348D01*
X186261Y214436D01*
X185730Y215230D01*
X184936Y215761D01*
X184500Y215848D01*
D02*
G37*
G36*
X183500D02*
X183064Y215761D01*
X182270Y215230D01*
X181739Y214436D01*
X181652Y214000D01*
X183500D01*
Y215848D01*
D02*
G37*
G36*
X169500D02*
Y214000D01*
X171348D01*
X171261Y214436D01*
X170730Y215230D01*
X169936Y215761D01*
X169500Y215848D01*
D02*
G37*
G36*
X168500D02*
X168064Y215761D01*
X167270Y215230D01*
X166739Y214436D01*
X166652Y214000D01*
X168500D01*
Y215848D01*
D02*
G37*
G36*
X94500D02*
Y214000D01*
X96348D01*
X96261Y214436D01*
X95730Y215230D01*
X94936Y215761D01*
X94500Y215848D01*
D02*
G37*
G36*
X93500D02*
X93064Y215761D01*
X92270Y215230D01*
X91739Y214436D01*
X91652Y214000D01*
X93500D01*
Y215848D01*
D02*
G37*
G36*
X64500D02*
Y214000D01*
X66348D01*
X66261Y214436D01*
X65730Y215230D01*
X64936Y215761D01*
X64500Y215848D01*
D02*
G37*
G36*
X63500D02*
X63064Y215761D01*
X62270Y215230D01*
X61739Y214436D01*
X61652Y214000D01*
X63500D01*
Y215848D01*
D02*
G37*
G36*
X49500D02*
Y214000D01*
X51348D01*
X51261Y214436D01*
X50730Y215230D01*
X49936Y215761D01*
X49500Y215848D01*
D02*
G37*
G36*
X48500D02*
X48064Y215761D01*
X47270Y215230D01*
X46739Y214436D01*
X46652Y214000D01*
X48500D01*
Y215848D01*
D02*
G37*
G36*
X34500D02*
Y214000D01*
X36348D01*
X36261Y214436D01*
X35730Y215230D01*
X34936Y215761D01*
X34500Y215848D01*
D02*
G37*
G36*
X33500D02*
X33064Y215761D01*
X32270Y215230D01*
X31739Y214436D01*
X31652Y214000D01*
X33500D01*
Y215848D01*
D02*
G37*
G36*
X19500D02*
Y214000D01*
X21348D01*
X21261Y214436D01*
X20730Y215230D01*
X19936Y215761D01*
X19500Y215848D01*
D02*
G37*
G36*
X18500D02*
X18064Y215761D01*
X17270Y215230D01*
X16739Y214436D01*
X16652Y214000D01*
X18500D01*
Y215848D01*
D02*
G37*
G36*
X4500D02*
Y214000D01*
X6348D01*
X6261Y214436D01*
X5730Y215230D01*
X4936Y215761D01*
X4500Y215848D01*
D02*
G37*
G36*
X3500D02*
X3064Y215761D01*
X2270Y215230D01*
X1739Y214436D01*
X1652Y214000D01*
X3500D01*
Y215848D01*
D02*
G37*
G36*
X261348Y213000D02*
X259500D01*
Y211152D01*
X259936Y211239D01*
X260730Y211770D01*
X261261Y212564D01*
X261348Y213000D01*
D02*
G37*
G36*
X258500D02*
X256652D01*
X256739Y212564D01*
X257270Y211770D01*
X258064Y211239D01*
X258500Y211152D01*
Y213000D01*
D02*
G37*
G36*
X186348D02*
X184500D01*
Y211152D01*
X184936Y211239D01*
X185730Y211770D01*
X186261Y212564D01*
X186348Y213000D01*
D02*
G37*
G36*
X183500D02*
X181652D01*
X181739Y212564D01*
X182270Y211770D01*
X183064Y211239D01*
X183500Y211152D01*
Y213000D01*
D02*
G37*
G36*
X171348D02*
X169500D01*
Y211152D01*
X169936Y211239D01*
X170730Y211770D01*
X171261Y212564D01*
X171348Y213000D01*
D02*
G37*
G36*
X168500D02*
X166652D01*
X166739Y212564D01*
X167270Y211770D01*
X168064Y211239D01*
X168500Y211152D01*
Y213000D01*
D02*
G37*
G36*
X96348D02*
X94500D01*
Y211152D01*
X94936Y211239D01*
X95730Y211770D01*
X96261Y212564D01*
X96348Y213000D01*
D02*
G37*
G36*
X93500D02*
X91652D01*
X91739Y212564D01*
X92270Y211770D01*
X93064Y211239D01*
X93500Y211152D01*
Y213000D01*
D02*
G37*
G36*
X66348D02*
X64500D01*
Y211152D01*
X64936Y211239D01*
X65730Y211770D01*
X66261Y212564D01*
X66348Y213000D01*
D02*
G37*
G36*
X63500D02*
X61652D01*
X61739Y212564D01*
X62270Y211770D01*
X63064Y211239D01*
X63500Y211152D01*
Y213000D01*
D02*
G37*
G36*
X51348D02*
X49500D01*
Y211152D01*
X49936Y211239D01*
X50730Y211770D01*
X51261Y212564D01*
X51348Y213000D01*
D02*
G37*
G36*
X48500D02*
X46652D01*
X46739Y212564D01*
X47270Y211770D01*
X48064Y211239D01*
X48500Y211152D01*
Y213000D01*
D02*
G37*
G36*
X36348D02*
X34500D01*
Y211152D01*
X34936Y211239D01*
X35730Y211770D01*
X36261Y212564D01*
X36348Y213000D01*
D02*
G37*
G36*
X33500D02*
X31652D01*
X31739Y212564D01*
X32270Y211770D01*
X33064Y211239D01*
X33500Y211152D01*
Y213000D01*
D02*
G37*
G36*
X21348D02*
X19500D01*
Y211152D01*
X19936Y211239D01*
X20730Y211770D01*
X21261Y212564D01*
X21348Y213000D01*
D02*
G37*
G36*
X18500D02*
X16652D01*
X16739Y212564D01*
X17270Y211770D01*
X18064Y211239D01*
X18500Y211152D01*
Y213000D01*
D02*
G37*
G36*
X6348D02*
X4500D01*
Y211152D01*
X4936Y211239D01*
X5730Y211770D01*
X6261Y212564D01*
X6348Y213000D01*
D02*
G37*
G36*
X3500D02*
X1652D01*
X1739Y212564D01*
X2270Y211770D01*
X3064Y211239D01*
X3500Y211152D01*
Y213000D01*
D02*
G37*
G36*
X233780Y214264D02*
X231221D01*
X230268Y214138D01*
X229380Y213771D01*
X228618Y213186D01*
X228032Y212423D01*
X227665Y211535D01*
X227539Y210583D01*
X227665Y209630D01*
X228032Y208742D01*
X228618Y207980D01*
X229380Y207395D01*
X230268Y207027D01*
X231221Y206902D01*
X233780D01*
X234732Y207027D01*
X235620Y207395D01*
X236383Y207980D01*
X236967Y208742D01*
X237335Y209630D01*
X237461Y210583D01*
X237335Y211535D01*
X236967Y212423D01*
X236383Y213186D01*
X235620Y213771D01*
X234732Y214138D01*
X233780Y214264D01*
D02*
G37*
G36*
Y204768D02*
X233000D01*
Y201083D01*
X237899D01*
X237822Y201666D01*
X237404Y202675D01*
X236739Y203542D01*
X235872Y204207D01*
X234863Y204626D01*
X233780Y204768D01*
D02*
G37*
G36*
X232000D02*
X231221D01*
X230137Y204626D01*
X229128Y204207D01*
X228261Y203542D01*
X227596Y202675D01*
X227178Y201666D01*
X227101Y201083D01*
X232000D01*
Y204768D01*
D02*
G37*
G36*
X267000Y200848D02*
Y199000D01*
X268848D01*
X268761Y199436D01*
X268230Y200230D01*
X267436Y200761D01*
X267000Y200848D01*
D02*
G37*
G36*
X266000D02*
X265564Y200761D01*
X264770Y200230D01*
X264239Y199436D01*
X264152Y199000D01*
X266000D01*
Y200848D01*
D02*
G37*
G36*
X252000D02*
Y199000D01*
X253848D01*
X253761Y199436D01*
X253230Y200230D01*
X252436Y200761D01*
X252000Y200848D01*
D02*
G37*
G36*
X251000D02*
X250564Y200761D01*
X249770Y200230D01*
X249239Y199436D01*
X249152Y199000D01*
X251000D01*
Y200848D01*
D02*
G37*
G36*
X207000D02*
Y199000D01*
X208848D01*
X208761Y199436D01*
X208230Y200230D01*
X207436Y200761D01*
X207000Y200848D01*
D02*
G37*
G36*
X206000D02*
X205564Y200761D01*
X204770Y200230D01*
X204239Y199436D01*
X204152Y199000D01*
X206000D01*
Y200848D01*
D02*
G37*
G36*
X192000D02*
Y199000D01*
X193848D01*
X193761Y199436D01*
X193230Y200230D01*
X192436Y200761D01*
X192000Y200848D01*
D02*
G37*
G36*
X191000D02*
X190564Y200761D01*
X189770Y200230D01*
X189239Y199436D01*
X189152Y199000D01*
X191000D01*
Y200848D01*
D02*
G37*
G36*
X162000D02*
Y199000D01*
X163848D01*
X163761Y199436D01*
X163230Y200230D01*
X162436Y200761D01*
X162000Y200848D01*
D02*
G37*
G36*
X161000D02*
X160564Y200761D01*
X159770Y200230D01*
X159239Y199436D01*
X159152Y199000D01*
X161000D01*
Y200848D01*
D02*
G37*
G36*
X147000D02*
Y199000D01*
X148848D01*
X148761Y199436D01*
X148230Y200230D01*
X147436Y200761D01*
X147000Y200848D01*
D02*
G37*
G36*
X146000D02*
X145564Y200761D01*
X144770Y200230D01*
X144239Y199436D01*
X144152Y199000D01*
X146000D01*
Y200848D01*
D02*
G37*
G36*
X72000D02*
Y199000D01*
X73848D01*
X73761Y199436D01*
X73230Y200230D01*
X72436Y200761D01*
X72000Y200848D01*
D02*
G37*
G36*
X71000D02*
X70564Y200761D01*
X69770Y200230D01*
X69239Y199436D01*
X69152Y199000D01*
X71000D01*
Y200848D01*
D02*
G37*
G36*
X57000D02*
Y199000D01*
X58848D01*
X58761Y199436D01*
X58230Y200230D01*
X57436Y200761D01*
X57000Y200848D01*
D02*
G37*
G36*
X56000D02*
X55564Y200761D01*
X54770Y200230D01*
X54239Y199436D01*
X54152Y199000D01*
X56000D01*
Y200848D01*
D02*
G37*
G36*
X42000D02*
Y199000D01*
X43848D01*
X43761Y199436D01*
X43230Y200230D01*
X42436Y200761D01*
X42000Y200848D01*
D02*
G37*
G36*
X41000D02*
X40564Y200761D01*
X39770Y200230D01*
X39239Y199436D01*
X39152Y199000D01*
X41000D01*
Y200848D01*
D02*
G37*
G36*
X27000D02*
Y199000D01*
X28848D01*
X28761Y199436D01*
X28230Y200230D01*
X27436Y200761D01*
X27000Y200848D01*
D02*
G37*
G36*
X26000D02*
X25564Y200761D01*
X24770Y200230D01*
X24239Y199436D01*
X24152Y199000D01*
X26000D01*
Y200848D01*
D02*
G37*
G36*
X12000D02*
Y199000D01*
X13848D01*
X13761Y199436D01*
X13230Y200230D01*
X12436Y200761D01*
X12000Y200848D01*
D02*
G37*
G36*
X11000D02*
X10564Y200761D01*
X9770Y200230D01*
X9239Y199436D01*
X9152Y199000D01*
X11000D01*
Y200848D01*
D02*
G37*
G36*
X237899Y200083D02*
X233000D01*
Y196397D01*
X233780D01*
X234863Y196540D01*
X235872Y196958D01*
X236739Y197623D01*
X237404Y198490D01*
X237822Y199499D01*
X237899Y200083D01*
D02*
G37*
G36*
X232000D02*
X227101D01*
X227178Y199499D01*
X227596Y198490D01*
X228261Y197623D01*
X229128Y196958D01*
X230137Y196540D01*
X231221Y196397D01*
X232000D01*
Y200083D01*
D02*
G37*
G36*
X268848Y198000D02*
X267000D01*
Y196152D01*
X267436Y196239D01*
X268230Y196770D01*
X268761Y197564D01*
X268848Y198000D01*
D02*
G37*
G36*
X266000D02*
X264152D01*
X264239Y197564D01*
X264770Y196770D01*
X265564Y196239D01*
X266000Y196152D01*
Y198000D01*
D02*
G37*
G36*
X253848D02*
X252000D01*
Y196152D01*
X252436Y196239D01*
X253230Y196770D01*
X253761Y197564D01*
X253848Y198000D01*
D02*
G37*
G36*
X251000D02*
X249152D01*
X249239Y197564D01*
X249770Y196770D01*
X250564Y196239D01*
X251000Y196152D01*
Y198000D01*
D02*
G37*
G36*
X208848D02*
X207000D01*
Y196152D01*
X207436Y196239D01*
X208230Y196770D01*
X208761Y197564D01*
X208848Y198000D01*
D02*
G37*
G36*
X206000D02*
X204152D01*
X204239Y197564D01*
X204770Y196770D01*
X205564Y196239D01*
X206000Y196152D01*
Y198000D01*
D02*
G37*
G36*
X193848D02*
X192000D01*
Y196152D01*
X192436Y196239D01*
X193230Y196770D01*
X193761Y197564D01*
X193848Y198000D01*
D02*
G37*
G36*
X191000D02*
X189152D01*
X189239Y197564D01*
X189770Y196770D01*
X190564Y196239D01*
X191000Y196152D01*
Y198000D01*
D02*
G37*
G36*
X163848D02*
X162000D01*
Y196152D01*
X162436Y196239D01*
X163230Y196770D01*
X163761Y197564D01*
X163848Y198000D01*
D02*
G37*
G36*
X161000D02*
X159152D01*
X159239Y197564D01*
X159770Y196770D01*
X160564Y196239D01*
X161000Y196152D01*
Y198000D01*
D02*
G37*
G36*
X148848D02*
X147000D01*
Y196152D01*
X147436Y196239D01*
X148230Y196770D01*
X148761Y197564D01*
X148848Y198000D01*
D02*
G37*
G36*
X146000D02*
X144152D01*
X144239Y197564D01*
X144770Y196770D01*
X145564Y196239D01*
X146000Y196152D01*
Y198000D01*
D02*
G37*
G36*
X73848D02*
X72000D01*
Y196152D01*
X72436Y196239D01*
X73230Y196770D01*
X73761Y197564D01*
X73848Y198000D01*
D02*
G37*
G36*
X71000D02*
X69152D01*
X69239Y197564D01*
X69770Y196770D01*
X70564Y196239D01*
X71000Y196152D01*
Y198000D01*
D02*
G37*
G36*
X58848D02*
X57000D01*
Y196152D01*
X57436Y196239D01*
X58230Y196770D01*
X58761Y197564D01*
X58848Y198000D01*
D02*
G37*
G36*
X56000D02*
X54152D01*
X54239Y197564D01*
X54770Y196770D01*
X55564Y196239D01*
X56000Y196152D01*
Y198000D01*
D02*
G37*
G36*
X43848D02*
X42000D01*
Y196152D01*
X42436Y196239D01*
X43230Y196770D01*
X43761Y197564D01*
X43848Y198000D01*
D02*
G37*
G36*
X41000D02*
X39152D01*
X39239Y197564D01*
X39770Y196770D01*
X40564Y196239D01*
X41000Y196152D01*
Y198000D01*
D02*
G37*
G36*
X28848D02*
X27000D01*
Y196152D01*
X27436Y196239D01*
X28230Y196770D01*
X28761Y197564D01*
X28848Y198000D01*
D02*
G37*
G36*
X26000D02*
X24152D01*
X24239Y197564D01*
X24770Y196770D01*
X25564Y196239D01*
X26000Y196152D01*
Y198000D01*
D02*
G37*
G36*
X13848D02*
X12000D01*
Y196152D01*
X12436Y196239D01*
X13230Y196770D01*
X13761Y197564D01*
X13848Y198000D01*
D02*
G37*
G36*
X11000D02*
X9152D01*
X9239Y197564D01*
X9770Y196770D01*
X10564Y196239D01*
X11000Y196152D01*
Y198000D01*
D02*
G37*
G36*
X233780Y194768D02*
X233000D01*
Y191083D01*
X237899D01*
X237822Y191666D01*
X237404Y192675D01*
X236739Y193542D01*
X235872Y194207D01*
X234863Y194625D01*
X233780Y194768D01*
D02*
G37*
G36*
X232000D02*
X231221D01*
X230137Y194625D01*
X229128Y194207D01*
X228261Y193542D01*
X227596Y192675D01*
X227178Y191666D01*
X227101Y191083D01*
X232000D01*
Y194768D01*
D02*
G37*
G36*
X237899Y190083D02*
X233000D01*
Y186397D01*
X233780D01*
X234863Y186540D01*
X235872Y186958D01*
X236739Y187623D01*
X237404Y188490D01*
X237822Y189499D01*
X237899Y190083D01*
D02*
G37*
G36*
X232000D02*
X227101D01*
X227178Y189499D01*
X227596Y188490D01*
X228261Y187623D01*
X229128Y186958D01*
X230137Y186540D01*
X231221Y186397D01*
X232000D01*
Y190083D01*
D02*
G37*
G36*
X52000Y188768D02*
X51221D01*
X50137Y188626D01*
X49128Y188207D01*
X48261Y187542D01*
X47596Y186675D01*
X47479Y186394D01*
X46979D01*
X46968Y186423D01*
X46382Y187186D01*
X45620Y187771D01*
X44732Y188138D01*
X43780Y188264D01*
X41221D01*
X40268Y188138D01*
X39380Y187771D01*
X38618Y187186D01*
X38032Y186423D01*
X37665Y185535D01*
X37539Y184583D01*
X37665Y183630D01*
X38032Y182742D01*
X38618Y181980D01*
X39380Y181395D01*
X40268Y181027D01*
X41221Y180902D01*
X43780D01*
X44732Y181027D01*
X45620Y181395D01*
X46382Y181980D01*
X46968Y182742D01*
X46979Y182771D01*
X47479D01*
X47596Y182490D01*
X48261Y181623D01*
X49128Y180958D01*
X50137Y180540D01*
X51221Y180397D01*
X52000D01*
Y184583D01*
Y188768D01*
D02*
G37*
G36*
X53780D02*
X53000D01*
Y185083D01*
X57899D01*
X57822Y185666D01*
X57404Y186675D01*
X56739Y187542D01*
X55872Y188207D01*
X54863Y188626D01*
X53780Y188768D01*
D02*
G37*
G36*
X259500Y185848D02*
Y184000D01*
X261348D01*
X261261Y184436D01*
X260730Y185230D01*
X259936Y185761D01*
X259500Y185848D01*
D02*
G37*
G36*
X258500D02*
X258064Y185761D01*
X257270Y185230D01*
X256739Y184436D01*
X256652Y184000D01*
X258500D01*
Y185848D01*
D02*
G37*
G36*
X244500D02*
Y184000D01*
X246348D01*
X246261Y184436D01*
X245730Y185230D01*
X244936Y185761D01*
X244500Y185848D01*
D02*
G37*
G36*
X243500D02*
X243064Y185761D01*
X242270Y185230D01*
X241739Y184436D01*
X241652Y184000D01*
X243500D01*
Y185848D01*
D02*
G37*
G36*
X169500D02*
Y184000D01*
X171348D01*
X171261Y184436D01*
X170730Y185230D01*
X169936Y185761D01*
X169500Y185848D01*
D02*
G37*
G36*
X168500D02*
X168064Y185761D01*
X167270Y185230D01*
X166739Y184436D01*
X166652Y184000D01*
X168500D01*
Y185848D01*
D02*
G37*
G36*
X154500D02*
Y184000D01*
X156348D01*
X156261Y184436D01*
X155730Y185230D01*
X154936Y185761D01*
X154500Y185848D01*
D02*
G37*
G36*
X153500D02*
X153064Y185761D01*
X152270Y185230D01*
X151739Y184436D01*
X151652Y184000D01*
X153500D01*
Y185848D01*
D02*
G37*
G36*
X19500D02*
Y184000D01*
X21348D01*
X21261Y184436D01*
X20730Y185230D01*
X19936Y185761D01*
X19500Y185848D01*
D02*
G37*
G36*
X18500D02*
X18064Y185761D01*
X17270Y185230D01*
X16739Y184436D01*
X16652Y184000D01*
X18500D01*
Y185848D01*
D02*
G37*
G36*
X4500D02*
Y184000D01*
X6348D01*
X6261Y184436D01*
X5730Y185230D01*
X4936Y185761D01*
X4500Y185848D01*
D02*
G37*
G36*
X3500D02*
X3064Y185761D01*
X2270Y185230D01*
X1739Y184436D01*
X1652Y184000D01*
X3500D01*
Y185848D01*
D02*
G37*
G36*
X21348Y183000D02*
X19500D01*
Y181152D01*
X19936Y181239D01*
X20730Y181770D01*
X21261Y182564D01*
X21348Y183000D01*
D02*
G37*
G36*
X18500D02*
X16652D01*
X16739Y182564D01*
X17270Y181770D01*
X18064Y181239D01*
X18500Y181152D01*
Y183000D01*
D02*
G37*
G36*
X6348D02*
X4500D01*
Y181152D01*
X4936Y181239D01*
X5730Y181770D01*
X6261Y182564D01*
X6348Y183000D01*
D02*
G37*
G36*
X3500D02*
X1652D01*
X1739Y182564D01*
X2270Y181770D01*
X3064Y181239D01*
X3500Y181152D01*
Y183000D01*
D02*
G37*
G36*
X261348D02*
X259500D01*
Y181152D01*
X259936Y181239D01*
X260730Y181770D01*
X261261Y182564D01*
X261348Y183000D01*
D02*
G37*
G36*
X258500D02*
X256652D01*
X256739Y182564D01*
X257270Y181770D01*
X258064Y181239D01*
X258500Y181152D01*
Y183000D01*
D02*
G37*
G36*
X246348D02*
X244500D01*
Y181152D01*
X244936Y181239D01*
X245730Y181770D01*
X246261Y182564D01*
X246348Y183000D01*
D02*
G37*
G36*
X243500D02*
X241652D01*
X241739Y182564D01*
X242270Y181770D01*
X243064Y181239D01*
X243500Y181152D01*
Y183000D01*
D02*
G37*
G36*
X171348D02*
X169500D01*
Y181152D01*
X169936Y181239D01*
X170730Y181770D01*
X171261Y182564D01*
X171348Y183000D01*
D02*
G37*
G36*
X168500D02*
X166652D01*
X166739Y182564D01*
X167270Y181770D01*
X168064Y181239D01*
X168500Y181152D01*
Y183000D01*
D02*
G37*
G36*
X156348D02*
X154500D01*
Y181152D01*
X154936Y181239D01*
X155730Y181770D01*
X156261Y182564D01*
X156348Y183000D01*
D02*
G37*
G36*
X153500D02*
X151652D01*
X151739Y182564D01*
X152270Y181770D01*
X153064Y181239D01*
X153500Y181152D01*
Y183000D01*
D02*
G37*
G36*
X233780Y184768D02*
X233000D01*
Y181083D01*
X237899D01*
X237822Y181666D01*
X237404Y182675D01*
X236739Y183542D01*
X235872Y184207D01*
X234863Y184625D01*
X233780Y184768D01*
D02*
G37*
G36*
X232000D02*
X231221D01*
X230137Y184625D01*
X229128Y184207D01*
X228261Y183542D01*
X227596Y182675D01*
X227178Y181666D01*
X227101Y181083D01*
X232000D01*
Y184768D01*
D02*
G37*
G36*
X57899Y184083D02*
X53000D01*
Y180397D01*
X53780D01*
X54863Y180540D01*
X55872Y180958D01*
X56739Y181623D01*
X57404Y182490D01*
X57822Y183499D01*
X57899Y184083D01*
D02*
G37*
G36*
X237899Y180083D02*
X233000D01*
Y176397D01*
X233780D01*
X234863Y176540D01*
X235872Y176958D01*
X236739Y177623D01*
X237404Y178490D01*
X237822Y179499D01*
X237899Y180083D01*
D02*
G37*
G36*
X232000D02*
X227101D01*
X227178Y179499D01*
X227596Y178490D01*
X228261Y177623D01*
X229128Y176958D01*
X230137Y176540D01*
X231221Y176397D01*
X232000D01*
Y180083D01*
D02*
G37*
G36*
X52000Y178768D02*
X51221D01*
X50137Y178626D01*
X49128Y178207D01*
X48261Y177542D01*
X47596Y176675D01*
X47479Y176394D01*
X46979D01*
X46968Y176423D01*
X46382Y177186D01*
X45620Y177771D01*
X44732Y178138D01*
X43780Y178264D01*
X41221D01*
X40268Y178138D01*
X39380Y177771D01*
X38618Y177186D01*
X38032Y176423D01*
X37665Y175535D01*
X37539Y174583D01*
X37665Y173630D01*
X38032Y172742D01*
X38618Y171980D01*
X39380Y171395D01*
X40268Y171027D01*
X41221Y170902D01*
X43780D01*
X44732Y171027D01*
X45620Y171395D01*
X46382Y171980D01*
X46968Y172742D01*
X46979Y172771D01*
X47479D01*
X47596Y172490D01*
X48261Y171623D01*
X49128Y170958D01*
X50137Y170540D01*
X51221Y170397D01*
X52000D01*
Y174583D01*
Y178768D01*
D02*
G37*
G36*
X53780D02*
X53000D01*
Y175083D01*
X57899D01*
X57822Y175666D01*
X57404Y176675D01*
X56739Y177542D01*
X55872Y178207D01*
X54863Y178626D01*
X53780Y178768D01*
D02*
G37*
G36*
X233780Y174768D02*
X233000D01*
Y171083D01*
X237899D01*
X237822Y171666D01*
X237404Y172675D01*
X236739Y173542D01*
X235872Y174207D01*
X234863Y174626D01*
X233780Y174768D01*
D02*
G37*
G36*
X232000D02*
X231221D01*
X230137Y174626D01*
X229128Y174207D01*
X228261Y173542D01*
X227596Y172675D01*
X227178Y171666D01*
X227101Y171083D01*
X232000D01*
Y174768D01*
D02*
G37*
G36*
X57899Y174083D02*
X53000D01*
Y170397D01*
X53780D01*
X54863Y170540D01*
X55872Y170958D01*
X56739Y171623D01*
X57404Y172490D01*
X57822Y173499D01*
X57899Y174083D01*
D02*
G37*
G36*
X267000Y170848D02*
Y169000D01*
X268848D01*
X268761Y169436D01*
X268230Y170230D01*
X267436Y170761D01*
X267000Y170848D01*
D02*
G37*
G36*
X266000D02*
X265564Y170761D01*
X264770Y170230D01*
X264239Y169436D01*
X264152Y169000D01*
X266000D01*
Y170848D01*
D02*
G37*
G36*
X252000D02*
Y169000D01*
X253848D01*
X253761Y169436D01*
X253230Y170230D01*
X252436Y170761D01*
X252000Y170848D01*
D02*
G37*
G36*
X251000D02*
X250564Y170761D01*
X249770Y170230D01*
X249239Y169436D01*
X249152Y169000D01*
X251000D01*
Y170848D01*
D02*
G37*
G36*
X177000D02*
Y169000D01*
X178848D01*
X178761Y169436D01*
X178230Y170230D01*
X177436Y170761D01*
X177000Y170848D01*
D02*
G37*
G36*
X176000D02*
X175564Y170761D01*
X174770Y170230D01*
X174239Y169436D01*
X174152Y169000D01*
X176000D01*
Y170848D01*
D02*
G37*
G36*
X162000D02*
Y169000D01*
X163848D01*
X163761Y169436D01*
X163230Y170230D01*
X162436Y170761D01*
X162000Y170848D01*
D02*
G37*
G36*
X161000D02*
X160564Y170761D01*
X159770Y170230D01*
X159239Y169436D01*
X159152Y169000D01*
X161000D01*
Y170848D01*
D02*
G37*
G36*
X147000D02*
Y169000D01*
X148848D01*
X148761Y169436D01*
X148230Y170230D01*
X147436Y170761D01*
X147000Y170848D01*
D02*
G37*
G36*
X146000D02*
X145564Y170761D01*
X144770Y170230D01*
X144239Y169436D01*
X144152Y169000D01*
X146000D01*
Y170848D01*
D02*
G37*
G36*
X132000D02*
Y169000D01*
X133848D01*
X133761Y169436D01*
X133230Y170230D01*
X132436Y170761D01*
X132000Y170848D01*
D02*
G37*
G36*
X131000D02*
X130564Y170761D01*
X129770Y170230D01*
X129239Y169436D01*
X129152Y169000D01*
X131000D01*
Y170848D01*
D02*
G37*
G36*
X117000D02*
Y169000D01*
X118848D01*
X118761Y169436D01*
X118230Y170230D01*
X117436Y170761D01*
X117000Y170848D01*
D02*
G37*
G36*
X116000D02*
X115564Y170761D01*
X114770Y170230D01*
X114239Y169436D01*
X114152Y169000D01*
X116000D01*
Y170848D01*
D02*
G37*
G36*
X72000D02*
Y169000D01*
X73848D01*
X73761Y169436D01*
X73230Y170230D01*
X72436Y170761D01*
X72000Y170848D01*
D02*
G37*
G36*
X71000D02*
X70564Y170761D01*
X69770Y170230D01*
X69239Y169436D01*
X69152Y169000D01*
X71000D01*
Y170848D01*
D02*
G37*
G36*
X12000D02*
Y169000D01*
X13848D01*
X13761Y169436D01*
X13230Y170230D01*
X12436Y170761D01*
X12000Y170848D01*
D02*
G37*
G36*
X11000D02*
X10564Y170761D01*
X9770Y170230D01*
X9239Y169436D01*
X9152Y169000D01*
X11000D01*
Y170848D01*
D02*
G37*
G36*
X237899Y170083D02*
X233000D01*
Y166397D01*
X233780D01*
X234863Y166540D01*
X235872Y166958D01*
X236739Y167623D01*
X237404Y168490D01*
X237822Y169499D01*
X237899Y170083D01*
D02*
G37*
G36*
X232000D02*
X227101D01*
X227178Y169499D01*
X227596Y168490D01*
X228261Y167623D01*
X229128Y166958D01*
X230137Y166540D01*
X231221Y166397D01*
X232000D01*
Y170083D01*
D02*
G37*
G36*
X52000Y168768D02*
X51221D01*
X50137Y168625D01*
X49128Y168207D01*
X48261Y167542D01*
X47596Y166675D01*
X47479Y166394D01*
X46979D01*
X46968Y166423D01*
X46382Y167186D01*
X45620Y167771D01*
X44732Y168138D01*
X43780Y168264D01*
X41221D01*
X40268Y168138D01*
X39380Y167771D01*
X38618Y167186D01*
X38032Y166423D01*
X37665Y165535D01*
X37539Y164583D01*
X37665Y163630D01*
X38032Y162742D01*
X38618Y161980D01*
X39380Y161395D01*
X40268Y161027D01*
X41221Y160902D01*
X43780D01*
X44732Y161027D01*
X45620Y161395D01*
X46382Y161980D01*
X46968Y162742D01*
X46979Y162771D01*
X47479D01*
X47596Y162490D01*
X48261Y161623D01*
X49128Y160958D01*
X50137Y160540D01*
X51221Y160397D01*
X52000D01*
Y164583D01*
Y168768D01*
D02*
G37*
G36*
X268848Y168000D02*
X267000D01*
Y166152D01*
X267436Y166239D01*
X268230Y166770D01*
X268761Y167564D01*
X268848Y168000D01*
D02*
G37*
G36*
X266000D02*
X264152D01*
X264239Y167564D01*
X264770Y166770D01*
X265564Y166239D01*
X266000Y166152D01*
Y168000D01*
D02*
G37*
G36*
X253848D02*
X252000D01*
Y166152D01*
X252436Y166239D01*
X253230Y166770D01*
X253761Y167564D01*
X253848Y168000D01*
D02*
G37*
G36*
X251000D02*
X249152D01*
X249239Y167564D01*
X249770Y166770D01*
X250564Y166239D01*
X251000Y166152D01*
Y168000D01*
D02*
G37*
G36*
X178848D02*
X177000D01*
Y166152D01*
X177436Y166239D01*
X178230Y166770D01*
X178761Y167564D01*
X178848Y168000D01*
D02*
G37*
G36*
X176000D02*
X174152D01*
X174239Y167564D01*
X174770Y166770D01*
X175564Y166239D01*
X176000Y166152D01*
Y168000D01*
D02*
G37*
G36*
X163848D02*
X162000D01*
Y166152D01*
X162436Y166239D01*
X163230Y166770D01*
X163761Y167564D01*
X163848Y168000D01*
D02*
G37*
G36*
X161000D02*
X159152D01*
X159239Y167564D01*
X159770Y166770D01*
X160564Y166239D01*
X161000Y166152D01*
Y168000D01*
D02*
G37*
G36*
X148848D02*
X147000D01*
Y166152D01*
X147436Y166239D01*
X148230Y166770D01*
X148761Y167564D01*
X148848Y168000D01*
D02*
G37*
G36*
X146000D02*
X144152D01*
X144239Y167564D01*
X144770Y166770D01*
X145564Y166239D01*
X146000Y166152D01*
Y168000D01*
D02*
G37*
G36*
X133848D02*
X132000D01*
Y166152D01*
X132436Y166239D01*
X133230Y166770D01*
X133761Y167564D01*
X133848Y168000D01*
D02*
G37*
G36*
X131000D02*
X129152D01*
X129239Y167564D01*
X129770Y166770D01*
X130564Y166239D01*
X131000Y166152D01*
Y168000D01*
D02*
G37*
G36*
X118848D02*
X117000D01*
Y166152D01*
X117436Y166239D01*
X118230Y166770D01*
X118761Y167564D01*
X118848Y168000D01*
D02*
G37*
G36*
X116000D02*
X114152D01*
X114239Y167564D01*
X114770Y166770D01*
X115564Y166239D01*
X116000Y166152D01*
Y168000D01*
D02*
G37*
G36*
X73848D02*
X72000D01*
Y166152D01*
X72436Y166239D01*
X73230Y166770D01*
X73761Y167564D01*
X73848Y168000D01*
D02*
G37*
G36*
X71000D02*
X69152D01*
X69239Y167564D01*
X69770Y166770D01*
X70564Y166239D01*
X71000Y166152D01*
Y168000D01*
D02*
G37*
G36*
X13848D02*
X12000D01*
Y166152D01*
X12436Y166239D01*
X13230Y166770D01*
X13761Y167564D01*
X13848Y168000D01*
D02*
G37*
G36*
X11000D02*
X9152D01*
X9239Y167564D01*
X9770Y166770D01*
X10564Y166239D01*
X11000Y166152D01*
Y168000D01*
D02*
G37*
G36*
X53780Y168768D02*
X53000D01*
Y165083D01*
X57899D01*
X57822Y165666D01*
X57404Y166675D01*
X56739Y167542D01*
X55872Y168207D01*
X54863Y168625D01*
X53780Y168768D01*
D02*
G37*
G36*
X233780Y164768D02*
X233000D01*
Y161083D01*
X237899D01*
X237822Y161666D01*
X237404Y162675D01*
X236739Y163542D01*
X235872Y164207D01*
X234863Y164626D01*
X233780Y164768D01*
D02*
G37*
G36*
X232000D02*
X231221D01*
X230137Y164626D01*
X229128Y164207D01*
X228261Y163542D01*
X227596Y162675D01*
X227178Y161666D01*
X227101Y161083D01*
X232000D01*
Y164768D01*
D02*
G37*
G36*
X57899Y164083D02*
X53000D01*
Y160397D01*
X53780D01*
X54863Y160540D01*
X55872Y160958D01*
X56739Y161623D01*
X57404Y162490D01*
X57822Y163499D01*
X57899Y164083D01*
D02*
G37*
G36*
X237899Y160083D02*
X233000D01*
Y156397D01*
X233780D01*
X234863Y156540D01*
X235872Y156958D01*
X236739Y157623D01*
X237404Y158490D01*
X237822Y159499D01*
X237899Y160083D01*
D02*
G37*
G36*
X232000D02*
X227101D01*
X227178Y159499D01*
X227596Y158490D01*
X228261Y157623D01*
X229128Y156958D01*
X230137Y156540D01*
X231221Y156397D01*
X232000D01*
Y160083D01*
D02*
G37*
G36*
X52000Y158768D02*
X51221D01*
X50137Y158625D01*
X49128Y158207D01*
X48261Y157542D01*
X47596Y156675D01*
X47479Y156394D01*
X46979D01*
X46968Y156423D01*
X46382Y157186D01*
X45620Y157771D01*
X44732Y158138D01*
X43780Y158264D01*
X41221D01*
X40268Y158138D01*
X39380Y157771D01*
X38618Y157186D01*
X38032Y156423D01*
X37665Y155535D01*
X37539Y154583D01*
X37665Y153630D01*
X38032Y152742D01*
X38618Y151980D01*
X39380Y151395D01*
X40268Y151027D01*
X41221Y150902D01*
X43780D01*
X44732Y151027D01*
X45620Y151395D01*
X46382Y151980D01*
X46968Y152742D01*
X46979Y152771D01*
X47479D01*
X47596Y152490D01*
X48261Y151623D01*
X49128Y150958D01*
X50137Y150540D01*
X51221Y150397D01*
X52000D01*
Y154583D01*
Y158768D01*
D02*
G37*
G36*
X53780D02*
X53000D01*
Y155083D01*
X57899D01*
X57822Y155666D01*
X57404Y156675D01*
X56739Y157542D01*
X55872Y158207D01*
X54863Y158625D01*
X53780Y158768D01*
D02*
G37*
G36*
X259500Y155848D02*
Y154000D01*
X261348D01*
X261261Y154436D01*
X260730Y155230D01*
X259936Y155761D01*
X259500Y155848D01*
D02*
G37*
G36*
X258500D02*
X258064Y155761D01*
X257270Y155230D01*
X256739Y154436D01*
X256652Y154000D01*
X258500D01*
Y155848D01*
D02*
G37*
G36*
X244500D02*
Y154000D01*
X246348D01*
X246261Y154436D01*
X245730Y155230D01*
X244936Y155761D01*
X244500Y155848D01*
D02*
G37*
G36*
X243500D02*
X243064Y155761D01*
X242270Y155230D01*
X241739Y154436D01*
X241652Y154000D01*
X243500D01*
Y155848D01*
D02*
G37*
G36*
X199500D02*
Y154000D01*
X201348D01*
X201261Y154436D01*
X200730Y155230D01*
X199936Y155761D01*
X199500Y155848D01*
D02*
G37*
G36*
X198500D02*
X198064Y155761D01*
X197270Y155230D01*
X196739Y154436D01*
X196652Y154000D01*
X198500D01*
Y155848D01*
D02*
G37*
G36*
X124500D02*
Y154000D01*
X126348D01*
X126261Y154436D01*
X125730Y155230D01*
X124936Y155761D01*
X124500Y155848D01*
D02*
G37*
G36*
X123500D02*
X123064Y155761D01*
X122270Y155230D01*
X121739Y154436D01*
X121652Y154000D01*
X123500D01*
Y155848D01*
D02*
G37*
G36*
X109500D02*
Y154000D01*
X111348D01*
X111261Y154436D01*
X110730Y155230D01*
X109936Y155761D01*
X109500Y155848D01*
D02*
G37*
G36*
X108500D02*
X108064Y155761D01*
X107270Y155230D01*
X106739Y154436D01*
X106652Y154000D01*
X108500D01*
Y155848D01*
D02*
G37*
G36*
X94500D02*
Y154000D01*
X96348D01*
X96261Y154436D01*
X95730Y155230D01*
X94936Y155761D01*
X94500Y155848D01*
D02*
G37*
G36*
X93500D02*
X93064Y155761D01*
X92270Y155230D01*
X91739Y154436D01*
X91652Y154000D01*
X93500D01*
Y155848D01*
D02*
G37*
G36*
X79500D02*
Y154000D01*
X81348D01*
X81261Y154436D01*
X80730Y155230D01*
X79936Y155761D01*
X79500Y155848D01*
D02*
G37*
G36*
X78500D02*
X78064Y155761D01*
X77270Y155230D01*
X76739Y154436D01*
X76652Y154000D01*
X78500D01*
Y155848D01*
D02*
G37*
G36*
X19500D02*
Y154000D01*
X21348D01*
X21261Y154436D01*
X20730Y155230D01*
X19936Y155761D01*
X19500Y155848D01*
D02*
G37*
G36*
X18500D02*
X18064Y155761D01*
X17270Y155230D01*
X16739Y154436D01*
X16652Y154000D01*
X18500D01*
Y155848D01*
D02*
G37*
G36*
X4500D02*
Y154000D01*
X6348D01*
X6261Y154436D01*
X5730Y155230D01*
X4936Y155761D01*
X4500Y155848D01*
D02*
G37*
G36*
X3500D02*
X3064Y155761D01*
X2270Y155230D01*
X1739Y154436D01*
X1652Y154000D01*
X3500D01*
Y155848D01*
D02*
G37*
G36*
X261348Y153000D02*
X259500D01*
Y151152D01*
X259936Y151239D01*
X260730Y151770D01*
X261261Y152564D01*
X261348Y153000D01*
D02*
G37*
G36*
X258500D02*
X256652D01*
X256739Y152564D01*
X257270Y151770D01*
X258064Y151239D01*
X258500Y151152D01*
Y153000D01*
D02*
G37*
G36*
X246348D02*
X244500D01*
Y151152D01*
X244936Y151239D01*
X245730Y151770D01*
X246261Y152564D01*
X246348Y153000D01*
D02*
G37*
G36*
X243500D02*
X241652D01*
X241739Y152564D01*
X242270Y151770D01*
X243064Y151239D01*
X243500Y151152D01*
Y153000D01*
D02*
G37*
G36*
X201348D02*
X199500D01*
Y151152D01*
X199936Y151239D01*
X200730Y151770D01*
X201261Y152564D01*
X201348Y153000D01*
D02*
G37*
G36*
X198500D02*
X196652D01*
X196739Y152564D01*
X197270Y151770D01*
X198064Y151239D01*
X198500Y151152D01*
Y153000D01*
D02*
G37*
G36*
X126348D02*
X124500D01*
Y151152D01*
X124936Y151239D01*
X125730Y151770D01*
X126261Y152564D01*
X126348Y153000D01*
D02*
G37*
G36*
X123500D02*
X121652D01*
X121739Y152564D01*
X122270Y151770D01*
X123064Y151239D01*
X123500Y151152D01*
Y153000D01*
D02*
G37*
G36*
X111348D02*
X109500D01*
Y151152D01*
X109936Y151239D01*
X110730Y151770D01*
X111261Y152564D01*
X111348Y153000D01*
D02*
G37*
G36*
X108500D02*
X106652D01*
X106739Y152564D01*
X107270Y151770D01*
X108064Y151239D01*
X108500Y151152D01*
Y153000D01*
D02*
G37*
G36*
X96348D02*
X94500D01*
Y151152D01*
X94936Y151239D01*
X95730Y151770D01*
X96261Y152564D01*
X96348Y153000D01*
D02*
G37*
G36*
X93500D02*
X91652D01*
X91739Y152564D01*
X92270Y151770D01*
X93064Y151239D01*
X93500Y151152D01*
Y153000D01*
D02*
G37*
G36*
X81348D02*
X79500D01*
Y151152D01*
X79936Y151239D01*
X80730Y151770D01*
X81261Y152564D01*
X81348Y153000D01*
D02*
G37*
G36*
X78500D02*
X76652D01*
X76739Y152564D01*
X77270Y151770D01*
X78064Y151239D01*
X78500Y151152D01*
Y153000D01*
D02*
G37*
G36*
X21348D02*
X19500D01*
Y151152D01*
X19936Y151239D01*
X20730Y151770D01*
X21261Y152564D01*
X21348Y153000D01*
D02*
G37*
G36*
X18500D02*
X16652D01*
X16739Y152564D01*
X17270Y151770D01*
X18064Y151239D01*
X18500Y151152D01*
Y153000D01*
D02*
G37*
G36*
X6348D02*
X4500D01*
Y151152D01*
X4936Y151239D01*
X5730Y151770D01*
X6261Y152564D01*
X6348Y153000D01*
D02*
G37*
G36*
X3500D02*
X1652D01*
X1739Y152564D01*
X2270Y151770D01*
X3064Y151239D01*
X3500Y151152D01*
Y153000D01*
D02*
G37*
G36*
X233780Y154768D02*
X233000D01*
Y151083D01*
X237899D01*
X237822Y151666D01*
X237404Y152675D01*
X236739Y153542D01*
X235872Y154207D01*
X234863Y154625D01*
X233780Y154768D01*
D02*
G37*
G36*
X232000D02*
X231221D01*
X230137Y154625D01*
X229128Y154207D01*
X228261Y153542D01*
X227596Y152675D01*
X227178Y151666D01*
X227101Y151083D01*
X232000D01*
Y154768D01*
D02*
G37*
G36*
X57899Y154083D02*
X53000D01*
Y150397D01*
X53780D01*
X54863Y150540D01*
X55872Y150958D01*
X56739Y151623D01*
X57404Y152490D01*
X57822Y153499D01*
X57899Y154083D01*
D02*
G37*
G36*
X237899Y150083D02*
X233000D01*
Y146397D01*
X233780D01*
X234863Y146540D01*
X235872Y146958D01*
X236739Y147623D01*
X237404Y148490D01*
X237822Y149499D01*
X237899Y150083D01*
D02*
G37*
G36*
X232000D02*
X227101D01*
X227178Y149499D01*
X227596Y148490D01*
X228261Y147623D01*
X229128Y146958D01*
X230137Y146540D01*
X231221Y146397D01*
X232000D01*
Y150083D01*
D02*
G37*
G36*
X52000Y148768D02*
X51221D01*
X50137Y148626D01*
X49128Y148207D01*
X48261Y147542D01*
X47596Y146675D01*
X47479Y146394D01*
X46979D01*
X46968Y146423D01*
X46382Y147186D01*
X45620Y147771D01*
X44732Y148138D01*
X43780Y148264D01*
X41221D01*
X40268Y148138D01*
X39380Y147771D01*
X38618Y147186D01*
X38032Y146423D01*
X37665Y145535D01*
X37539Y144583D01*
X37665Y143630D01*
X38032Y142742D01*
X38618Y141980D01*
X39380Y141395D01*
X40268Y141027D01*
X41221Y140902D01*
X43780D01*
X44732Y141027D01*
X45620Y141395D01*
X46382Y141980D01*
X46968Y142742D01*
X46979Y142771D01*
X47479D01*
X47596Y142490D01*
X48261Y141623D01*
X49128Y140958D01*
X50137Y140540D01*
X51221Y140397D01*
X52000D01*
Y144583D01*
Y148768D01*
D02*
G37*
G36*
X53780D02*
X53000D01*
Y145083D01*
X57899D01*
X57822Y145666D01*
X57404Y146675D01*
X56739Y147542D01*
X55872Y148207D01*
X54863Y148626D01*
X53780Y148768D01*
D02*
G37*
G36*
X57899Y144083D02*
X53000D01*
Y140397D01*
X53780D01*
X54863Y140540D01*
X55872Y140958D01*
X56739Y141623D01*
X57404Y142490D01*
X57822Y143499D01*
X57899Y144083D01*
D02*
G37*
G36*
X267000Y140848D02*
Y139000D01*
X268848D01*
X268761Y139436D01*
X268230Y140230D01*
X267436Y140761D01*
X267000Y140848D01*
D02*
G37*
G36*
X266000D02*
X265564Y140761D01*
X264770Y140230D01*
X264239Y139436D01*
X264152Y139000D01*
X266000D01*
Y140848D01*
D02*
G37*
G36*
X252000D02*
Y139000D01*
X253848D01*
X253761Y139436D01*
X253230Y140230D01*
X252436Y140761D01*
X252000Y140848D01*
D02*
G37*
G36*
X251000D02*
X250564Y140761D01*
X249770Y140230D01*
X249239Y139436D01*
X249152Y139000D01*
X251000D01*
Y140848D01*
D02*
G37*
G36*
X237000D02*
Y139000D01*
X238848D01*
X238761Y139436D01*
X238230Y140230D01*
X237436Y140761D01*
X237000Y140848D01*
D02*
G37*
G36*
X236000D02*
X235564Y140761D01*
X234770Y140230D01*
X234239Y139436D01*
X234152Y139000D01*
X236000D01*
Y140848D01*
D02*
G37*
G36*
X207000D02*
Y139000D01*
X208848D01*
X208761Y139436D01*
X208230Y140230D01*
X207436Y140761D01*
X207000Y140848D01*
D02*
G37*
G36*
X206000D02*
X205564Y140761D01*
X204770Y140230D01*
X204239Y139436D01*
X204152Y139000D01*
X206000D01*
Y140848D01*
D02*
G37*
G36*
X192000D02*
Y139000D01*
X193848D01*
X193761Y139436D01*
X193230Y140230D01*
X192436Y140761D01*
X192000Y140848D01*
D02*
G37*
G36*
X191000D02*
X190564Y140761D01*
X189770Y140230D01*
X189239Y139436D01*
X189152Y139000D01*
X191000D01*
Y140848D01*
D02*
G37*
G36*
X177000D02*
Y139000D01*
X178848D01*
X178761Y139436D01*
X178230Y140230D01*
X177436Y140761D01*
X177000Y140848D01*
D02*
G37*
G36*
X176000D02*
X175564Y140761D01*
X174770Y140230D01*
X174239Y139436D01*
X174152Y139000D01*
X176000D01*
Y140848D01*
D02*
G37*
G36*
X162000D02*
Y139000D01*
X163848D01*
X163761Y139436D01*
X163230Y140230D01*
X162436Y140761D01*
X162000Y140848D01*
D02*
G37*
G36*
X161000D02*
X160564Y140761D01*
X159770Y140230D01*
X159239Y139436D01*
X159152Y139000D01*
X161000D01*
Y140848D01*
D02*
G37*
G36*
X87000D02*
Y139000D01*
X88848D01*
X88761Y139436D01*
X88230Y140230D01*
X87436Y140761D01*
X87000Y140848D01*
D02*
G37*
G36*
X86000D02*
X85564Y140761D01*
X84770Y140230D01*
X84239Y139436D01*
X84152Y139000D01*
X86000D01*
Y140848D01*
D02*
G37*
G36*
X72000D02*
Y139000D01*
X73848D01*
X73761Y139436D01*
X73230Y140230D01*
X72436Y140761D01*
X72000Y140848D01*
D02*
G37*
G36*
X71000D02*
X70564Y140761D01*
X69770Y140230D01*
X69239Y139436D01*
X69152Y139000D01*
X71000D01*
Y140848D01*
D02*
G37*
G36*
X52000Y138768D02*
X51221D01*
X50137Y138626D01*
X49128Y138207D01*
X48261Y137542D01*
X47808Y136952D01*
X47192D01*
X46739Y137542D01*
X45872Y138207D01*
X44863Y138626D01*
X43780Y138768D01*
X43000D01*
Y134583D01*
Y130397D01*
X43780D01*
X44863Y130540D01*
X45872Y130958D01*
X46739Y131623D01*
X47192Y132213D01*
X47808D01*
X48261Y131623D01*
X49128Y130958D01*
X50137Y130540D01*
X51221Y130397D01*
X52000D01*
Y134583D01*
Y138768D01*
D02*
G37*
G36*
X268848Y138000D02*
X267000D01*
Y136152D01*
X267436Y136239D01*
X268230Y136770D01*
X268761Y137564D01*
X268848Y138000D01*
D02*
G37*
G36*
X266000D02*
X264152D01*
X264239Y137564D01*
X264770Y136770D01*
X265564Y136239D01*
X266000Y136152D01*
Y138000D01*
D02*
G37*
G36*
X253848D02*
X252000D01*
Y136152D01*
X252436Y136239D01*
X253230Y136770D01*
X253761Y137564D01*
X253848Y138000D01*
D02*
G37*
G36*
X251000D02*
X249152D01*
X249239Y137564D01*
X249770Y136770D01*
X250564Y136239D01*
X251000Y136152D01*
Y138000D01*
D02*
G37*
G36*
X238848D02*
X237000D01*
Y136152D01*
X237436Y136239D01*
X238230Y136770D01*
X238761Y137564D01*
X238848Y138000D01*
D02*
G37*
G36*
X236000D02*
X234152D01*
X234239Y137564D01*
X234770Y136770D01*
X235564Y136239D01*
X236000Y136152D01*
Y138000D01*
D02*
G37*
G36*
X208848D02*
X207000D01*
Y136152D01*
X207436Y136239D01*
X208230Y136770D01*
X208761Y137564D01*
X208848Y138000D01*
D02*
G37*
G36*
X206000D02*
X204152D01*
X204239Y137564D01*
X204770Y136770D01*
X205564Y136239D01*
X206000Y136152D01*
Y138000D01*
D02*
G37*
G36*
X193848D02*
X192000D01*
Y136152D01*
X192436Y136239D01*
X193230Y136770D01*
X193761Y137564D01*
X193848Y138000D01*
D02*
G37*
G36*
X191000D02*
X189152D01*
X189239Y137564D01*
X189770Y136770D01*
X190564Y136239D01*
X191000Y136152D01*
Y138000D01*
D02*
G37*
G36*
X178848D02*
X177000D01*
Y136152D01*
X177436Y136239D01*
X178230Y136770D01*
X178761Y137564D01*
X178848Y138000D01*
D02*
G37*
G36*
X176000D02*
X174152D01*
X174239Y137564D01*
X174770Y136770D01*
X175564Y136239D01*
X176000Y136152D01*
Y138000D01*
D02*
G37*
G36*
X163848D02*
X162000D01*
Y136152D01*
X162436Y136239D01*
X163230Y136770D01*
X163761Y137564D01*
X163848Y138000D01*
D02*
G37*
G36*
X161000D02*
X159152D01*
X159239Y137564D01*
X159770Y136770D01*
X160564Y136239D01*
X161000Y136152D01*
Y138000D01*
D02*
G37*
G36*
X88848D02*
X87000D01*
Y136152D01*
X87436Y136239D01*
X88230Y136770D01*
X88761Y137564D01*
X88848Y138000D01*
D02*
G37*
G36*
X86000D02*
X84152D01*
X84239Y137564D01*
X84770Y136770D01*
X85564Y136239D01*
X86000Y136152D01*
Y138000D01*
D02*
G37*
G36*
X73848D02*
X72000D01*
Y136152D01*
X72436Y136239D01*
X73230Y136770D01*
X73761Y137564D01*
X73848Y138000D01*
D02*
G37*
G36*
X71000D02*
X69152D01*
X69239Y137564D01*
X69770Y136770D01*
X70564Y136239D01*
X71000Y136152D01*
Y138000D01*
D02*
G37*
G36*
X53780Y138768D02*
X53000D01*
Y135083D01*
X57899D01*
X57822Y135666D01*
X57404Y136675D01*
X56739Y137542D01*
X55872Y138207D01*
X54863Y138626D01*
X53780Y138768D01*
D02*
G37*
G36*
X42000D02*
X41221D01*
X40137Y138626D01*
X39128Y138207D01*
X38261Y137542D01*
X37596Y136675D01*
X37178Y135666D01*
X37101Y135083D01*
X42000D01*
Y138768D01*
D02*
G37*
G36*
X57899Y134083D02*
X53000D01*
Y130397D01*
X53780D01*
X54863Y130540D01*
X55872Y130958D01*
X56739Y131623D01*
X57404Y132490D01*
X57822Y133499D01*
X57899Y134083D01*
D02*
G37*
G36*
X42000D02*
X37101D01*
X37178Y133499D01*
X37596Y132490D01*
X38261Y131623D01*
X39128Y130958D01*
X40137Y130540D01*
X41221Y130397D01*
X42000D01*
Y134083D01*
D02*
G37*
G36*
Y128768D02*
X41221D01*
X40137Y128626D01*
X39128Y128207D01*
X38261Y127542D01*
X37596Y126675D01*
X37178Y125666D01*
X37101Y125083D01*
X42000D01*
Y128768D01*
D02*
G37*
G36*
X259500Y125848D02*
Y124000D01*
X261348D01*
X261261Y124436D01*
X260730Y125230D01*
X259936Y125761D01*
X259500Y125848D01*
D02*
G37*
G36*
X258500D02*
X258064Y125761D01*
X257270Y125230D01*
X256739Y124436D01*
X256652Y124000D01*
X258500D01*
Y125848D01*
D02*
G37*
G36*
X244500D02*
Y124000D01*
X246348D01*
X246261Y124436D01*
X245730Y125230D01*
X244936Y125761D01*
X244500Y125848D01*
D02*
G37*
G36*
X243500D02*
X243064Y125761D01*
X242270Y125230D01*
X241739Y124436D01*
X241652Y124000D01*
X243500D01*
Y125848D01*
D02*
G37*
G36*
X229500D02*
Y124000D01*
X231348D01*
X231261Y124436D01*
X230730Y125230D01*
X229936Y125761D01*
X229500Y125848D01*
D02*
G37*
G36*
X228500D02*
X228064Y125761D01*
X227270Y125230D01*
X226739Y124436D01*
X226652Y124000D01*
X228500D01*
Y125848D01*
D02*
G37*
G36*
X169500D02*
Y124000D01*
X171348D01*
X171261Y124436D01*
X170730Y125230D01*
X169936Y125761D01*
X169500Y125848D01*
D02*
G37*
G36*
X168500D02*
X168064Y125761D01*
X167270Y125230D01*
X166739Y124436D01*
X166652Y124000D01*
X168500D01*
Y125848D01*
D02*
G37*
G36*
X154500D02*
Y124000D01*
X156348D01*
X156261Y124436D01*
X155730Y125230D01*
X154936Y125761D01*
X154500Y125848D01*
D02*
G37*
G36*
X153500D02*
X153064Y125761D01*
X152270Y125230D01*
X151739Y124436D01*
X151652Y124000D01*
X153500D01*
Y125848D01*
D02*
G37*
G36*
X139500D02*
Y124000D01*
X141348D01*
X141261Y124436D01*
X140730Y125230D01*
X139936Y125761D01*
X139500Y125848D01*
D02*
G37*
G36*
X138500D02*
X138064Y125761D01*
X137270Y125230D01*
X136739Y124436D01*
X136652Y124000D01*
X138500D01*
Y125848D01*
D02*
G37*
G36*
X124500D02*
Y124000D01*
X126348D01*
X126261Y124436D01*
X125730Y125230D01*
X124936Y125761D01*
X124500Y125848D01*
D02*
G37*
G36*
X123500D02*
X123064Y125761D01*
X122270Y125230D01*
X121739Y124436D01*
X121652Y124000D01*
X123500D01*
Y125848D01*
D02*
G37*
G36*
X109500D02*
Y124000D01*
X111348D01*
X111261Y124436D01*
X110730Y125230D01*
X109936Y125761D01*
X109500Y125848D01*
D02*
G37*
G36*
X108500D02*
X108064Y125761D01*
X107270Y125230D01*
X106739Y124436D01*
X106652Y124000D01*
X108500D01*
Y125848D01*
D02*
G37*
G36*
X79500D02*
Y124000D01*
X81348D01*
X81261Y124436D01*
X80730Y125230D01*
X79936Y125761D01*
X79500Y125848D01*
D02*
G37*
G36*
X78500D02*
X78064Y125761D01*
X77270Y125230D01*
X76739Y124436D01*
X76652Y124000D01*
X78500D01*
Y125848D01*
D02*
G37*
G36*
X34500D02*
Y124000D01*
X36348D01*
X36261Y124436D01*
X35730Y125230D01*
X34936Y125761D01*
X34500Y125848D01*
D02*
G37*
G36*
X33500D02*
X33064Y125761D01*
X32270Y125230D01*
X31739Y124436D01*
X31652Y124000D01*
X33500D01*
Y125848D01*
D02*
G37*
G36*
X19500D02*
Y124000D01*
X21348D01*
X21261Y124436D01*
X20730Y125230D01*
X19936Y125761D01*
X19500Y125848D01*
D02*
G37*
G36*
X18500D02*
X18064Y125761D01*
X17270Y125230D01*
X16739Y124436D01*
X16652Y124000D01*
X18500D01*
Y125848D01*
D02*
G37*
G36*
X4500D02*
Y124000D01*
X6348D01*
X6261Y124436D01*
X5730Y125230D01*
X4936Y125761D01*
X4500Y125848D01*
D02*
G37*
G36*
X3500D02*
X3064Y125761D01*
X2270Y125230D01*
X1739Y124436D01*
X1652Y124000D01*
X3500D01*
Y125848D01*
D02*
G37*
G36*
X261348Y123000D02*
X259500D01*
Y121152D01*
X259936Y121239D01*
X260730Y121770D01*
X261261Y122564D01*
X261348Y123000D01*
D02*
G37*
G36*
X258500D02*
X256652D01*
X256739Y122564D01*
X257270Y121770D01*
X258064Y121239D01*
X258500Y121152D01*
Y123000D01*
D02*
G37*
G36*
X246348D02*
X244500D01*
Y121152D01*
X244936Y121239D01*
X245730Y121770D01*
X246261Y122564D01*
X246348Y123000D01*
D02*
G37*
G36*
X243500D02*
X241652D01*
X241739Y122564D01*
X242270Y121770D01*
X243064Y121239D01*
X243500Y121152D01*
Y123000D01*
D02*
G37*
G36*
X231348D02*
X229500D01*
Y121152D01*
X229936Y121239D01*
X230730Y121770D01*
X231261Y122564D01*
X231348Y123000D01*
D02*
G37*
G36*
X228500D02*
X226652D01*
X226739Y122564D01*
X227270Y121770D01*
X228064Y121239D01*
X228500Y121152D01*
Y123000D01*
D02*
G37*
G36*
X171348D02*
X169500D01*
Y121152D01*
X169936Y121239D01*
X170730Y121770D01*
X171261Y122564D01*
X171348Y123000D01*
D02*
G37*
G36*
X168500D02*
X166652D01*
X166739Y122564D01*
X167270Y121770D01*
X168064Y121239D01*
X168500Y121152D01*
Y123000D01*
D02*
G37*
G36*
X156348D02*
X154500D01*
Y121152D01*
X154936Y121239D01*
X155730Y121770D01*
X156261Y122564D01*
X156348Y123000D01*
D02*
G37*
G36*
X153500D02*
X151652D01*
X151739Y122564D01*
X152270Y121770D01*
X153064Y121239D01*
X153500Y121152D01*
Y123000D01*
D02*
G37*
G36*
X141348D02*
X139500D01*
Y121152D01*
X139936Y121239D01*
X140730Y121770D01*
X141261Y122564D01*
X141348Y123000D01*
D02*
G37*
G36*
X138500D02*
X136652D01*
X136739Y122564D01*
X137270Y121770D01*
X138064Y121239D01*
X138500Y121152D01*
Y123000D01*
D02*
G37*
G36*
X126348D02*
X124500D01*
Y121152D01*
X124936Y121239D01*
X125730Y121770D01*
X126261Y122564D01*
X126348Y123000D01*
D02*
G37*
G36*
X123500D02*
X121652D01*
X121739Y122564D01*
X122270Y121770D01*
X123064Y121239D01*
X123500Y121152D01*
Y123000D01*
D02*
G37*
G36*
X111348D02*
X109500D01*
Y121152D01*
X109936Y121239D01*
X110730Y121770D01*
X111261Y122564D01*
X111348Y123000D01*
D02*
G37*
G36*
X108500D02*
X106652D01*
X106739Y122564D01*
X107270Y121770D01*
X108064Y121239D01*
X108500Y121152D01*
Y123000D01*
D02*
G37*
G36*
X81348D02*
X79500D01*
Y121152D01*
X79936Y121239D01*
X80730Y121770D01*
X81261Y122564D01*
X81348Y123000D01*
D02*
G37*
G36*
X78500D02*
X76652D01*
X76739Y122564D01*
X77270Y121770D01*
X78064Y121239D01*
X78500Y121152D01*
Y123000D01*
D02*
G37*
G36*
X36348D02*
X34500D01*
Y121152D01*
X34936Y121239D01*
X35730Y121770D01*
X36261Y122564D01*
X36348Y123000D01*
D02*
G37*
G36*
X33500D02*
X31652D01*
X31739Y122564D01*
X32270Y121770D01*
X33064Y121239D01*
X33500Y121152D01*
Y123000D01*
D02*
G37*
G36*
X21348D02*
X19500D01*
Y121152D01*
X19936Y121239D01*
X20730Y121770D01*
X21261Y122564D01*
X21348Y123000D01*
D02*
G37*
G36*
X18500D02*
X16652D01*
X16739Y122564D01*
X17270Y121770D01*
X18064Y121239D01*
X18500Y121152D01*
Y123000D01*
D02*
G37*
G36*
X6348D02*
X4500D01*
Y121152D01*
X4936Y121239D01*
X5730Y121770D01*
X6261Y122564D01*
X6348Y123000D01*
D02*
G37*
G36*
X3500D02*
X1652D01*
X1739Y122564D01*
X2270Y121770D01*
X3064Y121239D01*
X3500Y121152D01*
Y123000D01*
D02*
G37*
G36*
X43780Y128768D02*
X43000D01*
Y124583D01*
Y120397D01*
X43780D01*
X44863Y120540D01*
X45872Y120958D01*
X46739Y121623D01*
X47404Y122490D01*
X47521Y122771D01*
X48021D01*
X48033Y122742D01*
X48618Y121980D01*
X49380Y121395D01*
X50268Y121027D01*
X51221Y120902D01*
X53780D01*
X54732Y121027D01*
X55620Y121395D01*
X56382Y121980D01*
X56967Y122742D01*
X57335Y123630D01*
X57461Y124583D01*
X57335Y125535D01*
X56967Y126423D01*
X56382Y127186D01*
X55620Y127771D01*
X54732Y128138D01*
X53780Y128264D01*
X51221D01*
X50268Y128138D01*
X49380Y127771D01*
X48618Y127186D01*
X48033Y126423D01*
X48021Y126394D01*
X47521D01*
X47404Y126675D01*
X46739Y127542D01*
X45872Y128207D01*
X44863Y128626D01*
X43780Y128768D01*
D02*
G37*
G36*
X42000Y124083D02*
X37101D01*
X37178Y123499D01*
X37596Y122490D01*
X38261Y121623D01*
X39128Y120958D01*
X40137Y120540D01*
X41221Y120397D01*
X42000D01*
Y124083D01*
D02*
G37*
G36*
X91350Y118348D02*
Y116500D01*
X93198D01*
X93111Y116936D01*
X92580Y117730D01*
X91786Y118261D01*
X91350Y118348D01*
D02*
G37*
G36*
X90350D02*
X89914Y118261D01*
X89120Y117730D01*
X88589Y116936D01*
X88502Y116500D01*
X90350D01*
Y118348D01*
D02*
G37*
G36*
X53780Y118264D02*
X51221D01*
X50268Y118138D01*
X49380Y117771D01*
X48618Y117186D01*
X48033Y116423D01*
X47771Y115791D01*
X47229D01*
X46968Y116423D01*
X46382Y117186D01*
X45620Y117771D01*
X44732Y118138D01*
X43780Y118264D01*
X41221D01*
X40268Y118138D01*
X39380Y117771D01*
X38618Y117186D01*
X38032Y116423D01*
X37665Y115535D01*
X37539Y114583D01*
X37665Y113630D01*
X38032Y112742D01*
X38618Y111980D01*
X39380Y111395D01*
X40141Y111080D01*
X40235Y110706D01*
X40217Y110529D01*
X39770Y110230D01*
X39239Y109436D01*
X39152Y109000D01*
X43848D01*
X43761Y109436D01*
X43230Y110230D01*
X42974Y110402D01*
X43126Y110902D01*
X43780D01*
X44732Y111027D01*
X45620Y111395D01*
X46382Y111980D01*
X46968Y112742D01*
X47229Y113374D01*
X47771D01*
X48033Y112742D01*
X48618Y111980D01*
X49380Y111395D01*
X50268Y111027D01*
X51221Y110902D01*
X53780D01*
X54732Y111027D01*
X55620Y111395D01*
X56382Y111980D01*
X56967Y112742D01*
X57335Y113630D01*
X57461Y114583D01*
X57335Y115535D01*
X56967Y116423D01*
X56382Y117186D01*
X55620Y117771D01*
X54732Y118138D01*
X53780Y118264D01*
D02*
G37*
G36*
X93198Y115500D02*
X91350D01*
Y113652D01*
X91786Y113739D01*
X92580Y114270D01*
X93111Y115064D01*
X93198Y115500D01*
D02*
G37*
G36*
X90350D02*
X88502D01*
X88589Y115064D01*
X89120Y114270D01*
X89914Y113739D01*
X90350Y113652D01*
Y115500D01*
D02*
G37*
G36*
X267000Y110848D02*
Y109000D01*
X268848D01*
X268761Y109436D01*
X268230Y110230D01*
X267436Y110761D01*
X267000Y110848D01*
D02*
G37*
G36*
X266000D02*
X265564Y110761D01*
X264770Y110230D01*
X264239Y109436D01*
X264152Y109000D01*
X266000D01*
Y110848D01*
D02*
G37*
G36*
X252000D02*
Y109000D01*
X253848D01*
X253761Y109436D01*
X253230Y110230D01*
X252436Y110761D01*
X252000Y110848D01*
D02*
G37*
G36*
X251000D02*
X250564Y110761D01*
X249770Y110230D01*
X249239Y109436D01*
X249152Y109000D01*
X251000D01*
Y110848D01*
D02*
G37*
G36*
X237000D02*
Y109000D01*
X238848D01*
X238761Y109436D01*
X238230Y110230D01*
X237436Y110761D01*
X237000Y110848D01*
D02*
G37*
G36*
X236000D02*
X235564Y110761D01*
X234770Y110230D01*
X234239Y109436D01*
X234152Y109000D01*
X236000D01*
Y110848D01*
D02*
G37*
G36*
X147000D02*
Y109000D01*
X148848D01*
X148761Y109436D01*
X148230Y110230D01*
X147436Y110761D01*
X147000Y110848D01*
D02*
G37*
G36*
X146000D02*
X145564Y110761D01*
X144770Y110230D01*
X144239Y109436D01*
X144152Y109000D01*
X146000D01*
Y110848D01*
D02*
G37*
G36*
X132000D02*
Y109000D01*
X133848D01*
X133761Y109436D01*
X133230Y110230D01*
X132436Y110761D01*
X132000Y110848D01*
D02*
G37*
G36*
X131000D02*
X130564Y110761D01*
X129770Y110230D01*
X129239Y109436D01*
X129152Y109000D01*
X131000D01*
Y110848D01*
D02*
G37*
G36*
X117000D02*
Y109000D01*
X118848D01*
X118761Y109436D01*
X118230Y110230D01*
X117436Y110761D01*
X117000Y110848D01*
D02*
G37*
G36*
X116000D02*
X115564Y110761D01*
X114770Y110230D01*
X114239Y109436D01*
X114152Y109000D01*
X116000D01*
Y110848D01*
D02*
G37*
G36*
X102000D02*
Y109000D01*
X103848D01*
X103761Y109436D01*
X103230Y110230D01*
X102436Y110761D01*
X102000Y110848D01*
D02*
G37*
G36*
X101000D02*
X100564Y110761D01*
X99770Y110230D01*
X99239Y109436D01*
X99152Y109000D01*
X101000D01*
Y110848D01*
D02*
G37*
G36*
X72000D02*
Y109000D01*
X73848D01*
X73761Y109436D01*
X73230Y110230D01*
X72436Y110761D01*
X72000Y110848D01*
D02*
G37*
G36*
X71000D02*
X70564Y110761D01*
X69770Y110230D01*
X69239Y109436D01*
X69152Y109000D01*
X71000D01*
Y110848D01*
D02*
G37*
G36*
X27000D02*
Y109000D01*
X28848D01*
X28761Y109436D01*
X28230Y110230D01*
X27436Y110761D01*
X27000Y110848D01*
D02*
G37*
G36*
X26000D02*
X25564Y110761D01*
X24770Y110230D01*
X24239Y109436D01*
X24152Y109000D01*
X26000D01*
Y110848D01*
D02*
G37*
G36*
X268848Y108000D02*
X267000D01*
Y106152D01*
X267436Y106239D01*
X268230Y106770D01*
X268761Y107564D01*
X268848Y108000D01*
D02*
G37*
G36*
X266000D02*
X264152D01*
X264239Y107564D01*
X264770Y106770D01*
X265564Y106239D01*
X266000Y106152D01*
Y108000D01*
D02*
G37*
G36*
X253848D02*
X252000D01*
Y106152D01*
X252436Y106239D01*
X253230Y106770D01*
X253761Y107564D01*
X253848Y108000D01*
D02*
G37*
G36*
X251000D02*
X249152D01*
X249239Y107564D01*
X249770Y106770D01*
X250564Y106239D01*
X251000Y106152D01*
Y108000D01*
D02*
G37*
G36*
X238848D02*
X237000D01*
Y106152D01*
X237436Y106239D01*
X238230Y106770D01*
X238761Y107564D01*
X238848Y108000D01*
D02*
G37*
G36*
X236000D02*
X234152D01*
X234239Y107564D01*
X234770Y106770D01*
X235564Y106239D01*
X236000Y106152D01*
Y108000D01*
D02*
G37*
G36*
X148848D02*
X147000D01*
Y106152D01*
X147436Y106239D01*
X148230Y106770D01*
X148761Y107564D01*
X148848Y108000D01*
D02*
G37*
G36*
X146000D02*
X144152D01*
X144239Y107564D01*
X144770Y106770D01*
X145564Y106239D01*
X146000Y106152D01*
Y108000D01*
D02*
G37*
G36*
X133848D02*
X132000D01*
Y106152D01*
X132436Y106239D01*
X133230Y106770D01*
X133761Y107564D01*
X133848Y108000D01*
D02*
G37*
G36*
X131000D02*
X129152D01*
X129239Y107564D01*
X129770Y106770D01*
X130564Y106239D01*
X131000Y106152D01*
Y108000D01*
D02*
G37*
G36*
X118848D02*
X117000D01*
Y106152D01*
X117436Y106239D01*
X118230Y106770D01*
X118761Y107564D01*
X118848Y108000D01*
D02*
G37*
G36*
X116000D02*
X114152D01*
X114239Y107564D01*
X114770Y106770D01*
X115564Y106239D01*
X116000Y106152D01*
Y108000D01*
D02*
G37*
G36*
X103848D02*
X102000D01*
Y106152D01*
X102436Y106239D01*
X103230Y106770D01*
X103761Y107564D01*
X103848Y108000D01*
D02*
G37*
G36*
X101000D02*
X99152D01*
X99239Y107564D01*
X99770Y106770D01*
X100564Y106239D01*
X101000Y106152D01*
Y108000D01*
D02*
G37*
G36*
X73848D02*
X72000D01*
Y106152D01*
X72436Y106239D01*
X73230Y106770D01*
X73761Y107564D01*
X73848Y108000D01*
D02*
G37*
G36*
X71000D02*
X69152D01*
X69239Y107564D01*
X69770Y106770D01*
X70564Y106239D01*
X71000Y106152D01*
Y108000D01*
D02*
G37*
G36*
X43848D02*
X42000D01*
Y106152D01*
X42436Y106239D01*
X43230Y106770D01*
X43761Y107564D01*
X43848Y108000D01*
D02*
G37*
G36*
X41000D02*
X39152D01*
X39239Y107564D01*
X39770Y106770D01*
X40564Y106239D01*
X41000Y106152D01*
Y108000D01*
D02*
G37*
G36*
X28848D02*
X27000D01*
Y106152D01*
X27436Y106239D01*
X28230Y106770D01*
X28761Y107564D01*
X28848Y108000D01*
D02*
G37*
G36*
X26000D02*
X24152D01*
X24239Y107564D01*
X24770Y106770D01*
X25564Y106239D01*
X26000Y106152D01*
Y108000D01*
D02*
G37*
G36*
X43780Y98768D02*
X43000D01*
Y95083D01*
X47899D01*
X47822Y95666D01*
X47404Y96675D01*
X46739Y97542D01*
X45872Y98207D01*
X44863Y98625D01*
X43780Y98768D01*
D02*
G37*
G36*
X42000D02*
X41221D01*
X40137Y98625D01*
X39128Y98207D01*
X38261Y97542D01*
X37596Y96675D01*
X37178Y95666D01*
X37101Y95083D01*
X42000D01*
Y98768D01*
D02*
G37*
G36*
X259500Y95848D02*
Y94000D01*
X261348D01*
X261261Y94436D01*
X260730Y95230D01*
X259936Y95761D01*
X259500Y95848D01*
D02*
G37*
G36*
X258500D02*
X258064Y95761D01*
X257270Y95230D01*
X256739Y94436D01*
X256652Y94000D01*
X258500D01*
Y95848D01*
D02*
G37*
G36*
X229500D02*
Y94000D01*
X231348D01*
X231261Y94436D01*
X230730Y95230D01*
X229936Y95761D01*
X229500Y95848D01*
D02*
G37*
G36*
X228500D02*
X228064Y95761D01*
X227270Y95230D01*
X226739Y94436D01*
X226652Y94000D01*
X228500D01*
Y95848D01*
D02*
G37*
G36*
X169500D02*
Y94000D01*
X171348D01*
X171261Y94436D01*
X170730Y95230D01*
X169936Y95761D01*
X169500Y95848D01*
D02*
G37*
G36*
X168500D02*
X168064Y95761D01*
X167270Y95230D01*
X166739Y94436D01*
X166652Y94000D01*
X168500D01*
Y95848D01*
D02*
G37*
G36*
X139500D02*
Y94000D01*
X141348D01*
X141261Y94436D01*
X140730Y95230D01*
X139936Y95761D01*
X139500Y95848D01*
D02*
G37*
G36*
X138500D02*
X138064Y95761D01*
X137270Y95230D01*
X136739Y94436D01*
X136652Y94000D01*
X138500D01*
Y95848D01*
D02*
G37*
G36*
X125100D02*
Y94000D01*
X126948D01*
X126861Y94436D01*
X126330Y95230D01*
X125536Y95761D01*
X125100Y95848D01*
D02*
G37*
G36*
X124100D02*
X123664Y95761D01*
X122870Y95230D01*
X122339Y94436D01*
X122252Y94000D01*
X124100D01*
Y95848D01*
D02*
G37*
G36*
X79500D02*
Y94000D01*
X81348D01*
X81261Y94436D01*
X80730Y95230D01*
X79936Y95761D01*
X79500Y95848D01*
D02*
G37*
G36*
X78500D02*
X78064Y95761D01*
X77270Y95230D01*
X76739Y94436D01*
X76652Y94000D01*
X78500D01*
Y95848D01*
D02*
G37*
G36*
X64500D02*
Y94000D01*
X66348D01*
X66261Y94436D01*
X65730Y95230D01*
X64936Y95761D01*
X64500Y95848D01*
D02*
G37*
G36*
X63500D02*
X63064Y95761D01*
X62270Y95230D01*
X61739Y94436D01*
X61652Y94000D01*
X63500D01*
Y95848D01*
D02*
G37*
G36*
X34500D02*
Y94000D01*
X36348D01*
X36261Y94436D01*
X35730Y95230D01*
X34936Y95761D01*
X34500Y95848D01*
D02*
G37*
G36*
X33500D02*
X33064Y95761D01*
X32270Y95230D01*
X31739Y94436D01*
X31652Y94000D01*
X33500D01*
Y95848D01*
D02*
G37*
G36*
X19500D02*
Y94000D01*
X21348D01*
X21261Y94436D01*
X20730Y95230D01*
X19936Y95761D01*
X19500Y95848D01*
D02*
G37*
G36*
X18500D02*
X18064Y95761D01*
X17270Y95230D01*
X16739Y94436D01*
X16652Y94000D01*
X18500D01*
Y95848D01*
D02*
G37*
G36*
X4500D02*
Y94000D01*
X6348D01*
X6261Y94436D01*
X5730Y95230D01*
X4936Y95761D01*
X4500Y95848D01*
D02*
G37*
G36*
X3500D02*
X3064Y95761D01*
X2270Y95230D01*
X1739Y94436D01*
X1652Y94000D01*
X3500D01*
Y95848D01*
D02*
G37*
G36*
X261348Y93000D02*
X259500D01*
Y91152D01*
X259936Y91239D01*
X260730Y91770D01*
X261261Y92564D01*
X261348Y93000D01*
D02*
G37*
G36*
X258500D02*
X256652D01*
X256739Y92564D01*
X257270Y91770D01*
X258064Y91239D01*
X258500Y91152D01*
Y93000D01*
D02*
G37*
G36*
X231348D02*
X229500D01*
Y91152D01*
X229936Y91239D01*
X230730Y91770D01*
X231261Y92564D01*
X231348Y93000D01*
D02*
G37*
G36*
X228500D02*
X226652D01*
X226739Y92564D01*
X227270Y91770D01*
X228064Y91239D01*
X228500Y91152D01*
Y93000D01*
D02*
G37*
G36*
X171348D02*
X169500D01*
Y91152D01*
X169936Y91239D01*
X170730Y91770D01*
X171261Y92564D01*
X171348Y93000D01*
D02*
G37*
G36*
X168500D02*
X166652D01*
X166739Y92564D01*
X167270Y91770D01*
X168064Y91239D01*
X168500Y91152D01*
Y93000D01*
D02*
G37*
G36*
X141348D02*
X139500D01*
Y91152D01*
X139936Y91239D01*
X140730Y91770D01*
X141261Y92564D01*
X141348Y93000D01*
D02*
G37*
G36*
X138500D02*
X136652D01*
X136739Y92564D01*
X137270Y91770D01*
X138064Y91239D01*
X138500Y91152D01*
Y93000D01*
D02*
G37*
G36*
X126948D02*
X125100D01*
Y91152D01*
X125536Y91239D01*
X126330Y91770D01*
X126861Y92564D01*
X126948Y93000D01*
D02*
G37*
G36*
X124100D02*
X122252D01*
X122339Y92564D01*
X122870Y91770D01*
X123664Y91239D01*
X124100Y91152D01*
Y93000D01*
D02*
G37*
G36*
X81348D02*
X79500D01*
Y91152D01*
X79936Y91239D01*
X80730Y91770D01*
X81261Y92564D01*
X81348Y93000D01*
D02*
G37*
G36*
X78500D02*
X76652D01*
X76739Y92564D01*
X77270Y91770D01*
X78064Y91239D01*
X78500Y91152D01*
Y93000D01*
D02*
G37*
G36*
X66348D02*
X64500D01*
Y91152D01*
X64936Y91239D01*
X65730Y91770D01*
X66261Y92564D01*
X66348Y93000D01*
D02*
G37*
G36*
X63500D02*
X61652D01*
X61739Y92564D01*
X62270Y91770D01*
X63064Y91239D01*
X63500Y91152D01*
Y93000D01*
D02*
G37*
G36*
X36348D02*
X34500D01*
Y91152D01*
X34936Y91239D01*
X35730Y91770D01*
X36261Y92564D01*
X36348Y93000D01*
D02*
G37*
G36*
X33500D02*
X31652D01*
X31739Y92564D01*
X32270Y91770D01*
X33064Y91239D01*
X33500Y91152D01*
Y93000D01*
D02*
G37*
G36*
X21348D02*
X19500D01*
Y91152D01*
X19936Y91239D01*
X20730Y91770D01*
X21261Y92564D01*
X21348Y93000D01*
D02*
G37*
G36*
X18500D02*
X16652D01*
X16739Y92564D01*
X17270Y91770D01*
X18064Y91239D01*
X18500Y91152D01*
Y93000D01*
D02*
G37*
G36*
X6348D02*
X4500D01*
Y91152D01*
X4936Y91239D01*
X5730Y91770D01*
X6261Y92564D01*
X6348Y93000D01*
D02*
G37*
G36*
X3500D02*
X1652D01*
X1739Y92564D01*
X2270Y91770D01*
X3064Y91239D01*
X3500Y91152D01*
Y93000D01*
D02*
G37*
G36*
X47899Y94083D02*
X43000D01*
Y90397D01*
X43780D01*
X44863Y90540D01*
X45872Y90958D01*
X46739Y91623D01*
X47404Y92490D01*
X47822Y93499D01*
X47899Y94083D01*
D02*
G37*
G36*
X42000D02*
X37101D01*
X37178Y93499D01*
X37596Y92490D01*
X38261Y91623D01*
X39128Y90958D01*
X40137Y90540D01*
X41221Y90397D01*
X42000D01*
Y94083D01*
D02*
G37*
G36*
X247000Y91026D02*
X246217Y90923D01*
X245487Y90620D01*
X244860Y90140D01*
X244379Y89513D01*
X244077Y88783D01*
X244075Y88770D01*
X211721D01*
X211620Y89013D01*
X211140Y89640D01*
X210513Y90121D01*
X209783Y90423D01*
X209000Y90526D01*
X208217Y90423D01*
X207487Y90121D01*
X206860Y89640D01*
X206380Y89013D01*
X206077Y88283D01*
X205974Y87500D01*
X206077Y86717D01*
X206380Y85987D01*
X206860Y85360D01*
X207487Y84879D01*
X208217Y84577D01*
X209000Y84474D01*
X209783Y84577D01*
X210513Y84879D01*
X211140Y85360D01*
X211620Y85987D01*
X211923Y86717D01*
X211925Y86730D01*
X244279D01*
X244379Y86487D01*
X244860Y85860D01*
X245487Y85379D01*
X246217Y85077D01*
X247000Y84974D01*
X247783Y85077D01*
X248513Y85379D01*
X249140Y85860D01*
X249621Y86487D01*
X249923Y87217D01*
X250026Y88000D01*
X249923Y88783D01*
X249621Y89513D01*
X249140Y90140D01*
X248513Y90620D01*
X247783Y90923D01*
X247000Y91026D01*
D02*
G37*
G36*
X43780Y88768D02*
X43000D01*
Y85083D01*
X47899D01*
X47822Y85666D01*
X47404Y86675D01*
X46739Y87542D01*
X45872Y88207D01*
X44863Y88626D01*
X43780Y88768D01*
D02*
G37*
G36*
X42000D02*
X41221D01*
X40137Y88626D01*
X39128Y88207D01*
X38261Y87542D01*
X37596Y86675D01*
X37178Y85666D01*
X37101Y85083D01*
X42000D01*
Y88768D01*
D02*
G37*
G36*
X47899Y84083D02*
X43000D01*
Y80397D01*
X43780D01*
X44863Y80540D01*
X45872Y80958D01*
X46739Y81623D01*
X47404Y82490D01*
X47822Y83499D01*
X47899Y84083D01*
D02*
G37*
G36*
X42000D02*
X37101D01*
X37178Y83499D01*
X37596Y82490D01*
X38261Y81623D01*
X39128Y80958D01*
X40137Y80540D01*
X41221Y80397D01*
X42000D01*
Y84083D01*
D02*
G37*
G36*
X267000Y80848D02*
Y79000D01*
X268848D01*
X268761Y79436D01*
X268230Y80230D01*
X267436Y80761D01*
X267000Y80848D01*
D02*
G37*
G36*
X266000D02*
X265564Y80761D01*
X264770Y80230D01*
X264239Y79436D01*
X264152Y79000D01*
X266000D01*
Y80848D01*
D02*
G37*
G36*
X252000D02*
Y79000D01*
X253848D01*
X253761Y79436D01*
X253230Y80230D01*
X252436Y80761D01*
X252000Y80848D01*
D02*
G37*
G36*
X251000D02*
X250564Y80761D01*
X249770Y80230D01*
X249239Y79436D01*
X249152Y79000D01*
X251000D01*
Y80848D01*
D02*
G37*
G36*
X237000D02*
Y79000D01*
X238848D01*
X238761Y79436D01*
X238230Y80230D01*
X237436Y80761D01*
X237000Y80848D01*
D02*
G37*
G36*
X236000D02*
X235564Y80761D01*
X234770Y80230D01*
X234239Y79436D01*
X234152Y79000D01*
X236000D01*
Y80848D01*
D02*
G37*
G36*
X207000D02*
Y79000D01*
X208848D01*
X208761Y79436D01*
X208230Y80230D01*
X207436Y80761D01*
X207000Y80848D01*
D02*
G37*
G36*
X206000D02*
X205564Y80761D01*
X204770Y80230D01*
X204239Y79436D01*
X204152Y79000D01*
X206000D01*
Y80848D01*
D02*
G37*
G36*
X177000D02*
Y79000D01*
X178848D01*
X178761Y79436D01*
X178230Y80230D01*
X177436Y80761D01*
X177000Y80848D01*
D02*
G37*
G36*
X176000D02*
X175564Y80761D01*
X174770Y80230D01*
X174239Y79436D01*
X174152Y79000D01*
X176000D01*
Y80848D01*
D02*
G37*
G36*
X162000D02*
Y79000D01*
X163848D01*
X163761Y79436D01*
X163230Y80230D01*
X162436Y80761D01*
X162000Y80848D01*
D02*
G37*
G36*
X161000D02*
X160564Y80761D01*
X159770Y80230D01*
X159239Y79436D01*
X159152Y79000D01*
X161000D01*
Y80848D01*
D02*
G37*
G36*
X147000D02*
Y79000D01*
X148848D01*
X148761Y79436D01*
X148230Y80230D01*
X147436Y80761D01*
X147000Y80848D01*
D02*
G37*
G36*
X146000D02*
X145564Y80761D01*
X144770Y80230D01*
X144239Y79436D01*
X144152Y79000D01*
X146000D01*
Y80848D01*
D02*
G37*
G36*
X132000D02*
Y79000D01*
X133848D01*
X133761Y79436D01*
X133230Y80230D01*
X132436Y80761D01*
X132000Y80848D01*
D02*
G37*
G36*
X131000D02*
X130564Y80761D01*
X129770Y80230D01*
X129239Y79436D01*
X129152Y79000D01*
X131000D01*
Y80848D01*
D02*
G37*
G36*
X117000D02*
Y79000D01*
X118848D01*
X118761Y79436D01*
X118230Y80230D01*
X117436Y80761D01*
X117000Y80848D01*
D02*
G37*
G36*
X116000D02*
X115564Y80761D01*
X114770Y80230D01*
X114239Y79436D01*
X114152Y79000D01*
X116000D01*
Y80848D01*
D02*
G37*
G36*
X72000D02*
Y79000D01*
X73848D01*
X73761Y79436D01*
X73230Y80230D01*
X72436Y80761D01*
X72000Y80848D01*
D02*
G37*
G36*
X71000D02*
X70564Y80761D01*
X69770Y80230D01*
X69239Y79436D01*
X69152Y79000D01*
X71000D01*
Y80848D01*
D02*
G37*
G36*
X57000D02*
Y79000D01*
X58848D01*
X58761Y79436D01*
X58230Y80230D01*
X57436Y80761D01*
X57000Y80848D01*
D02*
G37*
G36*
X56000D02*
X55564Y80761D01*
X54770Y80230D01*
X54239Y79436D01*
X54152Y79000D01*
X56000D01*
Y80848D01*
D02*
G37*
G36*
X27000D02*
Y79000D01*
X28848D01*
X28761Y79436D01*
X28230Y80230D01*
X27436Y80761D01*
X27000Y80848D01*
D02*
G37*
G36*
X26000D02*
X25564Y80761D01*
X24770Y80230D01*
X24239Y79436D01*
X24152Y79000D01*
X26000D01*
Y80848D01*
D02*
G37*
G36*
X268848Y78000D02*
X267000D01*
Y76152D01*
X267436Y76239D01*
X268230Y76770D01*
X268761Y77564D01*
X268848Y78000D01*
D02*
G37*
G36*
X266000D02*
X264152D01*
X264239Y77564D01*
X264770Y76770D01*
X265564Y76239D01*
X266000Y76152D01*
Y78000D01*
D02*
G37*
G36*
X253848D02*
X252000D01*
Y76152D01*
X252436Y76239D01*
X253230Y76770D01*
X253761Y77564D01*
X253848Y78000D01*
D02*
G37*
G36*
X251000D02*
X249152D01*
X249239Y77564D01*
X249770Y76770D01*
X250564Y76239D01*
X251000Y76152D01*
Y78000D01*
D02*
G37*
G36*
X238848D02*
X237000D01*
Y76152D01*
X237436Y76239D01*
X238230Y76770D01*
X238761Y77564D01*
X238848Y78000D01*
D02*
G37*
G36*
X236000D02*
X234152D01*
X234239Y77564D01*
X234770Y76770D01*
X235564Y76239D01*
X236000Y76152D01*
Y78000D01*
D02*
G37*
G36*
X208848D02*
X207000D01*
Y76152D01*
X207436Y76239D01*
X208230Y76770D01*
X208761Y77564D01*
X208848Y78000D01*
D02*
G37*
G36*
X206000D02*
X204152D01*
X204239Y77564D01*
X204770Y76770D01*
X205564Y76239D01*
X206000Y76152D01*
Y78000D01*
D02*
G37*
G36*
X178848D02*
X177000D01*
Y76152D01*
X177436Y76239D01*
X178230Y76770D01*
X178761Y77564D01*
X178848Y78000D01*
D02*
G37*
G36*
X176000D02*
X174152D01*
X174239Y77564D01*
X174770Y76770D01*
X175564Y76239D01*
X176000Y76152D01*
Y78000D01*
D02*
G37*
G36*
X163848D02*
X162000D01*
Y76152D01*
X162436Y76239D01*
X163230Y76770D01*
X163761Y77564D01*
X163848Y78000D01*
D02*
G37*
G36*
X161000D02*
X159152D01*
X159239Y77564D01*
X159770Y76770D01*
X160564Y76239D01*
X161000Y76152D01*
Y78000D01*
D02*
G37*
G36*
X148848D02*
X147000D01*
Y76152D01*
X147436Y76239D01*
X148230Y76770D01*
X148761Y77564D01*
X148848Y78000D01*
D02*
G37*
G36*
X146000D02*
X144152D01*
X144239Y77564D01*
X144770Y76770D01*
X145564Y76239D01*
X146000Y76152D01*
Y78000D01*
D02*
G37*
G36*
X133848D02*
X132000D01*
Y76152D01*
X132436Y76239D01*
X133230Y76770D01*
X133761Y77564D01*
X133848Y78000D01*
D02*
G37*
G36*
X131000D02*
X129152D01*
X129239Y77564D01*
X129770Y76770D01*
X130564Y76239D01*
X131000Y76152D01*
Y78000D01*
D02*
G37*
G36*
X118848D02*
X117000D01*
Y76152D01*
X117436Y76239D01*
X118230Y76770D01*
X118761Y77564D01*
X118848Y78000D01*
D02*
G37*
G36*
X116000D02*
X114152D01*
X114239Y77564D01*
X114770Y76770D01*
X115564Y76239D01*
X116000Y76152D01*
Y78000D01*
D02*
G37*
G36*
X73848D02*
X72000D01*
Y76152D01*
X72436Y76239D01*
X73230Y76770D01*
X73761Y77564D01*
X73848Y78000D01*
D02*
G37*
G36*
X71000D02*
X69152D01*
X69239Y77564D01*
X69770Y76770D01*
X70564Y76239D01*
X71000Y76152D01*
Y78000D01*
D02*
G37*
G36*
X58848D02*
X57000D01*
Y76152D01*
X57436Y76239D01*
X58230Y76770D01*
X58761Y77564D01*
X58848Y78000D01*
D02*
G37*
G36*
X56000D02*
X54152D01*
X54239Y77564D01*
X54770Y76770D01*
X55564Y76239D01*
X56000Y76152D01*
Y78000D01*
D02*
G37*
G36*
X28848D02*
X27000D01*
Y76152D01*
X27436Y76239D01*
X28230Y76770D01*
X28761Y77564D01*
X28848Y78000D01*
D02*
G37*
G36*
X26000D02*
X24152D01*
X24239Y77564D01*
X24770Y76770D01*
X25564Y76239D01*
X26000Y76152D01*
Y78000D01*
D02*
G37*
G36*
X182500Y186526D02*
X181717Y186423D01*
X180987Y186120D01*
X180360Y185640D01*
X179879Y185013D01*
X179577Y184283D01*
X179474Y183500D01*
X179577Y182717D01*
X179879Y181987D01*
X180360Y181360D01*
X180987Y180879D01*
X181480Y180675D01*
Y81825D01*
X180987Y81621D01*
X180360Y81140D01*
X179879Y80513D01*
X179577Y79783D01*
X179474Y79000D01*
X179577Y78217D01*
X179879Y77487D01*
X180360Y76860D01*
X180987Y76380D01*
X181717Y76077D01*
X182500Y75974D01*
X183283Y76077D01*
X184013Y76380D01*
X184640Y76860D01*
X185120Y77487D01*
X185423Y78217D01*
X185526Y79000D01*
X185423Y79783D01*
X185120Y80513D01*
X184640Y81140D01*
X184013Y81621D01*
X183520Y81825D01*
Y180675D01*
X184013Y180879D01*
X184640Y181360D01*
X185120Y181987D01*
X185423Y182717D01*
X185526Y183500D01*
X185423Y184283D01*
X185120Y185013D01*
X184640Y185640D01*
X184013Y186120D01*
X183283Y186423D01*
X182500Y186526D01*
D02*
G37*
G36*
X43780Y78768D02*
X43000D01*
Y75083D01*
X47899D01*
X47822Y75666D01*
X47404Y76675D01*
X46739Y77542D01*
X45872Y78207D01*
X44863Y78626D01*
X43780Y78768D01*
D02*
G37*
G36*
X42000D02*
X41221D01*
X40137Y78626D01*
X39128Y78207D01*
X38261Y77542D01*
X37596Y76675D01*
X37178Y75666D01*
X37101Y75083D01*
X42000D01*
Y78768D01*
D02*
G37*
G36*
X47899Y74083D02*
X43000D01*
Y70397D01*
X43780D01*
X44863Y70540D01*
X45872Y70958D01*
X46739Y71623D01*
X47404Y72490D01*
X47822Y73499D01*
X47899Y74083D01*
D02*
G37*
G36*
X42000D02*
X37101D01*
X37178Y73499D01*
X37596Y72490D01*
X38261Y71623D01*
X39128Y70958D01*
X40137Y70540D01*
X41221Y70397D01*
X42000D01*
Y74083D01*
D02*
G37*
G36*
X43780Y68768D02*
X43000D01*
Y65083D01*
X47899D01*
X47822Y65666D01*
X47404Y66675D01*
X46739Y67542D01*
X45872Y68207D01*
X44863Y68625D01*
X43780Y68768D01*
D02*
G37*
G36*
X42000D02*
X41221D01*
X40137Y68625D01*
X39128Y68207D01*
X38261Y67542D01*
X37596Y66675D01*
X37178Y65666D01*
X37101Y65083D01*
X42000D01*
Y68768D01*
D02*
G37*
G36*
X20500Y67504D02*
Y64500D01*
X23504D01*
X23448Y64924D01*
X23092Y65785D01*
X22524Y66524D01*
X21785Y67092D01*
X20924Y67448D01*
X20500Y67504D01*
D02*
G37*
G36*
X19500D02*
X19076Y67448D01*
X18215Y67092D01*
X17476Y66524D01*
X16908Y65785D01*
X16552Y64924D01*
X16496Y64500D01*
X19500D01*
Y67504D01*
D02*
G37*
G36*
X259500Y65848D02*
Y64000D01*
X261348D01*
X261261Y64436D01*
X260730Y65230D01*
X259936Y65761D01*
X259500Y65848D01*
D02*
G37*
G36*
X258500D02*
X258064Y65761D01*
X257270Y65230D01*
X256739Y64436D01*
X256652Y64000D01*
X258500D01*
Y65848D01*
D02*
G37*
G36*
X244500D02*
Y64000D01*
X246348D01*
X246261Y64436D01*
X245730Y65230D01*
X244936Y65761D01*
X244500Y65848D01*
D02*
G37*
G36*
X243500D02*
X243064Y65761D01*
X242270Y65230D01*
X241739Y64436D01*
X241652Y64000D01*
X243500D01*
Y65848D01*
D02*
G37*
G36*
X214500D02*
Y64000D01*
X216348D01*
X216261Y64436D01*
X215730Y65230D01*
X214936Y65761D01*
X214500Y65848D01*
D02*
G37*
G36*
X213500D02*
X213064Y65761D01*
X212270Y65230D01*
X211739Y64436D01*
X211652Y64000D01*
X213500D01*
Y65848D01*
D02*
G37*
G36*
X184500D02*
Y64000D01*
X186348D01*
X186261Y64436D01*
X185730Y65230D01*
X184936Y65761D01*
X184500Y65848D01*
D02*
G37*
G36*
X183500D02*
X183064Y65761D01*
X182270Y65230D01*
X181739Y64436D01*
X181652Y64000D01*
X183500D01*
Y65848D01*
D02*
G37*
G36*
X169500D02*
Y64000D01*
X171348D01*
X171261Y64436D01*
X170730Y65230D01*
X169936Y65761D01*
X169500Y65848D01*
D02*
G37*
G36*
X168500D02*
X168064Y65761D01*
X167270Y65230D01*
X166739Y64436D01*
X166652Y64000D01*
X168500D01*
Y65848D01*
D02*
G37*
G36*
X154500D02*
Y64000D01*
X156348D01*
X156261Y64436D01*
X155730Y65230D01*
X154936Y65761D01*
X154500Y65848D01*
D02*
G37*
G36*
X153500D02*
X153064Y65761D01*
X152270Y65230D01*
X151739Y64436D01*
X151652Y64000D01*
X153500D01*
Y65848D01*
D02*
G37*
G36*
X139500D02*
Y64000D01*
X141348D01*
X141261Y64436D01*
X140730Y65230D01*
X139936Y65761D01*
X139500Y65848D01*
D02*
G37*
G36*
X138500D02*
X138064Y65761D01*
X137270Y65230D01*
X136739Y64436D01*
X136652Y64000D01*
X138500D01*
Y65848D01*
D02*
G37*
G36*
X124500D02*
Y64000D01*
X126348D01*
X126261Y64436D01*
X125730Y65230D01*
X124936Y65761D01*
X124500Y65848D01*
D02*
G37*
G36*
X123500D02*
X123064Y65761D01*
X122270Y65230D01*
X121739Y64436D01*
X121652Y64000D01*
X123500D01*
Y65848D01*
D02*
G37*
G36*
X109500D02*
Y64000D01*
X111348D01*
X111261Y64436D01*
X110730Y65230D01*
X109936Y65761D01*
X109500Y65848D01*
D02*
G37*
G36*
X108500D02*
X108064Y65761D01*
X107270Y65230D01*
X106739Y64436D01*
X106652Y64000D01*
X108500D01*
Y65848D01*
D02*
G37*
G36*
X64500D02*
Y64000D01*
X66348D01*
X66261Y64436D01*
X65730Y65230D01*
X64936Y65761D01*
X64500Y65848D01*
D02*
G37*
G36*
X63500D02*
X63064Y65761D01*
X62270Y65230D01*
X61739Y64436D01*
X61652Y64000D01*
X63500D01*
Y65848D01*
D02*
G37*
G36*
X34500D02*
Y64000D01*
X36348D01*
X36261Y64436D01*
X35730Y65230D01*
X34936Y65761D01*
X34500Y65848D01*
D02*
G37*
G36*
X33500D02*
X33064Y65761D01*
X32270Y65230D01*
X31739Y64436D01*
X31652Y64000D01*
X33500D01*
Y65848D01*
D02*
G37*
G36*
X4500D02*
Y64000D01*
X6348D01*
X6261Y64436D01*
X5730Y65230D01*
X4936Y65761D01*
X4500Y65848D01*
D02*
G37*
G36*
X3500D02*
X3064Y65761D01*
X2270Y65230D01*
X1739Y64436D01*
X1652Y64000D01*
X3500D01*
Y65848D01*
D02*
G37*
G36*
X261348Y63000D02*
X259500D01*
Y61152D01*
X259936Y61239D01*
X260730Y61770D01*
X261261Y62564D01*
X261348Y63000D01*
D02*
G37*
G36*
X258500D02*
X256652D01*
X256739Y62564D01*
X257270Y61770D01*
X258064Y61239D01*
X258500Y61152D01*
Y63000D01*
D02*
G37*
G36*
X246348D02*
X244500D01*
Y61152D01*
X244936Y61239D01*
X245730Y61770D01*
X246261Y62564D01*
X246348Y63000D01*
D02*
G37*
G36*
X243500D02*
X241652D01*
X241739Y62564D01*
X242270Y61770D01*
X243064Y61239D01*
X243500Y61152D01*
Y63000D01*
D02*
G37*
G36*
X216348D02*
X214500D01*
Y61152D01*
X214936Y61239D01*
X215730Y61770D01*
X216261Y62564D01*
X216348Y63000D01*
D02*
G37*
G36*
X213500D02*
X211652D01*
X211739Y62564D01*
X212270Y61770D01*
X213064Y61239D01*
X213500Y61152D01*
Y63000D01*
D02*
G37*
G36*
X186348D02*
X184500D01*
Y61152D01*
X184936Y61239D01*
X185730Y61770D01*
X186261Y62564D01*
X186348Y63000D01*
D02*
G37*
G36*
X183500D02*
X181652D01*
X181739Y62564D01*
X182270Y61770D01*
X183064Y61239D01*
X183500Y61152D01*
Y63000D01*
D02*
G37*
G36*
X171348D02*
X169500D01*
Y61152D01*
X169936Y61239D01*
X170730Y61770D01*
X171261Y62564D01*
X171348Y63000D01*
D02*
G37*
G36*
X168500D02*
X166652D01*
X166739Y62564D01*
X167270Y61770D01*
X168064Y61239D01*
X168500Y61152D01*
Y63000D01*
D02*
G37*
G36*
X156348D02*
X154500D01*
Y61152D01*
X154936Y61239D01*
X155730Y61770D01*
X156261Y62564D01*
X156348Y63000D01*
D02*
G37*
G36*
X153500D02*
X151652D01*
X151739Y62564D01*
X152270Y61770D01*
X153064Y61239D01*
X153500Y61152D01*
Y63000D01*
D02*
G37*
G36*
X141348D02*
X139500D01*
Y61152D01*
X139936Y61239D01*
X140730Y61770D01*
X141261Y62564D01*
X141348Y63000D01*
D02*
G37*
G36*
X138500D02*
X136652D01*
X136739Y62564D01*
X137270Y61770D01*
X138064Y61239D01*
X138500Y61152D01*
Y63000D01*
D02*
G37*
G36*
X126348D02*
X124500D01*
Y61152D01*
X124936Y61239D01*
X125730Y61770D01*
X126261Y62564D01*
X126348Y63000D01*
D02*
G37*
G36*
X123500D02*
X121652D01*
X121739Y62564D01*
X122270Y61770D01*
X123064Y61239D01*
X123500Y61152D01*
Y63000D01*
D02*
G37*
G36*
X111348D02*
X109500D01*
Y61152D01*
X109936Y61239D01*
X110730Y61770D01*
X111261Y62564D01*
X111348Y63000D01*
D02*
G37*
G36*
X108500D02*
X106652D01*
X106739Y62564D01*
X107270Y61770D01*
X108064Y61239D01*
X108500Y61152D01*
Y63000D01*
D02*
G37*
G36*
X66348D02*
X64500D01*
Y61152D01*
X64936Y61239D01*
X65730Y61770D01*
X66261Y62564D01*
X66348Y63000D01*
D02*
G37*
G36*
X63500D02*
X61652D01*
X61739Y62564D01*
X62270Y61770D01*
X63064Y61239D01*
X63500Y61152D01*
Y63000D01*
D02*
G37*
G36*
X36348D02*
X34500D01*
Y61152D01*
X34936Y61239D01*
X35730Y61770D01*
X36261Y62564D01*
X36348Y63000D01*
D02*
G37*
G36*
X33500D02*
X31652D01*
X31739Y62564D01*
X32270Y61770D01*
X33064Y61239D01*
X33500Y61152D01*
Y63000D01*
D02*
G37*
G36*
X6348D02*
X4500D01*
Y61152D01*
X4936Y61239D01*
X5730Y61770D01*
X6261Y62564D01*
X6348Y63000D01*
D02*
G37*
G36*
X3500D02*
X1652D01*
X1739Y62564D01*
X2270Y61770D01*
X3064Y61239D01*
X3500Y61152D01*
Y63000D01*
D02*
G37*
G36*
X23504Y63500D02*
X20500D01*
Y60496D01*
X20924Y60552D01*
X21785Y60908D01*
X22524Y61476D01*
X23092Y62215D01*
X23448Y63076D01*
X23504Y63500D01*
D02*
G37*
G36*
X19500D02*
X16496D01*
X16552Y63076D01*
X16908Y62215D01*
X17476Y61476D01*
X18215Y60908D01*
X19076Y60552D01*
X19500Y60496D01*
Y63500D01*
D02*
G37*
G36*
X47899Y64083D02*
X43000D01*
Y60397D01*
X43780D01*
X44863Y60540D01*
X45872Y60958D01*
X46739Y61623D01*
X47404Y62490D01*
X47822Y63499D01*
X47899Y64083D01*
D02*
G37*
G36*
X42000D02*
X37101D01*
X37178Y63499D01*
X37596Y62490D01*
X38261Y61623D01*
X39128Y60958D01*
X40137Y60540D01*
X41221Y60397D01*
X42000D01*
Y64083D01*
D02*
G37*
G36*
X30000Y57066D02*
X29207Y56961D01*
X28467Y56655D01*
X27832Y56168D01*
X27345Y55533D01*
X27039Y54793D01*
X26934Y54000D01*
X27039Y53207D01*
X27345Y52467D01*
X27832Y51832D01*
X28467Y51345D01*
X29207Y51039D01*
X30000Y50934D01*
X30793Y51039D01*
X31533Y51345D01*
X32168Y51832D01*
X32655Y52467D01*
X32961Y53207D01*
X33066Y54000D01*
X32961Y54793D01*
X32655Y55533D01*
X32168Y56168D01*
X31533Y56655D01*
X30793Y56961D01*
X30000Y57066D01*
D02*
G37*
G36*
X43780Y58264D02*
X41221D01*
X40268Y58138D01*
X39380Y57771D01*
X38618Y57186D01*
X38032Y56423D01*
X37665Y55535D01*
X37539Y54583D01*
X37665Y53630D01*
X38032Y52742D01*
X38618Y51980D01*
X39380Y51395D01*
X40268Y51027D01*
X41221Y50902D01*
X43780D01*
X44732Y51027D01*
X45620Y51395D01*
X46382Y51980D01*
X46968Y52742D01*
X47335Y53630D01*
X47461Y54583D01*
X47335Y55535D01*
X46968Y56423D01*
X46382Y57186D01*
X45620Y57771D01*
X44732Y58138D01*
X43780Y58264D01*
D02*
G37*
G36*
X267000Y50848D02*
Y49000D01*
X268848D01*
X268761Y49436D01*
X268230Y50230D01*
X267436Y50761D01*
X267000Y50848D01*
D02*
G37*
G36*
X266000D02*
X265564Y50761D01*
X264770Y50230D01*
X264239Y49436D01*
X264152Y49000D01*
X266000D01*
Y50848D01*
D02*
G37*
G36*
X252000D02*
Y49000D01*
X253848D01*
X253761Y49436D01*
X253230Y50230D01*
X252436Y50761D01*
X252000Y50848D01*
D02*
G37*
G36*
X251000D02*
X250564Y50761D01*
X249770Y50230D01*
X249239Y49436D01*
X249152Y49000D01*
X251000D01*
Y50848D01*
D02*
G37*
G36*
X237000D02*
Y49000D01*
X238848D01*
X238761Y49436D01*
X238230Y50230D01*
X237436Y50761D01*
X237000Y50848D01*
D02*
G37*
G36*
X236000D02*
X235564Y50761D01*
X234770Y50230D01*
X234239Y49436D01*
X234152Y49000D01*
X236000D01*
Y50848D01*
D02*
G37*
G36*
X132000D02*
Y49000D01*
X133848D01*
X133761Y49436D01*
X133230Y50230D01*
X132436Y50761D01*
X132000Y50848D01*
D02*
G37*
G36*
X131000D02*
X130564Y50761D01*
X129770Y50230D01*
X129239Y49436D01*
X129152Y49000D01*
X131000D01*
Y50848D01*
D02*
G37*
G36*
X117000D02*
Y49000D01*
X118848D01*
X118761Y49436D01*
X118230Y50230D01*
X117436Y50761D01*
X117000Y50848D01*
D02*
G37*
G36*
X116000D02*
X115564Y50761D01*
X114770Y50230D01*
X114239Y49436D01*
X114152Y49000D01*
X116000D01*
Y50848D01*
D02*
G37*
G36*
X72000D02*
Y49000D01*
X73848D01*
X73761Y49436D01*
X73230Y50230D01*
X72436Y50761D01*
X72000Y50848D01*
D02*
G37*
G36*
X71000D02*
X70564Y50761D01*
X69770Y50230D01*
X69239Y49436D01*
X69152Y49000D01*
X71000D01*
Y50848D01*
D02*
G37*
G36*
X57000D02*
Y49000D01*
X58848D01*
X58761Y49436D01*
X58230Y50230D01*
X57436Y50761D01*
X57000Y50848D01*
D02*
G37*
G36*
X56000D02*
X55564Y50761D01*
X54770Y50230D01*
X54239Y49436D01*
X54152Y49000D01*
X56000D01*
Y50848D01*
D02*
G37*
G36*
X27000D02*
Y49000D01*
X28848D01*
X28761Y49436D01*
X28230Y50230D01*
X27436Y50761D01*
X27000Y50848D01*
D02*
G37*
G36*
X26000D02*
X25564Y50761D01*
X24770Y50230D01*
X24239Y49436D01*
X24152Y49000D01*
X26000D01*
Y50848D01*
D02*
G37*
G36*
X28848Y48000D02*
X27000D01*
Y46152D01*
X27436Y46239D01*
X28230Y46770D01*
X28761Y47564D01*
X28848Y48000D01*
D02*
G37*
G36*
X26000D02*
X24152D01*
X24239Y47564D01*
X24770Y46770D01*
X25564Y46239D01*
X26000Y46152D01*
Y48000D01*
D02*
G37*
G36*
X268848D02*
X267000D01*
Y46152D01*
X267436Y46239D01*
X268230Y46770D01*
X268761Y47564D01*
X268848Y48000D01*
D02*
G37*
G36*
X266000D02*
X264152D01*
X264239Y47564D01*
X264770Y46770D01*
X265564Y46239D01*
X266000Y46152D01*
Y48000D01*
D02*
G37*
G36*
X253848D02*
X252000D01*
Y46152D01*
X252436Y46239D01*
X253230Y46770D01*
X253761Y47564D01*
X253848Y48000D01*
D02*
G37*
G36*
X251000D02*
X249152D01*
X249239Y47564D01*
X249770Y46770D01*
X250564Y46239D01*
X251000Y46152D01*
Y48000D01*
D02*
G37*
G36*
X238848D02*
X237000D01*
Y46152D01*
X237436Y46239D01*
X238230Y46770D01*
X238761Y47564D01*
X238848Y48000D01*
D02*
G37*
G36*
X236000D02*
X234152D01*
X234239Y47564D01*
X234770Y46770D01*
X235564Y46239D01*
X236000Y46152D01*
Y48000D01*
D02*
G37*
G36*
X133848D02*
X132000D01*
Y46152D01*
X132436Y46239D01*
X133230Y46770D01*
X133761Y47564D01*
X133848Y48000D01*
D02*
G37*
G36*
X131000D02*
X129152D01*
X129239Y47564D01*
X129770Y46770D01*
X130564Y46239D01*
X131000Y46152D01*
Y48000D01*
D02*
G37*
G36*
X118848D02*
X117000D01*
Y46152D01*
X117436Y46239D01*
X118230Y46770D01*
X118761Y47564D01*
X118848Y48000D01*
D02*
G37*
G36*
X116000D02*
X114152D01*
X114239Y47564D01*
X114770Y46770D01*
X115564Y46239D01*
X116000Y46152D01*
Y48000D01*
D02*
G37*
G36*
X73848D02*
X72000D01*
Y46152D01*
X72436Y46239D01*
X73230Y46770D01*
X73761Y47564D01*
X73848Y48000D01*
D02*
G37*
G36*
X71000D02*
X69152D01*
X69239Y47564D01*
X69770Y46770D01*
X70564Y46239D01*
X71000Y46152D01*
Y48000D01*
D02*
G37*
G36*
X58848D02*
X57000D01*
Y46152D01*
X57436Y46239D01*
X58230Y46770D01*
X58761Y47564D01*
X58848Y48000D01*
D02*
G37*
G36*
X56000D02*
X54152D01*
X54239Y47564D01*
X54770Y46770D01*
X55564Y46239D01*
X56000Y46152D01*
Y48000D01*
D02*
G37*
G36*
X43780Y48768D02*
X43000D01*
Y45083D01*
X47899D01*
X47822Y45666D01*
X47404Y46675D01*
X46739Y47542D01*
X45872Y48207D01*
X44863Y48625D01*
X43780Y48768D01*
D02*
G37*
G36*
X42000D02*
X41221D01*
X40137Y48625D01*
X39128Y48207D01*
X38261Y47542D01*
X37596Y46675D01*
X37178Y45666D01*
X37101Y45083D01*
X42000D01*
Y48768D01*
D02*
G37*
G36*
X20000Y47066D02*
X19207Y46961D01*
X18467Y46655D01*
X17832Y46168D01*
X17345Y45533D01*
X17039Y44793D01*
X16934Y44000D01*
X17039Y43207D01*
X17345Y42467D01*
X17832Y41832D01*
X18467Y41345D01*
X19207Y41039D01*
X20000Y40934D01*
X20793Y41039D01*
X21533Y41345D01*
X22168Y41832D01*
X22655Y42467D01*
X22961Y43207D01*
X23066Y44000D01*
X22961Y44793D01*
X22655Y45533D01*
X22168Y46168D01*
X21533Y46655D01*
X20793Y46961D01*
X20000Y47066D01*
D02*
G37*
G36*
X47899Y44083D02*
X43000D01*
Y40397D01*
X43780D01*
X44863Y40540D01*
X45872Y40958D01*
X46739Y41623D01*
X47404Y42490D01*
X47822Y43499D01*
X47899Y44083D01*
D02*
G37*
G36*
X42000D02*
X37101D01*
X37178Y43499D01*
X37596Y42490D01*
X38261Y41623D01*
X39128Y40958D01*
X40137Y40540D01*
X41221Y40397D01*
X42000D01*
Y44083D01*
D02*
G37*
G36*
X173000Y41818D02*
Y35083D01*
X179736D01*
X179645Y36004D01*
X179230Y37371D01*
X178557Y38630D01*
X177651Y39734D01*
X176547Y40640D01*
X175288Y41313D01*
X173921Y41728D01*
X173000Y41818D01*
D02*
G37*
G36*
X172000D02*
X171079Y41728D01*
X169712Y41313D01*
X168453Y40640D01*
X167349Y39734D01*
X166443Y38630D01*
X165770Y37371D01*
X165355Y36004D01*
X165264Y35083D01*
X172000D01*
Y41818D01*
D02*
G37*
G36*
X43780Y38768D02*
X43000D01*
Y35083D01*
X47899D01*
X47822Y35666D01*
X47404Y36675D01*
X46739Y37542D01*
X45872Y38207D01*
X44863Y38625D01*
X43780Y38768D01*
D02*
G37*
G36*
X42000D02*
X41221D01*
X40137Y38625D01*
X39128Y38207D01*
X38261Y37542D01*
X37596Y36675D01*
X37178Y35666D01*
X37101Y35083D01*
X42000D01*
Y38768D01*
D02*
G37*
G36*
X259500Y35848D02*
Y34000D01*
X261348D01*
X261261Y34436D01*
X260730Y35230D01*
X259936Y35761D01*
X259500Y35848D01*
D02*
G37*
G36*
X258500D02*
X258064Y35761D01*
X257270Y35230D01*
X256739Y34436D01*
X256652Y34000D01*
X258500D01*
Y35848D01*
D02*
G37*
G36*
X244500D02*
Y34000D01*
X246348D01*
X246261Y34436D01*
X245730Y35230D01*
X244936Y35761D01*
X244500Y35848D01*
D02*
G37*
G36*
X243500D02*
X243064Y35761D01*
X242270Y35230D01*
X241739Y34436D01*
X241652Y34000D01*
X243500D01*
Y35848D01*
D02*
G37*
G36*
X229500D02*
Y34000D01*
X231348D01*
X231261Y34436D01*
X230730Y35230D01*
X229936Y35761D01*
X229500Y35848D01*
D02*
G37*
G36*
X228500D02*
X228064Y35761D01*
X227270Y35230D01*
X226739Y34436D01*
X226652Y34000D01*
X228500D01*
Y35848D01*
D02*
G37*
G36*
X214500D02*
Y34000D01*
X216348D01*
X216261Y34436D01*
X215730Y35230D01*
X214936Y35761D01*
X214500Y35848D01*
D02*
G37*
G36*
X213500D02*
X213064Y35761D01*
X212270Y35230D01*
X211739Y34436D01*
X211652Y34000D01*
X213500D01*
Y35848D01*
D02*
G37*
G36*
X199500D02*
Y34000D01*
X201348D01*
X201261Y34436D01*
X200730Y35230D01*
X199936Y35761D01*
X199500Y35848D01*
D02*
G37*
G36*
X198500D02*
X198064Y35761D01*
X197270Y35230D01*
X196739Y34436D01*
X196652Y34000D01*
X198500D01*
Y35848D01*
D02*
G37*
G36*
X184500D02*
Y34000D01*
X186348D01*
X186261Y34436D01*
X185730Y35230D01*
X184936Y35761D01*
X184500Y35848D01*
D02*
G37*
G36*
X183500D02*
X183064Y35761D01*
X182270Y35230D01*
X181739Y34436D01*
X181652Y34000D01*
X183500D01*
Y35848D01*
D02*
G37*
G36*
X154500D02*
Y34000D01*
X156348D01*
X156261Y34436D01*
X155730Y35230D01*
X154936Y35761D01*
X154500Y35848D01*
D02*
G37*
G36*
X153500D02*
X153064Y35761D01*
X152270Y35230D01*
X151739Y34436D01*
X151652Y34000D01*
X153500D01*
Y35848D01*
D02*
G37*
G36*
X124500D02*
Y34000D01*
X126348D01*
X126261Y34436D01*
X125730Y35230D01*
X124936Y35761D01*
X124500Y35848D01*
D02*
G37*
G36*
X123500D02*
X123064Y35761D01*
X122270Y35230D01*
X121739Y34436D01*
X121652Y34000D01*
X123500D01*
Y35848D01*
D02*
G37*
G36*
X109500D02*
Y34000D01*
X111348D01*
X111261Y34436D01*
X110730Y35230D01*
X109936Y35761D01*
X109500Y35848D01*
D02*
G37*
G36*
X108500D02*
X108064Y35761D01*
X107270Y35230D01*
X106739Y34436D01*
X106652Y34000D01*
X108500D01*
Y35848D01*
D02*
G37*
G36*
X79500D02*
Y34000D01*
X81348D01*
X81261Y34436D01*
X80730Y35230D01*
X79936Y35761D01*
X79500Y35848D01*
D02*
G37*
G36*
X78500D02*
X78064Y35761D01*
X77270Y35230D01*
X76739Y34436D01*
X76652Y34000D01*
X78500D01*
Y35848D01*
D02*
G37*
G36*
X34500D02*
Y34000D01*
X36348D01*
X36261Y34436D01*
X35730Y35230D01*
X34936Y35761D01*
X34500Y35848D01*
D02*
G37*
G36*
X33500D02*
X33064Y35761D01*
X32270Y35230D01*
X31739Y34436D01*
X31652Y34000D01*
X33500D01*
Y35848D01*
D02*
G37*
G36*
X4500D02*
Y34000D01*
X6348D01*
X6261Y34436D01*
X5730Y35230D01*
X4936Y35761D01*
X4500Y35848D01*
D02*
G37*
G36*
X3500D02*
X3064Y35761D01*
X2270Y35230D01*
X1739Y34436D01*
X1652Y34000D01*
X3500D01*
Y35848D01*
D02*
G37*
G36*
X261348Y33000D02*
X259500D01*
Y31152D01*
X259936Y31239D01*
X260730Y31770D01*
X261261Y32564D01*
X261348Y33000D01*
D02*
G37*
G36*
X258500D02*
X256652D01*
X256739Y32564D01*
X257270Y31770D01*
X258064Y31239D01*
X258500Y31152D01*
Y33000D01*
D02*
G37*
G36*
X246348D02*
X244500D01*
Y31152D01*
X244936Y31239D01*
X245730Y31770D01*
X246261Y32564D01*
X246348Y33000D01*
D02*
G37*
G36*
X243500D02*
X241652D01*
X241739Y32564D01*
X242270Y31770D01*
X243064Y31239D01*
X243500Y31152D01*
Y33000D01*
D02*
G37*
G36*
X231348D02*
X229500D01*
Y31152D01*
X229936Y31239D01*
X230730Y31770D01*
X231261Y32564D01*
X231348Y33000D01*
D02*
G37*
G36*
X228500D02*
X226652D01*
X226739Y32564D01*
X227270Y31770D01*
X228064Y31239D01*
X228500Y31152D01*
Y33000D01*
D02*
G37*
G36*
X216348D02*
X214500D01*
Y31152D01*
X214936Y31239D01*
X215730Y31770D01*
X216261Y32564D01*
X216348Y33000D01*
D02*
G37*
G36*
X213500D02*
X211652D01*
X211739Y32564D01*
X212270Y31770D01*
X213064Y31239D01*
X213500Y31152D01*
Y33000D01*
D02*
G37*
G36*
X201348D02*
X199500D01*
Y31152D01*
X199936Y31239D01*
X200730Y31770D01*
X201261Y32564D01*
X201348Y33000D01*
D02*
G37*
G36*
X198500D02*
X196652D01*
X196739Y32564D01*
X197270Y31770D01*
X198064Y31239D01*
X198500Y31152D01*
Y33000D01*
D02*
G37*
G36*
X186348D02*
X184500D01*
Y31152D01*
X184936Y31239D01*
X185730Y31770D01*
X186261Y32564D01*
X186348Y33000D01*
D02*
G37*
G36*
X183500D02*
X181652D01*
X181739Y32564D01*
X182270Y31770D01*
X183064Y31239D01*
X183500Y31152D01*
Y33000D01*
D02*
G37*
G36*
X156348D02*
X154500D01*
Y31152D01*
X154936Y31239D01*
X155730Y31770D01*
X156261Y32564D01*
X156348Y33000D01*
D02*
G37*
G36*
X153500D02*
X151652D01*
X151739Y32564D01*
X152270Y31770D01*
X153064Y31239D01*
X153500Y31152D01*
Y33000D01*
D02*
G37*
G36*
X126348D02*
X124500D01*
Y31152D01*
X124936Y31239D01*
X125730Y31770D01*
X126261Y32564D01*
X126348Y33000D01*
D02*
G37*
G36*
X123500D02*
X121652D01*
X121739Y32564D01*
X122270Y31770D01*
X123064Y31239D01*
X123500Y31152D01*
Y33000D01*
D02*
G37*
G36*
X111348D02*
X109500D01*
Y31152D01*
X109936Y31239D01*
X110730Y31770D01*
X111261Y32564D01*
X111348Y33000D01*
D02*
G37*
G36*
X108500D02*
X106652D01*
X106739Y32564D01*
X107270Y31770D01*
X108064Y31239D01*
X108500Y31152D01*
Y33000D01*
D02*
G37*
G36*
X81348D02*
X79500D01*
Y31152D01*
X79936Y31239D01*
X80730Y31770D01*
X81261Y32564D01*
X81348Y33000D01*
D02*
G37*
G36*
X78500D02*
X76652D01*
X76739Y32564D01*
X77270Y31770D01*
X78064Y31239D01*
X78500Y31152D01*
Y33000D01*
D02*
G37*
G36*
X36348D02*
X34500D01*
Y31152D01*
X34936Y31239D01*
X35730Y31770D01*
X36261Y32564D01*
X36348Y33000D01*
D02*
G37*
G36*
X33500D02*
X31652D01*
X31739Y32564D01*
X32270Y31770D01*
X33064Y31239D01*
X33500Y31152D01*
Y33000D01*
D02*
G37*
G36*
X6348D02*
X4500D01*
Y31152D01*
X4936Y31239D01*
X5730Y31770D01*
X6261Y32564D01*
X6348Y33000D01*
D02*
G37*
G36*
X3500D02*
X1652D01*
X1739Y32564D01*
X2270Y31770D01*
X3064Y31239D01*
X3500Y31152D01*
Y33000D01*
D02*
G37*
G36*
X47899Y34083D02*
X43000D01*
Y30397D01*
X43780D01*
X44863Y30540D01*
X45872Y30958D01*
X46739Y31623D01*
X47404Y32490D01*
X47822Y33499D01*
X47899Y34083D01*
D02*
G37*
G36*
X42000D02*
X37101D01*
X37178Y33499D01*
X37596Y32490D01*
X38261Y31623D01*
X39128Y30958D01*
X40137Y30540D01*
X41221Y30397D01*
X42000D01*
Y34083D01*
D02*
G37*
G36*
X179736Y34083D02*
X173000D01*
Y27347D01*
X173921Y27438D01*
X175288Y27852D01*
X176547Y28525D01*
X177651Y29431D01*
X178557Y30535D01*
X179230Y31795D01*
X179645Y33161D01*
X179736Y34083D01*
D02*
G37*
G36*
X172000D02*
X165264D01*
X165355Y33161D01*
X165770Y31795D01*
X166443Y30535D01*
X167349Y29431D01*
X168453Y28525D01*
X169712Y27852D01*
X171079Y27438D01*
X172000Y27347D01*
Y34083D01*
D02*
G37*
G36*
X91350Y28348D02*
Y26500D01*
X93198D01*
X93111Y26936D01*
X92580Y27730D01*
X91786Y28261D01*
X91350Y28348D01*
D02*
G37*
G36*
X90350D02*
X89914Y28261D01*
X89120Y27730D01*
X88589Y26936D01*
X88502Y26500D01*
X90350D01*
Y28348D01*
D02*
G37*
G36*
X43780Y28768D02*
X43000D01*
Y25083D01*
X47899D01*
X47822Y25666D01*
X47404Y26675D01*
X46739Y27542D01*
X45872Y28207D01*
X44863Y28626D01*
X43780Y28768D01*
D02*
G37*
G36*
X42000D02*
X41221D01*
X40137Y28626D01*
X39128Y28207D01*
X38261Y27542D01*
X37596Y26675D01*
X37178Y25666D01*
X37101Y25083D01*
X42000D01*
Y28768D01*
D02*
G37*
G36*
X93198Y25500D02*
X91350D01*
Y23652D01*
X91786Y23739D01*
X92580Y24270D01*
X93111Y25064D01*
X93198Y25500D01*
D02*
G37*
G36*
X90350D02*
X88502D01*
X88589Y25064D01*
X89120Y24270D01*
X89914Y23739D01*
X90350Y23652D01*
Y25500D01*
D02*
G37*
G36*
X267000Y20848D02*
Y19000D01*
X268848D01*
X268761Y19436D01*
X268230Y20230D01*
X267436Y20761D01*
X267000Y20848D01*
D02*
G37*
G36*
X266000D02*
X265564Y20761D01*
X264770Y20230D01*
X264239Y19436D01*
X264152Y19000D01*
X266000D01*
Y20848D01*
D02*
G37*
G36*
X252000D02*
Y19000D01*
X253848D01*
X253761Y19436D01*
X253230Y20230D01*
X252436Y20761D01*
X252000Y20848D01*
D02*
G37*
G36*
X251000D02*
X250564Y20761D01*
X249770Y20230D01*
X249239Y19436D01*
X249152Y19000D01*
X251000D01*
Y20848D01*
D02*
G37*
G36*
X237000D02*
Y19000D01*
X238848D01*
X238761Y19436D01*
X238230Y20230D01*
X237436Y20761D01*
X237000Y20848D01*
D02*
G37*
G36*
X236000D02*
X235564Y20761D01*
X234770Y20230D01*
X234239Y19436D01*
X234152Y19000D01*
X236000D01*
Y20848D01*
D02*
G37*
G36*
X207000D02*
Y19000D01*
X208848D01*
X208761Y19436D01*
X208230Y20230D01*
X207436Y20761D01*
X207000Y20848D01*
D02*
G37*
G36*
X206000D02*
X205564Y20761D01*
X204770Y20230D01*
X204239Y19436D01*
X204152Y19000D01*
X206000D01*
Y20848D01*
D02*
G37*
G36*
X192000D02*
Y19000D01*
X193848D01*
X193761Y19436D01*
X193230Y20230D01*
X192436Y20761D01*
X192000Y20848D01*
D02*
G37*
G36*
X191000D02*
X190564Y20761D01*
X189770Y20230D01*
X189239Y19436D01*
X189152Y19000D01*
X191000D01*
Y20848D01*
D02*
G37*
G36*
X177000D02*
Y19000D01*
X178848D01*
X178761Y19436D01*
X178230Y20230D01*
X177436Y20761D01*
X177000Y20848D01*
D02*
G37*
G36*
X176000D02*
X175564Y20761D01*
X174770Y20230D01*
X174239Y19436D01*
X174152Y19000D01*
X176000D01*
Y20848D01*
D02*
G37*
G36*
X162000D02*
Y19000D01*
X163848D01*
X163761Y19436D01*
X163230Y20230D01*
X162436Y20761D01*
X162000Y20848D01*
D02*
G37*
G36*
X161000D02*
X160564Y20761D01*
X159770Y20230D01*
X159239Y19436D01*
X159152Y19000D01*
X161000D01*
Y20848D01*
D02*
G37*
G36*
X147000D02*
Y19000D01*
X148848D01*
X148761Y19436D01*
X148230Y20230D01*
X147436Y20761D01*
X147000Y20848D01*
D02*
G37*
G36*
X146000D02*
X145564Y20761D01*
X144770Y20230D01*
X144239Y19436D01*
X144152Y19000D01*
X146000D01*
Y20848D01*
D02*
G37*
G36*
X132000D02*
Y19000D01*
X133848D01*
X133761Y19436D01*
X133230Y20230D01*
X132436Y20761D01*
X132000Y20848D01*
D02*
G37*
G36*
X131000D02*
X130564Y20761D01*
X129770Y20230D01*
X129239Y19436D01*
X129152Y19000D01*
X131000D01*
Y20848D01*
D02*
G37*
G36*
X117000D02*
Y19000D01*
X118848D01*
X118761Y19436D01*
X118230Y20230D01*
X117436Y20761D01*
X117000Y20848D01*
D02*
G37*
G36*
X116000D02*
X115564Y20761D01*
X114770Y20230D01*
X114239Y19436D01*
X114152Y19000D01*
X116000D01*
Y20848D01*
D02*
G37*
G36*
X102000D02*
Y19000D01*
X103848D01*
X103761Y19436D01*
X103230Y20230D01*
X102436Y20761D01*
X102000Y20848D01*
D02*
G37*
G36*
X101000D02*
X100564Y20761D01*
X99770Y20230D01*
X99239Y19436D01*
X99152Y19000D01*
X101000D01*
Y20848D01*
D02*
G37*
G36*
X87000D02*
Y19000D01*
X88848D01*
X88761Y19436D01*
X88230Y20230D01*
X87436Y20761D01*
X87000Y20848D01*
D02*
G37*
G36*
X86000D02*
X85564Y20761D01*
X84770Y20230D01*
X84239Y19436D01*
X84152Y19000D01*
X86000D01*
Y20848D01*
D02*
G37*
G36*
X72000D02*
Y19000D01*
X73848D01*
X73761Y19436D01*
X73230Y20230D01*
X72436Y20761D01*
X72000Y20848D01*
D02*
G37*
G36*
X71000D02*
X70564Y20761D01*
X69770Y20230D01*
X69239Y19436D01*
X69152Y19000D01*
X71000D01*
Y20848D01*
D02*
G37*
G36*
X57000D02*
Y19000D01*
X58848D01*
X58761Y19436D01*
X58230Y20230D01*
X57436Y20761D01*
X57000Y20848D01*
D02*
G37*
G36*
X56000D02*
X55564Y20761D01*
X54770Y20230D01*
X54239Y19436D01*
X54152Y19000D01*
X56000D01*
Y20848D01*
D02*
G37*
G36*
X47899Y24083D02*
X42500D01*
X37101D01*
X37178Y23499D01*
X37596Y22490D01*
X38261Y21623D01*
X39128Y20958D01*
X39641Y20745D01*
X39728Y20398D01*
X39728Y20168D01*
X39239Y19436D01*
X39152Y19000D01*
X43848D01*
X43761Y19436D01*
X43453Y19897D01*
X43720Y20397D01*
X43780D01*
X44863Y20540D01*
X45872Y20958D01*
X46739Y21623D01*
X47404Y22490D01*
X47822Y23499D01*
X47899Y24083D01*
D02*
G37*
G36*
X12000Y20848D02*
Y19000D01*
X13848D01*
X13761Y19436D01*
X13230Y20230D01*
X12436Y20761D01*
X12000Y20848D01*
D02*
G37*
G36*
X11000D02*
X10564Y20761D01*
X9770Y20230D01*
X9239Y19436D01*
X9152Y19000D01*
X11000D01*
Y20848D01*
D02*
G37*
G36*
X268848Y18000D02*
X267000D01*
Y16152D01*
X267436Y16239D01*
X268230Y16770D01*
X268761Y17564D01*
X268848Y18000D01*
D02*
G37*
G36*
X266000D02*
X264152D01*
X264239Y17564D01*
X264770Y16770D01*
X265564Y16239D01*
X266000Y16152D01*
Y18000D01*
D02*
G37*
G36*
X253848D02*
X252000D01*
Y16152D01*
X252436Y16239D01*
X253230Y16770D01*
X253761Y17564D01*
X253848Y18000D01*
D02*
G37*
G36*
X251000D02*
X249152D01*
X249239Y17564D01*
X249770Y16770D01*
X250564Y16239D01*
X251000Y16152D01*
Y18000D01*
D02*
G37*
G36*
X238848D02*
X237000D01*
Y16152D01*
X237436Y16239D01*
X238230Y16770D01*
X238761Y17564D01*
X238848Y18000D01*
D02*
G37*
G36*
X236000D02*
X234152D01*
X234239Y17564D01*
X234770Y16770D01*
X235564Y16239D01*
X236000Y16152D01*
Y18000D01*
D02*
G37*
G36*
X208848D02*
X207000D01*
Y16152D01*
X207436Y16239D01*
X208230Y16770D01*
X208761Y17564D01*
X208848Y18000D01*
D02*
G37*
G36*
X206000D02*
X204152D01*
X204239Y17564D01*
X204770Y16770D01*
X205564Y16239D01*
X206000Y16152D01*
Y18000D01*
D02*
G37*
G36*
X193848D02*
X192000D01*
Y16152D01*
X192436Y16239D01*
X193230Y16770D01*
X193761Y17564D01*
X193848Y18000D01*
D02*
G37*
G36*
X191000D02*
X189152D01*
X189239Y17564D01*
X189770Y16770D01*
X190564Y16239D01*
X191000Y16152D01*
Y18000D01*
D02*
G37*
G36*
X178848D02*
X177000D01*
Y16152D01*
X177436Y16239D01*
X178230Y16770D01*
X178761Y17564D01*
X178848Y18000D01*
D02*
G37*
G36*
X176000D02*
X174152D01*
X174239Y17564D01*
X174770Y16770D01*
X175564Y16239D01*
X176000Y16152D01*
Y18000D01*
D02*
G37*
G36*
X163848D02*
X162000D01*
Y16152D01*
X162436Y16239D01*
X163230Y16770D01*
X163761Y17564D01*
X163848Y18000D01*
D02*
G37*
G36*
X161000D02*
X159152D01*
X159239Y17564D01*
X159770Y16770D01*
X160564Y16239D01*
X161000Y16152D01*
Y18000D01*
D02*
G37*
G36*
X148848D02*
X147000D01*
Y16152D01*
X147436Y16239D01*
X148230Y16770D01*
X148761Y17564D01*
X148848Y18000D01*
D02*
G37*
G36*
X146000D02*
X144152D01*
X144239Y17564D01*
X144770Y16770D01*
X145564Y16239D01*
X146000Y16152D01*
Y18000D01*
D02*
G37*
G36*
X133848D02*
X132000D01*
Y16152D01*
X132436Y16239D01*
X133230Y16770D01*
X133761Y17564D01*
X133848Y18000D01*
D02*
G37*
G36*
X131000D02*
X129152D01*
X129239Y17564D01*
X129770Y16770D01*
X130564Y16239D01*
X131000Y16152D01*
Y18000D01*
D02*
G37*
G36*
X118848D02*
X117000D01*
Y16152D01*
X117436Y16239D01*
X118230Y16770D01*
X118761Y17564D01*
X118848Y18000D01*
D02*
G37*
G36*
X116000D02*
X114152D01*
X114239Y17564D01*
X114770Y16770D01*
X115564Y16239D01*
X116000Y16152D01*
Y18000D01*
D02*
G37*
G36*
X103848D02*
X102000D01*
Y16152D01*
X102436Y16239D01*
X103230Y16770D01*
X103761Y17564D01*
X103848Y18000D01*
D02*
G37*
G36*
X101000D02*
X99152D01*
X99239Y17564D01*
X99770Y16770D01*
X100564Y16239D01*
X101000Y16152D01*
Y18000D01*
D02*
G37*
G36*
X88848D02*
X87000D01*
Y16152D01*
X87436Y16239D01*
X88230Y16770D01*
X88761Y17564D01*
X88848Y18000D01*
D02*
G37*
G36*
X86000D02*
X84152D01*
X84239Y17564D01*
X84770Y16770D01*
X85564Y16239D01*
X86000Y16152D01*
Y18000D01*
D02*
G37*
G36*
X73848D02*
X72000D01*
Y16152D01*
X72436Y16239D01*
X73230Y16770D01*
X73761Y17564D01*
X73848Y18000D01*
D02*
G37*
G36*
X71000D02*
X69152D01*
X69239Y17564D01*
X69770Y16770D01*
X70564Y16239D01*
X71000Y16152D01*
Y18000D01*
D02*
G37*
G36*
X58848D02*
X57000D01*
Y16152D01*
X57436Y16239D01*
X58230Y16770D01*
X58761Y17564D01*
X58848Y18000D01*
D02*
G37*
G36*
X56000D02*
X54152D01*
X54239Y17564D01*
X54770Y16770D01*
X55564Y16239D01*
X56000Y16152D01*
Y18000D01*
D02*
G37*
G36*
X43848D02*
X42000D01*
Y16152D01*
X42436Y16239D01*
X43230Y16770D01*
X43761Y17564D01*
X43848Y18000D01*
D02*
G37*
G36*
X41000D02*
X39152D01*
X39239Y17564D01*
X39770Y16770D01*
X40564Y16239D01*
X41000Y16152D01*
Y18000D01*
D02*
G37*
G36*
X13848D02*
X12000D01*
Y16152D01*
X12436Y16239D01*
X13230Y16770D01*
X13761Y17564D01*
X13848Y18000D01*
D02*
G37*
G36*
X11000D02*
X9152D01*
X9239Y17564D01*
X9770Y16770D01*
X10564Y16239D01*
X11000Y16152D01*
Y18000D01*
D02*
G37*
G36*
X259500Y5848D02*
Y4000D01*
X261348D01*
X261261Y4436D01*
X260730Y5230D01*
X259936Y5761D01*
X259500Y5848D01*
D02*
G37*
G36*
X258500D02*
X258064Y5761D01*
X257270Y5230D01*
X256739Y4436D01*
X256652Y4000D01*
X258500D01*
Y5848D01*
D02*
G37*
G36*
X244500D02*
Y4000D01*
X246348D01*
X246261Y4436D01*
X245730Y5230D01*
X244936Y5761D01*
X244500Y5848D01*
D02*
G37*
G36*
X243500D02*
X243064Y5761D01*
X242270Y5230D01*
X241739Y4436D01*
X241652Y4000D01*
X243500D01*
Y5848D01*
D02*
G37*
G36*
X229500D02*
Y4000D01*
X231348D01*
X231261Y4436D01*
X230730Y5230D01*
X229936Y5761D01*
X229500Y5848D01*
D02*
G37*
G36*
X228500D02*
X228064Y5761D01*
X227270Y5230D01*
X226739Y4436D01*
X226652Y4000D01*
X228500D01*
Y5848D01*
D02*
G37*
G36*
X214500D02*
Y4000D01*
X216348D01*
X216261Y4436D01*
X215730Y5230D01*
X214936Y5761D01*
X214500Y5848D01*
D02*
G37*
G36*
X213500D02*
X213064Y5761D01*
X212270Y5230D01*
X211739Y4436D01*
X211652Y4000D01*
X213500D01*
Y5848D01*
D02*
G37*
G36*
X199500D02*
Y4000D01*
X201348D01*
X201261Y4436D01*
X200730Y5230D01*
X199936Y5761D01*
X199500Y5848D01*
D02*
G37*
G36*
X198500D02*
X198064Y5761D01*
X197270Y5230D01*
X196739Y4436D01*
X196652Y4000D01*
X198500D01*
Y5848D01*
D02*
G37*
G36*
X184500D02*
Y4000D01*
X186348D01*
X186261Y4436D01*
X185730Y5230D01*
X184936Y5761D01*
X184500Y5848D01*
D02*
G37*
G36*
X183500D02*
X183064Y5761D01*
X182270Y5230D01*
X181739Y4436D01*
X181652Y4000D01*
X183500D01*
Y5848D01*
D02*
G37*
G36*
X169500D02*
Y4000D01*
X171348D01*
X171261Y4436D01*
X170730Y5230D01*
X169936Y5761D01*
X169500Y5848D01*
D02*
G37*
G36*
X168500D02*
X168064Y5761D01*
X167270Y5230D01*
X166739Y4436D01*
X166652Y4000D01*
X168500D01*
Y5848D01*
D02*
G37*
G36*
X154500D02*
Y4000D01*
X156348D01*
X156261Y4436D01*
X155730Y5230D01*
X154936Y5761D01*
X154500Y5848D01*
D02*
G37*
G36*
X153500D02*
X153064Y5761D01*
X152270Y5230D01*
X151739Y4436D01*
X151652Y4000D01*
X153500D01*
Y5848D01*
D02*
G37*
G36*
X139500D02*
Y4000D01*
X141348D01*
X141261Y4436D01*
X140730Y5230D01*
X139936Y5761D01*
X139500Y5848D01*
D02*
G37*
G36*
X138500D02*
X138064Y5761D01*
X137270Y5230D01*
X136739Y4436D01*
X136652Y4000D01*
X138500D01*
Y5848D01*
D02*
G37*
G36*
X124500D02*
Y4000D01*
X126348D01*
X126261Y4436D01*
X125730Y5230D01*
X124936Y5761D01*
X124500Y5848D01*
D02*
G37*
G36*
X123500D02*
X123064Y5761D01*
X122270Y5230D01*
X121739Y4436D01*
X121652Y4000D01*
X123500D01*
Y5848D01*
D02*
G37*
G36*
X109500D02*
Y4000D01*
X111348D01*
X111261Y4436D01*
X110730Y5230D01*
X109936Y5761D01*
X109500Y5848D01*
D02*
G37*
G36*
X108500D02*
X108064Y5761D01*
X107270Y5230D01*
X106739Y4436D01*
X106652Y4000D01*
X108500D01*
Y5848D01*
D02*
G37*
G36*
X94500D02*
Y4000D01*
X96348D01*
X96261Y4436D01*
X95730Y5230D01*
X94936Y5761D01*
X94500Y5848D01*
D02*
G37*
G36*
X93500D02*
X93064Y5761D01*
X92270Y5230D01*
X91739Y4436D01*
X91652Y4000D01*
X93500D01*
Y5848D01*
D02*
G37*
G36*
X79500D02*
Y4000D01*
X81348D01*
X81261Y4436D01*
X80730Y5230D01*
X79936Y5761D01*
X79500Y5848D01*
D02*
G37*
G36*
X78500D02*
X78064Y5761D01*
X77270Y5230D01*
X76739Y4436D01*
X76652Y4000D01*
X78500D01*
Y5848D01*
D02*
G37*
G36*
X64500D02*
Y4000D01*
X66348D01*
X66261Y4436D01*
X65730Y5230D01*
X64936Y5761D01*
X64500Y5848D01*
D02*
G37*
G36*
X63500D02*
X63064Y5761D01*
X62270Y5230D01*
X61739Y4436D01*
X61652Y4000D01*
X63500D01*
Y5848D01*
D02*
G37*
G36*
X49500D02*
Y4000D01*
X51348D01*
X51261Y4436D01*
X50730Y5230D01*
X49936Y5761D01*
X49500Y5848D01*
D02*
G37*
G36*
X48500D02*
X48064Y5761D01*
X47270Y5230D01*
X46739Y4436D01*
X46652Y4000D01*
X48500D01*
Y5848D01*
D02*
G37*
G36*
X34500D02*
Y4000D01*
X36348D01*
X36261Y4436D01*
X35730Y5230D01*
X34936Y5761D01*
X34500Y5848D01*
D02*
G37*
G36*
X33500D02*
X33064Y5761D01*
X32270Y5230D01*
X31739Y4436D01*
X31652Y4000D01*
X33500D01*
Y5848D01*
D02*
G37*
G36*
X19500D02*
Y4000D01*
X21348D01*
X21261Y4436D01*
X20730Y5230D01*
X19936Y5761D01*
X19500Y5848D01*
D02*
G37*
G36*
X18500D02*
X18064Y5761D01*
X17270Y5230D01*
X16739Y4436D01*
X16652Y4000D01*
X18500D01*
Y5848D01*
D02*
G37*
G36*
X261348Y3000D02*
X259500D01*
Y1152D01*
X259936Y1239D01*
X260730Y1770D01*
X261261Y2564D01*
X261348Y3000D01*
D02*
G37*
G36*
X258500D02*
X256652D01*
X256739Y2564D01*
X257270Y1770D01*
X258064Y1239D01*
X258500Y1152D01*
Y3000D01*
D02*
G37*
G36*
X246348D02*
X244500D01*
Y1152D01*
X244936Y1239D01*
X245730Y1770D01*
X246261Y2564D01*
X246348Y3000D01*
D02*
G37*
G36*
X243500D02*
X241652D01*
X241739Y2564D01*
X242270Y1770D01*
X243064Y1239D01*
X243500Y1152D01*
Y3000D01*
D02*
G37*
G36*
X231348D02*
X229500D01*
Y1152D01*
X229936Y1239D01*
X230730Y1770D01*
X231261Y2564D01*
X231348Y3000D01*
D02*
G37*
G36*
X228500D02*
X226652D01*
X226739Y2564D01*
X227270Y1770D01*
X228064Y1239D01*
X228500Y1152D01*
Y3000D01*
D02*
G37*
G36*
X216348D02*
X214500D01*
Y1152D01*
X214936Y1239D01*
X215730Y1770D01*
X216261Y2564D01*
X216348Y3000D01*
D02*
G37*
G36*
X213500D02*
X211652D01*
X211739Y2564D01*
X212270Y1770D01*
X213064Y1239D01*
X213500Y1152D01*
Y3000D01*
D02*
G37*
G36*
X201348D02*
X199500D01*
Y1152D01*
X199936Y1239D01*
X200730Y1770D01*
X201261Y2564D01*
X201348Y3000D01*
D02*
G37*
G36*
X198500D02*
X196652D01*
X196739Y2564D01*
X197270Y1770D01*
X198064Y1239D01*
X198500Y1152D01*
Y3000D01*
D02*
G37*
G36*
X186348D02*
X184500D01*
Y1152D01*
X184936Y1239D01*
X185730Y1770D01*
X186261Y2564D01*
X186348Y3000D01*
D02*
G37*
G36*
X183500D02*
X181652D01*
X181739Y2564D01*
X182270Y1770D01*
X183064Y1239D01*
X183500Y1152D01*
Y3000D01*
D02*
G37*
G36*
X171348D02*
X169500D01*
Y1152D01*
X169936Y1239D01*
X170730Y1770D01*
X171261Y2564D01*
X171348Y3000D01*
D02*
G37*
G36*
X168500D02*
X166652D01*
X166739Y2564D01*
X167270Y1770D01*
X168064Y1239D01*
X168500Y1152D01*
Y3000D01*
D02*
G37*
G36*
X156348D02*
X154500D01*
Y1152D01*
X154936Y1239D01*
X155730Y1770D01*
X156261Y2564D01*
X156348Y3000D01*
D02*
G37*
G36*
X153500D02*
X151652D01*
X151739Y2564D01*
X152270Y1770D01*
X153064Y1239D01*
X153500Y1152D01*
Y3000D01*
D02*
G37*
G36*
X141348D02*
X139500D01*
Y1152D01*
X139936Y1239D01*
X140730Y1770D01*
X141261Y2564D01*
X141348Y3000D01*
D02*
G37*
G36*
X138500D02*
X136652D01*
X136739Y2564D01*
X137270Y1770D01*
X138064Y1239D01*
X138500Y1152D01*
Y3000D01*
D02*
G37*
G36*
X126348D02*
X124500D01*
Y1152D01*
X124936Y1239D01*
X125730Y1770D01*
X126261Y2564D01*
X126348Y3000D01*
D02*
G37*
G36*
X123500D02*
X121652D01*
X121739Y2564D01*
X122270Y1770D01*
X123064Y1239D01*
X123500Y1152D01*
Y3000D01*
D02*
G37*
G36*
X111348D02*
X109500D01*
Y1152D01*
X109936Y1239D01*
X110730Y1770D01*
X111261Y2564D01*
X111348Y3000D01*
D02*
G37*
G36*
X108500D02*
X106652D01*
X106739Y2564D01*
X107270Y1770D01*
X108064Y1239D01*
X108500Y1152D01*
Y3000D01*
D02*
G37*
G36*
X96348D02*
X94500D01*
Y1152D01*
X94936Y1239D01*
X95730Y1770D01*
X96261Y2564D01*
X96348Y3000D01*
D02*
G37*
G36*
X93500D02*
X91652D01*
X91739Y2564D01*
X92270Y1770D01*
X93064Y1239D01*
X93500Y1152D01*
Y3000D01*
D02*
G37*
G36*
X81348D02*
X79500D01*
Y1152D01*
X79936Y1239D01*
X80730Y1770D01*
X81261Y2564D01*
X81348Y3000D01*
D02*
G37*
G36*
X78500D02*
X76652D01*
X76739Y2564D01*
X77270Y1770D01*
X78064Y1239D01*
X78500Y1152D01*
Y3000D01*
D02*
G37*
G36*
X66348D02*
X64500D01*
Y1152D01*
X64936Y1239D01*
X65730Y1770D01*
X66261Y2564D01*
X66348Y3000D01*
D02*
G37*
G36*
X63500D02*
X61652D01*
X61739Y2564D01*
X62270Y1770D01*
X63064Y1239D01*
X63500Y1152D01*
Y3000D01*
D02*
G37*
G36*
X51348D02*
X49500D01*
Y1152D01*
X49936Y1239D01*
X50730Y1770D01*
X51261Y2564D01*
X51348Y3000D01*
D02*
G37*
G36*
X48500D02*
X46652D01*
X46739Y2564D01*
X47270Y1770D01*
X48064Y1239D01*
X48500Y1152D01*
Y3000D01*
D02*
G37*
G36*
X36348D02*
X34500D01*
Y1152D01*
X34936Y1239D01*
X35730Y1770D01*
X36261Y2564D01*
X36348Y3000D01*
D02*
G37*
G36*
X33500D02*
X31652D01*
X31739Y2564D01*
X32270Y1770D01*
X33064Y1239D01*
X33500Y1152D01*
Y3000D01*
D02*
G37*
G36*
X21348D02*
X19500D01*
Y1152D01*
X19936Y1239D01*
X20730Y1770D01*
X21261Y2564D01*
X21348Y3000D01*
D02*
G37*
G36*
X18500D02*
X16652D01*
X16739Y2564D01*
X17270Y1770D01*
X18064Y1239D01*
X18500Y1152D01*
Y3000D01*
D02*
G37*
%LPD*%
D13*
X204936Y204500D02*
X201656D01*
X201000Y203844D01*
Y202532D01*
X201656Y201876D01*
X204936D01*
X201000Y197940D02*
Y200564D01*
X203624Y197940D01*
X204280D01*
X204936Y198596D01*
Y199908D01*
X204280Y200564D01*
X204936Y89500D02*
X201656D01*
X201000Y88844D01*
Y87532D01*
X201656Y86876D01*
X204936D01*
X201000Y85564D02*
Y84252D01*
Y84908D01*
X204936D01*
X204280Y85564D01*
D15*
X209000Y87500D02*
X209250Y87750D01*
X246750D01*
X247000Y88000D01*
X182500Y79000D02*
Y183500D01*
X0Y9000D02*
X62Y8055D01*
X247Y7125D01*
X551Y6228D01*
X970Y5379D01*
X1497Y4591D01*
X2121Y3879D01*
X3000Y3000D02*
X3745Y2325D01*
X4552Y1726D01*
X5414Y1209D01*
X6323Y780D01*
X7269Y441D01*
X8244Y197D01*
X9239Y49D01*
X10243Y0D01*
X264757D02*
X265761Y49D01*
X266756Y197D01*
X267731Y441D01*
X268677Y780D01*
X269586Y1209D01*
X270448Y1726D01*
X271255Y2325D01*
X272000Y3000D01*
X272675Y3745D01*
X273274Y4552D01*
X273791Y5414D01*
X274220Y6323D01*
X274559Y7269D01*
X274803Y8244D01*
X274951Y9239D01*
X275000Y10243D01*
X270768Y247232D02*
X270048Y247847D01*
X269240Y248342D01*
X268365Y248705D01*
X267444Y248926D01*
X266500Y249000D01*
X275000Y240172D02*
X274916Y241240D01*
X274666Y242282D01*
X274256Y243272D01*
X273696Y244185D01*
X273000Y245000D01*
X11000Y249000D02*
X9948Y248954D01*
X8904Y248817D01*
X7876Y248589D01*
X6871Y248272D01*
X5899Y247869D01*
X4964Y247383D01*
X4076Y246817D01*
X3241Y246176D01*
X2465Y245464D01*
X2121Y245121D02*
X1497Y244409D01*
X970Y243621D01*
X551Y242772D01*
X247Y241875D01*
X62Y240945D01*
X0Y240000D01*
X2121Y3879D02*
X3000Y3000D01*
X10243Y0D02*
X264757D01*
X275000Y10243D02*
Y237500D01*
X262000Y249000D02*
X266500D01*
X270768Y247232D02*
X273000Y245000D01*
X275000Y237500D02*
Y240172D01*
X11000Y249000D02*
X262000D01*
X2121Y245121D02*
X2465Y245464D01*
X0Y9000D02*
Y240000D01*
X279500Y241997D02*
X281499D01*
X280500D01*
Y235999D01*
X279500D01*
X281499D01*
X286498Y234000D02*
X287497D01*
X288497Y235000D01*
Y239998D01*
X285498D01*
X284498Y238998D01*
Y236999D01*
X285498Y235999D01*
X288497D01*
X290496D02*
Y239998D01*
X293495D01*
X294495Y238998D01*
Y235999D01*
X297494D02*
X299494D01*
X300493Y236999D01*
Y238998D01*
X299494Y239998D01*
X297494D01*
X296495Y238998D01*
Y236999D01*
X297494Y235999D01*
X302493Y239998D02*
Y235999D01*
Y237999D01*
X303492Y238998D01*
X304492Y239998D01*
X305492D01*
X311490Y235999D02*
X309490D01*
X308491Y236999D01*
Y238998D01*
X309490Y239998D01*
X311490D01*
X312489Y238998D01*
Y237999D01*
X308491D01*
X320487Y235999D02*
Y241997D01*
X323486D01*
X324485Y240998D01*
Y238998D01*
X323486Y237999D01*
X320487D01*
X322486D02*
X324485Y235999D01*
X326485Y239998D02*
Y236999D01*
X327484Y235999D01*
X330484D01*
Y239998D01*
X332483Y235999D02*
X334482D01*
X333483D01*
Y241997D01*
X332483D01*
X340480Y235999D02*
X338481D01*
X337481Y236999D01*
Y238998D01*
X338481Y239998D01*
X340480D01*
X341480Y238998D01*
Y237999D01*
X337481D01*
X353476Y241997D02*
X349477D01*
Y235999D01*
X353476D01*
X349477Y238998D02*
X351477D01*
X355475Y239998D02*
Y235999D01*
Y237999D01*
X356475Y238998D01*
X357475Y239998D01*
X358474D01*
X361473D02*
Y235999D01*
Y237999D01*
X362473Y238998D01*
X363473Y239998D01*
X364473D01*
X368471Y235999D02*
X370471D01*
X371470Y236999D01*
Y238998D01*
X370471Y239998D01*
X368471D01*
X367472Y238998D01*
Y236999D01*
X368471Y235999D01*
X373470Y239998D02*
Y235999D01*
Y237999D01*
X374469Y238998D01*
X375469Y239998D01*
X376469D01*
X386465Y235999D02*
X388465D01*
X389464Y236999D01*
Y238998D01*
X388465Y239998D01*
X386465D01*
X385466Y238998D01*
Y236999D01*
X386465Y235999D01*
X391464D02*
Y239998D01*
X394463D01*
X395462Y238998D01*
Y235999D01*
X407459Y241997D02*
X405459D01*
X406459D01*
Y236999D01*
X405459Y235999D01*
X404460D01*
X403460Y236999D01*
X409458Y235999D02*
X411457D01*
X410458D01*
Y241997D01*
X409458Y240998D01*
X421454Y239998D02*
X423453D01*
X424453Y238998D01*
Y235999D01*
X421454D01*
X420454Y236999D01*
X421454Y237999D01*
X424453D01*
X426452Y235999D02*
Y239998D01*
X429452D01*
X430451Y238998D01*
Y235999D01*
X436449Y241997D02*
Y235999D01*
X433450D01*
X432450Y236999D01*
Y238998D01*
X433450Y239998D01*
X436449D01*
X448445Y241997D02*
X446446D01*
X447446D01*
Y236999D01*
X446446Y235999D01*
X445446D01*
X444447Y236999D01*
X454443Y235999D02*
X450445D01*
X454443Y239998D01*
Y240998D01*
X453444Y241997D01*
X451444D01*
X450445Y240998D01*
D40*
X30000Y54000D02*
D03*
X20000Y64000D02*
D03*
Y44000D02*
D03*
D41*
X42500Y94583D02*
D03*
Y34583D02*
D03*
Y54583D02*
D03*
Y64583D02*
D03*
Y84583D02*
D03*
Y74583D02*
D03*
Y44583D02*
D03*
Y24583D02*
D03*
X52500Y124583D02*
D03*
Y144583D02*
D03*
Y154583D02*
D03*
Y184583D02*
D03*
Y174583D02*
D03*
Y164583D02*
D03*
Y134583D02*
D03*
Y114583D02*
D03*
X42500Y124583D02*
D03*
Y144583D02*
D03*
Y154583D02*
D03*
Y184583D02*
D03*
Y174583D02*
D03*
Y164583D02*
D03*
Y134583D02*
D03*
Y114583D02*
D03*
X232500Y210583D02*
D03*
Y190583D02*
D03*
Y180583D02*
D03*
Y150583D02*
D03*
Y160583D02*
D03*
Y170583D02*
D03*
Y200583D02*
D03*
Y220583D02*
D03*
D42*
X266500Y228500D02*
D03*
X259000Y213500D02*
D03*
X266500Y198500D02*
D03*
X259000Y183500D02*
D03*
X266500Y168500D02*
D03*
X259000Y153500D02*
D03*
X266500Y138500D02*
D03*
X259000Y123500D02*
D03*
X266500Y108500D02*
D03*
X259000Y93500D02*
D03*
X266500Y78500D02*
D03*
X259000Y63500D02*
D03*
X266500Y48500D02*
D03*
X259000Y33500D02*
D03*
X266500Y18500D02*
D03*
X259000Y3500D02*
D03*
X251500Y228500D02*
D03*
Y198500D02*
D03*
X244000Y183500D02*
D03*
X251500Y168500D02*
D03*
X244000Y153500D02*
D03*
X251500Y138500D02*
D03*
X244000Y123500D02*
D03*
X251500Y108500D02*
D03*
Y78500D02*
D03*
X244000Y63500D02*
D03*
X251500Y48500D02*
D03*
X244000Y33500D02*
D03*
X251500Y18500D02*
D03*
X244000Y3500D02*
D03*
X236500Y138500D02*
D03*
X229000Y123500D02*
D03*
X236500Y108500D02*
D03*
X229000Y93500D02*
D03*
X236500Y78500D02*
D03*
Y48500D02*
D03*
X229000Y33500D02*
D03*
X236500Y18500D02*
D03*
X229000Y3500D02*
D03*
X221500Y228500D02*
D03*
X214000Y63500D02*
D03*
Y33500D02*
D03*
Y3500D02*
D03*
X206500Y228500D02*
D03*
Y198500D02*
D03*
X199000Y153500D02*
D03*
X206500Y138500D02*
D03*
Y78500D02*
D03*
X199000Y33500D02*
D03*
X206500Y18500D02*
D03*
X199000Y3500D02*
D03*
X184000Y213500D02*
D03*
X191500Y198500D02*
D03*
Y138500D02*
D03*
X184000Y63500D02*
D03*
Y33500D02*
D03*
X191500Y18500D02*
D03*
X184000Y3500D02*
D03*
X169000Y213500D02*
D03*
Y183500D02*
D03*
X176500Y168500D02*
D03*
Y138500D02*
D03*
X169000Y123500D02*
D03*
Y93500D02*
D03*
X176500Y78500D02*
D03*
X169000Y63500D02*
D03*
X176500Y18500D02*
D03*
X169000Y3500D02*
D03*
X161500Y228500D02*
D03*
Y198500D02*
D03*
X154000Y183500D02*
D03*
X161500Y168500D02*
D03*
Y138500D02*
D03*
X154000Y123500D02*
D03*
X161500Y78500D02*
D03*
X154000Y63500D02*
D03*
Y33500D02*
D03*
X161500Y18500D02*
D03*
X154000Y3500D02*
D03*
X146500Y228500D02*
D03*
Y198500D02*
D03*
Y168500D02*
D03*
X139000Y123500D02*
D03*
X146500Y108500D02*
D03*
X139000Y93500D02*
D03*
X146500Y78500D02*
D03*
X139000Y63500D02*
D03*
X146500Y18500D02*
D03*
X139000Y3500D02*
D03*
X131500Y228500D02*
D03*
Y168500D02*
D03*
X124000Y153500D02*
D03*
Y123500D02*
D03*
X131500Y108500D02*
D03*
Y78500D02*
D03*
X124000Y63500D02*
D03*
X131500Y48500D02*
D03*
X124000Y33500D02*
D03*
X131500Y18500D02*
D03*
X124000Y3500D02*
D03*
X116500Y228500D02*
D03*
Y168500D02*
D03*
X109000Y153500D02*
D03*
Y123500D02*
D03*
X116500Y108500D02*
D03*
Y78500D02*
D03*
X109000Y63500D02*
D03*
X116500Y48500D02*
D03*
X109000Y33500D02*
D03*
X116500Y18500D02*
D03*
X109000Y3500D02*
D03*
X101500Y228500D02*
D03*
X94000Y213500D02*
D03*
Y153500D02*
D03*
X101500Y108500D02*
D03*
Y18500D02*
D03*
X94000Y3500D02*
D03*
X86500Y228500D02*
D03*
X79000Y153500D02*
D03*
X86500Y138500D02*
D03*
X79000Y123500D02*
D03*
Y93500D02*
D03*
Y33500D02*
D03*
X86500Y18500D02*
D03*
X79000Y3500D02*
D03*
X71500Y228500D02*
D03*
X64000Y213500D02*
D03*
X71500Y198500D02*
D03*
Y168500D02*
D03*
Y138500D02*
D03*
Y108500D02*
D03*
X64000Y93500D02*
D03*
X71500Y78500D02*
D03*
X64000Y63500D02*
D03*
X71500Y48500D02*
D03*
Y18500D02*
D03*
X64000Y3500D02*
D03*
X56500Y228500D02*
D03*
X49000Y213500D02*
D03*
X56500Y198500D02*
D03*
Y78500D02*
D03*
Y48500D02*
D03*
Y18500D02*
D03*
X49000Y3500D02*
D03*
X41500Y228500D02*
D03*
X34000Y213500D02*
D03*
X41500Y198500D02*
D03*
X34000Y123500D02*
D03*
X41500Y108500D02*
D03*
X34000Y93500D02*
D03*
Y63500D02*
D03*
Y33500D02*
D03*
X41500Y18500D02*
D03*
X34000Y3500D02*
D03*
X26500Y228500D02*
D03*
X19000Y213500D02*
D03*
X26500Y198500D02*
D03*
X19000Y183500D02*
D03*
Y153500D02*
D03*
Y123500D02*
D03*
X26500Y108500D02*
D03*
X19000Y93500D02*
D03*
X26500Y78500D02*
D03*
Y48500D02*
D03*
X19000Y3500D02*
D03*
X11500Y228500D02*
D03*
X4000Y213500D02*
D03*
X11500Y198500D02*
D03*
X4000Y183500D02*
D03*
X11500Y168500D02*
D03*
X4000Y153500D02*
D03*
Y123500D02*
D03*
Y93500D02*
D03*
Y63500D02*
D03*
Y33500D02*
D03*
X11500Y18500D02*
D03*
X124600Y93500D02*
D03*
X90850Y116000D02*
D03*
Y26000D02*
D03*
D43*
X247000Y88000D02*
D03*
X209000Y87500D02*
D03*
X182500Y79000D02*
D03*
Y183500D02*
D03*
D44*
X172500Y34583D02*
D03*
X42500Y239583D02*
D03*
X232500Y234583D02*
D03*
M02*
