G04*
G04 #@! TF.GenerationSoftware,Altium Limited,Altium Designer,22.10.1 (41)*
G04*
G04 Layer_Color=32768*
%FSLAX25Y25*%
%MOIN*%
G70*
G04*
G04 #@! TF.SameCoordinates,DCEE1EC3-E607-4C09-92B5-72201EF966A2*
G04*
G04*
G04 #@! TF.FilePolarity,Positive*
G04*
G01*
G75*
%ADD12C,0.00787*%
%ADD13C,0.00591*%
%ADD15C,0.01000*%
%ADD45C,0.00394*%
%ADD46C,0.00197*%
D12*
X40532Y59583D02*
X44469D01*
X42500Y57614D02*
Y61551D01*
X35413Y16591D02*
X49587D01*
Y102575D01*
X35413D02*
X49587D01*
X35413Y16591D02*
Y102575D01*
X50532Y149583D02*
X54469D01*
X52500Y147614D02*
Y151551D01*
X45413Y106591D02*
X59587D01*
Y192575D01*
X45413D02*
X59587D01*
X45413Y106591D02*
Y192575D01*
X40532Y149583D02*
X44469D01*
X42500Y147614D02*
Y151551D01*
X35413Y106591D02*
X49587D01*
Y192575D01*
X35413D02*
X49587D01*
X35413Y106591D02*
Y192575D01*
X230532Y185583D02*
X234469D01*
X232500Y183614D02*
Y187551D01*
X225413Y228575D02*
X239587D01*
X225413Y142591D02*
Y228575D01*
Y142591D02*
X239587D01*
Y228575D01*
X82000Y70531D02*
Y74468D01*
X80032Y72500D02*
X83969D01*
X81500Y180032D02*
Y183968D01*
X79532Y182000D02*
X83469D01*
D13*
X204936Y204500D02*
X201656D01*
X201000Y203844D01*
Y202532D01*
X201656Y201876D01*
X204936D01*
X201000Y197940D02*
Y200564D01*
X203624Y197940D01*
X204280D01*
X204936Y198596D01*
Y199908D01*
X204280Y200564D01*
X204936Y89500D02*
X201656D01*
X201000Y88844D01*
Y87532D01*
X201656Y86876D01*
X204936D01*
X201000Y85564D02*
Y84252D01*
Y84908D01*
X204936D01*
X204280Y85564D01*
D15*
X0Y9000D02*
X62Y8055D01*
X247Y7125D01*
X551Y6228D01*
X970Y5379D01*
X1497Y4591D01*
X2121Y3879D01*
X3000Y3000D02*
X3745Y2325D01*
X4552Y1726D01*
X5414Y1209D01*
X6323Y780D01*
X7269Y441D01*
X8244Y197D01*
X9239Y49D01*
X10243Y0D01*
X264757D02*
X265761Y49D01*
X266756Y197D01*
X267731Y441D01*
X268677Y780D01*
X269586Y1209D01*
X270448Y1726D01*
X271255Y2325D01*
X272000Y3000D01*
X272675Y3745D01*
X273274Y4552D01*
X273791Y5414D01*
X274220Y6323D01*
X274559Y7269D01*
X274803Y8244D01*
X274951Y9239D01*
X275000Y10243D01*
X270768Y247232D02*
X270048Y247847D01*
X269240Y248342D01*
X268365Y248705D01*
X267444Y248926D01*
X266500Y249000D01*
X275000Y240172D02*
X274916Y241240D01*
X274666Y242282D01*
X274256Y243272D01*
X273696Y244185D01*
X273000Y245000D01*
X11000Y249000D02*
X9948Y248954D01*
X8904Y248817D01*
X7876Y248589D01*
X6871Y248272D01*
X5899Y247869D01*
X4964Y247383D01*
X4076Y246817D01*
X3241Y246176D01*
X2465Y245464D01*
X2121Y245121D02*
X1497Y244409D01*
X970Y243621D01*
X551Y242772D01*
X247Y241875D01*
X62Y240945D01*
X0Y240000D01*
X2121Y3879D02*
X3000Y3000D01*
X10243Y0D02*
X264757D01*
X275000Y10243D02*
Y237500D01*
X262000Y249000D02*
X266500D01*
X270768Y247232D02*
X273000Y245000D01*
X275000Y237500D02*
Y240172D01*
X11000Y249000D02*
X262000D01*
X2121Y245121D02*
X2465Y245464D01*
X0Y9000D02*
Y240000D01*
X279500Y241997D02*
X281499D01*
X280500D01*
Y235999D01*
X279500D01*
X281499D01*
X286498Y234000D02*
X287497D01*
X288497Y235000D01*
Y239998D01*
X285498D01*
X284498Y238998D01*
Y236999D01*
X285498Y235999D01*
X288497D01*
X290496D02*
Y239998D01*
X293495D01*
X294495Y238998D01*
Y235999D01*
X297494D02*
X299494D01*
X300493Y236999D01*
Y238998D01*
X299494Y239998D01*
X297494D01*
X296495Y238998D01*
Y236999D01*
X297494Y235999D01*
X302493Y239998D02*
Y235999D01*
Y237999D01*
X303492Y238998D01*
X304492Y239998D01*
X305492D01*
X311490Y235999D02*
X309490D01*
X308491Y236999D01*
Y238998D01*
X309490Y239998D01*
X311490D01*
X312489Y238998D01*
Y237999D01*
X308491D01*
X320487Y235999D02*
Y241997D01*
X323486D01*
X324485Y240998D01*
Y238998D01*
X323486Y237999D01*
X320487D01*
X322486D02*
X324485Y235999D01*
X326485Y239998D02*
Y236999D01*
X327484Y235999D01*
X330484D01*
Y239998D01*
X332483Y235999D02*
X334482D01*
X333483D01*
Y241997D01*
X332483D01*
X340480Y235999D02*
X338481D01*
X337481Y236999D01*
Y238998D01*
X338481Y239998D01*
X340480D01*
X341480Y238998D01*
Y237999D01*
X337481D01*
X353476Y241997D02*
X349477D01*
Y235999D01*
X353476D01*
X349477Y238998D02*
X351477D01*
X355475Y239998D02*
Y235999D01*
Y237999D01*
X356475Y238998D01*
X357475Y239998D01*
X358474D01*
X361473D02*
Y235999D01*
Y237999D01*
X362473Y238998D01*
X363473Y239998D01*
X364473D01*
X368471Y235999D02*
X370471D01*
X371470Y236999D01*
Y238998D01*
X370471Y239998D01*
X368471D01*
X367472Y238998D01*
Y236999D01*
X368471Y235999D01*
X373470Y239998D02*
Y235999D01*
Y237999D01*
X374469Y238998D01*
X375469Y239998D01*
X376469D01*
X386465Y235999D02*
X388465D01*
X389464Y236999D01*
Y238998D01*
X388465Y239998D01*
X386465D01*
X385466Y238998D01*
Y236999D01*
X386465Y235999D01*
X391464D02*
Y239998D01*
X394463D01*
X395462Y238998D01*
Y235999D01*
X407459Y241997D02*
X405459D01*
X406459D01*
Y236999D01*
X405459Y235999D01*
X404460D01*
X403460Y236999D01*
X409458Y235999D02*
X411457D01*
X410458D01*
Y241997D01*
X409458Y240998D01*
X421454Y239998D02*
X423453D01*
X424453Y238998D01*
Y235999D01*
X421454D01*
X420454Y236999D01*
X421454Y237999D01*
X424453D01*
X426452Y235999D02*
Y239998D01*
X429452D01*
X430451Y238998D01*
Y235999D01*
X436449Y241997D02*
Y235999D01*
X433450D01*
X432450Y236999D01*
Y238998D01*
X433450Y239998D01*
X436449D01*
X448445Y241997D02*
X446446D01*
X447446D01*
Y236999D01*
X446446Y235999D01*
X445446D01*
X444447Y236999D01*
X454443Y235999D02*
X450445D01*
X454443Y239998D01*
Y240998D01*
X453444Y241997D01*
X451444D01*
X450445Y240998D01*
D45*
X202500Y195531D02*
Y199469D01*
X200532Y197500D02*
X204468D01*
X64000Y120031D02*
Y123969D01*
X62032Y122000D02*
X65969D01*
X242032Y97500D02*
X245969D01*
X244000Y95531D02*
Y99468D01*
X53531Y103500D02*
X57468D01*
X55500Y101532D02*
Y105468D01*
X124000Y11181D02*
Y15118D01*
X122031Y13150D02*
X125969D01*
X221882Y68000D02*
X225819D01*
X223850Y66031D02*
Y69968D01*
X220500Y184531D02*
Y188469D01*
X218531Y186500D02*
X222468D01*
X220500Y198531D02*
Y202468D01*
X218531Y200500D02*
X222468D01*
X28032Y167000D02*
X31969D01*
X30000Y165032D02*
Y168968D01*
Y180665D02*
Y184602D01*
X28032Y182634D02*
X31969D01*
X30000Y139532D02*
Y143468D01*
X28032Y141500D02*
X31969D01*
X200532Y82500D02*
X204468D01*
X202500Y80532D02*
Y84469D01*
D46*
X188721Y216004D02*
X216280D01*
X188721Y178996D02*
X216280D01*
Y216004D01*
X188721Y178996D02*
Y216004D01*
X60260Y115307D02*
X67740D01*
X60260Y128693D02*
X67740D01*
X60260Y115307D02*
Y128693D01*
X67740Y115307D02*
Y128693D01*
X237307Y93760D02*
Y101240D01*
X250693Y93760D02*
Y101240D01*
X237307D02*
X250693D01*
X237307Y93760D02*
X250693D01*
X62193Y99760D02*
Y107240D01*
X48807Y99760D02*
Y107240D01*
Y99760D02*
X62193D01*
X48807Y107240D02*
X62193D01*
X120260Y19842D02*
X127740D01*
X120260Y6457D02*
X127740D01*
Y19842D01*
X120260Y6457D02*
Y19842D01*
X230543Y64260D02*
Y71740D01*
X217158Y64260D02*
Y71740D01*
Y64260D02*
X230543D01*
X217158Y71740D02*
X230543D01*
X216760Y193193D02*
X224240D01*
X216760Y179807D02*
X224240D01*
Y193193D01*
X216760Y179807D02*
Y193193D01*
Y207193D02*
X224240D01*
X216760Y193807D02*
X224240D01*
Y207193D01*
X216760Y193807D02*
Y207193D01*
X33740Y160307D02*
Y173693D01*
X26260Y160307D02*
Y173693D01*
X33740D01*
X26260Y160307D02*
X33740D01*
X26260Y175134D02*
X33740D01*
X26260Y190134D02*
X33740D01*
X26260Y175134D02*
Y190134D01*
X33740Y175134D02*
Y190134D01*
X26260Y134807D02*
X33740D01*
X26260Y148193D02*
X33740D01*
X26260Y134807D02*
Y148193D01*
X33740Y134807D02*
Y148193D01*
X121366Y139791D02*
Y151209D01*
Y139791D02*
X129634D01*
Y151209D01*
X121366D02*
X129634D01*
X150366Y139791D02*
Y151209D01*
Y139791D02*
X158634D01*
Y151209D01*
X150366D02*
X158634D01*
X135866Y139791D02*
Y151209D01*
Y139791D02*
X144134D01*
Y151209D01*
X135866D02*
X144134D01*
X134291Y157366D02*
X145709D01*
Y165634D01*
X134291D02*
X145709D01*
X134291Y157366D02*
Y165634D01*
X133941Y182595D02*
X145358D01*
Y190862D01*
X133941D02*
X145358D01*
X133941Y182595D02*
Y190862D01*
X134441Y98009D02*
X145858D01*
Y106277D01*
X134441D02*
X145858D01*
X134441Y98009D02*
Y106277D01*
Y83580D02*
X145858D01*
Y91848D01*
X134441D02*
X145858D01*
X134441Y83580D02*
Y91848D01*
X134791Y40366D02*
X146209D01*
Y48634D01*
X134791D02*
X146209D01*
X134791Y40366D02*
Y48634D01*
X134441Y69152D02*
X145858D01*
Y77420D01*
X134441D02*
X145858D01*
X134441Y69152D02*
Y77420D01*
Y112438D02*
X145858D01*
Y120705D01*
X134441D02*
X145858D01*
X134441Y112438D02*
Y120705D01*
X133941Y170138D02*
X145358D01*
Y178405D01*
X133941D02*
X145358D01*
X133941Y170138D02*
Y178405D01*
X134941Y54594D02*
X146358D01*
Y62862D01*
X134941D02*
X146358D01*
X134941Y54594D02*
Y62862D01*
X188721Y63996D02*
Y101004D01*
X216280Y63996D02*
Y101004D01*
X188721Y63996D02*
X216280D01*
X188721Y101004D02*
X216280D01*
X77276Y63445D02*
Y81555D01*
X86724Y63445D02*
Y81555D01*
X77276Y63445D02*
X86724D01*
X77276Y81555D02*
X86724D01*
X76776Y172945D02*
Y191055D01*
X86224Y172945D02*
Y191055D01*
X76776Y172945D02*
X86224D01*
X76776Y191055D02*
X86224D01*
X134441Y126866D02*
X145858D01*
Y135134D01*
X134441D02*
X145858D01*
X134441Y126866D02*
Y135134D01*
X133791Y209866D02*
X145209D01*
Y218134D01*
X133791D02*
X145209D01*
X133791Y209866D02*
Y218134D01*
X134441Y25866D02*
X145858D01*
Y34134D01*
X134441D02*
X145858D01*
X134441Y25866D02*
Y34134D01*
X133791Y195866D02*
X145209D01*
Y204134D01*
X133791D02*
X145209D01*
X133791Y195866D02*
Y204134D01*
M02*
