G04*
G04 #@! TF.GenerationSoftware,Altium Limited,Altium Designer,23.6.0 (18)*
G04*
G04 Layer_Color=8388736*
%FSLAX25Y25*%
%MOIN*%
G70*
G04*
G04 #@! TF.SameCoordinates,4C77A988-F8BE-4A75-A6A8-83DB4AFB9164*
G04*
G04*
G04 #@! TF.FilePolarity,Negative*
G04*
G01*
G75*
%ADD24R,0.01575X0.03268*%
%ADD25C,0.06505*%
%ADD26R,0.04528X0.04528*%
%ADD27R,0.07677X0.05709*%
%ADD28R,0.02953X0.04134*%
%ADD29R,0.04528X0.04134*%
%ADD30R,0.04134X0.04528*%
%ADD31R,0.02559X0.02756*%
%ADD32R,0.04765X0.01465*%
G04:AMPARAMS|DCode=33|XSize=47.65mil|YSize=14.65mil|CornerRadius=7.33mil|HoleSize=0mil|Usage=FLASHONLY|Rotation=0.000|XOffset=0mil|YOffset=0mil|HoleType=Round|Shape=RoundedRectangle|*
%AMROUNDEDRECTD33*
21,1,0.04765,0.00000,0,0,0.0*
21,1,0.03300,0.01465,0,0,0.0*
1,1,0.01465,0.01650,0.00000*
1,1,0.01465,-0.01650,0.00000*
1,1,0.01465,-0.01650,0.00000*
1,1,0.01465,0.01650,0.00000*
%
%ADD33ROUNDEDRECTD33*%
%ADD34R,0.04528X0.04528*%
%ADD35R,0.05709X0.13976*%
%ADD36R,0.04528X0.03347*%
%ADD37O,0.04528X0.03347*%
%ADD38R,0.03268X0.01575*%
%ADD39R,0.03347X0.04528*%
%ADD40O,0.03347X0.04528*%
%ADD41R,0.13976X0.05709*%
%ADD42R,0.04134X0.02953*%
%ADD43R,0.05315X0.05315*%
%ADD44O,0.03268X0.01575*%
%ADD45R,0.06496X0.05709*%
G04:AMPARAMS|DCode=46|XSize=69.06mil|YSize=124.89mil|CornerRadius=17.96mil|HoleSize=0mil|Usage=FLASHONLY|Rotation=0.000|XOffset=0mil|YOffset=0mil|HoleType=Round|Shape=RoundedRectangle|*
%AMROUNDEDRECTD46*
21,1,0.06906,0.08897,0,0,0.0*
21,1,0.03315,0.12489,0,0,0.0*
1,1,0.03591,0.01658,-0.04449*
1,1,0.03591,-0.01658,-0.04449*
1,1,0.03591,-0.01658,0.04449*
1,1,0.03591,0.01658,0.04449*
%
%ADD46ROUNDEDRECTD46*%
G04:AMPARAMS|DCode=47|XSize=69.06mil|YSize=35.96mil|CornerRadius=17.98mil|HoleSize=0mil|Usage=FLASHONLY|Rotation=0.000|XOffset=0mil|YOffset=0mil|HoleType=Round|Shape=RoundedRectangle|*
%AMROUNDEDRECTD47*
21,1,0.06906,0.00000,0,0,0.0*
21,1,0.03310,0.03596,0,0,0.0*
1,1,0.03596,0.01655,0.00000*
1,1,0.03596,-0.01655,0.00000*
1,1,0.03596,-0.01655,0.00000*
1,1,0.03596,0.01655,0.00000*
%
%ADD47ROUNDEDRECTD47*%
%ADD48R,0.06906X0.03596*%
%ADD49R,0.17913X0.08071*%
%ADD50R,0.05709X0.08465*%
%ADD51O,0.05709X0.08465*%
%ADD52R,0.05709X0.07677*%
%ADD53R,0.09252X0.10433*%
%ADD54C,0.07677*%
%ADD55R,0.07677X0.07677*%
%ADD56C,0.05315*%
%ADD57R,0.04528X0.04528*%
%ADD58C,0.04528*%
%ADD59C,0.06102*%
%ADD60R,0.06102X0.06102*%
G04:AMPARAMS|DCode=61|XSize=94.49mil|YSize=181.1mil|CornerRadius=47.24mil|HoleSize=0mil|Usage=FLASHONLY|Rotation=270.000|XOffset=0mil|YOffset=0mil|HoleType=Round|Shape=RoundedRectangle|*
%AMROUNDEDRECTD61*
21,1,0.09449,0.08661,0,0,270.0*
21,1,0.00000,0.18110,0,0,270.0*
1,1,0.09449,-0.04331,0.00000*
1,1,0.09449,-0.04331,0.00000*
1,1,0.09449,0.04331,0.00000*
1,1,0.09449,0.04331,0.00000*
%
%ADD61ROUNDEDRECTD61*%
%ADD62C,0.20276*%
%ADD63R,0.08000X0.08000*%
%ADD64C,0.08000*%
G36*
X177643Y214319D02*
X177840D01*
X177840Y211367D01*
X176265Y211367D01*
Y213808D01*
X175281D01*
Y211367D01*
X173706D01*
Y213808D01*
X172722Y213808D01*
X172722Y211367D01*
X171147D01*
Y213808D01*
X170162D01*
Y211367D01*
X168588D01*
Y214319D01*
X168785Y214319D01*
X168785Y221091D01*
X177643D01*
Y214319D01*
D02*
G37*
G36*
X177533Y197467D02*
X177730Y197467D01*
Y194514D01*
X176155Y194514D01*
X176155Y196955D01*
X175171D01*
X175171Y194514D01*
X173597D01*
Y196955D01*
X172612Y196955D01*
X172612Y194514D01*
X171037Y194514D01*
X171037Y196955D01*
X170053D01*
X170053Y194514D01*
X168478D01*
X168478Y197467D01*
X168675Y197467D01*
X168675Y204238D01*
X177533Y204238D01*
X177533Y197467D01*
D02*
G37*
G36*
X46429Y187906D02*
X46626D01*
Y184953D01*
X45051D01*
X45051Y187394D01*
X44067D01*
X44067Y184953D01*
X42492D01*
Y187394D01*
X41508D01*
Y184953D01*
X39933D01*
X39933Y187394D01*
X38949D01*
X38949Y184953D01*
X37374D01*
Y187906D01*
X37571D01*
Y194677D01*
X46429D01*
Y187906D01*
D02*
G37*
G36*
X22232Y167150D02*
X29004D01*
Y158291D01*
X22232D01*
Y158095D01*
X19279D01*
X19279Y159669D01*
X21721Y159669D01*
Y160653D01*
X19279D01*
X19279Y162228D01*
X21721D01*
X21721Y163213D01*
X19279D01*
X19279Y164787D01*
X21721Y164787D01*
Y165772D01*
X19279Y165772D01*
X19279Y167347D01*
X22232D01*
Y167150D01*
D02*
G37*
G36*
X177604Y158536D02*
Y151765D01*
X177801D01*
X177801Y148812D01*
X176226D01*
Y151253D01*
X175242D01*
Y148812D01*
X173667D01*
Y151253D01*
X172683D01*
Y148812D01*
X171108D01*
Y151253D01*
X170124D01*
Y148812D01*
X168549D01*
X168549Y151765D01*
X168746D01*
Y158536D01*
X177604Y158536D01*
D02*
G37*
G36*
X177706Y134587D02*
X177903D01*
Y131634D01*
X176328Y131634D01*
X176328Y134075D01*
X175344D01*
X175344Y131634D01*
X173769Y131634D01*
Y134075D01*
X172785D01*
Y131634D01*
X171210Y131634D01*
X171210Y134075D01*
X170226D01*
X170226Y131634D01*
X168651Y131634D01*
Y134587D01*
X168848D01*
Y141359D01*
X177706D01*
Y134587D01*
D02*
G37*
G36*
X11232Y136591D02*
X18004D01*
Y127732D01*
X11232Y127732D01*
Y127535D01*
X8280D01*
Y129110D01*
X10721D01*
Y130095D01*
X8280D01*
Y131669D01*
X10721D01*
X10721Y132653D01*
X8280D01*
Y134228D01*
X10721D01*
Y135213D01*
X8280D01*
Y136787D01*
X11232D01*
Y136591D01*
D02*
G37*
G36*
X177058Y87476D02*
X177255D01*
Y84523D01*
X175680Y84523D01*
Y86964D01*
X174696D01*
Y84523D01*
X173121D01*
Y86964D01*
X172137D01*
Y84523D01*
X170562D01*
Y86964D01*
X169578D01*
Y84523D01*
X168003Y84523D01*
Y87476D01*
X168200D01*
X168200Y94247D01*
X177058D01*
X177058Y87476D01*
D02*
G37*
G36*
X177060Y70366D02*
X177257D01*
X177257Y67413D01*
X175682Y67413D01*
X175682Y69854D01*
X174698D01*
X174698Y67413D01*
X173123Y67413D01*
Y69854D01*
X172139D01*
X172139Y67413D01*
X170564Y67413D01*
X170564Y69854D01*
X169580D01*
X169580Y67413D01*
X168005Y67413D01*
X168005Y70366D01*
X168202D01*
Y77137D01*
X177060D01*
Y70366D01*
D02*
G37*
D24*
X176470Y81133D02*
D03*
X173911Y81133D02*
D03*
X171352D02*
D03*
X168793Y81133D02*
D03*
X176943Y208234D02*
D03*
X174384D02*
D03*
X171825D02*
D03*
X169266Y208234D02*
D03*
X177052Y225087D02*
D03*
X174493Y225087D02*
D03*
X171934Y225087D02*
D03*
X169375Y225087D02*
D03*
X168790Y98243D02*
D03*
X171349D02*
D03*
X173908D02*
D03*
X176468D02*
D03*
X169438Y145355D02*
D03*
X171997D02*
D03*
X174556D02*
D03*
X177115D02*
D03*
X169336Y162532D02*
D03*
X171895Y162532D02*
D03*
X174454D02*
D03*
X177013Y162532D02*
D03*
X38161Y198673D02*
D03*
X40720Y198673D02*
D03*
X43279D02*
D03*
X45839Y198673D02*
D03*
D25*
X173354Y73523D02*
D03*
X173827Y200624D02*
D03*
X173936Y217477D02*
D03*
X173352Y90633D02*
D03*
X174000Y137745D02*
D03*
X173898Y154922D02*
D03*
X25390Y161998D02*
D03*
X14390Y131439D02*
D03*
X42723Y191063D02*
D03*
D26*
X144202Y77633D02*
D03*
X150501D02*
D03*
X254850Y108000D02*
D03*
X261150D02*
D03*
X241850Y114000D02*
D03*
X248150D02*
D03*
X215150Y116000D02*
D03*
X208850D02*
D03*
X208850Y108000D02*
D03*
X215150D02*
D03*
X242850Y172500D02*
D03*
X249150D02*
D03*
X209350Y179500D02*
D03*
X215650D02*
D03*
X215150Y171500D02*
D03*
X208850D02*
D03*
X254850D02*
D03*
X261150D02*
D03*
X242850Y177500D02*
D03*
X249150D02*
D03*
X213674Y234087D02*
D03*
X207375D02*
D03*
X151375Y205012D02*
D03*
X145076Y205012D02*
D03*
X248150Y235000D02*
D03*
X241850D02*
D03*
X259650D02*
D03*
X253350D02*
D03*
X248150Y240000D02*
D03*
X241850D02*
D03*
X207875Y242087D02*
D03*
X214174D02*
D03*
X151174Y141587D02*
D03*
X144875D02*
D03*
X248150Y109000D02*
D03*
X241850D02*
D03*
D27*
X147031Y84291D02*
D03*
X147031Y95709D02*
D03*
X146031Y222709D02*
D03*
X146031Y211291D02*
D03*
X146531Y159709D02*
D03*
X146531Y148291D02*
D03*
D28*
X13000Y173764D02*
D03*
Y184000D02*
D03*
X29000Y127764D02*
D03*
Y138000D02*
D03*
D29*
X291000Y97941D02*
D03*
Y103059D02*
D03*
X286000Y103118D02*
D03*
Y98000D02*
D03*
X188500Y166559D02*
D03*
X188500Y161441D02*
D03*
X222000Y161441D02*
D03*
Y166559D02*
D03*
X227000Y166559D02*
D03*
Y161441D02*
D03*
X242000Y166618D02*
D03*
Y161500D02*
D03*
X183500Y156441D02*
D03*
Y161559D02*
D03*
X232000Y156441D02*
D03*
Y161559D02*
D03*
X237000Y156441D02*
D03*
Y161559D02*
D03*
X286000Y166059D02*
D03*
Y160941D02*
D03*
X291000Y160941D02*
D03*
Y166059D02*
D03*
X266000Y166118D02*
D03*
Y161000D02*
D03*
X187189Y224530D02*
D03*
Y229648D02*
D03*
X225000Y229059D02*
D03*
Y223941D02*
D03*
X220000Y229059D02*
D03*
X220000Y223941D02*
D03*
X264000Y229059D02*
D03*
Y223941D02*
D03*
X240000Y229059D02*
D03*
Y223941D02*
D03*
X284000Y223941D02*
D03*
Y229059D02*
D03*
X289000Y229059D02*
D03*
Y223941D02*
D03*
X235000Y224059D02*
D03*
Y218941D02*
D03*
X230000Y224059D02*
D03*
Y218941D02*
D03*
X182525Y219528D02*
D03*
Y224646D02*
D03*
X31500Y204059D02*
D03*
Y198941D02*
D03*
X24500Y198941D02*
D03*
Y204059D02*
D03*
X29000Y179059D02*
D03*
X29000Y173941D02*
D03*
X266000Y103059D02*
D03*
Y97941D02*
D03*
X183000Y98059D02*
D03*
Y92941D02*
D03*
X188000Y103059D02*
D03*
Y97941D02*
D03*
X221000Y103059D02*
D03*
Y97941D02*
D03*
X226000Y97941D02*
D03*
Y103059D02*
D03*
X236000Y98059D02*
D03*
Y92941D02*
D03*
X231000Y98000D02*
D03*
Y92882D02*
D03*
X241000Y97941D02*
D03*
Y103059D02*
D03*
X-11500Y196118D02*
D03*
X-11500Y191000D02*
D03*
X-500Y191000D02*
D03*
Y196118D02*
D03*
X-6000Y191000D02*
D03*
X-6000Y196118D02*
D03*
X-5968Y98441D02*
D03*
Y103559D02*
D03*
X157000Y37118D02*
D03*
Y32000D02*
D03*
X163000Y37118D02*
D03*
Y32000D02*
D03*
X231000Y4559D02*
D03*
Y-559D02*
D03*
X111000Y38232D02*
D03*
Y33114D02*
D03*
X105000Y38232D02*
D03*
Y33114D02*
D03*
X294000Y273559D02*
D03*
X294000Y268441D02*
D03*
X281000Y274000D02*
D03*
Y268882D02*
D03*
X266000Y273559D02*
D03*
Y268441D02*
D03*
X307000Y273559D02*
D03*
Y268441D02*
D03*
X224000Y4559D02*
D03*
Y-559D02*
D03*
X19000Y183941D02*
D03*
Y189059D02*
D03*
X4500Y207559D02*
D03*
X4500Y202441D02*
D03*
X24000Y179059D02*
D03*
Y173941D02*
D03*
X19000Y174000D02*
D03*
Y179118D02*
D03*
D30*
X276000Y113000D02*
D03*
X281118D02*
D03*
X203059D02*
D03*
X197941D02*
D03*
X197941Y103000D02*
D03*
X203059Y103000D02*
D03*
X198441Y177000D02*
D03*
X203559D02*
D03*
X231941Y171500D02*
D03*
X237059D02*
D03*
X237059Y166500D02*
D03*
X231941D02*
D03*
X203559Y162000D02*
D03*
X198441D02*
D03*
Y167000D02*
D03*
X203559D02*
D03*
X198441Y172000D02*
D03*
X203559D02*
D03*
X275941Y166000D02*
D03*
X281059D02*
D03*
X275941Y161000D02*
D03*
X281059D02*
D03*
X281118Y171000D02*
D03*
X276000D02*
D03*
X281059Y176000D02*
D03*
X275941D02*
D03*
X157941Y226606D02*
D03*
X163059D02*
D03*
X201584Y233587D02*
D03*
X196466Y233587D02*
D03*
X201584Y238087D02*
D03*
X196466D02*
D03*
X196466Y229087D02*
D03*
X201584D02*
D03*
X159941Y207500D02*
D03*
X165059D02*
D03*
X235118Y234000D02*
D03*
X230000D02*
D03*
X273941Y229000D02*
D03*
X279059D02*
D03*
X279059Y234000D02*
D03*
X273941D02*
D03*
X279000Y239000D02*
D03*
X273882D02*
D03*
X229941Y229000D02*
D03*
X235059D02*
D03*
X273941Y224000D02*
D03*
X279059D02*
D03*
X196466Y224587D02*
D03*
X201584D02*
D03*
X163559Y99500D02*
D03*
X158441D02*
D03*
X156643Y80633D02*
D03*
X161761D02*
D03*
X160441Y144500D02*
D03*
X165559D02*
D03*
X158441Y164000D02*
D03*
X163559D02*
D03*
X29059Y8000D02*
D03*
X23941D02*
D03*
X29059Y32500D02*
D03*
X23941D02*
D03*
X29059Y20000D02*
D03*
X23941D02*
D03*
X275941Y103000D02*
D03*
X281059D02*
D03*
X281059Y108000D02*
D03*
X275941D02*
D03*
X275941Y98000D02*
D03*
X281059D02*
D03*
X203059D02*
D03*
X197941D02*
D03*
X197941Y108000D02*
D03*
X203059D02*
D03*
X236059D02*
D03*
X230941D02*
D03*
X230941Y103000D02*
D03*
X236059D02*
D03*
X69441Y286000D02*
D03*
X74559D02*
D03*
X55559Y277000D02*
D03*
X50441D02*
D03*
X21441Y152500D02*
D03*
X26559D02*
D03*
Y147500D02*
D03*
X21441D02*
D03*
D31*
X260658Y112000D02*
D03*
X255343D02*
D03*
X214657D02*
D03*
X209343D02*
D03*
Y175500D02*
D03*
X214657D02*
D03*
X260658D02*
D03*
X255343D02*
D03*
X207867Y238087D02*
D03*
X213182D02*
D03*
X259157Y239500D02*
D03*
X253842D02*
D03*
D32*
X253150Y102559D02*
D03*
X208800Y166000D02*
D03*
X253150Y166059D02*
D03*
X207175Y228646D02*
D03*
X251150Y229059D02*
D03*
X208650Y102559D02*
D03*
D33*
X253150Y100000D02*
D03*
Y97441D02*
D03*
X259850D02*
D03*
Y102559D02*
D03*
X208800Y163441D02*
D03*
Y160882D02*
D03*
X215500Y160882D02*
D03*
X215500Y166000D02*
D03*
X253150Y163500D02*
D03*
Y160941D02*
D03*
X259850D02*
D03*
Y166059D02*
D03*
X207175Y226087D02*
D03*
X207175Y223528D02*
D03*
X213875Y223528D02*
D03*
X213875Y228646D02*
D03*
X251150Y226500D02*
D03*
Y223941D02*
D03*
X257850Y223941D02*
D03*
X257850Y229059D02*
D03*
X215350Y102559D02*
D03*
Y97441D02*
D03*
X208650Y97441D02*
D03*
X208650Y100000D02*
D03*
D34*
X246000Y97850D02*
D03*
Y104150D02*
D03*
X193500Y161736D02*
D03*
X193500Y168035D02*
D03*
X247000Y167799D02*
D03*
Y161500D02*
D03*
X271000Y167150D02*
D03*
Y160850D02*
D03*
X192025Y230985D02*
D03*
X192025Y224686D02*
D03*
X269000Y230535D02*
D03*
Y224236D02*
D03*
X245000Y230299D02*
D03*
Y224000D02*
D03*
X271000Y104150D02*
D03*
Y97850D02*
D03*
X193000Y97850D02*
D03*
Y104150D02*
D03*
X151000Y32295D02*
D03*
Y38594D02*
D03*
X99000Y33409D02*
D03*
Y39709D02*
D03*
X238000Y-2150D02*
D03*
Y4150D02*
D03*
X217000Y-2150D02*
D03*
X217000Y4150D02*
D03*
D35*
X175025Y236087D02*
D03*
X151796Y236087D02*
D03*
X151738Y109133D02*
D03*
X174966D02*
D03*
X174966Y173087D02*
D03*
X151737D02*
D03*
D36*
X4339Y198240D02*
D03*
X64500Y278500D02*
D03*
D37*
X4339Y190760D02*
D03*
X13000Y194500D02*
D03*
X64500Y285980D02*
D03*
X55839Y282240D02*
D03*
D38*
X33000Y158882D02*
D03*
X33000Y161441D02*
D03*
Y164000D02*
D03*
Y166559D02*
D03*
X22000Y136000D02*
D03*
X22000Y133441D02*
D03*
X22000Y130882D02*
D03*
D39*
X24760Y183839D02*
D03*
D40*
X32240Y183839D02*
D03*
X28500Y192500D02*
D03*
D41*
X42500Y158386D02*
D03*
X42500Y181614D02*
D03*
D42*
X47118Y204500D02*
D03*
X36882D02*
D03*
D43*
X-11500Y104366D02*
D03*
Y112634D02*
D03*
X266000Y280866D02*
D03*
Y289134D02*
D03*
X281000Y280866D02*
D03*
X281000Y289134D02*
D03*
X294000Y280866D02*
D03*
Y289134D02*
D03*
X307000Y280866D02*
D03*
Y289134D02*
D03*
D44*
X22000Y128323D02*
D03*
D45*
X969Y119346D02*
D03*
Y112654D02*
D03*
Y98654D02*
D03*
Y105347D02*
D03*
D46*
X34772Y108500D02*
D03*
D47*
X10165Y99445D02*
D03*
Y108500D02*
D03*
D48*
Y117555D02*
D03*
D49*
X96126Y135000D02*
D03*
X61874Y135000D02*
D03*
X96126Y176000D02*
D03*
X61874Y176000D02*
D03*
X96252Y94000D02*
D03*
X62000Y94000D02*
D03*
X96126Y217000D02*
D03*
X61874D02*
D03*
D50*
X144000Y37787D02*
D03*
X91716Y38000D02*
D03*
D51*
X144000Y4717D02*
D03*
X126284Y4716D02*
D03*
X91716Y4929D02*
D03*
X74000D02*
D03*
D52*
X102459Y68500D02*
D03*
X91041Y68500D02*
D03*
X109250Y68532D02*
D03*
X120667Y68532D02*
D03*
D53*
X13000Y165252D02*
D03*
Y146748D02*
D03*
D54*
X307500Y166500D02*
D03*
Y156500D02*
D03*
X-6500Y146500D02*
D03*
Y156500D02*
D03*
D55*
X307500Y146500D02*
D03*
X-6500Y166500D02*
D03*
D56*
X38000Y8102D02*
D03*
X48000D02*
D03*
X38000Y32102D02*
D03*
X48000D02*
D03*
X38000Y20102D02*
D03*
X48000Y20102D02*
D03*
D57*
X15157Y255000D02*
D03*
D58*
X34843D02*
D03*
D59*
X237941Y11835D02*
D03*
Y21677D02*
D03*
X217059Y31842D02*
D03*
Y22000D02*
D03*
D60*
X237941Y31520D02*
D03*
X217059Y12157D02*
D03*
D61*
X265500Y4354D02*
D03*
Y39000D02*
D03*
X189500Y39323D02*
D03*
Y4677D02*
D03*
D62*
X303000Y0D02*
D03*
X0D02*
D03*
X303000Y313000D02*
D03*
X0D02*
D03*
D63*
X70000Y60000D02*
D03*
Y258968D02*
D03*
D64*
X70000Y50000D02*
D03*
X80000Y60000D02*
D03*
X80000Y50000D02*
D03*
X90000Y60000D02*
D03*
Y50000D02*
D03*
X100000Y60000D02*
D03*
Y50000D02*
D03*
X110000Y60000D02*
D03*
X110000Y50000D02*
D03*
X120000Y60000D02*
D03*
Y50000D02*
D03*
X130000Y60000D02*
D03*
X130000Y50000D02*
D03*
X140000Y60000D02*
D03*
X140000Y50000D02*
D03*
X150000Y60000D02*
D03*
Y50000D02*
D03*
X160000Y60000D02*
D03*
X160000Y50000D02*
D03*
X170000Y60000D02*
D03*
X170000Y50000D02*
D03*
X180000Y60000D02*
D03*
Y50000D02*
D03*
X190000Y60000D02*
D03*
Y50000D02*
D03*
X200000Y60000D02*
D03*
Y50000D02*
D03*
X210000Y60000D02*
D03*
X210000Y50000D02*
D03*
X220000Y60000D02*
D03*
X220000Y50000D02*
D03*
X230000Y60000D02*
D03*
Y50000D02*
D03*
X240000Y60000D02*
D03*
Y50000D02*
D03*
X250000Y60000D02*
D03*
X250000Y50000D02*
D03*
X260000Y60000D02*
D03*
X260000Y50000D02*
D03*
X270000Y60000D02*
D03*
Y50000D02*
D03*
X280000Y60000D02*
D03*
X280000Y50000D02*
D03*
X290000Y60000D02*
D03*
Y50000D02*
D03*
X300000Y60000D02*
D03*
X300000Y50000D02*
D03*
X310000Y60000D02*
D03*
X310000Y50000D02*
D03*
X210000Y258968D02*
D03*
X190000Y248969D02*
D03*
X200000D02*
D03*
X240000Y258968D02*
D03*
X230000Y248969D02*
D03*
X210000D02*
D03*
X180000Y258968D02*
D03*
X240000Y248969D02*
D03*
X220000D02*
D03*
X250000D02*
D03*
X270000D02*
D03*
X280000Y258968D02*
D03*
X280000Y248969D02*
D03*
X290000Y258968D02*
D03*
X290000Y248969D02*
D03*
X300000Y258968D02*
D03*
Y248969D02*
D03*
X310000D02*
D03*
X260000Y258968D02*
D03*
X250000Y258968D02*
D03*
X260000Y248969D02*
D03*
X270000Y258968D02*
D03*
X310000D02*
D03*
X170000D02*
D03*
X230000D02*
D03*
X220000D02*
D03*
X200000Y258968D02*
D03*
X190000D02*
D03*
X180000Y248969D02*
D03*
X170000D02*
D03*
X150000Y258968D02*
D03*
X160000Y248969D02*
D03*
X140000D02*
D03*
X160000Y258968D02*
D03*
X150000Y248969D02*
D03*
X140000Y258968D02*
D03*
X130000Y258968D02*
D03*
X80000D02*
D03*
X90000D02*
D03*
X90000Y248969D02*
D03*
X100000Y258968D02*
D03*
X110000D02*
D03*
Y248969D02*
D03*
X120000D02*
D03*
X100000D02*
D03*
X130000D02*
D03*
X80000D02*
D03*
X70000D02*
D03*
X120000Y258968D02*
D03*
M02*
