G04*
G04 #@! TF.GenerationSoftware,Altium Limited,Altium Designer,23.6.0 (18)*
G04*
G04 Layer_Physical_Order=1*
G04 Layer_Color=255*
%FSLAX25Y25*%
%MOIN*%
G70*
G04*
G04 #@! TF.SameCoordinates,4C77A988-F8BE-4A75-A6A8-83DB4AFB9164*
G04*
G04*
G04 #@! TF.FilePolarity,Positive*
G04*
G01*
G75*
%ADD15C,0.01000*%
%ADD19C,0.01500*%
%ADD20C,0.02000*%
%ADD24R,0.01575X0.03268*%
%ADD25C,0.06505*%
%ADD31R,0.02559X0.02756*%
%ADD32R,0.04765X0.01465*%
G04:AMPARAMS|DCode=33|XSize=47.65mil|YSize=14.65mil|CornerRadius=7.33mil|HoleSize=0mil|Usage=FLASHONLY|Rotation=0.000|XOffset=0mil|YOffset=0mil|HoleType=Round|Shape=RoundedRectangle|*
%AMROUNDEDRECTD33*
21,1,0.04765,0.00000,0,0,0.0*
21,1,0.03300,0.01465,0,0,0.0*
1,1,0.01465,0.01650,0.00000*
1,1,0.01465,-0.01650,0.00000*
1,1,0.01465,-0.01650,0.00000*
1,1,0.01465,0.01650,0.00000*
%
%ADD33ROUNDEDRECTD33*%
%ADD38R,0.03268X0.01575*%
%ADD44O,0.03268X0.01575*%
G04:AMPARAMS|DCode=46|XSize=69.06mil|YSize=124.89mil|CornerRadius=17.96mil|HoleSize=0mil|Usage=FLASHONLY|Rotation=0.000|XOffset=0mil|YOffset=0mil|HoleType=Round|Shape=RoundedRectangle|*
%AMROUNDEDRECTD46*
21,1,0.06906,0.08897,0,0,0.0*
21,1,0.03315,0.12489,0,0,0.0*
1,1,0.03591,0.01658,-0.04449*
1,1,0.03591,-0.01658,-0.04449*
1,1,0.03591,-0.01658,0.04449*
1,1,0.03591,0.01658,0.04449*
%
%ADD46ROUNDEDRECTD46*%
G04:AMPARAMS|DCode=47|XSize=69.06mil|YSize=35.96mil|CornerRadius=17.98mil|HoleSize=0mil|Usage=FLASHONLY|Rotation=0.000|XOffset=0mil|YOffset=0mil|HoleType=Round|Shape=RoundedRectangle|*
%AMROUNDEDRECTD47*
21,1,0.06906,0.00000,0,0,0.0*
21,1,0.03310,0.03596,0,0,0.0*
1,1,0.03596,0.01655,0.00000*
1,1,0.03596,-0.01655,0.00000*
1,1,0.03596,-0.01655,0.00000*
1,1,0.03596,0.01655,0.00000*
%
%ADD47ROUNDEDRECTD47*%
%ADD48R,0.06906X0.03596*%
%ADD57R,0.04528X0.04528*%
%ADD58C,0.04528*%
%ADD59C,0.06102*%
%ADD60R,0.06102X0.06102*%
G04:AMPARAMS|DCode=61|XSize=94.49mil|YSize=181.1mil|CornerRadius=47.24mil|HoleSize=0mil|Usage=FLASHONLY|Rotation=270.000|XOffset=0mil|YOffset=0mil|HoleType=Round|Shape=RoundedRectangle|*
%AMROUNDEDRECTD61*
21,1,0.09449,0.08661,0,0,270.0*
21,1,0.00000,0.18110,0,0,270.0*
1,1,0.09449,-0.04331,0.00000*
1,1,0.09449,-0.04331,0.00000*
1,1,0.09449,0.04331,0.00000*
1,1,0.09449,0.04331,0.00000*
%
%ADD61ROUNDEDRECTD61*%
%ADD63R,0.08000X0.08000*%
%ADD64C,0.08000*%
%ADD65R,0.07800X0.02200*%
%ADD66R,0.03937X0.03937*%
%ADD67R,0.07087X0.05118*%
%ADD68R,0.02362X0.03543*%
%ADD69R,0.03937X0.03543*%
%ADD70R,0.03543X0.03937*%
%ADD71R,0.03937X0.03937*%
%ADD72R,0.05118X0.13386*%
%ADD73R,0.03937X0.02756*%
%ADD74O,0.03937X0.02756*%
%ADD75R,0.02756X0.03937*%
%ADD76O,0.02756X0.03937*%
%ADD77R,0.13386X0.05118*%
%ADD78R,0.03543X0.02362*%
%ADD79R,0.04724X0.04724*%
%ADD80R,0.05906X0.05118*%
%ADD81R,0.17323X0.07480*%
%ADD82R,0.05118X0.07874*%
%ADD83O,0.05118X0.07874*%
%ADD84R,0.05118X0.07087*%
%ADD85R,0.08661X0.09843*%
%ADD86C,0.00800*%
%ADD87C,0.02200*%
%ADD88C,0.02800*%
%ADD89C,0.01200*%
%ADD90C,0.07087*%
%ADD91R,0.07087X0.07087*%
%ADD92C,0.04724*%
%ADD93C,0.19685*%
%ADD94C,0.04000*%
%ADD95C,0.01800*%
G36*
X154674Y229157D02*
X144674D01*
X144674Y243157D01*
X154674Y243157D01*
Y229157D01*
D02*
G37*
G36*
X177986Y222971D02*
X170763D01*
X170762Y226551D01*
X172013Y227802D01*
Y243000D01*
X177986D01*
Y222971D01*
D02*
G37*
G36*
X170316Y205732D02*
X169584Y205000D01*
X164000Y205000D01*
X163341Y205659D01*
Y209733D01*
X170316D01*
Y205732D01*
D02*
G37*
G36*
X49000Y192106D02*
Y179000D01*
X35500D01*
Y192606D01*
X37571Y194677D01*
X46429D01*
X49000Y192106D01*
D02*
G37*
G36*
X70500Y172500D02*
X53500D01*
X53000Y173000D01*
Y195500D01*
X51461Y197039D01*
X40130D01*
Y200307D01*
X40000Y200437D01*
Y216500D01*
X44500Y221000D01*
X70500D01*
Y172500D01*
D02*
G37*
G36*
X154525Y166087D02*
X144525D01*
X144525Y180087D01*
X154525Y180087D01*
Y166087D01*
D02*
G37*
G36*
X112000Y215500D02*
Y206000D01*
X133500D01*
Y209000D01*
X141500D01*
X142088Y208412D01*
Y208332D01*
X142168D01*
X143000Y207500D01*
X146500D01*
X147500Y206500D01*
Y202512D01*
X147457Y202468D01*
X147925Y202000D01*
X161000D01*
X163577Y204577D01*
X163977D01*
X164000Y204567D01*
X169584Y204567D01*
X169607Y204577D01*
X282923D01*
X294000Y193500D01*
Y164000D01*
X288500D01*
Y173500D01*
X282500Y179500D01*
X251049D01*
Y175500D01*
X247094D01*
Y178906D01*
X244000Y182000D01*
X212500D01*
X211339Y180839D01*
Y177848D01*
X207381D01*
Y180619D01*
X207000Y181000D01*
X143500D01*
Y168500D01*
X141500Y166500D01*
X131000D01*
X128000Y163500D01*
X112100D01*
Y155137D01*
X112073Y155000D01*
X112100Y154863D01*
Y152423D01*
X112033Y152087D01*
X112100Y151752D01*
Y142400D01*
X133937D01*
X134000Y142338D01*
Y146000D01*
X142218D01*
Y143782D01*
X142500Y143500D01*
X147000D01*
Y139500D01*
X147926Y138574D01*
X157991D01*
X158000Y138573D01*
X158009Y138574D01*
X160574D01*
X163359Y141359D01*
X293000D01*
Y101000D01*
X289000D01*
Y111500D01*
X285000Y115500D01*
X251000D01*
X250000Y114500D01*
Y112000D01*
X246000D01*
Y116000D01*
X243000Y119000D01*
X212000D01*
X211000Y118000D01*
Y114000D01*
X207000D01*
Y118000D01*
X143500D01*
Y104000D01*
X141500Y102000D01*
X112000D01*
Y79000D01*
X123500D01*
X127500Y83000D01*
X142000D01*
Y81000D01*
X143000Y80000D01*
X146500D01*
Y75500D01*
X147016Y74984D01*
X160984D01*
X164000Y78000D01*
X178180D01*
X178532Y77645D01*
X178477Y67977D01*
X175000Y64500D01*
X134000D01*
X125000Y73500D01*
X112000D01*
Y64500D01*
X98325D01*
Y71650D01*
X96474Y73500D01*
X91500D01*
X75500Y89500D01*
Y139000D01*
X74500Y140000D01*
X31371D01*
X31371Y165000D01*
X35500D01*
Y168000D01*
X33500Y170000D01*
X27000D01*
Y176000D01*
X47000D01*
X52000Y171000D01*
X71000D01*
X72000Y172000D01*
Y212000D01*
X81000Y221000D01*
X106500D01*
X112000Y215500D01*
D02*
G37*
G36*
X155975Y221646D02*
X242632D01*
Y221632D01*
X247369D01*
Y221646D01*
X271769D01*
Y221632D01*
X276113D01*
Y221646D01*
X276887D01*
Y221632D01*
X281231D01*
Y221646D01*
X320197D01*
Y165697D01*
X316500Y162000D01*
X297000D01*
X295500Y163500D01*
Y194000D01*
X283035Y206465D01*
X171156D01*
Y209943D01*
X170029Y211367D01*
X168588D01*
Y213138D01*
X156862D01*
X150000Y220000D01*
X135000D01*
X133500Y222000D01*
Y224000D01*
X135000Y225500D01*
X152121D01*
X155975Y221646D01*
D02*
G37*
G36*
X178076Y160832D02*
X170702D01*
X170702Y164765D01*
X172104Y166166D01*
Y179795D01*
X178076D01*
Y160832D01*
D02*
G37*
G36*
X-9000Y188500D02*
X3500Y176000D01*
X21000D01*
Y170000D01*
X23850Y167150D01*
X29004D01*
Y158291D01*
X25713Y155000D01*
X24000D01*
X23500Y154500D01*
Y150000D01*
X19500D01*
Y151500D01*
X18000Y153000D01*
X-10000D01*
X-11000Y152000D01*
Y131000D01*
X-6500Y126500D01*
X13000D01*
X13500Y126000D01*
Y115500D01*
X4321D01*
Y115613D01*
X-2384D01*
Y115500D01*
X-7000Y115500D01*
X-15093Y123593D01*
X-15124Y192646D01*
X-14770Y193000D01*
X-9000D01*
Y188500D01*
D02*
G37*
G36*
X156356Y158500D02*
X168746D01*
Y158536D01*
X177604Y158536D01*
Y158500D01*
X268632D01*
Y158482D01*
X273369D01*
Y158500D01*
X294500D01*
X296762Y160762D01*
X310238Y160762D01*
X312500Y158500D01*
Y154500D01*
X310000Y152000D01*
X303000D01*
X294695Y143695D01*
X171161D01*
Y147717D01*
X170124Y149028D01*
Y148812D01*
X168549D01*
Y149900D01*
X160639D01*
X160500Y149927D01*
X160361Y149900D01*
X157668D01*
X150806Y156762D01*
X135807D01*
X134307Y158762D01*
Y160761D01*
X135807Y162261D01*
X152594D01*
X156356Y158500D01*
D02*
G37*
G36*
X170210Y146646D02*
X170201Y143763D01*
X168681Y142374D01*
X163672Y142374D01*
Y147000D01*
X169857D01*
X170210Y146646D01*
D02*
G37*
G36*
X18004Y127500D02*
X-6000D01*
X-10000Y131500D01*
Y152000D01*
X18004D01*
Y127500D01*
D02*
G37*
G36*
X154852Y101633D02*
X144852D01*
X144852Y116133D01*
X154852Y116133D01*
X154852Y101633D01*
D02*
G37*
G36*
X177752Y96568D02*
X170528D01*
X170528Y100310D01*
X171779Y101561D01*
Y115823D01*
X177752D01*
Y96568D01*
D02*
G37*
G36*
X320197Y79401D02*
X170562D01*
Y84000D01*
X163311D01*
X161048Y86263D01*
X158237D01*
X151500Y93000D01*
X150522Y92999D01*
X150452Y93046D01*
X149867Y93163D01*
X138052D01*
X137904Y93133D01*
X136214D01*
X134000Y95000D01*
Y98375D01*
X154625D01*
X156367Y96633D01*
X167367D01*
X167603Y96397D01*
Y96210D01*
X167790D01*
X168500Y95500D01*
X190631D01*
Y95482D01*
X195369D01*
Y95500D01*
X243632D01*
Y95482D01*
X248369D01*
Y95500D01*
X268632D01*
Y95482D01*
X273369D01*
Y95500D01*
X293500D01*
X295500Y97500D01*
Y142500D01*
X303500Y150500D01*
X320197D01*
Y79401D01*
D02*
G37*
G36*
X169736Y79500D02*
X164363D01*
X163557Y78694D01*
X160002D01*
X159979Y82310D01*
X160414Y82748D01*
X169736D01*
Y79500D01*
D02*
G37*
G36*
X74500Y89000D02*
X91000Y72500D01*
X93500D01*
Y65500D01*
X93538Y65462D01*
X93347Y65000D01*
X86500D01*
X83000Y68500D01*
X47500D01*
X13500Y102500D01*
X-2500D01*
Y107500D01*
X-6500D01*
X-9000Y110000D01*
X-14000Y110000D01*
Y115000D01*
X14000D01*
X14500Y115500D01*
Y124642D01*
X16858Y127000D01*
X18500D01*
Y134500D01*
X30500D01*
X35000Y139000D01*
X74500D01*
Y89000D01*
D02*
G37*
G36*
X-15517Y102928D02*
X-13860Y101000D01*
X12500D01*
X46500Y67000D01*
X81000D01*
X84000Y64000D01*
Y47500D01*
X86500Y45000D01*
X114184D01*
Y35346D01*
X113830Y34992D01*
X113368Y35184D01*
Y35286D01*
X108632D01*
Y30942D01*
X113368D01*
Y32558D01*
X113700Y32892D01*
X114012Y32954D01*
X114277Y33131D01*
X115577Y34431D01*
X115577Y34431D01*
X115754Y34696D01*
X115816Y35008D01*
X115816Y35008D01*
Y45000D01*
X119184D01*
Y5338D01*
X110755Y-3091D01*
X71305D01*
X70816Y-3000D01*
X70754Y-2688D01*
X70577Y-2423D01*
X70577Y-2423D01*
X62816Y5338D01*
Y18102D01*
X62816Y18102D01*
X62754Y18415D01*
X62577Y18679D01*
X50452Y30804D01*
X50691Y31381D01*
X50786Y32102D01*
X50691Y32823D01*
X50413Y33495D01*
X49970Y34072D01*
X49393Y34515D01*
X48721Y34793D01*
X48000Y34888D01*
X47279Y34793D01*
X46607Y34515D01*
X46030Y34072D01*
X45587Y33495D01*
X45309Y32823D01*
X45214Y32102D01*
X45309Y31381D01*
X45587Y30709D01*
X46030Y30132D01*
X46607Y29690D01*
X47279Y29411D01*
X48000Y29316D01*
X48721Y29411D01*
X49298Y29650D01*
X61184Y17764D01*
Y5000D01*
X61184Y5000D01*
X61246Y4688D01*
X61423Y4423D01*
X69184Y-3338D01*
Y-3531D01*
X69184Y-3531D01*
X69246Y-3844D01*
X69423Y-4108D01*
X69799Y-4484D01*
X69799Y-4484D01*
X70064Y-4661D01*
X70376Y-4723D01*
X70376Y-4723D01*
X111093D01*
X111093Y-4723D01*
X111405Y-4661D01*
X111670Y-4484D01*
X120577Y4423D01*
X120577Y4423D01*
X120754Y4688D01*
X120816Y5000D01*
Y45000D01*
X134082D01*
Y1380D01*
X124620Y-8082D01*
X64380D01*
X57070Y-772D01*
Y11950D01*
X57000Y12302D01*
X56801Y12599D01*
X50494Y18906D01*
X50691Y19381D01*
X50786Y20102D01*
X50691Y20823D01*
X50413Y21495D01*
X49970Y22072D01*
X49393Y22515D01*
X48721Y22794D01*
X48000Y22888D01*
X47279Y22794D01*
X46607Y22515D01*
X46030Y22072D01*
X45587Y21495D01*
X45309Y20823D01*
X45214Y20102D01*
X45309Y19381D01*
X45587Y18709D01*
X46030Y18132D01*
X46607Y17690D01*
X47279Y17411D01*
X48000Y17316D01*
X48721Y17411D01*
X49196Y17608D01*
X55234Y11570D01*
Y-1152D01*
X55304Y-1503D01*
X55503Y-1801D01*
X63351Y-9649D01*
X63649Y-9848D01*
X64000Y-9918D01*
X125000D01*
X125351Y-9848D01*
X125649Y-9649D01*
X135649Y351D01*
X135848Y649D01*
X135918Y1000D01*
Y45000D01*
X138184D01*
Y-2662D01*
X127662Y-13184D01*
X61338D01*
X48816Y-662D01*
Y5450D01*
X49393Y5690D01*
X49970Y6132D01*
X50413Y6709D01*
X50691Y7381D01*
X50786Y8102D01*
X50691Y8823D01*
X50413Y9495D01*
X49970Y10072D01*
X49393Y10515D01*
X48721Y10793D01*
X48000Y10888D01*
X47279Y10793D01*
X46607Y10515D01*
X46030Y10072D01*
X45587Y9495D01*
X45309Y8823D01*
X45214Y8102D01*
X45309Y7381D01*
X45587Y6709D01*
X46030Y6132D01*
X46607Y5690D01*
X47184Y5450D01*
Y-1000D01*
X47184Y-1000D01*
X47246Y-1312D01*
X47423Y-1577D01*
X60423Y-14577D01*
X60688Y-14754D01*
X61000Y-14816D01*
X61000Y-14816D01*
X128000D01*
X128000Y-14816D01*
X128312Y-14754D01*
X128577Y-14577D01*
X139577Y-3577D01*
X139754Y-3312D01*
X139816Y-3000D01*
X139816Y-3000D01*
Y45000D01*
X153847D01*
X157423Y41423D01*
X157423Y41423D01*
X157688Y41246D01*
X158000Y41184D01*
X158000Y41184D01*
X164662D01*
X166184Y39662D01*
Y34838D01*
X165762Y34415D01*
X165368Y34172D01*
Y34172D01*
X165368Y34172D01*
X160632D01*
Y29828D01*
X165368D01*
Y31998D01*
X165669Y32353D01*
X165981Y32415D01*
X166245Y32592D01*
X167577Y33923D01*
X167754Y34188D01*
X167816Y34500D01*
X167816Y34500D01*
Y40000D01*
X167816Y40000D01*
X167754Y40312D01*
X167577Y40577D01*
X167577Y40577D01*
X165577Y42577D01*
X165312Y42754D01*
X165000Y42816D01*
X165000Y42816D01*
X158338D01*
X156615Y44538D01*
X156807Y45000D01*
X220684D01*
Y33415D01*
X220184Y33316D01*
X220074Y33583D01*
X219520Y34304D01*
X218799Y34857D01*
X217960Y35205D01*
X217059Y35324D01*
X216158Y35205D01*
X215319Y34857D01*
X214598Y34304D01*
X214044Y33583D01*
X213697Y32743D01*
X213578Y31842D01*
X213697Y30942D01*
X214044Y30102D01*
X214598Y29381D01*
X215319Y28828D01*
X216158Y28480D01*
X217059Y28362D01*
X217960Y28480D01*
X218799Y28828D01*
X219520Y29381D01*
X220074Y30102D01*
X220184Y30369D01*
X220684Y30270D01*
Y26779D01*
X218868Y24962D01*
X218799Y25015D01*
X217960Y25362D01*
X217059Y25481D01*
X216158Y25362D01*
X215319Y25015D01*
X214598Y24461D01*
X214044Y23741D01*
X213697Y22901D01*
X213578Y22000D01*
X213697Y21099D01*
X214044Y20259D01*
X214097Y20191D01*
X210423Y16518D01*
X210246Y16253D01*
X210184Y15941D01*
X210184Y15941D01*
Y8850D01*
X210184Y8850D01*
X210246Y8538D01*
X210423Y8274D01*
X214632Y4065D01*
Y1781D01*
X219369D01*
Y6518D01*
X214632D01*
X214632Y6518D01*
Y6518D01*
X214240Y6764D01*
X211816Y9188D01*
Y15603D01*
X215250Y19038D01*
X215319Y18985D01*
X216158Y18638D01*
X217059Y18519D01*
X217960Y18638D01*
X218799Y18985D01*
X219520Y19539D01*
X220074Y20259D01*
X220421Y21099D01*
X220540Y22000D01*
X220421Y22901D01*
X220074Y23741D01*
X220021Y23809D01*
X222077Y25864D01*
X222077Y25864D01*
X222254Y26129D01*
X222316Y26441D01*
X222316Y26441D01*
Y45000D01*
X242068D01*
X242184Y44884D01*
Y27074D01*
X239750Y24639D01*
X239681Y24692D01*
X238842Y25039D01*
X237941Y25158D01*
X237040Y25039D01*
X236200Y24692D01*
X235479Y24139D01*
X234926Y23418D01*
X234579Y22578D01*
X234460Y21677D01*
X234579Y20776D01*
X234926Y19937D01*
X235479Y19216D01*
X236200Y18663D01*
X237040Y18315D01*
X237941Y18196D01*
X238842Y18315D01*
X239681Y18663D01*
X239750Y18715D01*
X243184Y15280D01*
Y9188D01*
X240760Y6764D01*
X240369Y6518D01*
Y6518D01*
X240369Y6518D01*
X235631D01*
Y1781D01*
X240369D01*
Y4065D01*
X244577Y8274D01*
X244754Y8538D01*
X244816Y8850D01*
X244816Y8850D01*
Y15618D01*
X244754Y15930D01*
X244577Y16195D01*
X244577Y16195D01*
X240903Y19869D01*
X240955Y19937D01*
X241303Y20776D01*
X241422Y21677D01*
X241303Y22578D01*
X240955Y23418D01*
X240903Y23486D01*
X243577Y26159D01*
X243577Y26160D01*
X243754Y26424D01*
X243816Y26736D01*
X243816Y26736D01*
Y45000D01*
X320197D01*
Y-10000D01*
Y-10906D01*
X319844Y-12683D01*
X319150Y-14356D01*
X318144Y-15863D01*
X316863Y-17144D01*
X315356Y-18150D01*
X313683Y-18844D01*
X311906Y-19197D01*
X-10174D01*
X-11951Y-18844D01*
X-13625Y-18150D01*
X-15131Y-17144D01*
X-16412Y-15863D01*
X-17418Y-14356D01*
X-18112Y-12683D01*
X-18465Y-10906D01*
Y-10000D01*
Y218000D01*
X-15568D01*
X-15517Y102928D01*
D02*
G37*
%LPC*%
G36*
X173554Y77181D02*
Y77137D01*
X173887D01*
X173554Y77181D01*
D02*
G37*
G36*
X173154D02*
X172822Y77137D01*
X173154D01*
Y77181D01*
D02*
G37*
G36*
X74400Y64400D02*
X65600D01*
Y55600D01*
X74400D01*
Y64400D01*
D02*
G37*
G36*
X70000Y54438D02*
X68851Y54287D01*
X67781Y53843D01*
X66862Y53138D01*
X66157Y52219D01*
X65713Y51149D01*
X65562Y50000D01*
X65713Y48851D01*
X66157Y47781D01*
X66862Y46862D01*
X67781Y46157D01*
X68851Y45713D01*
X70000Y45562D01*
X71149Y45713D01*
X72219Y46157D01*
X73138Y46862D01*
X73843Y47781D01*
X74287Y48851D01*
X74438Y50000D01*
X74287Y51149D01*
X73843Y52219D01*
X73138Y53138D01*
X72219Y53843D01*
X71149Y54287D01*
X70000Y54438D01*
D02*
G37*
G36*
X94676Y42337D02*
X88757D01*
Y33663D01*
X90901D01*
Y9172D01*
X90224Y8892D01*
X89606Y8417D01*
X89132Y7799D01*
X88834Y7080D01*
X88732Y6307D01*
Y3551D01*
X88834Y2779D01*
X89132Y2059D01*
X89606Y1441D01*
X90224Y967D01*
X90944Y668D01*
X91716Y567D01*
X92489Y668D01*
X93209Y967D01*
X93827Y1441D01*
X94301Y2059D01*
X94599Y2779D01*
X94701Y3551D01*
Y6307D01*
X94599Y7080D01*
X94301Y7799D01*
X93827Y8417D01*
X93209Y8892D01*
X92532Y9172D01*
Y33663D01*
X94676D01*
Y38184D01*
X96631D01*
Y37340D01*
X101368D01*
Y38184D01*
X102631D01*
Y36061D01*
X107369D01*
Y38184D01*
X108632D01*
Y36061D01*
X113368D01*
Y40404D01*
X108632D01*
Y39816D01*
X107369D01*
Y40404D01*
X102631D01*
Y39816D01*
X101368D01*
Y42077D01*
X96631D01*
Y39816D01*
X94676D01*
Y42337D01*
D02*
G37*
G36*
X146959Y42124D02*
X141041D01*
Y33450D01*
X143184D01*
Y8959D01*
X142508Y8679D01*
X141890Y8205D01*
X141415Y7587D01*
X141117Y6867D01*
X141015Y6095D01*
Y3339D01*
X141117Y2566D01*
X141415Y1846D01*
X141890Y1228D01*
X142508Y754D01*
X143228Y456D01*
X144000Y354D01*
X144773Y456D01*
X145492Y754D01*
X146110Y1228D01*
X146585Y1846D01*
X146883Y2566D01*
X146985Y3339D01*
Y6095D01*
X146883Y6867D01*
X146585Y7587D01*
X146110Y8205D01*
X145492Y8679D01*
X144816Y8959D01*
Y33450D01*
X146959D01*
Y36972D01*
X148632D01*
Y36226D01*
X153368D01*
Y36972D01*
X154631D01*
Y34946D01*
X159369D01*
Y36972D01*
X160632D01*
Y34947D01*
X165368D01*
Y39290D01*
X160632D01*
Y38603D01*
X159369D01*
Y39290D01*
X154631D01*
Y38603D01*
X153368D01*
Y40963D01*
X148632D01*
Y38603D01*
X146959D01*
Y42124D01*
D02*
G37*
G36*
X193831Y44491D02*
X185169D01*
X183832Y44315D01*
X182585Y43799D01*
X181515Y42978D01*
X180693Y41907D01*
X180177Y40661D01*
X180001Y39323D01*
X180177Y37985D01*
X180693Y36738D01*
X181515Y35668D01*
X182585Y34847D01*
X183832Y34330D01*
X185169Y34154D01*
X193831D01*
X195168Y34330D01*
X196415Y34847D01*
X197485Y35668D01*
X198307Y36738D01*
X198823Y37985D01*
X198999Y39323D01*
X198823Y40661D01*
X198307Y41907D01*
X197485Y42978D01*
X196415Y43799D01*
X195168Y44315D01*
X193831Y44491D01*
D02*
G37*
G36*
X269831Y44169D02*
X261169D01*
X259832Y43992D01*
X258585Y43476D01*
X257515Y42655D01*
X256693Y41584D01*
X256177Y40338D01*
X256001Y39000D01*
X256177Y37662D01*
X256693Y36416D01*
X257515Y35345D01*
X258585Y34524D01*
X259832Y34007D01*
X261169Y33831D01*
X269831D01*
X271168Y34007D01*
X272415Y34524D01*
X273485Y35345D01*
X274307Y36416D01*
X274823Y37662D01*
X274999Y39000D01*
X274823Y40338D01*
X274307Y41584D01*
X273485Y42655D01*
X272415Y43476D01*
X271168Y43992D01*
X269831Y44169D01*
D02*
G37*
G36*
X38000Y34888D02*
X37279Y34793D01*
X36607Y34515D01*
X36030Y34072D01*
X35587Y33495D01*
X35513Y33316D01*
X31231Y33316D01*
Y34868D01*
X26887D01*
Y30132D01*
X31231D01*
Y31684D01*
X35269Y31684D01*
X35309Y31381D01*
X35587Y30709D01*
X36030Y30132D01*
X36607Y29690D01*
X37279Y29411D01*
X38000Y29316D01*
X38721Y29411D01*
X39393Y29690D01*
X39970Y30132D01*
X40413Y30709D01*
X40691Y31381D01*
X40786Y32102D01*
X40691Y32823D01*
X40413Y33495D01*
X39970Y34072D01*
X39393Y34515D01*
X38721Y34793D01*
X38000Y34888D01*
D02*
G37*
G36*
X101368Y35778D02*
X96631D01*
Y31041D01*
X101368D01*
Y35778D01*
D02*
G37*
G36*
X107369Y35286D02*
X102631D01*
Y30942D01*
X107369D01*
Y35286D01*
D02*
G37*
G36*
X153368Y34664D02*
X148632D01*
Y29927D01*
X153368D01*
Y34664D01*
D02*
G37*
G36*
X159369Y34172D02*
X154631D01*
Y29828D01*
X159369D01*
Y34172D01*
D02*
G37*
G36*
X38000Y22888D02*
X37279Y22793D01*
X36607Y22515D01*
X36030Y22072D01*
X35587Y21495D01*
X35348Y20918D01*
X31231Y20918D01*
Y22368D01*
X26887D01*
Y17631D01*
X31231D01*
Y19287D01*
X35348Y19287D01*
X35587Y18709D01*
X36030Y18132D01*
X36607Y17690D01*
X37279Y17411D01*
X38000Y17316D01*
X38721Y17411D01*
X39393Y17690D01*
X39970Y18132D01*
X40413Y18709D01*
X40691Y19381D01*
X40786Y20102D01*
X40691Y20823D01*
X40413Y21495D01*
X39970Y22072D01*
X39393Y22515D01*
X38721Y22793D01*
X38000Y22888D01*
D02*
G37*
G36*
Y10888D02*
X37279Y10793D01*
X36607Y10515D01*
X36030Y10072D01*
X35587Y9495D01*
X35348Y8918D01*
X31231D01*
Y10368D01*
X26887D01*
Y5632D01*
X31231D01*
Y7287D01*
X35348D01*
X35587Y6709D01*
X36030Y6132D01*
X36607Y5690D01*
X37279Y5411D01*
X38000Y5316D01*
X38721Y5411D01*
X39393Y5690D01*
X39970Y6132D01*
X40413Y6709D01*
X40691Y7381D01*
X40786Y8102D01*
X40691Y8823D01*
X40413Y9495D01*
X39970Y10072D01*
X39393Y10515D01*
X38721Y10793D01*
X38000Y10888D01*
D02*
G37*
G36*
X237941Y15316D02*
X237040Y15197D01*
X236200Y14849D01*
X235479Y14296D01*
X234926Y13575D01*
X234579Y12736D01*
X234460Y11835D01*
X234579Y10934D01*
X234926Y10094D01*
X235479Y9373D01*
X236200Y8820D01*
X237040Y8472D01*
X237941Y8354D01*
X238842Y8472D01*
X239681Y8820D01*
X240402Y9373D01*
X240955Y10094D01*
X241303Y10934D01*
X241422Y11835D01*
X241303Y12736D01*
X240955Y13575D01*
X240402Y14296D01*
X239681Y14849D01*
X238842Y15197D01*
X237941Y15316D01*
D02*
G37*
G36*
X241392Y34971D02*
X234490D01*
Y29222D01*
X230423Y25155D01*
X230246Y24891D01*
X230184Y24579D01*
X230184Y24579D01*
Y6731D01*
X228631D01*
Y2387D01*
X233368D01*
Y6731D01*
X231816D01*
Y24241D01*
X235643Y28069D01*
X241392D01*
Y34971D01*
D02*
G37*
G36*
X220510Y15609D02*
X213608D01*
Y8706D01*
X220510D01*
Y8706D01*
X221010Y8836D01*
X222616Y7231D01*
X222409Y6731D01*
X221632D01*
Y2387D01*
X226368D01*
Y6731D01*
X224571D01*
Y7245D01*
X224509Y7557D01*
X224332Y7822D01*
X224332Y7822D01*
X221601Y10552D01*
X221337Y10729D01*
X221024Y10791D01*
X221024Y10791D01*
X220510D01*
Y15609D01*
D02*
G37*
G36*
X193831Y9846D02*
X185169D01*
X183832Y9670D01*
X182585Y9153D01*
X181515Y8332D01*
X180693Y7261D01*
X180177Y6015D01*
X180001Y4677D01*
X180177Y3339D01*
X180693Y2093D01*
X181515Y1022D01*
X182585Y201D01*
X183832Y-315D01*
X185169Y-491D01*
X193831D01*
X195168Y-315D01*
X196415Y201D01*
X197485Y1022D01*
X198307Y2093D01*
X198823Y3339D01*
X198999Y4677D01*
X198823Y6015D01*
X198307Y7261D01*
X197485Y8332D01*
X196415Y9153D01*
X195168Y9670D01*
X193831Y9846D01*
D02*
G37*
G36*
X269831Y9523D02*
X261169D01*
X259832Y9347D01*
X258585Y8830D01*
X257515Y8009D01*
X256693Y6939D01*
X256177Y5692D01*
X256001Y4354D01*
X256177Y3017D01*
X256693Y1770D01*
X257515Y700D01*
X258585Y-122D01*
X259832Y-638D01*
X261169Y-814D01*
X269831D01*
X271168Y-638D01*
X272415Y-122D01*
X273485Y700D01*
X274307Y1770D01*
X274823Y3017D01*
X274999Y4354D01*
X274823Y5692D01*
X274307Y6939D01*
X273485Y8009D01*
X272415Y8830D01*
X271168Y9347D01*
X269831Y9523D01*
D02*
G37*
G36*
X240369Y219D02*
X235631D01*
Y-4518D01*
X240369D01*
Y219D01*
D02*
G37*
G36*
X219369D02*
X214632D01*
Y-4518D01*
X219369D01*
Y219D01*
D02*
G37*
G36*
X303000Y13441D02*
X300897Y13276D01*
X298846Y12784D01*
X296898Y11976D01*
X295099Y10874D01*
X293495Y9505D01*
X292126Y7901D01*
X291024Y6102D01*
X290216Y4154D01*
X289724Y2103D01*
X289559Y0D01*
X289724Y-2103D01*
X290216Y-4154D01*
X291024Y-6102D01*
X292126Y-7901D01*
X293495Y-9505D01*
X295099Y-10874D01*
X296898Y-11976D01*
X298846Y-12784D01*
X300897Y-13276D01*
X303000Y-13441D01*
X305103Y-13276D01*
X307154Y-12784D01*
X309102Y-11976D01*
X310901Y-10874D01*
X312505Y-9505D01*
X313874Y-7901D01*
X314976Y-6102D01*
X315784Y-4154D01*
X316276Y-2103D01*
X316441Y0D01*
X316276Y2103D01*
X315784Y4154D01*
X314976Y6102D01*
X313874Y7901D01*
X312505Y9505D01*
X310901Y10874D01*
X309102Y11976D01*
X307154Y12784D01*
X305103Y13276D01*
X303000Y13441D01*
D02*
G37*
G36*
X0D02*
X-2103Y13276D01*
X-4154Y12784D01*
X-6102Y11976D01*
X-7901Y10874D01*
X-9505Y9505D01*
X-10874Y7901D01*
X-11976Y6102D01*
X-12784Y4154D01*
X-13276Y2103D01*
X-13441Y0D01*
X-13276Y-2103D01*
X-12784Y-4154D01*
X-11976Y-6102D01*
X-10874Y-7901D01*
X-9505Y-9505D01*
X-7901Y-10874D01*
X-6102Y-11976D01*
X-4154Y-12784D01*
X-2103Y-13276D01*
X0Y-13441D01*
X2103Y-13276D01*
X4154Y-12784D01*
X6102Y-11976D01*
X7901Y-10874D01*
X9505Y-9505D01*
X10874Y-7901D01*
X11976Y-6102D01*
X12784Y-4154D01*
X13276Y-2103D01*
X13441Y0D01*
X13276Y2103D01*
X12784Y4154D01*
X11976Y6102D01*
X10874Y7901D01*
X9505Y9505D01*
X7901Y10874D01*
X6102Y11976D01*
X4154Y12784D01*
X2103Y13276D01*
X0Y13441D01*
D02*
G37*
%LPD*%
D15*
X118829Y159750D02*
X118929D01*
X119779Y160600D01*
X118704Y154875D02*
X118829Y154750D01*
X113625Y154875D02*
X118704D01*
X113500Y155000D02*
X113625Y154875D01*
X165525Y169587D02*
Y171087D01*
X167525Y173087D01*
X160525Y232587D02*
Y234087D01*
X158525Y236087D02*
X160525Y234087D01*
X170000Y258869D02*
Y258968D01*
Y258869D02*
X175000Y253869D01*
X130000Y60000D02*
X135000Y55000D01*
X125000Y-9000D02*
X135000Y1000D01*
Y55000D01*
X195100Y244768D02*
Y250900D01*
X192131Y253869D02*
X195100Y250900D01*
X175000Y253869D02*
X192131D01*
X262632D01*
X265100Y242900D02*
Y251400D01*
X262632Y253869D02*
X265100Y251400D01*
X269000Y239000D02*
X273882D01*
X265100Y242900D02*
X269000Y239000D01*
X195100Y244768D02*
X201584Y238284D01*
Y238087D02*
Y238284D01*
X307000Y273559D02*
Y280866D01*
X307000Y280866D01*
X294000Y273559D02*
Y280866D01*
X281000Y274000D02*
Y280866D01*
X281000Y280866D02*
X281000Y280866D01*
X266000Y273559D02*
Y280866D01*
X252500Y112000D02*
X255343D01*
X248150Y114000D02*
X248682Y113468D01*
X251032D01*
X252500Y112000D01*
X209343D02*
Y115508D01*
X208850Y116000D02*
X209343Y115508D01*
X254563Y176279D02*
Y176914D01*
X253977Y177500D02*
X254563Y176914D01*
X249150Y177500D02*
X253977D01*
X254563Y176279D02*
X255343Y175500D01*
X209343D02*
Y179492D01*
X209350Y179500D01*
X192025Y224646D02*
X196407D01*
X187189D02*
X192025D01*
X167525Y236087D02*
X174253D01*
X174253Y236087D01*
X165525Y232587D02*
Y234087D01*
X167525Y236087D01*
X207867Y242079D02*
X207875Y242087D01*
X207867Y238087D02*
Y242079D01*
X196466Y238087D02*
X196466Y238087D01*
Y233587D02*
Y238087D01*
Y229087D02*
Y233587D01*
X213459Y228646D02*
X213674Y228861D01*
X213182Y234579D02*
Y238087D01*
X213674Y228861D02*
Y234087D01*
X213182Y234579D02*
X213674Y234087D01*
X213393Y228646D02*
X213459D01*
X213178Y228861D02*
X213393Y228646D01*
X151796Y236087D02*
X158525D01*
X151796Y236087D02*
X151796Y236087D01*
X182525Y224646D02*
X187189D01*
X220000Y223941D02*
X220000Y223941D01*
X248650Y239500D02*
X253842D01*
X248150Y240000D02*
X248650Y239500D01*
X220000Y223941D02*
X225000D01*
X219587Y223528D02*
X220000Y223941D01*
X202643Y223528D02*
X207175D01*
X213875Y223528D02*
X219587D01*
X201584Y224587D02*
X202643Y223528D01*
X196407Y224646D02*
X196466Y224587D01*
X167252Y108686D02*
X173980D01*
X173980Y108686D01*
X165252Y105186D02*
Y106686D01*
X167252Y108686D01*
X151123Y108633D02*
X151123Y108633D01*
X157852Y108633D01*
X159852Y105133D02*
Y106633D01*
X157852Y108633D02*
X159852Y106633D01*
X167525Y173087D02*
X174253D01*
X174253Y173087D01*
X160025Y169587D02*
Y171087D01*
X158025Y173087D02*
X160025Y171087D01*
X151296Y173087D02*
X158025D01*
X151296Y173087D02*
X151296Y173087D01*
X56152Y-1152D02*
Y11950D01*
X64000Y-9000D02*
X125000D01*
X56152Y-1152D02*
X64000Y-9000D01*
X48000Y20102D02*
X56152Y11950D01*
X55559Y277000D02*
X55839Y277279D01*
Y282240D01*
X55000Y276441D02*
X55559Y277000D01*
X55000Y268000D02*
Y276441D01*
X34843Y255000D02*
X42000D01*
X55000Y268000D01*
X29059Y8000D02*
X29161Y8102D01*
X266000Y268441D02*
X271559D01*
X280000Y260000D01*
Y258968D02*
Y260000D01*
X281000Y268882D02*
X284118D01*
X288661Y260308D02*
X290000Y258968D01*
X288661Y260308D02*
Y264339D01*
X284118Y268882D02*
X288661Y264339D01*
X294000Y268441D02*
X294900Y267541D01*
Y253869D02*
Y267541D01*
X290000Y248969D02*
X294900Y253869D01*
X306803Y268441D02*
X307000D01*
X301339Y262977D02*
X306803Y268441D01*
X301339Y260308D02*
Y262977D01*
X300000Y258968D02*
X301339Y260308D01*
D19*
X163084Y227590D02*
X168459D01*
X169338Y226712D01*
Y225125D02*
Y226712D01*
Y225125D02*
X169375Y225087D01*
X163352Y98633D02*
X168753D01*
X168790Y98243D02*
Y98596D01*
X168753Y98633D02*
X168790Y98596D01*
X169336Y162532D02*
Y163213D01*
X169299Y163250D02*
X169336Y163213D01*
X163088Y163250D02*
X169299D01*
D20*
X138052Y86633D02*
X143705D01*
X146047Y84291D02*
X147031D01*
X143705Y86633D02*
X146047Y84291D01*
X138229Y149750D02*
X138329Y149650D01*
X143688D01*
X145547Y147791D01*
X146531D01*
X137288Y212938D02*
X137389Y212838D01*
X144485D01*
X146031Y211291D01*
X125025Y222587D02*
X129938Y227500D01*
X158430D01*
X122475Y208038D02*
X125025Y210587D01*
Y222587D01*
X117989Y208038D02*
X122475D01*
X117888Y207938D02*
X117989Y208038D01*
D24*
X176470Y81133D02*
D03*
X173911Y81133D02*
D03*
X171352D02*
D03*
X168793Y81133D02*
D03*
X176943Y208234D02*
D03*
X174384D02*
D03*
X171825D02*
D03*
X169266Y208234D02*
D03*
X177052Y225087D02*
D03*
X174493Y225087D02*
D03*
X171934Y225087D02*
D03*
X169375Y225087D02*
D03*
X168790Y98243D02*
D03*
X171349D02*
D03*
X173908D02*
D03*
X176468D02*
D03*
X169438Y145355D02*
D03*
X171997D02*
D03*
X174556D02*
D03*
X177115D02*
D03*
X169336Y162532D02*
D03*
X171895Y162532D02*
D03*
X174454D02*
D03*
X177013Y162532D02*
D03*
X38161Y198673D02*
D03*
X40720Y198673D02*
D03*
X43279D02*
D03*
X45839Y198673D02*
D03*
D25*
X173354Y73523D02*
D03*
X173827Y200624D02*
D03*
X173936Y217477D02*
D03*
X173352Y90633D02*
D03*
X174000Y137745D02*
D03*
X173898Y154922D02*
D03*
X25390Y161998D02*
D03*
X14390Y131439D02*
D03*
X42723Y191063D02*
D03*
D31*
X260658Y112000D02*
D03*
X255343D02*
D03*
X214657D02*
D03*
X209343D02*
D03*
Y175500D02*
D03*
X214657D02*
D03*
X260658D02*
D03*
X255343D02*
D03*
X207867Y238087D02*
D03*
X213182D02*
D03*
X259157Y239500D02*
D03*
X253842D02*
D03*
D32*
X253150Y102559D02*
D03*
X208800Y166000D02*
D03*
X253150Y166059D02*
D03*
X207175Y228646D02*
D03*
X251150Y229059D02*
D03*
X208650Y102559D02*
D03*
D33*
X253150Y100000D02*
D03*
Y97441D02*
D03*
X259850D02*
D03*
Y102559D02*
D03*
X208800Y163441D02*
D03*
Y160882D02*
D03*
X215500Y160882D02*
D03*
X215500Y166000D02*
D03*
X253150Y163500D02*
D03*
Y160941D02*
D03*
X259850D02*
D03*
Y166059D02*
D03*
X207175Y226087D02*
D03*
X207175Y223528D02*
D03*
X213875Y223528D02*
D03*
X213875Y228646D02*
D03*
X251150Y226500D02*
D03*
Y223941D02*
D03*
X257850Y223941D02*
D03*
X257850Y229059D02*
D03*
X215350Y102559D02*
D03*
Y97441D02*
D03*
X208650Y97441D02*
D03*
X208650Y100000D02*
D03*
D38*
X33000Y158882D02*
D03*
X33000Y161441D02*
D03*
Y164000D02*
D03*
Y166559D02*
D03*
X22000Y136000D02*
D03*
X22000Y133441D02*
D03*
X22000Y130882D02*
D03*
D44*
X22000Y128323D02*
D03*
D46*
X34772Y108500D02*
D03*
D47*
X10165Y99445D02*
D03*
Y108500D02*
D03*
D48*
Y117555D02*
D03*
D57*
X15157Y255000D02*
D03*
D58*
X34843D02*
D03*
D59*
X237941Y11835D02*
D03*
Y21677D02*
D03*
X217059Y31842D02*
D03*
Y22000D02*
D03*
D60*
X237941Y31520D02*
D03*
X217059Y12157D02*
D03*
D61*
X265500Y4354D02*
D03*
Y39000D02*
D03*
X189500Y39323D02*
D03*
Y4677D02*
D03*
D63*
X70000Y60000D02*
D03*
Y258968D02*
D03*
D64*
X70000Y50000D02*
D03*
X80000Y60000D02*
D03*
X80000Y50000D02*
D03*
X90000Y60000D02*
D03*
Y50000D02*
D03*
X100000Y60000D02*
D03*
Y50000D02*
D03*
X110000Y60000D02*
D03*
X110000Y50000D02*
D03*
X120000Y60000D02*
D03*
Y50000D02*
D03*
X130000Y60000D02*
D03*
X130000Y50000D02*
D03*
X140000Y60000D02*
D03*
X140000Y50000D02*
D03*
X150000Y60000D02*
D03*
Y50000D02*
D03*
X160000Y60000D02*
D03*
X160000Y50000D02*
D03*
X170000Y60000D02*
D03*
X170000Y50000D02*
D03*
X180000Y60000D02*
D03*
Y50000D02*
D03*
X190000Y60000D02*
D03*
Y50000D02*
D03*
X200000Y60000D02*
D03*
Y50000D02*
D03*
X210000Y60000D02*
D03*
X210000Y50000D02*
D03*
X220000Y60000D02*
D03*
X220000Y50000D02*
D03*
X230000Y60000D02*
D03*
Y50000D02*
D03*
X240000Y60000D02*
D03*
Y50000D02*
D03*
X250000Y60000D02*
D03*
X250000Y50000D02*
D03*
X260000Y60000D02*
D03*
X260000Y50000D02*
D03*
X270000Y60000D02*
D03*
Y50000D02*
D03*
X280000Y60000D02*
D03*
X280000Y50000D02*
D03*
X290000Y60000D02*
D03*
Y50000D02*
D03*
X300000Y60000D02*
D03*
X300000Y50000D02*
D03*
X310000Y60000D02*
D03*
X310000Y50000D02*
D03*
X210000Y258968D02*
D03*
X190000Y248969D02*
D03*
X200000D02*
D03*
X240000Y258968D02*
D03*
X230000Y248969D02*
D03*
X210000D02*
D03*
X180000Y258968D02*
D03*
X240000Y248969D02*
D03*
X220000D02*
D03*
X250000D02*
D03*
X270000D02*
D03*
X280000Y258968D02*
D03*
X280000Y248969D02*
D03*
X290000Y258968D02*
D03*
X290000Y248969D02*
D03*
X300000Y258968D02*
D03*
Y248969D02*
D03*
X310000D02*
D03*
X260000Y258968D02*
D03*
X250000Y258968D02*
D03*
X260000Y248969D02*
D03*
X270000Y258968D02*
D03*
X310000D02*
D03*
X170000D02*
D03*
X230000D02*
D03*
X220000D02*
D03*
X200000Y258968D02*
D03*
X190000D02*
D03*
X180000Y248969D02*
D03*
X170000D02*
D03*
X150000Y258968D02*
D03*
X160000Y248969D02*
D03*
X140000D02*
D03*
X160000Y258968D02*
D03*
X150000Y248969D02*
D03*
X140000Y258968D02*
D03*
X130000Y258968D02*
D03*
X80000D02*
D03*
X90000D02*
D03*
X90000Y248969D02*
D03*
X100000Y258968D02*
D03*
X110000D02*
D03*
Y248969D02*
D03*
X120000D02*
D03*
X100000D02*
D03*
X130000D02*
D03*
X80000D02*
D03*
X70000D02*
D03*
X120000Y258968D02*
D03*
D65*
X138052Y81633D02*
D03*
Y86633D02*
D03*
Y91633D02*
D03*
Y96633D02*
D03*
X118652D02*
D03*
Y91633D02*
D03*
Y86633D02*
D03*
Y81633D02*
D03*
X117888Y207938D02*
D03*
X117888Y212938D02*
D03*
X117888Y217938D02*
D03*
Y222938D02*
D03*
X137288Y222938D02*
D03*
X137288Y217938D02*
D03*
Y212938D02*
D03*
X137288Y207938D02*
D03*
X118829Y144750D02*
D03*
Y149750D02*
D03*
Y154750D02*
D03*
Y159750D02*
D03*
X138229D02*
D03*
Y154750D02*
D03*
Y149750D02*
D03*
Y144750D02*
D03*
D66*
X144202Y77633D02*
D03*
X150501D02*
D03*
X254850Y108000D02*
D03*
X261150D02*
D03*
X241850Y114000D02*
D03*
X248150D02*
D03*
X215150Y116000D02*
D03*
X208850D02*
D03*
X208850Y108000D02*
D03*
X215150D02*
D03*
X242850Y172500D02*
D03*
X249150D02*
D03*
X209350Y179500D02*
D03*
X215650D02*
D03*
X215150Y171500D02*
D03*
X208850D02*
D03*
X254850D02*
D03*
X261150D02*
D03*
X242850Y177500D02*
D03*
X249150D02*
D03*
X213674Y234087D02*
D03*
X207375D02*
D03*
X151375Y205012D02*
D03*
X145076Y205012D02*
D03*
X248150Y235000D02*
D03*
X241850D02*
D03*
X259650D02*
D03*
X253350D02*
D03*
X248150Y240000D02*
D03*
X241850D02*
D03*
X207875Y242087D02*
D03*
X214174D02*
D03*
X151174Y141587D02*
D03*
X144875D02*
D03*
X248150Y109000D02*
D03*
X241850D02*
D03*
D67*
X147031Y84291D02*
D03*
X147031Y95709D02*
D03*
X146031Y222709D02*
D03*
X146031Y211291D02*
D03*
X146531Y159709D02*
D03*
X146531Y148291D02*
D03*
D68*
X13000Y173764D02*
D03*
Y184000D02*
D03*
X29000Y127764D02*
D03*
Y138000D02*
D03*
D69*
X291000Y97941D02*
D03*
Y103059D02*
D03*
X286000Y103118D02*
D03*
Y98000D02*
D03*
X188500Y166559D02*
D03*
X188500Y161441D02*
D03*
X222000Y161441D02*
D03*
Y166559D02*
D03*
X227000Y166559D02*
D03*
Y161441D02*
D03*
X242000Y166618D02*
D03*
Y161500D02*
D03*
X183500Y156441D02*
D03*
Y161559D02*
D03*
X232000Y156441D02*
D03*
Y161559D02*
D03*
X237000Y156441D02*
D03*
Y161559D02*
D03*
X286000Y166059D02*
D03*
Y160941D02*
D03*
X291000Y160941D02*
D03*
Y166059D02*
D03*
X266000Y166118D02*
D03*
Y161000D02*
D03*
X187189Y224530D02*
D03*
Y229648D02*
D03*
X225000Y229059D02*
D03*
Y223941D02*
D03*
X220000Y229059D02*
D03*
X220000Y223941D02*
D03*
X264000Y229059D02*
D03*
Y223941D02*
D03*
X240000Y229059D02*
D03*
Y223941D02*
D03*
X284000Y223941D02*
D03*
Y229059D02*
D03*
X289000Y229059D02*
D03*
Y223941D02*
D03*
X235000Y224059D02*
D03*
Y218941D02*
D03*
X230000Y224059D02*
D03*
Y218941D02*
D03*
X182525Y219528D02*
D03*
Y224646D02*
D03*
X31500Y204059D02*
D03*
Y198941D02*
D03*
X24500Y198941D02*
D03*
Y204059D02*
D03*
X29000Y179059D02*
D03*
X29000Y173941D02*
D03*
X266000Y103059D02*
D03*
Y97941D02*
D03*
X183000Y98059D02*
D03*
Y92941D02*
D03*
X188000Y103059D02*
D03*
Y97941D02*
D03*
X221000Y103059D02*
D03*
Y97941D02*
D03*
X226000Y97941D02*
D03*
Y103059D02*
D03*
X236000Y98059D02*
D03*
Y92941D02*
D03*
X231000Y98000D02*
D03*
Y92882D02*
D03*
X241000Y97941D02*
D03*
Y103059D02*
D03*
X-11500Y196118D02*
D03*
X-11500Y191000D02*
D03*
X-500Y191000D02*
D03*
Y196118D02*
D03*
X-6000Y191000D02*
D03*
X-6000Y196118D02*
D03*
X-5968Y98441D02*
D03*
Y103559D02*
D03*
X157000Y37118D02*
D03*
Y32000D02*
D03*
X163000Y37118D02*
D03*
Y32000D02*
D03*
X231000Y4559D02*
D03*
Y-559D02*
D03*
X111000Y38232D02*
D03*
Y33114D02*
D03*
X105000Y38232D02*
D03*
Y33114D02*
D03*
X294000Y273559D02*
D03*
X294000Y268441D02*
D03*
X281000Y274000D02*
D03*
Y268882D02*
D03*
X266000Y273559D02*
D03*
Y268441D02*
D03*
X307000Y273559D02*
D03*
Y268441D02*
D03*
X224000Y4559D02*
D03*
Y-559D02*
D03*
X19000Y183941D02*
D03*
Y189059D02*
D03*
X4500Y207559D02*
D03*
X4500Y202441D02*
D03*
X24000Y179059D02*
D03*
Y173941D02*
D03*
X19000Y174000D02*
D03*
Y179118D02*
D03*
D70*
X276000Y113000D02*
D03*
X281118D02*
D03*
X203059D02*
D03*
X197941D02*
D03*
X197941Y103000D02*
D03*
X203059Y103000D02*
D03*
X198441Y177000D02*
D03*
X203559D02*
D03*
X231941Y171500D02*
D03*
X237059D02*
D03*
X237059Y166500D02*
D03*
X231941D02*
D03*
X203559Y162000D02*
D03*
X198441D02*
D03*
Y167000D02*
D03*
X203559D02*
D03*
X198441Y172000D02*
D03*
X203559D02*
D03*
X275941Y166000D02*
D03*
X281059D02*
D03*
X275941Y161000D02*
D03*
X281059D02*
D03*
X281118Y171000D02*
D03*
X276000D02*
D03*
X281059Y176000D02*
D03*
X275941D02*
D03*
X157941Y226606D02*
D03*
X163059D02*
D03*
X201584Y233587D02*
D03*
X196466Y233587D02*
D03*
X201584Y238087D02*
D03*
X196466D02*
D03*
X196466Y229087D02*
D03*
X201584D02*
D03*
X159941Y207500D02*
D03*
X165059D02*
D03*
X235118Y234000D02*
D03*
X230000D02*
D03*
X273941Y229000D02*
D03*
X279059D02*
D03*
X279059Y234000D02*
D03*
X273941D02*
D03*
X279000Y239000D02*
D03*
X273882D02*
D03*
X229941Y229000D02*
D03*
X235059D02*
D03*
X273941Y224000D02*
D03*
X279059D02*
D03*
X196466Y224587D02*
D03*
X201584D02*
D03*
X163559Y99500D02*
D03*
X158441D02*
D03*
X156643Y80633D02*
D03*
X161761D02*
D03*
X160441Y144500D02*
D03*
X165559D02*
D03*
X158441Y164000D02*
D03*
X163559D02*
D03*
X29059Y8000D02*
D03*
X23941D02*
D03*
X29059Y32500D02*
D03*
X23941D02*
D03*
X29059Y20000D02*
D03*
X23941D02*
D03*
X275941Y103000D02*
D03*
X281059D02*
D03*
X281059Y108000D02*
D03*
X275941D02*
D03*
X275941Y98000D02*
D03*
X281059D02*
D03*
X203059D02*
D03*
X197941D02*
D03*
X197941Y108000D02*
D03*
X203059D02*
D03*
X236059D02*
D03*
X230941D02*
D03*
X230941Y103000D02*
D03*
X236059D02*
D03*
X69441Y286000D02*
D03*
X74559D02*
D03*
X55559Y277000D02*
D03*
X50441D02*
D03*
X21441Y152500D02*
D03*
X26559D02*
D03*
Y147500D02*
D03*
X21441D02*
D03*
D71*
X246000Y97850D02*
D03*
Y104150D02*
D03*
X193500Y161736D02*
D03*
X193500Y168035D02*
D03*
X247000Y167799D02*
D03*
Y161500D02*
D03*
X271000Y167150D02*
D03*
Y160850D02*
D03*
X192025Y230985D02*
D03*
X192025Y224686D02*
D03*
X269000Y230535D02*
D03*
Y224236D02*
D03*
X245000Y230299D02*
D03*
Y224000D02*
D03*
X271000Y104150D02*
D03*
Y97850D02*
D03*
X193000Y97850D02*
D03*
Y104150D02*
D03*
X151000Y32295D02*
D03*
Y38594D02*
D03*
X99000Y33409D02*
D03*
Y39709D02*
D03*
X238000Y-2150D02*
D03*
Y4150D02*
D03*
X217000Y-2150D02*
D03*
X217000Y4150D02*
D03*
D72*
X175025Y236087D02*
D03*
X151796Y236087D02*
D03*
X151738Y109133D02*
D03*
X174966D02*
D03*
X174966Y173087D02*
D03*
X151737D02*
D03*
D73*
X4339Y198240D02*
D03*
X64500Y278500D02*
D03*
D74*
X4339Y190760D02*
D03*
X13000Y194500D02*
D03*
X64500Y285980D02*
D03*
X55839Y282240D02*
D03*
D75*
X24760Y183839D02*
D03*
D76*
X32240Y183839D02*
D03*
X28500Y192500D02*
D03*
D77*
X42500Y158386D02*
D03*
X42500Y181614D02*
D03*
D78*
X47118Y204500D02*
D03*
X36882D02*
D03*
D79*
X-11500Y104366D02*
D03*
Y112634D02*
D03*
X266000Y280866D02*
D03*
Y289134D02*
D03*
X281000Y280866D02*
D03*
X281000Y289134D02*
D03*
X294000Y280866D02*
D03*
Y289134D02*
D03*
X307000Y280866D02*
D03*
Y289134D02*
D03*
D80*
X969Y119346D02*
D03*
Y112654D02*
D03*
Y98654D02*
D03*
Y105347D02*
D03*
D81*
X96126Y135000D02*
D03*
X61874Y135000D02*
D03*
X96126Y176000D02*
D03*
X61874Y176000D02*
D03*
X96252Y94000D02*
D03*
X62000Y94000D02*
D03*
X96126Y217000D02*
D03*
X61874D02*
D03*
D82*
X144000Y37787D02*
D03*
X91716Y38000D02*
D03*
D83*
X144000Y4717D02*
D03*
X126284Y4716D02*
D03*
X91716Y4929D02*
D03*
X74000D02*
D03*
D84*
X102459Y68500D02*
D03*
X91041Y68500D02*
D03*
X109250Y68532D02*
D03*
X120667Y68532D02*
D03*
D85*
X13000Y165252D02*
D03*
Y146748D02*
D03*
D86*
X286000Y98000D02*
X290941D01*
X281059D02*
X286000D01*
X290941D02*
X291000Y97941D01*
X89031Y238000D02*
X100000Y248969D01*
X24500Y209000D02*
X53500Y238000D01*
X89031D01*
X24500Y204059D02*
Y209000D01*
X7200Y208200D02*
X67500Y268500D01*
X90469D02*
X100000Y258968D01*
X67500Y268500D02*
X90469D01*
X4500Y207559D02*
X5141Y208200D01*
X7200D01*
X26500Y247000D02*
X39000D01*
X65500Y273500D02*
X106000D01*
X39000Y247000D02*
X65500Y273500D01*
X-11500Y196118D02*
X-6000D01*
X-500D01*
X106000Y273500D02*
X110000Y269500D01*
Y258968D02*
Y269500D01*
X-500Y220000D02*
X26500Y247000D01*
X-500Y196118D02*
Y220000D01*
X200000Y258968D02*
Y265500D01*
X179500Y286000D02*
X200000Y265500D01*
X74559Y286000D02*
X179500D01*
X111844Y221182D02*
Y230344D01*
X125061Y243561D02*
Y254030D01*
X111844Y230344D02*
X125061Y243561D01*
X121388Y223638D02*
Y232388D01*
X130000Y241000D02*
Y248969D01*
X121388Y232388D02*
X130000Y241000D01*
X125061Y254030D02*
X130000Y258968D01*
X111844Y221182D02*
X115088Y217938D01*
X117888D01*
Y222938D02*
X120688D01*
X121388Y223638D01*
X118468Y91817D02*
X118652Y91633D01*
X113683Y91817D02*
X118468D01*
X113500Y96500D02*
X113567Y96567D01*
X118585D01*
X118652Y96633D01*
X164169Y33169D02*
X165669D01*
X163000Y32000D02*
X164169Y33169D01*
X165669D02*
X167000Y34500D01*
Y40000D01*
X165000Y42000D02*
X167000Y40000D01*
X158000Y42000D02*
X165000D01*
X150000Y50000D02*
X158000Y42000D01*
X139000Y49000D02*
X140000Y50000D01*
X128000Y-14000D02*
X139000Y-3000D01*
Y49000D01*
X-9643Y103559D02*
X-5968D01*
X-12000Y105916D02*
X-9643Y103559D01*
X259850Y97441D02*
X275382D01*
X275941Y98000D01*
X266059Y103000D02*
X275941D01*
X256365Y102226D02*
X257565Y101026D01*
X262135D01*
X262796Y101687D01*
X264628D01*
X253150Y102559D02*
X253483Y102226D01*
X264628Y101687D02*
X266000Y103059D01*
X253483Y102226D02*
X256365D01*
X266000Y103059D02*
X266059Y103000D01*
X281059D02*
Y112941D01*
X281118Y113000D01*
X260658Y102866D02*
Y112000D01*
X260350Y102559D02*
X260658Y102866D01*
X259850Y102559D02*
X260350D01*
X248150Y109000D02*
X249718Y107431D01*
Y104341D02*
Y107431D01*
Y104341D02*
X251500Y102559D01*
X253150D01*
X241850Y103910D02*
Y109000D01*
X241000Y103059D02*
X241850Y103910D01*
X236059Y108000D02*
X240850D01*
X241850Y109000D01*
X231000Y98000D02*
Y107941D01*
X230941Y108000D02*
X231000Y107941D01*
X220803Y103059D02*
X221000D01*
X218744Y101000D02*
X220803Y103059D01*
X213092Y101000D02*
X218744D01*
X208650Y102559D02*
X208982Y102226D01*
X211865D01*
X213092Y101000D01*
X215350Y97441D02*
X225500D01*
X226000Y97941D01*
X236618Y97441D02*
X253150D01*
X236000Y98059D02*
X236618Y97441D01*
X215350Y102559D02*
Y111307D01*
X214657Y112000D02*
X215350Y111307D01*
X214657Y171500D02*
Y175500D01*
X203500Y102559D02*
X208650D01*
X203059Y103000D02*
X203500Y102559D01*
X203618Y97441D02*
X208150D01*
X203059Y98000D02*
X203618Y97441D01*
X183059Y98000D02*
X197941D01*
X183000Y98059D02*
X183059Y98000D01*
X197941Y103000D02*
Y113000D01*
Y103000D02*
X197941Y103000D01*
X281118Y160941D02*
X291000D01*
X281059Y161000D02*
X281118Y160941D01*
X183500Y161559D02*
X198000D01*
X198441Y162000D01*
X203559D02*
X204677Y160882D01*
X208800D01*
X198441Y167000D02*
Y177000D01*
X203559Y167000D02*
X204559Y166000D01*
X210450D01*
X219711Y164468D02*
X221803Y166559D01*
X215500Y160882D02*
X226441D01*
X221803Y166559D02*
X222000D01*
X226441Y160882D02*
X227000Y161441D01*
X242000Y166618D02*
X242850Y167469D01*
X237000Y161559D02*
X242000D01*
X237059Y171500D02*
X242850D01*
Y167469D02*
Y171500D01*
X241850D02*
X242850Y172500D01*
X212645Y164468D02*
X219711D01*
X210450Y166000D02*
X210782Y165667D01*
X211445D01*
X212645Y164468D01*
X214965Y166000D02*
X215500D01*
X250500Y167059D02*
Y171150D01*
X242000Y161500D02*
X247000D01*
X247559Y160941D02*
X253150D01*
X247000Y161500D02*
X247559Y160941D01*
X249150Y172500D02*
X250500Y171150D01*
Y167059D02*
X251500Y166059D01*
X231941Y171500D02*
X232000Y171441D01*
Y161559D02*
Y171441D01*
X214657Y166307D02*
Y171500D01*
Y166307D02*
X214965Y166000D01*
X271000Y167150D02*
X274791D01*
X259850Y160941D02*
X275882D01*
X269969Y166118D02*
X271000Y167150D01*
X266000Y166118D02*
X269969D01*
X265574Y165692D02*
X266000Y166118D01*
X263300Y165692D02*
X265574D01*
X261608Y164000D02*
X263300Y165692D01*
X260350Y166059D02*
X260658Y166366D01*
X259850Y166059D02*
X260350D01*
X275882Y160941D02*
X275941Y161000D01*
X274791Y167150D02*
X275941Y166000D01*
X281059D02*
Y176000D01*
X255132Y165726D02*
X255819D01*
X257546Y164000D01*
X251500Y166059D02*
X254800D01*
X255132Y165726D01*
X257546Y164000D02*
X261608D01*
X260658Y166366D02*
Y175500D01*
X240000Y223941D02*
X245000D01*
X251150D01*
X208825Y228646D02*
X210357Y227114D01*
X217858D02*
X219803Y229059D01*
X210357Y227114D02*
X217858D01*
X201584Y229087D02*
X202025Y228646D01*
X207175D02*
X208825D01*
X202025D02*
X207175D01*
X267524Y229059D02*
X269000Y230535D01*
X248150Y230410D02*
Y235000D01*
X235118Y234000D02*
X240850D01*
X241000Y230059D02*
Y234150D01*
X259500Y229366D02*
Y234850D01*
X241000Y234150D02*
X241850Y235000D01*
X256469Y226500D02*
X261244D01*
X235000Y224059D02*
X235118Y223941D01*
X240000D01*
X263803Y229059D02*
X267524D01*
X261244Y226500D02*
X263803Y229059D01*
X273882Y223941D02*
X273941Y224000D01*
X257850Y223941D02*
X273882D01*
X254242Y228727D02*
X256469Y226500D01*
X219803Y229059D02*
X220000D01*
X279000D02*
X279059Y229000D01*
X273777Y229164D02*
X273941Y229000D01*
X269000Y230535D02*
X270372Y229164D01*
X279000Y229059D02*
Y239000D01*
X270372Y229164D02*
X273777D01*
X259157Y235492D02*
X259650Y235000D01*
X259500Y234850D02*
X259650Y235000D01*
X259157Y235492D02*
Y239500D01*
X240000Y229059D02*
X241000Y230059D01*
X248150Y230410D02*
X249500Y229059D01*
X230000Y224059D02*
Y234000D01*
X251483Y228727D02*
X254242D01*
X257850Y229059D02*
X259193D01*
X249500Y229059D02*
X251150D01*
X259193Y229059D02*
X259500Y229366D01*
X251150Y229059D02*
X251483Y228727D01*
X288941Y224000D02*
X289000Y223941D01*
X279059Y224000D02*
X288941D01*
X13000Y194500D02*
X17000D01*
X19000Y189059D02*
Y192500D01*
X17000Y194500D02*
X19000Y192500D01*
X13781Y183941D02*
X19000D01*
X13000Y184722D02*
X13781Y183941D01*
X13000Y184722D02*
Y185000D01*
X19000Y179118D02*
Y183941D01*
X19059Y179059D02*
X24000D01*
X19000Y179118D02*
X19059Y179059D01*
X113700Y33708D02*
X115000Y35008D01*
X70376Y-3907D02*
X111093D01*
X120000Y5000D01*
Y50000D01*
X70000Y-3531D02*
Y-3000D01*
Y-3531D02*
X70376Y-3907D01*
X62000Y5000D02*
X70000Y-3000D01*
X48000Y32102D02*
X62000Y18102D01*
Y5000D02*
Y18102D01*
X48000Y-1000D02*
Y8102D01*
X61000Y-14000D02*
X128000D01*
X48000Y-1000D02*
X61000Y-14000D01*
X111000Y33114D02*
X111594Y33708D01*
X113700D01*
X110000Y50000D02*
X111008D01*
X115000Y35008D02*
Y46008D01*
X111008Y50000D02*
X115000Y46008D01*
X64500Y285980D02*
X69421D01*
X69441Y286000D01*
X29713Y169000D02*
X32153Y166559D01*
X24000Y171190D02*
X26190Y169000D01*
X29713D01*
X24000Y171190D02*
Y174441D01*
X32153Y166559D02*
X33000D01*
X21441Y146559D02*
X21872D01*
X22000Y146432D01*
Y136000D02*
Y146432D01*
X36882Y204500D02*
X37380D01*
X38161Y203719D01*
Y198673D02*
Y203719D01*
X31500Y204059D02*
X31941Y204500D01*
X36882D01*
X24500Y198941D02*
X24760Y198681D01*
Y183839D02*
Y198681D01*
X31500Y198941D02*
X32240Y198201D01*
Y183839D02*
Y198201D01*
X28500Y180059D02*
Y192500D01*
Y180059D02*
X29000Y179559D01*
X4339Y198240D02*
Y202279D01*
X240000Y48222D02*
Y50000D01*
Y48222D02*
X243000Y45222D01*
Y26736D02*
Y45222D01*
X237941Y21677D02*
X243000Y26736D01*
X220000Y50000D02*
X221339Y48661D01*
Y46075D02*
Y48661D01*
Y46075D02*
X221500Y45914D01*
Y26441D02*
Y45914D01*
X217059Y22000D02*
X221500Y26441D01*
X37602Y32500D02*
X38000Y32102D01*
X29059Y32500D02*
X37602Y32500D01*
X29161Y20102D02*
X38000Y20102D01*
X29059Y20000D02*
X29161Y20102D01*
Y8102D02*
X38000D01*
X144000Y37787D02*
X162331D01*
X144000Y4717D02*
Y37787D01*
X144000Y37787D01*
X26559Y141032D02*
Y145000D01*
Y141032D02*
X29000Y138591D01*
Y138000D02*
Y138591D01*
X26559Y145000D02*
Y151000D01*
X4339Y202279D02*
X4500Y202441D01*
X217059Y12157D02*
X219241Y9975D01*
X221024D01*
X223755Y7245D01*
Y4804D02*
Y7245D01*
Y4804D02*
X224000Y4559D01*
X162331Y37787D02*
X163000Y37118D01*
X105000Y38232D02*
X105768Y39000D01*
X110232D02*
X111000Y38232D01*
X105768Y39000D02*
X110232D01*
X99000Y39709D02*
X99709Y39000D01*
X104232D02*
X105000Y38232D01*
X99709Y39000D02*
X104232D01*
X91716Y38000D02*
X92716Y39000D01*
X98291D02*
X99000Y39709D01*
X92716Y39000D02*
X98291D01*
X91716Y4929D02*
Y38000D01*
X231000Y24579D02*
X237941Y31520D01*
X231000Y4559D02*
Y24579D01*
X211000Y8850D02*
X216850Y3000D01*
X211000Y15941D02*
X217059Y22000D01*
X211000Y8850D02*
Y15941D01*
X237941Y21677D02*
X244000Y15618D01*
X238150Y3000D02*
X244000Y8850D01*
Y15618D01*
D87*
X138052Y91633D02*
X149867D01*
X156749Y84751D01*
X156643Y80633D02*
Y81396D01*
X156749Y81502D01*
Y84751D01*
X125852Y96483D02*
X129272Y99904D01*
X158234D01*
X138229Y154750D02*
X150388D01*
X160441Y144697D01*
Y144500D02*
Y144697D01*
X131610Y164172D02*
X157966D01*
X126525Y159087D02*
X131610Y164172D01*
X159941Y207500D02*
Y207697D01*
X149062Y217938D02*
X158632Y208368D01*
X159269D01*
X159941Y207697D01*
X137288Y217938D02*
X149062D01*
X123352Y81633D02*
X125852Y84133D01*
Y96483D01*
X118652Y81633D02*
X123352D01*
X123688Y144750D02*
X126525Y147587D01*
Y159087D01*
X118829Y144750D02*
X123688D01*
D88*
X15157Y255000D02*
X37157Y277000D01*
X50441D01*
X-7000Y255000D02*
X15157D01*
X-17000Y245000D02*
X-7000Y255000D01*
X-17000Y216000D02*
Y245000D01*
D89*
X80000Y60000D02*
Y60500D01*
D90*
X307500Y166500D02*
D03*
Y156500D02*
D03*
X-6500Y146500D02*
D03*
Y156500D02*
D03*
D91*
X307500Y146500D02*
D03*
X-6500Y166500D02*
D03*
D92*
X38000Y8102D02*
D03*
X48000D02*
D03*
X38000Y32102D02*
D03*
X48000D02*
D03*
X38000Y20102D02*
D03*
X48000Y20102D02*
D03*
D93*
X303000Y0D02*
D03*
X0D02*
D03*
X303000Y313000D02*
D03*
X0D02*
D03*
D94*
X185000Y155000D02*
D03*
X190000Y90000D02*
D03*
X200000Y85000D02*
D03*
X215000Y90000D02*
D03*
X230000Y85000D02*
D03*
X250000Y90000D02*
D03*
X265000Y85000D02*
D03*
X280000Y90000D02*
D03*
X300000Y85000D02*
D03*
X315000D02*
D03*
X300000Y95000D02*
D03*
X315000D02*
D03*
Y105000D02*
D03*
X300000D02*
D03*
Y115000D02*
D03*
X315000D02*
D03*
Y125000D02*
D03*
X300000D02*
D03*
Y135000D02*
D03*
X315000D02*
D03*
X295000Y150000D02*
D03*
X290000Y155000D02*
D03*
X250000D02*
D03*
X260000D02*
D03*
X270000D02*
D03*
X280000D02*
D03*
X285000Y150000D02*
D03*
X275000D02*
D03*
X265000D02*
D03*
X255000D02*
D03*
X245000D02*
D03*
X195000D02*
D03*
X215000D02*
D03*
X235000D02*
D03*
X220000Y155000D02*
D03*
X210000D02*
D03*
X200000D02*
D03*
X190000D02*
D03*
X315000Y180000D02*
D03*
X300000D02*
D03*
Y170000D02*
D03*
X315000D02*
D03*
X215000Y215000D02*
D03*
X200000D02*
D03*
X190000D02*
D03*
X185000Y210000D02*
D03*
X195000D02*
D03*
X205000D02*
D03*
X220000D02*
D03*
X230000D02*
D03*
X240000D02*
D03*
X265000D02*
D03*
X310000Y195000D02*
D03*
X300000D02*
D03*
Y205000D02*
D03*
Y215000D02*
D03*
X310000Y205000D02*
D03*
Y215000D02*
D03*
X312000Y297500D02*
D03*
Y285500D02*
D03*
Y273500D02*
D03*
Y237500D02*
D03*
Y225500D02*
D03*
Y69500D02*
D03*
X300000Y297500D02*
D03*
Y285500D02*
D03*
Y273500D02*
D03*
Y237500D02*
D03*
Y225500D02*
D03*
Y69500D02*
D03*
X288000Y321500D02*
D03*
Y297500D02*
D03*
Y285500D02*
D03*
Y273500D02*
D03*
Y237500D02*
D03*
Y69500D02*
D03*
X276000Y321500D02*
D03*
Y309500D02*
D03*
Y297500D02*
D03*
Y285500D02*
D03*
Y273500D02*
D03*
Y69500D02*
D03*
X264000Y321500D02*
D03*
Y309500D02*
D03*
Y297500D02*
D03*
Y69500D02*
D03*
X252000Y321500D02*
D03*
Y309500D02*
D03*
Y297500D02*
D03*
Y285500D02*
D03*
Y273500D02*
D03*
Y69500D02*
D03*
X240000Y321500D02*
D03*
Y309500D02*
D03*
Y297500D02*
D03*
Y285500D02*
D03*
Y273500D02*
D03*
Y69500D02*
D03*
X228000Y321500D02*
D03*
Y309500D02*
D03*
Y297500D02*
D03*
Y285500D02*
D03*
Y273500D02*
D03*
Y69500D02*
D03*
X216000Y321500D02*
D03*
Y309500D02*
D03*
Y297500D02*
D03*
Y285500D02*
D03*
Y273500D02*
D03*
Y69500D02*
D03*
X204000Y321500D02*
D03*
Y309500D02*
D03*
Y297500D02*
D03*
Y285500D02*
D03*
Y273500D02*
D03*
Y69500D02*
D03*
X192000Y321500D02*
D03*
Y309500D02*
D03*
Y297500D02*
D03*
Y285500D02*
D03*
Y237500D02*
D03*
Y177500D02*
D03*
Y69500D02*
D03*
X180000Y321500D02*
D03*
Y309500D02*
D03*
Y297500D02*
D03*
Y273500D02*
D03*
X168000Y321500D02*
D03*
Y309500D02*
D03*
Y297500D02*
D03*
Y273500D02*
D03*
Y177500D02*
D03*
X156000Y321500D02*
D03*
Y309500D02*
D03*
Y297500D02*
D03*
Y273500D02*
D03*
X144000Y321500D02*
D03*
Y309500D02*
D03*
Y297500D02*
D03*
Y273500D02*
D03*
X132000Y321500D02*
D03*
Y309500D02*
D03*
Y297500D02*
D03*
Y273500D02*
D03*
Y237500D02*
D03*
X120000Y321500D02*
D03*
Y309500D02*
D03*
Y297500D02*
D03*
Y273500D02*
D03*
X108000Y321500D02*
D03*
Y309500D02*
D03*
Y297500D02*
D03*
X96000Y321500D02*
D03*
Y309500D02*
D03*
Y297500D02*
D03*
Y237500D02*
D03*
Y225500D02*
D03*
X84000Y321500D02*
D03*
Y309500D02*
D03*
Y297500D02*
D03*
Y225500D02*
D03*
X72000Y321500D02*
D03*
Y309500D02*
D03*
Y297500D02*
D03*
Y225500D02*
D03*
Y117500D02*
D03*
Y105500D02*
D03*
Y81500D02*
D03*
X60000Y321500D02*
D03*
Y309500D02*
D03*
Y297500D02*
D03*
Y285500D02*
D03*
Y273500D02*
D03*
Y249500D02*
D03*
Y225500D02*
D03*
Y201500D02*
D03*
Y189500D02*
D03*
Y117500D02*
D03*
Y105500D02*
D03*
Y81500D02*
D03*
X48000Y321500D02*
D03*
Y309500D02*
D03*
Y297500D02*
D03*
Y285500D02*
D03*
Y237500D02*
D03*
Y225500D02*
D03*
Y213500D02*
D03*
Y129500D02*
D03*
Y117500D02*
D03*
Y105500D02*
D03*
Y93500D02*
D03*
Y81500D02*
D03*
X36000Y321500D02*
D03*
Y309500D02*
D03*
Y297500D02*
D03*
Y285500D02*
D03*
Y261500D02*
D03*
Y225500D02*
D03*
Y213500D02*
D03*
Y129500D02*
D03*
Y117500D02*
D03*
Y93500D02*
D03*
X24000Y321500D02*
D03*
Y309500D02*
D03*
Y297500D02*
D03*
Y285500D02*
D03*
Y273500D02*
D03*
Y249500D02*
D03*
Y237500D02*
D03*
Y213500D02*
D03*
Y117500D02*
D03*
Y105500D02*
D03*
X12000Y297500D02*
D03*
Y285500D02*
D03*
Y273500D02*
D03*
Y261500D02*
D03*
Y249500D02*
D03*
Y237500D02*
D03*
Y225500D02*
D03*
Y201500D02*
D03*
Y189500D02*
D03*
X0Y297500D02*
D03*
Y285500D02*
D03*
Y273500D02*
D03*
Y261500D02*
D03*
Y249500D02*
D03*
Y237500D02*
D03*
Y225500D02*
D03*
X-12000Y297500D02*
D03*
Y285500D02*
D03*
Y273500D02*
D03*
Y261500D02*
D03*
Y237500D02*
D03*
Y225500D02*
D03*
Y213500D02*
D03*
Y201500D02*
D03*
X147000Y232000D02*
D03*
Y236500D02*
D03*
Y241000D02*
D03*
X147000Y178000D02*
D03*
Y114000D02*
D03*
Y173500D02*
D03*
Y169000D02*
D03*
Y105000D02*
D03*
X251500Y201000D02*
D03*
X147000Y109500D02*
D03*
X284500Y196000D02*
D03*
X211000Y201500D02*
D03*
D95*
X119779Y160600D02*
D03*
X167000Y75000D02*
D03*
X113461Y152087D02*
D03*
X113500Y155000D02*
D03*
X124492Y161816D02*
D03*
X165525Y169587D02*
D03*
X193500Y168035D02*
D03*
X216493Y117343D02*
D03*
X215650Y179500D02*
D03*
X122660Y149778D02*
D03*
X122352Y86633D02*
D03*
X114717Y86642D02*
D03*
X121902Y212936D02*
D03*
X160525Y232587D02*
D03*
X150503Y77583D02*
D03*
X241850Y114000D02*
D03*
X187301Y229589D02*
D03*
X114968Y149735D02*
D03*
X113683Y91817D02*
D03*
X113500Y96500D02*
D03*
X151176Y141537D02*
D03*
X151375Y205012D02*
D03*
X123500Y69500D02*
D03*
X159000Y76500D02*
D03*
X153000Y82500D02*
D03*
X286000Y103118D02*
D03*
X66500Y278500D02*
D03*
X122000Y72000D02*
D03*
X119500D02*
D03*
X160500Y84500D02*
D03*
X153000Y146000D02*
D03*
X158000Y140000D02*
D03*
X276000Y113000D02*
D03*
X203059D02*
D03*
X167000Y139500D02*
D03*
X158500Y203500D02*
D03*
X159500Y211500D02*
D03*
X275941Y176000D02*
D03*
X203559Y177000D02*
D03*
X160500Y148500D02*
D03*
X154700Y208500D02*
D03*
X168241Y199937D02*
D03*
X253350Y235000D02*
D03*
X249000Y226500D02*
D03*
X245000Y230299D02*
D03*
X208669Y226028D02*
D03*
X207488Y234028D02*
D03*
X205000Y226000D02*
D03*
X275941Y108000D02*
D03*
X226000Y103059D02*
D03*
X236059Y103000D02*
D03*
X255129Y99949D02*
D03*
X251000Y100000D02*
D03*
X246000Y104150D02*
D03*
X254850Y108000D02*
D03*
X208850D02*
D03*
X211000Y100000D02*
D03*
X206500D02*
D03*
X203059Y108000D02*
D03*
X193000Y104150D02*
D03*
X188000Y103059D02*
D03*
X237059Y166500D02*
D03*
X188500Y166559D02*
D03*
X203559Y172000D02*
D03*
X207000Y163500D02*
D03*
X208850Y171500D02*
D03*
X211000Y163500D02*
D03*
X276000Y171000D02*
D03*
X286000Y166059D02*
D03*
X227000Y166559D02*
D03*
X247000Y167799D02*
D03*
X242850Y177500D02*
D03*
X254850Y171500D02*
D03*
X251500Y163500D02*
D03*
X255500D02*
D03*
X273941Y234000D02*
D03*
X284000Y229059D02*
D03*
X289000Y229059D02*
D03*
X253500Y226500D02*
D03*
X214174Y242087D02*
D03*
X207867Y242079D02*
D03*
X248150Y240000D02*
D03*
X241850D02*
D03*
X192137Y230926D02*
D03*
X235059Y229000D02*
D03*
X225000Y229059D02*
D03*
X201696Y233528D02*
D03*
X165525Y232587D02*
D03*
X159965Y105223D02*
D03*
X165252Y105186D02*
D03*
X160025Y169587D02*
D03*
X307000Y289134D02*
D03*
X294000D02*
D03*
X281000Y289134D02*
D03*
X266000Y289134D02*
D03*
X4339Y190760D02*
D03*
X-6000Y191000D02*
D03*
X-500Y191000D02*
D03*
X217000Y-2150D02*
D03*
X238000D02*
D03*
X151000Y32295D02*
D03*
X157000Y32000D02*
D03*
X105000Y33114D02*
D03*
X99000Y33409D02*
D03*
M02*
