M48
;Layer_Color=9474304
;FILE_FORMAT=2:5
INCH,TZ
;TYPE=PLATED
T1F00S00C0.00800
T2F00S00C0.02000
T3F00S00C0.02559
T4F00S00C0.03543
T5F00S00C0.03937
T6F00S00C0.04724
T7F00S00C0.05500
T9F00S00C0.12205
%
T01
X99000Y33409
X105000Y33114
X151000Y32295
X157000Y32000
X159000Y76500
X167000Y75000
X150503Y77583
X122000Y72000
X119500
X123500Y69500
X217000Y-2150
X238000
X236059Y103000
X226000Y103059
X211000Y100000
X206500
X208850Y108000
X203059
X203059Y113000
X216493Y117343
X241850Y114000
X246000Y104150
X251000Y100000
X255129Y99949
X254850Y108000
X275941
X276000Y113000
X286000Y103118
Y166059
X276000Y171000
X275941Y176000
X254850Y171500
X255500Y163500
X251500
X247000Y167799
X237059Y166500
X227000Y166559
X211000Y163500
X207000
X208850Y171500
X203559Y172000
Y177000
X215650Y179500
X242850Y177500
X245000Y230299
X249000Y226500
X253500
X253350Y235000
X273941Y234000
X284000Y229059
X289000Y229059
X235059Y229000
X225000Y229059
X208669Y226028
X205000Y226000
X207488Y234028
X201696Y233528
X192137Y230926
X187301Y229589
X188500Y166559
X193500Y168035
X193000Y104150
X188000Y103059
X165252Y105186
X159965Y105223
X160500Y84500
X153000Y82500
X122352Y86633
X114717Y86642
X113683Y91817
X113500Y96500
X114968Y149735
X113461Y152087
X113500Y155000
X119779Y160600
X124492Y161816
X122660Y149778
X153000Y146000
X151176Y141537
X158000Y140000
X167000Y139500
X160500Y148500
X160025Y169587
X165525
X168241Y199937
X158500Y203500
X151375Y205012
X154700Y208500
X159500Y211500
X160525Y232587
X165525
X121902Y212936
X4339Y190760
X-500Y191000
X-6000Y191000
X66500Y278500
X207867Y242079
X214174Y242087
X241850Y240000
X248150
X266000Y289134
X281000Y289134
X294000Y289134
X307000
T02
X48000Y81500
X60000
X72000
X192000Y69500
X204000
X216000
X228000
X240000
X252000
X264000
X276000
X288000
X300000
X312000
X315000Y85000
Y95000
Y105000
Y115000
Y125000
Y135000
X300000
Y125000
Y115000
Y105000
Y95000
Y85000
X280000Y90000
X265000Y85000
X250000Y90000
X230000Y85000
X215000Y90000
X200000Y85000
X190000Y90000
X195000Y150000
X200000Y155000
X210000
X215000Y150000
X220000Y155000
X235000Y150000
X245000
X250000Y155000
X260000
X270000
X280000
X290000
X295000Y150000
X285000
X275000
X265000
X255000
X251500Y201000
X240000Y210000
X230000
X220000
X215000Y215000
X200000
X190000
X185000Y210000
X195000
X205000
X211000Y201500
X192000Y177500
X190000Y155000
X185000
X192000Y237500
X288000
X300000
X312000
Y225500
X300000
Y215000
Y205000
Y195000
X310000
Y205000
Y215000
X315000Y180000
Y170000
X300000
Y180000
X284500Y196000
X265000Y210000
X168000Y177500
X147000Y178000
Y173500
Y169000
Y114000
Y109500
Y105000
X72000Y105500
Y117500
X60000
Y105500
X48000
Y117500
Y129500
X36000
Y117500
Y93500
X48000
X60000Y189500
Y201500
Y225500
X72000
X84000
X96000
Y237500
X132000
X147000Y236500
Y232000
X48000Y237500
Y225500
Y213500
X36000
Y225500
X24000Y237500
X12000
Y225500
X0
Y237500
X-12000
Y225500
Y213500
Y201500
X12000
Y189500
X24000Y213500
Y117500
Y105500
Y249500
X12000
Y261500
Y273500
X24000
Y285500
Y297500
Y309500
Y321500
X12000Y297500
Y285500
X0
Y297500
X-12000
Y285500
Y273500
X0
Y261500
Y249500
X-12000Y261500
X36000
Y285500
X48000
X60000
Y297500
X72000
X84000
X96000
X108000
X120000
X132000
X144000
X156000
X168000
X180000
Y309500
Y321500
X168000
Y309500
X156000
Y321500
X144000
Y309500
X132000
Y321500
X120000
Y309500
X108000
Y321500
X96000
Y309500
X84000
Y321500
X72000
Y309500
X60000
Y321500
X48000
Y309500
Y297500
X36000
Y309500
Y321500
X60000Y273500
Y249500
X120000Y273500
X132000
X144000
X156000
X168000
X180000
X147000Y241000
X204000Y273500
X216000
X228000
X240000
X252000
Y285500
Y297500
X264000
X276000
X288000
X300000
X312000
Y285500
Y273500
X300000
Y285500
X288000
Y273500
X276000
Y285500
Y309500
Y321500
X288000
X264000
Y309500
X252000
Y321500
X240000
Y309500
Y297500
Y285500
X228000
Y297500
Y309500
Y321500
X216000
Y309500
Y297500
Y285500
X204000
Y297500
Y309500
Y321500
X192000
Y309500
Y297500
Y285500
T03
X15157Y255000
X34843
T04
X38000Y8102
X48000
X48000Y20102
X38000Y20102
X38000Y32102
X48000
T05
X217059Y12157
Y22000
Y31842
X237941Y31520
Y21677
Y11835
T06
X307500Y146500
Y156500
Y166500
X-6500
Y156500
Y146500
T07
X70000Y50000
X80000
X90000Y50000
Y60000
X80000
X70000
X100000
Y50000
X110000
X120000
X130000Y50000
X140000Y50000
X150000
Y60000
X140000
X130000
X120000Y60000
X110000Y60000
X160000
X160000Y50000
X170000
X180000Y50000
Y60000
X170000
X190000
Y50000
X200000
Y60000
X210000
X220000
X230000
Y50000
X240000
Y60000
X250000
X250000Y50000
X260000Y50000
X270000Y50000
X280000
X290000
Y60000
X280000
X270000Y60000
X260000Y60000
X300000
X310000
X310000Y50000
X300000Y50000
X220000Y50000
X210000Y50000
X180000Y248969
X170000
Y258968
X180000
X160000
X150000
X150000Y248969
X160000
X140000
X130000
X120000
X110000
X100000
X90000
X80000
Y258968
X90000
X100000Y258968
X110000
X120000Y258968
X130000
X140000Y258968
X70000
X70000Y248969
X190000
X200000
Y258968
X190000
X210000Y258968
X220000
X230000
Y248969
X220000
X210000
X240000
X250000
Y258968
X240000
X260000Y258968
X270000
X270000Y248969
X280000
X290000
X290000Y258968
X300000
X310000
X310000Y248969
X300000
X280000Y258968
X260000Y248969
T09
X0Y0
X303000
X0Y313000
X303000
M30
