G04*
G04 #@! TF.GenerationSoftware,Altium Limited,Altium Designer,23.6.0 (18)*
G04*
G04 Layer_Color=32896*
%FSLAX25Y25*%
%MOIN*%
G70*
G04*
G04 #@! TF.SameCoordinates,4C77A988-F8BE-4A75-A6A8-83DB4AFB9164*
G04*
G04*
G04 #@! TF.FilePolarity,Positive*
G04*
G01*
G75*
%ADD12C,0.00984*%
%ADD14C,0.00787*%
%ADD15C,0.01000*%
D12*
X160285Y80606D02*
G03*
X160285Y80606I-492J0D01*
G01*
X160458Y145560D02*
G03*
X160458Y145560I-492J0D01*
G01*
D14*
X168824Y207012D02*
X168824Y210162D01*
X157808Y195803D02*
X157808Y204071D01*
X168241Y195803D02*
X168241Y204071D01*
X156701Y218575D02*
X156701Y215425D01*
X168651Y79059D02*
Y82208D01*
X167568Y67000D02*
Y75267D01*
X157135Y67000D02*
Y75267D01*
X156553Y86559D02*
Y89708D01*
X167741Y131953D02*
Y140221D01*
X157308Y131953D02*
Y140221D01*
X168299Y143925D02*
Y147075D01*
X156726Y151512D02*
Y154662D01*
D15*
X315400Y0D02*
G03*
X315400Y0I-12400J0D01*
G01*
X12400D02*
G03*
X12400Y0I-12400J0D01*
G01*
X315400Y313000D02*
G03*
X315400Y313000I-12400J0D01*
G01*
X12400D02*
G03*
X12400Y313000I-12400J0D01*
G01*
X169251Y202916D02*
X172166D01*
X172749Y202333D01*
Y201166D01*
X172166Y200583D01*
X169251D01*
Y197084D02*
Y199417D01*
X171000D01*
X170417Y198251D01*
Y197667D01*
X171000Y197084D01*
X172166D01*
X172749Y197667D01*
Y198834D01*
X172166Y199417D01*
X169060Y138818D02*
X171975D01*
X172558Y138235D01*
Y137069D01*
X171975Y136486D01*
X169060D01*
Y132987D02*
Y135319D01*
X170809D01*
X170226Y134153D01*
Y133570D01*
X170809Y132987D01*
X171975D01*
X172558Y133570D01*
Y134736D01*
X171975Y135319D01*
X169000Y73834D02*
X171915D01*
X172498Y73251D01*
Y72084D01*
X171915Y71501D01*
X169000D01*
Y68002D02*
Y70335D01*
X170749D01*
X170166Y69169D01*
Y68586D01*
X170749Y68002D01*
X171915D01*
X172498Y68586D01*
Y69752D01*
X171915Y70335D01*
X145665Y198751D02*
Y202249D01*
X143916D01*
X143333Y201666D01*
Y200500D01*
X143916Y199917D01*
X145665D01*
X144499D02*
X143333Y198751D01*
X140417D02*
Y202249D01*
X142166Y200500D01*
X139834D01*
X138667Y199334D02*
X138084Y198751D01*
X136918D01*
X136335Y199334D01*
Y201666D01*
X136918Y202249D01*
X138084D01*
X138667Y201666D01*
Y201083D01*
X138084Y200500D01*
X136335D01*
X145665Y134251D02*
Y137749D01*
X143916D01*
X143333Y137166D01*
Y136000D01*
X143916Y135417D01*
X145665D01*
X144499D02*
X143333Y134251D01*
X140417D02*
Y137749D01*
X142166Y136000D01*
X139834D01*
X138667Y134834D02*
X138084Y134251D01*
X136918D01*
X136335Y134834D01*
Y137166D01*
X136918Y137749D01*
X138084D01*
X138667Y137166D01*
Y136583D01*
X138084Y136000D01*
X136335D01*
X145165Y69751D02*
Y73249D01*
X143416D01*
X142833Y72666D01*
Y71500D01*
X143416Y70917D01*
X145165D01*
X143999D02*
X142833Y69751D01*
X139917D02*
Y73249D01*
X141666Y71500D01*
X139334D01*
X138167Y70334D02*
X137584Y69751D01*
X136418D01*
X135835Y70334D01*
Y72666D01*
X136418Y73249D01*
X137584D01*
X138167Y72666D01*
Y72083D01*
X137584Y71500D01*
X135835D01*
X157249Y230165D02*
X153751D01*
Y228416D01*
X154334Y227833D01*
X155500D01*
X156083Y228416D01*
Y230165D01*
Y228999D02*
X157249Y227833D01*
Y224917D02*
X153751D01*
X155500Y226666D01*
Y224334D01*
X154334Y223167D02*
X153751Y222584D01*
Y221418D01*
X154334Y220835D01*
X154917D01*
X155500Y221418D01*
X156083Y220835D01*
X156666D01*
X157249Y221418D01*
Y222584D01*
X156666Y223167D01*
X156083D01*
X155500Y222584D01*
X154917Y223167D01*
X154334D01*
X155500Y222584D02*
Y221418D01*
X156249Y166165D02*
X152751D01*
Y164416D01*
X153334Y163833D01*
X154500D01*
X155083Y164416D01*
Y166165D01*
Y164999D02*
X156249Y163833D01*
Y160917D02*
X152751D01*
X154500Y162666D01*
Y160334D01*
X153334Y159167D02*
X152751Y158584D01*
Y157418D01*
X153334Y156835D01*
X153917D01*
X154500Y157418D01*
X155083Y156835D01*
X155666D01*
X156249Y157418D01*
Y158584D01*
X155666Y159167D01*
X155083D01*
X154500Y158584D01*
X153917Y159167D01*
X153334D01*
X154500Y158584D02*
Y157418D01*
X156249Y101165D02*
X152751D01*
Y99416D01*
X153334Y98833D01*
X154500D01*
X155083Y99416D01*
Y101165D01*
Y99999D02*
X156249Y98833D01*
Y95917D02*
X152751D01*
X154500Y97666D01*
Y95334D01*
X153334Y94167D02*
X152751Y93584D01*
Y92418D01*
X153334Y91835D01*
X153917D01*
X154500Y92418D01*
X155083Y91835D01*
X155666D01*
X156249Y92418D01*
Y93584D01*
X155666Y94167D01*
X155083D01*
X154500Y93584D01*
X153917Y94167D01*
X153334D01*
X154500Y93584D02*
Y92418D01*
X145665Y193751D02*
Y197249D01*
X143916D01*
X143333Y196666D01*
Y195500D01*
X143916Y194917D01*
X145665D01*
X144499D02*
X143333Y193751D01*
X140417D02*
Y197249D01*
X142166Y195500D01*
X139834D01*
X136335Y197249D02*
X138667D01*
Y195500D01*
X137501Y196083D01*
X136918D01*
X136335Y195500D01*
Y194334D01*
X136918Y193751D01*
X138084D01*
X138667Y194334D01*
X145665Y129251D02*
Y132749D01*
X143916D01*
X143333Y132166D01*
Y131000D01*
X143916Y130417D01*
X145665D01*
X144499D02*
X143333Y129251D01*
X140417D02*
Y132749D01*
X142166Y131000D01*
X139834D01*
X136335Y132749D02*
X138667D01*
Y131000D01*
X137501Y131583D01*
X136918D01*
X136335Y131000D01*
Y129834D01*
X136918Y129251D01*
X138084D01*
X138667Y129834D01*
X145165Y64751D02*
Y68249D01*
X143416D01*
X142833Y67666D01*
Y66500D01*
X143416Y65917D01*
X145165D01*
X143999D02*
X142833Y64751D01*
X139917D02*
Y68249D01*
X141666Y66500D01*
X139334D01*
X135835Y68249D02*
X138167D01*
Y66500D01*
X137001Y67083D01*
X136418D01*
X135835Y66500D01*
Y65334D01*
X136418Y64751D01*
X137584D01*
X138167Y65334D01*
X172512Y229426D02*
X169013D01*
Y227677D01*
X169596Y227094D01*
X170762D01*
X171346Y227677D01*
Y229426D01*
Y228260D02*
X172512Y227094D01*
Y224178D02*
X169013D01*
X170762Y225927D01*
Y223595D01*
X172512Y220096D02*
Y222428D01*
X170179Y220096D01*
X169596D01*
X169013Y220679D01*
Y221845D01*
X169596Y222428D01*
X172749Y164665D02*
X169251D01*
Y162916D01*
X169834Y162333D01*
X171000D01*
X171583Y162916D01*
Y164665D01*
Y163499D02*
X172749Y162333D01*
Y159417D02*
X169251D01*
X171000Y161166D01*
Y158834D01*
X172749Y155335D02*
Y157667D01*
X170417Y155335D01*
X169834D01*
X169251Y155918D01*
Y157084D01*
X169834Y157667D01*
X172278Y101233D02*
X168779D01*
Y99484D01*
X169362Y98901D01*
X170528D01*
X171112Y99484D01*
Y101233D01*
Y100067D02*
X172278Y98901D01*
Y95985D02*
X168779D01*
X170528Y97735D01*
Y95402D01*
X172278Y91903D02*
Y94236D01*
X169945Y91903D01*
X169362D01*
X168779Y92486D01*
Y93653D01*
X169362Y94236D01*
X152541Y218166D02*
X153124Y218749D01*
X154290D01*
X154874Y218166D01*
Y215834D01*
X154290Y215251D01*
X153124D01*
X152541Y215834D01*
X151375Y215251D02*
X150208D01*
X150792D01*
Y218749D01*
X151375Y218166D01*
X148459Y215834D02*
X147876Y215251D01*
X146710D01*
X146126Y215834D01*
Y218166D01*
X146710Y218749D01*
X147876D01*
X148459Y218166D01*
Y217583D01*
X147876Y217000D01*
X146126D01*
X152541Y154166D02*
X153124Y154749D01*
X154290D01*
X154874Y154166D01*
Y151834D01*
X154290Y151251D01*
X153124D01*
X152541Y151834D01*
X151375Y151251D02*
X150208D01*
X150792D01*
Y154749D01*
X151375Y154166D01*
X148459Y151834D02*
X147876Y151251D01*
X146710D01*
X146126Y151834D01*
Y154166D01*
X146710Y154749D01*
X147876D01*
X148459Y154166D01*
Y153583D01*
X147876Y153000D01*
X146126D01*
X153041Y89166D02*
X153624Y89749D01*
X154790D01*
X155374Y89166D01*
Y86834D01*
X154790Y86251D01*
X153624D01*
X153041Y86834D01*
X151875Y86251D02*
X150708D01*
X151292D01*
Y89749D01*
X151875Y89166D01*
X148959Y86834D02*
X148376Y86251D01*
X147210D01*
X146626Y86834D01*
Y89166D01*
X147210Y89749D01*
X148376D01*
X148959Y89166D01*
Y88583D01*
X148376Y88000D01*
X146626D01*
X153541Y209666D02*
X154124Y210249D01*
X155290D01*
X155874Y209666D01*
Y207334D01*
X155290Y206751D01*
X154124D01*
X153541Y207334D01*
X152375Y206751D02*
X151208D01*
X151792D01*
Y210249D01*
X152375Y209666D01*
X149459Y210249D02*
X147126D01*
Y209666D01*
X149459Y207334D01*
Y206751D01*
X153541Y146666D02*
X154124Y147249D01*
X155290D01*
X155874Y146666D01*
Y144334D01*
X155290Y143751D01*
X154124D01*
X153541Y144334D01*
X152375Y143751D02*
X151208D01*
X151792D01*
Y147249D01*
X152375Y146666D01*
X149459Y147249D02*
X147126D01*
Y146666D01*
X149459Y144334D01*
Y143751D01*
X153041Y81666D02*
X153624Y82249D01*
X154790D01*
X155374Y81666D01*
Y79334D01*
X154790Y78751D01*
X153624D01*
X153041Y79334D01*
X151875Y78751D02*
X150708D01*
X151292D01*
Y82249D01*
X151875Y81666D01*
X148959Y82249D02*
X146626D01*
Y81666D01*
X148959Y79334D01*
Y78751D01*
M02*
