G04*
G04 #@! TF.GenerationSoftware,Altium Limited,Altium Designer,23.6.0 (18)*
G04*
G04 Layer_Color=2752767*
%FSLAX25Y25*%
%MOIN*%
G70*
G04*
G04 #@! TF.SameCoordinates,4C77A988-F8BE-4A75-A6A8-83DB4AFB9164*
G04*
G04*
G04 #@! TF.FilePolarity,Positive*
G04*
G01*
G75*
%ADD16C,0.00500*%
%ADD99C,0.00667*%
D16*
X305500Y166500D02*
X307500Y168500D01*
X309500Y166500D01*
X307500Y164500D01*
X305500Y166500D01*
Y156500D02*
X307500Y158500D01*
X309500Y156500D01*
X307500Y154500D01*
X305500Y156500D01*
Y146500D02*
X307500Y148500D01*
X309500Y146500D01*
X307500Y144500D01*
X305500Y146500D01*
X-8500D02*
X-6500Y148500D01*
X-4500Y146500D01*
X-6500Y144500D01*
X-8500Y146500D01*
Y156500D02*
X-6500Y158500D01*
X-4500Y156500D01*
X-6500Y154500D01*
X-8500Y156500D01*
Y166500D02*
X-6500Y168500D01*
X-4500Y166500D01*
X-6500Y164500D01*
X-8500Y166500D01*
X14157Y254000D02*
Y253000D01*
X16158D01*
Y254000D01*
X17157D01*
Y256000D01*
X16158D01*
Y257000D01*
X14157D01*
Y256000D01*
X13158D01*
Y254000D01*
X14157D01*
X33843D02*
Y253000D01*
X35842D01*
Y254000D01*
X36843D01*
Y256000D01*
X35842D01*
Y257000D01*
X33843D01*
Y256000D01*
X32842D01*
Y254000D01*
X33843D01*
X235941Y9835D02*
Y13835D01*
X239941D01*
Y9835D01*
X235941D01*
Y19677D02*
Y23677D01*
X239941D01*
Y19677D01*
X235941D01*
Y29520D02*
Y33520D01*
X239941D01*
Y29520D01*
X235941D01*
X265500Y2354D02*
X263500Y6354D01*
X267500D01*
X265500Y2354D01*
Y37000D02*
X263500Y41000D01*
X267500D01*
X265500Y37000D01*
X215059Y29842D02*
Y33843D01*
X219059D01*
Y29842D01*
X215059D01*
Y20000D02*
Y24000D01*
X219059D01*
Y20000D01*
X215059D01*
Y10158D02*
Y14157D01*
X219059D01*
Y10158D01*
X215059D01*
X189500Y37323D02*
X187500Y41323D01*
X191500D01*
X189500Y37323D01*
Y2677D02*
X187500Y6677D01*
X191500D01*
X189500Y2677D01*
X301000Y-2000D02*
X302000Y0D01*
X301000Y2000D01*
X303000Y1000D01*
X305000Y2000D01*
X304000Y0D01*
X305000Y-2000D01*
X303000Y-1000D01*
X301000Y-2000D01*
X-2000D02*
X-1000Y0D01*
X-2000Y2000D01*
X0Y1000D01*
X2000Y2000D01*
X1000Y0D01*
X2000Y-2000D01*
X0Y-1000D01*
X-2000Y-2000D01*
X301000Y311000D02*
X302000Y313000D01*
X301000Y315000D01*
X303000Y314000D01*
X305000Y315000D01*
X304000Y313000D01*
X305000Y311000D01*
X303000Y312000D01*
X301000Y311000D01*
X70000Y58000D02*
X71000Y59000D01*
X72000D01*
X71000Y60000D01*
X72000Y61000D01*
X71000D01*
X70000Y62000D01*
X69000Y61000D01*
X68000D01*
X69000Y60000D01*
X68000Y59000D01*
X69000D01*
X70000Y58000D01*
X70000Y48000D02*
X71000Y49000D01*
X72000D01*
X71000Y50000D01*
X72000Y51000D01*
X71000D01*
X70000Y52000D01*
X69000Y51000D01*
X68000D01*
X69000Y50000D01*
X68000Y49000D01*
X69000D01*
X70000Y48000D01*
X80000Y58000D02*
X81000Y59000D01*
X82000D01*
X81000Y60000D01*
X82000Y61000D01*
X81000D01*
X80000Y62000D01*
X79000Y61000D01*
X78000D01*
X79000Y60000D01*
X78000Y59000D01*
X79000D01*
X80000Y58000D01*
X80000Y48000D02*
X81000Y49000D01*
X82000D01*
X81000Y50000D01*
X82000Y51000D01*
X81000D01*
X80000Y52000D01*
X79000Y51000D01*
X78000D01*
X79000Y50000D01*
X78000Y49000D01*
X79000D01*
X80000Y48000D01*
X90000Y58000D02*
X91000Y59000D01*
X92000D01*
X91000Y60000D01*
X92000Y61000D01*
X91000D01*
X90000Y62000D01*
X89000Y61000D01*
X88000D01*
X89000Y60000D01*
X88000Y59000D01*
X89000D01*
X90000Y58000D01*
Y48000D02*
X91000Y49000D01*
X92000D01*
X91000Y50000D01*
X92000Y51000D01*
X91000D01*
X90000Y52000D01*
X89000Y51000D01*
X88000D01*
X89000Y50000D01*
X88000Y49000D01*
X89000D01*
X90000Y48000D01*
X100000Y58000D02*
X101000Y59000D01*
X102000D01*
X101000Y60000D01*
X102000Y61000D01*
X101000D01*
X100000Y62000D01*
X99000Y61000D01*
X98000D01*
X99000Y60000D01*
X98000Y59000D01*
X99000D01*
X100000Y58000D01*
Y48000D02*
X101000Y49000D01*
X102000D01*
X101000Y50000D01*
X102000Y51000D01*
X101000D01*
X100000Y52000D01*
X99000Y51000D01*
X98000D01*
X99000Y50000D01*
X98000Y49000D01*
X99000D01*
X100000Y48000D01*
X110000Y58000D02*
X111000Y59000D01*
X112000D01*
X111000Y60000D01*
X112000Y61000D01*
X111000D01*
X110000Y62000D01*
X109000Y61000D01*
X108000D01*
X109000Y60000D01*
X108000Y59000D01*
X109000D01*
X110000Y58000D01*
X110000Y48000D02*
X111000Y49000D01*
X112000D01*
X111000Y50000D01*
X112000Y51000D01*
X111000D01*
X110000Y52000D01*
X109000Y51000D01*
X108000D01*
X109000Y50000D01*
X108000Y49000D01*
X109000D01*
X110000Y48000D01*
X120000Y58000D02*
X121000Y59000D01*
X122000D01*
X121000Y60000D01*
X122000Y61000D01*
X121000D01*
X120000Y62000D01*
X119000Y61000D01*
X118000D01*
X119000Y60000D01*
X118000Y59000D01*
X119000D01*
X120000Y58000D01*
Y48000D02*
X121000Y49000D01*
X122000D01*
X121000Y50000D01*
X122000Y51000D01*
X121000D01*
X120000Y52000D01*
X119000Y51000D01*
X118000D01*
X119000Y50000D01*
X118000Y49000D01*
X119000D01*
X120000Y48000D01*
X130000Y58000D02*
X131000Y59000D01*
X132000D01*
X131000Y60000D01*
X132000Y61000D01*
X131000D01*
X130000Y62000D01*
X129000Y61000D01*
X128000D01*
X129000Y60000D01*
X128000Y59000D01*
X129000D01*
X130000Y58000D01*
X130000Y48000D02*
X131000Y49000D01*
X132000D01*
X131000Y50000D01*
X132000Y51000D01*
X131000D01*
X130000Y52000D01*
X129000Y51000D01*
X128000D01*
X129000Y50000D01*
X128000Y49000D01*
X129000D01*
X130000Y48000D01*
X140000Y58000D02*
X141000Y59000D01*
X142000D01*
X141000Y60000D01*
X142000Y61000D01*
X141000D01*
X140000Y62000D01*
X139000Y61000D01*
X138000D01*
X139000Y60000D01*
X138000Y59000D01*
X139000D01*
X140000Y58000D01*
X140000Y48000D02*
X141000Y49000D01*
X142000D01*
X141000Y50000D01*
X142000Y51000D01*
X141000D01*
X140000Y52000D01*
X139000Y51000D01*
X138000D01*
X139000Y50000D01*
X138000Y49000D01*
X139000D01*
X140000Y48000D01*
X150000Y58000D02*
X151000Y59000D01*
X152000D01*
X151000Y60000D01*
X152000Y61000D01*
X151000D01*
X150000Y62000D01*
X149000Y61000D01*
X148000D01*
X149000Y60000D01*
X148000Y59000D01*
X149000D01*
X150000Y58000D01*
Y48000D02*
X151000Y49000D01*
X152000D01*
X151000Y50000D01*
X152000Y51000D01*
X151000D01*
X150000Y52000D01*
X149000Y51000D01*
X148000D01*
X149000Y50000D01*
X148000Y49000D01*
X149000D01*
X150000Y48000D01*
X160000Y58000D02*
X161000Y59000D01*
X162000D01*
X161000Y60000D01*
X162000Y61000D01*
X161000D01*
X160000Y62000D01*
X159000Y61000D01*
X158000D01*
X159000Y60000D01*
X158000Y59000D01*
X159000D01*
X160000Y58000D01*
X160000Y48000D02*
X161000Y49000D01*
X162000D01*
X161000Y50000D01*
X162000Y51000D01*
X161000D01*
X160000Y52000D01*
X159000Y51000D01*
X158000D01*
X159000Y50000D01*
X158000Y49000D01*
X159000D01*
X160000Y48000D01*
X170000Y58000D02*
X171000Y59000D01*
X172000D01*
X171000Y60000D01*
X172000Y61000D01*
X171000D01*
X170000Y62000D01*
X169000Y61000D01*
X168000D01*
X169000Y60000D01*
X168000Y59000D01*
X169000D01*
X170000Y58000D01*
X170000Y48000D02*
X171000Y49000D01*
X172000D01*
X171000Y50000D01*
X172000Y51000D01*
X171000D01*
X170000Y52000D01*
X169000Y51000D01*
X168000D01*
X169000Y50000D01*
X168000Y49000D01*
X169000D01*
X170000Y48000D01*
X180000Y58000D02*
X181000Y59000D01*
X182000D01*
X181000Y60000D01*
X182000Y61000D01*
X181000D01*
X180000Y62000D01*
X179000Y61000D01*
X178000D01*
X179000Y60000D01*
X178000Y59000D01*
X179000D01*
X180000Y58000D01*
Y48000D02*
X181000Y49000D01*
X182000D01*
X181000Y50000D01*
X182000Y51000D01*
X181000D01*
X180000Y52000D01*
X179000Y51000D01*
X178000D01*
X179000Y50000D01*
X178000Y49000D01*
X179000D01*
X180000Y48000D01*
X190000Y58000D02*
X191000Y59000D01*
X192000D01*
X191000Y60000D01*
X192000Y61000D01*
X191000D01*
X190000Y62000D01*
X189000Y61000D01*
X188000D01*
X189000Y60000D01*
X188000Y59000D01*
X189000D01*
X190000Y58000D01*
Y48000D02*
X191000Y49000D01*
X192000D01*
X191000Y50000D01*
X192000Y51000D01*
X191000D01*
X190000Y52000D01*
X189000Y51000D01*
X188000D01*
X189000Y50000D01*
X188000Y49000D01*
X189000D01*
X190000Y48000D01*
X200000Y58000D02*
X201000Y59000D01*
X202000D01*
X201000Y60000D01*
X202000Y61000D01*
X201000D01*
X200000Y62000D01*
X199000Y61000D01*
X198000D01*
X199000Y60000D01*
X198000Y59000D01*
X199000D01*
X200000Y58000D01*
Y48000D02*
X201000Y49000D01*
X202000D01*
X201000Y50000D01*
X202000Y51000D01*
X201000D01*
X200000Y52000D01*
X199000Y51000D01*
X198000D01*
X199000Y50000D01*
X198000Y49000D01*
X199000D01*
X200000Y48000D01*
X210000Y58000D02*
X211000Y59000D01*
X212000D01*
X211000Y60000D01*
X212000Y61000D01*
X211000D01*
X210000Y62000D01*
X209000Y61000D01*
X208000D01*
X209000Y60000D01*
X208000Y59000D01*
X209000D01*
X210000Y58000D01*
X210000Y48000D02*
X211000Y49000D01*
X212000D01*
X211000Y50000D01*
X212000Y51000D01*
X211000D01*
X210000Y52000D01*
X209000Y51000D01*
X208000D01*
X209000Y50000D01*
X208000Y49000D01*
X209000D01*
X210000Y48000D01*
X220000Y58000D02*
X221000Y59000D01*
X222000D01*
X221000Y60000D01*
X222000Y61000D01*
X221000D01*
X220000Y62000D01*
X219000Y61000D01*
X218000D01*
X219000Y60000D01*
X218000Y59000D01*
X219000D01*
X220000Y58000D01*
X220000Y48000D02*
X221000Y49000D01*
X222000D01*
X221000Y50000D01*
X222000Y51000D01*
X221000D01*
X220000Y52000D01*
X219000Y51000D01*
X218000D01*
X219000Y50000D01*
X218000Y49000D01*
X219000D01*
X220000Y48000D01*
X230000Y58000D02*
X231000Y59000D01*
X232000D01*
X231000Y60000D01*
X232000Y61000D01*
X231000D01*
X230000Y62000D01*
X229000Y61000D01*
X228000D01*
X229000Y60000D01*
X228000Y59000D01*
X229000D01*
X230000Y58000D01*
Y48000D02*
X231000Y49000D01*
X232000D01*
X231000Y50000D01*
X232000Y51000D01*
X231000D01*
X230000Y52000D01*
X229000Y51000D01*
X228000D01*
X229000Y50000D01*
X228000Y49000D01*
X229000D01*
X230000Y48000D01*
X240000Y58000D02*
X241000Y59000D01*
X242000D01*
X241000Y60000D01*
X242000Y61000D01*
X241000D01*
X240000Y62000D01*
X239000Y61000D01*
X238000D01*
X239000Y60000D01*
X238000Y59000D01*
X239000D01*
X240000Y58000D01*
Y48000D02*
X241000Y49000D01*
X242000D01*
X241000Y50000D01*
X242000Y51000D01*
X241000D01*
X240000Y52000D01*
X239000Y51000D01*
X238000D01*
X239000Y50000D01*
X238000Y49000D01*
X239000D01*
X240000Y48000D01*
X250000Y58000D02*
X251000Y59000D01*
X252000D01*
X251000Y60000D01*
X252000Y61000D01*
X251000D01*
X250000Y62000D01*
X249000Y61000D01*
X248000D01*
X249000Y60000D01*
X248000Y59000D01*
X249000D01*
X250000Y58000D01*
X250000Y48000D02*
X251000Y49000D01*
X252000D01*
X251000Y50000D01*
X252000Y51000D01*
X251000D01*
X250000Y52000D01*
X249000Y51000D01*
X248000D01*
X249000Y50000D01*
X248000Y49000D01*
X249000D01*
X250000Y48000D01*
X260000Y58000D02*
X261000Y59000D01*
X262000D01*
X261000Y60000D01*
X262000Y61000D01*
X261000D01*
X260000Y62000D01*
X259000Y61000D01*
X258000D01*
X259000Y60000D01*
X258000Y59000D01*
X259000D01*
X260000Y58000D01*
X260000Y48000D02*
X261000Y49000D01*
X262000D01*
X261000Y50000D01*
X262000Y51000D01*
X261000D01*
X260000Y52000D01*
X259000Y51000D01*
X258000D01*
X259000Y50000D01*
X258000Y49000D01*
X259000D01*
X260000Y48000D01*
X270000Y58000D02*
X271000Y59000D01*
X272000D01*
X271000Y60000D01*
X272000Y61000D01*
X271000D01*
X270000Y62000D01*
X269000Y61000D01*
X268000D01*
X269000Y60000D01*
X268000Y59000D01*
X269000D01*
X270000Y58000D01*
Y48000D02*
X271000Y49000D01*
X272000D01*
X271000Y50000D01*
X272000Y51000D01*
X271000D01*
X270000Y52000D01*
X269000Y51000D01*
X268000D01*
X269000Y50000D01*
X268000Y49000D01*
X269000D01*
X270000Y48000D01*
X280000Y58000D02*
X281000Y59000D01*
X282000D01*
X281000Y60000D01*
X282000Y61000D01*
X281000D01*
X280000Y62000D01*
X279000Y61000D01*
X278000D01*
X279000Y60000D01*
X278000Y59000D01*
X279000D01*
X280000Y58000D01*
X280000Y48000D02*
X281000Y49000D01*
X282000D01*
X281000Y50000D01*
X282000Y51000D01*
X281000D01*
X280000Y52000D01*
X279000Y51000D01*
X278000D01*
X279000Y50000D01*
X278000Y49000D01*
X279000D01*
X280000Y48000D01*
X290000Y58000D02*
X291000Y59000D01*
X292000D01*
X291000Y60000D01*
X292000Y61000D01*
X291000D01*
X290000Y62000D01*
X289000Y61000D01*
X288000D01*
X289000Y60000D01*
X288000Y59000D01*
X289000D01*
X290000Y58000D01*
Y48000D02*
X291000Y49000D01*
X292000D01*
X291000Y50000D01*
X292000Y51000D01*
X291000D01*
X290000Y52000D01*
X289000Y51000D01*
X288000D01*
X289000Y50000D01*
X288000Y49000D01*
X289000D01*
X290000Y48000D01*
X300000Y58000D02*
X301000Y59000D01*
X302000D01*
X301000Y60000D01*
X302000Y61000D01*
X301000D01*
X300000Y62000D01*
X299000Y61000D01*
X298000D01*
X299000Y60000D01*
X298000Y59000D01*
X299000D01*
X300000Y58000D01*
X300000Y48000D02*
X301000Y49000D01*
X302000D01*
X301000Y50000D01*
X302000Y51000D01*
X301000D01*
X300000Y52000D01*
X299000Y51000D01*
X298000D01*
X299000Y50000D01*
X298000Y49000D01*
X299000D01*
X300000Y48000D01*
X310000Y58000D02*
X311000Y59000D01*
X312000D01*
X311000Y60000D01*
X312000Y61000D01*
X311000D01*
X310000Y62000D01*
X309000Y61000D01*
X308000D01*
X309000Y60000D01*
X308000Y59000D01*
X309000D01*
X310000Y58000D01*
X310000Y48000D02*
X311000Y49000D01*
X312000D01*
X311000Y50000D01*
X312000Y51000D01*
X311000D01*
X310000Y52000D01*
X309000Y51000D01*
X308000D01*
X309000Y50000D01*
X308000Y49000D01*
X309000D01*
X310000Y48000D01*
X210000Y256968D02*
X211000Y257968D01*
X212000D01*
X211000Y258968D01*
X212000Y259968D01*
X211000D01*
X210000Y260968D01*
X209000Y259968D01*
X208000D01*
X209000Y258968D01*
X208000Y257968D01*
X209000D01*
X210000Y256968D01*
X190000Y246969D02*
X191000Y247969D01*
X192000D01*
X191000Y248969D01*
X192000Y249969D01*
X191000D01*
X190000Y250969D01*
X189000Y249969D01*
X188000D01*
X189000Y248969D01*
X188000Y247969D01*
X189000D01*
X190000Y246969D01*
X200000D02*
X201000Y247969D01*
X202000D01*
X201000Y248969D01*
X202000Y249969D01*
X201000D01*
X200000Y250969D01*
X199000Y249969D01*
X198000D01*
X199000Y248969D01*
X198000Y247969D01*
X199000D01*
X200000Y246969D01*
X240000Y256968D02*
X241000Y257968D01*
X242000D01*
X241000Y258968D01*
X242000Y259968D01*
X241000D01*
X240000Y260968D01*
X239000Y259968D01*
X238000D01*
X239000Y258968D01*
X238000Y257968D01*
X239000D01*
X240000Y256968D01*
X230000Y246969D02*
X231000Y247969D01*
X232000D01*
X231000Y248969D01*
X232000Y249969D01*
X231000D01*
X230000Y250969D01*
X229000Y249969D01*
X228000D01*
X229000Y248969D01*
X228000Y247969D01*
X229000D01*
X230000Y246969D01*
X210000D02*
X211000Y247969D01*
X212000D01*
X211000Y248969D01*
X212000Y249969D01*
X211000D01*
X210000Y250969D01*
X209000Y249969D01*
X208000D01*
X209000Y248969D01*
X208000Y247969D01*
X209000D01*
X210000Y246969D01*
X180000Y256968D02*
X181000Y257968D01*
X182000D01*
X181000Y258968D01*
X182000Y259968D01*
X181000D01*
X180000Y260968D01*
X179000Y259968D01*
X178000D01*
X179000Y258968D01*
X178000Y257968D01*
X179000D01*
X180000Y256968D01*
X240000Y246969D02*
X241000Y247969D01*
X242000D01*
X241000Y248969D01*
X242000Y249969D01*
X241000D01*
X240000Y250969D01*
X239000Y249969D01*
X238000D01*
X239000Y248969D01*
X238000Y247969D01*
X239000D01*
X240000Y246969D01*
X220000D02*
X221000Y247969D01*
X222000D01*
X221000Y248969D01*
X222000Y249969D01*
X221000D01*
X220000Y250969D01*
X219000Y249969D01*
X218000D01*
X219000Y248969D01*
X218000Y247969D01*
X219000D01*
X220000Y246969D01*
X250000D02*
X251000Y247969D01*
X252000D01*
X251000Y248969D01*
X252000Y249969D01*
X251000D01*
X250000Y250969D01*
X249000Y249969D01*
X248000D01*
X249000Y248969D01*
X248000Y247969D01*
X249000D01*
X250000Y246969D01*
X270000D02*
X271000Y247969D01*
X272000D01*
X271000Y248969D01*
X272000Y249969D01*
X271000D01*
X270000Y250969D01*
X269000Y249969D01*
X268000D01*
X269000Y248969D01*
X268000Y247969D01*
X269000D01*
X270000Y246969D01*
X280000Y256968D02*
X281000Y257968D01*
X282000D01*
X281000Y258968D01*
X282000Y259968D01*
X281000D01*
X280000Y260968D01*
X279000Y259968D01*
X278000D01*
X279000Y258968D01*
X278000Y257968D01*
X279000D01*
X280000Y256968D01*
X280000Y246969D02*
X281000Y247969D01*
X282000D01*
X281000Y248969D01*
X282000Y249969D01*
X281000D01*
X280000Y250969D01*
X279000Y249969D01*
X278000D01*
X279000Y248969D01*
X278000Y247969D01*
X279000D01*
X280000Y246969D01*
X290000Y256968D02*
X291000Y257968D01*
X292000D01*
X291000Y258968D01*
X292000Y259968D01*
X291000D01*
X290000Y260968D01*
X289000Y259968D01*
X288000D01*
X289000Y258968D01*
X288000Y257968D01*
X289000D01*
X290000Y256968D01*
X290000Y246969D02*
X291000Y247969D01*
X292000D01*
X291000Y248969D01*
X292000Y249969D01*
X291000D01*
X290000Y250969D01*
X289000Y249969D01*
X288000D01*
X289000Y248969D01*
X288000Y247969D01*
X289000D01*
X290000Y246969D01*
X300000Y256968D02*
X301000Y257968D01*
X302000D01*
X301000Y258968D01*
X302000Y259968D01*
X301000D01*
X300000Y260968D01*
X299000Y259968D01*
X298000D01*
X299000Y258968D01*
X298000Y257968D01*
X299000D01*
X300000Y256968D01*
Y246969D02*
X301000Y247969D01*
X302000D01*
X301000Y248969D01*
X302000Y249969D01*
X301000D01*
X300000Y250969D01*
X299000Y249969D01*
X298000D01*
X299000Y248969D01*
X298000Y247969D01*
X299000D01*
X300000Y246969D01*
X310000D02*
X311000Y247969D01*
X312000D01*
X311000Y248969D01*
X312000Y249969D01*
X311000D01*
X310000Y250969D01*
X309000Y249969D01*
X308000D01*
X309000Y248969D01*
X308000Y247969D01*
X309000D01*
X310000Y246969D01*
X260000Y256968D02*
X261000Y257968D01*
X262000D01*
X261000Y258968D01*
X262000Y259968D01*
X261000D01*
X260000Y260968D01*
X259000Y259968D01*
X258000D01*
X259000Y258968D01*
X258000Y257968D01*
X259000D01*
X260000Y256968D01*
X250000Y256968D02*
X251000Y257968D01*
X252000D01*
X251000Y258968D01*
X252000Y259968D01*
X251000D01*
X250000Y260968D01*
X249000Y259968D01*
X248000D01*
X249000Y258968D01*
X248000Y257968D01*
X249000D01*
X250000Y256968D01*
X260000Y246969D02*
X261000Y247969D01*
X262000D01*
X261000Y248969D01*
X262000Y249969D01*
X261000D01*
X260000Y250969D01*
X259000Y249969D01*
X258000D01*
X259000Y248969D01*
X258000Y247969D01*
X259000D01*
X260000Y246969D01*
X270000Y256968D02*
X271000Y257968D01*
X272000D01*
X271000Y258968D01*
X272000Y259968D01*
X271000D01*
X270000Y260968D01*
X269000Y259968D01*
X268000D01*
X269000Y258968D01*
X268000Y257968D01*
X269000D01*
X270000Y256968D01*
X310000D02*
X311000Y257968D01*
X312000D01*
X311000Y258968D01*
X312000Y259968D01*
X311000D01*
X310000Y260968D01*
X309000Y259968D01*
X308000D01*
X309000Y258968D01*
X308000Y257968D01*
X309000D01*
X310000Y256968D01*
X170000D02*
X171000Y257968D01*
X172000D01*
X171000Y258968D01*
X172000Y259968D01*
X171000D01*
X170000Y260968D01*
X169000Y259968D01*
X168000D01*
X169000Y258968D01*
X168000Y257968D01*
X169000D01*
X170000Y256968D01*
X230000D02*
X231000Y257968D01*
X232000D01*
X231000Y258968D01*
X232000Y259968D01*
X231000D01*
X230000Y260968D01*
X229000Y259968D01*
X228000D01*
X229000Y258968D01*
X228000Y257968D01*
X229000D01*
X230000Y256968D01*
X220000D02*
X221000Y257968D01*
X222000D01*
X221000Y258968D01*
X222000Y259968D01*
X221000D01*
X220000Y260968D01*
X219000Y259968D01*
X218000D01*
X219000Y258968D01*
X218000Y257968D01*
X219000D01*
X220000Y256968D01*
X200000Y256968D02*
X201000Y257968D01*
X202000D01*
X201000Y258968D01*
X202000Y259968D01*
X201000D01*
X200000Y260968D01*
X199000Y259968D01*
X198000D01*
X199000Y258968D01*
X198000Y257968D01*
X199000D01*
X200000Y256968D01*
X190000D02*
X191000Y257968D01*
X192000D01*
X191000Y258968D01*
X192000Y259968D01*
X191000D01*
X190000Y260968D01*
X189000Y259968D01*
X188000D01*
X189000Y258968D01*
X188000Y257968D01*
X189000D01*
X190000Y256968D01*
X180000Y246969D02*
X181000Y247969D01*
X182000D01*
X181000Y248969D01*
X182000Y249969D01*
X181000D01*
X180000Y250969D01*
X179000Y249969D01*
X178000D01*
X179000Y248969D01*
X178000Y247969D01*
X179000D01*
X180000Y246969D01*
X170000D02*
X171000Y247969D01*
X172000D01*
X171000Y248969D01*
X172000Y249969D01*
X171000D01*
X170000Y250969D01*
X169000Y249969D01*
X168000D01*
X169000Y248969D01*
X168000Y247969D01*
X169000D01*
X170000Y246969D01*
X150000Y256968D02*
X151000Y257968D01*
X152000D01*
X151000Y258968D01*
X152000Y259968D01*
X151000D01*
X150000Y260968D01*
X149000Y259968D01*
X148000D01*
X149000Y258968D01*
X148000Y257968D01*
X149000D01*
X150000Y256968D01*
X160000Y246969D02*
X161000Y247969D01*
X162000D01*
X161000Y248969D01*
X162000Y249969D01*
X161000D01*
X160000Y250969D01*
X159000Y249969D01*
X158000D01*
X159000Y248969D01*
X158000Y247969D01*
X159000D01*
X160000Y246969D01*
X140000D02*
X141000Y247969D01*
X142000D01*
X141000Y248969D01*
X142000Y249969D01*
X141000D01*
X140000Y250969D01*
X139000Y249969D01*
X138000D01*
X139000Y248969D01*
X138000Y247969D01*
X139000D01*
X140000Y246969D01*
X160000Y256968D02*
X161000Y257968D01*
X162000D01*
X161000Y258968D01*
X162000Y259968D01*
X161000D01*
X160000Y260968D01*
X159000Y259968D01*
X158000D01*
X159000Y258968D01*
X158000Y257968D01*
X159000D01*
X160000Y256968D01*
X150000Y246969D02*
X151000Y247969D01*
X152000D01*
X151000Y248969D01*
X152000Y249969D01*
X151000D01*
X150000Y250969D01*
X149000Y249969D01*
X148000D01*
X149000Y248969D01*
X148000Y247969D01*
X149000D01*
X150000Y246969D01*
X140000Y256968D02*
X141000Y257968D01*
X142000D01*
X141000Y258968D01*
X142000Y259968D01*
X141000D01*
X140000Y260968D01*
X139000Y259968D01*
X138000D01*
X139000Y258968D01*
X138000Y257968D01*
X139000D01*
X140000Y256968D01*
X130000Y256968D02*
X131000Y257968D01*
X132000D01*
X131000Y258968D01*
X132000Y259968D01*
X131000D01*
X130000Y260968D01*
X129000Y259968D01*
X128000D01*
X129000Y258968D01*
X128000Y257968D01*
X129000D01*
X130000Y256968D01*
X70000Y256968D02*
X71000Y257968D01*
X72000D01*
X71000Y258968D01*
X72000Y259968D01*
X71000D01*
X70000Y260968D01*
X69000Y259968D01*
X68000D01*
X69000Y258968D01*
X68000Y257968D01*
X69000D01*
X70000Y256968D01*
X80000Y256968D02*
X81000Y257968D01*
X82000D01*
X81000Y258968D01*
X82000Y259968D01*
X81000D01*
X80000Y260968D01*
X79000Y259968D01*
X78000D01*
X79000Y258968D01*
X78000Y257968D01*
X79000D01*
X80000Y256968D01*
X90000D02*
X91000Y257968D01*
X92000D01*
X91000Y258968D01*
X92000Y259968D01*
X91000D01*
X90000Y260968D01*
X89000Y259968D01*
X88000D01*
X89000Y258968D01*
X88000Y257968D01*
X89000D01*
X90000Y256968D01*
X90000Y246969D02*
X91000Y247969D01*
X92000D01*
X91000Y248969D01*
X92000Y249969D01*
X91000D01*
X90000Y250969D01*
X89000Y249969D01*
X88000D01*
X89000Y248969D01*
X88000Y247969D01*
X89000D01*
X90000Y246969D01*
X100000Y256968D02*
X101000Y257968D01*
X102000D01*
X101000Y258968D01*
X102000Y259968D01*
X101000D01*
X100000Y260968D01*
X99000Y259968D01*
X98000D01*
X99000Y258968D01*
X98000Y257968D01*
X99000D01*
X100000Y256968D01*
X110000D02*
X111000Y257968D01*
X112000D01*
X111000Y258968D01*
X112000Y259968D01*
X111000D01*
X110000Y260968D01*
X109000Y259968D01*
X108000D01*
X109000Y258968D01*
X108000Y257968D01*
X109000D01*
X110000Y256968D01*
Y246969D02*
X111000Y247969D01*
X112000D01*
X111000Y248969D01*
X112000Y249969D01*
X111000D01*
X110000Y250969D01*
X109000Y249969D01*
X108000D01*
X109000Y248969D01*
X108000Y247969D01*
X109000D01*
X110000Y246969D01*
X120000D02*
X121000Y247969D01*
X122000D01*
X121000Y248969D01*
X122000Y249969D01*
X121000D01*
X120000Y250969D01*
X119000Y249969D01*
X118000D01*
X119000Y248969D01*
X118000Y247969D01*
X119000D01*
X120000Y246969D01*
X100000D02*
X101000Y247969D01*
X102000D01*
X101000Y248969D01*
X102000Y249969D01*
X101000D01*
X100000Y250969D01*
X99000Y249969D01*
X98000D01*
X99000Y248969D01*
X98000Y247969D01*
X99000D01*
X100000Y246969D01*
X130000D02*
X131000Y247969D01*
X132000D01*
X131000Y248969D01*
X132000Y249969D01*
X131000D01*
X130000Y250969D01*
X129000Y249969D01*
X128000D01*
X129000Y248969D01*
X128000Y247969D01*
X129000D01*
X130000Y246969D01*
X80000D02*
X81000Y247969D01*
X82000D01*
X81000Y248969D01*
X82000Y249969D01*
X81000D01*
X80000Y250969D01*
X79000Y249969D01*
X78000D01*
X79000Y248969D01*
X78000Y247969D01*
X79000D01*
X80000Y246969D01*
X70000D02*
X71000Y247969D01*
X72000D01*
X71000Y248969D01*
X72000Y249969D01*
X71000D01*
X70000Y250969D01*
X69000Y249969D01*
X68000D01*
X69000Y248969D01*
X68000Y247969D01*
X69000D01*
X70000Y246969D01*
X120000Y256968D02*
X121000Y257968D01*
X122000D01*
X121000Y258968D01*
X122000Y259968D01*
X121000D01*
X120000Y260968D01*
X119000Y259968D01*
X118000D01*
X119000Y258968D01*
X118000Y257968D01*
X119000D01*
X120000Y256968D01*
X-2000Y311000D02*
X-1000Y313000D01*
X-2000Y315000D01*
X0Y314000D01*
X2000Y315000D01*
X1000Y313000D01*
X2000Y311000D01*
X0Y312000D01*
X-2000Y311000D01*
X183000Y153000D02*
Y157000D01*
X187000D01*
Y153000D01*
X183000D01*
X183800Y153800D02*
Y156200D01*
X186200D01*
Y153800D01*
X183800D01*
X188000Y88000D02*
Y92000D01*
X192000D01*
Y88000D01*
X188000D01*
X188800Y88800D02*
Y91200D01*
X191200D01*
Y88800D01*
X188800D01*
X198000Y83000D02*
Y87000D01*
X202000D01*
Y83000D01*
X198000D01*
X198800Y83800D02*
Y86200D01*
X201200D01*
Y83800D01*
X198800D01*
X213000Y88000D02*
Y92000D01*
X217000D01*
Y88000D01*
X213000D01*
X213800Y88800D02*
Y91200D01*
X216200D01*
Y88800D01*
X213800D01*
X228000Y83000D02*
Y87000D01*
X232000D01*
Y83000D01*
X228000D01*
X228800Y83800D02*
Y86200D01*
X231200D01*
Y83800D01*
X228800D01*
X248000Y88000D02*
Y92000D01*
X252000D01*
Y88000D01*
X248000D01*
X248800Y88800D02*
Y91200D01*
X251200D01*
Y88800D01*
X248800D01*
X263000Y83000D02*
Y87000D01*
X267000D01*
Y83000D01*
X263000D01*
X263800Y83800D02*
Y86200D01*
X266200D01*
Y83800D01*
X263800D01*
X278000Y88000D02*
Y92000D01*
X282000D01*
Y88000D01*
X278000D01*
X278800Y88800D02*
Y91200D01*
X281200D01*
Y88800D01*
X278800D01*
X298000Y83000D02*
Y87000D01*
X302000D01*
Y83000D01*
X298000D01*
X298800Y83800D02*
Y86200D01*
X301200D01*
Y83800D01*
X298800D01*
X313000Y83000D02*
Y87000D01*
X317000D01*
Y83000D01*
X313000D01*
X313800Y83800D02*
Y86200D01*
X316200D01*
Y83800D01*
X313800D01*
X298000Y93000D02*
Y97000D01*
X302000D01*
Y93000D01*
X298000D01*
X298800Y93800D02*
Y96200D01*
X301200D01*
Y93800D01*
X298800D01*
X313000Y93000D02*
Y97000D01*
X317000D01*
Y93000D01*
X313000D01*
X313800Y93800D02*
Y96200D01*
X316200D01*
Y93800D01*
X313800D01*
X313000Y103000D02*
Y107000D01*
X317000D01*
Y103000D01*
X313000D01*
X313800Y103800D02*
Y106200D01*
X316200D01*
Y103800D01*
X313800D01*
X298000Y103000D02*
Y107000D01*
X302000D01*
Y103000D01*
X298000D01*
X298800Y103800D02*
Y106200D01*
X301200D01*
Y103800D01*
X298800D01*
X298000Y113000D02*
Y117000D01*
X302000D01*
Y113000D01*
X298000D01*
X298800Y113800D02*
Y116200D01*
X301200D01*
Y113800D01*
X298800D01*
X313000Y113000D02*
Y117000D01*
X317000D01*
Y113000D01*
X313000D01*
X313800Y113800D02*
Y116200D01*
X316200D01*
Y113800D01*
X313800D01*
X313000Y123000D02*
Y127000D01*
X317000D01*
Y123000D01*
X313000D01*
X313800Y123800D02*
Y126200D01*
X316200D01*
Y123800D01*
X313800D01*
X298000Y123000D02*
Y127000D01*
X302000D01*
Y123000D01*
X298000D01*
X298800Y123800D02*
Y126200D01*
X301200D01*
Y123800D01*
X298800D01*
X298000Y133000D02*
Y137000D01*
X302000D01*
Y133000D01*
X298000D01*
X298800Y133800D02*
Y136200D01*
X301200D01*
Y133800D01*
X298800D01*
X313000Y133000D02*
Y137000D01*
X317000D01*
Y133000D01*
X313000D01*
X313800Y133800D02*
Y136200D01*
X316200D01*
Y133800D01*
X313800D01*
X293000Y148000D02*
Y152000D01*
X297000D01*
Y148000D01*
X293000D01*
X293800Y148800D02*
Y151200D01*
X296200D01*
Y148800D01*
X293800D01*
X288000Y153000D02*
Y157000D01*
X292000D01*
Y153000D01*
X288000D01*
X288800Y153800D02*
Y156200D01*
X291200D01*
Y153800D01*
X288800D01*
X248000Y153000D02*
Y157000D01*
X252000D01*
Y153000D01*
X248000D01*
X248800Y153800D02*
Y156200D01*
X251200D01*
Y153800D01*
X248800D01*
X258000Y153000D02*
Y157000D01*
X262000D01*
Y153000D01*
X258000D01*
X258800Y153800D02*
Y156200D01*
X261200D01*
Y153800D01*
X258800D01*
X268000Y153000D02*
Y157000D01*
X272000D01*
Y153000D01*
X268000D01*
X268800Y153800D02*
Y156200D01*
X271200D01*
Y153800D01*
X268800D01*
X278000Y153000D02*
Y157000D01*
X282000D01*
Y153000D01*
X278000D01*
X278800Y153800D02*
Y156200D01*
X281200D01*
Y153800D01*
X278800D01*
X283000Y148000D02*
Y152000D01*
X287000D01*
Y148000D01*
X283000D01*
X283800Y148800D02*
Y151200D01*
X286200D01*
Y148800D01*
X283800D01*
X273000Y148000D02*
Y152000D01*
X277000D01*
Y148000D01*
X273000D01*
X273800Y148800D02*
Y151200D01*
X276200D01*
Y148800D01*
X273800D01*
X263000Y148000D02*
Y152000D01*
X267000D01*
Y148000D01*
X263000D01*
X263800Y148800D02*
Y151200D01*
X266200D01*
Y148800D01*
X263800D01*
X253000Y148000D02*
Y152000D01*
X257000D01*
Y148000D01*
X253000D01*
X253800Y148800D02*
Y151200D01*
X256200D01*
Y148800D01*
X253800D01*
X243000Y148000D02*
Y152000D01*
X247000D01*
Y148000D01*
X243000D01*
X243800Y148800D02*
Y151200D01*
X246200D01*
Y148800D01*
X243800D01*
X193000Y148000D02*
Y152000D01*
X197000D01*
Y148000D01*
X193000D01*
X193800Y148800D02*
Y151200D01*
X196200D01*
Y148800D01*
X193800D01*
X213000Y148000D02*
Y152000D01*
X217000D01*
Y148000D01*
X213000D01*
X213800Y148800D02*
Y151200D01*
X216200D01*
Y148800D01*
X213800D01*
X233000Y148000D02*
Y152000D01*
X237000D01*
Y148000D01*
X233000D01*
X233800Y148800D02*
Y151200D01*
X236200D01*
Y148800D01*
X233800D01*
X218000Y153000D02*
Y157000D01*
X222000D01*
Y153000D01*
X218000D01*
X218800Y153800D02*
Y156200D01*
X221200D01*
Y153800D01*
X218800D01*
X208000Y153000D02*
Y157000D01*
X212000D01*
Y153000D01*
X208000D01*
X208800Y153800D02*
Y156200D01*
X211200D01*
Y153800D01*
X208800D01*
X198000Y153000D02*
Y157000D01*
X202000D01*
Y153000D01*
X198000D01*
X198800Y153800D02*
Y156200D01*
X201200D01*
Y153800D01*
X198800D01*
X188000Y153000D02*
Y157000D01*
X192000D01*
Y153000D01*
X188000D01*
X188800Y153800D02*
Y156200D01*
X191200D01*
Y153800D01*
X188800D01*
X313000Y178000D02*
Y182000D01*
X317000D01*
Y178000D01*
X313000D01*
X313800Y178800D02*
Y181200D01*
X316200D01*
Y178800D01*
X313800D01*
X298000Y178000D02*
Y182000D01*
X302000D01*
Y178000D01*
X298000D01*
X298800Y178800D02*
Y181200D01*
X301200D01*
Y178800D01*
X298800D01*
X298000Y168000D02*
Y172000D01*
X302000D01*
Y168000D01*
X298000D01*
X298800Y168800D02*
Y171200D01*
X301200D01*
Y168800D01*
X298800D01*
X313000Y168000D02*
Y172000D01*
X317000D01*
Y168000D01*
X313000D01*
X313800Y168800D02*
Y171200D01*
X316200D01*
Y168800D01*
X313800D01*
X213000Y213000D02*
Y217000D01*
X217000D01*
Y213000D01*
X213000D01*
X213800Y213800D02*
Y216200D01*
X216200D01*
Y213800D01*
X213800D01*
X198000Y213000D02*
Y217000D01*
X202000D01*
Y213000D01*
X198000D01*
X198800Y213800D02*
Y216200D01*
X201200D01*
Y213800D01*
X198800D01*
X188000Y213000D02*
Y217000D01*
X192000D01*
Y213000D01*
X188000D01*
X188800Y213800D02*
Y216200D01*
X191200D01*
Y213800D01*
X188800D01*
X183000Y208000D02*
Y212000D01*
X187000D01*
Y208000D01*
X183000D01*
X183800Y208800D02*
Y211200D01*
X186200D01*
Y208800D01*
X183800D01*
X193000Y208000D02*
Y212000D01*
X197000D01*
Y208000D01*
X193000D01*
X193800Y208800D02*
Y211200D01*
X196200D01*
Y208800D01*
X193800D01*
X203000Y208000D02*
Y212000D01*
X207000D01*
Y208000D01*
X203000D01*
X203800Y208800D02*
Y211200D01*
X206200D01*
Y208800D01*
X203800D01*
X218000Y208000D02*
Y212000D01*
X222000D01*
Y208000D01*
X218000D01*
X218800Y208800D02*
Y211200D01*
X221200D01*
Y208800D01*
X218800D01*
X228000Y208000D02*
Y212000D01*
X232000D01*
Y208000D01*
X228000D01*
X228800Y208800D02*
Y211200D01*
X231200D01*
Y208800D01*
X228800D01*
X238000Y208000D02*
Y212000D01*
X242000D01*
Y208000D01*
X238000D01*
X238800Y208800D02*
Y211200D01*
X241200D01*
Y208800D01*
X238800D01*
X263000Y208000D02*
Y212000D01*
X267000D01*
Y208000D01*
X263000D01*
X263800Y208800D02*
Y211200D01*
X266200D01*
Y208800D01*
X263800D01*
X308000Y193000D02*
Y197000D01*
X312000D01*
Y193000D01*
X308000D01*
X308800Y193800D02*
Y196200D01*
X311200D01*
Y193800D01*
X308800D01*
X298000Y193000D02*
Y197000D01*
X302000D01*
Y193000D01*
X298000D01*
X298800Y193800D02*
Y196200D01*
X301200D01*
Y193800D01*
X298800D01*
X298000Y203000D02*
Y207000D01*
X302000D01*
Y203000D01*
X298000D01*
X298800Y203800D02*
Y206200D01*
X301200D01*
Y203800D01*
X298800D01*
X298000Y213000D02*
Y217000D01*
X302000D01*
Y213000D01*
X298000D01*
X298800Y213800D02*
Y216200D01*
X301200D01*
Y213800D01*
X298800D01*
X308000Y203000D02*
Y207000D01*
X312000D01*
Y203000D01*
X308000D01*
X308800Y203800D02*
Y206200D01*
X311200D01*
Y203800D01*
X308800D01*
X308000Y213000D02*
Y217000D01*
X312000D01*
Y213000D01*
X308000D01*
X308800Y213800D02*
Y216200D01*
X311200D01*
Y213800D01*
X308800D01*
X310000Y295500D02*
Y299500D01*
X314000D01*
Y295500D01*
X310000D01*
X310800Y296300D02*
Y298700D01*
X313200D01*
Y296300D01*
X310800D01*
X310000Y283500D02*
Y287500D01*
X314000D01*
Y283500D01*
X310000D01*
X310800Y284300D02*
Y286700D01*
X313200D01*
Y284300D01*
X310800D01*
X310000Y271500D02*
Y275500D01*
X314000D01*
Y271500D01*
X310000D01*
X310800Y272300D02*
Y274700D01*
X313200D01*
Y272300D01*
X310800D01*
X310000Y235500D02*
Y239500D01*
X314000D01*
Y235500D01*
X310000D01*
X310800Y236300D02*
Y238700D01*
X313200D01*
Y236300D01*
X310800D01*
X310000Y223500D02*
Y227500D01*
X314000D01*
Y223500D01*
X310000D01*
X310800Y224300D02*
Y226700D01*
X313200D01*
Y224300D01*
X310800D01*
X310000Y67500D02*
Y71500D01*
X314000D01*
Y67500D01*
X310000D01*
X310800Y68300D02*
Y70700D01*
X313200D01*
Y68300D01*
X310800D01*
X298000Y295500D02*
Y299500D01*
X302000D01*
Y295500D01*
X298000D01*
X298800Y296300D02*
Y298700D01*
X301200D01*
Y296300D01*
X298800D01*
X298000Y283500D02*
Y287500D01*
X302000D01*
Y283500D01*
X298000D01*
X298800Y284300D02*
Y286700D01*
X301200D01*
Y284300D01*
X298800D01*
X298000Y271500D02*
Y275500D01*
X302000D01*
Y271500D01*
X298000D01*
X298800Y272300D02*
Y274700D01*
X301200D01*
Y272300D01*
X298800D01*
X298000Y235500D02*
Y239500D01*
X302000D01*
Y235500D01*
X298000D01*
X298800Y236300D02*
Y238700D01*
X301200D01*
Y236300D01*
X298800D01*
X298000Y223500D02*
Y227500D01*
X302000D01*
Y223500D01*
X298000D01*
X298800Y224300D02*
Y226700D01*
X301200D01*
Y224300D01*
X298800D01*
X298000Y67500D02*
Y71500D01*
X302000D01*
Y67500D01*
X298000D01*
X298800Y68300D02*
Y70700D01*
X301200D01*
Y68300D01*
X298800D01*
X286000Y319500D02*
Y323500D01*
X290000D01*
Y319500D01*
X286000D01*
X286800Y320300D02*
Y322700D01*
X289200D01*
Y320300D01*
X286800D01*
X286000Y295500D02*
Y299500D01*
X290000D01*
Y295500D01*
X286000D01*
X286800Y296300D02*
Y298700D01*
X289200D01*
Y296300D01*
X286800D01*
X286000Y283500D02*
Y287500D01*
X290000D01*
Y283500D01*
X286000D01*
X286800Y284300D02*
Y286700D01*
X289200D01*
Y284300D01*
X286800D01*
X286000Y271500D02*
Y275500D01*
X290000D01*
Y271500D01*
X286000D01*
X286800Y272300D02*
Y274700D01*
X289200D01*
Y272300D01*
X286800D01*
X286000Y235500D02*
Y239500D01*
X290000D01*
Y235500D01*
X286000D01*
X286800Y236300D02*
Y238700D01*
X289200D01*
Y236300D01*
X286800D01*
X286000Y67500D02*
Y71500D01*
X290000D01*
Y67500D01*
X286000D01*
X286800Y68300D02*
Y70700D01*
X289200D01*
Y68300D01*
X286800D01*
X274000Y319500D02*
Y323500D01*
X278000D01*
Y319500D01*
X274000D01*
X274800Y320300D02*
Y322700D01*
X277200D01*
Y320300D01*
X274800D01*
X274000Y307500D02*
Y311500D01*
X278000D01*
Y307500D01*
X274000D01*
X274800Y308300D02*
Y310700D01*
X277200D01*
Y308300D01*
X274800D01*
X274000Y295500D02*
Y299500D01*
X278000D01*
Y295500D01*
X274000D01*
X274800Y296300D02*
Y298700D01*
X277200D01*
Y296300D01*
X274800D01*
X274000Y283500D02*
Y287500D01*
X278000D01*
Y283500D01*
X274000D01*
X274800Y284300D02*
Y286700D01*
X277200D01*
Y284300D01*
X274800D01*
X274000Y271500D02*
Y275500D01*
X278000D01*
Y271500D01*
X274000D01*
X274800Y272300D02*
Y274700D01*
X277200D01*
Y272300D01*
X274800D01*
X274000Y67500D02*
Y71500D01*
X278000D01*
Y67500D01*
X274000D01*
X274800Y68300D02*
Y70700D01*
X277200D01*
Y68300D01*
X274800D01*
X262000Y319500D02*
Y323500D01*
X266000D01*
Y319500D01*
X262000D01*
X262800Y320300D02*
Y322700D01*
X265200D01*
Y320300D01*
X262800D01*
X262000Y307500D02*
Y311500D01*
X266000D01*
Y307500D01*
X262000D01*
X262800Y308300D02*
Y310700D01*
X265200D01*
Y308300D01*
X262800D01*
X262000Y295500D02*
Y299500D01*
X266000D01*
Y295500D01*
X262000D01*
X262800Y296300D02*
Y298700D01*
X265200D01*
Y296300D01*
X262800D01*
X262000Y67500D02*
Y71500D01*
X266000D01*
Y67500D01*
X262000D01*
X262800Y68300D02*
Y70700D01*
X265200D01*
Y68300D01*
X262800D01*
X250000Y319500D02*
Y323500D01*
X254000D01*
Y319500D01*
X250000D01*
X250800Y320300D02*
Y322700D01*
X253200D01*
Y320300D01*
X250800D01*
X250000Y307500D02*
Y311500D01*
X254000D01*
Y307500D01*
X250000D01*
X250800Y308300D02*
Y310700D01*
X253200D01*
Y308300D01*
X250800D01*
X250000Y295500D02*
Y299500D01*
X254000D01*
Y295500D01*
X250000D01*
X250800Y296300D02*
Y298700D01*
X253200D01*
Y296300D01*
X250800D01*
X250000Y283500D02*
Y287500D01*
X254000D01*
Y283500D01*
X250000D01*
X250800Y284300D02*
Y286700D01*
X253200D01*
Y284300D01*
X250800D01*
X250000Y271500D02*
Y275500D01*
X254000D01*
Y271500D01*
X250000D01*
X250800Y272300D02*
Y274700D01*
X253200D01*
Y272300D01*
X250800D01*
X250000Y67500D02*
Y71500D01*
X254000D01*
Y67500D01*
X250000D01*
X250800Y68300D02*
Y70700D01*
X253200D01*
Y68300D01*
X250800D01*
X238000Y319500D02*
Y323500D01*
X242000D01*
Y319500D01*
X238000D01*
X238800Y320300D02*
Y322700D01*
X241200D01*
Y320300D01*
X238800D01*
X238000Y307500D02*
Y311500D01*
X242000D01*
Y307500D01*
X238000D01*
X238800Y308300D02*
Y310700D01*
X241200D01*
Y308300D01*
X238800D01*
X238000Y295500D02*
Y299500D01*
X242000D01*
Y295500D01*
X238000D01*
X238800Y296300D02*
Y298700D01*
X241200D01*
Y296300D01*
X238800D01*
X238000Y283500D02*
Y287500D01*
X242000D01*
Y283500D01*
X238000D01*
X238800Y284300D02*
Y286700D01*
X241200D01*
Y284300D01*
X238800D01*
X238000Y271500D02*
Y275500D01*
X242000D01*
Y271500D01*
X238000D01*
X238800Y272300D02*
Y274700D01*
X241200D01*
Y272300D01*
X238800D01*
X238000Y67500D02*
Y71500D01*
X242000D01*
Y67500D01*
X238000D01*
X238800Y68300D02*
Y70700D01*
X241200D01*
Y68300D01*
X238800D01*
X226000Y319500D02*
Y323500D01*
X230000D01*
Y319500D01*
X226000D01*
X226800Y320300D02*
Y322700D01*
X229200D01*
Y320300D01*
X226800D01*
X226000Y307500D02*
Y311500D01*
X230000D01*
Y307500D01*
X226000D01*
X226800Y308300D02*
Y310700D01*
X229200D01*
Y308300D01*
X226800D01*
X226000Y295500D02*
Y299500D01*
X230000D01*
Y295500D01*
X226000D01*
X226800Y296300D02*
Y298700D01*
X229200D01*
Y296300D01*
X226800D01*
X226000Y283500D02*
Y287500D01*
X230000D01*
Y283500D01*
X226000D01*
X226800Y284300D02*
Y286700D01*
X229200D01*
Y284300D01*
X226800D01*
X226000Y271500D02*
Y275500D01*
X230000D01*
Y271500D01*
X226000D01*
X226800Y272300D02*
Y274700D01*
X229200D01*
Y272300D01*
X226800D01*
X226000Y67500D02*
Y71500D01*
X230000D01*
Y67500D01*
X226000D01*
X226800Y68300D02*
Y70700D01*
X229200D01*
Y68300D01*
X226800D01*
X214000Y319500D02*
Y323500D01*
X218000D01*
Y319500D01*
X214000D01*
X214800Y320300D02*
Y322700D01*
X217200D01*
Y320300D01*
X214800D01*
X214000Y307500D02*
Y311500D01*
X218000D01*
Y307500D01*
X214000D01*
X214800Y308300D02*
Y310700D01*
X217200D01*
Y308300D01*
X214800D01*
X214000Y295500D02*
Y299500D01*
X218000D01*
Y295500D01*
X214000D01*
X214800Y296300D02*
Y298700D01*
X217200D01*
Y296300D01*
X214800D01*
X214000Y283500D02*
Y287500D01*
X218000D01*
Y283500D01*
X214000D01*
X214800Y284300D02*
Y286700D01*
X217200D01*
Y284300D01*
X214800D01*
X214000Y271500D02*
Y275500D01*
X218000D01*
Y271500D01*
X214000D01*
X214800Y272300D02*
Y274700D01*
X217200D01*
Y272300D01*
X214800D01*
X214000Y67500D02*
Y71500D01*
X218000D01*
Y67500D01*
X214000D01*
X214800Y68300D02*
Y70700D01*
X217200D01*
Y68300D01*
X214800D01*
X202000Y319500D02*
Y323500D01*
X206000D01*
Y319500D01*
X202000D01*
X202800Y320300D02*
Y322700D01*
X205200D01*
Y320300D01*
X202800D01*
X202000Y307500D02*
Y311500D01*
X206000D01*
Y307500D01*
X202000D01*
X202800Y308300D02*
Y310700D01*
X205200D01*
Y308300D01*
X202800D01*
X202000Y295500D02*
Y299500D01*
X206000D01*
Y295500D01*
X202000D01*
X202800Y296300D02*
Y298700D01*
X205200D01*
Y296300D01*
X202800D01*
X202000Y283500D02*
Y287500D01*
X206000D01*
Y283500D01*
X202000D01*
X202800Y284300D02*
Y286700D01*
X205200D01*
Y284300D01*
X202800D01*
X202000Y271500D02*
Y275500D01*
X206000D01*
Y271500D01*
X202000D01*
X202800Y272300D02*
Y274700D01*
X205200D01*
Y272300D01*
X202800D01*
X202000Y67500D02*
Y71500D01*
X206000D01*
Y67500D01*
X202000D01*
X202800Y68300D02*
Y70700D01*
X205200D01*
Y68300D01*
X202800D01*
X190000Y319500D02*
Y323500D01*
X194000D01*
Y319500D01*
X190000D01*
X190800Y320300D02*
Y322700D01*
X193200D01*
Y320300D01*
X190800D01*
X190000Y307500D02*
Y311500D01*
X194000D01*
Y307500D01*
X190000D01*
X190800Y308300D02*
Y310700D01*
X193200D01*
Y308300D01*
X190800D01*
X190000Y295500D02*
Y299500D01*
X194000D01*
Y295500D01*
X190000D01*
X190800Y296300D02*
Y298700D01*
X193200D01*
Y296300D01*
X190800D01*
X190000Y283500D02*
Y287500D01*
X194000D01*
Y283500D01*
X190000D01*
X190800Y284300D02*
Y286700D01*
X193200D01*
Y284300D01*
X190800D01*
X190000Y235500D02*
Y239500D01*
X194000D01*
Y235500D01*
X190000D01*
X190800Y236300D02*
Y238700D01*
X193200D01*
Y236300D01*
X190800D01*
X190000Y175500D02*
Y179500D01*
X194000D01*
Y175500D01*
X190000D01*
X190800Y176300D02*
Y178700D01*
X193200D01*
Y176300D01*
X190800D01*
X190000Y67500D02*
Y71500D01*
X194000D01*
Y67500D01*
X190000D01*
X190800Y68300D02*
Y70700D01*
X193200D01*
Y68300D01*
X190800D01*
X178000Y319500D02*
Y323500D01*
X182000D01*
Y319500D01*
X178000D01*
X178800Y320300D02*
Y322700D01*
X181200D01*
Y320300D01*
X178800D01*
X178000Y307500D02*
Y311500D01*
X182000D01*
Y307500D01*
X178000D01*
X178800Y308300D02*
Y310700D01*
X181200D01*
Y308300D01*
X178800D01*
X178000Y295500D02*
Y299500D01*
X182000D01*
Y295500D01*
X178000D01*
X178800Y296300D02*
Y298700D01*
X181200D01*
Y296300D01*
X178800D01*
X178000Y271500D02*
Y275500D01*
X182000D01*
Y271500D01*
X178000D01*
X178800Y272300D02*
Y274700D01*
X181200D01*
Y272300D01*
X178800D01*
X166000Y319500D02*
Y323500D01*
X170000D01*
Y319500D01*
X166000D01*
X166800Y320300D02*
Y322700D01*
X169200D01*
Y320300D01*
X166800D01*
X166000Y307500D02*
Y311500D01*
X170000D01*
Y307500D01*
X166000D01*
X166800Y308300D02*
Y310700D01*
X169200D01*
Y308300D01*
X166800D01*
X166000Y295500D02*
Y299500D01*
X170000D01*
Y295500D01*
X166000D01*
X166800Y296300D02*
Y298700D01*
X169200D01*
Y296300D01*
X166800D01*
X166000Y271500D02*
Y275500D01*
X170000D01*
Y271500D01*
X166000D01*
X166800Y272300D02*
Y274700D01*
X169200D01*
Y272300D01*
X166800D01*
X166000Y175500D02*
Y179500D01*
X170000D01*
Y175500D01*
X166000D01*
X166800Y176300D02*
Y178700D01*
X169200D01*
Y176300D01*
X166800D01*
X154000Y319500D02*
Y323500D01*
X158000D01*
Y319500D01*
X154000D01*
X154800Y320300D02*
Y322700D01*
X157200D01*
Y320300D01*
X154800D01*
X154000Y307500D02*
Y311500D01*
X158000D01*
Y307500D01*
X154000D01*
X154800Y308300D02*
Y310700D01*
X157200D01*
Y308300D01*
X154800D01*
X154000Y295500D02*
Y299500D01*
X158000D01*
Y295500D01*
X154000D01*
X154800Y296300D02*
Y298700D01*
X157200D01*
Y296300D01*
X154800D01*
X154000Y271500D02*
Y275500D01*
X158000D01*
Y271500D01*
X154000D01*
X154800Y272300D02*
Y274700D01*
X157200D01*
Y272300D01*
X154800D01*
X142000Y319500D02*
Y323500D01*
X146000D01*
Y319500D01*
X142000D01*
X142800Y320300D02*
Y322700D01*
X145200D01*
Y320300D01*
X142800D01*
X142000Y307500D02*
Y311500D01*
X146000D01*
Y307500D01*
X142000D01*
X142800Y308300D02*
Y310700D01*
X145200D01*
Y308300D01*
X142800D01*
X142000Y295500D02*
Y299500D01*
X146000D01*
Y295500D01*
X142000D01*
X142800Y296300D02*
Y298700D01*
X145200D01*
Y296300D01*
X142800D01*
X142000Y271500D02*
Y275500D01*
X146000D01*
Y271500D01*
X142000D01*
X142800Y272300D02*
Y274700D01*
X145200D01*
Y272300D01*
X142800D01*
X130000Y319500D02*
Y323500D01*
X134000D01*
Y319500D01*
X130000D01*
X130800Y320300D02*
Y322700D01*
X133200D01*
Y320300D01*
X130800D01*
X130000Y307500D02*
Y311500D01*
X134000D01*
Y307500D01*
X130000D01*
X130800Y308300D02*
Y310700D01*
X133200D01*
Y308300D01*
X130800D01*
X130000Y295500D02*
Y299500D01*
X134000D01*
Y295500D01*
X130000D01*
X130800Y296300D02*
Y298700D01*
X133200D01*
Y296300D01*
X130800D01*
X130000Y271500D02*
Y275500D01*
X134000D01*
Y271500D01*
X130000D01*
X130800Y272300D02*
Y274700D01*
X133200D01*
Y272300D01*
X130800D01*
X130000Y235500D02*
Y239500D01*
X134000D01*
Y235500D01*
X130000D01*
X130800Y236300D02*
Y238700D01*
X133200D01*
Y236300D01*
X130800D01*
X118000Y319500D02*
Y323500D01*
X122000D01*
Y319500D01*
X118000D01*
X118800Y320300D02*
Y322700D01*
X121200D01*
Y320300D01*
X118800D01*
X118000Y307500D02*
Y311500D01*
X122000D01*
Y307500D01*
X118000D01*
X118800Y308300D02*
Y310700D01*
X121200D01*
Y308300D01*
X118800D01*
X118000Y295500D02*
Y299500D01*
X122000D01*
Y295500D01*
X118000D01*
X118800Y296300D02*
Y298700D01*
X121200D01*
Y296300D01*
X118800D01*
X118000Y271500D02*
Y275500D01*
X122000D01*
Y271500D01*
X118000D01*
X118800Y272300D02*
Y274700D01*
X121200D01*
Y272300D01*
X118800D01*
X106000Y319500D02*
Y323500D01*
X110000D01*
Y319500D01*
X106000D01*
X106800Y320300D02*
Y322700D01*
X109200D01*
Y320300D01*
X106800D01*
X106000Y307500D02*
Y311500D01*
X110000D01*
Y307500D01*
X106000D01*
X106800Y308300D02*
Y310700D01*
X109200D01*
Y308300D01*
X106800D01*
X106000Y295500D02*
Y299500D01*
X110000D01*
Y295500D01*
X106000D01*
X106800Y296300D02*
Y298700D01*
X109200D01*
Y296300D01*
X106800D01*
X94000Y319500D02*
Y323500D01*
X98000D01*
Y319500D01*
X94000D01*
X94800Y320300D02*
Y322700D01*
X97200D01*
Y320300D01*
X94800D01*
X94000Y307500D02*
Y311500D01*
X98000D01*
Y307500D01*
X94000D01*
X94800Y308300D02*
Y310700D01*
X97200D01*
Y308300D01*
X94800D01*
X94000Y295500D02*
Y299500D01*
X98000D01*
Y295500D01*
X94000D01*
X94800Y296300D02*
Y298700D01*
X97200D01*
Y296300D01*
X94800D01*
X94000Y235500D02*
Y239500D01*
X98000D01*
Y235500D01*
X94000D01*
X94800Y236300D02*
Y238700D01*
X97200D01*
Y236300D01*
X94800D01*
X94000Y223500D02*
Y227500D01*
X98000D01*
Y223500D01*
X94000D01*
X94800Y224300D02*
Y226700D01*
X97200D01*
Y224300D01*
X94800D01*
X82000Y319500D02*
Y323500D01*
X86000D01*
Y319500D01*
X82000D01*
X82800Y320300D02*
Y322700D01*
X85200D01*
Y320300D01*
X82800D01*
X82000Y307500D02*
Y311500D01*
X86000D01*
Y307500D01*
X82000D01*
X82800Y308300D02*
Y310700D01*
X85200D01*
Y308300D01*
X82800D01*
X82000Y295500D02*
Y299500D01*
X86000D01*
Y295500D01*
X82000D01*
X82800Y296300D02*
Y298700D01*
X85200D01*
Y296300D01*
X82800D01*
X82000Y223500D02*
Y227500D01*
X86000D01*
Y223500D01*
X82000D01*
X82800Y224300D02*
Y226700D01*
X85200D01*
Y224300D01*
X82800D01*
X70000Y319500D02*
Y323500D01*
X74000D01*
Y319500D01*
X70000D01*
X70800Y320300D02*
Y322700D01*
X73200D01*
Y320300D01*
X70800D01*
X70000Y307500D02*
Y311500D01*
X74000D01*
Y307500D01*
X70000D01*
X70800Y308300D02*
Y310700D01*
X73200D01*
Y308300D01*
X70800D01*
X70000Y295500D02*
Y299500D01*
X74000D01*
Y295500D01*
X70000D01*
X70800Y296300D02*
Y298700D01*
X73200D01*
Y296300D01*
X70800D01*
X70000Y223500D02*
Y227500D01*
X74000D01*
Y223500D01*
X70000D01*
X70800Y224300D02*
Y226700D01*
X73200D01*
Y224300D01*
X70800D01*
X70000Y115500D02*
Y119500D01*
X74000D01*
Y115500D01*
X70000D01*
X70800Y116300D02*
Y118700D01*
X73200D01*
Y116300D01*
X70800D01*
X70000Y103500D02*
Y107500D01*
X74000D01*
Y103500D01*
X70000D01*
X70800Y104300D02*
Y106700D01*
X73200D01*
Y104300D01*
X70800D01*
X70000Y79500D02*
Y83500D01*
X74000D01*
Y79500D01*
X70000D01*
X70800Y80300D02*
Y82700D01*
X73200D01*
Y80300D01*
X70800D01*
X58000Y319500D02*
Y323500D01*
X62000D01*
Y319500D01*
X58000D01*
X58800Y320300D02*
Y322700D01*
X61200D01*
Y320300D01*
X58800D01*
X58000Y307500D02*
Y311500D01*
X62000D01*
Y307500D01*
X58000D01*
X58800Y308300D02*
Y310700D01*
X61200D01*
Y308300D01*
X58800D01*
X58000Y295500D02*
Y299500D01*
X62000D01*
Y295500D01*
X58000D01*
X58800Y296300D02*
Y298700D01*
X61200D01*
Y296300D01*
X58800D01*
X58000Y283500D02*
Y287500D01*
X62000D01*
Y283500D01*
X58000D01*
X58800Y284300D02*
Y286700D01*
X61200D01*
Y284300D01*
X58800D01*
X58000Y271500D02*
Y275500D01*
X62000D01*
Y271500D01*
X58000D01*
X58800Y272300D02*
Y274700D01*
X61200D01*
Y272300D01*
X58800D01*
X58000Y247500D02*
Y251500D01*
X62000D01*
Y247500D01*
X58000D01*
X58800Y248300D02*
Y250700D01*
X61200D01*
Y248300D01*
X58800D01*
X58000Y223500D02*
Y227500D01*
X62000D01*
Y223500D01*
X58000D01*
X58800Y224300D02*
Y226700D01*
X61200D01*
Y224300D01*
X58800D01*
X58000Y199500D02*
Y203500D01*
X62000D01*
Y199500D01*
X58000D01*
X58800Y200300D02*
Y202700D01*
X61200D01*
Y200300D01*
X58800D01*
X58000Y187500D02*
Y191500D01*
X62000D01*
Y187500D01*
X58000D01*
X58800Y188300D02*
Y190700D01*
X61200D01*
Y188300D01*
X58800D01*
X58000Y115500D02*
Y119500D01*
X62000D01*
Y115500D01*
X58000D01*
X58800Y116300D02*
Y118700D01*
X61200D01*
Y116300D01*
X58800D01*
X58000Y103500D02*
Y107500D01*
X62000D01*
Y103500D01*
X58000D01*
X58800Y104300D02*
Y106700D01*
X61200D01*
Y104300D01*
X58800D01*
X58000Y79500D02*
Y83500D01*
X62000D01*
Y79500D01*
X58000D01*
X58800Y80300D02*
Y82700D01*
X61200D01*
Y80300D01*
X58800D01*
X46000Y319500D02*
Y323500D01*
X50000D01*
Y319500D01*
X46000D01*
X46800Y320300D02*
Y322700D01*
X49200D01*
Y320300D01*
X46800D01*
X46000Y307500D02*
Y311500D01*
X50000D01*
Y307500D01*
X46000D01*
X46800Y308300D02*
Y310700D01*
X49200D01*
Y308300D01*
X46800D01*
X46000Y295500D02*
Y299500D01*
X50000D01*
Y295500D01*
X46000D01*
X46800Y296300D02*
Y298700D01*
X49200D01*
Y296300D01*
X46800D01*
X46000Y283500D02*
Y287500D01*
X50000D01*
Y283500D01*
X46000D01*
X46800Y284300D02*
Y286700D01*
X49200D01*
Y284300D01*
X46800D01*
X46000Y235500D02*
Y239500D01*
X50000D01*
Y235500D01*
X46000D01*
X46800Y236300D02*
Y238700D01*
X49200D01*
Y236300D01*
X46800D01*
X46000Y223500D02*
Y227500D01*
X50000D01*
Y223500D01*
X46000D01*
X46800Y224300D02*
Y226700D01*
X49200D01*
Y224300D01*
X46800D01*
X46000Y211500D02*
Y215500D01*
X50000D01*
Y211500D01*
X46000D01*
X46800Y212300D02*
Y214700D01*
X49200D01*
Y212300D01*
X46800D01*
X46000Y127500D02*
Y131500D01*
X50000D01*
Y127500D01*
X46000D01*
X46800Y128300D02*
Y130700D01*
X49200D01*
Y128300D01*
X46800D01*
X46000Y115500D02*
Y119500D01*
X50000D01*
Y115500D01*
X46000D01*
X46800Y116300D02*
Y118700D01*
X49200D01*
Y116300D01*
X46800D01*
X46000Y103500D02*
Y107500D01*
X50000D01*
Y103500D01*
X46000D01*
X46800Y104300D02*
Y106700D01*
X49200D01*
Y104300D01*
X46800D01*
X46000Y91500D02*
Y95500D01*
X50000D01*
Y91500D01*
X46000D01*
X46800Y92300D02*
Y94700D01*
X49200D01*
Y92300D01*
X46800D01*
X46000Y79500D02*
Y83500D01*
X50000D01*
Y79500D01*
X46000D01*
X46800Y80300D02*
Y82700D01*
X49200D01*
Y80300D01*
X46800D01*
X34000Y319500D02*
Y323500D01*
X38000D01*
Y319500D01*
X34000D01*
X34800Y320300D02*
Y322700D01*
X37200D01*
Y320300D01*
X34800D01*
X34000Y307500D02*
Y311500D01*
X38000D01*
Y307500D01*
X34000D01*
X34800Y308300D02*
Y310700D01*
X37200D01*
Y308300D01*
X34800D01*
X34000Y295500D02*
Y299500D01*
X38000D01*
Y295500D01*
X34000D01*
X34800Y296300D02*
Y298700D01*
X37200D01*
Y296300D01*
X34800D01*
X34000Y283500D02*
Y287500D01*
X38000D01*
Y283500D01*
X34000D01*
X34800Y284300D02*
Y286700D01*
X37200D01*
Y284300D01*
X34800D01*
X34000Y259500D02*
Y263500D01*
X38000D01*
Y259500D01*
X34000D01*
X34800Y260300D02*
Y262700D01*
X37200D01*
Y260300D01*
X34800D01*
X34000Y223500D02*
Y227500D01*
X38000D01*
Y223500D01*
X34000D01*
X34800Y224300D02*
Y226700D01*
X37200D01*
Y224300D01*
X34800D01*
X34000Y211500D02*
Y215500D01*
X38000D01*
Y211500D01*
X34000D01*
X34800Y212300D02*
Y214700D01*
X37200D01*
Y212300D01*
X34800D01*
X34000Y127500D02*
Y131500D01*
X38000D01*
Y127500D01*
X34000D01*
X34800Y128300D02*
Y130700D01*
X37200D01*
Y128300D01*
X34800D01*
X34000Y115500D02*
Y119500D01*
X38000D01*
Y115500D01*
X34000D01*
X34800Y116300D02*
Y118700D01*
X37200D01*
Y116300D01*
X34800D01*
X34000Y91500D02*
Y95500D01*
X38000D01*
Y91500D01*
X34000D01*
X34800Y92300D02*
Y94700D01*
X37200D01*
Y92300D01*
X34800D01*
X22000Y319500D02*
Y323500D01*
X26000D01*
Y319500D01*
X22000D01*
X22800Y320300D02*
Y322700D01*
X25200D01*
Y320300D01*
X22800D01*
X22000Y307500D02*
Y311500D01*
X26000D01*
Y307500D01*
X22000D01*
X22800Y308300D02*
Y310700D01*
X25200D01*
Y308300D01*
X22800D01*
X22000Y295500D02*
Y299500D01*
X26000D01*
Y295500D01*
X22000D01*
X22800Y296300D02*
Y298700D01*
X25200D01*
Y296300D01*
X22800D01*
X22000Y283500D02*
Y287500D01*
X26000D01*
Y283500D01*
X22000D01*
X22800Y284300D02*
Y286700D01*
X25200D01*
Y284300D01*
X22800D01*
X22000Y271500D02*
Y275500D01*
X26000D01*
Y271500D01*
X22000D01*
X22800Y272300D02*
Y274700D01*
X25200D01*
Y272300D01*
X22800D01*
X22000Y247500D02*
Y251500D01*
X26000D01*
Y247500D01*
X22000D01*
X22800Y248300D02*
Y250700D01*
X25200D01*
Y248300D01*
X22800D01*
X22000Y235500D02*
Y239500D01*
X26000D01*
Y235500D01*
X22000D01*
X22800Y236300D02*
Y238700D01*
X25200D01*
Y236300D01*
X22800D01*
X22000Y211500D02*
Y215500D01*
X26000D01*
Y211500D01*
X22000D01*
X22800Y212300D02*
Y214700D01*
X25200D01*
Y212300D01*
X22800D01*
X22000Y115500D02*
Y119500D01*
X26000D01*
Y115500D01*
X22000D01*
X22800Y116300D02*
Y118700D01*
X25200D01*
Y116300D01*
X22800D01*
X22000Y103500D02*
Y107500D01*
X26000D01*
Y103500D01*
X22000D01*
X22800Y104300D02*
Y106700D01*
X25200D01*
Y104300D01*
X22800D01*
X10000Y295500D02*
Y299500D01*
X14000D01*
Y295500D01*
X10000D01*
X10800Y296300D02*
Y298700D01*
X13200D01*
Y296300D01*
X10800D01*
X10000Y283500D02*
Y287500D01*
X14000D01*
Y283500D01*
X10000D01*
X10800Y284300D02*
Y286700D01*
X13200D01*
Y284300D01*
X10800D01*
X10000Y271500D02*
Y275500D01*
X14000D01*
Y271500D01*
X10000D01*
X10800Y272300D02*
Y274700D01*
X13200D01*
Y272300D01*
X10800D01*
X10000Y259500D02*
Y263500D01*
X14000D01*
Y259500D01*
X10000D01*
X10800Y260300D02*
Y262700D01*
X13200D01*
Y260300D01*
X10800D01*
X10000Y247500D02*
Y251500D01*
X14000D01*
Y247500D01*
X10000D01*
X10800Y248300D02*
Y250700D01*
X13200D01*
Y248300D01*
X10800D01*
X10000Y235500D02*
Y239500D01*
X14000D01*
Y235500D01*
X10000D01*
X10800Y236300D02*
Y238700D01*
X13200D01*
Y236300D01*
X10800D01*
X10000Y223500D02*
Y227500D01*
X14000D01*
Y223500D01*
X10000D01*
X10800Y224300D02*
Y226700D01*
X13200D01*
Y224300D01*
X10800D01*
X10000Y199500D02*
Y203500D01*
X14000D01*
Y199500D01*
X10000D01*
X10800Y200300D02*
Y202700D01*
X13200D01*
Y200300D01*
X10800D01*
X10000Y187500D02*
Y191500D01*
X14000D01*
Y187500D01*
X10000D01*
X10800Y188300D02*
Y190700D01*
X13200D01*
Y188300D01*
X10800D01*
X-2000Y295500D02*
Y299500D01*
X2000D01*
Y295500D01*
X-2000D01*
X-1200Y296300D02*
Y298700D01*
X1200D01*
Y296300D01*
X-1200D01*
X-2000Y283500D02*
Y287500D01*
X2000D01*
Y283500D01*
X-2000D01*
X-1200Y284300D02*
Y286700D01*
X1200D01*
Y284300D01*
X-1200D01*
X-2000Y271500D02*
Y275500D01*
X2000D01*
Y271500D01*
X-2000D01*
X-1200Y272300D02*
Y274700D01*
X1200D01*
Y272300D01*
X-1200D01*
X-2000Y259500D02*
Y263500D01*
X2000D01*
Y259500D01*
X-2000D01*
X-1200Y260300D02*
Y262700D01*
X1200D01*
Y260300D01*
X-1200D01*
X-2000Y247500D02*
Y251500D01*
X2000D01*
Y247500D01*
X-2000D01*
X-1200Y248300D02*
Y250700D01*
X1200D01*
Y248300D01*
X-1200D01*
X-2000Y235500D02*
Y239500D01*
X2000D01*
Y235500D01*
X-2000D01*
X-1200Y236300D02*
Y238700D01*
X1200D01*
Y236300D01*
X-1200D01*
X-2000Y223500D02*
Y227500D01*
X2000D01*
Y223500D01*
X-2000D01*
X-1200Y224300D02*
Y226700D01*
X1200D01*
Y224300D01*
X-1200D01*
X-14000Y295500D02*
Y299500D01*
X-10000D01*
Y295500D01*
X-14000D01*
X-13200Y296300D02*
Y298700D01*
X-10800D01*
Y296300D01*
X-13200D01*
X-14000Y283500D02*
Y287500D01*
X-10000D01*
Y283500D01*
X-14000D01*
X-13200Y284300D02*
Y286700D01*
X-10800D01*
Y284300D01*
X-13200D01*
X-14000Y271500D02*
Y275500D01*
X-10000D01*
Y271500D01*
X-14000D01*
X-13200Y272300D02*
Y274700D01*
X-10800D01*
Y272300D01*
X-13200D01*
X-14000Y259500D02*
Y263500D01*
X-10000D01*
Y259500D01*
X-14000D01*
X-13200Y260300D02*
Y262700D01*
X-10800D01*
Y260300D01*
X-13200D01*
X-14000Y235500D02*
Y239500D01*
X-10000D01*
Y235500D01*
X-14000D01*
X-13200Y236300D02*
Y238700D01*
X-10800D01*
Y236300D01*
X-13200D01*
X-14000Y223500D02*
Y227500D01*
X-10000D01*
Y223500D01*
X-14000D01*
X-13200Y224300D02*
Y226700D01*
X-10800D01*
Y224300D01*
X-13200D01*
X-14000Y211500D02*
Y215500D01*
X-10000D01*
Y211500D01*
X-14000D01*
X-13200Y212300D02*
Y214700D01*
X-10800D01*
Y212300D01*
X-13200D01*
X-14000Y199500D02*
Y203500D01*
X-10000D01*
Y199500D01*
X-14000D01*
X-13200Y200300D02*
Y202700D01*
X-10800D01*
Y200300D01*
X-13200D01*
X117779Y158600D02*
X118779D01*
X119779Y159600D01*
X120779Y158600D01*
X121779D01*
Y159600D01*
X120779Y160600D01*
X121779Y161600D01*
Y162600D01*
X120779D01*
X119779Y161600D01*
X118779Y162600D01*
X117779D01*
Y161600D01*
X118779Y160600D01*
X117779Y159600D01*
Y158600D01*
X165000Y73000D02*
X166000D01*
X167000Y74000D01*
X168000Y73000D01*
X169000D01*
Y74000D01*
X168000Y75000D01*
X169000Y76000D01*
Y77000D01*
X168000D01*
X167000Y76000D01*
X166000Y77000D01*
X165000D01*
Y76000D01*
X166000Y75000D01*
X165000Y74000D01*
Y73000D01*
X111461Y150087D02*
X112461D01*
X113461Y151087D01*
X114461Y150087D01*
X115461D01*
Y151087D01*
X114461Y152087D01*
X115461Y153087D01*
Y154087D01*
X114461D01*
X113461Y153087D01*
X112461Y154087D01*
X111461D01*
Y153087D01*
X112461Y152087D01*
X111461Y151087D01*
Y150087D01*
X111500Y153000D02*
X112500D01*
X113500Y154000D01*
X114500Y153000D01*
X115500D01*
Y154000D01*
X114500Y155000D01*
X115500Y156000D01*
Y157000D01*
X114500D01*
X113500Y156000D01*
X112500Y157000D01*
X111500D01*
Y156000D01*
X112500Y155000D01*
X111500Y154000D01*
Y153000D01*
X122492Y159816D02*
X123492D01*
X124492Y160816D01*
X125492Y159816D01*
X126492D01*
Y160816D01*
X125492Y161816D01*
X126492Y162816D01*
Y163816D01*
X125492D01*
X124492Y162816D01*
X123492Y163816D01*
X122492D01*
Y162816D01*
X123492Y161816D01*
X122492Y160816D01*
Y159816D01*
X163525Y167587D02*
X164525D01*
X165525Y168587D01*
X166525Y167587D01*
X167525D01*
Y168587D01*
X166525Y169587D01*
X167525Y170587D01*
Y171587D01*
X166525D01*
X165525Y170587D01*
X164525Y171587D01*
X163525D01*
Y170587D01*
X164525Y169587D01*
X163525Y168587D01*
Y167587D01*
X145000Y230000D02*
Y234000D01*
X149000D01*
Y230000D01*
X145000D01*
X145800Y230800D02*
Y233200D01*
X148200D01*
Y230800D01*
X145800D01*
X145000Y234500D02*
Y238500D01*
X149000D01*
Y234500D01*
X145000D01*
X145800Y235300D02*
Y237700D01*
X148200D01*
Y235300D01*
X145800D01*
X145000Y239000D02*
Y243000D01*
X149000D01*
Y239000D01*
X145000D01*
X145800Y239800D02*
Y242200D01*
X148200D01*
Y239800D01*
X145800D01*
X191500Y166035D02*
X192500D01*
X193500Y167035D01*
X194500Y166035D01*
X195500D01*
Y167035D01*
X194500Y168035D01*
X195500Y169035D01*
Y170035D01*
X194500D01*
X193500Y169035D01*
X192500Y170035D01*
X191500D01*
Y169035D01*
X192500Y168035D01*
X191500Y167035D01*
Y166035D01*
X214493Y115343D02*
X215493D01*
X216493Y116343D01*
X217493Y115343D01*
X218493D01*
Y116343D01*
X217493Y117343D01*
X218493Y118343D01*
Y119343D01*
X217493D01*
X216493Y118343D01*
X215493Y119343D01*
X214493D01*
Y118343D01*
X215493Y117343D01*
X214493Y116343D01*
Y115343D01*
X145000Y176000D02*
Y180000D01*
X149000D01*
Y176000D01*
X145000D01*
X145800Y176800D02*
Y179200D01*
X148200D01*
Y176800D01*
X145800D01*
X213650Y177500D02*
X214650D01*
X215650Y178500D01*
X216650Y177500D01*
X217650D01*
Y178500D01*
X216650Y179500D01*
X217650Y180500D01*
Y181500D01*
X216650D01*
X215650Y180500D01*
X214650Y181500D01*
X213650D01*
Y180500D01*
X214650Y179500D01*
X213650Y178500D01*
Y177500D01*
X120659Y147778D02*
X121660D01*
X122660Y148778D01*
X123660Y147778D01*
X124660D01*
Y148778D01*
X123660Y149778D01*
X124660Y150778D01*
Y151778D01*
X123660D01*
X122660Y150778D01*
X121660Y151778D01*
X120659D01*
Y150778D01*
X121660Y149778D01*
X120659Y148778D01*
Y147778D01*
X120352Y84633D02*
X121352D01*
X122352Y85633D01*
X123352Y84633D01*
X124352D01*
Y85633D01*
X123352Y86633D01*
X124352Y87633D01*
Y88633D01*
X123352D01*
X122352Y87633D01*
X121352Y88633D01*
X120352D01*
Y87633D01*
X121352Y86633D01*
X120352Y85633D01*
Y84633D01*
X112717Y84642D02*
X113717D01*
X114717Y85642D01*
X115717Y84642D01*
X116717D01*
Y85642D01*
X115717Y86642D01*
X116717Y87642D01*
Y88642D01*
X115717D01*
X114717Y87642D01*
X113717Y88642D01*
X112717D01*
Y87642D01*
X113717Y86642D01*
X112717Y85642D01*
Y84642D01*
X119902Y210936D02*
X120902D01*
X121902Y211936D01*
X122902Y210936D01*
X123902D01*
Y211936D01*
X122902Y212936D01*
X123902Y213936D01*
Y214936D01*
X122902D01*
X121902Y213936D01*
X120902Y214936D01*
X119902D01*
Y213936D01*
X120902Y212936D01*
X119902Y211936D01*
Y210936D01*
X145000Y112000D02*
Y116000D01*
X149000D01*
Y112000D01*
X145000D01*
X145800Y112800D02*
Y115200D01*
X148200D01*
Y112800D01*
X145800D01*
X158525Y230587D02*
X159525D01*
X160525Y231587D01*
X161525Y230587D01*
X162525D01*
Y231587D01*
X161525Y232587D01*
X162525Y233587D01*
Y234587D01*
X161525D01*
X160525Y233587D01*
X159525Y234587D01*
X158525D01*
Y233587D01*
X159525Y232587D01*
X158525Y231587D01*
Y230587D01*
X148503Y75583D02*
X149503D01*
X150503Y76583D01*
X151503Y75583D01*
X152503D01*
Y76583D01*
X151503Y77583D01*
X152503Y78583D01*
Y79583D01*
X151503D01*
X150503Y78583D01*
X149503Y79583D01*
X148503D01*
Y78583D01*
X149503Y77583D01*
X148503Y76583D01*
Y75583D01*
X239850Y112000D02*
X240850D01*
X241850Y113000D01*
X242850Y112000D01*
X243850D01*
Y113000D01*
X242850Y114000D01*
X243850Y115000D01*
Y116000D01*
X242850D01*
X241850Y115000D01*
X240850Y116000D01*
X239850D01*
Y115000D01*
X240850Y114000D01*
X239850Y113000D01*
Y112000D01*
X185301Y227589D02*
X186301D01*
X187301Y228589D01*
X188301Y227589D01*
X189301D01*
Y228589D01*
X188301Y229589D01*
X189301Y230589D01*
Y231589D01*
X188301D01*
X187301Y230589D01*
X186301Y231589D01*
X185301D01*
Y230589D01*
X186301Y229589D01*
X185301Y228589D01*
Y227589D01*
X112968Y147735D02*
X113968D01*
X114968Y148735D01*
X115968Y147735D01*
X116968D01*
Y148735D01*
X115968Y149735D01*
X116968Y150735D01*
Y151735D01*
X115968D01*
X114968Y150735D01*
X113968Y151735D01*
X112968D01*
Y150735D01*
X113968Y149735D01*
X112968Y148735D01*
Y147735D01*
X111683Y89817D02*
X112683D01*
X113683Y90817D01*
X114683Y89817D01*
X115683D01*
Y90817D01*
X114683Y91817D01*
X115683Y92817D01*
Y93817D01*
X114683D01*
X113683Y92817D01*
X112683Y93817D01*
X111683D01*
Y92817D01*
X112683Y91817D01*
X111683Y90817D01*
Y89817D01*
X111500Y94500D02*
X112500D01*
X113500Y95500D01*
X114500Y94500D01*
X115500D01*
Y95500D01*
X114500Y96500D01*
X115500Y97500D01*
Y98500D01*
X114500D01*
X113500Y97500D01*
X112500Y98500D01*
X111500D01*
Y97500D01*
X112500Y96500D01*
X111500Y95500D01*
Y94500D01*
X145000Y171500D02*
Y175500D01*
X149000D01*
Y171500D01*
X145000D01*
X145800Y172300D02*
Y174700D01*
X148200D01*
Y172300D01*
X145800D01*
X145000Y167000D02*
Y171000D01*
X149000D01*
Y167000D01*
X145000D01*
X145800Y167800D02*
Y170200D01*
X148200D01*
Y167800D01*
X145800D01*
X149176Y139537D02*
X150176D01*
X151176Y140537D01*
X152176Y139537D01*
X153176D01*
Y140537D01*
X152176Y141537D01*
X153176Y142537D01*
Y143537D01*
X152176D01*
X151176Y142537D01*
X150176Y143537D01*
X149176D01*
Y142537D01*
X150176Y141537D01*
X149176Y140537D01*
Y139537D01*
X149375Y203012D02*
X150375D01*
X151375Y204012D01*
X152375Y203012D01*
X153375D01*
Y204012D01*
X152375Y205012D01*
X153375Y206012D01*
Y207012D01*
X152375D01*
X151375Y206012D01*
X150375Y207012D01*
X149375D01*
Y206012D01*
X150375Y205012D01*
X149375Y204012D01*
Y203012D01*
X121500Y67500D02*
X122500D01*
X123500Y68500D01*
X124500Y67500D01*
X125500D01*
Y68500D01*
X124500Y69500D01*
X125500Y70500D01*
Y71500D01*
X124500D01*
X123500Y70500D01*
X122500Y71500D01*
X121500D01*
Y70500D01*
X122500Y69500D01*
X121500Y68500D01*
Y67500D01*
X157000Y74500D02*
X158000D01*
X159000Y75500D01*
X160000Y74500D01*
X161000D01*
Y75500D01*
X160000Y76500D01*
X161000Y77500D01*
Y78500D01*
X160000D01*
X159000Y77500D01*
X158000Y78500D01*
X157000D01*
Y77500D01*
X158000Y76500D01*
X157000Y75500D01*
Y74500D01*
X151000Y80500D02*
X152000D01*
X153000Y81500D01*
X154000Y80500D01*
X155000D01*
Y81500D01*
X154000Y82500D01*
X155000Y83500D01*
Y84500D01*
X154000D01*
X153000Y83500D01*
X152000Y84500D01*
X151000D01*
Y83500D01*
X152000Y82500D01*
X151000Y81500D01*
Y80500D01*
X284000Y101118D02*
X285000D01*
X286000Y102118D01*
X287000Y101118D01*
X288000D01*
Y102118D01*
X287000Y103118D01*
X288000Y104118D01*
Y105118D01*
X287000D01*
X286000Y104118D01*
X285000Y105118D01*
X284000D01*
Y104118D01*
X285000Y103118D01*
X284000Y102118D01*
Y101118D01*
X64500Y276500D02*
X65500D01*
X66500Y277500D01*
X67500Y276500D01*
X68500D01*
Y277500D01*
X67500Y278500D01*
X68500Y279500D01*
Y280500D01*
X67500D01*
X66500Y279500D01*
X65500Y280500D01*
X64500D01*
Y279500D01*
X65500Y278500D01*
X64500Y277500D01*
Y276500D01*
X120000Y70000D02*
X121000D01*
X122000Y71000D01*
X123000Y70000D01*
X124000D01*
Y71000D01*
X123000Y72000D01*
X124000Y73000D01*
Y74000D01*
X123000D01*
X122000Y73000D01*
X121000Y74000D01*
X120000D01*
Y73000D01*
X121000Y72000D01*
X120000Y71000D01*
Y70000D01*
X117500D02*
X118500D01*
X119500Y71000D01*
X120500Y70000D01*
X121500D01*
Y71000D01*
X120500Y72000D01*
X121500Y73000D01*
Y74000D01*
X120500D01*
X119500Y73000D01*
X118500Y74000D01*
X117500D01*
Y73000D01*
X118500Y72000D01*
X117500Y71000D01*
Y70000D01*
X158500Y82500D02*
X159500D01*
X160500Y83500D01*
X161500Y82500D01*
X162500D01*
Y83500D01*
X161500Y84500D01*
X162500Y85500D01*
Y86500D01*
X161500D01*
X160500Y85500D01*
X159500Y86500D01*
X158500D01*
Y85500D01*
X159500Y84500D01*
X158500Y83500D01*
Y82500D01*
X145000Y103000D02*
Y107000D01*
X149000D01*
Y103000D01*
X145000D01*
X145800Y103800D02*
Y106200D01*
X148200D01*
Y103800D01*
X145800D01*
X249500Y199000D02*
Y203000D01*
X253500D01*
Y199000D01*
X249500D01*
X250300Y199800D02*
Y202200D01*
X252700D01*
Y199800D01*
X250300D01*
X151000Y144000D02*
X152000D01*
X153000Y145000D01*
X154000Y144000D01*
X155000D01*
Y145000D01*
X154000Y146000D01*
X155000Y147000D01*
Y148000D01*
X154000D01*
X153000Y147000D01*
X152000Y148000D01*
X151000D01*
Y147000D01*
X152000Y146000D01*
X151000Y145000D01*
Y144000D01*
X156000Y138000D02*
X157000D01*
X158000Y139000D01*
X159000Y138000D01*
X160000D01*
Y139000D01*
X159000Y140000D01*
X160000Y141000D01*
Y142000D01*
X159000D01*
X158000Y141000D01*
X157000Y142000D01*
X156000D01*
Y141000D01*
X157000Y140000D01*
X156000Y139000D01*
Y138000D01*
X274000Y111000D02*
X275000D01*
X276000Y112000D01*
X277000Y111000D01*
X278000D01*
Y112000D01*
X277000Y113000D01*
X278000Y114000D01*
Y115000D01*
X277000D01*
X276000Y114000D01*
X275000Y115000D01*
X274000D01*
Y114000D01*
X275000Y113000D01*
X274000Y112000D01*
Y111000D01*
X201059D02*
X202059D01*
X203059Y112000D01*
X204059Y111000D01*
X205059D01*
Y112000D01*
X204059Y113000D01*
X205059Y114000D01*
Y115000D01*
X204059D01*
X203059Y114000D01*
X202059Y115000D01*
X201059D01*
Y114000D01*
X202059Y113000D01*
X201059Y112000D01*
Y111000D01*
X165000Y137500D02*
X166000D01*
X167000Y138500D01*
X168000Y137500D01*
X169000D01*
Y138500D01*
X168000Y139500D01*
X169000Y140500D01*
Y141500D01*
X168000D01*
X167000Y140500D01*
X166000Y141500D01*
X165000D01*
Y140500D01*
X166000Y139500D01*
X165000Y138500D01*
Y137500D01*
X156500Y201500D02*
X157500D01*
X158500Y202500D01*
X159500Y201500D01*
X160500D01*
Y202500D01*
X159500Y203500D01*
X160500Y204500D01*
Y205500D01*
X159500D01*
X158500Y204500D01*
X157500Y205500D01*
X156500D01*
Y204500D01*
X157500Y203500D01*
X156500Y202500D01*
Y201500D01*
X157500Y209500D02*
X158500D01*
X159500Y210500D01*
X160500Y209500D01*
X161500D01*
Y210500D01*
X160500Y211500D01*
X161500Y212500D01*
Y213500D01*
X160500D01*
X159500Y212500D01*
X158500Y213500D01*
X157500D01*
Y212500D01*
X158500Y211500D01*
X157500Y210500D01*
Y209500D01*
X145000Y107500D02*
Y111500D01*
X149000D01*
Y107500D01*
X145000D01*
X145800Y108300D02*
Y110700D01*
X148200D01*
Y108300D01*
X145800D01*
X273941Y174000D02*
X274941D01*
X275941Y175000D01*
X276941Y174000D01*
X277941D01*
Y175000D01*
X276941Y176000D01*
X277941Y177000D01*
Y178000D01*
X276941D01*
X275941Y177000D01*
X274941Y178000D01*
X273941D01*
Y177000D01*
X274941Y176000D01*
X273941Y175000D01*
Y174000D01*
X201559Y175000D02*
X202559D01*
X203559Y176000D01*
X204559Y175000D01*
X205559D01*
Y176000D01*
X204559Y177000D01*
X205559Y178000D01*
Y179000D01*
X204559D01*
X203559Y178000D01*
X202559Y179000D01*
X201559D01*
Y178000D01*
X202559Y177000D01*
X201559Y176000D01*
Y175000D01*
X158500Y146500D02*
X159500D01*
X160500Y147500D01*
X161500Y146500D01*
X162500D01*
Y147500D01*
X161500Y148500D01*
X162500Y149500D01*
Y150500D01*
X161500D01*
X160500Y149500D01*
X159500Y150500D01*
X158500D01*
Y149500D01*
X159500Y148500D01*
X158500Y147500D01*
Y146500D01*
X152700Y206500D02*
X153700D01*
X154700Y207500D01*
X155700Y206500D01*
X156700D01*
Y207500D01*
X155700Y208500D01*
X156700Y209500D01*
Y210500D01*
X155700D01*
X154700Y209500D01*
X153700Y210500D01*
X152700D01*
Y209500D01*
X153700Y208500D01*
X152700Y207500D01*
Y206500D01*
X166241Y197937D02*
X167241D01*
X168241Y198937D01*
X169241Y197937D01*
X170241D01*
Y198937D01*
X169241Y199937D01*
X170241Y200937D01*
Y201937D01*
X169241D01*
X168241Y200937D01*
X167241Y201937D01*
X166241D01*
Y200937D01*
X167241Y199937D01*
X166241Y198937D01*
Y197937D01*
X282500Y194000D02*
Y198000D01*
X286500D01*
Y194000D01*
X282500D01*
X283300Y194800D02*
Y197200D01*
X285700D01*
Y194800D01*
X283300D01*
X251350Y233000D02*
X252350D01*
X253350Y234000D01*
X254350Y233000D01*
X255350D01*
Y234000D01*
X254350Y235000D01*
X255350Y236000D01*
Y237000D01*
X254350D01*
X253350Y236000D01*
X252350Y237000D01*
X251350D01*
Y236000D01*
X252350Y235000D01*
X251350Y234000D01*
Y233000D01*
X247000Y224500D02*
X248000D01*
X249000Y225500D01*
X250000Y224500D01*
X251000D01*
Y225500D01*
X250000Y226500D01*
X251000Y227500D01*
Y228500D01*
X250000D01*
X249000Y227500D01*
X248000Y228500D01*
X247000D01*
Y227500D01*
X248000Y226500D01*
X247000Y225500D01*
Y224500D01*
X243000Y228299D02*
X244000D01*
X245000Y229299D01*
X246000Y228299D01*
X247000D01*
Y229299D01*
X246000Y230299D01*
X247000Y231299D01*
Y232299D01*
X246000D01*
X245000Y231299D01*
X244000Y232299D01*
X243000D01*
Y231299D01*
X244000Y230299D01*
X243000Y229299D01*
Y228299D01*
X209000Y199500D02*
Y203500D01*
X213000D01*
Y199500D01*
X209000D01*
X209800Y200300D02*
Y202700D01*
X212200D01*
Y200300D01*
X209800D01*
X206669Y224028D02*
X207669D01*
X208669Y225028D01*
X209669Y224028D01*
X210669D01*
Y225028D01*
X209669Y226028D01*
X210669Y227028D01*
Y228028D01*
X209669D01*
X208669Y227028D01*
X207669Y228028D01*
X206669D01*
Y227028D01*
X207669Y226028D01*
X206669Y225028D01*
Y224028D01*
X205488Y232028D02*
X206488D01*
X207488Y233028D01*
X208488Y232028D01*
X209488D01*
Y233028D01*
X208488Y234028D01*
X209488Y235028D01*
Y236028D01*
X208488D01*
X207488Y235028D01*
X206488Y236028D01*
X205488D01*
Y235028D01*
X206488Y234028D01*
X205488Y233028D01*
Y232028D01*
X203000Y224000D02*
X204000D01*
X205000Y225000D01*
X206000Y224000D01*
X207000D01*
Y225000D01*
X206000Y226000D01*
X207000Y227000D01*
Y228000D01*
X206000D01*
X205000Y227000D01*
X204000Y228000D01*
X203000D01*
Y227000D01*
X204000Y226000D01*
X203000Y225000D01*
Y224000D01*
X273941Y106000D02*
X274941D01*
X275941Y107000D01*
X276941Y106000D01*
X277941D01*
Y107000D01*
X276941Y108000D01*
X277941Y109000D01*
Y110000D01*
X276941D01*
X275941Y109000D01*
X274941Y110000D01*
X273941D01*
Y109000D01*
X274941Y108000D01*
X273941Y107000D01*
Y106000D01*
X224000Y101059D02*
X225000D01*
X226000Y102059D01*
X227000Y101059D01*
X228000D01*
Y102059D01*
X227000Y103059D01*
X228000Y104059D01*
Y105059D01*
X227000D01*
X226000Y104059D01*
X225000Y105059D01*
X224000D01*
Y104059D01*
X225000Y103059D01*
X224000Y102059D01*
Y101059D01*
X234059Y101000D02*
X235059D01*
X236059Y102000D01*
X237059Y101000D01*
X238059D01*
Y102000D01*
X237059Y103000D01*
X238059Y104000D01*
Y105000D01*
X237059D01*
X236059Y104000D01*
X235059Y105000D01*
X234059D01*
Y104000D01*
X235059Y103000D01*
X234059Y102000D01*
Y101000D01*
X253129Y97949D02*
X254129D01*
X255129Y98949D01*
X256129Y97949D01*
X257129D01*
Y98949D01*
X256129Y99949D01*
X257129Y100949D01*
Y101949D01*
X256129D01*
X255129Y100949D01*
X254129Y101949D01*
X253129D01*
Y100949D01*
X254129Y99949D01*
X253129Y98949D01*
Y97949D01*
X249000Y98000D02*
X250000D01*
X251000Y99000D01*
X252000Y98000D01*
X253000D01*
Y99000D01*
X252000Y100000D01*
X253000Y101000D01*
Y102000D01*
X252000D01*
X251000Y101000D01*
X250000Y102000D01*
X249000D01*
Y101000D01*
X250000Y100000D01*
X249000Y99000D01*
Y98000D01*
X244000Y102150D02*
X245000D01*
X246000Y103150D01*
X247000Y102150D01*
X248000D01*
Y103150D01*
X247000Y104150D01*
X248000Y105150D01*
Y106150D01*
X247000D01*
X246000Y105150D01*
X245000Y106150D01*
X244000D01*
Y105150D01*
X245000Y104150D01*
X244000Y103150D01*
Y102150D01*
X252850Y106000D02*
X253850D01*
X254850Y107000D01*
X255850Y106000D01*
X256850D01*
Y107000D01*
X255850Y108000D01*
X256850Y109000D01*
Y110000D01*
X255850D01*
X254850Y109000D01*
X253850Y110000D01*
X252850D01*
Y109000D01*
X253850Y108000D01*
X252850Y107000D01*
Y106000D01*
X206850D02*
X207850D01*
X208850Y107000D01*
X209850Y106000D01*
X210850D01*
Y107000D01*
X209850Y108000D01*
X210850Y109000D01*
Y110000D01*
X209850D01*
X208850Y109000D01*
X207850Y110000D01*
X206850D01*
Y109000D01*
X207850Y108000D01*
X206850Y107000D01*
Y106000D01*
X209000Y98000D02*
X210000D01*
X211000Y99000D01*
X212000Y98000D01*
X213000D01*
Y99000D01*
X212000Y100000D01*
X213000Y101000D01*
Y102000D01*
X212000D01*
X211000Y101000D01*
X210000Y102000D01*
X209000D01*
Y101000D01*
X210000Y100000D01*
X209000Y99000D01*
Y98000D01*
X204500D02*
X205500D01*
X206500Y99000D01*
X207500Y98000D01*
X208500D01*
Y99000D01*
X207500Y100000D01*
X208500Y101000D01*
Y102000D01*
X207500D01*
X206500Y101000D01*
X205500Y102000D01*
X204500D01*
Y101000D01*
X205500Y100000D01*
X204500Y99000D01*
Y98000D01*
X201059Y106000D02*
X202059D01*
X203059Y107000D01*
X204059Y106000D01*
X205059D01*
Y107000D01*
X204059Y108000D01*
X205059Y109000D01*
Y110000D01*
X204059D01*
X203059Y109000D01*
X202059Y110000D01*
X201059D01*
Y109000D01*
X202059Y108000D01*
X201059Y107000D01*
Y106000D01*
X191000Y102150D02*
X192000D01*
X193000Y103150D01*
X194000Y102150D01*
X195000D01*
Y103150D01*
X194000Y104150D01*
X195000Y105150D01*
Y106150D01*
X194000D01*
X193000Y105150D01*
X192000Y106150D01*
X191000D01*
Y105150D01*
X192000Y104150D01*
X191000Y103150D01*
Y102150D01*
X186000Y101059D02*
X187000D01*
X188000Y102059D01*
X189000Y101059D01*
X190000D01*
Y102059D01*
X189000Y103059D01*
X190000Y104059D01*
Y105059D01*
X189000D01*
X188000Y104059D01*
X187000Y105059D01*
X186000D01*
Y104059D01*
X187000Y103059D01*
X186000Y102059D01*
Y101059D01*
X235059Y164500D02*
X236059D01*
X237059Y165500D01*
X238059Y164500D01*
X239059D01*
Y165500D01*
X238059Y166500D01*
X239059Y167500D01*
Y168500D01*
X238059D01*
X237059Y167500D01*
X236059Y168500D01*
X235059D01*
Y167500D01*
X236059Y166500D01*
X235059Y165500D01*
Y164500D01*
X186500Y164559D02*
X187500D01*
X188500Y165559D01*
X189500Y164559D01*
X190500D01*
Y165559D01*
X189500Y166559D01*
X190500Y167559D01*
Y168559D01*
X189500D01*
X188500Y167559D01*
X187500Y168559D01*
X186500D01*
Y167559D01*
X187500Y166559D01*
X186500Y165559D01*
Y164559D01*
X201559Y170000D02*
X202559D01*
X203559Y171000D01*
X204559Y170000D01*
X205559D01*
Y171000D01*
X204559Y172000D01*
X205559Y173000D01*
Y174000D01*
X204559D01*
X203559Y173000D01*
X202559Y174000D01*
X201559D01*
Y173000D01*
X202559Y172000D01*
X201559Y171000D01*
Y170000D01*
X205000Y161500D02*
X206000D01*
X207000Y162500D01*
X208000Y161500D01*
X209000D01*
Y162500D01*
X208000Y163500D01*
X209000Y164500D01*
Y165500D01*
X208000D01*
X207000Y164500D01*
X206000Y165500D01*
X205000D01*
Y164500D01*
X206000Y163500D01*
X205000Y162500D01*
Y161500D01*
X206850Y169500D02*
X207850D01*
X208850Y170500D01*
X209850Y169500D01*
X210850D01*
Y170500D01*
X209850Y171500D01*
X210850Y172500D01*
Y173500D01*
X209850D01*
X208850Y172500D01*
X207850Y173500D01*
X206850D01*
Y172500D01*
X207850Y171500D01*
X206850Y170500D01*
Y169500D01*
X209000Y161500D02*
X210000D01*
X211000Y162500D01*
X212000Y161500D01*
X213000D01*
Y162500D01*
X212000Y163500D01*
X213000Y164500D01*
Y165500D01*
X212000D01*
X211000Y164500D01*
X210000Y165500D01*
X209000D01*
Y164500D01*
X210000Y163500D01*
X209000Y162500D01*
Y161500D01*
X274000Y169000D02*
X275000D01*
X276000Y170000D01*
X277000Y169000D01*
X278000D01*
Y170000D01*
X277000Y171000D01*
X278000Y172000D01*
Y173000D01*
X277000D01*
X276000Y172000D01*
X275000Y173000D01*
X274000D01*
Y172000D01*
X275000Y171000D01*
X274000Y170000D01*
Y169000D01*
X284000Y164059D02*
X285000D01*
X286000Y165059D01*
X287000Y164059D01*
X288000D01*
Y165059D01*
X287000Y166059D01*
X288000Y167059D01*
Y168059D01*
X287000D01*
X286000Y167059D01*
X285000Y168059D01*
X284000D01*
Y167059D01*
X285000Y166059D01*
X284000Y165059D01*
Y164059D01*
X225000Y164559D02*
X226000D01*
X227000Y165559D01*
X228000Y164559D01*
X229000D01*
Y165559D01*
X228000Y166559D01*
X229000Y167559D01*
Y168559D01*
X228000D01*
X227000Y167559D01*
X226000Y168559D01*
X225000D01*
Y167559D01*
X226000Y166559D01*
X225000Y165559D01*
Y164559D01*
X245000Y165799D02*
X246000D01*
X247000Y166799D01*
X248000Y165799D01*
X249000D01*
Y166799D01*
X248000Y167799D01*
X249000Y168799D01*
Y169799D01*
X248000D01*
X247000Y168799D01*
X246000Y169799D01*
X245000D01*
Y168799D01*
X246000Y167799D01*
X245000Y166799D01*
Y165799D01*
X240850Y175500D02*
X241850D01*
X242850Y176500D01*
X243850Y175500D01*
X244850D01*
Y176500D01*
X243850Y177500D01*
X244850Y178500D01*
Y179500D01*
X243850D01*
X242850Y178500D01*
X241850Y179500D01*
X240850D01*
Y178500D01*
X241850Y177500D01*
X240850Y176500D01*
Y175500D01*
X252850Y169500D02*
X253850D01*
X254850Y170500D01*
X255850Y169500D01*
X256850D01*
Y170500D01*
X255850Y171500D01*
X256850Y172500D01*
Y173500D01*
X255850D01*
X254850Y172500D01*
X253850Y173500D01*
X252850D01*
Y172500D01*
X253850Y171500D01*
X252850Y170500D01*
Y169500D01*
X249500Y161500D02*
X250500D01*
X251500Y162500D01*
X252500Y161500D01*
X253500D01*
Y162500D01*
X252500Y163500D01*
X253500Y164500D01*
Y165500D01*
X252500D01*
X251500Y164500D01*
X250500Y165500D01*
X249500D01*
Y164500D01*
X250500Y163500D01*
X249500Y162500D01*
Y161500D01*
X253500D02*
X254500D01*
X255500Y162500D01*
X256500Y161500D01*
X257500D01*
Y162500D01*
X256500Y163500D01*
X257500Y164500D01*
Y165500D01*
X256500D01*
X255500Y164500D01*
X254500Y165500D01*
X253500D01*
Y164500D01*
X254500Y163500D01*
X253500Y162500D01*
Y161500D01*
X271941Y232000D02*
X272941D01*
X273941Y233000D01*
X274941Y232000D01*
X275941D01*
Y233000D01*
X274941Y234000D01*
X275941Y235000D01*
Y236000D01*
X274941D01*
X273941Y235000D01*
X272941Y236000D01*
X271941D01*
Y235000D01*
X272941Y234000D01*
X271941Y233000D01*
Y232000D01*
X282000Y227059D02*
X283000D01*
X284000Y228059D01*
X285000Y227059D01*
X286000D01*
Y228059D01*
X285000Y229059D01*
X286000Y230059D01*
Y231059D01*
X285000D01*
X284000Y230059D01*
X283000Y231059D01*
X282000D01*
Y230059D01*
X283000Y229059D01*
X282000Y228059D01*
Y227059D01*
X287000Y227059D02*
X288000D01*
X289000Y228059D01*
X290000Y227059D01*
X291000D01*
Y228059D01*
X290000Y229059D01*
X291000Y230059D01*
Y231059D01*
X290000D01*
X289000Y230059D01*
X288000Y231059D01*
X287000D01*
Y230059D01*
X288000Y229059D01*
X287000Y228059D01*
Y227059D01*
X251500Y224500D02*
X252500D01*
X253500Y225500D01*
X254500Y224500D01*
X255500D01*
Y225500D01*
X254500Y226500D01*
X255500Y227500D01*
Y228500D01*
X254500D01*
X253500Y227500D01*
X252500Y228500D01*
X251500D01*
Y227500D01*
X252500Y226500D01*
X251500Y225500D01*
Y224500D01*
X212174Y240087D02*
X213174D01*
X214174Y241087D01*
X215174Y240087D01*
X216174D01*
Y241087D01*
X215174Y242087D01*
X216174Y243087D01*
Y244087D01*
X215174D01*
X214174Y243087D01*
X213174Y244087D01*
X212174D01*
Y243087D01*
X213174Y242087D01*
X212174Y241087D01*
Y240087D01*
X205867Y240079D02*
X206867D01*
X207867Y241079D01*
X208867Y240079D01*
X209867D01*
Y241079D01*
X208867Y242079D01*
X209867Y243079D01*
Y244079D01*
X208867D01*
X207867Y243079D01*
X206867Y244079D01*
X205867D01*
Y243079D01*
X206867Y242079D01*
X205867Y241079D01*
Y240079D01*
X246150Y238000D02*
X247150D01*
X248150Y239000D01*
X249150Y238000D01*
X250150D01*
Y239000D01*
X249150Y240000D01*
X250150Y241000D01*
Y242000D01*
X249150D01*
X248150Y241000D01*
X247150Y242000D01*
X246150D01*
Y241000D01*
X247150Y240000D01*
X246150Y239000D01*
Y238000D01*
X239850D02*
X240850D01*
X241850Y239000D01*
X242850Y238000D01*
X243850D01*
Y239000D01*
X242850Y240000D01*
X243850Y241000D01*
Y242000D01*
X242850D01*
X241850Y241000D01*
X240850Y242000D01*
X239850D01*
Y241000D01*
X240850Y240000D01*
X239850Y239000D01*
Y238000D01*
X190137Y228926D02*
X191137D01*
X192137Y229926D01*
X193137Y228926D01*
X194137D01*
Y229926D01*
X193137Y230926D01*
X194137Y231926D01*
Y232926D01*
X193137D01*
X192137Y231926D01*
X191137Y232926D01*
X190137D01*
Y231926D01*
X191137Y230926D01*
X190137Y229926D01*
Y228926D01*
X233059Y227000D02*
X234059D01*
X235059Y228000D01*
X236059Y227000D01*
X237059D01*
Y228000D01*
X236059Y229000D01*
X237059Y230000D01*
Y231000D01*
X236059D01*
X235059Y230000D01*
X234059Y231000D01*
X233059D01*
Y230000D01*
X234059Y229000D01*
X233059Y228000D01*
Y227000D01*
X223000Y227059D02*
X224000D01*
X225000Y228059D01*
X226000Y227059D01*
X227000D01*
Y228059D01*
X226000Y229059D01*
X227000Y230059D01*
Y231059D01*
X226000D01*
X225000Y230059D01*
X224000Y231059D01*
X223000D01*
Y230059D01*
X224000Y229059D01*
X223000Y228059D01*
Y227059D01*
X199696Y231528D02*
X200696D01*
X201696Y232528D01*
X202696Y231528D01*
X203696D01*
Y232528D01*
X202696Y233528D01*
X203696Y234528D01*
Y235528D01*
X202696D01*
X201696Y234528D01*
X200696Y235528D01*
X199696D01*
Y234528D01*
X200696Y233528D01*
X199696Y232528D01*
Y231528D01*
X163525Y230587D02*
X164525D01*
X165525Y231587D01*
X166525Y230587D01*
X167525D01*
Y231587D01*
X166525Y232587D01*
X167525Y233587D01*
Y234587D01*
X166525D01*
X165525Y233587D01*
X164525Y234587D01*
X163525D01*
Y233587D01*
X164525Y232587D01*
X163525Y231587D01*
Y230587D01*
X157965Y103223D02*
X158965D01*
X159965Y104223D01*
X160965Y103223D01*
X161965D01*
Y104223D01*
X160965Y105223D01*
X161965Y106223D01*
Y107223D01*
X160965D01*
X159965Y106223D01*
X158965Y107223D01*
X157965D01*
Y106223D01*
X158965Y105223D01*
X157965Y104223D01*
Y103223D01*
X163252Y103186D02*
X164252D01*
X165252Y104186D01*
X166252Y103186D01*
X167252D01*
Y104186D01*
X166252Y105186D01*
X167252Y106186D01*
Y107186D01*
X166252D01*
X165252Y106186D01*
X164252Y107186D01*
X163252D01*
Y106186D01*
X164252Y105186D01*
X163252Y104186D01*
Y103186D01*
X158025Y167587D02*
X159025D01*
X160025Y168587D01*
X161025Y167587D01*
X162025D01*
Y168587D01*
X161025Y169587D01*
X162025Y170587D01*
Y171587D01*
X161025D01*
X160025Y170587D01*
X159025Y171587D01*
X158025D01*
Y170587D01*
X159025Y169587D01*
X158025Y168587D01*
Y167587D01*
X305000Y287134D02*
X306000D01*
X307000Y288134D01*
X308000Y287134D01*
X309000D01*
Y288134D01*
X308000Y289134D01*
X309000Y290134D01*
Y291134D01*
X308000D01*
X307000Y290134D01*
X306000Y291134D01*
X305000D01*
Y290134D01*
X306000Y289134D01*
X305000Y288134D01*
Y287134D01*
X292000D02*
X293000D01*
X294000Y288134D01*
X295000Y287134D01*
X296000D01*
Y288134D01*
X295000Y289134D01*
X296000Y290134D01*
Y291134D01*
X295000D01*
X294000Y290134D01*
X293000Y291134D01*
X292000D01*
Y290134D01*
X293000Y289134D01*
X292000Y288134D01*
Y287134D01*
X279000Y287134D02*
X280000D01*
X281000Y288134D01*
X282000Y287134D01*
X283000D01*
Y288134D01*
X282000Y289134D01*
X283000Y290134D01*
Y291134D01*
X282000D01*
X281000Y290134D01*
X280000Y291134D01*
X279000D01*
Y290134D01*
X280000Y289134D01*
X279000Y288134D01*
Y287134D01*
X264000Y287134D02*
X265000D01*
X266000Y288134D01*
X267000Y287134D01*
X268000D01*
Y288134D01*
X267000Y289134D01*
X268000Y290134D01*
Y291134D01*
X267000D01*
X266000Y290134D01*
X265000Y291134D01*
X264000D01*
Y290134D01*
X265000Y289134D01*
X264000Y288134D01*
Y287134D01*
X2339Y188760D02*
X3339D01*
X4339Y189760D01*
X5339Y188760D01*
X6339D01*
Y189760D01*
X5339Y190760D01*
X6339Y191760D01*
Y192760D01*
X5339D01*
X4339Y191760D01*
X3339Y192760D01*
X2339D01*
Y191760D01*
X3339Y190760D01*
X2339Y189760D01*
Y188760D01*
X-8000Y189000D02*
X-7000D01*
X-6000Y190000D01*
X-5000Y189000D01*
X-4000D01*
Y190000D01*
X-5000Y191000D01*
X-4000Y192000D01*
Y193000D01*
X-5000D01*
X-6000Y192000D01*
X-7000Y193000D01*
X-8000D01*
Y192000D01*
X-7000Y191000D01*
X-8000Y190000D01*
Y189000D01*
X-2500Y189000D02*
X-1500D01*
X-500Y190000D01*
X500Y189000D01*
X1500D01*
Y190000D01*
X500Y191000D01*
X1500Y192000D01*
Y193000D01*
X500D01*
X-500Y192000D01*
X-1500Y193000D01*
X-2500D01*
Y192000D01*
X-1500Y191000D01*
X-2500Y190000D01*
Y189000D01*
X215000Y-4150D02*
X216000D01*
X217000Y-3150D01*
X218000Y-4150D01*
X219000D01*
Y-3150D01*
X218000Y-2150D01*
X219000Y-1150D01*
Y-150D01*
X218000D01*
X217000Y-1150D01*
X216000Y-150D01*
X215000D01*
Y-1150D01*
X216000Y-2150D01*
X215000Y-3150D01*
Y-4150D01*
X236000D02*
X237000D01*
X238000Y-3150D01*
X239000Y-4150D01*
X240000D01*
Y-3150D01*
X239000Y-2150D01*
X240000Y-1150D01*
Y-150D01*
X239000D01*
X238000Y-1150D01*
X237000Y-150D01*
X236000D01*
Y-1150D01*
X237000Y-2150D01*
X236000Y-3150D01*
Y-4150D01*
X149000Y30295D02*
X150000D01*
X151000Y31295D01*
X152000Y30295D01*
X153000D01*
Y31295D01*
X152000Y32295D01*
X153000Y33295D01*
Y34295D01*
X152000D01*
X151000Y33295D01*
X150000Y34295D01*
X149000D01*
Y33295D01*
X150000Y32295D01*
X149000Y31295D01*
Y30295D01*
X155000Y30000D02*
X156000D01*
X157000Y31000D01*
X158000Y30000D01*
X159000D01*
Y31000D01*
X158000Y32000D01*
X159000Y33000D01*
Y34000D01*
X158000D01*
X157000Y33000D01*
X156000Y34000D01*
X155000D01*
Y33000D01*
X156000Y32000D01*
X155000Y31000D01*
Y30000D01*
X103000Y31114D02*
X104000D01*
X105000Y32114D01*
X106000Y31114D01*
X107000D01*
Y32114D01*
X106000Y33114D01*
X107000Y34114D01*
Y35114D01*
X106000D01*
X105000Y34114D01*
X104000Y35114D01*
X103000D01*
Y34114D01*
X104000Y33114D01*
X103000Y32114D01*
Y31114D01*
X97000Y31409D02*
X98000D01*
X99000Y32409D01*
X100000Y31409D01*
X101000D01*
Y32409D01*
X100000Y33409D01*
X101000Y34409D01*
Y35409D01*
X100000D01*
X99000Y34409D01*
X98000Y35409D01*
X97000D01*
Y34409D01*
X98000Y33409D01*
X97000Y32409D01*
Y31409D01*
D99*
X40000Y8102D02*
G03*
X40000Y8102I-2000J0D01*
G01*
X50000D02*
G03*
X50000Y8102I-2000J0D01*
G01*
X40000Y32102D02*
G03*
X40000Y32102I-2000J0D01*
G01*
X50000D02*
G03*
X50000Y32102I-2000J0D01*
G01*
X40000Y20102D02*
G03*
X40000Y20102I-2000J0D01*
G01*
X50000Y20102D02*
G03*
X50000Y20102I-2000J0D01*
G01*
M02*
