G04*
G04 #@! TF.GenerationSoftware,Altium Limited,Altium Designer,23.6.0 (18)*
G04*
G04 Layer_Physical_Order=4*
G04 Layer_Color=16711680*
%FSLAX25Y25*%
%MOIN*%
G70*
G04*
G04 #@! TF.SameCoordinates,4C77A988-F8BE-4A75-A6A8-83DB4AFB9164*
G04*
G04*
G04 #@! TF.FilePolarity,Positive*
G04*
G01*
G75*
%ADD15C,0.01000*%
%ADD57R,0.04528X0.04528*%
%ADD58C,0.04528*%
%ADD59C,0.06102*%
%ADD60R,0.06102X0.06102*%
G04:AMPARAMS|DCode=61|XSize=94.49mil|YSize=181.1mil|CornerRadius=47.24mil|HoleSize=0mil|Usage=FLASHONLY|Rotation=270.000|XOffset=0mil|YOffset=0mil|HoleType=Round|Shape=RoundedRectangle|*
%AMROUNDEDRECTD61*
21,1,0.09449,0.08661,0,0,270.0*
21,1,0.00000,0.18110,0,0,270.0*
1,1,0.09449,-0.04331,0.00000*
1,1,0.09449,-0.04331,0.00000*
1,1,0.09449,0.04331,0.00000*
1,1,0.09449,0.04331,0.00000*
%
%ADD61ROUNDEDRECTD61*%
%ADD63R,0.08000X0.08000*%
%ADD64C,0.08000*%
%ADD66R,0.03937X0.03937*%
%ADD69R,0.03937X0.03543*%
%ADD70R,0.03543X0.03937*%
%ADD86C,0.00800*%
%ADD90C,0.07087*%
%ADD91R,0.07087X0.07087*%
%ADD92C,0.04724*%
%ADD93C,0.19685*%
%ADD94C,0.04000*%
%ADD95C,0.01800*%
G04:AMPARAMS|DCode=96|XSize=47.65mil|YSize=14.65mil|CornerRadius=7.33mil|HoleSize=0mil|Usage=FLASHONLY|Rotation=270.000|XOffset=0mil|YOffset=0mil|HoleType=Round|Shape=RoundedRectangle|*
%AMROUNDEDRECTD96*
21,1,0.04765,0.00000,0,0,270.0*
21,1,0.03300,0.01465,0,0,270.0*
1,1,0.01465,0.00000,-0.01650*
1,1,0.01465,0.00000,0.01650*
1,1,0.01465,0.00000,0.01650*
1,1,0.01465,0.00000,-0.01650*
%
%ADD96ROUNDEDRECTD96*%
%ADD97R,0.01465X0.04765*%
G36*
X313683Y328844D02*
X315356Y328151D01*
X316863Y327144D01*
X318144Y325863D01*
X319150Y324357D01*
X319844Y322683D01*
X320197Y320906D01*
Y320000D01*
Y-10000D01*
Y-10906D01*
X319844Y-12683D01*
X319150Y-14356D01*
X318144Y-15863D01*
X316863Y-17144D01*
X315356Y-18150D01*
X313683Y-18844D01*
X311906Y-19197D01*
X-10174D01*
X-11951Y-18844D01*
X-13625Y-18150D01*
X-15131Y-17144D01*
X-16412Y-15863D01*
X-17418Y-14356D01*
X-18112Y-12683D01*
X-18465Y-10906D01*
Y-10000D01*
Y320000D01*
Y320906D01*
X-18112Y322683D01*
X-17418Y324357D01*
X-16412Y325863D01*
X-15131Y327144D01*
X-13625Y328151D01*
X-11951Y328844D01*
X-10174Y329197D01*
X311906D01*
X313683Y328844D01*
D02*
G37*
%LPC*%
G36*
X303000Y326441D02*
X300897Y326276D01*
X298846Y325784D01*
X296898Y324976D01*
X295099Y323874D01*
X293495Y322504D01*
X292126Y320901D01*
X291024Y319102D01*
X290216Y317154D01*
X289724Y315103D01*
X289559Y313000D01*
X289724Y310897D01*
X290216Y308846D01*
X291024Y306898D01*
X292126Y305099D01*
X293495Y303496D01*
X295099Y302126D01*
X296898Y301024D01*
X298846Y300216D01*
X300897Y299724D01*
X303000Y299559D01*
X305103Y299724D01*
X307154Y300216D01*
X309102Y301024D01*
X310901Y302126D01*
X312505Y303496D01*
X313874Y305099D01*
X314976Y306898D01*
X315784Y308846D01*
X316276Y310897D01*
X316441Y313000D01*
X316276Y315103D01*
X315784Y317154D01*
X314976Y319102D01*
X313874Y320901D01*
X312505Y322504D01*
X310901Y323874D01*
X309102Y324976D01*
X307154Y325784D01*
X305103Y326276D01*
X303000Y326441D01*
D02*
G37*
G36*
X0D02*
X-2103Y326276D01*
X-4154Y325784D01*
X-6102Y324976D01*
X-7901Y323874D01*
X-9505Y322504D01*
X-10874Y320901D01*
X-11976Y319102D01*
X-12784Y317154D01*
X-13276Y315103D01*
X-13441Y313000D01*
X-13276Y310897D01*
X-12784Y308846D01*
X-11976Y306898D01*
X-10874Y305099D01*
X-9505Y303496D01*
X-7901Y302126D01*
X-6102Y301024D01*
X-4154Y300216D01*
X-2103Y299724D01*
X0Y299559D01*
X2103Y299724D01*
X4154Y300216D01*
X6102Y301024D01*
X7901Y302126D01*
X9505Y303496D01*
X10874Y305099D01*
X11976Y306898D01*
X12784Y308846D01*
X13276Y310897D01*
X13441Y313000D01*
X13276Y315103D01*
X12784Y317154D01*
X11976Y319102D01*
X10874Y320901D01*
X9505Y322504D01*
X7901Y323874D01*
X6102Y324976D01*
X4154Y325784D01*
X2103Y326276D01*
X0Y326441D01*
D02*
G37*
G36*
X280579Y263369D02*
X279421D01*
X278302Y263069D01*
X277298Y262489D01*
X276479Y261670D01*
X275900Y260667D01*
X275600Y259548D01*
Y258389D01*
X275900Y257270D01*
X276479Y256267D01*
X277298Y255448D01*
X278302Y254868D01*
X279421Y254569D01*
X280579D01*
X281698Y254868D01*
X282702Y255448D01*
X283521Y256267D01*
X284100Y257270D01*
X284400Y258389D01*
Y259548D01*
X284100Y260667D01*
X283521Y261670D01*
X282702Y262489D01*
X281698Y263069D01*
X280579Y263369D01*
D02*
G37*
G36*
X250579D02*
X249421D01*
X248302Y263069D01*
X247298Y262489D01*
X246479Y261670D01*
X245900Y260667D01*
X245600Y259548D01*
Y258389D01*
X245900Y257270D01*
X246479Y256267D01*
X247298Y255448D01*
X248302Y254868D01*
X249421Y254569D01*
X250579D01*
X251698Y254868D01*
X252702Y255448D01*
X253521Y256267D01*
X254100Y257270D01*
X254400Y258389D01*
Y259548D01*
X254100Y260667D01*
X253521Y261670D01*
X252702Y262489D01*
X251698Y263069D01*
X250579Y263369D01*
D02*
G37*
G36*
X240579D02*
X239421D01*
X238302Y263069D01*
X237298Y262489D01*
X236479Y261670D01*
X235900Y260667D01*
X235600Y259548D01*
Y258389D01*
X235900Y257270D01*
X236479Y256267D01*
X237298Y255448D01*
X238302Y254868D01*
X239421Y254569D01*
X240579D01*
X241698Y254868D01*
X242702Y255448D01*
X243521Y256267D01*
X244100Y257270D01*
X244400Y258389D01*
Y259548D01*
X244100Y260667D01*
X243521Y261670D01*
X242702Y262489D01*
X241698Y263069D01*
X240579Y263369D01*
D02*
G37*
G36*
X200579D02*
X199421D01*
X198302Y263069D01*
X197298Y262489D01*
X196479Y261670D01*
X195900Y260667D01*
X195600Y259548D01*
Y258389D01*
X195900Y257270D01*
X196479Y256267D01*
X197298Y255448D01*
X198302Y254868D01*
X199421Y254569D01*
X200579D01*
X201698Y254868D01*
X202702Y255448D01*
X203521Y256267D01*
X204100Y257270D01*
X204400Y258389D01*
Y259548D01*
X204100Y260667D01*
X203521Y261670D01*
X202702Y262489D01*
X201698Y263069D01*
X200579Y263369D01*
D02*
G37*
G36*
X190579D02*
X189421D01*
X188302Y263069D01*
X187298Y262489D01*
X186479Y261670D01*
X185900Y260667D01*
X185600Y259548D01*
Y258389D01*
X185900Y257270D01*
X186479Y256267D01*
X187298Y255448D01*
X188302Y254868D01*
X189421Y254569D01*
X190579D01*
X191698Y254868D01*
X192702Y255448D01*
X193521Y256267D01*
X194100Y257270D01*
X194400Y258389D01*
Y259548D01*
X194100Y260667D01*
X193521Y261670D01*
X192702Y262489D01*
X191698Y263069D01*
X190579Y263369D01*
D02*
G37*
G36*
X140579D02*
X139421D01*
X138302Y263069D01*
X137298Y262489D01*
X136479Y261670D01*
X135900Y260667D01*
X135600Y259548D01*
Y258389D01*
X135900Y257270D01*
X136479Y256267D01*
X137298Y255448D01*
X138302Y254868D01*
X139421Y254569D01*
X140579D01*
X141698Y254868D01*
X142702Y255448D01*
X143521Y256267D01*
X144100Y257270D01*
X144400Y258389D01*
Y259548D01*
X144100Y260667D01*
X143521Y261670D01*
X142702Y262489D01*
X141698Y263069D01*
X140579Y263369D01*
D02*
G37*
G36*
X110579D02*
X109421D01*
X108302Y263069D01*
X107298Y262489D01*
X106479Y261670D01*
X105900Y260667D01*
X105600Y259548D01*
Y258389D01*
X105900Y257270D01*
X106479Y256267D01*
X107298Y255448D01*
X108302Y254868D01*
X109421Y254569D01*
X110579D01*
X111698Y254868D01*
X112702Y255448D01*
X113521Y256267D01*
X114100Y257270D01*
X114400Y258389D01*
Y259548D01*
X114100Y260667D01*
X113521Y261670D01*
X112702Y262489D01*
X111698Y263069D01*
X110579Y263369D01*
D02*
G37*
G36*
X100579D02*
X99421D01*
X98302Y263069D01*
X97298Y262489D01*
X96479Y261670D01*
X95900Y260667D01*
X95600Y259548D01*
Y258389D01*
X95900Y257270D01*
X96479Y256267D01*
X97298Y255448D01*
X98302Y254868D01*
X99421Y254569D01*
X100579D01*
X101698Y254868D01*
X102702Y255448D01*
X103521Y256267D01*
X104100Y257270D01*
X104400Y258389D01*
Y259548D01*
X104100Y260667D01*
X103521Y261670D01*
X102702Y262489D01*
X101698Y263069D01*
X100579Y263369D01*
D02*
G37*
G36*
X300579Y263369D02*
X299421D01*
X298302Y263069D01*
X297298Y262489D01*
X296479Y261670D01*
X295900Y260667D01*
X295600Y259548D01*
Y258389D01*
X295900Y257270D01*
X296479Y256267D01*
X297298Y255448D01*
X298302Y254868D01*
X299421Y254569D01*
X300579D01*
X301698Y254868D01*
X302702Y255448D01*
X303521Y256267D01*
X304100Y257270D01*
X304400Y258389D01*
Y259548D01*
X304100Y260667D01*
X303521Y261670D01*
X302702Y262489D01*
X301698Y263069D01*
X300579Y263369D01*
D02*
G37*
G36*
X290579D02*
X289421D01*
X288302Y263069D01*
X287298Y262489D01*
X286479Y261670D01*
X285900Y260667D01*
X285600Y259548D01*
Y258389D01*
X285900Y257270D01*
X286479Y256267D01*
X287298Y255448D01*
X288302Y254868D01*
X289421Y254569D01*
X290579D01*
X291698Y254868D01*
X292702Y255448D01*
X293521Y256267D01*
X294100Y257270D01*
X294400Y258389D01*
Y259548D01*
X294100Y260667D01*
X293521Y261670D01*
X292702Y262489D01*
X291698Y263069D01*
X290579Y263369D01*
D02*
G37*
G36*
X270579D02*
X269421D01*
X268302Y263069D01*
X267298Y262489D01*
X266479Y261670D01*
X265900Y260667D01*
X265600Y259548D01*
Y258389D01*
X265900Y257270D01*
X266479Y256267D01*
X267298Y255448D01*
X268302Y254868D01*
X269421Y254569D01*
X270579D01*
X271698Y254868D01*
X272702Y255448D01*
X273521Y256267D01*
X274100Y257270D01*
X274400Y258389D01*
Y259548D01*
X274100Y260667D01*
X273521Y261670D01*
X272702Y262489D01*
X271698Y263069D01*
X270579Y263369D01*
D02*
G37*
G36*
X260579D02*
X259421D01*
X258302Y263069D01*
X257298Y262489D01*
X256479Y261670D01*
X255900Y260667D01*
X255600Y259548D01*
Y258389D01*
X255900Y257270D01*
X256479Y256267D01*
X257298Y255448D01*
X258302Y254868D01*
X259421Y254569D01*
X260579D01*
X261698Y254868D01*
X262702Y255448D01*
X263521Y256267D01*
X264100Y257270D01*
X264400Y258389D01*
Y259548D01*
X264100Y260667D01*
X263521Y261670D01*
X262702Y262489D01*
X261698Y263069D01*
X260579Y263369D01*
D02*
G37*
G36*
X230579D02*
X229421D01*
X228302Y263069D01*
X227298Y262489D01*
X226479Y261670D01*
X225900Y260667D01*
X225600Y259548D01*
Y258389D01*
X225900Y257270D01*
X226479Y256267D01*
X227298Y255448D01*
X228302Y254868D01*
X229421Y254569D01*
X230579D01*
X231698Y254868D01*
X232702Y255448D01*
X233521Y256267D01*
X234100Y257270D01*
X234400Y258389D01*
Y259548D01*
X234100Y260667D01*
X233521Y261670D01*
X232702Y262489D01*
X231698Y263069D01*
X230579Y263369D01*
D02*
G37*
G36*
X220579D02*
X219421D01*
X218302Y263069D01*
X217298Y262489D01*
X216479Y261670D01*
X215900Y260667D01*
X215600Y259548D01*
Y258389D01*
X215900Y257270D01*
X216479Y256267D01*
X217298Y255448D01*
X218302Y254868D01*
X219421Y254569D01*
X220579D01*
X221698Y254868D01*
X222702Y255448D01*
X223521Y256267D01*
X224100Y257270D01*
X224400Y258389D01*
Y259548D01*
X224100Y260667D01*
X223521Y261670D01*
X222702Y262489D01*
X221698Y263069D01*
X220579Y263369D01*
D02*
G37*
G36*
X210579D02*
X209421D01*
X208302Y263069D01*
X207298Y262489D01*
X206479Y261670D01*
X205900Y260667D01*
X205600Y259548D01*
Y258389D01*
X205900Y257270D01*
X206479Y256267D01*
X207298Y255448D01*
X208302Y254868D01*
X209421Y254569D01*
X210579D01*
X211698Y254868D01*
X212702Y255448D01*
X213521Y256267D01*
X214100Y257270D01*
X214400Y258389D01*
Y259548D01*
X214100Y260667D01*
X213521Y261670D01*
X212702Y262489D01*
X211698Y263069D01*
X210579Y263369D01*
D02*
G37*
G36*
X170579D02*
X169421D01*
X168302Y263069D01*
X167298Y262489D01*
X166479Y261670D01*
X165900Y260667D01*
X165600Y259548D01*
Y258389D01*
X165900Y257270D01*
X166479Y256267D01*
X167298Y255448D01*
X168302Y254868D01*
X169421Y254569D01*
X170579D01*
X171698Y254868D01*
X172702Y255448D01*
X173521Y256267D01*
X174100Y257270D01*
X174400Y258389D01*
Y259548D01*
X174100Y260667D01*
X173521Y261670D01*
X172702Y262489D01*
X171698Y263069D01*
X170579Y263369D01*
D02*
G37*
G36*
X160579D02*
X159421D01*
X158302Y263069D01*
X157298Y262489D01*
X156479Y261670D01*
X155900Y260667D01*
X155600Y259548D01*
Y258389D01*
X155900Y257270D01*
X156304Y256570D01*
X154251Y254517D01*
X154052Y254220D01*
X153982Y253869D01*
Y251794D01*
X153789Y251742D01*
X153482Y251709D01*
X152702Y252489D01*
X151698Y253069D01*
X150579Y253368D01*
X149421D01*
X148302Y253069D01*
X147298Y252489D01*
X146479Y251670D01*
X145900Y250667D01*
X145600Y249548D01*
Y248389D01*
X145900Y247270D01*
X146479Y246267D01*
X147298Y245448D01*
X148302Y244868D01*
X149082Y244659D01*
Y226380D01*
X145036Y222334D01*
X144837Y222036D01*
X144767Y221685D01*
Y192547D01*
X144837Y192196D01*
X145036Y191898D01*
X153083Y183851D01*
X153381Y183652D01*
X153732Y183582D01*
X170620D01*
X173639Y180564D01*
Y141503D01*
X173708Y141152D01*
X173907Y140854D01*
X201659Y113102D01*
Y112722D01*
X201872Y112207D01*
X202266Y111813D01*
X202781Y111600D01*
X203161D01*
X203410Y111351D01*
X203708Y111152D01*
X204059Y111082D01*
X275000D01*
X275351Y111152D01*
X275649Y111351D01*
X275898Y111600D01*
X276278D01*
X276793Y111813D01*
X277187Y112207D01*
X277400Y112722D01*
Y113278D01*
X277187Y113793D01*
X276793Y114187D01*
X276278Y114400D01*
X275722D01*
X275207Y114187D01*
X274813Y113793D01*
X274600Y113278D01*
Y112918D01*
X204459D01*
Y113278D01*
X204246Y113793D01*
X203852Y114187D01*
X203338Y114400D01*
X202957D01*
X175474Y141883D01*
Y180944D01*
X175404Y181295D01*
X175205Y181593D01*
X171649Y185149D01*
X171351Y185348D01*
X171000Y185418D01*
X154112D01*
X146898Y192631D01*
X147106Y193131D01*
X150613D01*
Y197869D01*
X150613D01*
Y198132D01*
X150613D01*
Y202869D01*
X149359D01*
Y208561D01*
X155549Y214751D01*
X155748Y215049D01*
X155818Y215400D01*
Y246413D01*
X156318Y246547D01*
X156479Y246267D01*
X157298Y245448D01*
X158302Y244868D01*
X159421Y244568D01*
X160579D01*
X161698Y244868D01*
X162702Y245448D01*
X163521Y246267D01*
X164100Y247270D01*
X164400Y248389D01*
Y249548D01*
X164100Y250667D01*
X163521Y251670D01*
X162702Y252489D01*
X161698Y253069D01*
X160579Y253368D01*
X159421D01*
X158302Y253069D01*
X157298Y252489D01*
X156479Y251670D01*
X156318Y251391D01*
X155818Y251524D01*
Y253488D01*
X157602Y255273D01*
X158302Y254868D01*
X159421Y254569D01*
X160579D01*
X161698Y254868D01*
X162702Y255448D01*
X163521Y256267D01*
X164100Y257270D01*
X164400Y258389D01*
Y259548D01*
X164100Y260667D01*
X163521Y261670D01*
X162702Y262489D01*
X161698Y263069D01*
X160579Y263369D01*
D02*
G37*
G36*
X150579D02*
X149421D01*
X148302Y263069D01*
X147298Y262489D01*
X146479Y261670D01*
X145900Y260667D01*
X145600Y259548D01*
Y258389D01*
X145900Y257270D01*
X146479Y256267D01*
X147298Y255448D01*
X148302Y254868D01*
X149421Y254569D01*
X150579D01*
X151698Y254868D01*
X152702Y255448D01*
X153521Y256267D01*
X154100Y257270D01*
X154400Y258389D01*
Y259548D01*
X154100Y260667D01*
X153521Y261670D01*
X152702Y262489D01*
X151698Y263069D01*
X150579Y263369D01*
D02*
G37*
G36*
X130579D02*
X129421D01*
X128302Y263069D01*
X127298Y262489D01*
X126479Y261670D01*
X125900Y260667D01*
X125600Y259548D01*
Y258389D01*
X125900Y257270D01*
X126479Y256267D01*
X127298Y255448D01*
X128302Y254868D01*
X129421Y254569D01*
X130579D01*
X131698Y254868D01*
X132702Y255448D01*
X133521Y256267D01*
X134100Y257270D01*
X134400Y258389D01*
Y259548D01*
X134100Y260667D01*
X133521Y261670D01*
X132702Y262489D01*
X131698Y263069D01*
X130579Y263369D01*
D02*
G37*
G36*
X120579D02*
X119421D01*
X118302Y263069D01*
X117298Y262489D01*
X116479Y261670D01*
X115900Y260667D01*
X115600Y259548D01*
Y258389D01*
X115900Y257270D01*
X116304Y256570D01*
X114451Y254717D01*
X114252Y254420D01*
X114182Y254068D01*
Y251524D01*
X113682Y251390D01*
X113521Y251670D01*
X112702Y252489D01*
X111698Y253069D01*
X110579Y253368D01*
X109421D01*
X108302Y253069D01*
X107298Y252489D01*
X106479Y251670D01*
X105900Y250667D01*
X105600Y249548D01*
Y248389D01*
X105900Y247270D01*
X106479Y246267D01*
X107298Y245448D01*
X108302Y244868D01*
X109184Y244632D01*
Y110169D01*
X109184Y110169D01*
X109246Y109857D01*
X109423Y109592D01*
X145769Y73247D01*
Y69663D01*
X145769D01*
Y69400D01*
X145769D01*
Y64663D01*
X148470D01*
X148536Y64163D01*
X148302Y64100D01*
X147298Y63521D01*
X146479Y62702D01*
X145900Y61698D01*
X145600Y60579D01*
Y59421D01*
X145900Y58302D01*
X146479Y57298D01*
X147298Y56479D01*
X148302Y55900D01*
X149421Y55600D01*
X150579D01*
X151698Y55900D01*
X152702Y56479D01*
X153521Y57298D01*
X154100Y58302D01*
X154400Y59421D01*
Y60579D01*
X154100Y61698D01*
X153521Y62702D01*
X152702Y63521D01*
X151698Y64100D01*
X151464Y64163D01*
X151530Y64663D01*
X155231D01*
Y66184D01*
X158638D01*
Y66133D01*
X158726Y65692D01*
X158976Y65317D01*
X159351Y65066D01*
X159793Y64979D01*
X160235Y65066D01*
X160609Y65317D01*
X160794Y65594D01*
X161020Y65639D01*
X161125Y65639D01*
X161350Y65594D01*
X161535Y65317D01*
X161910Y65066D01*
X162352Y64979D01*
X162794Y65066D01*
X163168Y65317D01*
X163354Y65594D01*
X163579Y65639D01*
X163684Y65639D01*
X163909Y65594D01*
X164094Y65317D01*
X164469Y65066D01*
X164911Y64979D01*
X165353Y65066D01*
X165727Y65317D01*
X165978Y65692D01*
X166066Y66133D01*
Y67323D01*
X166164Y67471D01*
X166226Y67783D01*
Y69095D01*
X169477Y72346D01*
X169477Y72346D01*
X169654Y72610D01*
X169716Y72922D01*
X169716Y72922D01*
Y85235D01*
X169716Y85235D01*
X169654Y85547D01*
X169477Y85812D01*
X169477Y85812D01*
X168370Y86918D01*
Y90502D01*
X166167D01*
Y91903D01*
X167720D01*
Y96246D01*
X162983D01*
Y91903D01*
X164536D01*
Y90502D01*
X163633D01*
Y85765D01*
X167216D01*
X168084Y84897D01*
Y83413D01*
X167870Y83002D01*
X163133D01*
X163133Y78641D01*
Y78620D01*
D01*
X163133Y78563D01*
X163037Y78523D01*
X162633Y78356D01*
X161571Y79418D01*
Y80433D01*
X159202D01*
Y80833D01*
X161571D01*
Y83002D01*
X161316D01*
Y84500D01*
X161254Y84812D01*
X161077Y85077D01*
X160812Y85254D01*
X160755Y85265D01*
X160805Y85765D01*
X162071D01*
Y90502D01*
X160667D01*
Y91903D01*
X162220D01*
Y96246D01*
X157483D01*
Y91903D01*
X159036D01*
Y90502D01*
X157334D01*
Y87584D01*
X156883Y87480D01*
X156571Y87418D01*
X156307Y87242D01*
X155656Y86591D01*
X155479Y86326D01*
X155417Y86014D01*
X155417Y86014D01*
Y74823D01*
X155231Y74400D01*
X154917Y74400D01*
X153816D01*
Y82500D01*
X153754Y82812D01*
X153577Y83077D01*
X153312Y83254D01*
X153000Y83316D01*
X152688Y83254D01*
X152423Y83077D01*
X152246Y82812D01*
X152184Y82500D01*
Y74400D01*
X150887D01*
Y72232D01*
X153059D01*
Y71832D01*
X150887D01*
Y69900D01*
X150887Y69663D01*
X150887Y69163D01*
Y64835D01*
X150655Y64507D01*
X150500Y64403D01*
X150113Y64663D01*
X150113Y64900D01*
Y69400D01*
X150113D01*
Y69663D01*
X150113D01*
Y74400D01*
X146923D01*
X110816Y110507D01*
Y244632D01*
X111698Y244868D01*
X112702Y245448D01*
X113521Y246267D01*
X113682Y246547D01*
X114182Y246413D01*
Y188480D01*
X112851Y187149D01*
X112652Y186851D01*
X112582Y186500D01*
Y156062D01*
X112313Y155793D01*
X112100Y155279D01*
Y154721D01*
X112313Y154207D01*
X112707Y153813D01*
X113222Y153600D01*
X113778D01*
X114293Y153813D01*
X114687Y154207D01*
X114900Y154721D01*
Y155279D01*
X114687Y155793D01*
X114418Y156062D01*
Y186120D01*
X115749Y187451D01*
X115948Y187749D01*
X116018Y188100D01*
Y246143D01*
X116211Y246195D01*
X116518Y246228D01*
X117298Y245448D01*
X118302Y244868D01*
X118861Y244719D01*
Y161662D01*
X118592Y161393D01*
X118378Y160879D01*
Y160321D01*
X118592Y159807D01*
X118985Y159413D01*
X119500Y159200D01*
X120057D01*
X120571Y159413D01*
X120965Y159807D01*
X121178Y160321D01*
Y160879D01*
X120965Y161393D01*
X120696Y161662D01*
Y244600D01*
X121698Y244868D01*
X122702Y245448D01*
X123521Y246267D01*
X124100Y247270D01*
X124400Y248389D01*
Y249548D01*
X124100Y250667D01*
X123521Y251670D01*
X122702Y252489D01*
X121698Y253069D01*
X120579Y253368D01*
X119421D01*
X118302Y253069D01*
X117298Y252489D01*
X116518Y251709D01*
X116211Y251742D01*
X116018Y251794D01*
Y253688D01*
X117602Y255273D01*
X118302Y254868D01*
X119421Y254569D01*
X120579D01*
X121698Y254868D01*
X122702Y255448D01*
X123521Y256267D01*
X124100Y257270D01*
X124400Y258389D01*
Y259548D01*
X124100Y260667D01*
X123521Y261670D01*
X122702Y262489D01*
X121698Y263069D01*
X120579Y263369D01*
D02*
G37*
G36*
X80579D02*
X79421D01*
X78302Y263069D01*
X77298Y262489D01*
X76479Y261670D01*
X75900Y260667D01*
X75600Y259548D01*
Y258389D01*
X75900Y257270D01*
X76479Y256267D01*
X77298Y255448D01*
X78302Y254868D01*
X79421Y254569D01*
X80579D01*
X81698Y254868D01*
X82702Y255448D01*
X83521Y256267D01*
X84100Y257270D01*
X84400Y258389D01*
Y259548D01*
X84100Y260667D01*
X83521Y261670D01*
X82702Y262489D01*
X81698Y263069D01*
X80579Y263369D01*
D02*
G37*
G36*
X35193Y257664D02*
X34492D01*
X33814Y257482D01*
X33207Y257132D01*
X32711Y256636D01*
X32360Y256028D01*
X32179Y255351D01*
Y254649D01*
X32360Y253972D01*
X32711Y253364D01*
X33207Y252868D01*
X33814Y252518D01*
X34492Y252336D01*
X35193D01*
X35871Y252518D01*
X36478Y252868D01*
X36974Y253364D01*
X37325Y253972D01*
X37506Y254649D01*
Y255351D01*
X37325Y256028D01*
X36974Y256636D01*
X36478Y257132D01*
X35871Y257482D01*
X35193Y257664D01*
D02*
G37*
G36*
X17821D02*
X12494D01*
Y252336D01*
X17821D01*
Y257664D01*
D02*
G37*
G36*
X300579Y253368D02*
X299421D01*
X298302Y253069D01*
X297298Y252489D01*
X296479Y251670D01*
X295900Y250667D01*
X295600Y249548D01*
Y248389D01*
X295900Y247270D01*
X296479Y246267D01*
X297298Y245448D01*
X298302Y244868D01*
X299421Y244568D01*
X300579D01*
X301698Y244868D01*
X302702Y245448D01*
X303521Y246267D01*
X304100Y247270D01*
X304400Y248389D01*
Y249548D01*
X304100Y250667D01*
X303521Y251670D01*
X302702Y252489D01*
X301698Y253069D01*
X300579Y253368D01*
D02*
G37*
G36*
X290579D02*
X289421D01*
X288302Y253069D01*
X287298Y252489D01*
X286479Y251670D01*
X285900Y250667D01*
X285600Y249548D01*
Y248389D01*
X285900Y247270D01*
X286479Y246267D01*
X287298Y245448D01*
X288302Y244868D01*
X289421Y244568D01*
X290579D01*
X291698Y244868D01*
X292702Y245448D01*
X293521Y246267D01*
X294100Y247270D01*
X294400Y248389D01*
Y249548D01*
X294100Y250667D01*
X293521Y251670D01*
X292702Y252489D01*
X291698Y253069D01*
X290579Y253368D01*
D02*
G37*
G36*
X280579D02*
X279421D01*
X278302Y253069D01*
X277298Y252489D01*
X276479Y251670D01*
X275900Y250667D01*
X275600Y249548D01*
Y248389D01*
X275900Y247270D01*
X276479Y246267D01*
X277298Y245448D01*
X278302Y244868D01*
X279421Y244568D01*
X280579D01*
X281698Y244868D01*
X282702Y245448D01*
X283521Y246267D01*
X284100Y247270D01*
X284400Y248389D01*
Y249548D01*
X284100Y250667D01*
X283521Y251670D01*
X282702Y252489D01*
X281698Y253069D01*
X280579Y253368D01*
D02*
G37*
G36*
X270579D02*
X269421D01*
X268302Y253069D01*
X267298Y252489D01*
X266479Y251670D01*
X265900Y250667D01*
X265600Y249548D01*
Y248389D01*
X265900Y247270D01*
X266479Y246267D01*
X267298Y245448D01*
X268302Y244868D01*
X269421Y244568D01*
X270579D01*
X271698Y244868D01*
X272702Y245448D01*
X273521Y246267D01*
X274100Y247270D01*
X274400Y248389D01*
Y249548D01*
X274100Y250667D01*
X273521Y251670D01*
X272702Y252489D01*
X271698Y253069D01*
X270579Y253368D01*
D02*
G37*
G36*
X260579D02*
X259421D01*
X258302Y253069D01*
X257298Y252489D01*
X256479Y251670D01*
X255900Y250667D01*
X255600Y249548D01*
Y248389D01*
X255900Y247270D01*
X256479Y246267D01*
X257298Y245448D01*
X258302Y244868D01*
X259421Y244568D01*
X260579D01*
X261698Y244868D01*
X262702Y245448D01*
X263521Y246267D01*
X264100Y247270D01*
X264400Y248389D01*
Y249548D01*
X264100Y250667D01*
X263521Y251670D01*
X262702Y252489D01*
X261698Y253069D01*
X260579Y253368D01*
D02*
G37*
G36*
X250579D02*
X249421D01*
X248302Y253069D01*
X247298Y252489D01*
X246479Y251670D01*
X245900Y250667D01*
X245600Y249548D01*
Y248389D01*
X245900Y247270D01*
X246479Y246267D01*
X247298Y245448D01*
X248302Y244868D01*
X249421Y244568D01*
X250579D01*
X251698Y244868D01*
X252702Y245448D01*
X253521Y246267D01*
X254100Y247270D01*
X254400Y248389D01*
Y249548D01*
X254100Y250667D01*
X253521Y251670D01*
X252702Y252489D01*
X251698Y253069D01*
X250579Y253368D01*
D02*
G37*
G36*
X240579D02*
X239421D01*
X238302Y253069D01*
X237298Y252489D01*
X236479Y251670D01*
X235900Y250667D01*
X235600Y249548D01*
Y248389D01*
X235900Y247270D01*
X236479Y246267D01*
X237298Y245448D01*
X238302Y244868D01*
X239421Y244568D01*
X240579D01*
X241698Y244868D01*
X242702Y245448D01*
X243521Y246267D01*
X244100Y247270D01*
X244400Y248389D01*
Y249548D01*
X244100Y250667D01*
X243521Y251670D01*
X242702Y252489D01*
X241698Y253069D01*
X240579Y253368D01*
D02*
G37*
G36*
X230579D02*
X229421D01*
X228302Y253069D01*
X227298Y252489D01*
X226479Y251670D01*
X225900Y250667D01*
X225600Y249548D01*
Y248389D01*
X225900Y247270D01*
X226479Y246267D01*
X227298Y245448D01*
X228302Y244868D01*
X229421Y244568D01*
X230579D01*
X231698Y244868D01*
X232702Y245448D01*
X233521Y246267D01*
X234100Y247270D01*
X234400Y248389D01*
Y249548D01*
X234100Y250667D01*
X233521Y251670D01*
X232702Y252489D01*
X231698Y253069D01*
X230579Y253368D01*
D02*
G37*
G36*
X220579D02*
X219421D01*
X218302Y253069D01*
X217298Y252489D01*
X216479Y251670D01*
X215900Y250667D01*
X215600Y249548D01*
Y248389D01*
X215900Y247270D01*
X216479Y246267D01*
X217298Y245448D01*
X218302Y244868D01*
X219421Y244568D01*
X220579D01*
X221698Y244868D01*
X222702Y245448D01*
X223521Y246267D01*
X224100Y247270D01*
X224400Y248389D01*
Y249548D01*
X224100Y250667D01*
X223521Y251670D01*
X222702Y252489D01*
X221698Y253069D01*
X220579Y253368D01*
D02*
G37*
G36*
X210579D02*
X209421D01*
X208302Y253069D01*
X207298Y252489D01*
X206479Y251670D01*
X205900Y250667D01*
X205600Y249548D01*
Y248389D01*
X205900Y247270D01*
X206479Y246267D01*
X207298Y245448D01*
X208302Y244868D01*
X209421Y244568D01*
X210579D01*
X211698Y244868D01*
X212702Y245448D01*
X213521Y246267D01*
X214100Y247270D01*
X214400Y248389D01*
Y249548D01*
X214100Y250667D01*
X213521Y251670D01*
X212702Y252489D01*
X211698Y253069D01*
X210579Y253368D01*
D02*
G37*
G36*
X200579D02*
X199421D01*
X198302Y253069D01*
X197298Y252489D01*
X196479Y251670D01*
X195900Y250667D01*
X195600Y249548D01*
Y248389D01*
X195900Y247270D01*
X196479Y246267D01*
X197298Y245448D01*
X198302Y244868D01*
X199421Y244568D01*
X200579D01*
X201698Y244868D01*
X202702Y245448D01*
X203521Y246267D01*
X204100Y247270D01*
X204400Y248389D01*
Y249548D01*
X204100Y250667D01*
X203521Y251670D01*
X202702Y252489D01*
X201698Y253069D01*
X200579Y253368D01*
D02*
G37*
G36*
X190579D02*
X189421D01*
X188302Y253069D01*
X187298Y252489D01*
X186479Y251670D01*
X185900Y250667D01*
X185600Y249548D01*
Y248389D01*
X185900Y247270D01*
X186479Y246267D01*
X187298Y245448D01*
X188302Y244868D01*
X189421Y244568D01*
X190579D01*
X191698Y244868D01*
X192702Y245448D01*
X193521Y246267D01*
X194100Y247270D01*
X194400Y248389D01*
Y249548D01*
X194100Y250667D01*
X193521Y251670D01*
X192702Y252489D01*
X191698Y253069D01*
X190579Y253368D01*
D02*
G37*
G36*
X180579D02*
X179421D01*
X178302Y253069D01*
X177298Y252489D01*
X176479Y251670D01*
X175900Y250667D01*
X175600Y249548D01*
Y248389D01*
X175900Y247270D01*
X176479Y246267D01*
X177298Y245448D01*
X178302Y244868D01*
X179421Y244568D01*
X180579D01*
X181698Y244868D01*
X182702Y245448D01*
X183521Y246267D01*
X184100Y247270D01*
X184400Y248389D01*
Y249548D01*
X184100Y250667D01*
X183521Y251670D01*
X182702Y252489D01*
X181698Y253069D01*
X180579Y253368D01*
D02*
G37*
G36*
X130579D02*
X129421D01*
X128302Y253069D01*
X127298Y252489D01*
X126479Y251670D01*
X125900Y250667D01*
X125600Y249548D01*
Y248389D01*
X125900Y247270D01*
X126479Y246267D01*
X127298Y245448D01*
X128302Y244868D01*
X129421Y244568D01*
X130579D01*
X131698Y244868D01*
X132702Y245448D01*
X133521Y246267D01*
X134100Y247270D01*
X134400Y248389D01*
Y249548D01*
X134100Y250667D01*
X133521Y251670D01*
X132702Y252489D01*
X131698Y253069D01*
X130579Y253368D01*
D02*
G37*
G36*
X100579D02*
X99421D01*
X98302Y253069D01*
X97298Y252489D01*
X96479Y251670D01*
X95900Y250667D01*
X95600Y249548D01*
Y248389D01*
X95900Y247270D01*
X96479Y246267D01*
X97298Y245448D01*
X98302Y244868D01*
X99421Y244568D01*
X100579D01*
X101698Y244868D01*
X102702Y245448D01*
X103521Y246267D01*
X104100Y247270D01*
X104400Y248389D01*
Y249548D01*
X104100Y250667D01*
X103521Y251670D01*
X102702Y252489D01*
X101698Y253069D01*
X100579Y253368D01*
D02*
G37*
G36*
X90579D02*
X89421D01*
X88302Y253069D01*
X87298Y252489D01*
X86479Y251670D01*
X85900Y250667D01*
X85600Y249548D01*
Y248389D01*
X85900Y247270D01*
X86479Y246267D01*
X87298Y245448D01*
X88302Y244868D01*
X89421Y244568D01*
X90579D01*
X91698Y244868D01*
X92702Y245448D01*
X93521Y246267D01*
X94100Y247270D01*
X94400Y248389D01*
Y249548D01*
X94100Y250667D01*
X93521Y251670D01*
X92702Y252489D01*
X91698Y253069D01*
X90579Y253368D01*
D02*
G37*
G36*
X80579D02*
X79421D01*
X78302Y253069D01*
X77298Y252489D01*
X76479Y251670D01*
X75900Y250667D01*
X75600Y249548D01*
Y248389D01*
X75900Y247270D01*
X76479Y246267D01*
X77298Y245448D01*
X78302Y244868D01*
X79421Y244568D01*
X80579D01*
X81698Y244868D01*
X82702Y245448D01*
X83521Y246267D01*
X84100Y247270D01*
X84400Y248389D01*
Y249548D01*
X84100Y250667D01*
X83521Y251670D01*
X82702Y252489D01*
X81698Y253069D01*
X80579Y253368D01*
D02*
G37*
G36*
X310497Y217500D02*
X309503D01*
X308584Y217119D01*
X307881Y216416D01*
X307500Y215497D01*
Y214503D01*
X307881Y213584D01*
X308584Y212881D01*
X309503Y212500D01*
X310497D01*
X311416Y212881D01*
X312119Y213584D01*
X312500Y214503D01*
Y215497D01*
X312119Y216416D01*
X311416Y217119D01*
X310497Y217500D01*
D02*
G37*
G36*
X300497D02*
X299503D01*
X298584Y217119D01*
X297881Y216416D01*
X297500Y215497D01*
Y214503D01*
X297881Y213584D01*
X298584Y212881D01*
X299503Y212500D01*
X300497D01*
X301416Y212881D01*
X302119Y213584D01*
X302500Y214503D01*
Y215497D01*
X302119Y216416D01*
X301416Y217119D01*
X300497Y217500D01*
D02*
G37*
G36*
X215497D02*
X214503D01*
X213584Y217119D01*
X212881Y216416D01*
X212500Y215497D01*
Y214503D01*
X212881Y213584D01*
X213584Y212881D01*
X214503Y212500D01*
X215497D01*
X216416Y212881D01*
X217119Y213584D01*
X217500Y214503D01*
Y215497D01*
X217119Y216416D01*
X216416Y217119D01*
X215497Y217500D01*
D02*
G37*
G36*
X200497D02*
X199503D01*
X198584Y217119D01*
X197881Y216416D01*
X197500Y215497D01*
Y214503D01*
X197881Y213584D01*
X198584Y212881D01*
X199503Y212500D01*
X200497D01*
X201416Y212881D01*
X202119Y213584D01*
X202500Y214503D01*
Y215497D01*
X202119Y216416D01*
X201416Y217119D01*
X200497Y217500D01*
D02*
G37*
G36*
X190497D02*
X189503D01*
X188584Y217119D01*
X187881Y216416D01*
X187500Y215497D01*
Y214503D01*
X187881Y213584D01*
X188584Y212881D01*
X189503Y212500D01*
X190497D01*
X191416Y212881D01*
X192119Y213584D01*
X192500Y214503D01*
Y215497D01*
X192119Y216416D01*
X191416Y217119D01*
X190497Y217500D01*
D02*
G37*
G36*
X160525Y235313D02*
X159819Y235220D01*
X159162Y234948D01*
X158597Y234515D01*
X158164Y233950D01*
X157892Y233293D01*
X157799Y232587D01*
X157892Y231882D01*
X158164Y231224D01*
X158597Y230660D01*
X159162Y230226D01*
X159607Y230042D01*
Y228778D01*
X158132D01*
Y226806D01*
X160500D01*
Y226406D01*
X158132D01*
Y224435D01*
X159424D01*
X159611Y224146D01*
X159356Y223660D01*
X158132D01*
Y219369D01*
X157482D01*
Y215785D01*
X155923Y214226D01*
X155746Y213962D01*
X155684Y213650D01*
X155684Y213650D01*
Y209480D01*
X155681Y209477D01*
X155184Y209259D01*
X155051Y209348D01*
X154700Y209418D01*
X154349Y209348D01*
X154051Y209149D01*
X153852Y208851D01*
X153782Y208500D01*
Y202869D01*
X153759D01*
Y200500D01*
X153559D01*
Y200300D01*
X151387D01*
Y198132D01*
X151387D01*
Y197869D01*
X151387D01*
Y193131D01*
X155731D01*
Y194684D01*
X159361D01*
X159399Y194495D01*
X159649Y194121D01*
X160024Y193870D01*
X160466Y193783D01*
X160908Y193870D01*
X161282Y194121D01*
X161468Y194398D01*
X161693Y194443D01*
X161797D01*
X162023Y194398D01*
X162208Y194121D01*
X162583Y193870D01*
X163025Y193783D01*
X163467Y193870D01*
X163841Y194121D01*
X164026Y194398D01*
X164252Y194443D01*
X164357D01*
X164582Y194398D01*
X164767Y194121D01*
X165142Y193870D01*
X165584Y193783D01*
X166026Y193870D01*
X166400Y194121D01*
X166651Y194495D01*
X166738Y194937D01*
Y197021D01*
X168687D01*
X168687Y197021D01*
X168999Y197084D01*
X169264Y197260D01*
X170618Y198615D01*
X170618Y198615D01*
X170795Y198880D01*
X170857Y199192D01*
Y213108D01*
X170857Y213108D01*
X170795Y213420D01*
X170618Y213685D01*
X170618Y213685D01*
X168518Y215785D01*
Y219369D01*
X167868D01*
Y223660D01*
X166694D01*
X166438Y224146D01*
X166625Y224435D01*
X167868D01*
Y228778D01*
X166442D01*
Y231525D01*
X166712Y231794D01*
X166925Y232309D01*
Y232866D01*
X166712Y233380D01*
X166318Y233774D01*
X165803Y233987D01*
X165246D01*
X164732Y233774D01*
X164338Y233380D01*
X164125Y232866D01*
Y232309D01*
X164338Y231794D01*
X164607Y231525D01*
Y229132D01*
X164254Y228778D01*
X163000Y228778D01*
X162631Y228778D01*
X161442D01*
Y230042D01*
X161888Y230226D01*
X162452Y230660D01*
X162886Y231224D01*
X163158Y231882D01*
X163251Y232587D01*
X163158Y233293D01*
X162886Y233950D01*
X162452Y234515D01*
X161888Y234948D01*
X161230Y235220D01*
X160525Y235313D01*
D02*
G37*
G36*
X265497Y212500D02*
X264503D01*
X263584Y212119D01*
X262881Y211416D01*
X262500Y210497D01*
Y209503D01*
X262881Y208584D01*
X263584Y207881D01*
X264503Y207500D01*
X265497D01*
X266416Y207881D01*
X267119Y208584D01*
X267500Y209503D01*
Y210497D01*
X267119Y211416D01*
X266416Y212119D01*
X265497Y212500D01*
D02*
G37*
G36*
X240497D02*
X239503D01*
X238584Y212119D01*
X237881Y211416D01*
X237500Y210497D01*
Y209503D01*
X237881Y208584D01*
X238584Y207881D01*
X239503Y207500D01*
X240497D01*
X241416Y207881D01*
X242119Y208584D01*
X242500Y209503D01*
Y210497D01*
X242119Y211416D01*
X241416Y212119D01*
X240497Y212500D01*
D02*
G37*
G36*
X230497D02*
X229503D01*
X228584Y212119D01*
X227881Y211416D01*
X227500Y210497D01*
Y209503D01*
X227881Y208584D01*
X228584Y207881D01*
X229503Y207500D01*
X230497D01*
X231416Y207881D01*
X232119Y208584D01*
X232500Y209503D01*
Y210497D01*
X232119Y211416D01*
X231416Y212119D01*
X230497Y212500D01*
D02*
G37*
G36*
X220497D02*
X219503D01*
X218584Y212119D01*
X217881Y211416D01*
X217500Y210497D01*
Y209503D01*
X217881Y208584D01*
X218584Y207881D01*
X219503Y207500D01*
X220497D01*
X221416Y207881D01*
X222119Y208584D01*
X222500Y209503D01*
Y210497D01*
X222119Y211416D01*
X221416Y212119D01*
X220497Y212500D01*
D02*
G37*
G36*
X205497D02*
X204503D01*
X203584Y212119D01*
X202881Y211416D01*
X202500Y210497D01*
Y209503D01*
X202881Y208584D01*
X203584Y207881D01*
X204503Y207500D01*
X205497D01*
X206416Y207881D01*
X207119Y208584D01*
X207500Y209503D01*
Y210497D01*
X207119Y211416D01*
X206416Y212119D01*
X205497Y212500D01*
D02*
G37*
G36*
X195497D02*
X194503D01*
X193584Y212119D01*
X192881Y211416D01*
X192500Y210497D01*
Y209503D01*
X192881Y208584D01*
X193584Y207881D01*
X194503Y207500D01*
X195497D01*
X196416Y207881D01*
X197119Y208584D01*
X197500Y209503D01*
Y210497D01*
X197119Y211416D01*
X196416Y212119D01*
X195497Y212500D01*
D02*
G37*
G36*
X185497D02*
X184503D01*
X183584Y212119D01*
X182881Y211416D01*
X182500Y210497D01*
Y209503D01*
X182881Y208584D01*
X183584Y207881D01*
X184503Y207500D01*
X185497D01*
X186416Y207881D01*
X187119Y208584D01*
X187500Y209503D01*
Y210497D01*
X187119Y211416D01*
X186416Y212119D01*
X185497Y212500D01*
D02*
G37*
G36*
X310497Y207500D02*
X309503D01*
X308584Y207119D01*
X307881Y206416D01*
X307500Y205497D01*
Y204503D01*
X307881Y203584D01*
X308584Y202881D01*
X309503Y202500D01*
X310497D01*
X311416Y202881D01*
X312119Y203584D01*
X312500Y204503D01*
Y205497D01*
X312119Y206416D01*
X311416Y207119D01*
X310497Y207500D01*
D02*
G37*
G36*
X300497D02*
X299503D01*
X298584Y207119D01*
X297881Y206416D01*
X297500Y205497D01*
Y204503D01*
X297881Y203584D01*
X298584Y202881D01*
X299503Y202500D01*
X300497D01*
X301416Y202881D01*
X302119Y203584D01*
X302500Y204503D01*
Y205497D01*
X302119Y206416D01*
X301416Y207119D01*
X300497Y207500D01*
D02*
G37*
G36*
X153359Y202869D02*
X151387D01*
Y200700D01*
X153359D01*
Y202869D01*
D02*
G37*
G36*
X208146Y243479D02*
X207589D01*
X207074Y243266D01*
X206680Y242872D01*
X206467Y242358D01*
Y241801D01*
X206680Y241286D01*
X207074Y240893D01*
X207589Y240679D01*
X207970D01*
X210082Y238566D01*
Y203826D01*
X209584Y203619D01*
X208881Y202916D01*
X208500Y201997D01*
Y201003D01*
X208881Y200084D01*
X209584Y199381D01*
X210503Y199000D01*
X211497D01*
X212416Y199381D01*
X213119Y200084D01*
X213500Y201003D01*
Y201997D01*
X213119Y202916D01*
X212416Y203619D01*
X211918Y203826D01*
Y238947D01*
X211848Y239298D01*
X211649Y239596D01*
X209267Y241977D01*
Y242358D01*
X209054Y242872D01*
X208660Y243266D01*
X208146Y243479D01*
D02*
G37*
G36*
X248428Y241400D02*
X247871D01*
X247357Y241187D01*
X246963Y240793D01*
X246750Y240279D01*
Y239721D01*
X246963Y239207D01*
X247357Y238813D01*
X247871Y238600D01*
X248252D01*
X250232Y236620D01*
Y203181D01*
X250084Y203119D01*
X249381Y202416D01*
X249000Y201497D01*
Y200503D01*
X249381Y199584D01*
X250084Y198881D01*
X251003Y198500D01*
X251997D01*
X252916Y198881D01*
X253619Y199584D01*
X254000Y200503D01*
Y201497D01*
X253619Y202416D01*
X252916Y203119D01*
X252068Y203471D01*
Y237000D01*
X251998Y237351D01*
X251799Y237649D01*
X249550Y239898D01*
Y240279D01*
X249337Y240793D01*
X248943Y241187D01*
X248428Y241400D01*
D02*
G37*
G36*
X289279Y230459D02*
X288721D01*
X288207Y230246D01*
X287813Y229852D01*
X287600Y229338D01*
Y228781D01*
X287813Y228266D01*
X288082Y227997D01*
Y200880D01*
X285496Y198293D01*
X284997Y198500D01*
X284003D01*
X283084Y198119D01*
X282381Y197416D01*
X282000Y196497D01*
Y195503D01*
X282381Y194584D01*
X283084Y193881D01*
X284003Y193500D01*
X284997D01*
X285916Y193881D01*
X286619Y194584D01*
X287000Y195503D01*
Y196497D01*
X286793Y196996D01*
X289649Y199851D01*
X289848Y200149D01*
X289918Y200500D01*
Y227997D01*
X290187Y228266D01*
X290400Y228781D01*
Y229338D01*
X290187Y229852D01*
X289793Y230246D01*
X289279Y230459D01*
D02*
G37*
G36*
X310497Y197500D02*
X309503D01*
X308584Y197119D01*
X307881Y196416D01*
X307500Y195497D01*
Y194503D01*
X307881Y193584D01*
X308584Y192881D01*
X309503Y192500D01*
X310497D01*
X311416Y192881D01*
X312119Y193584D01*
X312500Y194503D01*
Y195497D01*
X312119Y196416D01*
X311416Y197119D01*
X310497Y197500D01*
D02*
G37*
G36*
X300497D02*
X299503D01*
X298584Y197119D01*
X297881Y196416D01*
X297500Y195497D01*
Y194503D01*
X297881Y193584D01*
X298584Y192881D01*
X299503Y192500D01*
X300497D01*
X301416Y192881D01*
X302119Y193584D01*
X302500Y194503D01*
Y195497D01*
X302119Y196416D01*
X301416Y197119D01*
X300497Y197500D01*
D02*
G37*
G36*
X315497Y182500D02*
X314503D01*
X313584Y182119D01*
X312881Y181416D01*
X312500Y180497D01*
Y179503D01*
X312881Y178584D01*
X313584Y177881D01*
X314503Y177500D01*
X315497D01*
X316416Y177881D01*
X317119Y178584D01*
X317500Y179503D01*
Y180497D01*
X317119Y181416D01*
X316416Y182119D01*
X315497Y182500D01*
D02*
G37*
G36*
X300497D02*
X299503D01*
X298584Y182119D01*
X297881Y181416D01*
X297500Y180497D01*
Y179503D01*
X297881Y178584D01*
X298584Y177881D01*
X299503Y177500D01*
X300497D01*
X301416Y177881D01*
X302119Y178584D01*
X302500Y179503D01*
Y180497D01*
X302119Y181416D01*
X301416Y182119D01*
X300497Y182500D01*
D02*
G37*
G36*
X170579Y253368D02*
X169421D01*
X168302Y253069D01*
X167298Y252489D01*
X166479Y251670D01*
X165900Y250667D01*
X165600Y249548D01*
Y248389D01*
X165900Y247270D01*
X166479Y246267D01*
X167298Y245448D01*
X168302Y244868D01*
X169421Y244568D01*
X170579D01*
X171698Y244868D01*
X172398Y245272D01*
X174082Y243588D01*
Y205559D01*
X174152Y205208D01*
X174351Y204910D01*
X202159Y177102D01*
Y176722D01*
X202372Y176207D01*
X202766Y175813D01*
X203281Y175600D01*
X203837D01*
X203866Y175612D01*
X204527Y174951D01*
X204824Y174752D01*
X205175Y174682D01*
X275325D01*
X275418Y174701D01*
X275662Y174600D01*
X276219D01*
X276734Y174813D01*
X277128Y175207D01*
X277341Y175722D01*
Y176278D01*
X277128Y176793D01*
X276734Y177187D01*
X276219Y177400D01*
X275662D01*
X275148Y177187D01*
X274754Y176793D01*
X274640Y176518D01*
X205556D01*
X204959Y177114D01*
Y177278D01*
X204746Y177793D01*
X204352Y178187D01*
X203837Y178400D01*
X203457D01*
X175918Y205939D01*
Y243969D01*
X175848Y244320D01*
X175649Y244617D01*
X173696Y246570D01*
X174100Y247270D01*
X174400Y248389D01*
Y249548D01*
X174100Y250667D01*
X173521Y251670D01*
X172702Y252489D01*
X171698Y253069D01*
X170579Y253368D01*
D02*
G37*
G36*
X315497Y172500D02*
X314503D01*
X313584Y172119D01*
X312881Y171416D01*
X312500Y170497D01*
Y169503D01*
X312881Y168584D01*
X313584Y167881D01*
X314503Y167500D01*
X315497D01*
X316416Y167881D01*
X317119Y168584D01*
X317500Y169503D01*
Y170497D01*
X317119Y171416D01*
X316416Y172119D01*
X315497Y172500D01*
D02*
G37*
G36*
X300497D02*
X299503D01*
X298584Y172119D01*
X297881Y171416D01*
X297500Y170497D01*
Y169503D01*
X297881Y168584D01*
X298584Y167881D01*
X299503Y167500D01*
X300497D01*
X301416Y167881D01*
X302119Y168584D01*
X302500Y169503D01*
Y170497D01*
X302119Y171416D01*
X301416Y172119D01*
X300497Y172500D01*
D02*
G37*
G36*
X160025Y172313D02*
X159319Y172220D01*
X158662Y171948D01*
X158097Y171515D01*
X157664Y170950D01*
X157392Y170293D01*
X157299Y169587D01*
X157392Y168882D01*
X157664Y168224D01*
X158097Y167660D01*
X158662Y167226D01*
X159107Y167042D01*
Y164818D01*
X157688D01*
Y162846D01*
X162425D01*
Y164818D01*
X160942D01*
Y167042D01*
X161388Y167226D01*
X161952Y167660D01*
X162386Y168224D01*
X162658Y168882D01*
X162751Y169587D01*
X162658Y170293D01*
X162386Y170950D01*
X161952Y171515D01*
X161388Y171948D01*
X160730Y172220D01*
X160025Y172313D01*
D02*
G37*
G36*
X308019Y170443D02*
X306981D01*
X305978Y170175D01*
X305079Y169655D01*
X304345Y168921D01*
X303825Y168022D01*
X303557Y167019D01*
Y165981D01*
X303825Y164978D01*
X304345Y164079D01*
X305079Y163345D01*
X305978Y162825D01*
X306981Y162557D01*
X308019D01*
X309022Y162825D01*
X309921Y163345D01*
X310655Y164079D01*
X311175Y164978D01*
X311443Y165981D01*
Y167019D01*
X311175Y168022D01*
X310655Y168921D01*
X309921Y169655D01*
X309022Y170175D01*
X308019Y170443D01*
D02*
G37*
G36*
X-2557D02*
X-10443D01*
Y162557D01*
X-2557D01*
Y170443D01*
D02*
G37*
G36*
X165803Y170987D02*
X165246D01*
X164732Y170774D01*
X164338Y170380D01*
X164125Y169866D01*
Y169309D01*
X164338Y168794D01*
X164607Y168525D01*
Y164818D01*
X163188D01*
Y160475D01*
X167925D01*
Y164818D01*
X166442D01*
Y168525D01*
X166712Y168794D01*
X166925Y169309D01*
Y169866D01*
X166712Y170380D01*
X166318Y170774D01*
X165803Y170987D01*
D02*
G37*
G36*
X162425Y162446D02*
X160256D01*
Y160475D01*
X162425D01*
Y162446D01*
D02*
G37*
G36*
X159856D02*
X157688D01*
Y160475D01*
X159856D01*
Y162446D01*
D02*
G37*
G36*
X190497Y157500D02*
X189503D01*
X188584Y157119D01*
X187881Y156416D01*
X187750Y156101D01*
X187250D01*
X187119Y156416D01*
X186416Y157119D01*
X185497Y157500D01*
X184503D01*
X183584Y157119D01*
X182881Y156416D01*
X182500Y155497D01*
Y154503D01*
X182881Y153584D01*
X183584Y152881D01*
X184503Y152500D01*
X185497D01*
X186416Y152881D01*
X187119Y153584D01*
X187250Y153899D01*
X187750D01*
X187881Y153584D01*
X188584Y152881D01*
X189503Y152500D01*
X190497D01*
X191416Y152881D01*
X192119Y153584D01*
X192500Y154503D01*
Y155497D01*
X192119Y156416D01*
X191416Y157119D01*
X190497Y157500D01*
D02*
G37*
G36*
X308019Y160443D02*
X306981D01*
X305978Y160175D01*
X305079Y159655D01*
X304345Y158921D01*
X303825Y158022D01*
X303557Y157019D01*
Y155981D01*
X303825Y154978D01*
X304345Y154079D01*
X305079Y153345D01*
X305978Y152825D01*
X306981Y152557D01*
X308019D01*
X309022Y152825D01*
X309921Y153345D01*
X310655Y154079D01*
X311175Y154978D01*
X311443Y155981D01*
Y157019D01*
X311175Y158022D01*
X310655Y158921D01*
X309921Y159655D01*
X309022Y160175D01*
X308019Y160443D01*
D02*
G37*
G36*
X-5981D02*
X-7019D01*
X-8022Y160175D01*
X-8921Y159655D01*
X-9655Y158921D01*
X-10175Y158022D01*
X-10443Y157019D01*
Y155981D01*
X-10175Y154978D01*
X-9655Y154079D01*
X-8921Y153345D01*
X-8022Y152825D01*
X-7019Y152557D01*
X-5981D01*
X-4978Y152825D01*
X-4079Y153345D01*
X-3345Y154079D01*
X-2825Y154978D01*
X-2557Y155981D01*
Y157019D01*
X-2825Y158022D01*
X-3345Y158921D01*
X-4079Y159655D01*
X-4978Y160175D01*
X-5981Y160443D01*
D02*
G37*
G36*
X290497Y157500D02*
X289503D01*
X288584Y157119D01*
X287881Y156416D01*
X287500Y155497D01*
Y154503D01*
X287881Y153584D01*
X288584Y152881D01*
X289503Y152500D01*
X290497D01*
X291416Y152881D01*
X292119Y153584D01*
X292500Y154503D01*
Y155497D01*
X292119Y156416D01*
X291416Y157119D01*
X290497Y157500D01*
D02*
G37*
G36*
X280497D02*
X279503D01*
X278584Y157119D01*
X277881Y156416D01*
X277500Y155497D01*
Y154503D01*
X277881Y153584D01*
X278584Y152881D01*
X279503Y152500D01*
X280497D01*
X281416Y152881D01*
X282119Y153584D01*
X282500Y154503D01*
Y155497D01*
X282119Y156416D01*
X281416Y157119D01*
X280497Y157500D01*
D02*
G37*
G36*
X270497D02*
X269503D01*
X268584Y157119D01*
X267881Y156416D01*
X267500Y155497D01*
Y154503D01*
X267881Y153584D01*
X268584Y152881D01*
X269503Y152500D01*
X270497D01*
X271416Y152881D01*
X272119Y153584D01*
X272500Y154503D01*
Y155497D01*
X272119Y156416D01*
X271416Y157119D01*
X270497Y157500D01*
D02*
G37*
G36*
X260497D02*
X259503D01*
X258584Y157119D01*
X257881Y156416D01*
X257500Y155497D01*
Y154503D01*
X257881Y153584D01*
X258584Y152881D01*
X259503Y152500D01*
X260497D01*
X261416Y152881D01*
X262119Y153584D01*
X262500Y154503D01*
Y155497D01*
X262119Y156416D01*
X261416Y157119D01*
X260497Y157500D01*
D02*
G37*
G36*
X250497D02*
X249503D01*
X248584Y157119D01*
X247881Y156416D01*
X247500Y155497D01*
Y154503D01*
X247881Y153584D01*
X248584Y152881D01*
X249503Y152500D01*
X250497D01*
X251416Y152881D01*
X252119Y153584D01*
X252500Y154503D01*
Y155497D01*
X252119Y156416D01*
X251416Y157119D01*
X250497Y157500D01*
D02*
G37*
G36*
X220497D02*
X219503D01*
X218584Y157119D01*
X217881Y156416D01*
X217500Y155497D01*
Y154503D01*
X217881Y153584D01*
X218584Y152881D01*
X219503Y152500D01*
X220497D01*
X221416Y152881D01*
X222119Y153584D01*
X222500Y154503D01*
Y155497D01*
X222119Y156416D01*
X221416Y157119D01*
X220497Y157500D01*
D02*
G37*
G36*
X210497D02*
X209503D01*
X208584Y157119D01*
X207881Y156416D01*
X207500Y155497D01*
Y154503D01*
X207881Y153584D01*
X208584Y152881D01*
X209503Y152500D01*
X210497D01*
X211416Y152881D01*
X212119Y153584D01*
X212500Y154503D01*
Y155497D01*
X212119Y156416D01*
X211416Y157119D01*
X210497Y157500D01*
D02*
G37*
G36*
X200497D02*
X199503D01*
X198584Y157119D01*
X197881Y156416D01*
X197500Y155497D01*
Y154503D01*
X197881Y153584D01*
X198584Y152881D01*
X199503Y152500D01*
X200497D01*
X201416Y152881D01*
X202119Y153584D01*
X202500Y154503D01*
Y155497D01*
X202119Y156416D01*
X201416Y157119D01*
X200497Y157500D01*
D02*
G37*
G36*
X160500Y149316D02*
X160188Y149254D01*
X159923Y149077D01*
X159746Y148812D01*
X159711Y148632D01*
X159565Y148415D01*
X159503Y148102D01*
X159104Y147869D01*
X159050D01*
Y145700D01*
X161219D01*
Y147869D01*
X161219Y147869D01*
X161237Y147947D01*
X161254Y147971D01*
X161316Y148283D01*
X161316Y148284D01*
X161316Y148328D01*
Y148500D01*
X161254Y148812D01*
X161077Y149077D01*
X160812Y149254D01*
X160500Y149316D01*
D02*
G37*
G36*
X295497Y152500D02*
X294503D01*
X293584Y152119D01*
X292881Y151416D01*
X292500Y150497D01*
Y149503D01*
X292881Y148584D01*
X293584Y147881D01*
X294503Y147500D01*
X295497D01*
X296416Y147881D01*
X297119Y148584D01*
X297500Y149503D01*
Y150497D01*
X297119Y151416D01*
X296416Y152119D01*
X295497Y152500D01*
D02*
G37*
G36*
X285497D02*
X284503D01*
X283584Y152119D01*
X282881Y151416D01*
X282500Y150497D01*
Y149503D01*
X282881Y148584D01*
X283584Y147881D01*
X284503Y147500D01*
X285497D01*
X286416Y147881D01*
X287119Y148584D01*
X287500Y149503D01*
Y150497D01*
X287119Y151416D01*
X286416Y152119D01*
X285497Y152500D01*
D02*
G37*
G36*
X275497D02*
X274503D01*
X273584Y152119D01*
X272881Y151416D01*
X272500Y150497D01*
Y149503D01*
X272881Y148584D01*
X273584Y147881D01*
X274503Y147500D01*
X275497D01*
X276416Y147881D01*
X277119Y148584D01*
X277500Y149503D01*
Y150497D01*
X277119Y151416D01*
X276416Y152119D01*
X275497Y152500D01*
D02*
G37*
G36*
X265497D02*
X264503D01*
X263584Y152119D01*
X262881Y151416D01*
X262500Y150497D01*
Y149503D01*
X262881Y148584D01*
X263584Y147881D01*
X264503Y147500D01*
X265497D01*
X266416Y147881D01*
X267119Y148584D01*
X267500Y149503D01*
Y150497D01*
X267119Y151416D01*
X266416Y152119D01*
X265497Y152500D01*
D02*
G37*
G36*
X255497D02*
X254503D01*
X253584Y152119D01*
X252881Y151416D01*
X252500Y150497D01*
Y149503D01*
X252881Y148584D01*
X253584Y147881D01*
X254503Y147500D01*
X255497D01*
X256416Y147881D01*
X257119Y148584D01*
X257500Y149503D01*
Y150497D01*
X257119Y151416D01*
X256416Y152119D01*
X255497Y152500D01*
D02*
G37*
G36*
X245497D02*
X244503D01*
X243584Y152119D01*
X242881Y151416D01*
X242500Y150497D01*
Y149503D01*
X242881Y148584D01*
X243584Y147881D01*
X244503Y147500D01*
X245497D01*
X246416Y147881D01*
X247119Y148584D01*
X247500Y149503D01*
Y150497D01*
X247119Y151416D01*
X246416Y152119D01*
X245497Y152500D01*
D02*
G37*
G36*
X235497D02*
X234503D01*
X233584Y152119D01*
X232881Y151416D01*
X232500Y150497D01*
Y149503D01*
X232881Y148584D01*
X233584Y147881D01*
X234503Y147500D01*
X235497D01*
X236416Y147881D01*
X237119Y148584D01*
X237500Y149503D01*
Y150497D01*
X237119Y151416D01*
X236416Y152119D01*
X235497Y152500D01*
D02*
G37*
G36*
X215497D02*
X214503D01*
X213584Y152119D01*
X212881Y151416D01*
X212500Y150497D01*
Y149503D01*
X212881Y148584D01*
X213584Y147881D01*
X214503Y147500D01*
X215497D01*
X216416Y147881D01*
X217119Y148584D01*
X217500Y149503D01*
Y150497D01*
X217119Y151416D01*
X216416Y152119D01*
X215497Y152500D01*
D02*
G37*
G36*
X195497D02*
X194503D01*
X193584Y152119D01*
X192881Y151416D01*
X192500Y150497D01*
Y149503D01*
X192881Y148584D01*
X193584Y147881D01*
X194503Y147500D01*
X195497D01*
X196416Y147881D01*
X197119Y148584D01*
X197500Y149503D01*
Y150497D01*
X197119Y151416D01*
X196416Y152119D01*
X195497Y152500D01*
D02*
G37*
G36*
X311443Y150443D02*
X303557D01*
Y142557D01*
X311443D01*
Y150443D01*
D02*
G37*
G36*
X-5981D02*
X-7019D01*
X-8022Y150175D01*
X-8921Y149655D01*
X-9655Y148921D01*
X-10175Y148022D01*
X-10443Y147019D01*
Y145981D01*
X-10175Y144978D01*
X-9655Y144079D01*
X-8921Y143345D01*
X-8022Y142825D01*
X-7019Y142557D01*
X-5981D01*
X-4978Y142825D01*
X-4079Y143345D01*
X-3345Y144079D01*
X-2825Y144978D01*
X-2557Y145981D01*
Y147019D01*
X-2825Y148022D01*
X-3345Y148921D01*
X-4079Y149655D01*
X-4978Y150175D01*
X-5981Y150443D01*
D02*
G37*
G36*
X167925Y159700D02*
X163188D01*
Y155357D01*
X163806D01*
Y150719D01*
X167389D01*
X168747Y149362D01*
Y140248D01*
X168247Y140149D01*
X168187Y140293D01*
X167793Y140687D01*
X167279Y140900D01*
X166721D01*
X166668Y140878D01*
X166210Y141229D01*
X166151Y141529D01*
X165900Y141904D01*
X165900Y141904D01*
Y143131D01*
X167518D01*
Y147869D01*
X162781D01*
Y143627D01*
X162281Y143420D01*
X162005Y143695D01*
X162005Y143695D01*
X161219Y144482D01*
Y145300D01*
X158850D01*
Y145500D01*
X158650D01*
Y147869D01*
X156482Y147869D01*
X156316Y148300D01*
Y148374D01*
X158660Y150719D01*
X162244D01*
Y155357D01*
X162425D01*
Y159700D01*
X157688D01*
Y155456D01*
X157507D01*
Y151872D01*
X154923Y149289D01*
X154746Y149024D01*
X154684Y148712D01*
X154684Y148712D01*
Y139072D01*
X154684Y139072D01*
X154725Y138868D01*
X154530Y138510D01*
X154407Y138368D01*
X153816D01*
Y146000D01*
X153754Y146312D01*
X153577Y146577D01*
X153312Y146754D01*
X153000Y146816D01*
X152688Y146754D01*
X152423Y146577D01*
X152246Y146312D01*
X152184Y146000D01*
Y138368D01*
X151387D01*
Y136200D01*
X153559D01*
Y135800D01*
X151387D01*
Y133632D01*
X151387D01*
X151387Y133369D01*
X151387D01*
Y128631D01*
X155731D01*
Y130582D01*
X158941D01*
X159149Y130271D01*
X159524Y130020D01*
X159966Y129932D01*
X160408Y130020D01*
X160782Y130271D01*
X160968Y130548D01*
X161193Y130593D01*
X161298D01*
X161523Y130548D01*
X161708Y130271D01*
X162083Y130020D01*
X162525Y129932D01*
X162967Y130020D01*
X163341Y130271D01*
X163526Y130548D01*
X163752Y130593D01*
X163856D01*
X164082Y130548D01*
X164267Y130271D01*
X164642Y130020D01*
X165084Y129932D01*
X165526Y130020D01*
X165900Y130271D01*
X166151Y130645D01*
X166239Y131087D01*
Y133144D01*
X167316D01*
X167316Y133144D01*
X167629Y133206D01*
X167893Y133383D01*
X170139Y135629D01*
X170139Y135629D01*
X170316Y135893D01*
X170378Y136205D01*
Y149699D01*
X170378Y149699D01*
X170316Y150012D01*
X170139Y150276D01*
X170139Y150276D01*
X168543Y151872D01*
Y155456D01*
X167925D01*
Y159700D01*
D02*
G37*
G36*
X315497Y137500D02*
X314503D01*
X313584Y137119D01*
X312881Y136416D01*
X312500Y135497D01*
Y134503D01*
X312881Y133584D01*
X313584Y132881D01*
X314503Y132500D01*
X315497D01*
X316416Y132881D01*
X317119Y133584D01*
X317500Y134503D01*
Y135497D01*
X317119Y136416D01*
X316416Y137119D01*
X315497Y137500D01*
D02*
G37*
G36*
X300497D02*
X299503D01*
X298584Y137119D01*
X297881Y136416D01*
X297500Y135497D01*
Y134503D01*
X297881Y133584D01*
X298584Y132881D01*
X299503Y132500D01*
X300497D01*
X301416Y132881D01*
X302119Y133584D01*
X302500Y134503D01*
Y135497D01*
X302119Y136416D01*
X301416Y137119D01*
X300497Y137500D01*
D02*
G37*
G36*
X140579Y253368D02*
X139421D01*
X138302Y253069D01*
X137298Y252489D01*
X136479Y251670D01*
X135900Y250667D01*
X135600Y249548D01*
Y248389D01*
X135900Y247270D01*
X136479Y246267D01*
X137298Y245448D01*
X138302Y244868D01*
X139421Y244568D01*
X140082D01*
Y168205D01*
X140152Y167854D01*
X140351Y167556D01*
X147523Y160384D01*
Y138368D01*
X146269D01*
Y133632D01*
X146269D01*
X146269Y133369D01*
X146269D01*
Y128631D01*
X150613D01*
Y133369D01*
X150613D01*
X150613Y133632D01*
X150613D01*
Y138368D01*
X149359D01*
Y160764D01*
X149289Y161115D01*
X149090Y161413D01*
X141918Y168585D01*
Y244995D01*
X142702Y245448D01*
X143521Y246267D01*
X144100Y247270D01*
X144400Y248389D01*
Y249548D01*
X144100Y250667D01*
X143521Y251670D01*
X142702Y252489D01*
X141698Y253069D01*
X140579Y253368D01*
D02*
G37*
G36*
X315497Y127500D02*
X314503D01*
X313584Y127119D01*
X312881Y126416D01*
X312500Y125497D01*
Y124503D01*
X312881Y123584D01*
X313584Y122881D01*
X314503Y122500D01*
X315497D01*
X316416Y122881D01*
X317119Y123584D01*
X317500Y124503D01*
Y125497D01*
X317119Y126416D01*
X316416Y127119D01*
X315497Y127500D01*
D02*
G37*
G36*
X300497D02*
X299503D01*
X298584Y127119D01*
X297881Y126416D01*
X297500Y125497D01*
Y124503D01*
X297881Y123584D01*
X298584Y122881D01*
X299503Y122500D01*
X300497D01*
X301416Y122881D01*
X302119Y123584D01*
X302500Y124503D01*
Y125497D01*
X302119Y126416D01*
X301416Y127119D01*
X300497Y127500D01*
D02*
G37*
G36*
X315497Y117500D02*
X314503D01*
X313584Y117119D01*
X312881Y116416D01*
X312500Y115497D01*
Y114503D01*
X312881Y113584D01*
X313584Y112881D01*
X314503Y112500D01*
X315497D01*
X316416Y112881D01*
X317119Y113584D01*
X317500Y114503D01*
Y115497D01*
X317119Y116416D01*
X316416Y117119D01*
X315497Y117500D01*
D02*
G37*
G36*
X300497D02*
X299503D01*
X298584Y117119D01*
X297881Y116416D01*
X297500Y115497D01*
Y114503D01*
X297881Y113584D01*
X298584Y112881D01*
X299503Y112500D01*
X300497D01*
X301416Y112881D01*
X302119Y113584D01*
X302500Y114503D01*
Y115497D01*
X302119Y116416D01*
X301416Y117119D01*
X300497Y117500D01*
D02*
G37*
G36*
X315497Y107500D02*
X314503D01*
X313584Y107119D01*
X312881Y106416D01*
X312500Y105497D01*
Y104503D01*
X312881Y103584D01*
X313584Y102881D01*
X314503Y102500D01*
X315497D01*
X316416Y102881D01*
X317119Y103584D01*
X317500Y104503D01*
Y105497D01*
X317119Y106416D01*
X316416Y107119D01*
X315497Y107500D01*
D02*
G37*
G36*
X300497D02*
X299503D01*
X298584Y107119D01*
X297881Y106416D01*
X297500Y105497D01*
Y104503D01*
X297881Y103584D01*
X298584Y102881D01*
X299503Y102500D01*
X300497D01*
X301416Y102881D01*
X302119Y103584D01*
X302500Y104503D01*
Y105497D01*
X302119Y106416D01*
X301416Y107119D01*
X300497Y107500D01*
D02*
G37*
G36*
X159965Y107949D02*
X159259Y107856D01*
X158602Y107584D01*
X158037Y107151D01*
X157604Y106586D01*
X157332Y105929D01*
X157239Y105223D01*
X157332Y104517D01*
X157604Y103860D01*
X158037Y103295D01*
X158602Y102862D01*
X158934Y102725D01*
Y101364D01*
X157483D01*
Y99392D01*
X162220D01*
Y101364D01*
X160769D01*
Y102631D01*
X161328Y102862D01*
X161892Y103295D01*
X162326Y103860D01*
X162598Y104517D01*
X162691Y105223D01*
X162598Y105929D01*
X162326Y106586D01*
X161892Y107151D01*
X161328Y107584D01*
X160670Y107856D01*
X159965Y107949D01*
D02*
G37*
G36*
X165530Y106586D02*
X164973D01*
X164459Y106373D01*
X164065Y105979D01*
X163852Y105464D01*
Y104907D01*
X164065Y104393D01*
X164334Y104124D01*
Y101364D01*
X162983D01*
Y97021D01*
X167720D01*
Y101364D01*
X166169D01*
Y104124D01*
X166439Y104393D01*
X166652Y104907D01*
Y105464D01*
X166439Y105979D01*
X166045Y106373D01*
X165530Y106586D01*
D02*
G37*
G36*
X162220Y98992D02*
X160052D01*
Y97021D01*
X162220D01*
Y98992D01*
D02*
G37*
G36*
X159652D02*
X157483D01*
Y97021D01*
X159652D01*
Y98992D01*
D02*
G37*
G36*
X315497Y97500D02*
X314503D01*
X313584Y97119D01*
X312881Y96416D01*
X312500Y95497D01*
Y94503D01*
X312881Y93584D01*
X313584Y92881D01*
X314503Y92500D01*
X315497D01*
X316416Y92881D01*
X317119Y93584D01*
X317500Y94503D01*
Y95497D01*
X317119Y96416D01*
X316416Y97119D01*
X315497Y97500D01*
D02*
G37*
G36*
X300497D02*
X299503D01*
X298584Y97119D01*
X297881Y96416D01*
X297500Y95497D01*
Y94503D01*
X297881Y93584D01*
X298584Y92881D01*
X299503Y92500D01*
X300497D01*
X301416Y92881D01*
X302119Y93584D01*
X302500Y94503D01*
Y95497D01*
X302119Y96416D01*
X301416Y97119D01*
X300497Y97500D01*
D02*
G37*
G36*
X280497Y92500D02*
X279503D01*
X278584Y92119D01*
X277881Y91416D01*
X277500Y90497D01*
Y89503D01*
X277881Y88584D01*
X278584Y87881D01*
X279503Y87500D01*
X280497D01*
X281416Y87881D01*
X282119Y88584D01*
X282500Y89503D01*
Y90497D01*
X282119Y91416D01*
X281416Y92119D01*
X280497Y92500D01*
D02*
G37*
G36*
X250497D02*
X249503D01*
X248584Y92119D01*
X247881Y91416D01*
X247500Y90497D01*
Y89503D01*
X247881Y88584D01*
X248584Y87881D01*
X249503Y87500D01*
X250497D01*
X251416Y87881D01*
X252119Y88584D01*
X252500Y89503D01*
Y90497D01*
X252119Y91416D01*
X251416Y92119D01*
X250497Y92500D01*
D02*
G37*
G36*
X215497D02*
X214503D01*
X213584Y92119D01*
X212881Y91416D01*
X212500Y90497D01*
Y89503D01*
X212881Y88584D01*
X213584Y87881D01*
X214503Y87500D01*
X215497D01*
X216416Y87881D01*
X217119Y88584D01*
X217500Y89503D01*
Y90497D01*
X217119Y91416D01*
X216416Y92119D01*
X215497Y92500D01*
D02*
G37*
G36*
X190497D02*
X189503D01*
X188584Y92119D01*
X187881Y91416D01*
X187500Y90497D01*
Y89503D01*
X187881Y88584D01*
X188584Y87881D01*
X189503Y87500D01*
X190497D01*
X191416Y87881D01*
X192119Y88584D01*
X192500Y89503D01*
Y90497D01*
X192119Y91416D01*
X191416Y92119D01*
X190497Y92500D01*
D02*
G37*
G36*
X315497Y87500D02*
X314503D01*
X313584Y87119D01*
X312881Y86416D01*
X312500Y85497D01*
Y84503D01*
X312881Y83584D01*
X313584Y82881D01*
X314503Y82500D01*
X315497D01*
X316416Y82881D01*
X317119Y83584D01*
X317500Y84503D01*
Y85497D01*
X317119Y86416D01*
X316416Y87119D01*
X315497Y87500D01*
D02*
G37*
G36*
X300497D02*
X299503D01*
X298584Y87119D01*
X297881Y86416D01*
X297500Y85497D01*
Y84503D01*
X297881Y83584D01*
X298584Y82881D01*
X299503Y82500D01*
X300497D01*
X301416Y82881D01*
X302119Y83584D01*
X302500Y84503D01*
Y85497D01*
X302119Y86416D01*
X301416Y87119D01*
X300497Y87500D01*
D02*
G37*
G36*
X265497D02*
X264503D01*
X263584Y87119D01*
X262881Y86416D01*
X262500Y85497D01*
Y84503D01*
X262881Y83584D01*
X263584Y82881D01*
X264503Y82500D01*
X265497D01*
X266416Y82881D01*
X267119Y83584D01*
X267500Y84503D01*
Y85497D01*
X267119Y86416D01*
X266416Y87119D01*
X265497Y87500D01*
D02*
G37*
G36*
X230497D02*
X229503D01*
X228584Y87119D01*
X227881Y86416D01*
X227500Y85497D01*
Y84503D01*
X227881Y83584D01*
X228584Y82881D01*
X229503Y82500D01*
X230497D01*
X231416Y82881D01*
X232119Y83584D01*
X232500Y84503D01*
Y85497D01*
X232119Y86416D01*
X231416Y87119D01*
X230497Y87500D01*
D02*
G37*
G36*
X200497D02*
X199503D01*
X198584Y87119D01*
X197881Y86416D01*
X197500Y85497D01*
Y84503D01*
X197881Y83584D01*
X198584Y82881D01*
X199503Y82500D01*
X200497D01*
X201416Y82881D01*
X202119Y83584D01*
X202500Y84503D01*
Y85497D01*
X202119Y86416D01*
X201416Y87119D01*
X200497Y87500D01*
D02*
G37*
G36*
X270579Y64400D02*
X269421D01*
X268302Y64100D01*
X267298Y63521D01*
X266479Y62702D01*
X265900Y61698D01*
X265600Y60579D01*
Y59421D01*
X265900Y58302D01*
X266479Y57298D01*
X267298Y56479D01*
X268302Y55900D01*
X269421Y55600D01*
X270579D01*
X271698Y55900D01*
X272702Y56479D01*
X273521Y57298D01*
X274100Y58302D01*
X274400Y59421D01*
Y60579D01*
X274100Y61698D01*
X273521Y62702D01*
X272702Y63521D01*
X271698Y64100D01*
X270579Y64400D01*
D02*
G37*
G36*
X300579Y64400D02*
X299421D01*
X298302Y64100D01*
X297298Y63521D01*
X296479Y62702D01*
X295900Y61698D01*
X295600Y60579D01*
Y59421D01*
X295900Y58302D01*
X296479Y57298D01*
X297298Y56479D01*
X298302Y55900D01*
X299421Y55600D01*
X300579D01*
X301698Y55900D01*
X302702Y56479D01*
X303521Y57298D01*
X304100Y58302D01*
X304400Y59421D01*
Y60579D01*
X304100Y61698D01*
X303521Y62702D01*
X302702Y63521D01*
X301698Y64100D01*
X300579Y64400D01*
D02*
G37*
G36*
X290579D02*
X289421D01*
X288302Y64100D01*
X287298Y63521D01*
X286479Y62702D01*
X285900Y61698D01*
X285600Y60579D01*
Y59421D01*
X285900Y58302D01*
X286479Y57298D01*
X287298Y56479D01*
X288302Y55900D01*
X289421Y55600D01*
X290579D01*
X291698Y55900D01*
X292702Y56479D01*
X293521Y57298D01*
X294100Y58302D01*
X294400Y59421D01*
Y60579D01*
X294100Y61698D01*
X293521Y62702D01*
X292702Y63521D01*
X291698Y64100D01*
X290579Y64400D01*
D02*
G37*
G36*
X280579D02*
X279421D01*
X278302Y64100D01*
X277298Y63521D01*
X276479Y62702D01*
X275900Y61698D01*
X275600Y60579D01*
Y59421D01*
X275900Y58302D01*
X276479Y57298D01*
X277298Y56479D01*
X278302Y55900D01*
X279421Y55600D01*
X280579D01*
X281698Y55900D01*
X282702Y56479D01*
X283521Y57298D01*
X284100Y58302D01*
X284400Y59421D01*
Y60579D01*
X284100Y61698D01*
X283521Y62702D01*
X282702Y63521D01*
X281698Y64100D01*
X280579Y64400D01*
D02*
G37*
G36*
X260579D02*
X259421D01*
X258302Y64100D01*
X257298Y63521D01*
X256479Y62702D01*
X255900Y61698D01*
X255600Y60579D01*
Y59421D01*
X255900Y58302D01*
X256479Y57298D01*
X257298Y56479D01*
X258302Y55900D01*
X259421Y55600D01*
X260579D01*
X261698Y55900D01*
X262702Y56479D01*
X263521Y57298D01*
X264100Y58302D01*
X264400Y59421D01*
Y60579D01*
X264100Y61698D01*
X263521Y62702D01*
X262702Y63521D01*
X261698Y64100D01*
X260579Y64400D01*
D02*
G37*
G36*
X250579D02*
X249421D01*
X248302Y64100D01*
X247298Y63521D01*
X246479Y62702D01*
X245900Y61698D01*
X245600Y60579D01*
Y59421D01*
X245900Y58302D01*
X246479Y57298D01*
X247298Y56479D01*
X248302Y55900D01*
X249421Y55600D01*
X250579D01*
X251698Y55900D01*
X252702Y56479D01*
X253521Y57298D01*
X254100Y58302D01*
X254400Y59421D01*
Y60579D01*
X254100Y61698D01*
X253521Y62702D01*
X252702Y63521D01*
X251698Y64100D01*
X250579Y64400D01*
D02*
G37*
G36*
X240579D02*
X239421D01*
X238302Y64100D01*
X237298Y63521D01*
X236479Y62702D01*
X235900Y61698D01*
X235600Y60579D01*
Y59421D01*
X235900Y58302D01*
X236479Y57298D01*
X237298Y56479D01*
X238302Y55900D01*
X239421Y55600D01*
X240579D01*
X241698Y55900D01*
X242702Y56479D01*
X243521Y57298D01*
X244100Y58302D01*
X244400Y59421D01*
Y60579D01*
X244100Y61698D01*
X243521Y62702D01*
X242702Y63521D01*
X241698Y64100D01*
X240579Y64400D01*
D02*
G37*
G36*
X230579D02*
X229421D01*
X228302Y64100D01*
X227298Y63521D01*
X226479Y62702D01*
X225900Y61698D01*
X225600Y60579D01*
Y59421D01*
X225900Y58302D01*
X226479Y57298D01*
X227298Y56479D01*
X228302Y55900D01*
X229421Y55600D01*
X230579D01*
X231698Y55900D01*
X232702Y56479D01*
X233521Y57298D01*
X234100Y58302D01*
X234400Y59421D01*
Y60579D01*
X234100Y61698D01*
X233521Y62702D01*
X232702Y63521D01*
X231698Y64100D01*
X230579Y64400D01*
D02*
G37*
G36*
X220579D02*
X219421D01*
X218302Y64100D01*
X217298Y63521D01*
X216479Y62702D01*
X215900Y61698D01*
X215600Y60579D01*
Y59421D01*
X215900Y58302D01*
X216479Y57298D01*
X217298Y56479D01*
X218302Y55900D01*
X219421Y55600D01*
X220579D01*
X221698Y55900D01*
X222702Y56479D01*
X223521Y57298D01*
X224100Y58302D01*
X224400Y59421D01*
Y60579D01*
X224100Y61698D01*
X223521Y62702D01*
X222702Y63521D01*
X221698Y64100D01*
X220579Y64400D01*
D02*
G37*
G36*
X210579D02*
X209421D01*
X208302Y64100D01*
X207298Y63521D01*
X206479Y62702D01*
X205900Y61698D01*
X205600Y60579D01*
Y59421D01*
X205900Y58302D01*
X206479Y57298D01*
X207298Y56479D01*
X208302Y55900D01*
X209421Y55600D01*
X210579D01*
X211698Y55900D01*
X212702Y56479D01*
X213521Y57298D01*
X214100Y58302D01*
X214400Y59421D01*
Y60579D01*
X214100Y61698D01*
X213521Y62702D01*
X212702Y63521D01*
X211698Y64100D01*
X210579Y64400D01*
D02*
G37*
G36*
X200579D02*
X199421D01*
X198302Y64100D01*
X197298Y63521D01*
X196479Y62702D01*
X195900Y61698D01*
X195600Y60579D01*
Y59421D01*
X195900Y58302D01*
X196479Y57298D01*
X197298Y56479D01*
X198302Y55900D01*
X199421Y55600D01*
X200579D01*
X201698Y55900D01*
X202702Y56479D01*
X203521Y57298D01*
X204100Y58302D01*
X204400Y59421D01*
Y60579D01*
X204100Y61698D01*
X203521Y62702D01*
X202702Y63521D01*
X201698Y64100D01*
X200579Y64400D01*
D02*
G37*
G36*
X190579D02*
X189421D01*
X188302Y64100D01*
X187298Y63521D01*
X186479Y62702D01*
X185900Y61698D01*
X185600Y60579D01*
Y59421D01*
X185900Y58302D01*
X186479Y57298D01*
X187298Y56479D01*
X188302Y55900D01*
X189421Y55600D01*
X190579D01*
X191698Y55900D01*
X192702Y56479D01*
X193521Y57298D01*
X194100Y58302D01*
X194400Y59421D01*
Y60579D01*
X194100Y61698D01*
X193521Y62702D01*
X192702Y63521D01*
X191698Y64100D01*
X190579Y64400D01*
D02*
G37*
G36*
X180579D02*
X179421D01*
X178302Y64100D01*
X177298Y63521D01*
X176479Y62702D01*
X175900Y61698D01*
X175600Y60579D01*
Y59421D01*
X175900Y58302D01*
X176479Y57298D01*
X177298Y56479D01*
X178302Y55900D01*
X179421Y55600D01*
X180579D01*
X181698Y55900D01*
X182702Y56479D01*
X183521Y57298D01*
X184100Y58302D01*
X184400Y59421D01*
Y60579D01*
X184100Y61698D01*
X183521Y62702D01*
X182702Y63521D01*
X181698Y64100D01*
X180579Y64400D01*
D02*
G37*
G36*
X170579D02*
X169421D01*
X168302Y64100D01*
X167298Y63521D01*
X166479Y62702D01*
X165900Y61698D01*
X165600Y60579D01*
Y59421D01*
X165900Y58302D01*
X166479Y57298D01*
X167298Y56479D01*
X168302Y55900D01*
X169421Y55600D01*
X170579D01*
X171698Y55900D01*
X172702Y56479D01*
X173521Y57298D01*
X174100Y58302D01*
X174400Y59421D01*
Y60579D01*
X174100Y61698D01*
X173521Y62702D01*
X172702Y63521D01*
X171698Y64100D01*
X170579Y64400D01*
D02*
G37*
G36*
X160579D02*
X159421D01*
X158302Y64100D01*
X157298Y63521D01*
X156479Y62702D01*
X155900Y61698D01*
X155600Y60579D01*
Y59421D01*
X155900Y58302D01*
X156479Y57298D01*
X157298Y56479D01*
X158302Y55900D01*
X159421Y55600D01*
X160579D01*
X161698Y55900D01*
X162702Y56479D01*
X163521Y57298D01*
X164100Y58302D01*
X164400Y59421D01*
Y60579D01*
X164100Y61698D01*
X163521Y62702D01*
X162702Y63521D01*
X161698Y64100D01*
X160579Y64400D01*
D02*
G37*
G36*
X140579D02*
X139421D01*
X138302Y64100D01*
X137298Y63521D01*
X136479Y62702D01*
X135900Y61698D01*
X135600Y60579D01*
Y59421D01*
X135900Y58302D01*
X136479Y57298D01*
X137298Y56479D01*
X138302Y55900D01*
X139421Y55600D01*
X140579D01*
X141698Y55900D01*
X142702Y56479D01*
X143521Y57298D01*
X144100Y58302D01*
X144400Y59421D01*
Y60579D01*
X144100Y61698D01*
X143521Y62702D01*
X142702Y63521D01*
X141698Y64100D01*
X140579Y64400D01*
D02*
G37*
G36*
X113778Y97900D02*
X113222D01*
X112707Y97687D01*
X112313Y97293D01*
X112100Y96779D01*
Y96254D01*
X108423Y92577D01*
X108246Y92312D01*
X108184Y92000D01*
X108184Y92000D01*
Y71000D01*
X108184Y71000D01*
X108246Y70688D01*
X108423Y70423D01*
X116357Y62490D01*
X115900Y61698D01*
X115600Y60579D01*
Y59421D01*
X115900Y58302D01*
X116479Y57298D01*
X117298Y56479D01*
X118302Y55900D01*
X119421Y55600D01*
X120579D01*
X121698Y55900D01*
X122702Y56479D01*
X123521Y57298D01*
X123684Y57581D01*
X124184Y57447D01*
Y55000D01*
X124184Y55000D01*
X124246Y54688D01*
X124423Y54423D01*
X126357Y52490D01*
X125900Y51698D01*
X125600Y50579D01*
Y49421D01*
X125900Y48302D01*
X126479Y47298D01*
X127298Y46479D01*
X128302Y45900D01*
X129421Y45600D01*
X130579D01*
X131698Y45900D01*
X132702Y46479D01*
X133521Y47298D01*
X134100Y48302D01*
X134400Y49421D01*
Y50579D01*
X134100Y51698D01*
X133521Y52702D01*
X132702Y53521D01*
X131698Y54100D01*
X130579Y54400D01*
X129421D01*
X128302Y54100D01*
X127510Y53643D01*
X125816Y55338D01*
Y57447D01*
X126316Y57582D01*
X126479Y57298D01*
X127298Y56479D01*
X128302Y55900D01*
X129421Y55600D01*
X130579D01*
X131698Y55900D01*
X132702Y56479D01*
X133521Y57298D01*
X134100Y58302D01*
X134400Y59421D01*
Y60579D01*
X134100Y61698D01*
X133521Y62702D01*
X132702Y63521D01*
X131698Y64100D01*
X130579Y64400D01*
X129421D01*
X128302Y64100D01*
X127298Y63521D01*
X126479Y62702D01*
X126316Y62419D01*
X125816Y62552D01*
Y63000D01*
X125816Y63000D01*
X125754Y63312D01*
X125577Y63577D01*
X111816Y77338D01*
Y88892D01*
X112669Y89744D01*
X112679Y89746D01*
X112943Y89923D01*
X113437Y90417D01*
X113962D01*
X114476Y90630D01*
X114870Y91024D01*
X115083Y91538D01*
Y92095D01*
X114870Y92610D01*
X114476Y93003D01*
X113962Y93217D01*
X113405D01*
X112890Y93003D01*
X112496Y92610D01*
X112283Y92095D01*
Y91570D01*
X111969Y91256D01*
X111958Y91254D01*
X111694Y91077D01*
X110423Y89806D01*
X110316Y89645D01*
X109816Y89744D01*
Y91662D01*
X113253Y95100D01*
X113778D01*
X114293Y95313D01*
X114687Y95707D01*
X114900Y96222D01*
Y96779D01*
X114687Y97293D01*
X114293Y97687D01*
X113778Y97900D01*
D02*
G37*
G36*
X110579Y64400D02*
X109421D01*
X108302Y64100D01*
X107298Y63521D01*
X106479Y62702D01*
X105900Y61698D01*
X105600Y60579D01*
Y59421D01*
X105900Y58302D01*
X106479Y57298D01*
X107298Y56479D01*
X108302Y55900D01*
X109421Y55600D01*
X110579D01*
X111698Y55900D01*
X112702Y56479D01*
X113521Y57298D01*
X114100Y58302D01*
X114400Y59421D01*
Y60579D01*
X114100Y61698D01*
X113521Y62702D01*
X112702Y63521D01*
X111698Y64100D01*
X110579Y64400D01*
D02*
G37*
G36*
X100579D02*
X99421D01*
X98302Y64100D01*
X97298Y63521D01*
X96479Y62702D01*
X95900Y61698D01*
X95600Y60579D01*
Y59421D01*
X95900Y58302D01*
X96479Y57298D01*
X97298Y56479D01*
X98302Y55900D01*
X99421Y55600D01*
X100579D01*
X101698Y55900D01*
X102702Y56479D01*
X103521Y57298D01*
X104100Y58302D01*
X104400Y59421D01*
Y60579D01*
X104100Y61698D01*
X103521Y62702D01*
X102702Y63521D01*
X101698Y64100D01*
X100579Y64400D01*
D02*
G37*
G36*
X90579D02*
X89421D01*
X88302Y64100D01*
X87298Y63521D01*
X86479Y62702D01*
X85900Y61698D01*
X85600Y60579D01*
Y59421D01*
X85900Y58302D01*
X86479Y57298D01*
X87298Y56479D01*
X88302Y55900D01*
X89421Y55600D01*
X90579D01*
X91698Y55900D01*
X92702Y56479D01*
X93521Y57298D01*
X94100Y58302D01*
X94400Y59421D01*
Y60579D01*
X94100Y61698D01*
X93521Y62702D01*
X92702Y63521D01*
X91698Y64100D01*
X90579Y64400D01*
D02*
G37*
G36*
X80579D02*
X79421D01*
X78302Y64100D01*
X77298Y63521D01*
X76479Y62702D01*
X75900Y61698D01*
X75600Y60579D01*
Y59421D01*
X75900Y58302D01*
X76479Y57298D01*
X77298Y56479D01*
X78302Y55900D01*
X79421Y55600D01*
X80579D01*
X81698Y55900D01*
X82702Y56479D01*
X83521Y57298D01*
X84100Y58302D01*
X84400Y59421D01*
Y60579D01*
X84100Y61698D01*
X83521Y62702D01*
X82702Y63521D01*
X81698Y64100D01*
X80579Y64400D01*
D02*
G37*
G36*
X300579Y54400D02*
X299421D01*
X298302Y54100D01*
X297298Y53521D01*
X296479Y52702D01*
X295900Y51698D01*
X295600Y50579D01*
Y49421D01*
X295900Y48302D01*
X296479Y47298D01*
X297298Y46479D01*
X298302Y45900D01*
X299421Y45600D01*
X300579D01*
X301698Y45900D01*
X302702Y46479D01*
X303521Y47298D01*
X304100Y48302D01*
X304400Y49421D01*
Y50579D01*
X304100Y51698D01*
X303521Y52702D01*
X302702Y53521D01*
X301698Y54100D01*
X300579Y54400D01*
D02*
G37*
G36*
X290579D02*
X289421D01*
X288302Y54100D01*
X287298Y53521D01*
X286479Y52702D01*
X285900Y51698D01*
X285600Y50579D01*
Y49421D01*
X285900Y48302D01*
X286479Y47298D01*
X287298Y46479D01*
X288302Y45900D01*
X289421Y45600D01*
X290579D01*
X291698Y45900D01*
X292702Y46479D01*
X293521Y47298D01*
X294100Y48302D01*
X294400Y49421D01*
Y50579D01*
X294100Y51698D01*
X293521Y52702D01*
X292702Y53521D01*
X291698Y54100D01*
X290579Y54400D01*
D02*
G37*
G36*
X280579D02*
X279421D01*
X278302Y54100D01*
X277298Y53521D01*
X276479Y52702D01*
X275900Y51698D01*
X275600Y50579D01*
Y49421D01*
X275900Y48302D01*
X276479Y47298D01*
X277298Y46479D01*
X278302Y45900D01*
X279421Y45600D01*
X280579D01*
X281698Y45900D01*
X282702Y46479D01*
X283521Y47298D01*
X284100Y48302D01*
X284400Y49421D01*
Y50579D01*
X284100Y51698D01*
X283521Y52702D01*
X282702Y53521D01*
X281698Y54100D01*
X280579Y54400D01*
D02*
G37*
G36*
X270579D02*
X269421D01*
X268302Y54100D01*
X267298Y53521D01*
X266479Y52702D01*
X265900Y51698D01*
X265600Y50579D01*
Y49421D01*
X265900Y48302D01*
X266479Y47298D01*
X267298Y46479D01*
X268302Y45900D01*
X269421Y45600D01*
X270579D01*
X271698Y45900D01*
X272702Y46479D01*
X273521Y47298D01*
X274100Y48302D01*
X274400Y49421D01*
Y50579D01*
X274100Y51698D01*
X273521Y52702D01*
X272702Y53521D01*
X271698Y54100D01*
X270579Y54400D01*
D02*
G37*
G36*
X250579D02*
X249421D01*
X248302Y54100D01*
X247298Y53521D01*
X246479Y52702D01*
X245900Y51698D01*
X245600Y50579D01*
Y49421D01*
X245900Y48302D01*
X246479Y47298D01*
X247298Y46479D01*
X248302Y45900D01*
X249421Y45600D01*
X250579D01*
X251698Y45900D01*
X252702Y46479D01*
X253521Y47298D01*
X254100Y48302D01*
X254400Y49421D01*
Y50579D01*
X254100Y51698D01*
X253521Y52702D01*
X252702Y53521D01*
X251698Y54100D01*
X250579Y54400D01*
D02*
G37*
G36*
X240579D02*
X239421D01*
X238302Y54100D01*
X237298Y53521D01*
X236479Y52702D01*
X235900Y51698D01*
X235600Y50579D01*
Y49421D01*
X235900Y48302D01*
X236479Y47298D01*
X237298Y46479D01*
X238302Y45900D01*
X239421Y45600D01*
X240579D01*
X241698Y45900D01*
X242702Y46479D01*
X243521Y47298D01*
X244100Y48302D01*
X244400Y49421D01*
Y50579D01*
X244100Y51698D01*
X243521Y52702D01*
X242702Y53521D01*
X241698Y54100D01*
X240579Y54400D01*
D02*
G37*
G36*
X230579D02*
X229421D01*
X228302Y54100D01*
X227298Y53521D01*
X226479Y52702D01*
X225900Y51698D01*
X225600Y50579D01*
Y49421D01*
X225900Y48302D01*
X226479Y47298D01*
X227298Y46479D01*
X228302Y45900D01*
X229421Y45600D01*
X230579D01*
X231698Y45900D01*
X232702Y46479D01*
X233521Y47298D01*
X234100Y48302D01*
X234400Y49421D01*
Y50579D01*
X234100Y51698D01*
X233521Y52702D01*
X232702Y53521D01*
X231698Y54100D01*
X230579Y54400D01*
D02*
G37*
G36*
X210579D02*
X209421D01*
X208302Y54100D01*
X207298Y53521D01*
X206479Y52702D01*
X205900Y51698D01*
X205600Y50579D01*
Y49421D01*
X205900Y48302D01*
X206479Y47298D01*
X207298Y46479D01*
X208302Y45900D01*
X209421Y45600D01*
X210579D01*
X211698Y45900D01*
X212702Y46479D01*
X213521Y47298D01*
X214100Y48302D01*
X214400Y49421D01*
Y50579D01*
X214100Y51698D01*
X213521Y52702D01*
X212702Y53521D01*
X211698Y54100D01*
X210579Y54400D01*
D02*
G37*
G36*
X200579D02*
X199421D01*
X198302Y54100D01*
X197298Y53521D01*
X196479Y52702D01*
X195900Y51698D01*
X195600Y50579D01*
Y49421D01*
X195900Y48302D01*
X196479Y47298D01*
X197298Y46479D01*
X198302Y45900D01*
X199421Y45600D01*
X200579D01*
X201698Y45900D01*
X202702Y46479D01*
X203521Y47298D01*
X204100Y48302D01*
X204400Y49421D01*
Y50579D01*
X204100Y51698D01*
X203521Y52702D01*
X202702Y53521D01*
X201698Y54100D01*
X200579Y54400D01*
D02*
G37*
G36*
X190579D02*
X189421D01*
X188302Y54100D01*
X187298Y53521D01*
X186479Y52702D01*
X185900Y51698D01*
X185600Y50579D01*
Y49421D01*
X185900Y48302D01*
X186479Y47298D01*
X187298Y46479D01*
X188302Y45900D01*
X189421Y45600D01*
X190579D01*
X191698Y45900D01*
X192702Y46479D01*
X193521Y47298D01*
X194100Y48302D01*
X194400Y49421D01*
Y50579D01*
X194100Y51698D01*
X193521Y52702D01*
X192702Y53521D01*
X191698Y54100D01*
X190579Y54400D01*
D02*
G37*
G36*
X180579D02*
X179421D01*
X178302Y54100D01*
X177298Y53521D01*
X176479Y52702D01*
X175900Y51698D01*
X175600Y50579D01*
Y49421D01*
X175900Y48302D01*
X176479Y47298D01*
X177298Y46479D01*
X178302Y45900D01*
X179421Y45600D01*
X180579D01*
X181698Y45900D01*
X182702Y46479D01*
X183521Y47298D01*
X184100Y48302D01*
X184400Y49421D01*
Y50579D01*
X184100Y51698D01*
X183521Y52702D01*
X182702Y53521D01*
X181698Y54100D01*
X180579Y54400D01*
D02*
G37*
G36*
X150579D02*
X149421D01*
X148302Y54100D01*
X147298Y53521D01*
X146479Y52702D01*
X145900Y51698D01*
X145600Y50579D01*
Y49421D01*
X145900Y48302D01*
X146479Y47298D01*
X147298Y46479D01*
X148302Y45900D01*
X149421Y45600D01*
X150579D01*
X151698Y45900D01*
X152702Y46479D01*
X153521Y47298D01*
X154100Y48302D01*
X154400Y49421D01*
Y50579D01*
X154100Y51698D01*
X153521Y52702D01*
X152702Y53521D01*
X151698Y54100D01*
X150579Y54400D01*
D02*
G37*
G36*
X140579D02*
X139421D01*
X138302Y54100D01*
X137298Y53521D01*
X136479Y52702D01*
X135900Y51698D01*
X135600Y50579D01*
Y49421D01*
X135900Y48302D01*
X136479Y47298D01*
X137298Y46479D01*
X138302Y45900D01*
X139421Y45600D01*
X140579D01*
X141698Y45900D01*
X142702Y46479D01*
X143521Y47298D01*
X144100Y48302D01*
X144400Y49421D01*
Y50579D01*
X144100Y51698D01*
X143521Y52702D01*
X142702Y53521D01*
X141698Y54100D01*
X140579Y54400D01*
D02*
G37*
G36*
X120579D02*
X119421D01*
X118302Y54100D01*
X117298Y53521D01*
X116479Y52702D01*
X115900Y51698D01*
X115600Y50579D01*
Y49421D01*
X115900Y48302D01*
X116479Y47298D01*
X117298Y46479D01*
X118302Y45900D01*
X119421Y45600D01*
X120579D01*
X121698Y45900D01*
X122702Y46479D01*
X123521Y47298D01*
X124100Y48302D01*
X124400Y49421D01*
Y50579D01*
X124100Y51698D01*
X123521Y52702D01*
X122702Y53521D01*
X121698Y54100D01*
X120579Y54400D01*
D02*
G37*
G36*
X110579D02*
X109421D01*
X108302Y54100D01*
X107298Y53521D01*
X106479Y52702D01*
X105900Y51698D01*
X105600Y50579D01*
Y49421D01*
X105900Y48302D01*
X106479Y47298D01*
X107298Y46479D01*
X108302Y45900D01*
X109421Y45600D01*
X110579D01*
X111698Y45900D01*
X112702Y46479D01*
X113521Y47298D01*
X114100Y48302D01*
X114400Y49421D01*
Y50579D01*
X114100Y51698D01*
X113521Y52702D01*
X112702Y53521D01*
X111698Y54100D01*
X110579Y54400D01*
D02*
G37*
G36*
X100579D02*
X99421D01*
X98302Y54100D01*
X97298Y53521D01*
X96479Y52702D01*
X95900Y51698D01*
X95600Y50579D01*
Y49421D01*
X95900Y48302D01*
X96479Y47298D01*
X97298Y46479D01*
X98302Y45900D01*
X99421Y45600D01*
X100579D01*
X101698Y45900D01*
X102702Y46479D01*
X103521Y47298D01*
X104100Y48302D01*
X104400Y49421D01*
Y50579D01*
X104100Y51698D01*
X103521Y52702D01*
X102702Y53521D01*
X101698Y54100D01*
X100579Y54400D01*
D02*
G37*
G36*
X90579D02*
X89421D01*
X88302Y54100D01*
X87298Y53521D01*
X86479Y52702D01*
X85900Y51698D01*
X85600Y50579D01*
Y49421D01*
X85900Y48302D01*
X86479Y47298D01*
X87298Y46479D01*
X88302Y45900D01*
X89421Y45600D01*
X90579D01*
X91698Y45900D01*
X92702Y46479D01*
X93521Y47298D01*
X94100Y48302D01*
X94400Y49421D01*
Y50579D01*
X94100Y51698D01*
X93521Y52702D01*
X92702Y53521D01*
X91698Y54100D01*
X90579Y54400D01*
D02*
G37*
G36*
X260579Y54400D02*
X259421D01*
X258302Y54100D01*
X257298Y53521D01*
X256479Y52702D01*
X255900Y51698D01*
X255600Y50579D01*
Y49421D01*
X255900Y48302D01*
X256479Y47298D01*
X257298Y46479D01*
X258302Y45900D01*
X259421Y45600D01*
X260579D01*
X261698Y45900D01*
X262702Y46479D01*
X263521Y47298D01*
X264100Y48302D01*
X264400Y49421D01*
Y50579D01*
X264100Y51698D01*
X263521Y52702D01*
X262702Y53521D01*
X261698Y54100D01*
X260579Y54400D01*
D02*
G37*
G36*
X220579D02*
X219421D01*
X218302Y54100D01*
X217298Y53521D01*
X216479Y52702D01*
X215900Y51698D01*
X215600Y50579D01*
Y49421D01*
X215900Y48302D01*
X216479Y47298D01*
X217298Y46479D01*
X218302Y45900D01*
X219421Y45600D01*
X220579D01*
X221698Y45900D01*
X222702Y46479D01*
X223521Y47298D01*
X224100Y48302D01*
X224400Y49421D01*
Y50579D01*
X224100Y51698D01*
X223521Y52702D01*
X222702Y53521D01*
X221698Y54100D01*
X220579Y54400D01*
D02*
G37*
G36*
X170579D02*
X169421D01*
X168302Y54100D01*
X167298Y53521D01*
X166479Y52702D01*
X165900Y51698D01*
X165600Y50579D01*
Y49421D01*
X165900Y48302D01*
X166479Y47298D01*
X167298Y46479D01*
X168302Y45900D01*
X169421Y45600D01*
X170579D01*
X171698Y45900D01*
X172702Y46479D01*
X173521Y47298D01*
X174100Y48302D01*
X174400Y49421D01*
Y50579D01*
X174100Y51698D01*
X173521Y52702D01*
X172702Y53521D01*
X171698Y54100D01*
X170579Y54400D01*
D02*
G37*
G36*
X160579D02*
X159421D01*
X158302Y54100D01*
X157298Y53521D01*
X156479Y52702D01*
X155900Y51698D01*
X155600Y50579D01*
Y49421D01*
X155900Y48302D01*
X156479Y47298D01*
X157298Y46479D01*
X158302Y45900D01*
X159421Y45600D01*
X160579D01*
X161698Y45900D01*
X162702Y46479D01*
X163521Y47298D01*
X164100Y48302D01*
X164400Y49421D01*
Y50579D01*
X164100Y51698D01*
X163521Y52702D01*
X162702Y53521D01*
X161698Y54100D01*
X160579Y54400D01*
D02*
G37*
G36*
X80579D02*
X79421D01*
X78302Y54100D01*
X77298Y53521D01*
X76479Y52702D01*
X75900Y51698D01*
X75600Y50579D01*
Y49421D01*
X75900Y48302D01*
X76479Y47298D01*
X77298Y46479D01*
X78302Y45900D01*
X79421Y45600D01*
X80579D01*
X81698Y45900D01*
X82702Y46479D01*
X83521Y47298D01*
X84100Y48302D01*
X84400Y49421D01*
Y50579D01*
X84100Y51698D01*
X83521Y52702D01*
X82702Y53521D01*
X81698Y54100D01*
X80579Y54400D01*
D02*
G37*
G36*
X193831Y44491D02*
X189700D01*
Y39523D01*
X198973D01*
X198823Y40661D01*
X198307Y41907D01*
X197485Y42978D01*
X196415Y43799D01*
X195168Y44315D01*
X193831Y44491D01*
D02*
G37*
G36*
X189300D02*
X185169D01*
X183832Y44315D01*
X182585Y43799D01*
X181515Y42978D01*
X180693Y41907D01*
X180177Y40661D01*
X180027Y39523D01*
X189300D01*
Y44491D01*
D02*
G37*
G36*
X269831Y44169D02*
X265700D01*
Y39200D01*
X274973D01*
X274823Y40338D01*
X274307Y41584D01*
X273485Y42655D01*
X272415Y43476D01*
X271168Y43992D01*
X269831Y44169D01*
D02*
G37*
G36*
X265300D02*
X261169D01*
X259832Y43992D01*
X258585Y43476D01*
X257515Y42655D01*
X256693Y41584D01*
X256177Y40338D01*
X256027Y39200D01*
X265300D01*
Y44169D01*
D02*
G37*
G36*
X198973Y39123D02*
X189700D01*
Y34154D01*
X193831D01*
X195168Y34330D01*
X196415Y34847D01*
X197485Y35668D01*
X198307Y36738D01*
X198823Y37985D01*
X198973Y39123D01*
D02*
G37*
G36*
X189300D02*
X180027D01*
X180177Y37985D01*
X180693Y36738D01*
X181515Y35668D01*
X182585Y34847D01*
X183832Y34330D01*
X185169Y34154D01*
X189300D01*
Y39123D01*
D02*
G37*
G36*
X274973Y38800D02*
X265700D01*
Y33831D01*
X269831D01*
X271168Y34007D01*
X272415Y34524D01*
X273485Y35345D01*
X274307Y36416D01*
X274823Y37662D01*
X274973Y38800D01*
D02*
G37*
G36*
X265300D02*
X256027D01*
X256177Y37662D01*
X256693Y36416D01*
X257515Y35345D01*
X258585Y34524D01*
X259832Y34007D01*
X261169Y33831D01*
X265300D01*
Y38800D01*
D02*
G37*
G36*
X217513Y35294D02*
X217259D01*
Y32043D01*
X220510D01*
Y32297D01*
X220275Y33175D01*
X219821Y33962D01*
X219178Y34604D01*
X218391Y35059D01*
X217513Y35294D01*
D02*
G37*
G36*
X216859D02*
X216605D01*
X215727Y35059D01*
X214940Y34604D01*
X214297Y33962D01*
X213843Y33175D01*
X213608Y32297D01*
Y32043D01*
X216859D01*
Y35294D01*
D02*
G37*
G36*
X48364Y34865D02*
X47636D01*
X46934Y34676D01*
X46304Y34313D01*
X45790Y33798D01*
X45426Y33169D01*
X45238Y32466D01*
Y31739D01*
X45426Y31036D01*
X45790Y30406D01*
X46304Y29892D01*
X46934Y29528D01*
X47636Y29340D01*
X48364D01*
X49066Y29528D01*
X49696Y29892D01*
X50210Y30406D01*
X50574Y31036D01*
X50762Y31739D01*
Y32466D01*
X50574Y33169D01*
X50210Y33798D01*
X49696Y34313D01*
X49066Y34676D01*
X48364Y34865D01*
D02*
G37*
G36*
X38364D02*
X37636D01*
X36934Y34676D01*
X36304Y34313D01*
X35790Y33798D01*
X35426Y33169D01*
X35238Y32466D01*
Y31739D01*
X35426Y31036D01*
X35790Y30406D01*
X36304Y29892D01*
X36934Y29528D01*
X37636Y29340D01*
X38364D01*
X39066Y29528D01*
X39696Y29892D01*
X40210Y30406D01*
X40574Y31036D01*
X40762Y31739D01*
Y32466D01*
X40574Y33169D01*
X40210Y33798D01*
X39696Y34313D01*
X39066Y34676D01*
X38364Y34865D01*
D02*
G37*
G36*
X220510Y31642D02*
X217259D01*
Y28391D01*
X217513D01*
X218391Y28626D01*
X219178Y29081D01*
X219821Y29724D01*
X220275Y30510D01*
X220510Y31388D01*
Y31642D01*
D02*
G37*
G36*
X216859D02*
X213608D01*
Y31388D01*
X213843Y30510D01*
X214297Y29724D01*
X214940Y29081D01*
X215727Y28626D01*
X216605Y28391D01*
X216859D01*
Y31642D01*
D02*
G37*
G36*
X241392Y34971D02*
X234490D01*
Y28069D01*
X241392D01*
Y34971D01*
D02*
G37*
G36*
X217513Y25451D02*
X216605D01*
X215727Y25216D01*
X214940Y24762D01*
X214297Y24119D01*
X213843Y23332D01*
X213608Y22454D01*
Y21546D01*
X213843Y20668D01*
X214297Y19881D01*
X214940Y19238D01*
X215727Y18784D01*
X216605Y18549D01*
X217513D01*
X218391Y18784D01*
X219178Y19238D01*
X219821Y19881D01*
X220275Y20668D01*
X220510Y21546D01*
Y22454D01*
X220275Y23332D01*
X219821Y24119D01*
X219178Y24762D01*
X218391Y25216D01*
X217513Y25451D01*
D02*
G37*
G36*
X238395Y25128D02*
X237487D01*
X236609Y24893D01*
X235822Y24439D01*
X235179Y23796D01*
X234725Y23009D01*
X234490Y22131D01*
Y21223D01*
X234725Y20345D01*
X235179Y19558D01*
X235822Y18915D01*
X236609Y18461D01*
X237487Y18226D01*
X238395D01*
X239273Y18461D01*
X240060Y18915D01*
X240703Y19558D01*
X241157Y20345D01*
X241392Y21223D01*
Y22131D01*
X241157Y23009D01*
X240703Y23796D01*
X240060Y24439D01*
X239273Y24893D01*
X238395Y25128D01*
D02*
G37*
G36*
X48364Y22864D02*
X47636D01*
X46934Y22676D01*
X46304Y22313D01*
X45790Y21798D01*
X45426Y21169D01*
X45238Y20466D01*
Y19739D01*
X45426Y19036D01*
X45790Y18406D01*
X46304Y17892D01*
X46934Y17528D01*
X47636Y17340D01*
X48364D01*
X49066Y17528D01*
X49696Y17892D01*
X50210Y18406D01*
X50574Y19036D01*
X50762Y19739D01*
Y20466D01*
X50574Y21169D01*
X50210Y21798D01*
X49696Y22313D01*
X49066Y22676D01*
X48364Y22864D01*
D02*
G37*
G36*
X38364Y22864D02*
X37636D01*
X36934Y22676D01*
X36304Y22313D01*
X35790Y21798D01*
X35426Y21169D01*
X35238Y20466D01*
Y19739D01*
X35426Y19036D01*
X35790Y18406D01*
X36304Y17892D01*
X36934Y17528D01*
X37636Y17340D01*
X38364D01*
X39066Y17528D01*
X39696Y17892D01*
X40210Y18406D01*
X40574Y19036D01*
X40762Y19739D01*
Y20466D01*
X40574Y21169D01*
X40210Y21798D01*
X39696Y22313D01*
X39066Y22676D01*
X38364Y22864D01*
D02*
G37*
G36*
X238395Y15286D02*
X238141D01*
Y12035D01*
X241392D01*
Y12289D01*
X241157Y13167D01*
X240703Y13954D01*
X240060Y14596D01*
X239273Y15051D01*
X238395Y15286D01*
D02*
G37*
G36*
X237741D02*
X237487D01*
X236609Y15051D01*
X235822Y14596D01*
X235179Y13954D01*
X234725Y13167D01*
X234490Y12289D01*
Y12035D01*
X237741D01*
Y15286D01*
D02*
G37*
G36*
X220510Y15609D02*
X213608D01*
Y8706D01*
X220510D01*
Y15609D01*
D02*
G37*
G36*
X241392Y11635D02*
X238141D01*
Y8383D01*
X238395D01*
X239273Y8619D01*
X240060Y9073D01*
X240703Y9716D01*
X241157Y10503D01*
X241392Y11380D01*
Y11635D01*
D02*
G37*
G36*
X237741D02*
X234490D01*
Y11380D01*
X234725Y10503D01*
X235179Y9716D01*
X235822Y9073D01*
X236609Y8619D01*
X237487Y8383D01*
X237741D01*
Y11635D01*
D02*
G37*
G36*
X48364Y10865D02*
X47636D01*
X46934Y10676D01*
X46304Y10313D01*
X45790Y9798D01*
X45426Y9168D01*
X45238Y8466D01*
Y7739D01*
X45426Y7036D01*
X45790Y6406D01*
X46304Y5892D01*
X46934Y5528D01*
X47636Y5340D01*
X48364D01*
X49066Y5528D01*
X49696Y5892D01*
X50210Y6406D01*
X50574Y7036D01*
X50762Y7739D01*
Y8466D01*
X50574Y9168D01*
X50210Y9798D01*
X49696Y10313D01*
X49066Y10676D01*
X48364Y10865D01*
D02*
G37*
G36*
X38364D02*
X37636D01*
X36934Y10676D01*
X36304Y10313D01*
X35790Y9798D01*
X35426Y9168D01*
X35238Y8466D01*
Y7739D01*
X35426Y7036D01*
X35790Y6406D01*
X36304Y5892D01*
X36934Y5528D01*
X37636Y5340D01*
X38364D01*
X39066Y5528D01*
X39696Y5892D01*
X40210Y6406D01*
X40574Y7036D01*
X40762Y7739D01*
Y8466D01*
X40574Y9168D01*
X40210Y9798D01*
X39696Y10313D01*
X39066Y10676D01*
X38364Y10865D01*
D02*
G37*
G36*
X193831Y9846D02*
X189700D01*
Y4877D01*
X198973D01*
X198823Y6015D01*
X198307Y7261D01*
X197485Y8332D01*
X196415Y9153D01*
X195168Y9670D01*
X193831Y9846D01*
D02*
G37*
G36*
X189300D02*
X185169D01*
X183832Y9670D01*
X182585Y9153D01*
X181515Y8332D01*
X180693Y7261D01*
X180177Y6015D01*
X180027Y4877D01*
X189300D01*
Y9846D01*
D02*
G37*
G36*
X269831Y9523D02*
X265700D01*
Y4554D01*
X274973D01*
X274823Y5692D01*
X274307Y6939D01*
X273485Y8009D01*
X272415Y8830D01*
X271168Y9347D01*
X269831Y9523D01*
D02*
G37*
G36*
X265300D02*
X261169D01*
X259832Y9347D01*
X258585Y8830D01*
X257515Y8009D01*
X256693Y6939D01*
X256177Y5692D01*
X256027Y4554D01*
X265300D01*
Y9523D01*
D02*
G37*
G36*
X198973Y4477D02*
X189700D01*
Y-491D01*
X193831D01*
X195168Y-315D01*
X196415Y201D01*
X197485Y1022D01*
X198307Y2093D01*
X198823Y3339D01*
X198973Y4477D01*
D02*
G37*
G36*
X189300D02*
X180027D01*
X180177Y3339D01*
X180693Y2093D01*
X181515Y1022D01*
X182585Y201D01*
X183832Y-315D01*
X185169Y-491D01*
X189300D01*
Y4477D01*
D02*
G37*
G36*
X274973Y4154D02*
X265700D01*
Y-814D01*
X269831D01*
X271168Y-638D01*
X272415Y-122D01*
X273485Y700D01*
X274307Y1770D01*
X274823Y3017D01*
X274973Y4154D01*
D02*
G37*
G36*
X265300D02*
X256027D01*
X256177Y3017D01*
X256693Y1770D01*
X257515Y700D01*
X258585Y-122D01*
X259832Y-638D01*
X261169Y-814D01*
X265300D01*
Y4154D01*
D02*
G37*
G36*
X303000Y13441D02*
X300897Y13276D01*
X298846Y12784D01*
X296898Y11976D01*
X295099Y10874D01*
X293495Y9505D01*
X292126Y7901D01*
X291024Y6102D01*
X290216Y4154D01*
X289724Y2103D01*
X289559Y0D01*
X289724Y-2103D01*
X290216Y-4154D01*
X291024Y-6102D01*
X292126Y-7901D01*
X293495Y-9505D01*
X295099Y-10874D01*
X296898Y-11976D01*
X298846Y-12784D01*
X300897Y-13276D01*
X303000Y-13441D01*
X305103Y-13276D01*
X307154Y-12784D01*
X309102Y-11976D01*
X310901Y-10874D01*
X312505Y-9505D01*
X313874Y-7901D01*
X314976Y-6102D01*
X315784Y-4154D01*
X316276Y-2103D01*
X316441Y0D01*
X316276Y2103D01*
X315784Y4154D01*
X314976Y6102D01*
X313874Y7901D01*
X312505Y9505D01*
X310901Y10874D01*
X309102Y11976D01*
X307154Y12784D01*
X305103Y13276D01*
X303000Y13441D01*
D02*
G37*
G36*
X0D02*
X-2103Y13276D01*
X-4154Y12784D01*
X-6102Y11976D01*
X-7901Y10874D01*
X-9505Y9505D01*
X-10874Y7901D01*
X-11976Y6102D01*
X-12784Y4154D01*
X-13276Y2103D01*
X-13441Y0D01*
X-13276Y-2103D01*
X-12784Y-4154D01*
X-11976Y-6102D01*
X-10874Y-7901D01*
X-9505Y-9505D01*
X-7901Y-10874D01*
X-6102Y-11976D01*
X-4154Y-12784D01*
X-2103Y-13276D01*
X0Y-13441D01*
X2103Y-13276D01*
X4154Y-12784D01*
X6102Y-11976D01*
X7901Y-10874D01*
X9505Y-9505D01*
X10874Y-7901D01*
X11976Y-6102D01*
X12784Y-4154D01*
X13276Y-2103D01*
X13441Y0D01*
X13276Y2103D01*
X12784Y4154D01*
X11976Y6102D01*
X10874Y7901D01*
X9505Y9505D01*
X7901Y10874D01*
X6102Y11976D01*
X4154Y12784D01*
X2103Y13276D01*
X0Y13441D01*
D02*
G37*
%LPD*%
G36*
X153789Y246195D02*
X153982Y246143D01*
Y215780D01*
X147792Y209590D01*
X147593Y209292D01*
X147523Y208941D01*
Y202869D01*
X146603D01*
Y221305D01*
X150649Y225351D01*
X150848Y225649D01*
X150918Y226000D01*
Y244659D01*
X151698Y244868D01*
X152702Y245448D01*
X153482Y246228D01*
X153789Y246195D01*
D02*
G37*
G36*
X163781Y218963D02*
Y214632D01*
X167365D01*
X169226Y212770D01*
Y201586D01*
X168726Y201252D01*
X168520Y201337D01*
X167963D01*
X167448Y201124D01*
X167381Y201057D01*
X166738Y201699D01*
Y204937D01*
X166651Y205379D01*
X166424Y205719D01*
X166536Y206219D01*
X168043D01*
Y210956D01*
X163306D01*
Y206546D01*
X163282Y206507D01*
X162806Y206310D01*
X161744Y207372D01*
Y208387D01*
X159375D01*
Y208787D01*
X161744D01*
Y210956D01*
X160316D01*
Y211500D01*
X160254Y211812D01*
X160077Y212077D01*
X159812Y212254D01*
X159500Y212316D01*
X159188Y212254D01*
X158923Y212077D01*
X158746Y211812D01*
X158684Y211500D01*
Y210956D01*
X157316D01*
Y213312D01*
X158635Y214632D01*
X162219D01*
Y218963D01*
X162573Y219317D01*
X163427D01*
X163781Y218963D01*
D02*
G37*
G36*
X110423Y76423D02*
X122812Y64035D01*
X122505Y63635D01*
X121698Y64100D01*
X120579Y64400D01*
X119421D01*
X118302Y64100D01*
X117510Y63643D01*
X109816Y71338D01*
Y76486D01*
X110316Y76584D01*
X110423Y76423D01*
D02*
G37*
D15*
X119779Y248747D02*
X120000Y248969D01*
X119779Y160600D02*
Y248747D01*
X113500Y155000D02*
Y186500D01*
X115100Y188100D01*
Y254068D01*
X120000Y258968D01*
X174556Y141503D02*
Y180944D01*
X171000Y184500D02*
X174556Y180944D01*
X153732Y184500D02*
X171000D01*
X145685Y192547D02*
X153732Y184500D01*
X145685Y192547D02*
Y221685D01*
X165525Y162694D02*
Y169587D01*
X148441Y195500D02*
Y200500D01*
X150000Y226000D02*
Y248969D01*
X145685Y221685D02*
X150000Y226000D01*
X174556Y141503D02*
X203059Y113000D01*
X204059Y112000D01*
X275000D02*
X276000Y113000D01*
X204059Y112000D02*
X275000D01*
X140000Y248969D02*
X141000Y247969D01*
X148441Y136000D02*
Y160764D01*
X141000Y168205D02*
X148441Y160764D01*
X141000Y168205D02*
Y247969D01*
X148441Y131000D02*
Y136000D01*
X148441Y136000D01*
X175000Y205559D02*
X203559Y177000D01*
X170000Y248969D02*
X175000Y243969D01*
Y205559D02*
Y243969D01*
X148441Y208941D02*
X154900Y215400D01*
X148441Y200500D02*
Y208941D01*
X154900Y215400D02*
Y253869D01*
X160000Y258968D01*
X275725Y176000D02*
X275941D01*
X275325Y175600D02*
X275725Y176000D01*
X205175Y175600D02*
X275325D01*
X203776Y177000D02*
X205175Y175600D01*
X203559Y177000D02*
X203776D01*
X160525Y224693D02*
Y231587D01*
X251150Y201350D02*
Y237000D01*
Y201350D02*
X251500Y201000D01*
X158000Y140000D02*
X159733D01*
X159966Y139437D02*
Y139768D01*
X159733Y140000D02*
X159966Y139768D01*
X160253Y203500D02*
X160466Y203287D01*
X158500Y203500D02*
X160253D01*
X153559Y200500D02*
X154700Y201641D01*
Y208500D01*
X159966Y131715D02*
Y132737D01*
X154059Y131500D02*
X159751D01*
X159966Y131715D01*
X289000Y200500D02*
Y229059D01*
X284500Y196000D02*
X289000Y200500D01*
X248150Y240000D02*
X251150Y237000D01*
X207867Y242079D02*
X211000Y238947D01*
Y201500D02*
Y238947D01*
X165525Y224693D02*
Y231587D01*
X159852Y98240D02*
Y105133D01*
X165252Y98292D02*
Y105186D01*
X160025Y162694D02*
Y169587D01*
D57*
X15157Y255000D02*
D03*
D58*
X34843D02*
D03*
D59*
X237941Y11835D02*
D03*
Y21677D02*
D03*
X217059Y31842D02*
D03*
Y22000D02*
D03*
D60*
X237941Y31520D02*
D03*
X217059Y12157D02*
D03*
D61*
X265500Y4354D02*
D03*
Y39000D02*
D03*
X189500Y39323D02*
D03*
Y4677D02*
D03*
D63*
X70000Y60000D02*
D03*
Y258968D02*
D03*
D64*
X70000Y50000D02*
D03*
X80000Y60000D02*
D03*
X80000Y50000D02*
D03*
X90000Y60000D02*
D03*
Y50000D02*
D03*
X100000Y60000D02*
D03*
Y50000D02*
D03*
X110000Y60000D02*
D03*
X110000Y50000D02*
D03*
X120000Y60000D02*
D03*
Y50000D02*
D03*
X130000Y60000D02*
D03*
X130000Y50000D02*
D03*
X140000Y60000D02*
D03*
X140000Y50000D02*
D03*
X150000Y60000D02*
D03*
Y50000D02*
D03*
X160000Y60000D02*
D03*
X160000Y50000D02*
D03*
X170000Y60000D02*
D03*
X170000Y50000D02*
D03*
X180000Y60000D02*
D03*
Y50000D02*
D03*
X190000Y60000D02*
D03*
Y50000D02*
D03*
X200000Y60000D02*
D03*
Y50000D02*
D03*
X210000Y60000D02*
D03*
X210000Y50000D02*
D03*
X220000Y60000D02*
D03*
X220000Y50000D02*
D03*
X230000Y60000D02*
D03*
Y50000D02*
D03*
X240000Y60000D02*
D03*
Y50000D02*
D03*
X250000Y60000D02*
D03*
X250000Y50000D02*
D03*
X260000Y60000D02*
D03*
X260000Y50000D02*
D03*
X270000Y60000D02*
D03*
Y50000D02*
D03*
X280000Y60000D02*
D03*
X280000Y50000D02*
D03*
X290000Y60000D02*
D03*
Y50000D02*
D03*
X300000Y60000D02*
D03*
X300000Y50000D02*
D03*
X310000Y60000D02*
D03*
X310000Y50000D02*
D03*
X210000Y258968D02*
D03*
X190000Y248969D02*
D03*
X200000D02*
D03*
X240000Y258968D02*
D03*
X230000Y248969D02*
D03*
X210000D02*
D03*
X180000Y258968D02*
D03*
X240000Y248969D02*
D03*
X220000D02*
D03*
X250000D02*
D03*
X270000D02*
D03*
X280000Y258968D02*
D03*
X280000Y248969D02*
D03*
X290000Y258968D02*
D03*
X290000Y248969D02*
D03*
X300000Y258968D02*
D03*
Y248969D02*
D03*
X310000D02*
D03*
X260000Y258968D02*
D03*
X250000Y258968D02*
D03*
X260000Y248969D02*
D03*
X270000Y258968D02*
D03*
X310000D02*
D03*
X170000D02*
D03*
X230000D02*
D03*
X220000D02*
D03*
X200000Y258968D02*
D03*
X190000D02*
D03*
X180000Y248969D02*
D03*
X170000D02*
D03*
X150000Y258968D02*
D03*
X160000Y248969D02*
D03*
X140000D02*
D03*
X160000Y258968D02*
D03*
X150000Y248969D02*
D03*
X140000Y258968D02*
D03*
X130000Y258968D02*
D03*
X80000D02*
D03*
X90000D02*
D03*
X90000Y248969D02*
D03*
X100000Y258968D02*
D03*
X110000D02*
D03*
Y248969D02*
D03*
X120000D02*
D03*
X100000D02*
D03*
X130000D02*
D03*
X80000D02*
D03*
X70000D02*
D03*
X120000Y258968D02*
D03*
D66*
X165674Y208587D02*
D03*
X159375D02*
D03*
X159850Y217000D02*
D03*
X166150D02*
D03*
X159202Y80633D02*
D03*
X165501D02*
D03*
X166001Y88133D02*
D03*
X159702D02*
D03*
X158850Y145500D02*
D03*
X165150D02*
D03*
X166174Y153087D02*
D03*
X159875D02*
D03*
D69*
X160500Y221488D02*
D03*
X160500Y226606D02*
D03*
X165500Y221488D02*
D03*
X165500Y226606D02*
D03*
X159852Y99192D02*
D03*
Y94074D02*
D03*
X165352Y99192D02*
D03*
Y94074D02*
D03*
X165556Y162646D02*
D03*
Y157528D02*
D03*
X160056Y162646D02*
D03*
Y157528D02*
D03*
D70*
X148441Y200500D02*
D03*
X153559Y200500D02*
D03*
X148441Y195500D02*
D03*
X153559Y195500D02*
D03*
X147941Y72031D02*
D03*
X153059D02*
D03*
X147941Y67032D02*
D03*
X153059D02*
D03*
X148441Y136000D02*
D03*
X153559D02*
D03*
X148441Y131000D02*
D03*
X153559D02*
D03*
D86*
X165352Y88783D02*
Y94074D01*
Y88783D02*
X166001Y88133D01*
X159702D02*
X159852Y88283D01*
X158234Y86665D02*
X159702Y88133D01*
X159852Y88283D02*
Y94074D01*
X161152Y71133D02*
X162852Y69433D01*
X156233Y73020D02*
X158119Y71133D01*
X161152D01*
X156233Y73020D02*
Y86014D01*
X165126Y75000D02*
X167000D01*
X168900Y72922D02*
Y85235D01*
X166001Y88133D02*
X168900Y85235D01*
X165411Y69433D02*
X168900Y72922D01*
X165411Y67783D02*
Y69433D01*
X164911Y74785D02*
X165126Y75000D01*
X165500Y217650D02*
X170041Y213108D01*
Y199192D02*
Y213108D01*
X165891Y197837D02*
X168687D01*
X110000Y110169D02*
Y248969D01*
Y110169D02*
X147941Y72228D01*
Y67032D02*
Y72031D01*
Y72228D01*
X111000Y89229D02*
X112271Y90500D01*
X125000Y55000D02*
X130000Y50000D01*
X111000Y77000D02*
Y89229D01*
X125000Y55000D02*
Y63000D01*
X112367Y90500D02*
X113683Y91817D01*
X112271Y90500D02*
X112367D01*
X111000Y77000D02*
X125000Y63000D01*
X109000Y71000D02*
X120000Y60000D01*
X109000Y71000D02*
Y92000D01*
X113500Y96500D01*
X165299Y133959D02*
X167316D01*
X169562Y136205D01*
X165084Y133745D02*
X165299Y133959D01*
X169562Y136205D02*
Y149699D01*
X165084Y132737D02*
Y133745D01*
X156883Y86665D02*
X158234D01*
X156233Y86014D02*
X156883Y86665D01*
X159578Y67000D02*
X159793Y67215D01*
X154559Y67000D02*
X159578D01*
X159793Y67215D02*
Y67783D01*
X164911Y80043D02*
X165501Y80633D01*
X164911Y74785D02*
Y80043D01*
X153000Y136559D02*
X153559Y136000D01*
X153000Y136559D02*
Y146000D01*
Y72091D02*
X153059Y72031D01*
X153000Y72091D02*
Y82500D01*
X164911Y74483D02*
Y74785D01*
X159202Y80633D02*
X162763Y77073D01*
X160500Y81931D02*
Y84500D01*
X159202Y80633D02*
X160500Y81931D01*
X162763Y74572D02*
X162852Y74483D01*
X159875Y153087D02*
X160056Y153268D01*
X155500Y139072D02*
X156231Y138341D01*
X155500Y148712D02*
X159875Y153087D01*
X155500Y139072D02*
Y148712D01*
X156231Y138269D02*
Y138341D01*
X165084Y139437D02*
X165147Y139500D01*
X167000D01*
X165084Y139437D02*
Y145434D01*
X163025Y203287D02*
Y204938D01*
X159375Y208587D02*
X163025Y204938D01*
X158063Y199937D02*
X161325D01*
X156500Y201500D02*
Y213650D01*
Y201500D02*
X158063Y199937D01*
X161325D02*
X163025Y198237D01*
Y196587D02*
Y198237D01*
X159500Y208712D02*
Y211500D01*
X159375Y208587D02*
X159500Y208712D01*
X160319Y145143D02*
Y148102D01*
X160500Y148284D01*
Y148500D01*
X159763Y144587D02*
X160319Y145143D01*
X158413Y136087D02*
X160825D01*
X156231Y138269D02*
X158413Y136087D01*
X159850Y217000D02*
X160500Y217650D01*
X156500Y213650D02*
X159850Y217000D01*
X165084Y145434D02*
X165150Y145500D01*
X168687Y197837D02*
X170041Y199192D01*
X165584Y201701D02*
Y203287D01*
Y201701D02*
X167194Y200090D01*
X168088D02*
X168241Y199937D01*
X167194Y200090D02*
X168088D01*
X165584Y208497D02*
X165674Y208587D01*
X165584Y203287D02*
Y208497D01*
X161428Y143119D02*
X161428D01*
X160319Y144032D02*
X160516D01*
X161428Y143119D01*
X159763Y144587D02*
X160319Y144032D01*
X161428Y143119D02*
X162436Y142112D01*
Y139526D02*
Y142112D01*
Y139526D02*
X162525Y139437D01*
X153559Y195500D02*
X160159D01*
X160466Y195807D01*
Y196587D01*
X160500Y217650D02*
Y221488D01*
X165584Y196587D02*
Y197530D01*
X165891Y197837D01*
X165500Y217650D02*
Y221488D01*
X162852Y67783D02*
Y69433D01*
X162763Y74572D02*
Y77073D01*
X160825Y136087D02*
X162525Y134387D01*
Y132737D02*
Y134387D01*
X166174Y153087D02*
X169562Y149699D01*
X165556Y153705D02*
X166174Y153087D01*
X165556Y153705D02*
Y157528D01*
X160056Y153268D02*
Y157528D01*
D90*
X307500Y166500D02*
D03*
Y156500D02*
D03*
X-6500Y146500D02*
D03*
Y156500D02*
D03*
D91*
X307500Y146500D02*
D03*
X-6500Y166500D02*
D03*
D92*
X38000Y8102D02*
D03*
X48000D02*
D03*
X38000Y32102D02*
D03*
X48000D02*
D03*
X38000Y20102D02*
D03*
X48000Y20102D02*
D03*
D93*
X303000Y0D02*
D03*
X0D02*
D03*
X303000Y313000D02*
D03*
X0D02*
D03*
D94*
X185000Y155000D02*
D03*
X190000Y90000D02*
D03*
X200000Y85000D02*
D03*
X215000Y90000D02*
D03*
X230000Y85000D02*
D03*
X250000Y90000D02*
D03*
X265000Y85000D02*
D03*
X280000Y90000D02*
D03*
X300000Y85000D02*
D03*
X315000D02*
D03*
X300000Y95000D02*
D03*
X315000D02*
D03*
Y105000D02*
D03*
X300000D02*
D03*
Y115000D02*
D03*
X315000D02*
D03*
Y125000D02*
D03*
X300000D02*
D03*
Y135000D02*
D03*
X315000D02*
D03*
X295000Y150000D02*
D03*
X290000Y155000D02*
D03*
X250000D02*
D03*
X260000D02*
D03*
X270000D02*
D03*
X280000D02*
D03*
X285000Y150000D02*
D03*
X275000D02*
D03*
X265000D02*
D03*
X255000D02*
D03*
X245000D02*
D03*
X195000D02*
D03*
X215000D02*
D03*
X235000D02*
D03*
X220000Y155000D02*
D03*
X210000D02*
D03*
X200000D02*
D03*
X190000D02*
D03*
X315000Y180000D02*
D03*
X300000D02*
D03*
Y170000D02*
D03*
X315000D02*
D03*
X215000Y215000D02*
D03*
X200000D02*
D03*
X190000D02*
D03*
X185000Y210000D02*
D03*
X195000D02*
D03*
X205000D02*
D03*
X220000D02*
D03*
X230000D02*
D03*
X240000D02*
D03*
X265000D02*
D03*
X310000Y195000D02*
D03*
X300000D02*
D03*
Y205000D02*
D03*
Y215000D02*
D03*
X310000Y205000D02*
D03*
Y215000D02*
D03*
X312000Y297500D02*
D03*
Y285500D02*
D03*
Y273500D02*
D03*
Y237500D02*
D03*
Y225500D02*
D03*
Y69500D02*
D03*
X300000Y297500D02*
D03*
Y285500D02*
D03*
Y273500D02*
D03*
Y237500D02*
D03*
Y225500D02*
D03*
Y69500D02*
D03*
X288000Y321500D02*
D03*
Y297500D02*
D03*
Y285500D02*
D03*
Y273500D02*
D03*
Y237500D02*
D03*
Y69500D02*
D03*
X276000Y321500D02*
D03*
Y309500D02*
D03*
Y297500D02*
D03*
Y285500D02*
D03*
Y273500D02*
D03*
Y69500D02*
D03*
X264000Y321500D02*
D03*
Y309500D02*
D03*
Y297500D02*
D03*
Y69500D02*
D03*
X252000Y321500D02*
D03*
Y309500D02*
D03*
Y297500D02*
D03*
Y285500D02*
D03*
Y273500D02*
D03*
Y69500D02*
D03*
X240000Y321500D02*
D03*
Y309500D02*
D03*
Y297500D02*
D03*
Y285500D02*
D03*
Y273500D02*
D03*
Y69500D02*
D03*
X228000Y321500D02*
D03*
Y309500D02*
D03*
Y297500D02*
D03*
Y285500D02*
D03*
Y273500D02*
D03*
Y69500D02*
D03*
X216000Y321500D02*
D03*
Y309500D02*
D03*
Y297500D02*
D03*
Y285500D02*
D03*
Y273500D02*
D03*
Y69500D02*
D03*
X204000Y321500D02*
D03*
Y309500D02*
D03*
Y297500D02*
D03*
Y285500D02*
D03*
Y273500D02*
D03*
Y69500D02*
D03*
X192000Y321500D02*
D03*
Y309500D02*
D03*
Y297500D02*
D03*
Y285500D02*
D03*
Y237500D02*
D03*
Y177500D02*
D03*
Y69500D02*
D03*
X180000Y321500D02*
D03*
Y309500D02*
D03*
Y297500D02*
D03*
Y273500D02*
D03*
X168000Y321500D02*
D03*
Y309500D02*
D03*
Y297500D02*
D03*
Y273500D02*
D03*
Y177500D02*
D03*
X156000Y321500D02*
D03*
Y309500D02*
D03*
Y297500D02*
D03*
Y273500D02*
D03*
X144000Y321500D02*
D03*
Y309500D02*
D03*
Y297500D02*
D03*
Y273500D02*
D03*
X132000Y321500D02*
D03*
Y309500D02*
D03*
Y297500D02*
D03*
Y273500D02*
D03*
Y237500D02*
D03*
X120000Y321500D02*
D03*
Y309500D02*
D03*
Y297500D02*
D03*
Y273500D02*
D03*
X108000Y321500D02*
D03*
Y309500D02*
D03*
Y297500D02*
D03*
X96000Y321500D02*
D03*
Y309500D02*
D03*
Y297500D02*
D03*
Y237500D02*
D03*
Y225500D02*
D03*
X84000Y321500D02*
D03*
Y309500D02*
D03*
Y297500D02*
D03*
Y225500D02*
D03*
X72000Y321500D02*
D03*
Y309500D02*
D03*
Y297500D02*
D03*
Y225500D02*
D03*
Y117500D02*
D03*
Y105500D02*
D03*
Y81500D02*
D03*
X60000Y321500D02*
D03*
Y309500D02*
D03*
Y297500D02*
D03*
Y285500D02*
D03*
Y273500D02*
D03*
Y249500D02*
D03*
Y225500D02*
D03*
Y201500D02*
D03*
Y189500D02*
D03*
Y117500D02*
D03*
Y105500D02*
D03*
Y81500D02*
D03*
X48000Y321500D02*
D03*
Y309500D02*
D03*
Y297500D02*
D03*
Y285500D02*
D03*
Y237500D02*
D03*
Y225500D02*
D03*
Y213500D02*
D03*
Y129500D02*
D03*
Y117500D02*
D03*
Y105500D02*
D03*
Y93500D02*
D03*
Y81500D02*
D03*
X36000Y321500D02*
D03*
Y309500D02*
D03*
Y297500D02*
D03*
Y285500D02*
D03*
Y261500D02*
D03*
Y225500D02*
D03*
Y213500D02*
D03*
Y129500D02*
D03*
Y117500D02*
D03*
Y93500D02*
D03*
X24000Y321500D02*
D03*
Y309500D02*
D03*
Y297500D02*
D03*
Y285500D02*
D03*
Y273500D02*
D03*
Y249500D02*
D03*
Y237500D02*
D03*
Y213500D02*
D03*
Y117500D02*
D03*
Y105500D02*
D03*
X12000Y297500D02*
D03*
Y285500D02*
D03*
Y273500D02*
D03*
Y261500D02*
D03*
Y249500D02*
D03*
Y237500D02*
D03*
Y225500D02*
D03*
Y201500D02*
D03*
Y189500D02*
D03*
X0Y297500D02*
D03*
Y285500D02*
D03*
Y273500D02*
D03*
Y261500D02*
D03*
Y249500D02*
D03*
Y237500D02*
D03*
Y225500D02*
D03*
X-12000Y297500D02*
D03*
Y285500D02*
D03*
Y273500D02*
D03*
Y261500D02*
D03*
Y237500D02*
D03*
Y225500D02*
D03*
Y213500D02*
D03*
Y201500D02*
D03*
X147000Y232000D02*
D03*
Y236500D02*
D03*
Y241000D02*
D03*
X147000Y178000D02*
D03*
Y114000D02*
D03*
Y173500D02*
D03*
Y169000D02*
D03*
Y105000D02*
D03*
X251500Y201000D02*
D03*
X147000Y109500D02*
D03*
X284500Y196000D02*
D03*
X211000Y201500D02*
D03*
D95*
X119779Y160600D02*
D03*
X167000Y75000D02*
D03*
X113461Y152087D02*
D03*
X113500Y155000D02*
D03*
X124492Y161816D02*
D03*
X165525Y169587D02*
D03*
X193500Y168035D02*
D03*
X216493Y117343D02*
D03*
X215650Y179500D02*
D03*
X122660Y149778D02*
D03*
X122352Y86633D02*
D03*
X114717Y86642D02*
D03*
X121902Y212936D02*
D03*
X160525Y232587D02*
D03*
X150503Y77583D02*
D03*
X241850Y114000D02*
D03*
X187301Y229589D02*
D03*
X114968Y149735D02*
D03*
X113683Y91817D02*
D03*
X113500Y96500D02*
D03*
X151176Y141537D02*
D03*
X151375Y205012D02*
D03*
X123500Y69500D02*
D03*
X159000Y76500D02*
D03*
X153000Y82500D02*
D03*
X286000Y103118D02*
D03*
X66500Y278500D02*
D03*
X122000Y72000D02*
D03*
X119500D02*
D03*
X160500Y84500D02*
D03*
X153000Y146000D02*
D03*
X158000Y140000D02*
D03*
X276000Y113000D02*
D03*
X203059D02*
D03*
X167000Y139500D02*
D03*
X158500Y203500D02*
D03*
X159500Y211500D02*
D03*
X275941Y176000D02*
D03*
X203559Y177000D02*
D03*
X160500Y148500D02*
D03*
X154700Y208500D02*
D03*
X168241Y199937D02*
D03*
X253350Y235000D02*
D03*
X249000Y226500D02*
D03*
X245000Y230299D02*
D03*
X208669Y226028D02*
D03*
X207488Y234028D02*
D03*
X205000Y226000D02*
D03*
X275941Y108000D02*
D03*
X226000Y103059D02*
D03*
X236059Y103000D02*
D03*
X255129Y99949D02*
D03*
X251000Y100000D02*
D03*
X246000Y104150D02*
D03*
X254850Y108000D02*
D03*
X208850D02*
D03*
X211000Y100000D02*
D03*
X206500D02*
D03*
X203059Y108000D02*
D03*
X193000Y104150D02*
D03*
X188000Y103059D02*
D03*
X237059Y166500D02*
D03*
X188500Y166559D02*
D03*
X203559Y172000D02*
D03*
X207000Y163500D02*
D03*
X208850Y171500D02*
D03*
X211000Y163500D02*
D03*
X276000Y171000D02*
D03*
X286000Y166059D02*
D03*
X227000Y166559D02*
D03*
X247000Y167799D02*
D03*
X242850Y177500D02*
D03*
X254850Y171500D02*
D03*
X251500Y163500D02*
D03*
X255500D02*
D03*
X273941Y234000D02*
D03*
X284000Y229059D02*
D03*
X289000Y229059D02*
D03*
X253500Y226500D02*
D03*
X214174Y242087D02*
D03*
X207867Y242079D02*
D03*
X248150Y240000D02*
D03*
X241850D02*
D03*
X192137Y230926D02*
D03*
X235059Y229000D02*
D03*
X225000Y229059D02*
D03*
X201696Y233528D02*
D03*
X165525Y232587D02*
D03*
X159965Y105223D02*
D03*
X165252Y105186D02*
D03*
X160025Y169587D02*
D03*
X307000Y289134D02*
D03*
X294000D02*
D03*
X281000Y289134D02*
D03*
X266000Y289134D02*
D03*
X4339Y190760D02*
D03*
X-6000Y191000D02*
D03*
X-500Y191000D02*
D03*
X217000Y-2150D02*
D03*
X238000D02*
D03*
X151000Y32295D02*
D03*
X157000Y32000D02*
D03*
X105000Y33114D02*
D03*
X99000Y33409D02*
D03*
D96*
X160466Y196587D02*
D03*
X163025Y196587D02*
D03*
X165584D02*
D03*
Y203287D02*
D03*
X163025Y203287D02*
D03*
X162352Y74483D02*
D03*
X164911D02*
D03*
X164911Y67783D02*
D03*
X162352Y67783D02*
D03*
X159793Y67783D02*
D03*
X162525Y139437D02*
D03*
X165084D02*
D03*
Y132737D02*
D03*
X162525D02*
D03*
X159966D02*
D03*
D97*
X160466Y203287D02*
D03*
X159793Y74483D02*
D03*
X159966Y139437D02*
D03*
M02*
